<?xml version="1.0" standalone="no"?>
<!DOCTYPE svg PUBLIC "-//W3C//DTD SVG 20010904//EN"
 "http://www.w3.org/TR/2001/REC-SVG-20010904/DTD/svg10.dtd">
<svg version="1.0" xmlns="http://www.w3.org/2000/svg"
 width="433.000000pt" height="433.000000pt" viewBox="0 0 433.000000 433.000000"
 preserveAspectRatio="xMidYMid meet">
<metadata>
Created by potrace 1.14, written by Peter Selinger 2001-2017
</metadata>
<g transform="translate(0.000000,433.000000) scale(0.100000,-0.100000)"
fill="#000000" stroke="none">
<path d="M2060 4063 c-57 -142 -106 -262 -110 -266 -4 -4 -26 18 -51 49 -24
30 -96 120 -159 198 -63 78 -125 154 -138 170 -12 16 -24 27 -26 25 -2 -2 -7
-47 -11 -99 -3 -52 -8 -113 -10 -135 -6 -60 -13 -150 -21 -245 -3 -47 -7 -86
-8 -87 -1 -1 -111 74 -244 168 -134 93 -245 169 -247 169 -5 0 2 -37 8 -48 3
-4 8 -25 11 -47 4 -22 11 -56 16 -75 5 -19 11 -46 14 -60 2 -14 16 -77 31
-140 15 -63 29 -126 31 -140 3 -14 7 -31 9 -37 5 -16 -5 -16 -42 -2 -55 22
-515 179 -523 179 -5 0 56 -112 135 -250 79 -137 141 -251 137 -251 -4 -1 -9
-1 -12 -1 -68 3 -271 14 -298 17 -20 2 -95 6 -166 10 l-129 7 94 -90 c52 -49
112 -107 135 -128 206 -195 203 -192 177 -198 -13 -4 -132 -29 -265 -56 -132
-28 -255 -54 -272 -59 l-31 -8 25 -11 c14 -7 167 -68 340 -136 l315 -125 3 37
c7 104 36 262 62 341 121 370 402 666 780 819 111 45 234 77 380 98 55 9 294
8 335 0 17 -3 53 -9 80 -12 140 -18 433 -128 506 -190 8 -8 19 -14 23 -14 18
0 168 -122 242 -196 228 -230 351 -516 368 -854 1 -25 5 -34 16 -32 21 5 653
264 662 272 5 3 -108 30 -250 59 -141 29 -275 58 -297 63 l-40 10 110 105 c61
57 156 147 212 200 56 53 100 100 97 105 -3 5 -9 6 -13 4 -4 -3 -59 -8 -122
-11 -63 -3 -134 -8 -158 -10 -25 -3 -99 -7 -165 -11 -67 -3 -124 -8 -128 -11
-18 -10 -6 22 28 80 20 34 51 87 67 117 17 30 63 111 103 180 40 69 71 126 69
129 -4 3 -71 -19 -419 -141 -77 -26 -142 -46 -144 -43 -3 3 0 27 6 53 7 26 14
56 16 67 3 11 25 112 50 224 25 113 45 206 43 207 -1 2 -72 -45 -157 -104
-381 -265 -336 -236 -336 -209 -1 12 -4 58 -8 102 -3 44 -9 107 -11 140 -3 33
-7 85 -10 115 -3 30 -7 84 -11 120 -3 35 -7 66 -9 68 -1 2 -83 -96 -180 -218
-98 -121 -181 -222 -184 -225 -4 -2 -54 112 -111 253 -56 141 -106 261 -110
265 -4 4 -53 -108 -110 -250z"/>
<path d="M2228 3595 c-26 -6 -53 -17 -60 -23 -10 -8 -28 -6 -68 8 -68 23 -143
20 -259 -9 -465 -117 -837 -473 -967 -926 -12 -44 -25 -96 -28 -115 -3 -19 -8
-46 -11 -60 -3 -14 -7 -67 -10 -119 -5 -102 6 -140 48 -163 34 -19 2540 -20
2579 -1 47 23 59 52 57 140 -11 481 -310 935 -754 1148 -132 63 -269 105 -390
120 -27 4 -59 8 -70 9 -11 2 -41 -2 -67 -9z m132 -209 c83 -11 220 -56 311
-101 61 -30 199 -117 199 -125 0 -3 -22 -22 -49 -42 -58 -43 -94 -110 -94
-174 0 -25 2 -46 4 -48 2 -2 16 -2 32 1 24 5 27 10 27 47 0 54 29 99 86 136
58 36 63 34 149 -67 l65 -76 -38 -27 c-74 -55 -107 -117 -91 -174 22 -77 -3
-160 -67 -216 l-35 -30 19 -25 20 -25 40 37 c73 67 87 103 87 222 l1 103 42
40 c24 22 47 38 53 36 14 -5 65 -97 100 -180 29 -72 65 -206 73 -275 l5 -43
-1130 1 c-863 0 -1129 3 -1130 12 -1 7 -1 15 -1 18 22 181 103 385 213 531 47
62 109 131 160 176 l26 23 31 -53 c58 -98 54 -96 116 -66 l54 27 7 -57 c10
-80 42 -158 83 -204 40 -45 72 -63 130 -77 43 -9 52 -3 52 40 0 13 -7 19 -22
19 -41 0 -103 38 -131 82 -33 51 -48 102 -50 171 l-2 51 45 8 c44 8 100 16
130 17 11 1 16 12 17 36 1 66 14 103 44 133 24 23 29 35 23 56 -7 31 -8 31
-44 9 -34 -20 -78 -97 -82 -141 -1 -18 -7 -32 -13 -33 -65 -5 -177 -34 -225
-59 -21 -11 -43 -20 -48 -20 -11 0 -52 73 -52 94 0 36 256 166 376 190 10 3
39 9 64 15 68 16 79 14 91 -16 6 -16 17 -41 25 -57 11 -23 14 -89 14 -338 0
-193 4 -317 10 -329 18 -33 60 -48 100 -35 53 17 58 38 58 235 0 97 1 181 1
188 1 8 13 8 49 -1 26 -6 59 -11 74 -10 l27 1 -20 -38 c-11 -22 -19 -58 -19
-85 0 -40 5 -51 38 -84 25 -25 50 -40 77 -44 64 -11 128 -48 147 -86 15 -29
15 -36 3 -61 -8 -15 -27 -37 -41 -48 -29 -23 -113 -51 -151 -51 -21 0 -24 -4
-21 -27 3 -27 5 -28 56 -27 143 4 260 128 217 231 -9 20 -25 45 -35 56 -27 24
-107 63 -150 72 -46 9 -80 42 -80 75 0 32 34 85 72 113 15 11 58 28 95 37 53
13 69 21 71 36 5 41 -9 44 -113 18 -109 -26 -196 -30 -256 -12 -43 12 -42 9
-40 136 1 66 39 171 61 167 8 -2 35 -6 60 -9z"/>
<path d="M1455 2870 c-22 -17 -49 -48 -61 -69 -16 -29 -25 -36 -36 -30 -31 17
-98 17 -143 0 -58 -22 -61 -26 -41 -56 17 -25 19 -26 41 -11 46 30 165 8 165
-30 0 -6 14 -30 31 -54 31 -43 29 -59 -9 -60 -18 0 -112 -96 -112 -113 0 -8
11 -18 25 -21 20 -5 31 0 57 29 57 66 123 81 188 43 75 -44 309 -116 324 -100
3 3 6 17 6 32 0 25 -5 27 -74 43 -82 17 -222 70 -247 93 -8 8 -20 14 -25 14
-17 0 -92 83 -104 114 -17 45 4 92 53 124 23 14 44 27 46 29 9 6 -19 53 -31
53 -7 0 -31 -14 -53 -30z"/>
<path d="M841 2090 c-5 -3 -8 -256 -8 -563 0 -613 2 -631 60 -740 55 -105 146
-185 262 -232 62 -25 86 -29 203 -33 72 -2 132 -7 133 -11 1 -3 3 -79 5 -168
l4 -163 -113 0 c-136 0 -157 -10 -157 -71 0 -55 23 -96 57 -102 16 -3 107 -5
203 -3 l175 2 0 257 0 257 501 0 500 0 0 -257 0 -257 175 -2 c95 -2 187 0 202
3 54 10 82 101 46 147 -16 20 -27 24 -86 24 -38 0 -91 1 -118 1 l-51 1 2 133
c2 72 3 149 3 170 l1 37 105 0 c123 0 188 12 271 51 120 55 216 167 259 302
24 72 24 73 25 645 0 540 -1 572 -17 573 -10 0 -57 1 -105 2 l-87 2 -3 -580
-3 -580 -23 -43 c-41 -78 -120 -139 -199 -157 -18 -3 -425 -7 -903 -7 -976 0
-927 -3 -1015 74 -25 22 -58 64 -73 92 l-27 51 -2 568 c-1 313 -4 571 -7 574
-7 7 -185 10 -195 3z"/>
<path d="M2780 1622 c-25 -21 -119 -98 -210 -172 -91 -73 -171 -139 -179 -146
-11 -10 29 -34 229 -134 133 -67 243 -120 245 -118 1 2 17 31 34 65 l31 63
-135 66 c-74 36 -137 70 -140 74 -3 4 10 19 28 33 17 13 43 34 56 46 13 12 59
49 102 83 l78 61 -19 26 c-10 14 -31 41 -47 58 l-28 33 -45 -38z"/>
<path d="M1469 1617 c-13 -17 -29 -39 -36 -48 -10 -14 4 -29 100 -107 148
-120 172 -140 167 -145 -3 -3 -69 -37 -147 -76 l-143 -71 27 -55 c15 -30 30
-55 33 -55 15 2 454 228 456 236 2 5 -54 54 -123 109 -69 55 -159 129 -201
163 -105 87 -104 87 -133 49z"/>
</g>
</svg>
