<svg xmlns="http://www.w3.org/2000/svg" width="3000" height="3000" xmlns:v="https://vecta.io/nano"><style><![CDATA[.B{fill:#a85f36}.C{fill:#e09273}.D{fill:#773a11}.E{fill:#f4bbab}.F{fill:#111}.G{fill:#4f2000}.H{fill:#40b509}.I{fill:#e3e5e5}.J{fill:#297700}.K{fill:#ea2688}.L{fill:#b7006d}.M{clip-path:url(#B)}.N{clip-path:url(#C)}]]></style><g transform="matrix(1.154265 0 0 1.15454 1335 190.5)"><svg width="1025.328" height="901.658"><clipPath id="A"><circle cx="450.829" cy="450.829" r="450.829"/></clipPath><circle cx="450.829" cy="450.829" r="450.829" class="I"/><path d="M709.814 541.973c-37.726-12.68-130.952-31.339-154.01-34.183l-161.423-27.732c-49.923-9.306-160.9-16.438-203.657-1.814-26.018 8.9-43.606 165.025-54.807 295.195a450.932 450.932 0 0 0 565.5 52.21c16.436-116.512 35.967-274.41 8.397-283.676z" fill="#f62"/><path d="M399.919 320.467l171.526 17.886-20.847 199.923a86.228 86.228 0 1 1-171.526-17.886l20.847-199.923z" class="C"/><g fill="#f62"><path d="M376.919 477.242c14.787 34.47 95.7 73.441 95.7 73.441l8.863 67.955 35.473-74.425 51.606-40.321 22.458 13.034s-20.937 123.6-111.862 116.107-133.5-153.226-133.5-153.226z"/><path d="m384.239 430.159-71.476 37.682c19.773 51.6 48.09 96.577 87.847 132.669 17.485-21.017 35.132-41.432 57.682-43.674l23.189 61.8v-75.81c-41.922-25.052-88.4-72.333-97.242-112.667zm97.242 188.479 25.382-81.421c25.283-15.106 39.519-36.2 54.2-67.339l38.533 44.9C590.314 547.51 572.2 579.889 547.245 612c-6.7-25.775-15.087-47.942-31.408-53.1zm346.776 78.841c-32.957-81.765-73.021-143.344-118.443-155.506-56.359-15.09-130.723 126.612-100.222 251.781 0 0 7.356 29.948 19.737 71.177a452.557 452.557 0 0 0 198.928-167.452zM190.724 478.244C129.057 493.053 82.27 563.233 42.169 641.46a452.749 452.749 0 0 0 167.972 190.631C238.318 771.986 260 717.624 260 717.624c39.331-84.709 24.226-261.836-69.276-239.38z"/></g><g fill="#c83400"><path d="M481.483 626.138q-.306 0-.613-.025a7.5 7.5 0 0 1-6.411-4.84l-20.676-55.106a85.9 85.9 0 0 0-11.523 5.553c-9.371 5.376-23.138 15.482-35.512 33.1a7.5 7.5 0 0 1-11.527.906c-3.116-3.221-76.483-79.517-89.761-136.173a7.5 7.5 0 0 1 14.605-3.423c10.23 43.653 62.116 103.241 79.928 122.722 26.061-32.43 55.4-39.065 56.724-39.349a7.5 7.5 0 0 1 8.6 4.7l17.6 46.9 26.422-45.94a7.5 7.5 0 0 1 9.886-2.954c.958.484 20.973 10.963 31.628 43.716 13.177-16.8 36.459-50.25 41.329-82.273a7.5 7.5 0 0 1 14.829 2.256c-7.533 49.533-52.321 99.062-54.224 101.146a7.5 7.5 0 0 1-12.9-3.628c-3.831-19.732-11.4-31.889-17.077-38.613a53.275 53.275 0 0 0-4.661-4.881l-30.162 52.443a7.5 7.5 0 0 1-6.504 3.763z"/><g clip-path="url(#A)"><path d="M446.649 908.812q-.31 0-.626-.026a7.5 7.5 0 0 1-6.857-8.092c5.787-70.032 28.2-245.623 34.931-283.373a7.5 7.5 0 0 1 14.767 2.634c-6.521 36.559-29.127 213.95-34.749 281.974a7.5 7.5 0 0 1-7.466 6.883zm237.484-61.069h-.239a7.5 7.5 0 0 1-7.262-7.731c.751-23.989 2.74-60.572 6.072-91.3a7.5 7.5 0 1 1 14.912 1.617c-3.286 30.308-5.25 66.444-5.992 90.155a7.5 7.5 0 0 1-7.491 7.259zm-546.01-66.609q-.333 0-.67-.03a7.5 7.5 0 0 1-6.809-8.132l5.175-55.884a7.5 7.5 0 1 1 14.91 1.637c-1.076 9.8-2.887 30.076-5.144 55.569a7.5 7.5 0 0 1-7.462 6.84z"/></g></g><path d="M606.586 143.49c22.244 82.536 81.476 204.33 73.954 232.944-12.421 47.248-139.881 82.41-214.6 51.643-86.863-35.767-86.1-113.676-93.385-183.1C357.6 102.376 584.072 59.947 606.586 143.49z" class="C"/><path d="M416.011 310.234c18.164-14.019 26.606-45.771 22.3-72.084 20.49 5.207 57.073-13.176 59.538-33.44 17.938 3.47 49.6-15.525 44.858-31.808 0 0 50.171 35.762 89.715 4.078 31.583-25.3 15.137-68.935-3.594-82.994-27.438-20.594-54.687-16.752-65.6-9.411-17.847-33.207-64.984-28.986-73.4 4.707-22.544-37.211-98.942-21.818-105.328 28.024-20.534-1.808-32.514 20-20.534 36.7-44.135-8.258-68.783 55.212-36.407 86.045-11.517 10.676-14.794 60.258 15.328 70.181-12.359 36.321 12.629 79.141 49.861 79.051l2.121-20.346z" class="D"/><path d="M416.011 310.234c-10.458-18.5-68.494-26.223-53.764 25.515 9.6 33.716 41.918 36.45 53.764 30.983s11.847-35.539 0-56.498z" class="C"/><path d="M599.589 274.412a7.5 7.5 0 0 1-6.876-10.489c3.988-9.189 12.482-16.394 23.3-19.767 11.419-3.56 23.642-2.32 32.7 3.32a7.5 7.5 0 0 1-7.929 12.733c-5.324-3.315-13.105-3.978-20.306-1.733-6.653 2.074-11.759 6.236-14.009 11.42a7.5 7.5 0 0 1-6.88 4.516zm-109.255 42.255a7.507 7.507 0 0 1-7.068-10.012c4.393-12.371 15.882-22.735 29.982-27.046 12.782-3.906 25.459-2.2 34.782 4.686a7.5 7.5 0 1 1-8.911 12.066c-5.463-4.035-13.3-4.912-21.485-2.407-9.5 2.9-17.441 9.86-20.233 17.72a7.5 7.5 0 0 1-7.067 4.993z" class="F"/><path d="M604.827 329.889a7.505 7.505 0 0 1-6.884-10.471c3.483-8.08 1.464-13.548-.334-14.554-1.721-.964-6.526 1.076-11.835 8.618a7.5 7.5 0 0 1-12.266-8.635c11.416-16.217 23.72-17.387 31.426-13.073 9.925 5.554 12.777 19.677 6.783 33.582a7.5 7.5 0 0 1-6.89 4.533z" class="B"/><path d="M567.17 221.5c-9.408 17.307 19.456 33.473 25.881 16.728 6.541-17.051 20.4-25.585 34.923-25.5 10.247.063 13.117-19.193-8.549-19.2-19.549.002-43.24 11.392-52.255 27.972zm-35.206 12.675c-14.121-3.284-51.49 9.887-61.173 22.212-10.844 13.8 0 28.671 10.69 18.635 12.868-12.082 37.011-13.5 53.3-10.706s17.198-25.486-2.817-30.141z" class="G"/><path d="M693.232 327.482l272.787-113.335c24.328-9.123 12.164-32.612-13.38-31.626l49.872 3.041c20.678-4.027 36.879 29.2 4.257 43.181-19.591 8.4-201.649 78.194-307.041 118.521-43.911 16.802-48.251-2.303-6.495-19.782z" class="J"/><path d="M952.639 182.521c-18.993 0-24.935 22.373-14.6 31.018l54.7 2.419c-12.122-11.064-9.081-25.53 9.773-30.4z" class="H"/><path d="m621.979 357.33 3.234 18.423 74.514-28.489-6.495-19.782z" fill="#ffd215"/><g class="B"><path d="M405.984 350.2a7.5 7.5 0 0 1-7.069-4.994c-4.985-14.055-14.074-23.49-20.7-21.47a7.5 7.5 0 1 1-4.367-14.35c15.022-4.575 31.145 8.095 39.2 30.805a7.5 7.5 0 0 1-7.068 10.009z"/><path d="M387.086 340.078a7.5 7.5 0 0 1-6.281-11.59l6.626-10.19a7.5 7.5 0 0 1 12.576 8.178l-6.627 10.19a7.493 7.493 0 0 1-6.294 3.412zm235.08 48.497a7.5 7.5 0 0 1-6.081-11.882c1.912-2.656 3.971-6.588 2.925-10.24-.944-3.295-4.424-6.322-9.8-8.524a7.5 7.5 0 1 1 5.686-13.881c12.451 5.1 16.95 12.753 18.532 18.274 1.491 5.2 1.805 13.444-5.171 23.135a7.493 7.493 0 0 1-6.091 3.118zm-92.622 59.497c-23.529 0-40.806-4.353-50.47-7.627a7.5 7.5 0 0 1 4.813-14.207c12.39 4.2 38.737 10.342 75.979 4.341a7.5 7.5 0 1 1 2.387 14.809 205.533 205.533 0 0 1-32.709 2.684z"/></g><path d="M534.613 118.37c5.087-19.67 20.967-29.287 28.61-33.795 13.674-8.066 39.949-11.625 65.6 9.411s29.535 67.37 3.594 82.994-53.253 14.493-78.947 2.221-22.97-44.928-18.857-60.831z" class="D"/><path d="M542.688 180.4a7.439 7.439 0 0 1-3.46-.855 55.009 55.009 0 0 1-19.063-18.1 7.5 7.5 0 1 1 12.713-7.962 40.2 40.2 0 0 0 13.336 12.793 7.506 7.506 0 0 1-3.526 14.128z" class="G"/></svg></g><g transform="matrix(1.176775 0 0 1.176775 139.5 568.5)"><svg width="1273.395" height="1273.395"><clipPath id="B"><circle cx="636.698" cy="636.698" r="636.698"/></clipPath><circle cx="636.698" cy="636.698" fill="#55a2ff" r="636.698"/><g class="B"><path d="M755.915 204.3c-13.5-41.841 36.4-71.863 72.986-36.766-25.381-5.071-62.672 10.66-72.986 36.766z"/><path d="M760.262 189.984c42.9 25.225 49.251 65.043 52.78 140.919 2.283 49.111 37.683 65.319 29.326 126.045-11.162 81.109-124.523 84.687-193.039 83.709-49.739-.71-147.012-1.038-220.3-54.363a34.48 34.48 0 0 0 16.815-25.638c-6.367 8.351-23.888 11.288-35.851 13.052-18.267-7.929-28.289-23.716-35.5-38.81 0 0 57.624.324 69.662-95.286C453.7 263.789 463.522 218.435 509 183.857c33.43-25.416 77.407-40.183 116.021-26.642 52.013-5.704 94.119 8.591 135.241 32.769z"/></g><g class="E"><rect height="354.343" rx="86.135" transform="matrix(-.998849 -.047961 .047961 -.998849 1286.681 1003.033)" width="172.27" x="569.237" y="308.911"/><path d="M532.887 206.069c-39.306 20.316-43.917 70.411-52.587 105.165-7.289 29.231-23.572 38.75-27.78 74.41-4.386 37.174 32.613 107.131 92.268 115.087 65.647 8.756 135.922-13.89 165.686-53.575s45.638-154.772 0-206.363-121.274-63.831-177.587-34.724z"/></g><path d="M606.36 184.278c-12.388 42.31 93.922 170.154 121.62 176.485 45.157 10.322 64.085-111.875 32.282-170.779-30.382-56.273-137.294-62.43-153.902-5.706z" class="B"/><path d="M727.98 360.763c18.482-35.843 59.364-16.8 56.564 17.361s-35.842 57.124-52.083 46.483-15.002-43.438-4.481-63.844z" class="E"/><path d="M842.368 456.948c-9.969 67.117-65.649 106.939-140.237 68.973 22.719-5.293 56.6-17.651 60.243-50.045 4.42-39.343 84.305-47.952 79.994-18.928z" class="B"/><ellipse cx="624.505" cy="342.37" fill="#fff" rx="36.95" ry="32.469" transform="matrix(.121488 -.992593 .992593 .121488 208.801 920.655)"/><ellipse cx="627.713" cy="339.619" rx="27.914" ry="19.103" transform="matrix(.121488 -.992593 .992593 .121488 214.349 921.422)" class="F"/><ellipse cx="512.21" cy="323.218" fill="#fff" rx="34.906" ry="29.055" transform="matrix(.121488 -.992593 .992593 .121488 129.158 792.366)"/><ellipse cx="514.835" cy="320.972" rx="26.244" ry="17.623" transform="matrix(.121488 -.992593 .992593 .121488 133.693 792.999)" class="F"/><path d="M534.754 275.287c17.665 8.738 25.9-16.321 13.483-22.353s-43.287-6.741-58.9 8.161c-8.9 8.493-8.161 20.035 1.064 17.113s30.007-10.017 44.353-2.921zm77.775-13.63c-16.766 3.454-16.205 25.554-3.192 26.081 14.665.6 44.177 8.149 53.639 24.011 4.364 7.317 13.242 2.031 10.613-10.7-5.275-25.557-44.062-42.894-61.06-39.392z" class="D"/><g class="C"><path d="M528.186 389.945a7.5 7.5 0 0 1-7.5-7.5c0-16.542 10.193-26 20.295-28.045 11.683-2.36 22.719 4.393 28.112 17.2a7.5 7.5 0 0 1-13.825 5.82c-2.576-6.12-6.807-9.225-11.318-8.319-4.113.831-8.264 5.278-8.264 13.341a7.5 7.5 0 0 1-7.5 7.503zM737 412.137a7.5 7.5 0 0 1-7.477-7.013c-1.07-16.462 4.091-32.679 13.148-41.314a24.948 24.948 0 0 1 20.549-7.068 7.5 7.5 0 0 1-1.686 14.9 10 10 0 0 0-8.513 3.02c-5.792 5.522-9.3 17.646-8.529 29.483a7.5 7.5 0 0 1-7 7.971 5.128 5.128 0 0 1-.492.021z"/><path d="M753.654 397.336a7.476 7.476 0 0 1-5.253-2.148l-11.825-11.608a7.5 7.5 0 1 1 10.508-10.7l11.825 11.607a7.5 7.5 0 0 1-5.255 12.853z"/></g><path d="M624.505 425.293c-5.57-2.944-16.494 10.566-31.559 15.478-12.627 4.117-32.1-.58-34.461 5.432-5.443 13.871 21.448 26.823 46.518 18.459 18.822-6.28 30.433-33.593 19.502-39.369z" fill="#fff"/><path d="M573.1 510.1a7.5 7.5 0 0 1 0-15c29.944 0 61.466-6.091 80.307-15.517A7.5 7.5 0 0 1 660.116 493c-21.085 10.55-54.428 17.1-87.016 17.1z" class="C"/><path d="M739.133 518.748a7.5 7.5 0 0 1-3.895-13.915c14.525-8.8 18.81-25.5 19.777-30.408a7.5 7.5 0 0 1 14.717 2.9c-1.267 6.431-6.941 28.348-26.719 40.335a7.459 7.459 0 0 1-3.88 1.088zM605.632 196.325c-.134 0-.268 0-.4-.01a7.5 7.5 0 0 1-7.093-7.886c.459-8.673 4.4-17.6 11.726-26.532a76.33 76.33 0 0 1 10.512-10.566 7.5 7.5 0 1 1 9.3 11.767c-4.4 3.507-15.976 15.058-16.562 26.124a7.5 7.5 0 0 1-7.483 7.103z" class="D"/><path d="m738.22 556.621 137.16 20.75s-77.153 107.7-243.9 95.178S447.9 579.343 447.9 547.245l118.226 1.629z" class="E"/><g class="K"><path d="M899.649 575.8c-22.7-9.394-59.5-12.526-65.762-12.526-5.48 27.4-73.278 75.972-196.529 70.126-99.038-4.7-154.231-48.582-160.494-96.338 0 0-40.71-1.565-58.716 0s-42.667 162.1-53.627 193.415-30.588 90.508-32.1 122.913c-2.064 44.281 18.836 135.865 20.325 183.848 1.462 47.126-4.23 103.468-20.889 132.435-.923 1.6-4.627 11.3-8.409 21.444a637.85 637.85 0 0 0 577.583 24.968c-6.672-21.416-15.135-46.979-20.593-58.155 0 0 44.481-107.655 49.435-243.674 5.482-90.026-7.52-329.056-30.224-338.456z"/><path d="M1163.529 861.575c-48.152-37.28-63.334-60.955-90.089-109.511s-105.108-150-173.791-176.259C839.671 552.879 827.5 814.7 852.72 864.939c24.262 48.323 86.108 170.536 148.2 241.39 8.934 10.194 20.717 19.236 34.274 26.968a639.075 639.075 0 0 0 177.083-224.071 315.078 315.078 0 0 0-48.748-47.651zm-917.696-203.17C196.7 714.96 94.216 806.645 35.232 846.057a636.723 636.723 0 0 0 144.25 233.728 133.325 133.325 0 0 0 3.457-3.9c61.809-72.653 186.512-186.223 207.116-240.587s28.093-298.234 28.093-298.234c-58.065 5.328-114.843 55.194-172.315 121.341z"/></g><g fill="#5917c1"><path d="M352.747 1037.243c-1.489-47.983-22.388-139.567-20.324-183.849.854-18.337 7.512-45.252 15.116-70.84 11.323 7.47 23.862 15.078 37.8 22.967 83.154 47.076 319.754 48.393 454.028 26.392a203.971 203.971 0 0 0 89.761-38.073c2.085 47.508 2.488 91.843.748 120.421-2.275 62.475-14.8 133.846-28.541 180.061-167.477 27.768-398 9.278-548.377-46.022.054-3.706-.1-7.5-.211-11.057z"/><path d="M843.155 823.964c78.556-29.528 149.381-96.1 174.8-150.4 17.912 18.82 47.456 63.928 55.486 78.5 25.493 46.264 56.7 82.705 90.09 109.511-29.2 70.522-76.945 165.887-192.82 205.845-52.696-69.606-99.011-164.683-117.991-202.481-3.628-7.225-7.447-26.139-9.565-40.975zM64 825.377c59.414-45.136 139.973-118.8 181.829-166.972l.582-.669c19.82 61.028 52.818 99.04 138.922 147.785 3.406 1.929 7.094 3.772 11 5.549-1.938 10.019-4.029 18.29-6.281 24.232-14.252 37.621-78.365 103.598-136.986 164.741C142.767 944.787 93.381 892.354 64 825.377z"/></g><path d="M337.905 915.232a7.5 7.5 0 0 1-7.422-6.486c-.2-1.506-5.041-37.085-5.557-55.137-.556-19.406 17.22-81.962 24.873-103.175a7.5 7.5 0 0 1 14.11 5.091c-8.172 22.649-24.434 82.148-23.99 97.655.494 17.248 5.377 53.176 5.427 53.537a7.5 7.5 0 0 1-7.441 8.515z" class="L"/><path d="M925.668 990.922a7.494 7.494 0 0 1-6.354-3.5l-73.2-118.927a7.5 7.5 0 0 1 13.212-7.1c9.527 17.72 72.051 117.036 72.681 118.037a7.5 7.5 0 0 1-6.339 11.5z" class="F"/><path d="m852.72 822.535 196.731 86.726c96.652 40.711 29.935 267.281-64.426 207.811l-210.65-163.736c-59.975-33.29 18.369-164.091 78.345-130.801z" class="E"/><g class="K"><path d="M1185.847 959.1c-16.635-23.367-46.8-36.136-76.982-38.291 0 0-28.963-46.341-51.306-49.651s-49.339-1.954-49.339-1.954c-20.706-33.95-38.442-39.441-67.07-24.8l-74.382 186.266s9.228 40.592 31.921 55.625c22.009 14.579 53.26 21.568 53.26 21.568 15.65 28.408 26.1 45.336 44.05 54.529A639.974 639.974 0 0 0 1185.847 959.1z"/><path d="M941.15 844.4c14.358 61.208-50.085 184.9-81.182 189.586-22.372 3.371-62.52-40.455-63.991-48.545s37.907-27.741 55.9-77.967c17.7-49.392 14.869-71.313 23.917-77.2s62.486 1.887 65.356 14.126z"/></g><g class="E"><path d="M852.72 822.535c-16.211-18.866-40.344-74.222-50.156-90.363s-144.412 3.17-132.535 24.019 26.719 39.856 21.339 68.1-18.832 100.21 4.708 110.971 60.392 14.978 78.3 18.07c23.438 4.051 98.284-107.592 78.344-130.797z"/><path d="M691.368 824.3c-11.816 24.679-29.019 43.029-45.649 49.336s-63.572 9.493-81.268 30.966c-24.684 29.954-8.574 56.447 22.364 39.568 29.084-15.868 73.845-25.028 113.963-6.9 13.255 5.98-9.41-112.97-9.41-112.97zm10.764-83.759c-4.062-10.339-27.319-71.367-33.966-74.7s-59.659-6.326-64.887-5.789-30.928 29.814-40.667 46.2c-11.8 19.849 17.64 43.577 35.064 21.671l20.282-26.182 24.62 1.8 27.451 52.646z"/><path d="M731.293 731.178c-5.1-7.619-21.121-52.856-28.774-54.9s-59.079-3.1-63.417 3.1-15.135 55.057-13.4 63.937 9.159 19.61 13.354 29.158c11.814 26.88 52.8 8.152 39.9-19.251-8.943-19-8.941-25.715-8.941-25.715l4.032-13.4 13.541 26.116z"/><path d="M764.057 726.485c-5.486-13.888-22.942-46.5-28.036-47.289s-70.434 12.37-74.353 17.857-6.662 51.731-5.878 59.569 25.924 20.4 35.571 27.041c21.646 14.892 44.752-21.53 23.214-36.055l-12.477-8.552 3.954-19.923 20.881 12.947z"/><path d="M802.564 732.172c-9.127-20.986-19.93-35.462-24.916-36.485s-78.929 7.791-83.041 14.293-.36 61.215 4.067 67.14 39.519 10.058 47.755 10.767c25.408 2.189 32.276-35.867 2.279-41.709-7.9-1.539-10.881-1.365-10.881-1.365l1.566-5.174 16.168-3.788z"/></g><g class="C"><path d="M629.379 721.459a7.508 7.508 0 0 1-7.4-8.772c2.522-14.666 6.608-33.257 11.751-38.535 8.023-8.233 29.192-8.878 35.534-8.878a7.5 7.5 0 1 1 .023 15c-10.565.009-22.142 2-24.672 4.214-2.093 3.251-5.725 18.393-7.851 30.741a7.5 7.5 0 0 1-7.385 6.23zm74.031 73.165c-6.123 0-13.554-2.283-22.394-8.621-1.56-.9-7.807-4.544-14.279-8.951-14.818-10.088-17.558-15.1-18.312-19.011-1.78-9.24 4.208-57.54 6.121-63.338 2.249-6.817 10.733-10.133 41.261-16.131l5.938-1.2a7.5 7.5 0 0 1 3.234 14.647c-1.55.342-3.742.773-6.28 1.272-6.346 1.246-24.786 4.87-30.258 7.635-1.781 9.11-6.01 46.549-5.34 53.827 2.2 3.3 13.926 11.725 25.694 18.42a7.358 7.358 0 0 1 .7.448c12.921 9.377 17.936 5.183 19.584 3.8a7.5 7.5 0 0 1 9.622 11.508 23.45 23.45 0 0 1-15.291 5.695z"/><path d="M749.43 795.612a28.072 28.072 0 0 1-3.855-.271c-1.635-.144-11.768-1.07-22.545-2.782-21.7-3.448-27.975-7.077-30.716-11.465-3.561-5.7-5.313-23.671-6.155-37.744-1.881-31.427 1.1-35.871 2.217-37.544 3.431-5.121 12.492-8.577 54.7-14.364l3.535-.492a7.5 7.5 0 0 1 2.17 14.842l-3.667.511c-30.148 4.133-40.57 6.851-44.105 8.346-1.632 10.232.948 49.882 3.871 58.046 4.148 2.391 21.4 5.943 42.184 7.72q.225.018.447.051c3.783.555 11.337-1.011 12.834-10.9 1-6.6-1.838-14.261-12.8-15.978-6.329-.99-8.6-1.228-9.3-1.285a7.5 7.5 0 0 1-7.6-9.662l1.566-5.173a7.5 7.5 0 0 1 14.557.819l3.1.482c20.347 3.185 27.384 19.361 25.312 33.043-1.833 12.104-11.333 23.799-25.75 23.8zm-4.369-48.812l-.055.182a7.5 7.5 0 0 1-6.432 5.292 7.449 7.449 0 0 0 6.487-5.474z"/><path d="M786.3 871.545a7.484 7.484 0 0 1-5.6-2.51c-16.375-18.372-15.521-41.616-14.767-62.124.692-18.817 1.345-36.591-9.979-50.009a7.5 7.5 0 0 1 11.463-9.675c15.064 17.85 14.272 39.4 13.506 60.235-.713 19.4-1.386 37.723 10.975 51.592a7.5 7.5 0 0 1-5.6 12.491z"/></g><path d="m255.636 839.943-178.971 99.9a638.915 638.915 0 0 0 111.716 148.938l171.288-130.889c55.391-40.464-48.642-158.412-104.033-117.949z" class="E"/><path d="M181.631 870.788c-43.109-6.6-51.46 18.283-72.055 16.076-11.229-1.2-31.031 5.546-51.379 16.109a638.8 638.8 0 0 0 167.082 219.657l34.013-21.848c12.5-8.826 31.953-42.207 34.9-59.124-58.442-23.883-103.737-98.986-112.561-170.87z" class="K"/><g class="E"><path d="M255.636 839.943c16.212-18.866 36.2-91.927 46.015-108.068s157.36 7.706 145.484 28.555-21.838 37.355-16.458 65.6 6.3 102.766-17.243 113.527S372.9 964.49 350.425 965.7c-23.751 1.268-114.725-102.552-94.789-125.757z"/><path d="M430.677 826.032c11.816 24.679 25.594 43.484 42.224 49.792s50.8 7.3 68.5 28.773c24.684 29.954 8.575 56.447-22.364 39.568-29.084-15.868-70.185-20.734-110.3-2.61-13.26 5.989 21.94-115.523 21.94-115.523zm-29.768-83.754c4.062-10.339 39.165-71.592 45.812-74.921s74.537-11.974 82.8-7.816c10.011 5.04 20.138 28.085 30.512 46.094 13.513 23.459-20.126 45.408-35.333 20.681l-14.687-23.235-37.193 4.105-25.685 53.244z"/><path d="M372.091 730.892c5.035-7.53 32.707-54.135 40.454-55.266s56.935 12.756 60.487 19.341 13.807 48.258 11.1 56.779-17.347 31.091-23.922 40.089c-17.483 23.924-51.188 2.62-39.564-18.5 10.007-18.185 18.531-32.436 18.531-32.436l-5.05-18.156-18.839 17.1z"/><path d="M339.709 726.254c5.423-13.726 31.2-50.218 36.281-50.623s63.053 22.4 66.519 28.09 7.535 57.452 6.2 65.121-27.027 18.24-37.015 24.086c-22.412 13.115-42.556-24.454-20.278-37.215l12.916-7.529-4.742-17.148-23.187.748z"/><path d="M301.651 731.875c9.022-20.742 33.923-40.474 38.831-41.578s62.172 15.4 66.356 21.744-1.421 63.418-5.686 69.355-42.937 3.447-51.06 2.568c-25.057-2.711-25.52-40.805 4.683-40.765l12.225.132.63-6.214-19.524-1.607z"/></g><g class="C"><path d="M476.486 715.144a7.5 7.5 0 0 1-7.286-5.744c-.013-.054-1.189-4.92-2.851-10.591-4.278-2.74-19.08-8.466-31.453-12.518a7.5 7.5 0 0 1 4.667-14.256c38.147 12.489 39.652 17.468 40.647 20.762a263.649 263.649 0 0 1 3.573 13.091 7.506 7.506 0 0 1-7.3 9.257zm-73.839 87.922c-9.313 0-17.643-5.6-22.916-12.927a7.5 7.5 0 0 1 12.178-8.758c1.718 2.389 7.945 9.81 15.977 5.083.145-.085.293-.166.444-.241 13.615-6.827 29.693-16.221 33.233-20.009 1.183-9.189-1.292-51.227-4.913-57.8-3.242-3.415-21.216-11.359-36.26-16.746a7.5 7.5 0 0 1 5.055-14.123c8.335 2.984 36.055 13.339 42.8 21.338 1.673 1.984 5.589 6.629 7.695 37.151.76 11.025 1.4 29.357.032 34.67-.677 2.636-2.472 9.631-40.707 28.818a25.026 25.026 0 0 1-12.618 3.544z"/><path d="M436.553 809.9a7.572 7.572 0 0 1-1.531-.157c-10.61-2.2-18.783-8.842-22.422-18.219a7.5 7.5 0 1 1 13.984-5.427c1.266 3.262 4.286 7.465 11.484 8.958a7.5 7.5 0 0 1-1.515 14.845zm-53.823-16.653c-5.908 0-12.688-.437-20.31-1.015l-12.52-.771c-10.26-.263-18.611-5.234-22.913-13.639-4.717-9.214-3.8-21.388 2.275-30.294 5.793-8.488 15.22-12.786 25.909-11.825l5.082.055a7.5 7.5 0 0 1 14.839 2.115l-.63 6.214a7.478 7.478 0 0 1-7.543 6.744l-12.225-.133q-.334 0-.668-.037c-6.763-.675-10.462 2.52-12.374 5.322-3.026 4.434-3.566 10.6-1.313 15 1.8 3.513 5.144 5.356 9.946 5.479 3.92.1 8.46.445 13.268.809 8.423.638 28.012 2.122 31.887-.779 1.267-2.358 3.456-12.157 4.608-30.573.894-14.3.66-25.717.12-29.813-4.87-3.006-21.446-8.488-28.82-10.926l-8.426-2.842a7.5 7.5 0 1 1 5.03-14.131c2.033.723 4.847 1.654 8.106 2.731 24.688 8.165 34.018 11.991 37.188 17.2 3.088 5.077 2.694 23.449 1.819 37.966-1.993 33.068-6.72 38.459-8.273 40.231-4.649 5.308-12.755 6.912-24.062 6.912z"/><path d="M311.483 875.519A7.5 7.5 0 0 1 305.161 864c8.251-12.98 7.457-24.455 6.453-38.983-1.317-19.046-2.957-42.75 16.611-75.849a7.5 7.5 0 0 1 12.913 7.633c-17.195 29.084-15.855 48.452-14.56 67.182 1.1 15.9 2.139 30.922-8.758 48.064a7.5 7.5 0 0 1-6.337 3.472z"/></g><path d="M238.179 849.688c-25.9 18.331-22.145 76.827-5.583 102.623 21.206 33.029 60.04 40.362 98.83 27.164 10.5-3.574-19.473 57.431-37.239 62.183-113.726 30.419-149.328-86.99-122.368-165.637 2.46-7.174 69.49-45.772 66.36-26.333z" class="K"/><path d="M880.442 1165.437a7.5 7.5 0 0 1-6.912-4.583c-9.719-23.005-20.9-56.193-21.372-57.6a7.5 7.5 0 1 1 14.218-4.78c.113.338 11.475 34.06 20.971 56.537a7.506 7.506 0 0 1-6.9 10.421zM259.7 1055.117c-29.6 0-56.6-12.839-77.142-37.468-16-19.188-26.7-44.2-30.122-70.428-3.527-27.044 1.03-53.625 12.833-74.845a7.5 7.5 0 0 1 13.109 7.291c-20.84 37.469-14.091 92.658 15.7 128.374 14.487 17.368 46.446 43.908 97.7 26.515a7.5 7.5 0 1 1 4.821 14.2 114.8 114.8 0 0 1-36.899 6.361zm607.072-16.95a7.5 7.5 0 0 1-2.992-14.381c10.581-4.595 31.877-32.595 50.5-75.436 18.549-42.661 26.105-81.62 19.72-101.675a7.5 7.5 0 1 1 14.293-4.551c10.885 34.189-10.54 89.859-20.257 112.207-15.449 35.529-39.462 75.039-58.284 83.214a7.486 7.486 0 0 1-2.98.622z" class="L"/><g class="M"><path d="M30.278 944.728a7.5 7.5 0 0 1-6.989-10.217c12.464-32.091 42.716-41.177 64.8-47.811 7.364-2.212 13.724-4.122 17.86-6.4a7.5 7.5 0 1 1 7.244 13.135c-5.536 3.052-12.6 5.175-20.789 7.634-20.194 6.065-45.325 13.613-55.138 38.875a7.5 7.5 0 0 1-6.988 4.784z" class="L"/></g><g class="M"><path d="M1192.451 977.956a7.493 7.493 0 0 1-6.2-3.272c-15.489-22.691-49.981-40.938-64.937-44.778a7.5 7.5 0 1 1 3.73-14.529c16.44 4.221 54.905 23.469 73.6 50.85a7.5 7.5 0 0 1-6.188 11.729z" class="L"/></g></svg></g><g transform="matrix(1.205576 0 0 1.204513 1521 1533)"><svg width="1111.087" height="1124.521"><clipPath id="C"><circle cx="555.543" cy="555.543" r="555.543" class="I"/></clipPath><circle cx="555.543" cy="555.543" fill="#ffd215" r="555.543"/><path d="M775.007 819.293c-35.116-97.956-71.606-207-156.274-227.684 0 0-55.35 195.34-46.109 250.535 8.546 51.043 34.779 195.064 81.066 260.3a552.032 552.032 0 0 0 189.943-71.8C823.8 954.258 792.3 867.538 775.007 819.293z" class="H"/><path d="M720.526 821.155a7.507 7.507 0 0 1-2.239-.342l-37.613-11.765a7.5 7.5 0 1 1 4.477-14.316l28.992 9.068 3.169-26.7a7.5 7.5 0 0 1 10.4-6.012L769.576 789a7.5 7.5 0 1 1-5.9 13.791l-32.65-13.968-3.052 25.715a7.5 7.5 0 0 1-7.448 6.617zm15.111 53.574a7.485 7.485 0 0 1-3.065-.656l-36.983-16.56a7.5 7.5 0 0 1 6.13-13.69l29.86 13.371 12.344-30.8a7.5 7.5 0 0 1 8.571-4.535l30.194 6.635a7.5 7.5 0 0 1-3.22 14.651l-23.986-5.272-12.882 32.146a7.5 7.5 0 0 1-6.962 4.71z" class="I"/><rect height="287.178" rx="76.419" transform="matrix(-.994445 -.105257 .105257 -.994445 822.553 1093.205)" width="152.839" x="363.702" y="381.31" class="B"/><g class="H"><path d="M708.146 875.246c-17.338-41.573-44.865-131.432-44.865-131.432s-4.95-144.781-44.548-152.2-107.272-14.678-107.272-14.678l-152.9-7.5c-38.052 4.852-155.151 29.842-200.157 75.369-38.139 38.581 49.667 261.15 65.351 356.363a556.695 556.695 0 0 0 490.981 86.774c-5.7-24.17-11.812-46.68-12.773-63.772-3.744-66.623 26.837-99.392 6.183-148.924z"/><path d="M527.053 554.273c16.663-1.684 16.372 57.056 5.016 69.056-8.593 9.08-41.325 25.025-73.25 20.162s-99.39-19.011-124.767-63.691c0 0 3.3-52.051 16.513-54.9 18.061-3.893 42.965 39.661 122.944 44.906 30.485 1.994 53.544-15.533 53.544-15.533zm-193.001 277.66C316.3 715.058 234 569.433 158.405 644.8c-42.74 42.615-70.564 100.035-44.7 247.544a556.961 556.961 0 0 0 248.818 184.283c6.045-20.735 8.4-40.049 5.979-55.571-13.102-84.105-34.45-189.123-34.45-189.123z"/></g><path d="M928.923 708.332c-4.165-89.477-161.2-82.166-157.036 7.31l-3.553 189.365c3.81 114.8 183.386 108.838 179.576-5.96z" class="B"/><g class="H"><path d="M987.1 863.626l-46.98-84.87c-44.789 15.878-107.27 28.055-173.064 20.967 0 0-22.044 47.346-14.676 62.44s7.826 31.937 4.092 40.725-34.838 56.153-19.218 81.948c-5.561 29.812-.382 62.3 10.485 92.1a556.828 556.828 0 0 0 242.916-175.97c2.369-13.087 2.31-26.666-3.555-37.34z"/><path d="M767.059 799.723c-5.813-19.025-5.917-40.236-2.736-62.7 69.68 14.976 130.088 7.716 169.713-20.678 7.2 6.963 8.689 40.754 6.087 62.416-32.523 26.556-93.798 40.203-173.064 20.962z"/></g><g class="B"><path d="M771.887 715.642s-40.439-118.568-47.7-150.293 160.284-76.226 176.844-36.263c17.855 43.086 54.916 131.8 27.889 179.246z"/><path d="M724.19 565.349c-8.943-38.2-42.136-147.461-48-174.069-8.529-38.713 30.206-47.227 40.708-16.211 12.345 36.458 45.278 158.086 45.278 158.086zm37.988-32.194c-3.229-24.328-21.461-144.466-25.092-163.822-7.062-37.652 38.984-44.684 45.7-1.449 6.268 40.349 26.252 154.232 26.252 154.232-12.01 14.163-27.774 17.424-46.86 11.039zm48.216-14.448c-3.421-19.587-2.66-48.414-.9-65.672 2.1-20.538 41.528-16.478 45.792 3.451 4.81 22.481 2.275 41.668 2.862 60.178.487 15.236-47.754 2.043-47.754 2.043z"/><path d="M855.29 456.486c6.319 16.527 10.2 62.946 10.771 78.833.932 25.836-44.629 23.719-45.351.943-.743-23.425-8.11-75.572-8.11-75.572z"/><path d="M858.152 516.664c.518-15.8 2.58-44.493 3.618-53.568 1.566-13.7 43.832-5.851 43.887 11.494s-2.9 46.343-4.623 54.5-42.882-12.426-42.882-12.426z"/><path d="M905.657 474.59c4.478 19.972 5.484 44.952 5.673 57.536.342 22.758-38.928 21.025-41.884 3.649-3.731-21.931-6.227-59.839-6.227-59.839zM758.532 678.867c-19.163-25.393-37.64-79.656-35.991-96.587s38.6-87.986 45.024-92.977 41.087-5.735 56.018-7.164c33.372-3.2 35.2 50.085 4.041 51.073-18.216.578-36.441 2.725-36.441 2.725L778.406 573.4c44.663 9.309 58.852 43.308 60.129 83.584-11.853 42.386-57.254 52.029-80.003 21.883z"/></g><g class="D"><path d="M838.54 664.485h-.26a7.5 7.5 0 0 1-7.24-7.751c1.36-40.007-16.548-64.91-54.748-76.133a7.5 7.5 0 0 1-4.985-9.617l12.777-37.464a7.5 7.5 0 0 1 6.54-5.059l36.251-2.71c11.842-1.534 16.471-10.947 15.8-19.631-.606-7.859-5.891-16.885-18.857-16.481l-5.028.12c-26.851.561-42.571 2.427-46.722 5.545-5.394 4.229-24.986 43.148-39.548 78.569a7.5 7.5 0 0 1-13.874-5.7c.307-.745 31.007-74.789 44.412-84.859 8.427-6.331 27.453-7.965 55.419-8.549l4.866-.115c21.9-.677 33.125 15.231 34.288 30.321 1.218 15.814-8.385 33.15-29.1 35.692a7.11 7.11 0 0 1-.355.036l-31.5 2.354-8.724 25.582c18.528 6.666 32.809 16.78 42.521 30.133 11.119 15.287 16.352 34.963 15.552 58.478a7.5 7.5 0 0 1-7.485 7.239z"/><path d="M843.861 560.956a35.271 35.271 0 0 1-17.808-4.623 25.569 25.569 0 0 1-12.784-19.133 7.5 7.5 0 0 1 14.882-1.879c1.1 8.722 11.186 11.077 17.694 10.552a17.817 17.817 0 0 0 9.714-3.511 7.779 7.779 0 0 0 3.008-6.751c-1.05-26.943-6.931-61.661-6.99-62.007a7.5 7.5 0 0 1 14.786-2.524c.249 1.457 6.1 36.013 7.193 63.947.54 13.857-10.348 24.465-26.479 25.795a38.6 38.6 0 0 1-3.216.134z"/><path d="M891.7 556.4a40.7 40.7 0 0 1-12.544-2.03c-9.586-3.1-17.475-9.524-20.1-16.364a7.5 7.5 0 0 1 14.007-5.367c.7 1.84 4.595 5.482 10.707 7.46 4.114 1.329 12.181 2.8 19.989-2.3a7.5 7.5 0 1 1 8.208 12.555A36.746 36.746 0 0 1 891.7 556.4z"/></g><g class="J"><path d="M739.863 1066.553a7.5 7.5 0 0 1-7.192-5.385c-17.9-60.844-1.435-108.353 14.491-154.3l2.223-6.426c2.541-7.369 1.442-16.835-4.2-36.179-5.8-19.9 3.134-40.282 11.021-58.268l3.917-9.12a7.5 7.5 0 0 1 9.062-4.346c67.848 20.028 143.5 2 165.768-19.206a7.5 7.5 0 0 1 10.347 10.865c-27.849 26.517-106.835 41.928-173.9 24.517q-.711 1.632-1.45 3.315c-6.86 15.645-14.636 33.38-10.358 48.043 5.687 19.494 8.162 33.151 3.983 45.27q-1.115 3.228-2.232 6.448c-15.849 45.727-30.82 88.917-14.273 145.153a7.506 7.506 0 0 1-7.2 9.619z"/><path d="M767.053 807.224a7.5 7.5 0 0 1-7.271-5.688c-.443-1.776-10.752-43.785-2.529-67.02a7.5 7.5 0 1 1 14.14 5c-5.574 15.755.235 47.492 2.944 58.391a7.511 7.511 0 0 1-7.284 9.313z"/></g><path d="M428.92 200.623c-25.919-2.87-39.806-33.527-21.851-57.607 15.563-20.873 38.805 0 38.805 0 46.351 1.475 35.319 63.395-16.954 57.607z" class="G"/><path d="M564.882 223.928c32.249 32.248 33.29 73.118 37.827 109.651 4.7 37.855 37.957 53.278 28.537 112.867-7.4 46.8-56.785 79.92-101.652 83.425-52.119 4.072-131.6-15.988-157.726-77.817-23.249-55.028-38.983-123.544-17.02-168.452 42.137-86.163 167.094-102.614 210.034-59.674z" class="B"/><path d="M365.029 508.329c-27.063-36.553-106.139-62.7-98.168-165.2s86.319-158.8 156.46-156.02 123.862 24.442 123.862 24.442-73.713-6.739-108.115 13.408-81.452 78.053-74.4 105.957c7.615 30.145 10.153 48.977.337 71.006-4.053 9.095 9.463 38.029 6.2 48.141z" class="G"/><path d="M375.067 399.46c-24.077-34.672-73.339-20.717-58.873 21.77 13.514 39.691 50.693 44.727 63.595 31.826s7.062-36.628-4.722-53.596z" class="B"/><path d="M429.651 177.384c61.191-23.336 151.844-33.174 182.212 66.284-14.553 8.832-37.563 11.432-59.978 12.147-9.224-13.592-20.842-23.93-36.442-28.85a62.433 62.433 0 0 1 10.023 39.479c-22.316 16.448-51.6 23.106-86.4 22.018-8.757-12.485-16.314-24.97-18.527-37.458-7.056 21.212-8.716 39.245-3.8 53.4-23.067 24.144-38.535 33.212-55.422 38.72-40.993-96.424-4.635-137.913 68.334-165.74zM291.575 262.6c-15.807-31.222-61.5-40.81-73.495 10.925-44.027 34.017 6.287 99.75 48.781 69.6 30.168-21.407 35.345-59.525 24.714-80.525z" class="G"/><ellipse cx="458.891" cy="359.043" fill="#fff" rx="31.619" ry="34.531" transform="matrix(.982535 -.186078 .186078 .982535 -58.797 91.663)"/><g class="F"><ellipse cx="455.823" cy="354.298" rx="19.735" ry="27.891" transform="matrix(.982535 -.186078 .186078 .982535 -57.967 91.009)"/><path d="M560.621 355.17a7.5 7.5 0 0 1-6.646-10.966c4.5-8.646 16.584-13.959 26.389-16.047 13.491-2.872 25.907-.805 34.063 5.672a7.5 7.5 0 1 1-9.328 11.746c-4.57-3.628-12.649-4.654-21.611-2.747-9.119 1.943-15.063 6.1-16.209 8.3a7.5 7.5 0 0 1-6.658 4.042zm-2.062-48.546c-9.665 9.239-33.758-8.46-18.639-23.579s48.456-15.058 59.8-7.919 10.92 19.738 0 18.059-32.105 4.781-41.161 13.439zm-89.065 1.206c22.258 4.2 25.542-28.367 8.525-31.918-26.163-5.459-64.8 12.113-74.88 27.652s-2.1 23.164 8.209 15.861c9.037-6.401 42.216-14.601 58.146-11.595z"/></g><g class="D"><path d="M560.634 401.38a7.505 7.505 0 0 1-7.325-9.143c2.034-9.071-2.061-14.864-6.726-16.408-5.419-1.8-10.938 1.928-14.4 9.713a7.5 7.5 0 0 1-13.7-6.1c7.7-17.29 22.028-21.424 32.82-17.854 11.222 3.715 20.544 16.563 16.648 33.931a7.5 7.5 0 0 1-7.317 5.861zm-194.199 42.896a7.5 7.5 0 0 1-7.448-6.7c-1.223-11.358-20.364-25.3-30.263-28.53a7.5 7.5 0 0 1 4.656-14.26c6.9 2.253 16.1 7.75 23.436 14 7.112 6.063 15.849 15.7 17.085 27.18a7.5 7.5 0 0 1-6.655 8.26 7.656 7.656 0 0 1-.811.05z"/><path d="M344.7 433.776a7.5 7.5 0 0 1-5.74-12.323l8.765-10.44a7.5 7.5 0 1 1 11.488 9.644l-8.765 10.443a7.486 7.486 0 0 1-5.748 2.676z"/></g><path d="M461.14 446.127c-8.042-1.064.645 36.122 32.319 43.077 33.518 7.361 53.277-16.692 50.913-22.529-2.389-5.9-15.747-3.577-39.7-7.289-21.447-3.325-34.372-12.046-43.532-13.259z" fill="#fff"/><path d="M516.394 537.876c-.11 0-.22 0-.331-.007-18.95-.822-60.609-5.5-82.634-17.3a7.5 7.5 0 0 1 7.088-13.221c18.215 9.767 55.547 14.644 76.2 15.539a7.5 7.5 0 0 1-.319 14.993z" class="D"/><g class="F"><path d="M361.325 350.627a7.5 7.5 0 0 1-6.891-4.533c-17.416-40.407-21.523-75.44-12.207-104.126 8.606-26.5 28.071-46.614 57.854-59.788 47.1-20.832 74.359-25.045 75.5-25.214a7.5 7.5 0 1 1 2.207 14.836c-.251.038-26.633 4.19-71.635 24.1-55.01 24.331-68.129 74.214-37.94 144.257a7.5 7.5 0 0 1-6.884 10.471zm-94.457-.001a7.5 7.5 0 0 1-3.737-14.008c9.924-5.689 17.908-18.056 21.905-33.931 3.5-13.889 3.371-28.77-.311-37.031a7.5 7.5 0 1 1 13.7-6.107c5.1 11.442 5.544 29.374 1.157 46.8-5.059 20.094-15.355 35.466-28.991 43.283a7.466 7.466 0 0 1-3.723.994z"/><path d="M290.881 317a7.5 7.5 0 0 1-7.381-6.218c-3.6-20.726-12.425-34.1-25.529-38.663-12.764-4.448-27.218.158-34.9 7.008a7.5 7.5 0 1 1-9.982-11.195c10.617-9.469 30.735-16.629 49.819-9.977 12.939 4.509 29.579 16.89 35.371 50.262a7.5 7.5 0 0 1-6.106 8.672 7.584 7.584 0 0 1-1.292.111zm-11.764 22.594a7.5 7.5 0 0 1-7.5-7.421c-.167-15.815-14.777-24.016-27.237-26.233a7.5 7.5 0 1 1 2.628-14.768c23.477 4.177 39.394 20.591 39.608 40.843a7.5 7.5 0 0 1-7.421 7.579zm135.94-170.216a7.508 7.508 0 0 1-7.3-9.256 29.931 29.931 0 0 1 11.4-16.639c6.942-5.211 16.18-7.966 26.717-7.966a7.5 7.5 0 0 1 0 15c-16.085 0-22.36 8.243-23.532 13.113a7.5 7.5 0 0 1-7.285 5.748zm100.392 65.089a7.5 7.5 0 0 1-6.715-4.149c-8.7-17.407-24.254-33.593-35.771-44.108a7.5 7.5 0 1 1 10.112-11.078c12.458 11.372 29.349 29.014 39.077 48.481a7.5 7.5 0 0 1-6.7 10.854zm-94.909 24.038a7.5 7.5 0 0 1-7.1-5.071c-9.774-28.529-3.186-56.591-2.9-57.772a7.5 7.5 0 0 1 14.581 3.524c-.056.235-5.809 25.1 2.511 49.386a7.506 7.506 0 0 1-7.1 9.933z"/></g><g class="I"><path d="M454.154 694.149a7.5 7.5 0 0 1-4.893-1.815l-25.112-21.608-32.99 13.549a7.5 7.5 0 0 1-9.749-4l-9.959-23.375h-37.4a7.5 7.5 0 0 1-7.5-7.5v-15.8l-30.325-6.1a7.5 7.5 0 0 1-5.229-10.7l9.136-18.284-22.541-4.683a7.5 7.5 0 0 1 3.052-14.686l32.079 6.665a7.5 7.5 0 0 1 5.183 10.7l-9.106 18.21 26.733 5.381a7.5 7.5 0 0 1 6.02 7.352V641.9h34.856a7.5 7.5 0 0 1 6.9 4.56l9 21.123 30.4-12.484a7.5 7.5 0 0 1 7.741 1.252l24.138 20.77 26.721-19.075a7.5 7.5 0 0 1 7.323-.784l35.168 15.143L529.978 651a7.5 7.5 0 0 1 7.732-5.4l29.7 2.09-13.067-24.205a7.5 7.5 0 0 1 4.548-10.777l17.815-5.065-16.043-11.283a7.5 7.5 0 0 1 3.786-13.617l32.105-2.269a7.5 7.5 0 1 1 1.057 14.963l-11.073.782 11.662 8.2a7.5 7.5 0 0 1-2.263 13.349l-23.956 6.811 15.107 27.985a7.5 7.5 0 0 1-7.126 11.044l-37.257-2.621-6.859 23.752a7.5 7.5 0 0 1-10.171 4.808l-39.1-16.831-28.069 20.038a7.486 7.486 0 0 1-4.352 1.395zm38.898-1.462l19.324 19.641-9.299 26.27-21.091-22.956zm-72.602-2.907l11.595 22.148-20.611 21.066-9.428-24.407zm-62.722-16.87v23.297l-26.792 11.066 2.912-25.044zm-52.475-30.6l-8.843 19.116-26.368 5.039 11.206-20.087zm252.072 35.573l25.108 4.96 3.409 25.417-23.867-9.609zm39.76-44.853l20.124-1.472 11.492 18.505-20.41-2.047zm11.756-43.179l14.329 13.841 20.492-2.859a108.2 108.2 0 0 0-34.821-10.982zm-329.722 13.841l-8.44 13.344h-21.904l11.572-13.344zm234.981 217.4l4.635 43.664s-38.4-20.175-37.741-21.945-5.358-42.159-5.358-42.159zm11.02 42.732l-4.635-43.664 25.161-20.439 4.7 38.45zm-10.58 10.063l-32.445-20.636-40.213 3.667 28.332 27.864zm0 5.667L488.949 919.7s-35.186 3.655-35.186 2.285 16.451-31.531 16.451-31.531zm8.085 5.228l-21.964 33.02 7.687 37.704 21.869-27.821zm5.271-2.394l32.58 22.77 5.857 40.999-30.846-20.866zm4.613-12.724l24.16-25.075h36.24l-19.14 21.964zm0 6.223l32.58 23.617 34.41-8.425-25.73-18.303zm150.139-71.513l-39.438-16.051 11.078 32.102 41.929 23.497zm6.384 48.211l-35.751-20.548-42.8 3.279c1.511 0 36.759 23.163 36.759 23.163zm0 5.894l-41.793 5.895-23.667 32.374 43.808-7.05zm11.682-2.227l-16.64 33.381 8.823 31.988 20.337-30.49c-2.847-10.707-9.549-27.042-12.52-34.879zm-365.333-17.714l8.04 41.016 28.416-29.138-10.739-42.644zm17.695 55.911l26.227-27.037 38.992-6.519-19.684 30.047zm1.063 6.357l42.159 22.274 31.514-5.269-28.138-20.514zm-4.714 10.414l33.544 22.709 5.554 42.059c-.8-1.141-31.918-25.5-31.918-25.5z"/><g class="N"><path d="M119.3 929.123a7.5 7.5 0 0 1-6.912-10.4l12.152-28.966a7.5 7.5 0 0 1 11.358-3.141l33.865 24.9 26.1-29.648a7.5 7.5 0 0 1 8.805-1.838l49.415 23.1 14.318-30.279a7.5 7.5 0 0 1 9.082-3.932l71.992 23.213a7.5 7.5 0 0 1-4.6 14.276l-65.725-21.192-14.7 31.077a7.5 7.5 0 0 1-9.957 3.588l-51.087-23.885-26.929 30.584a7.5 7.5 0 0 1-10.072 1.087l-31.717-23.327-8.467 20.183a7.5 7.5 0 0 1-6.921 4.6zM175.961 995a7.478 7.478 0 0 1-5.018-1.927L136.774 962.3l-12.649 20.549a7.5 7.5 0 0 1-12.774-7.864l17.367-28.213a7.5 7.5 0 0 1 11.406-1.642l35.548 32.016 31.486-31.726a7.5 7.5 0 0 1 8.653-1.437l44.721 22.156 36.684-32.412a7.494 7.494 0 0 1 7.168-1.55l55.473 17.034a7.5 7.5 0 0 1-4.4 14.34L304 947.753l-37.314 32.967a7.5 7.5 0 0 1-8.295 1.1l-44.394-22-32.712 32.96a7.478 7.478 0 0 1-5.324 2.22z"/></g></g><path d="M364.655 1004.69a7.5 7.5 0 0 1-7.406-6.376c-.225-1.486-22.7-149.076-37.526-199.667a7.5 7.5 0 1 1 14.394-4.219c15.111 51.559 37.036 195.532 37.962 201.636a7.5 7.5 0 0 1-6.29 8.54 7.667 7.667 0 0 1-1.134.086zm100.118-353.508q-3.309 0-6.449-.207a213.482 213.482 0 0 1-70.4-17.034c-27.462-12.129-47.761-29.061-60.333-50.325a7.5 7.5 0 1 1 12.912-7.634c10.947 18.515 28.94 33.4 53.481 44.237 26.57 11.735 52.333 14.93 65.325 15.789 26.145 1.734 59.874-9.657 67.2-17.724 5.055-5.562 7.63-18.3 7.653-37.867a7.5 7.5 0 0 1 7.5-7.491h.009a7.5 7.5 0 0 1 7.492 7.509c-.02 16.423-1.35 36.712-11.553 47.937-7.806 8.59-25.687 14.523-33.012 16.674a144.671 144.671 0 0 1-39.825 6.136z" class="J"/><path d="M507.187 1109c-9.661-55.786-76.189-71.976-102.794-67.351 0 0 4.369-32.769-54.615-50.245-17.287-5.123-47.784 12.674-79.883 40.7A552.11 552.11 0 0 0 507.187 1109z" class="H"/><g class="J N"><path d="M716.175 1100.817a7.5 7.5 0 0 1-7.343-6.018l-6.605-31.026c-3.437-15.714-6.4-29.285-7.692-38.576-2.522-18.213 1.115-37.04 4.966-56.971 5.459-28.255 11.1-57.471 1.44-90.9-5.03-17.4-16.468-49.761-26.559-78.315l-18.258-52.956a7.5 7.5 0 1 1 14.313-4.488c3.526 11.244 10.6 31.256 18.087 52.445l26.827 79.148c10.666 36.893 4.4 69.309-1.122 97.909-3.609 18.675-7.017 36.316-4.836 52.066 1.207 8.714 4.118 22.021 7.488 37.43l6.654 31.264a7.508 7.508 0 0 1-7.36 8.985zm-208.018 23.705a7.5 7.5 0 0 1-7.5-7.345c-.341-16.512-7.285-31.557-20.081-43.509-18.211-17.01-45.849-25.949-75.832-24.523a7.5 7.5 0 0 1-7.783-6.448c-.191-1.213-5.368-31.193-49.3-44.093a7.5 7.5 0 0 1 4.226-14.393c40.975 12.031 54.186 37.639 58.242 49.789h.781c31.362 0 60.187 10.289 79.906 28.708 15.823 14.78 24.412 33.508 24.839 54.16a7.5 7.5 0 0 1-7.343 7.654z"/></g></svg></g></svg>