<svg xmlns="http://www.w3.org/2000/svg" width="3000" height="2347" xmlns:v="https://vecta.io/nano"><style><![CDATA[.B{fill:#e09273}.C{fill:#111}.D{fill:#a85f36}.E{fill:#007a63}.F{fill:#005141}.G{fill:#656c72}.H{fill:#2471ed}.I{fill:#ffd215}.J{fill:#ce9800}]]></style><g transform="matrix(1.301925 0 0 1.302576 367.826087 648.26087)"><svg width="1855.446" height="1127.532"><path d="M1404.583 1080.619c419.833-78.546 553.685-455.871 371.107-664.39C1490.476 90.491 804.211-64.035 469.637 24.76s-673.709 435.413-318.64 829.596c258.727 287.228 752.783 319.958 1253.586 226.263z" fill="#5ac4ff"/></svg></g><g transform="matrix(1.303349 0 0 1.303025 279.130435 310.434783)"><svg width="971.744" height="807.819"><path d="M947.682 784.108 19.093 755.966V77.18l928.589-53.1z" fill="#e3e5e5"/><path d="M960.838 46.634L8.629 98.533C3.861 98.793 0 95.144 0 90.384V66.159c0-4.761 3.861-8.851 8.629-9.136L960.838.022c6.02-.36 10.906 3.691 10.906 9.049v27.266c0 5.358-4.886 9.968-10.906 10.296zm0 761.178L8.629 776.404C3.861 776.247 0 772.26 0 767.5v-24.225a8.34 8.34 0 0 1 8.629-8.381l952.209 26.307c6.02.166 10.906 4.645 10.906 10.003v27.266c0 5.358-4.886 9.541-10.906 9.342z" class="G"/><g fill="#b7b7b7"><path d="M461.492 231.585a7.5 7.5 0 0 1-7.5-7.5v-40.473a7.5 7.5 0 1 1 15 0v40.473a7.5 7.5 0 0 1-7.5 7.5zm0 122.772a7.5 7.5 0 0 1-7.5-7.5V323.5a7.5 7.5 0 1 1 15 0v23.357a7.5 7.5 0 0 1-7.5 7.5z"/><path d="M442.793 341.386l18.699 32.38 18.697-32.38zm316.279 7.375a7.5 7.5 0 0 1-7.5-7.5v-69.656l-142.77 4.77a7.51 7.51 0 0 1-7.746-7.245 7.5 7.5 0 0 1 7.246-7.746l150.52-5.029a7.5 7.5 0 0 1 7.75 7.495v77.411a7.5 7.5 0 0 1-7.5 7.5z"/><path d="M740.374 335.79l18.699 32.38 18.696-32.38zm-552.661 23.716a7.5 7.5 0 0 1-7.5-7.5v-69.067a7.5 7.5 0 0 1 7.25-7.496l132.776-4.436a7.52 7.52 0 0 1 7.746 7.245 7.5 7.5 0 0 1-7.246 7.746l-125.526 4.194v61.813a7.5 7.5 0 0 1-7.5 7.5z"/><path d="M169.013 346.535l18.699 32.38 18.697-32.38zm292.479 251.224h-.096l-273.779-3.509a7.5 7.5 0 0 1-7.404-7.5v-32.17a7.5 7.5 0 1 1 15 0v24.766l258.779 3.317v-25.914a7.5 7.5 0 1 1 15 0v33.511a7.5 7.5 0 0 1-7.5 7.5z"/><path d="M321.808 618.301a7.5 7.5 0 0 1-7.5-7.5v-22.332a7.5 7.5 0 1 1 15 0v22.332a7.5 7.5 0 0 1-7.5 7.5z"/><path d="M303.11 605.329l18.699 32.38 18.697-32.38zm455.962 21.787a7.5 7.5 0 0 1-7.5-7.5v-60.51a7.5 7.5 0 1 1 15 0v60.51a7.5 7.5 0 0 1-7.5 7.5z"/><path d="m740.374 614.144 18.699 32.381 18.696-32.381z"/></g><path d="M686.116 173.148L250.7 193.431c-20.345.948-36.746-13.947-36.746-33.262s16.401-35.912 36.746-37.075l435.416-24.898c23.25-1.329 42.21 14.465 42.21 35.286s-18.96 38.583-42.21 39.666zm-77.564 146.507l-288.063 7.532v-97.368l288.063-11.715z" fill="#ea2688"/><path d="m282.479 555.33-186.877-1.48V380.647l186.877-3.514zm281.901 2.233-202.775-1.606V375.645l202.775-3.814zm306.793 2.431-220.79-1.749V370.214l220.79-4.152z" class="H"/><path d="M435.063 709.183l-222.809-6.752c-19.25-.583-34.773-15.958-34.773-34.342s15.523-32.976 34.773-32.588l222.809 4.492c20.695.417 37.564 16.331 37.564 35.543s-16.869 34.275-37.564 33.648zm394.066 11.943l-138.766-4.205c-22.137-.671-39.981-17.19-39.981-36.899s17.844-35.328 39.981-34.882l138.766 2.797c23.16.467 42.044 17.327 42.044 37.655s-18.884 36.236-42.044 35.534z" fill="#ea2688"/></svg></g><g transform="matrix(1.303955 0 0 1.303313 815.217391 331.304348)"><svg width="1439.434" height="1372.089"><clipPath id="A"><path d="M1057.26 1326.911c3.031-63.432-5.213-163.871-134.022-153.239-70.063 5.783-96.555 116.209-36.86 180.191 56.646-7.21 113.72-16.257 170.882-26.951z"/></clipPath><g class="B"><path d="M951.523 220.01c43.582-4.04 82.245 28.063 86.285 71.645l11.814 127.45c4.04 43.58-28.063 82.244-71.645 86.283s-82.244-28.062-86.284-71.644l-11.814-127.45c-4.04-43.581 28.062-82.243 71.644-86.283z"/><path d="M798.284 126.368c-4.695 28.7-35.519 219.058-18.504 243.506 22.913 32.923 138.776 39.367 206.415-6.529 62.758-42.584 54.28-160.079 42.176-196.831-46.909-142.43-219.122-107.169-230.087-40.146z"/></g><path d="M1021.286 237.544c-19.162-12.62-40.591-67.759-38.264-94.321-20.042 6.726-59.332-10.824-63.307-30.846-8.414 16.774-56.722 17.229-60.586-3.157 0 0-42.797 51.506-90.033 22.662-34.539-21.09-27.454-71.354-9.828-86.775 25.819-22.59 58.531-12.938 69.966-6.436 4.944-31.852 49.408-45.076 67.517-14.317C924.967-20.302 1009.08.523 1011.855 53.816c22.265-15.913 44.238 7.373 29.646 27.27 43.393-11.539 82.28 56.068 52.304 89.237 19.661 4.939 32.176 61.003 2.881 73.153 15.043 35.294-9.002 83.846-55.963 79.636l-2.916-31.457-16.521-54.112z" fill="#773a11"/><ellipse cx="924.339" cy="226.318" fill="#fff" rx="30.826" ry="36.275" transform="matrix(.999811 -.019459 .019459 .999811 -4.23 18.036)"/><ellipse cx="914.119" cy="224.164" rx="18.636" ry="26.584" transform="matrix(.999811 -.019459 .019459 .999811 -4.19 17.836)" class="C"/><ellipse cx="814.833" cy="234.452" fill="#fff" rx="27.055" ry="34.06" transform="matrix(.999811 -.019459 .019459 .999811 -4.409 15.906)"/><ellipse cx="807.892" cy="233.252" rx="17.475" ry="25.347" transform="matrix(.999811 -.019459 .019459 .999811 -4.387 15.77)" class="C"/><path d="M898.948 179.443c-13.951 4.168-20.682-18.498-6.767-23.889 19.418-7.524 47.818 2.394 62.191 10.642 15.144 8.691 4.336 24.435-4.249 19.537s-33.124-11.683-51.175-6.29zm-65.469-21.298c14.727 5.9 12.692 26.804-4.453 25.888-14.098-.753-34.289 3.076-42.799 10.64-5.873 5.22-12.127-7.788-6.904-16.064 7.525-11.924 40.925-25.765 54.155-20.464z" fill="#4f2000"/><path d="M845.517 293.929a7.502 7.502 0 0 1-6.92-4.603c-9.301-22.193.107-30.279 4.584-32.725 8.822-4.819 21.918-.7 28.6 8.995a7.499 7.499 0 0 1-1.92 10.431 7.5 7.5 0 0 1-10.432-1.919c-2.688-3.899-7.552-5.167-9.055-4.343-.774.423-1.77 4.632 2.057 13.764a7.499 7.499 0 0 1-4.019 9.816 7.47 7.47 0 0 1-2.896.585z" class="D"/><path d="M926.887 316.056c6.162 28.231-27.469 40.372-55.654 20.443 21.59-3.875 53.538-30.137 55.654-20.443z" fill="#fff"/><path d="M1018.09 235.776c13.269-45.57 56.197-23.069 54.923 17.093-1.193 37.621-31.754 51.783-47.42 44.649s-12.413-44.88-7.503-61.742z" class="B"/><g class="D"><path d="M1035.821 283.226a7.504 7.504 0 0 1-7.248-5.593c-3.516-13.36-1.427-29.428 5.197-39.984 4.201-6.696 10.024-10.938 16.84-12.268a7.501 7.501 0 0 1 2.873 14.723c-2.681.523-5.038 2.379-7.008 5.519-4.415 7.036-5.844 18.894-3.396 28.194a7.5 7.5 0 0 1-7.258 9.411z"/><path d="M1050.082 263.99a7.47 7.47 0 0 1-3.122-.685l-13.72-6.293a7.5 7.5 0 1 1 6.254-13.634l13.72 6.293a7.5 7.5 0 0 1-3.132 14.319z"/></g><path d="M859.121 116.72a7.5 7.5 0 0 1-6.119-11.828c5.737-8.124 3.71-15.966 3.621-16.296l7.212-2.058 7.186-2.15c.18.602 4.296 14.909-5.767 29.157a7.49 7.49 0 0 1-6.133 3.174z" fill="#4f2000"/><path d="M884.903 401.088c-.303 0-.601 0-.901-.003a7.5 7.5 0 0 1 .048-15h.05l.778.002c31.271 0 78.739-11.965 96.206-28.231a7.5 7.5 0 0 1 10.223 10.977c-20.834 19.402-71.57 32.254-106.403 32.254z" class="D"/><path d="m890.733 423.395-49.882 15.195s-17.934 122.64 90.308 131.559 181.73-150.633 181.73-150.633l-63.8-6.141z" class="B"/><path d="M1279.283 1244.869c-12.029-43.004-35.576-97.362-46.45-121.11 0 0-464.477 35.661-473.112 52.971s-8.108 143.755-8.108 181.423c11.641 2.756 25.595 4.712 41.356 5.936 87.038-7.951 175.558-20.577 264.292-37.178 86.136-16.115 160.226-44.812 222.023-82.042z" fill="#0a3ea5"/><g clip-path="url(#A)"><path d="M954.26 1366.382a7.504 7.504 0 0 1-7.134-5.194c-8.325-25.745-19.926-122.92-21.714-139.729a7.5 7.5 0 0 1 6.665-8.251c4.124-.427 7.813 2.547 8.251 6.665 3.338 31.375 14.141 115.271 21.069 136.7a7.499 7.499 0 0 1-7.138 9.809z" fill="#002e77"/></g><path d="M764.987 1132.076c-11.048-1.23-13.381 43.769-5.267 44.654 117.008 22.862 289.22-2.864 473.112-52.971 5.884-2.612-7.825-47.212-17.006-47.212-176.058 39.333-342.896 71.217-450.839 55.529z" class="G"/><path d="M913.653 1195.24c-13.451 0-16.902-1.895-19.019-3.728-8.106-7.022-20.429-43.229-10.567-61.658 1.489-2.782 5.444-10.174 40.311-13.188 15.448-1.336 34.506-1.445 42.263 1.316 4.789 1.707 8.462 6.673 11.91 16.103 4.256 11.641 9.943 37.269 4.493 46.628-1.95 3.348-5.869 7.225-27.833 10.878-10.775 1.792-23.759 3.104-34.729 3.512a184.1 184.1 0 0 1-6.828.137zm-9.125-14.998h.01zm-.5-.604c3.688.79 15.842 1.042 33.508-.811 17.609-1.849 29.001-4.622 32.613-6.31.441-2.986.096-10.584-2.116-20.688-2.583-11.802-5.699-18.173-7.102-19.916-3.948-.988-16.198-1.761-32.862-.498-18.524 1.401-28.617 4.353-31.036 6.032-5.039 10.729 2.918 36.593 6.995 42.189zm66.981-7.6z" class="C"/><path d="M1069.82 418.106c26.848.754 96.216 14.418 125.661 25.586s7.107 175.65 17.26 250.783 42.643 321.855 15.23 368.56-141.923 34.521-178.077 52.796-82.859 24.368-116.364 18.276c0 0-128.565 17.514-168.542-2.031s-33.023-363.094-34.038-430.105 4.061-232.507 30.459-242.66 115.261-37.07 128.834-41.205c0 0 5.537 13.435 12.644 24.604 3.164 4.971 15.86 26.376 15.912 44.863.064 23.045 10.525 38.673 10.525 38.673s30.895-28.41 34.877-38.127-10.166-39.365-10.166-39.365l115.785-30.647z" class="I"/><path d="M920.53 1142.606a7.478 7.478 0 0 1-5.418-2.313c-21.359-22.304-14.714-57.295-7.857-81.675 5.559-19.764 2.688-92.661-.352-169.84l-3.511-102.661c-2.743-117.267 6.8-181.776 16.903-250.073l1.608-10.891a7.503 7.503 0 0 1 8.512-6.329 7.499 7.499 0 0 1 6.328 8.511l-1.609 10.903c-10.008 67.646-19.46 131.54-16.746 247.526l3.503 102.423c3.222 81.8 6.003 152.445-.197 174.49-9.313 33.119-7.963 54.484 4.252 67.239a7.501 7.501 0 0 1-5.416 12.687z" class="J"/><g class="E"><path d="M1319.41 1218.279c-19.056-48.968-44.086-124.259-53.342-176.944-12.531-71.327-46.473-602.344-58.797-605.318-22.267-5.373-62.493-16.097-62.493-16.097-9.634-13.587-46.467-19.109-68.214-18.892-116.991 188.103-85.574 447.093-53.594 621.973 15.438 84.42 70.302 218.516 100.475 288.429 76.567-21.635 141.974-53.87 195.964-93.151zM817.302 436.223c-29.057 6.657-93.854 26.608-113.193 35.794-31.644 15.031-8.215 183.17-8.589 273.681-.148 35.831 7.215 227.053 4.735 288.58-2.281 56.575-23.274 289.326-28.019 337.811 46.575-1.87 93.767-5.228 141.372-9.967l18.351-347.37c-4.557-185.098 4.879-462.48 37.009-596.646-4.584 0-32.708 1.814-51.667 18.118z"/><path d="M704.11 472.017c-47.313 23.221-166.404 191.503-191.828 230.251 0 0-33.867-5.361-36.406 31.377s18.465 231.775 71.018 216.169c60.159-17.864 194.51-136.232 239.189-240.201s-24.395-265.855-81.974-237.595z"/></g><path d="M214.167 797.577c51.107 52.269 136.656-143.442 97.242-175.344s-128.164 143.719-97.242 175.344z" class="C"/><path d="m294.749 608.74 156.074 126.41c60.367 40.743-35.665 188.08-79.654 132.853L198.114 698.41c-30.559-33.385 61.439-123.415 96.635-89.67z" class="B"/><path d="M311.409 622.233c81.282 64.271 174.984 109.565 230.713 160.578 43.303 39.638 59.703 148.501 4.773 167.003-113.471 38.221-250.151-69.579-332.728-152.237 32.276 17.979 88.037-67.923 97.242-175.344z" class="E"/><g class="B"><path d="M294.749 608.74c-34.366-30.381-117.543-77.926-144.802-92.637-17.638-9.519-73.243 109.255-50.875 122.661s78.595 40.489 99.043 59.645 96.635-89.67 96.635-89.67z"/><path d="M149.947 516.103c-18.77-10.355-56.933-34.759-56.933-34.759l-32.57-37.643c-18.364-20.574-44.085-.938-30.78 20.656s33.622 42.968 43.006 48.98l58.924 38.241zm134.339 83.998c-4.788-24.06-6.854-60.865-14.3-68.865s-57.853-52.917-66.848-63.29c-19.03-21.947-42.705-2.185-27.377 22.219 15.035 23.937 35.513 48.793 35.513 48.793-10.556 61.324 17.227 84.556 73.012 61.144z"/><path d="M134.53 545.903c-9.706-6.648-54.711-35.287-59.918-41.589s-29.432-39.24-37.027-51.174c-15.385-24.175-48.946-7.084-33.709 19.545 14.157 24.741 37.21 57.74 44.944 63.449s65.335 42.452 65.335 42.452z"/></g><path d="M134.523 553.403a7.465 7.465 0 0 1-4.27-1.339l-59.917-41.589a7.492 7.492 0 0 1-2.084-2.187c-15.734-25.18-36.631-53.839-43.092-57.029a7.5 7.5 0 0 1-6.368-7.817c.221-4.137 3.761-7.323 7.89-7.088 5.047.27 12.25 3.111 33.966 33.592 9.017 12.656 16.961 25.073 19.496 29.079l58.662 40.718a7.5 7.5 0 0 1-4.283 13.662z" class="D"/><path d="M121.056 572.565c-12.712-6.723-63.889-36.132-63.889-36.132s-12.947-28.19-18.537-42.448c-8.806-22.461-43.83-24.55-34.235 10.892 7.515 27.76 20.761 59.299 26.523 64.461 7.287 6.528 74.247 38.592 74.247 38.592l15.89-35.365z" class="B"/><path d="M121.049 580.066a7.46 7.46 0 0 1-3.685-.973l-63.89-36.132a7.496 7.496 0 0 1-3.124-3.398c-.58-1.261-14.238-31.027-18.736-42.925-1.927-5.095-7.244-9.999-12.368-11.405-3.868-1.06-5.671.377-6.264.85a7.5 7.5 0 0 1-9.354-11.726c5.392-4.302 12.349-5.577 19.589-3.589 9.779 2.685 18.792 10.95 22.427 20.565 3.633 9.608 14.043 32.563 17.331 39.769l61.772 34.935a7.5 7.5 0 0 1-3.699 14.03z" class="D"/><path d="M112.603 598.586c-18.033-9.838-28.165-15.929-28.165-15.929l-14.032-35.376c-12.105-30.865-46.887-26.26-37.44 7.986 5.538 20.075 15.404 38.19 18.543 45.779 4.626 11.187 47.563 37.718 47.563 37.718l13.532-40.178z" class="B"/><path d="M112.596 606.088a7.46 7.46 0 0 1-3.685-.973l-28.165-15.929a7.5 7.5 0 0 1-3.18-3.523c-.262-.599-6.502-14.909-14.198-35.787-4.765-12.928-13.288-17.965-18.889-16.145-5.376 1.749-7.103 9.583-4.297 19.494 2.724 9.623 6.282 18.732 6.318 18.823a7.501 7.501 0 0 1-4.245 9.72 7.497 7.497 0 0 1-9.719-4.243c-.156-.397-3.855-9.86-6.786-20.213-5.957-21.038 2.784-34.167 14.089-37.844 12.562-4.09 29.511 3.265 37.604 25.221 5.792 15.713 10.84 27.853 12.892 32.688l25.961 14.682a7.5 7.5 0 0 1-3.699 14.03zm115.049 5.967a7.465 7.465 0 0 1-4.508-1.511c-23.231-17.511-21.885-42.561-21.08-57.528l.147-2.89c.186-4.138 3.676-7.35 7.829-7.157a7.5 7.5 0 0 1 7.157 7.829l-.154 3.023c-.727 13.522-1.722 32.042 15.13 44.745a7.5 7.5 0 0 1-4.52 13.489z" class="D"/><path d="M542.128 790.311a7.487 7.487 0 0 1-5.994-2.984c-12.478-16.548-34.103-29.333-51.479-39.605l-12.813-7.753a7.5 7.5 0 1 1 8.066-12.646c3.6 2.296 7.864 4.817 12.38 7.487 18.515 10.946 41.557 24.569 55.821 43.487a7.499 7.499 0 0 1-5.983 12.015zm16.018-76.814a7.477 7.477 0 0 1-1.804-.221c-.227-.056-23.309-5.646-43.276-3.549a7.5 7.5 0 0 1-1.566-14.918c22.618-2.377 47.396 3.647 48.438 3.905a7.499 7.499 0 0 1 5.483 9.079 7.505 7.505 0 0 1-7.275 5.705z" class="F"/><path d="M954.035 448.753s90.108-70.104 96.052-70.287 37.69 34.263 39.849 36.75-54.999 96.834-60.459 99.564-75.442-66.026-75.442-66.026z" class="I"/><path d="M1022.969 1030.501a7.5 7.5 0 0 1-7.495-7.341c-3.799-178.412 37.199-344.431 125.304-507.304l-24.774-19.347a7.5 7.5 0 0 1 .758-12.343l38.858-23.315c-3.338-8.051-9.87-23.171-17.458-37.404a7.5 7.5 0 0 1 3.09-10.146 7.497 7.497 0 0 1 10.146 3.09c11.407 21.396 20.203 43.924 20.572 44.873a7.499 7.499 0 0 1-3.132 9.149l-34.994 20.997 21.177 16.538a7.502 7.502 0 0 1 1.962 9.515c-88.915 162.305-130.298 327.617-126.513 505.38a7.498 7.498 0 0 1-7.338 7.657l-.163.002z" class="F"/><path d="M888.785 402.375l14.102 40.335-43.411 63.334s-9.083-66.876-4.113-77.269 33.422-26.4 33.422-26.4z" class="I"/><path d="M831.956 1022.253a7.505 7.505 0 0 1-7.225-5.502c-46.159-166.831-70.423-342.455-68.32-494.522a7.497 7.497 0 0 1 2.133-5.136l31.637-32.403-12.41-8.944a7.498 7.498 0 0 1-1.088-11.213c.653-.697 16.22-17.264 35.736-34.004a7.499 7.499 0 0 1 10.575.81 7.5 7.5 0 0 1-.81 10.576c-11.838 10.154-22.361 20.44-28.6 26.738l12.432 8.959a7.502 7.502 0 0 1 .982 11.324l-35.627 36.489c-1.727 149.998 22.328 322.917 67.817 487.325a7.501 7.501 0 0 1-7.233 9.502zm-137.59-211.545c-.074 0-.148 0-.223-.003a7.5 7.5 0 0 1-7.278-7.716l1.092-45.866c1.406-64.521 3.331-152.886 8.741-187.763a7.501 7.501 0 0 1 14.823 2.299c-5.258 33.897-7.17 121.688-8.566 185.791l-1.095 45.977a7.5 7.5 0 0 1-7.493 7.281z" class="F"/><path d="m936.172 1069.931-276.994 8.969c-10.859.352-21.783-7.309-24.401-17.112l-96.46-361.212c-2.648-9.915 4.06-18.245 14.983-18.604l278.633-9.154c10.93-.359 21.9 7.394 24.501 17.314l94.756 361.404c2.572 9.809-4.153 18.044-15.019 18.395z" fill="#5917c1"/><path d="m760.382 694.074-125.647 4.125-9.957-37.49 125.718-4.132z" class="C"/><path d="M1029.475 522.281a7.467 7.467 0 0 1-2.866-.573c-21.275-8.81-50.43-39.119-73.855-63.473l-4.117-4.277a7.501 7.501 0 0 1 10.798-10.411l4.129 4.29c21.272 22.115 50.406 52.403 68.783 60.013a7.501 7.501 0 0 1-2.872 14.431z" class="J"/><path d="M1207.272 436.017c44.188 12.736 123.806 45.511 154.55 151.66s92.808 326.712 74.195 410.041c-17.968 80.439-190.223 79.925-208.232-28.28s-22.413-226.055-51.533-294.724-10.51-250.667 31.021-238.697z" class="E"/><path d="M1035.473 1080.932c62.797 5.796 60.872-198.178 24.818-197.247s-69.501 193.123-24.818 197.247z" class="C"/><path d="M1018.514 883.401l221.982 15.183c30.655 3.834 38.72 179.137.818 172.001s-184.604-46.377-263.026-81.602c-46.696-20.975 5.471-107.959 40.226-105.582z" class="B"/><path d="M1436.016 997.718c-34.119 177.059-295.858 89.599-400.543 83.214 35.196-3.275 50.343-118.463 24.818-197.247 115.78 3.869 213.084-29.156 256.711 15.792 36.713 37.824 126.604 58.853 119.014 98.241z" class="E"/><g class="B"><path d="M1018.514 883.401c-21.449-24.313-80.347-90.025-103.025-97.054s-60.884 126.043-39.793 141.449 74.007 70.374 102.592 61.187 40.226-105.582 40.226-105.582z"/><path d="M915.489 786.347c-31.636-6.715-89.693-19.469-108.932-17.415s-70.376 27.956-88.899 39.393-8.679 46.987 23.38 32.557l67.261-30.361 77.969 16.351 29.221-40.526z"/><path d="M890.645 815.916c-25.645 1.442-85.01 6.037-95.545 12.969s-51 51.045-61.946 63.725 10.577 47.507 33.14 25.151c23.547-23.332 41.444-46.332 41.444-46.332l75.86-16.219 7.048-39.294z"/><path d="M890.139 848.106c-25.645 1.442-73.871 6.362-84.406 13.294s-45.511 40.672-57.363 52.51 7.042 48.158 31.193 27.529c25.205-21.53 38.807-37.494 38.807-37.494l63.371-10.842z"/><path d="M886.377 880.372c-25.645 1.442-62.847 2.318-73.382 9.251s-30.461 30.931-41.957 43.115c-15.427 16.351 16.819 47.918 36.609 23.075 14.03-17.612 22.798-23.792 22.798-23.792l47.533-6.654 8.398-44.997z"/></g><path d="M847.683 826.283a7.5 7.5 0 0 1-.492-14.983l42.955-2.866c4.135-.291 7.706 2.851 7.982 6.984a7.5 7.5 0 0 1-6.984 7.982l-42.955 2.866c-.17.012-.339.017-.507.017zM744.742 931.294h-.135a7.5 7.5 0 0 1-7.367-7.631c.102-5.766 3.852-14.507 30.371-39.217 14.631-13.632 29.919-26.189 33.542-28.983 2.116-1.633 6.057-4.674 44.236-9.865 19.416-2.641 38.834-4.612 44.249-4.975a7.5 7.5 0 1 1 1 14.966c-15.356 1.026-72.784 7.944-80.529 11.909-3.257 2.542-17.322 14.087-31.037 26.775-23.789 22.009-26.542 28.871-26.844 29.931a7.5 7.5 0 0 1-7.486 7.09zm7.496-7.368v.005zm58.077-56.587l-.015.011.015-.011zm-42.842 87.644a7.504 7.504 0 0 1-7.288-5.755c-2.192-9.141 4.236-21.497 20.229-38.888 10.64-11.57 22.838-22.392 27.801-26.496 11.171-9.239 66.92-12.045 78.855-10.939a7.5 7.5 0 0 1 6.774 8.161 7.51 7.51 0 0 1-8.161 6.774c-14.963-1.392-61.521 3.262-67.962 7.606-3.796 3.146-15.712 13.598-26.094 24.858-17.841 19.354-16.868 25.371-16.856 25.43a7.5 7.5 0 0 1-7.299 9.248z" class="D"/><g class="F"><path d="M1317.009 906.978a7.495 7.495 0 0 1-6.269-3.373c-17.626-26.74-83.845-21.229-147.886-15.897-36.107 3.007-73.443 6.117-103.232 3.448a7.5 7.5 0 0 1-6.801-8.139 7.51 7.51 0 0 1 8.139-6.801c28.496 2.547 65.178-.504 100.65-3.457 71.548-5.954 139.129-11.581 161.653 22.59a7.5 7.5 0 0 1-6.255 11.629z"/><path d="M1214.083 877.528a7.503 7.503 0 0 1-7.474-6.967c-2.093-29.374-16.116-147.444-37.16-192.684a7.5 7.5 0 0 1 13.602-6.326c23.518 50.559 37.016 176.816 38.521 197.944a7.501 7.501 0 0 1-7.489 8.034zm40.124 236.991c-53.731 0-124.748-11.403-175.206-19.505l-44.347-6.627a7.5 7.5 0 0 1 1.636-14.91c10.089 1.107 25.534 3.587 45.088 6.727 58.563 9.403 156.583 25.145 207.509 17.044a7.5 7.5 0 0 1 2.356 14.814c-10.809 1.719-23.365 2.457-37.036 2.457z"/></g><path d="M860.277 513.985a8.43 8.43 0 0 1-7.023-3.755c-4.865-7.231-5.391-27.126-5.391-35.345a7.5 7.5 0 0 1 14.999-.002c.002 5.943.346 12.11.883 17.097 7.063-10.176 17.272-27.443 23.004-37.137l9.951-16.374a7.5 7.5 0 0 1 12.373 8.481c-1.682 2.453-5.264 8.512-9.412 15.528-26.528 44.868-32.183 51.301-39.135 51.504a10.42 10.42 0 0 1-.25.003z" class="J"/></svg></g><g transform="matrix(1.303008 0 0 1.303427 967.826087 945.652174)"><svg width="770.792" height="903.638"><clipPath id="B"><path d="M632.961 596.644C509.983 570.33 452.943 857.259 549.76 898.611c34.262-1.233 68.867-3.28 103.732-6.096 95.438-7.707 76.61-275.086-20.531-295.871z"/></clipPath><path d="M163.491 456.003a7.499 7.499 0 0 1-7.5-7.5c0-79.279 25.458-155.111 75.666-225.39 43.91-61.463 97.191-105.593 125.815-129.301a7.502 7.502 0 0 1 9.569 11.553c-58.666 48.589-196.05 162.376-196.05 343.138a7.5 7.5 0 0 1-7.5 7.5z" class="C"/><rect height="89.622" rx="10.599" width="40.122" x="143.326" y="430.003" class="G"/><g class="C"><rect height="131.56" rx="30.738" transform="matrix(.642988 .765876 -.765876 .642988 190.384 -301.875)" width="61.476" x="388.248" y="-12.51"/><path d="m375.115 75.746 14.14 16.842-27.153 22.796-14.14-16.842z"/></g><path d="M33.72 838.766c167.024 53.626 362.113 69.501 567.877 57.372V625.321H33.72zm567.877 57.372c48.945-2.885 98.493-7.354 148.412-13.277V606.917L601.597 625.32v270.817z" class="H"/><g clip-path="url(#B)"><path d="M601.596 903.638a7.499 7.499 0 0 1-7.5-7.5V645.431a7.5 7.5 0 1 1 15 0v250.707a7.5 7.5 0 0 1-7.5 7.5z" fill="#004ebf"/></g><path d="M632.961 645.431 0 648.859V491.801l632.961 27.116zm137.831-26.719-137.831 26.719V518.917l137.831 45.633z" class="H"/><g fill="#004ebf"><path d="M33.719 656.359a7.5 7.5 0 1 1-.042-15l598.542-3.424 116.361-22.558a7.501 7.501 0 0 1 2.855 14.727l-117.047 22.69a7.58 7.58 0 0 1-1.385.137l-599.241 3.428h-.044z"/><path d="M632.961 652.931a7.499 7.499 0 0 1-7.5-7.5V518.917a7.5 7.5 0 1 1 15 0v126.514a7.5 7.5 0 0 1-7.5 7.5z"/></g></svg></g></svg>