<svg xmlns="http://www.w3.org/2000/svg" width="3000" height="2812" xmlns:v="https://vecta.io/nano"><style><![CDATA[.B{fill:#f4bbab}.C{fill:#ea2688}.D{fill:#b7006d}.E{fill:#e09273}]]></style><g transform="matrix(1.211824 0 0 1.209462 288.75 1081.875)"><svg width="2098.077" height="1128.601"><path d="M170.132 536.494c15.695-169.836 192.641-280.231 360.309-228.11a468.03 468.03 0 0 1 4.879 1.545c163.361 52.637 239.472 98.98 477.117 29.785s451.186-187.218 565.201-191.587c112.631-4.316 345.32 59.97 361.647 331.464s-246.195 474.014-276.397 493.893c-24.126 15.879-198.573 157.112-446.569 155.096-639.569-5.199-855.027-200.315-963.116-339.368-59.232-76.199-91.277-163.924-83.071-252.718zm1825.122 217.183c-4.513 6.902-9.168 14.807-28.993 43.621 25.014-111.732 120.489-325.094 19.822-522.344-130.638-256.018-383.576-221.108-493.174-169.218 35.411-31.951 67.372-56.705 95.822-70.442 101.489-49.024 340.292-83.575 463.276 157.411 122.99 240.999-36.99 530.749-56.753 560.972zM102.471 535.453c-6.279 102.051 23.023 203.309 76.237 291.612 14.651 24.323 31.522 50.296 51.564 76.871-66.327-47.902-111.66-98.023-145.988-141.961C25.076 686.182-6.953 598.925 1.276 510.59c13.192-141.644 139.693-241.744 279.038-239.873-94.376 30.507-169.63 131.21-177.843 264.736z" fill="#f7d34b"/></svg></g><g transform="matrix(1.423881 0 0 1.420899 208.125 485.625)"><svg width="620.224" height="469.773"><path d="M587.069 469.773H33.155C14.873 469.773 0 454.9 0 436.618V33.155C0 14.873 14.873 0 33.155 0h553.914c18.282 0 33.155 14.873 33.155 33.155v403.463c0 18.282-14.873 33.155-33.155 33.155zM33.155 15A18.18 18.18 0 0 0 15 33.155v403.463a18.18 18.18 0 0 0 18.155 18.155h553.914a18.18 18.18 0 0 0 18.155-18.155V33.155A18.18 18.18 0 0 0 587.069 15z" fill="#521cb8"/><path d="M57.221 365.5a7.5 7.5 0 0 1-5.994-12l70.638-94.184a7.498 7.498 0 0 1 10.763-1.293l82.82 68.097 150.209-163.113a7.5 7.5 0 0 1 9.971-.954l158.936 117.312a7.5 7.5 0 0 1-8.908 12.068L372.134 178.117 221.679 341.496a7.5 7.5 0 0 1-10.28.712L129.16 274.59 63.227 362.5a7.489 7.489 0 0 1-6.006 3z" fill="#76c1f9"/><circle cx="373.361" cy="163.708" fill="#ec7039" r="55.268"/></svg></g><g transform="matrix(1.429776 0 0 1.427089 952.5 311.25)"><svg width="382.927" height="287.736"><path d="M366.695 287.736H16.232C7.304 287.736 0 280.432 0 271.504V16.232C0 7.304 7.304 0 16.232 0h350.463c8.928 0 16.232 7.304 16.232 16.232v255.272c0 8.928-7.304 16.232-16.232 16.232z" fill="#76c1f9"/><path d="M253.422 50.37h45.332v186.996h-45.332zm-60.713 71.281h45.332v115.715h-45.332zm-61.607-44.27h45.332v159.985h-45.332zm-61.959 90.587h45.332v69.398H69.143z" fill="#fff"/></svg></g><g transform="matrix(1.200684 0 0 1.228206 656.25 763.125)"><svg width="1653.745" height="1384.641"><path d="M1196.72 1174.264c-16.87-3.887-24.447-41.579-33.923-45.761s-42.21-9.495-53.458-18.448c-19.835-15.788-44.215 10.621-22.419 29.275 15.647 13.391 36.785 25.433 36.785 25.433s-.792 65.042 47.502 61.989 25.513-52.488 25.513-52.488zM893.242 583.063c-48.587 5.205-92.194-29.963-97.399-78.55l-14.739-137.584c-5.205-48.587 29.963-92.194 78.55-97.399s92.194 29.963 97.398 78.55l14.739 137.584c5.206 48.588-29.962 92.194-78.549 97.399z" class="B"/><path d="M1109.339 1110.056c-21.858-103.065-453.274-125.694-506.453-54.373-34.136 49.261-61.375 133.693-72.127 179.648-15.815 35.731-23.539 66.603-24.952 93.324 215.037 48.157 450.059 89.881 634.902 15.189a156.48 156.48 0 0 0 1.118-21.912c-5.638-67.723-16.512-138.373-32.488-211.876z" fill="#2471ed"/><path d="M752.865 1364.775a7.501 7.501 0 0 1-7.422-6.491c-3.159-23.26-8.372-86.007-7.516-128.248a7.5 7.5 0 0 1 7.495-7.348l.155.002a7.499 7.499 0 0 1 7.346 7.65c-.84 41.464 4.28 103.08 7.383 125.924a7.5 7.5 0 0 1-7.441 8.511z" fill="#004ebf"/><path d="M602.886 1055.682s-20.992 33.178-29.3 54.398 86.096 65.742 173.389 77.575c107.167 14.527 295.944 16.948 376.592-5.271l-14.228-72.328s-280.86-.159-352.288-8.564c-110.843-13.045-154.165-45.81-154.165-45.81z" fill="#e3e5e5"/><path d="M776.601 1203.91c-9.121 0-18.894-.777-27.531-1.91-15.012-1.968-41.477-6.879-50.05-17.664-8.538-10.74-8.403-33.974-8.159-40.839.322-9.059 2.159-31.014 12.223-39.209 7.035-5.729 25.446-6.95 54.714-3.63 4.291.487 42.219 4.985 52.394 12.857 11.414 8.83 8.713 40.188 7.613 49.59-2.48 21.2-7.509 33.659-14.947 37.03-6.034 2.735-15.71 3.775-26.257 3.775zm-64.083-87.96c-2.439 2.06-6.097 12.073-6.667 28.08-.555 15.58 2.051 27.373 4.911 30.972 2.443 3.073 15.18 8.839 40.257 12.126 21.975 2.881 39.166 1.952 45.223-.475 1.907-2.216 5.75-12.887 7.179-30.493 1.542-18.992-1.047-29.044-2.513-30.859-3.225-2.296-20.061-6.863-43.95-9.641-27.222-3.162-41.677-1.506-44.44.29zm88.337 9.291z" fill="#111"/><path d="M789.96 449.593c-31.313.526-156.291-5.146-162.7 24.238s-76.92 523.236-24.375 581.851 131.56 51.545 169.854 50.422c32.059 20.484 110.597 29.476 171.258 16.591 0 0 155.003 9.659 168.246-23.05 30.478-75.272-1.616-197.233 3.776-350.323 2.726-77.409 1.801-212.123-28.74-239.107S971.79 485.664 971.79 485.664z" fill="#5917c1"/><path d="M789.078 441.361c-10.623 18.196-31.179 77.3 28.983 91.73 52.302 12.545 132.322-22.759 153.731-47.426-17.47-31.235-182.714-44.304-182.714-44.304zm-35.549-304.733c-14.114 21.699-56.928 197.789-58.582 222.335-2.357 34.971 111.607 69.962 205.213 38.021 53.501-18.256 93.774-134.625 71.412-209.028-27.76-92.36-178.124-112.701-218.043-51.328z" class="B"/><path d="M949.313 287.784c-7.572 9.253-21.503 10.132-18.134-7.424s23.031-42.983 8.45-65.699c-15.826-24.657-20.118-74.017-41.384-85.426-62.056-33.292-132.25-13.76-144.717 7.393-14.64 4.426-33.878-61.124 3.276-88.55 0 0 .445 27.759 19.761 33.907 0 0 1.508-44.107 30.635-70.187 0 0 .515 18.524 10.388 27.225 1.694-13.068 25.913-10.492 38.111 18.196.934-11.807 17.025-26.507 27.088 8.744 0 0 33.742-.667 44.085 35.171 0 0 59.38 33.741 70.061 65.61 0 0-.704-24.479 6.564-24.564s7.25 125.331-11.933 150.877-42.251-5.273-42.251-5.273z" fill="#111"/><path d="M941.741 297.037c20.252-30.718 63.412-33.93 66.911 5.292s-34.241 57.36-55.318 48.432-24.439-34.239-11.593-53.724z" class="B"/><g class="E"><path d="M956.065 330.784a7.5 7.5 0 0 1-7.485-8.09c1.422-17.976 13.325-29.816 36.392-36.201a7.501 7.501 0 0 1 4.001 14.457c-21.41 5.926-24.843 15.365-25.44 22.926a7.498 7.498 0 0 1-7.468 6.908z"/><path d="M974.81 325.078a7.498 7.498 0 0 1-6.554-3.842l-7.49-13.402a7.5 7.5 0 0 1 2.888-10.206 7.497 7.497 0 0 1 10.206 2.888l7.49 13.402a7.5 7.5 0 0 1-6.54 11.16zm-191.613 20.953c-3.382 0-6.079-.218-7.771-.405a7.498 7.498 0 0 1-6.63-8.278c.455-4.117 4.161-7.094 8.278-6.63 11.382 1.257 27.542-.809 38.759-10.382a7.502 7.502 0 0 1 9.738 11.41c-14.2 12.118-31.696 14.285-42.374 14.285zm34.511 71.158c-12.154 0-23.692-.802-33.555-2.504a7.5 7.5 0 1 1 2.551-14.781c31.416 5.421 83.164.788 110.742-9.912a7.5 7.5 0 0 1 5.426 13.984c-21.463 8.329-55.183 13.213-85.164 13.213z"/></g><path d="M576.02 696.134c-20.05 73.838-40.358 150.935-22.683 286.785 0 0-30.969 59.857-39.806 88.672s-6.8 168.893-28.133 217.489l-14.389 31.703 87.856 19.484c27.929-43.712 57.829-97.948 77.946-155.08 35.298-100.245 103.081-363.502 140.774-579.141-25.173-122.316 12.375-156.453 12.375-156.453-34.462-4.887-132.702-25.328-168.764-25.458S596.07 622.296 576.02 696.134z" class="C"/><path d="M566.88 738.208a7.5 7.5 0 0 1-7.322-9.156c9.807-43.386 18.935-101.636 21.703-138.505.309-4.13 3.894-7.235 8.04-6.917a7.498 7.498 0 0 1 6.917 8.04c-2.861 38.114-11.921 95.968-22.029 140.688a7.504 7.504 0 0 1-7.309 5.85zM553.33 990.42a7.501 7.501 0 0 1-6.403-11.397c.219-.36 22.156-36.664 45.367-91.973a7.504 7.504 0 0 1 9.818-4.014 7.502 7.502 0 0 1 4.014 9.818c-23.678 56.42-45.466 92.454-46.382 93.96a7.49 7.49 0 0 1-6.414 3.606z" class="D"/><g class="C"><path d="M1173.429 506.342c-48.104-8.81-203.98-42.553-203.98-42.553-23.026 61.656-34.508 91.19-84.26 137.322-18.538 102.392-15.366 373.175-7.897 547.696 3.399 79.442 18.977 165.544 34.941 235.79 92.178-.92 179.94-15.844 257.589-53.7-9.718-103.373-10.357-180.918-35.438-236.834 28.462-45.264 30.101-99.551 15.466-182.998-19.566-111.555 71.683-395.913 23.579-404.723z"/><path d="M1120.884 913.344c2.483 37.499-9.285 110.483 13.5 180.72"/></g><path d="M772.734 1113.604a7.5 7.5 0 0 1-.352-14.992c26.777-1.282 55.227-14.654 55.511-14.789 3.738-1.776 8.213-.185 9.991 3.555s.19 8.211-3.548 9.99c-1.268.604-31.394 14.798-61.237 16.227a6.374 6.374 0 0 1-.365.009z" fill="#330096"/><path d="m789.96 449.593-3.765-35.143-87.418 65.038-10.838 67.787 35.273-29.321 54.374 88.092c-4.351-57.021-.276-109.2 12.374-156.453z" class="C"/><path d="M777.593 613.547a7.495 7.495 0 0 1-6.389-3.562l-49.839-80.743-28.632 23.8a7.499 7.499 0 0 1-12.2-6.951l10.838-67.787a7.505 7.505 0 0 1 2.93-4.833l49.645-36.935a7.5 7.5 0 1 1 8.953 12.035l-47.197 35.113-7.204 45.061 19.921-16.559a7.498 7.498 0 0 1 11.176 1.828l54.374 88.092a7.5 7.5 0 0 1-6.376 11.441z" class="D"/><path d="m964.262 415.367 74.912 61.741-28.355 103.513-66.981-41.811-58.648 62.302c40.55-65.239 69.234-127.699 79.072-185.745z" class="C"/><path d="M885.188 608.611a7.5 7.5 0 0 1-5.46-12.641l58.647-62.302a7.502 7.502 0 0 1 9.433-1.222l58.438 36.479 25.694-93.8a7.496 7.496 0 0 1 9.215-5.252 7.5 7.5 0 0 1 5.252 9.215l-28.355 103.514a7.5 7.5 0 0 1-11.205 4.381l-61.764-38.555-54.433 57.823a7.476 7.476 0 0 1-5.462 2.36z" class="D"/><path d="M1173.429 506.342c58.205 4.604 123.13 90.468 226.97 129.007 19.469 7.226 48.597 34.069 71.97 74.387 54.989 57.473 123.416 118.756 147.077 155.433 30.786 47.722-118.469 119.213-209.901 89.732s-154.89-71.051-180.774-125.542c0 0-76.863-47.805-113.195-63.189s57.853-259.828 57.853-259.828z" class="C"/><path d="m1202.053 1174.88 186.155-137.042c35.75-26.612 140.704 109.066 104.954 135.678L1245.1 1321.823c-31.794 17.491-68.828-112.819-43.047-146.943z" class="B"/><g class="C"><path d="M1619.447 865.168c32.652 42.602 56.862 166.255.759 231.966-40.363 47.275-98.186 72.937-129.385 94.401 6.005 34.546-44.493 51.812-92.278 70.656-43.726 17.243-140.63-108.062-132.918-137.175 11.64-43.937 60.579-81.942 94.699-96.443 0 0-6.274-73.567 63.387-97.367l195.736-66.038z"/><path d="M1276.075 1100.526c-4.353-17.869-61.399 11.498-64.05 33.692s14.365 80.549 56.932 129.964c34.37 39.9 58.412 59 71.841 59.166s69.284-35.918 70.386-52.008c.657-9.599-35.8-21.988-77.117-66.181-34.911-37.338-53.596-86.586-57.992-104.633z"/></g><g class="B"><path d="M1202.053 1174.88c-25.512-.835-50.601-4.007-72.119-11.906s-39.709 134.521-11.753 148.604c42.698 21.51 91.48 30.748 126.919 10.245 24.387-14.108-43.047-146.943-43.047-146.943z"/><path d="M1129.935 1162.974c-18.585-10.974-79.141-30.818-89.488-26.148s-54.484 51.361-61.756 60.078c-13.713 16.437 14.38 39.713 32.239 22.067a7702.101 7702.101 0 0 0 36.36-36.203l69.481 20.55z"/><path d="M1130.731 1203.423c-16.426-6.787-69.829-26.483-81.271-26.889s-69.571 46.511-79.178 54.211c-21.316 17.085 2.485 53.979 28.65 35.193l51.943-37.906 72.355 19.721z"/><path d="M1134.903 1232.24c-12.368-6.713-65.652-17.495-79.472-11.678s-56.176 34.519-69.144 43.385c-17.839 12.196-1.72 50.05 23.8 34.702a7370.752 7370.752 0 0 1 50.429-30.053l67.891 10.833z"/><path d="M1136.123 1271.699c-8.812-4.914-48.869-16.907-58.254-14.583s-38.322 28.013-47.162 36.37c-15.118 14.293 4.353 38.324 31.503 21.047 14.69-9.348 25.429-15.624 25.429-15.624l30.542 12.668z"/></g><path d="M1044.873 1288.283a7.498 7.498 0 0 1-4.624-13.408c2.635-2.061 25.979-20.246 34.216-24.441 4.032-2.053 10.792-3.066 32.771 3.359 11.847 3.464 24.466 8.06 31.674 10.942a7.501 7.501 0 0 1-5.572 13.928c-22.136-8.856-46.875-15.8-52.338-14.721-5.548 2.956-21.786 15.146-31.512 22.75a7.472 7.472 0 0 1-4.615 1.591zm-64.337-9.996a7.5 7.5 0 0 1-7.382-8.876c.882-4.727 4.377-10.983 35.868-30.601 16.23-10.11 34.567-20.375 42.844-24.847 13.003-7.023 40.768-.481 70.499 7.457 6.051 1.615 11.276 3.011 13.755 3.419a7.5 7.5 0 0 1-2.435 14.801c-3.203-.527-8.492-1.939-15.188-3.728-15.162-4.047-50.666-13.526-59.5-8.752-34.974 18.895-67.321 39.676-71.277 45.757a7.508 7.508 0 0 1-7.184 5.37zm1.818-49.654a7.5 7.5 0 0 1-4.383-13.592c5.776-4.15 56.774-40.686 68.698-45.467 10.23-4.107 33.093 4.086 74.425 21.694l12.37 5.171a7.5 7.5 0 1 1-5.465 13.969c-3.043-1.19-7.558-3.113-12.784-5.34-10.494-4.471-24.866-10.594-37.625-15.169-19.604-7.028-24.713-6.504-25.455-6.355-7.952 3.295-44.271 28.488-65.411 43.679a7.467 7.467 0 0 1-4.37 1.41zm69.898-45.137l-.006.003.006-.003zm107.718-5.168c-.477 0-.96-.045-1.446-.14l-3.098-.574c-10.832-1.968-30.994-5.629-41.524-14.318a7.502 7.502 0 0 1-1.012-10.559 7.504 7.504 0 0 1 10.559-1.012c7.513 6.2 26.535 9.654 34.658 11.13l3.294.61a7.501 7.501 0 0 1-1.431 14.863z" class="E"/><path d="M1159.543 796.046a7.468 7.468 0 0 1-3.546-.896c-22.361-12.027-43.442-22.112-43.652-22.213a7.5 7.5 0 0 1 6.465-13.535c.213.102 21.604 10.334 44.293 22.537a7.501 7.501 0 0 1-3.56 14.107zm342.4-23.52a7.498 7.498 0 0 1-6.632-3.987l-29.544-55.246a7.498 7.498 0 1 1 13.205-7.114l29.589 55.331a7.5 7.5 0 0 1-6.618 11.016zm-141.615 263.547a7.5 7.5 0 0 1-3.046-14.358c26.606-11.805 54.479-25.507 54.758-25.645a7.5 7.5 0 1 1 6.623 13.459c-.28.138-28.411 13.968-55.297 25.897a7.47 7.47 0 0 1-3.038.647zm31.726-79.589a7.501 7.501 0 0 1-4.113-13.778c19.31-12.634 50.488-24.465 73.243-32.166a7.5 7.5 0 0 1 4.809 14.209c-21.931 7.422-51.85 18.739-69.839 30.51a7.467 7.467 0 0 1-4.1 1.225zm6.485 313.206a7.464 7.464 0 0 1-4.824-1.761c-.38-.319-38.328-32.271-64.804-57.322-26.735-25.296-57.615-84.894-60.292-109.264a7.5 7.5 0 0 1 6.637-8.273 7.496 7.496 0 0 1 8.273 6.637c2.13 19.392 30.453 76.125 55.69 100.004 26.162 24.754 63.774 56.423 64.151 56.74a7.499 7.499 0 0 1 .911 10.567 7.48 7.48 0 0 1-5.742 2.672z" class="D"/><path d="M620.042 424.112c-40.137 8.097-159.684 82.968-211.243 106.222s-74.791 24.779-113.37 37.218-66.347 41.557-111.379 92.717-9.722 257.277 69.22 254.368c61.394-2.262 78.17-42.449 116.228-52.781s85.907-32.196 131.967-60.89c32.168-1.573 83.426-19.094 131.698-50.668 50.861-33.268-13.121-326.186-13.121-326.186z" class="C"/><path d="M3.034 431.822c8.314-21.355 177.236-28.434 204.256-14.036 46.568 24.816-217.927 49.151-204.256 14.036z" fill="#111"/><path d="M200.265 329.634c26.619 66.948 68.859 203.283 93.404 271.001 25.013 69.007-177.31 160.454-192.03 90.198L33.226 372.154c-11.353-53.275 143.893-100.734 167.039-42.52z" class="B"/><g class="C"><path d="M265.025 913.594c-61.383 9.577-152.228-44.165-164.951-191.168 0 0-39.221-32.694-44.993-78.527-4.359-34.618-.629-121.865-4.826-144.342s188.582-91.579 195.008-70.386c16.814 55.455 55.851 65.698 34.888 117.948 39.044 7.853 59.502 50.89 45.899 149.369-14.876 107.712-61.025 217.106-61.025 217.106z"/><path d="M222.956 371.372c19.877-3.589 45.17 64.18 43.638 78.665-.826 7.813-25.935 29.095-86.177 54.848-55.389 23.678-145.425 31.256-156.787 27.267-24.666-8.659-26.353-85.522-20.776-94.646 27.695 12.786 91.376-3.37 145.926-24.592s58.54-38.719 74.176-41.542z"/></g><g class="B"><path d="M200.265 329.634c-10.142-33.706-17.489-100.581-19.47-148.376-2.035-49.11-151.756 14.937-155.066 51.571s-14.541 108.335 7.497 139.325 167.039-42.52 167.039-42.52z"/><path d="M180.177 188.461c2.107-24.026-5.671-88.267-12.489-101.219-7.885-14.98-30.903-53.465-48.333-76.353S73.16 3.279 91.34 37.299s31.056 67.158 31.056 67.158l-2.564 73.032z"/></g><path d="M519.204 803.168a7.493 7.493 0 0 1-1.819-.225c-19.497-4.858-40.463-14.189-58.961-22.423-18.783-8.359-36.523-16.255-45.855-16.294a7.5 7.5 0 0 1 .03-15h.032c12.486.052 30.747 8.18 51.892 17.59 17.937 7.983 38.266 17.031 56.489 21.572a7.499 7.499 0 0 1 5.464 9.091 7.504 7.504 0 0 1-7.272 5.689zM53.426 539.897a7.502 7.502 0 0 1-1.276-14.891c.949-.165 95.284-16.617 125.809-27.207 29.163-10.117 54.021-26.805 76.538-43.331a7.498 7.498 0 0 1 8.875 12.091c-22.34 16.396-49.374 34.613-80.497 45.411-31.669 10.986-124.231 27.132-128.156 27.814a7.41 7.41 0 0 1-1.293.113z" class="D"/><g class="B"><circle cx="96.46" cy="128.676" r="25.515"/><circle cx="112.591" cy="192.596" r="25.515"/><path d="m71.723 134.918 49.479-12.488 16.131 63.92-49.479 12.487z"/><circle cx="55.204" cy="160.747" r="25.515"/><circle cx="78.339" cy="222.478" r="25.515"/><path d="m31.306 169.703 47.784-17.907 23.133 61.732-47.785 17.906z"/><circle cx="25.519" cy="197.703" r="25.515"/><circle cx="51.657" cy="240.659" r="25.515"/><path d="m3.721 210.969 43.595-26.525 26.525 43.594-43.595 26.526z"/></g><g class="E"><path d="M92.423 356.531a7.5 7.5 0 0 1-6.668-4.057c-11.317-21.884-13.423-41.635-6.257-58.704 8.17-19.462 26.206-29.75 35.876-34.05-1.119-4.534-2.619-8.713-3.919-10.82-12.337 7.927-39.681 25.032-53.882 7.515-4.627-5.706-6.159-13.29-4.316-21.354 3.945-17.264 22.46-35.183 49.526-47.932 9.672-4.556 19.727-4.953 29.888-1.181 30.496 11.323 51.563 57.895 52.445 59.872a7.5 7.5 0 0 1-13.699 6.111c-5.318-11.883-23.581-44.365-43.983-51.926-6.318-2.342-12.293-2.115-18.258.695-17.704 8.339-37.85 22.623-41.296 37.704-.817 3.575-.365 6.457 1.345 8.564 6 7.402 27.662-6.532 34.779-11.11l.841-.541c3.889-2.496 8.193-2.891 12.117-1.115 9.7 4.39 13.312 21.803 14.415 29.086a7.499 7.499 0 0 1-5.209 8.291c-.225.071-24.454 7.873-32.878 28.088-5.316 12.76-3.369 28.208 5.789 45.915a7.5 7.5 0 0 1-3.217 10.107 7.44 7.44 0 0 1-3.439.842zm-50.197-92.93a7.62 7.62 0 0 1-1.206-.097c-11.896-1.924-22.666-18.435-24.704-21.726a7.5 7.5 0 0 1 2.427-10.325 7.498 7.498 0 0 1 10.321 2.42c4.083 6.562 11.088 14.295 14.351 14.823a7.5 7.5 0 0 1-1.189 14.905z"/><path d="M118.216 189.748a7.5 7.5 0 0 1-7.484-7.11l-4.031-77.462a7.5 7.5 0 0 1 7.101-7.879 7.488 7.488 0 0 1 7.88 7.1l4.031 77.462a7.5 7.5 0 0 1-7.497 7.889zm-56.614 35.688a7.49 7.49 0 0 1-6.358-3.513L24.96 173.688a7.5 7.5 0 1 1 12.703-7.976l30.283 48.234a7.5 7.5 0 0 1-2.363 10.34 7.459 7.459 0 0 1-3.981 1.15zm27.364-24.726a7.504 7.504 0 0 1-7.175-5.326l-15.131-49.9a7.501 7.501 0 0 1 5.001-9.354 7.498 7.498 0 0 1 9.354 5.001l15.131 49.9a7.501 7.501 0 0 1-7.18 9.679z"/></g><path d="M328.089 629.75a7.504 7.504 0 0 1-7.242-5.569c-6.996-26.231-16.781-45.413-28.845-67.764a7.5 7.5 0 1 1 13.199-7.125c12.54 23.23 22.721 43.212 30.14 71.023a7.502 7.502 0 0 1-7.252 9.435z" class="D"/><g fill="#8d949c"><path d="m920.962 210.133 84.02 30.801s-2.825 27.737-7.018 38.169c0 0-8.071-5.987-22.411-5.239l-54.591-15.365z"/><path d="M894.872 287.311a86.54 86.54 0 0 1-6.807 3.023l-3.124 1.151c-8.688 2.915-17.423 3.851-25.968 3.391h-.016c-42.005-2.255-79.083-38.343-79.083-38.343l4.336-3.437c-1.674-.629-3.316-.997-4.878-1.043-8.098-.246-18.093 8.577-18.093 8.577l-19.241 16.878s-19.272 17.093-35.325 9.789l-1.977-1.059-.064-.015-31.436-16.525 16.945-4.956c-4.559-16.724.59-36.824 9.278-60.514 4.591-12.566 14.682-30.548 24.724-37.345 15.064-10.219 46.898-14.008 65.151-14.576 26.143-.828 50.103 2.731 72.835 8.899l-.638-5.708s20.899 10.602 30.352 16.678c.016-.015.016 0 .032.015 39.407 24.15 47.888 92.765 2.997 115.12z"/></g><path d="M755.059 134.385c-18.265.576-50.081 4.363-65.159 14.58-10.04 6.804-20.12 24.791-24.726 37.35-11.726 31.967-16.989 57.404-.722 76.826 16.753 20.002 43.314-3.552 43.314-3.552l19.237-16.872s9.985-8.814 18.086-8.57c22.513.68 56.112 64.83 115.551 35.24 49.049-24.418 38.583-102.709-10.558-119.241-28.044-9.434-61.894-16.806-95.023-15.761z" fill="#111"/><path d="M820.118 177.73a7.476 7.476 0 0 1-3.12-.684c-59.349-27.201-115.633-.358-116.195-.084a7.505 7.505 0 0 1-10.031-3.433 7.495 7.495 0 0 1 3.415-10.028c2.544-1.253 63.063-30.338 129.062-.09a7.5 7.5 0 0 1-3.131 14.319zm43.369 50.559a7.501 7.501 0 0 1-7.449-8.46c1.747-13.543-5.668-19.363-5.984-19.604l.107.078 8.637-12.264c5.606 3.948 14.467 15.49 12.117 33.709a7.5 7.5 0 0 1-7.428 6.541zm55.219 47.353a7.502 7.502 0 0 1-6.526-11.188c18.627-33.008 4.773-58.889 4.174-59.974-1.992-3.613-.703-8.175 2.898-10.188s8.143-.757 10.175 2.833c.776 1.372 18.753 34.056-4.183 74.701a7.496 7.496 0 0 1-6.538 3.816z" fill="#656c72"/><path d="M775.797 265.419c-14.545-23.267-35.618-10.238-24.321 17.469" class="B"/><path d="M751.479 290.39a7.503 7.503 0 0 1-6.948-4.67c-8.009-19.643-2.259-33.21 6.993-37.944 11.559-5.915 23.715 2.601 30.633 13.667a7.499 7.499 0 1 1-12.719 7.951c-4.555-7.284-9.221-9.216-11.082-8.265-2.554 1.307-4.299 8.225.065 18.926a7.501 7.501 0 0 1-6.942 10.335z" class="E"/></svg></g></svg>