<svg xmlns="http://www.w3.org/2000/svg" width="2608" height="3000" xmlns:v="https://vecta.io/nano"><style><![CDATA[.B{fill:#111}.C{fill:#a85f36}.D{fill:#f4bbab}.E{fill:#773a11}.F{fill:#e09273}.G{fill:#2471ed}.H{fill:#656c72}.I{fill:#5917c1}.J{fill:#55a2ff}.K{fill:#330096}.L{fill:#0a3ea5}.M{fill:#ffd215}.N{fill:#e3e5e5}]]></style><g transform="matrix(1.301277 0 0 1.304782 1237.826087 118.695652)"><svg width="818.928" height="2116.295"><clipPath id="A"><use href="#F"/></clipPath><g class="D"><path d="M598.969 867.497c-1.752 108.819-21.745 440.336-57.294 531.992-35.837 92.399-252.665 62.898-226.253-40.731 36.335-142.565 44.165-359.39 43.3-496.338-.731-115.638 241.999-103.742 240.247 5.077z"/><path d="M541.675 1399.488c-54.715 147.22-260.507 363.136-306.366 409.092s-222.32-60.862-160.343-138.475c62.847-78.703 218.146-221.382 240.456-311.349 19.44-78.396 266.434-67.383 226.253 40.731z"/></g><path d="M598.969 867.497c4.412 65.351 7.139 412.238 7.139 412.238-60.021 27.75-168.794 26.016-290.622 14.84l39.324-403.293z" class="G"/><path d="M74.966 1670.106l-62.037 63.457c0 53.359 52.723 86.382 75.344 134.029 20.497 43.172 77.056 81.379 144.251 82.051s88.697-9.744 104.152-25.702c0 0 9.738-47.54-15.29-69.714s-82.189-49.017-60.522-72.197c9.94-10.634-24.614-33.336-39.557.908-21.169-45.451-106.468 8.717-146.342-112.83z" class="H"/><path d="M17.545 1725.25c3.199 68.109 54.694 87.428 64.032 115.07 19.314 57.169 47.566 84.227 112.181 95.027 78.229 13.075 124.557-11.71 144.784-24.572 2.399-2.025 0 30.8 0 30.8-13.087 14.776-75.954 36.025-145.974 26.729-70.376-9.343-102.836-25.951-129.017-96.166-17.901-48.009-75.023-68.893-61.499-128.489 0 0 15.384-22.17 15.494-18.399zm259.936 124.157c-4.147 0-8.234-.678-12.248-2.037-27.523-9.317-42.751-47.856-48.483-62.365l-.092-.231a5 5 0 1 1 9.301-3.675l.092.232c4.763 12.055 19.257 48.736 42.389 56.568 8.947 3.027 18.23 1.532 28.387-4.577a4.998 4.998 0 0 1 5.154 8.568c-8.321 5.007-16.521 7.518-24.499 7.518z" fill="#374047"/><g class="B"><path d="M239.902 1835.375a4.998 4.998 0 0 1-4.626-6.897c3.509-8.561 9.938-19.98 17.979-28.34-11.907-3.682-26.773-7.187-38.783-8.203a5.001 5.001 0 0 1 .843-9.965c15.864 1.343 36.283 6.729 49.481 11.472a5 5 0 0 1 1.193 8.791c-6.335 4.469-12.485 12.773-16.985 20.836 16.861-3.049 33.807-1.778 44.428.624a5 5 0 0 1 3.773 5.98 4.998 4.998 0 0 1-5.98 3.773c-11.661-2.638-31.723-3.771-49.876 1.714a4.962 4.962 0 0 1-1.446.214z"/><path d="M257.176 1851.665a5.001 5.001 0 0 1-4.733-6.613c4.205-12.355 8.039-21.072 11.818-26.706-10.785-2.181-26.76-4.122-39.787-4.688a5 5 0 0 1-2.996-8.827c2.362-1.98 4.769-4.122 7.316-6.39 9.019-8.025 19.239-17.122 30.382-21.12a5.001 5.001 0 0 1 3.377 9.413c-8.756 3.143-17.27 10.438-25.522 17.766 14.025 1.261 29.923 3.612 38.383 6.324a5.002 5.002 0 0 1 .601 9.286c-1.263.594-6.011 4.379-14.105 28.165a5.002 5.002 0 0 1-4.733 3.39zM44.022 1701.579s9.522 35.314 30.625 43.054c20.682 7.585 32.541 9.443 39.078 19.958 6.5 10.457 17.322 42.719 28.366 57.119 12.637 16.478-.291 27.139-13.676 9.555-11.788-15.487-22.018-54.021-31.202-58.427-9.266-4.446-30.826-9.915-42.909-21.748-12.215-11.962-22.727-36.736-22.727-36.736l12.445-12.774z"/></g><g class="D"><path d="M601.321 341.763c25.352 25.953 75.971 241.16 95.409 331.847 18.31 85.427-115.865 108.444-131.745 29.839l-45.292-210.615c-5.328-34.739 47.494-186.013 81.629-151.071z"/><path d="M696.73 673.609c9.603 50.171 54.45 208.043 71.212 250.701s-65.624 77.79-87.68 43.383-99.781-184.675-115.277-264.245c-8.959-46.001 123.283-74.053 131.745-29.839z"/></g><path d="M603.611 324.37c47.568 18.142 73.785 119.803 84.797 208.964 13.819 40.402 19.699 74.641 22.314 95.164-25.396 28.803-99.754 52.636-164.595 44.72 0 0-40.665-143.269-33.747-194.291s49.643-170.419 91.232-154.558z" class="I"/><g class="D"><path d="M767.942 924.31c9.035 26.936 47.493 93.16 48.863 112.797s-96.743 41.003-101.837 20.093c-8.677-35.62-34.718-58.91-34.707-89.507.007-18.903 87.68-43.383 87.68-43.383z"/><path d="M714.968 1057.2c2.415 11.518-5.791 36.33 8.276 40.726s20.715-18.166 20.712-32.283-28.988-8.443-28.988-8.443z"/><path d="M716.266 1078.613c-12.806-12.179-29.052 4.648-18.503 16.131 10.308 11.22 22.921 13.452 28.931 11.499s10.338-10.447 13.349-20.109c1.272-4.082-13.34-.641-13.34-.641l-10.437-6.879z"/><path d="M734.48 1060.892c1.423 10.675-1.845 34.315-1.845 34.315s-9.269 4.236-18.321 6.556c-19.947 5.113-10.763 31.106 5.87 27.499 14.597-3.165 34.692-14.476 38.831-21.202 5.379-8.741 4.628-48.591 4.628-48.591l-29.164 1.423z"/><path d="M758.696 1059.71c.361 6.301-.606 34.979-2.775 38.774s-11.427 12.891-20.268 20.978c-13.656 12.49 5.691 33.958 21.823 20.242 13.209-11.231 30.553-29.894 31.944-36.056s0-50.605 0-50.605z"/><path d="M816.805 1037.107c2.726 14.539 2.93 56.74.014 62.836s-25.128 30.287-33.231 37.311c-14.371 12.457-38.533-3.445-20.553-21.367 13.727-13.682 22.276-21.35 22.276-21.35l.295-44.215 31.199-13.214z"/></g><path d="M760.348 1142.206a4.99 4.99 0 0 1-3.837-1.79c-9.09-10.859-2.437-20.412 2.422-27.387 4.657-6.687 16.739-17.004 21.394-20.87l.279-41.872a5 5 0 0 1 4.999-4.966h.034a5 5 0 0 1 4.967 5.034l-.295 44.215a5 5 0 0 1-1.859 3.857c-4.553 3.676-17.257 14.493-21.313 20.317-5.706 8.193-6.649 10.844-2.959 15.252a5.002 5.002 0 0 1-3.831 8.21zm-29.322-11.329a5 5 0 0 1-4.811-6.374c1.657-5.804 8.185-12.11 17.225-20.387 2.982-2.73 7.02-6.427 7.999-7.881.976-3.397 1.927-21.476 2.259-36.634.06-2.76 2.338-4.959 5.108-4.889a5 5 0 0 1 4.89 5.108c-.529 24.159-1.675 37.986-3.405 41.096-1.438 2.586-4.612 5.554-10.099 10.576-4.994 4.572-13.353 12.225-14.361 15.757a5.002 5.002 0 0 1-4.805 3.628zm-22.339-21.688a5 5 0 0 1-.969-9.905c9.096-1.809 18.481-4.838 20.56-6.608 1.128-3.516 1.507-18.936 1.204-31.665a5 5 0 0 1 4.88-5.117 4.983 4.983 0 0 1 5.118 4.879c.274 11.541.322 31.668-2.44 36.803-3.03 5.63-16.559 9.37-27.373 11.517a5.045 5.045 0 0 1-.979.097z" class="F"/><path d="M778.445 985.503c12.33 21.463 22.833 40.187 23.29 51.147s-2.255 34.451-4.567 50.233c-2.687 18.346-29.901 18.059-28.597-5.307l1.701-37.862s-41.291-20.882-37.362-43.147 45.534-15.065 45.534-15.065z" class="D"/><path d="M782.704 1104.937c-.619 0-1.235-.03-1.844-.092-9.204-.929-18.117-8.57-17.281-23.547l1.575-34.641c-10.309-5.678-41.102-24.667-37.167-46.959a5 5 0 1 1 9.848 1.738c-2.688 15.23 24.135 32.462 34.696 37.816a5.002 5.002 0 0 1 2.737 4.65l-1.705 37.951c-.499 8.947 3.961 12.603 8.301 13.041 4.452.446 9.429-2.408 10.356-8.737 2.547-17.39 4.932-39.378 4.518-49.3-.425-10.212-12.222-30.747-22.63-48.864a5 5 0 0 1 8.672-4.981c13.715 23.874 23.461 41.681 23.95 53.429.471 11.293-2.192 34.621-4.615 51.166-1.693 11.563-10.921 17.329-19.411 17.329z" class="F"/><g class="D"><path d="M473.614 833.012c-1.069 176.879 42.269 442.895 49.658 559.777 6.253 98.908-214.506 146.782-230.458 41.037-21.945-145.476-59.056-417.034-60.393-556.114-1.131-117.605 241.85-153.53 241.193-44.699z"/><path d="M523.272 1392.788c10.003 137.915 34.176 390.316 60.259 501.127 17.068 72.507-219.648 123.212-229.902 24.42-12.317-118.673-46.395-392.949-60.815-484.511-12.565-79.787 222.114-156.074 230.458-41.037z"/></g><path d="M329.193 1712.761a5 5 0 0 1-4.957-4.396l-54.544-400.112a5 5 0 0 1 4.172-5.709c2.731-.433 5.285 1.443 5.709 4.172 17.963 115.447 35.818 246.432 54.589 400.44a4.999 4.999 0 0 1-4.968 5.604zm197.271-273.113a5 5 0 0 1-4.975-4.555l-12.043-134.604a5 5 0 0 1 4.535-5.426c2.751-.234 5.18 1.783 5.426 4.535l12.043 134.604a5 5 0 0 1-4.986 5.446z" class="F"/><path d="M486.96 920.368c10.225 89.523 20.596 299.763 24.627 345.069-81.91 42.43-198.389 50.403-294.475 34.366 3.913-54.136 15.309-422.092 15.309-422.092l254.538 42.657z" class="G"/><path d="M353.629 1918.336l6.756 102.903c19.071 21.252 56.095 29.653 101.158 38.443 27.128 5.292 88.871 48.898 211.838 31.747 80.128-11.176 76.078-45.145 76.078-45.145s5.276-42.06-39.855-69.64c-33.977-20.764-101.117-45.523-115.94-101.6-8.745-33.086-82.796-9.595-75.272 26.492-59.357-9.058-79.422 46.956-164.763 16.8z" class="H"/><path d="M359.203 2006.552c-4.28-4.728-1.293 27.112-1.293 27.112 39.094 36.86 86.345 33.985 114.592 49.433 36.895 20.178 124.331 42.718 204.488 28.988 69.657-11.931 74.302-35.449 74.302-35.449s1.609-34.227-.788-31.538c0 0-24.908 27.782-80.119 33.523-51.353 5.34-143.805 2.613-188.718-24.687-33.328-20.258-83.81-10.829-122.464-47.383zm266.757-13.835c-8.429 0-16.209-1.113-22.238-3.642-18.729-7.854-32.815-26.904-46.438-45.326-13.222-17.881-25.711-34.771-39.775-37.292a5.001 5.001 0 0 1 1.766-9.844c17.977 3.224 31.613 21.666 46.051 41.19 12.817 17.334 26.071 35.259 42.264 42.049 17.398 7.298 55.145-.12 69.574-10.775 3.602-2.66 4.764-4.833 4.65-5.98a5 5 0 0 1 4.484-5.467 4.99 4.99 0 0 1 5.467 4.484c.362 3.661-.847 9.236-8.661 15.007-12.106 8.94-36.551 15.596-57.144 15.596z" fill="#374047"/><g class="B"><path d="M356.526 1962.606s20.636 24.641 43.715 15.986 37.66-17.007 50.354-12.391 43.531 26.033 63.319 30.956c22.883 5.693 17.18 25.261-6.924 19.041-20.993-5.417-55.015-32.888-66.166-30.003s-33.653 13.848-51.539 12.117-31.323-13.853-31.323-13.853l-1.437-21.853zm224.637 13.738a5.003 5.003 0 0 1-4.676-6.775c7.039-18.545 16.65-34.219 32.464-52.652-26.351-5.994-52.031-5.085-78.247 2.735a5 5 0 1 1-2.86-9.582c30.661-9.149 60.625-9.415 91.604-.813a4.998 4.998 0 0 1 2.376 8.165c-15.219 16.889-25 30.927-32.087 46.362 28.029-7.159 64.887-12.178 86.229-12.929 2.724-.073 5.075 2.061 5.173 4.821a5.001 5.001 0 0 1-4.821 5.173c-23.479.825-66.738 7.163-93.717 15.281a4.986 4.986 0 0 1-1.439.212z"/><path d="M615.076 1998.282a4.998 4.998 0 0 1-4.897-6.03c2.768-13.161 13.133-29.209 31.609-48.889-25.9-2.591-62.199-1.297-87.713 1.656a5.001 5.001 0 0 1-4.954-7.383c13.493-24.449 28.805-44.023 45.51-58.178a5 5 0 1 1 6.465 7.629c-13.84 11.728-26.73 27.509-38.399 46.994 28.857-2.616 66.529-3.189 90.408.653a4.999 4.999 0 0 1 2.752 8.46c-21.165 21.307-33.241 38.504-35.894 51.115a5.003 5.003 0 0 1-4.888 3.972z"/></g><path d="M598.969 764.564v102.933s-50.4 124.393-118.64 127.558-247.908-117.344-247.908-117.344l2.9-53.605z" class="G"/><path d="M247.226 975.21a5 5 0 0 1-2.235-9.477c36.554-18.22 62.083-58.772 62.083-98.615a5 5 0 1 1 10 0c0 43.486-27.808 87.719-67.622 107.565a4.982 4.982 0 0 1-2.227.526zm264.356 295.227a5 5 0 0 1-4.984-4.67l-21.034-309.045a4.999 4.999 0 1 1 9.965-.826l21.048 309.211a5 5 0 0 1-4.994 5.33z" fill="#004ebf"/><path d="M341.743 312.921h161.959s80.61 5.177 97.619 28.842-17.009 238.131-14.051 266.234 6.497 150.122 11.673 181.922c0 0-33.369 38.803-97.877 42.899-36.91 2.343-83.256 28.608-112.066 27.199-67.298-3.29-132.846-11.342-153.679-35.911 0 0 10.885-76.687 10.519-109.227s4.171-382.73 29.33-391.605 66.573-10.354 66.573-10.354z" fill="#ea2688"/><path d="M376.791 276.048c11.777-7.053 120.222-11.142 126.947-2.468s7.348 27.35 4.688 34.762-128.376 9.652-131.899-.525-5.972-28.034.264-31.769z" class="I"/><g class="D"><path d="m493.496 301.481 36.536 4.809s-8.638 61.894-68.644 67.038c-66.717 5.719-109.188-38.537-114.808-67.038l37.045-3.394 109.872-1.414z"/><rect height="211.608" rx="54.936" width="109.872" x="383.625" y="149.558"/><use href="#F"/></g><path d="M486.96 169.909c-2.479 12.318-15.535 16.009-17.742-1.198-1.466-11.429 3.407-26.258-7.333-39.946-15.091-19.234-23.386-53.566-37.63-59.816-41.566-18.238-88.117-.215-95.052 14.011-9.182 3.588-31.573-37.125-9.093-56.635 0 0 1.697 17.814 14.421 20.783 0 0-2.145-28.869 15.245-47.107 0 0 1.272 11.876 8.059 16.966.424-8.483 16.117-8.059 25.413 9.755 0-7.634 9.592-17.897 17.85 4.242 0 0 32.574-8.943 41.041 13.559 0 0 48.333 17.173 56.816 37.108 0 0-1.697-15.693 2.969-16.117s14.369 98.646 3.342 116.036-18.302-11.639-18.302-11.639z" class="B"/><ellipse cx="402.416" cy="158.035" fill="#fff" rx="25.121" ry="21.348" transform="matrix(.061954 -.998079 .998079 .061954 219.751 549.885)"/><ellipse cx="396.824" cy="160.763" rx="18.513" ry="12.865" transform="matrix(.061954 -.998079 .998079 .061954 211.782 546.864)" class="B"/><g clip-path="url(#A)"><ellipse cx="325.75" cy="159.763" fill="#fff" rx="23.514" ry="19.337" transform="matrix(.061954 -.998079 .998079 .061954 146.11 474.988)"/><ellipse cx="323.446" cy="163.184" rx="17.393" ry="12.135" transform="matrix(.061954 -.998079 .998079 .061954 140.535 475.898)" class="B"/></g><path d="M383.034 125.02c-8.547 4.068-13.524-11.819-1.685-15.793 9.556-3.208 35.469.278 42.807 6.52 7.866 6.691 4.373 15.958-4.004 9.962-5.798-4.15-29.945-4.102-37.118-.689zm-43.763 1.108c9.684 4.251 14.45-11.469 6.796-14.563-11.408-4.612-31.771 4.854-37.244 11.65s-1.19 8.606 2.779 6.068 20.885-6.134 27.67-3.155z" class="B"/><path d="M372.55 242.999c-2.474 0-5.026-.19-7.649-.603a5 5 0 1 1 1.555-9.879c13.856 2.181 25.427-3.623 31.126-9.253a5 5 0 1 1 7.027 7.114c-6.556 6.477-18.009 12.621-32.059 12.621z" class="F"/><g class="H"><path d="M401.967 199.774c-9.608 0-18.781-3.435-26.082-9.819a39.45 39.45 0 0 1-13.48-27.239c-.708-10.583 2.747-20.808 9.729-28.792s16.655-12.771 27.238-13.48c21.846-1.462 40.811 15.12 42.273 36.967s-15.121 40.81-36.968 42.272c-.906.061-1.811.091-2.711.091zm.078-69.42c-.664 0-1.332.022-2.005.067-7.918.53-15.155 4.112-20.379 10.085s-7.809 13.624-7.278 21.542 4.111 15.155 10.085 20.379a29.52 29.52 0 0 0 21.542 7.279c16.345-1.094 28.752-15.282 27.657-31.627-1.05-15.672-14.138-27.725-29.622-27.725zm-79.688 67.024c-8.882 0-17.362-3.176-24.11-9.078-7.381-6.455-11.807-15.397-12.462-25.18a36.47 36.47 0 0 1 8.994-26.617c6.454-7.381 15.396-11.807 25.18-12.461s19.236 2.539 26.617 8.994 11.807 15.397 12.462 25.18a36.47 36.47 0 0 1-8.994 26.617 36.46 36.46 0 0 1-25.181 12.461 37.59 37.59 0 0 1-2.506.084zm.092-63.42c-.605 0-1.213.02-1.823.061a26.53 26.53 0 0 0-24.863 28.433c.477 7.118 3.696 13.625 9.066 18.321a26.51 26.51 0 0 0 19.365 6.543c7.118-.477 13.625-3.697 18.321-9.067a26.53 26.53 0 0 0 6.543-19.366c-.477-7.118-3.696-13.625-9.066-18.321-4.91-4.293-11.081-6.604-17.543-6.604z"/><path d="M367.388 167.382a5.002 5.002 0 0 1-4.827-3.717c-.432-.232-1.39-.535-2.534-.408-.798.088-1.425.361-1.679.731a5.001 5.001 0 0 1-8.25-5.652c3.265-4.766 9.355-5.798 13.948-4.702 4.604 1.098 7.785 4.196 8.304 8.086a5 5 0 0 1-4.962 5.661zm-4.95-4.339v.002zm131.834 10.09a4.97 4.97 0 0 1-2.782-.85c-7.306-4.906-36.285-9.345-54.885-9.539a5 5 0 0 1 .051-10h.053c14.968.155 49.154 3.714 60.355 11.236a5 5 0 0 1-2.792 9.151z"/></g><path d="M383.384 276.489a5 5 0 0 1-4.993-4.809 5.002 5.002 0 0 1 4.806-5.188c33.317-1.273 56.649-4.598 69.345-9.884a5 5 0 1 1 3.844 9.233c-13.799 5.744-38.295 9.326-72.807 10.645l-.194.003z" class="F"/><path d="M481.954 171.433c14.831-26.037 47.856-12.281 38.627 19.025-5.931 20.12-29.403 26.52-38.627 22.484s-9.003-25.705 0-41.51z" class="D"/><g class="F"><path d="M486.669 205.371a5 5 0 0 1-4.986-4.7c-1.074-17.888 14.086-32.42 25.443-36.034a5 5 0 0 1 3.031 9.53c-7.06 2.247-19.277 12.824-18.492 25.905a5.002 5.002 0 0 1-4.996 5.3z"/><path d="M503.737 193.141a4.977 4.977 0 0 1-3.247-1.2l-9.633-8.235a5 5 0 1 1 6.498-7.6l9.633 8.235a5 5 0 0 1-3.251 8.8zm-159.313 11.556a5 5 0 0 1-4.913-4.106c-2.432-13.369 2.649-17.979 5.895-19.538 5.599-2.69 12.765.114 19.176 7.489a5 5 0 1 1-7.547 6.561c-3.821-4.396-6.703-5.223-7.313-5.03-.313.247-1.48 2.635-.373 8.729a5 5 0 0 1-4.924 5.896z"/></g><path d="M508.426 345.015s-13.949 23.43-11.833 32.712c23.732 104.07 31.708 209.252 34.697 252.186s.009 224.506 22.005 273.574c0 0 50.474-4.245 66.754-24.41-9.578-36.806-7.483-147.035-19.428-229.903-8.614-59.759 7.472-159.911 8.967-191.296s22.76-122.58-5.978-133.508c-30.108-11.449-105.566-26.908-105.566-26.908 3.176 12.797 13.78 36.977 10.381 47.553zm-100.478-19.063c6.965 12.308 9.559 37.624 7.767 54.908s-14.583 414.442-76.27 526.104c0 0-112.482-4.201-138.152-23.336 0 0 23.614-68.431 29.058-97.811 7.216-38.94 5.48-454.329 33.483-463.663s112.482-24.692 112.482-24.692l31.631 28.491z" class="I"/><g class="D"><path d="M291.26 349.985c19.506 35.351-28.391 241.507-59.922 328.729-29.702 82.163-155.711 30.641-127.56-44.449l73.103-202.647c38.036-84.892 90.781-124.402 114.38-81.633z"/><path d="M231.338 678.714c-17.693 53.954-64.683 201.258-70.911 246.665s-98.728 35.845-97.697-5.011c1.136-45.06 13.374-204.428 41.048-286.103 15.04-44.386 141.587 1.674 127.56 44.449z"/></g><path d="M263.835 322.153c68.582-21.531 20.85 289.793-5.718 355.541-36.847 16.041-113.504 8.909-167.847-32.098 0 0 60.033-185.481 84.721-230.665 24.638-45.093 49.682-80.484 88.843-92.778z" class="I"/><g class="D"><path d="M62.73 920.368c-2.519 31.148-11.466 106.637-8.462 135.151 1.93 18.322 81.02 12.69 80.663-4.459-.238-11.422-1.265-25.257 12.523-33.577s12.973-92.104 12.973-92.104z"/><path d="M160.324 939.39c8.027 21.561 22.279 53.713 23.063 70.965s-1.823 36.32-2.745 52.541c-1.402 24.669-35.234 23.265-33.072-4.313 1.849-23.578 3.719-32.983-.118-41.1-12.822-27.124 12.871-78.093 12.871-78.093zM54.268 1055.518c1.161 21.885.377 41.097 5.474 49.331s14.115 22.349 22.349 32.936 29.799-1.568 19.213-15.292-20.389-23.832-20.389-23.832l-3.943-43.143z"/><path d="M65.178 1055.518c1.438 14.238 2.99 43.763 7.166 51.33 5.755 10.426 19.068 26.99 24.474 33.74 12.383 15.461 30.202 2.157 23.371-11.506s-20.494-30.421-20.494-30.421l-8.939-43.143H65.179z"/><path d="M84.953 1055.518c2.157 14.598 6.195 42.086 9.439 50.209 3.523 8.821 16.582 31.234 23.052 40.707 10.067 14.742 32.719 4.315 21.933-13.303s-19.673-35.815-19.673-35.815l-7.05-44.818-27.7 3.02z"/><path d="M104.168 1053.423c1.797 11.56 8.42 43.411 11.851 49.789s17.251 26.021 22.697 34.367c11.095 17.004 34.517 4.315 23.73-14.382s-18.578-29.786-18.578-29.786l-8.938-42.351-30.763 2.363z"/></g><path d="M142.213 1146.805a4.975 4.975 0 0 1-3.398-1.334c-5.963-5.528-15.282-20.412-24.317-35.183a768.168 768.168 0 0 0-2.726-4.437c-4.529-7.29-7.696-23.956-11.077-43.374l-1.444-8.147a5.001 5.001 0 0 1 4.009-5.825 4.998 4.998 0 0 1 5.825 4.009l1.462 8.247c2.328 13.371 5.847 33.578 9.72 39.811l2.763 4.497c5.988 9.79 17.135 28.015 22.585 33.068a4.998 4.998 0 0 1-3.4 8.666zm-24.765 4.63a4.996 4.996 0 0 1-4.315-2.468c-.803-1.366-19.707-33.549-23.266-41.111-3.112-6.614-6.174-26.37-9.043-46.038l-.816-5.558a5 5 0 0 1 9.889-1.484l.823 5.598c1.771 12.14 5.456 37.4 8.196 43.224 3.365 7.151 22.644 39.972 22.838 40.303a5 5 0 0 1-4.305 7.534zm-20.626-5.846a4.991 4.991 0 0 1-4.005-2.001c-.859-1.147-21.1-28.16-24.742-34.138-3.198-5.247-5.259-22.887-7.546-49.648l-.331-3.844a4.999 4.999 0 0 1 4.541-5.42c2.739-.249 5.178 1.79 5.42 4.541l.334 3.871c.862 10.092 3.487 40.804 6.123 45.298 2.815 4.62 18.426 25.634 24.203 33.341a5 5 0 0 1-3.997 7.999z" class="F"/><path d="M761.639 906.829c-25.812-2.381-79.138 19.093-88.26 49.48l-13.576-24.433c9.121-30.387 67.668-53.066 93.48-50.685l8.356 25.639z" class="J"/><path d="M603.545 677.103a5 5 0 0 1-4.963-4.444c-5.793-51.699 1.692-170.122 5.331-201.712a4.986 4.986 0 0 1 5.539-4.395 5 5 0 0 1 4.395 5.54c-3.604 31.3-11.036 148.496-5.327 199.455a4.999 4.999 0 0 1-4.975 5.557zm-374.694 12.682a5 5 0 0 1-.856-9.927c11.734-2.054 21.627-4.817 26.062-6.142 5.148-18.033 35.333-125.018 38.301-164.183a4.984 4.984 0 0 1 5.363-4.608 5 5 0 0 1 4.607 5.364c-3.307 43.643-37.935 163.705-39.407 168.794a4.999 4.999 0 0 1-3.239 3.359c-.535.176-13.299 4.349-29.962 7.266a5.042 5.042 0 0 1-.868.076z" class="K"/><path d="m503.739 273.58 35.185 32.9s19.061 47.715 14.253 54.687c-3.78 5.482-39.118-22.628-44.751-16.151 4.241-23.486-4.352-69.529-4.688-71.435z" class="I"/><path d="M550.675 367.115c-6.023 0-14.644-4.36-25.328-9.764-5.748-2.907-14.435-7.3-16.791-7.338a5.01 5.01 0 0 1-5.137-4.85 5.01 5.01 0 0 1 4.858-5.146c4.428-.134 11.1 3.109 21.583 8.411 5.848 2.958 15.147 7.661 19.369 8.544.144-7.161-7.185-29.828-14.928-48.585a5 5 0 0 1 2.714-6.529 4.999 4.999 0 0 1 6.53 2.714c.204.496 5.064 12.3 9.327 25.151 8.656 26.094 6.688 31.552 4.165 34.62-1.596 1.94-3.731 2.772-6.363 2.772z" class="K"/><path d="M376.791 276.048c.794 25.434 17.161 39.839 31.157 49.905-1.669 4.005-25.631 40.038-33.307 42.04s-31.305-57.621-33.307-63.962 35.458-27.983 35.458-27.983z" class="I"/><path d="M373.679 373.174c-1.125 0-2.422-.247-3.839-.943-3.556-1.749-9.54-6.991-20.4-32.221-5.954-13.833-11.221-28.81-12.906-34.577a5 5 0 0 1 9.599-2.804c1.634 5.594 6.771 20.171 12.606 33.694 8.661 20.069 13.407 25.272 14.956 26.549 5.648-3.633 19.587-22.76 30.004-39.555a5 5 0 0 1 8.498 5.27c-5.777 9.318-25.432 40.034-35.736 44.063a7.63 7.63 0 0 1-2.782.525z" class="K"/><path d="M460.8 816.244a5 5 0 0 1-2.94-9.048c35.165-25.502 48.748-63.543 44.042-123.345a4.998 4.998 0 1 1 9.969-.784c5.011 63.667-9.837 104.446-48.14 132.224a4.973 4.973 0 0 1-2.932.953z" fill="#b7006d"/><path d="M232.486 785.668a5 5 0 0 1-4.464-7.245c9.55-19.008 14.233-44.516 14.28-44.771a5 5 0 1 1 9.84 1.779c-.199 1.101-4.993 27.197-15.185 47.481a5.001 5.001 0 0 1-4.472 2.756zm455.925-247.333a5 5 0 0 1-4.476-2.765l-21.046-42.086a5 5 0 1 1 8.943-4.472l21.046 42.086a5 5 0 0 1-4.467 7.237z" class="K"/></svg></g><g transform="matrix(1.304463 0 0 1.305041 298.695652 290.869565)"><svg width="1078.905" height="1968.953"><clipPath id="B"><use href="#G"/></clipPath><clipPath id="C"><use href="#H"/></clipPath><clipPath id="D"><ellipse cx="561.234" cy="132.691" rx="23.911" ry="21.533" transform="matrix(.065508 -.997852 .997852 .065508 392.064 684.028)"/></clipPath><path d="M667.001 294.983c61.519 36.172 75.534 244.788 74.76 298.758-.899 62.696-36.6 107.492-64.991 104.328-37.215-4.148-65.756-35.628-70.483-105.537s-14.932-147.889-16.298-171.665 77.012-125.884 77.012-125.884z" class="C"/><path d="M666.144 285.783c56.012 19.008 79.824 142.107 84.519 185.586 0 0-102.708 32.264-158.374 24.606 0 0-8.747-65.233-7.486-93.364s81.341-116.828 81.341-116.828z" class="L"/><g class="C"><path d="M641.434 739.762c30.306 104.529 82.501 410.791 96.109 522.453 11.989 98.378-214.506 146.782-230.458 41.037-21.945-145.476-60.487-365.623-101.561-496.269-34.683-110.317 205.604-171.75 235.909-67.221z"/><path d="M737.543 1262.216l68.535 501.113c6.178 74.232-235.027 161.053-244.341 62.168l-54.651-522.244c-12.565-79.787 216.155-155.486 230.458-41.037z"/></g><g class="M"><path d="M639.285 713.869c19.363 59.786 60.019 217.321 64.449 251.876s-258.687 58.636-258.687 58.636l-52.275-233.765c-32.295-103.734 214.219-180.48 246.514-76.746z"/><path d="m707.662 929.468 12.19 62.028c-113.206 10.63-213.266 39.125-272.53 63.795L429.7 988.329c75.941-28.083 165.889-58.861 277.962-58.861z"/></g><path d="M437.358 990.581a5 5 0 0 1-1.468-9.779l15.578-4.812c78.096-24.155 166.577-51.523 255.156-51.523l1.052.001a5 5 0 0 1-.013 9.999h-1.082c-87.031 0-170.965 25.963-252.158 51.077l-15.592 4.814a4.988 4.988 0 0 1-1.473.223z" fill="#ce9800"/><use href="#G" class="N"/><g clip-path="url(#B)"><path d="M540.713 1694.631a5 5 0 0 1-4.402-7.365c12.757-23.781 50.749-37.921 80.375-45.595 62.49-16.188 151.495-19.306 184.395 1.854a4.999 4.999 0 1 1-5.408 8.41c-27.34-17.582-109.806-17.854-176.479-.585-39.146 10.141-65.451 24.574-74.07 40.642a4.999 4.999 0 0 1-4.41 2.638z" class="J"/></g><path d="M561.737 1825.496c5.732 53.214 11.631 126.211 11.631 126.211s112.077-21.383 137.146-56.776 75.729-127.33 146.25-131.407c71.523-4.135 78.641 39.239 78.641 39.239s-4.424-50.877-42.029-62.674-87.928 10.767-92.633-27.578c-2.296-18.718-9.736-26.416-38.813-22.39-32.319 4.474-39.116 29.146-37.015 49.625-61.937 7.373-147.337 37.874-163.179 85.75z" fill="#f62"/><path d="M940.533 1834.618c7.204 42.324-91.623 101.549-153.489 114.472s-206.361 27.172-215.756 15.59c-6.254-7.71 103.551-29.017 134.213-55.694 33.176-28.864 44.857-70.264 64.087-88.346 24.259-22.811 58.767-48.562 113.691-41.638 41.124 5.184 51.988 24.684 57.253 55.616z" class="B"/><g fill="#c83400"><path d="M940.533 1834.618c1.653-10.471 0-44.089 0-44.089s-18.187-32.664-61.724-33.692-81.167 2.096-123.699 50.357c-36.128 40.995-35.078 69.95-54.861 85.841-36.456 29.285-129.938 42.147-131.716 45.742-2.588 5.235 2.756 25.902 2.756 25.902s106.752-29.098 135.022-51.804c33.637-27.017 35.022-57.941 65.031-88.178 25.708-25.903 65.44-44.899 108.916-42.226 45.248 2.782 55.147 27.693 60.275 52.146zm-156.635-75.671c-16.791 0-45.791-4.564-61.726-15.02a5.002 5.002 0 0 1 5.486-8.362c15.463 10.146 48.149 14.469 61.393 13.18 4.989-3.224 26.256-16.091 50.74-18.146a5.02 5.02 0 0 1 5.4 4.564 5 5 0 0 1-4.564 5.4c-24.822 2.084-46.767 16.983-46.985 17.134a5.01 5.01 0 0 1-2.172.835c-2.057.273-4.628.414-7.572.414z"/><path d="M648.912 1922.563a5.003 5.003 0 0 1-4.842-3.768c-7.967-31.288-22.96-59.387-78.204-53.141a5 5 0 0 1-1.123-9.937c63.407-7.147 80.875 28.631 89.019 60.611a5 5 0 0 1-4.849 6.234z"/></g><path d="m617.781 634.797 21.504 79.073s-75.483 173.411-143.014 187.424S306.772 733.81 306.772 733.81c4.991-29.567 12.482-58.558 25.558-91.803l285.45-7.209z" class="M"/><g class="C"><path d="M540.835 794.055c-18.563 107.239-86.615 426.804-121.134 527.612-32.106 93.761-247.788 22.394-215.79-79.648 44.021-140.382 75.085-355.482 95.414-490.915 17.165-114.359 260.073-64.287 241.51 42.951z"/><path d="M419.7 1321.667c-47.757 143.607-142.469 345.492-180.576 398.055s-223.39-22.339-180.026-111.695 117.652-277.385 144.813-366.008c23.668-77.225 252.186-29.798 215.79 79.648z"/></g><path d="M473.634 1120.408a5 5 0 0 1-4.878-6.119l11.565-50.414a5 5 0 1 1 9.746 2.236l-11.565 50.414a5 5 0 0 1-4.868 3.883z" class="E"/><g class="M"><path d="M540.835 794.055c-6.565 103.165-24.411 239.986-24.411 239.986-49.563 20.373-170.442 18.362-268.492-25.065l51.985-292.884c22.095-125.512 266.142-45.854 240.917 77.963z"/><path d="m529.722 994.541-6.539 61.301c-67.09 24.521-190.954 11.443-284.439-36.781l9.187-62.119c106.877 44.954 222.123 58.022 281.79 37.598z"/></g><use href="#H" class="N"/><g clip-path="url(#C)"><path d="M271.66 1638.659c-44.432 0-82.113-18.42-107.478-35.48-38.6-25.962-65.669-59.584-78.131-82.392a5 5 0 1 1 8.775-4.795c23.592 43.179 103.943 127.011 201.694 110.592a5 5 0 1 1 1.658 9.862 159.729 159.729 0 0 1-26.52 2.214z" class="J"/></g><path d="M64.933 1595.987c-3.034-12.63-55.832 96.335-55.832 96.335s22.695 67.186 43.464 104.102 31.844 115.176 130.039 118.868 124.877-10.384 141.119-30.319c0 0 9.411-56.794-28.246-86.185-16.239-12.675-46.53-28.068-52.665-65.985-.665-4.108 2.379-10.237 7.634-23.781 0 0 5.2-22.221-23.102-28.191-26.097-5.505-39.312 1.807-46.383 16.532-41.581 8.032-106.222-60.551-116.029-101.376z" fill="#f62"/><g fill="#c83400"><path d="M325.539 1869.368c2.498-5.315 1.092 34.185 1.092 34.185-19.25 37.832-145.966 46.133-202.782 20.633-56.149-25.201-53.16-78.006-75.885-113.663-17.022-26.707-50.074-65.822-47.857-104.067.342-5.901 14.736-34.2 15.346-28.859 12.843 68.96 30.437 84.665 47.147 103.867 23.696 27.228 34.354 78.917 73.535 104.327 52.375 33.966 177.392 9.136 189.405-16.424z"/><path d="M220.349 1800.403c-.715 0-1.416-.029-2.104-.09-8.739-.769-19.78-9.535-28.813-22.878-16.392-24.214-21.348-54.687-13.257-81.516a4.997 4.997 0 0 1 6.23-3.344 5 5 0 0 1 3.344 6.23c-10.715 35.531 6.447 64.876 11.963 73.022 8.229 12.157 16.866 18.124 21.408 18.523 4.709.402 11.707-1.688 19.803-4.123 8.702-2.617 19.531-5.875 31.732-7.227a4.992 4.992 0 0 1 5.521 4.419 5.001 5.001 0 0 1-4.419 5.521c-11.295 1.251-21.208 4.232-29.954 6.863-8.14 2.448-15.284 4.598-21.454 4.598zm-181.451-43.452a5 5 0 0 1-4.063-7.909c15.419-21.566 29.112-79.042.303-112.006a5 5 0 0 1 7.529-6.58c32.685 37.396 17.812 99.912.303 124.402a4.995 4.995 0 0 1-4.072 2.092z"/></g><g fill="#ce9800"><path d="M525.767 1036.67a5 5 0 0 1-4.977-5.53l3.16-29.625-1.498.454a5.003 5.003 0 0 1-6.425-5.292l17.908-175.89a4.992 4.992 0 0 1 5.481-4.468 5 5 0 0 1 4.468 5.48L526.736 990.22l1.536-.466a5 5 0 0 1 6.422 5.316l-3.961 37.13a5 5 0 0 1-4.966 4.47z"/><path d="M457.654 1007.881c-91.038 0-175.318-31.334-203.023-42.777a5 5 0 1 1 3.818-9.242c33.529 13.849 151.49 57.401 261.616 36.411a4.997 4.997 0 0 1 5.848 3.975 4.999 4.999 0 0 1-3.975 5.848c-21.372 4.075-43.014 5.786-64.284 5.786zm187.853-248.35a4.982 4.982 0 0 1-3.063-1.051c-23.692-18.399-40.622-44.457-46.449-71.492a5 5 0 0 1 9.775-2.107c5.34 24.773 20.942 48.721 42.807 65.7a5 5 0 0 1-3.07 8.949z"/></g><path d="m617.781 634.797 11.272 41.448c-78.707 32.962-188.55 23.815-309.071 3.278l12.349-37.517c111.38 11.299 210.668 14.996 285.45-7.209z" fill="#f62"/><path d="M527.666 705.424c-7.52 0-15.384-.764-18.743-3.592-8.38-7.054-7.849-40.833-1.013-51.704 3.336-5.306 15.561-8.2 25.229-9.692 7.938-1.227 27.145-3.443 34.064 2.42 5.789 4.906 7.146 17.534 7.44 24.625.155 3.751.59 22.807-6.132 29.534-5.338 5.341-21.054 7.282-29.946 7.963-3.063.234-6.933.447-10.899.447zm-12.314-11.289c2.171 1.001 11.198 1.81 23.361.798 14.565-1.211 21.6-3.884 22.725-4.988 1.619-1.621 3.695-10.406 3.213-22.051-.457-11.035-2.834-16.494-3.913-17.409-1.24-.96-8.358-2.398-22.398-.675-12.875 1.58-20.609 4.511-22.063 5.801-4.895 8.145-4.094 34.221-.925 38.525zm.113.144h.011z" class="B"/><path d="M602.213 270.08s37.072 3.976 63.931 15.704c23.395 10.215 7.43 80.626 6.984 107.879s8.533 46.889 8.539 70.568-5.694 120.883-20.437 139.201-34.492 37.212-42.136 36.189c-17.85-2.387-18.21 7.879-49.036 14.491-22.385 4.801-41.947-3.581-66.262 3.742-8.979 2.704-42.81 5.924-55.659 2.771-13.018-3.195-58.093-9.915-88.707-5.338-39.444 5.897-51.639-8.377-59.464-22.704-14.236-26.068-29.145-102.526-11.175-196.872 14.989-78.69 68.465-158.08 84.102-161.654s51.958-7.184 51.958-7.184l177.363 3.208z" class="L"/><path d="m472.054 261.292-58.321 6.894s48.91 64.691 110.493 63.052 91.71-59.576 91.71-59.576l-48.517-5.594-95.365-4.777z" class="C"/><path d="M524.342 355.642c-1.89 0-3.795-.044-5.729-.136-26.403-1.247-53.686-10.427-78.897-26.55-23.585-15.082-42.827-34.78-54.181-55.465a5 5 0 1 1 8.766-4.811c19.381 35.309 69.701 74.238 124.783 76.837 66.22 3.136 103.979-53.968 113.982-71.542a5 5 0 0 1 8.691 4.946c-10.426 18.317-49.105 76.72-117.415 76.72z" fill="#002e77"/><path d="M362.95 283.539c-73.358 8.518-173.849 200.132-195.682 251.542-25.363 59.723-18.913 100.163 4.652 118.012 21.412 16.219 90.388 1.685 124.092-62.514s75.968-133.747 87.203-155.681-20.265-151.36-20.265-151.36z" class="C"/><path d="M372.892 274.056c-80.785 10.161-130.98 106.536-164.757 167.162 39.09 54.556 103.08 71.704 151.098 68.005 0 0 26.749-41.261 39.74-78.503s-26.081-156.664-26.081-156.664z" class="L"/><path d="M450.302 634.704c-12.942-15.318-242.29-48.542-249.619-37.125-6.672 10.394 229.276 51.848 249.619 37.125z" class="H"/><path d="M200.683 597.578c55.58 24.26 224.993 42.552 249.619 37.125 0 0-40.378 187.143-39.524 236.437s-25.449 106.728-65.493 135.606c0 0-60.242-18.994-108.577-24.458s-121.987-37.687-126.59-53.798-3.452-87.462 14.961-123.713 64.3-166.92 75.604-207.199z" fill="#8f969e"/><path d="M345.289 1011.747a5 5 0 0 1-4.867-6.163c4.156-17.389 10.273-33.324 15.672-47.385 6.303-16.417 11.745-30.595 13.147-43.679 1.271-11.865.479-22.789-.288-33.354-.879-12.108-1.709-23.544.325-36.037 3.746-23.017 60.886-203.145 63.316-210.801a5 5 0 0 1 9.531 3.025l-62.978 209.382c-1.846 11.333-1.057 22.201-.222 33.706.799 11.005 1.624 22.385.258 35.144-1.541 14.383-7.475 29.836-13.756 46.198-5.545 14.443-11.278 29.379-15.28 46.125a5.003 5.003 0 0 1-4.859 3.839z" class="H"/><path d="M410.813 267.028c32.595 102-21.815 291.86-67.819 376.871-19.229 35.535 21.018 34.836 34.312-.793S478.892 401.35 439.64 263.619c-1.819-4.401-29.967-2.172-28.828 3.408z" fill="#8f969e"/><path d="M316.33 810.24c-8.172 0-13.926-5.422-17.277-10.764-4.695 2.549-9.02 2.973-12.904 1.252-3.943-1.746-6.425-5.35-7.985-9.133-2.386 2.196-5.345 3.713-8.874 3.291-5.03-.592-8.851-5.084-11.675-10.547-1.112 1.815-2.528 3.494-4.329 4.891-5.707 4.428-13.558 4.823-23.335 1.177-10.244-3.821-15.905-15.359-16.473-33.466-6.928 5.443-14.63 9.896-22.718 12.592a5 5 0 1 1-3.162-9.486c9.521-3.174 18.658-9.359 26.329-16.733.819-9.079 2.625-18.643 5.214-27.353 3.973-13.369 8.559-21.073 13.631-22.9 3.142-1.13 6.376-.188 8.647 2.527 2.663 3.182 5.201 9.224 2.166 19.937-2.849 10.054-10.099 21.95-20.003 32.253-.273 4.715-.235 9.42.223 13.908.763 7.472 3.054 16.895 9.64 19.351 4.341 1.62 10.245 2.983 13.711.292 4.483-3.479 4.591-12.744 4.275-15.715a5 5 0 0 1 9.863-1.567c2.288 10.726 6.821 20.102 9.118 20.89.358-.149 2.46-1.277 5.609-7.903a5.001 5.001 0 0 1 9.509 1.889c.245 4.437 2.05 11.507 4.672 12.662 1.443.637 4.296-.617 7.636-3.349a5.003 5.003 0 0 1 7.899 2.259c.41 1.17 4.309 11.563 13.058 9.425a4.999 4.999 0 1 1 2.377 9.712 20.347 20.347 0 0 1-4.841.606zm-81.605-106.071c-2.663 3.954-6.125 13.327-8.515 24.548 3.652-5.462 6.345-10.951 7.752-15.919.984-3.474 1.235-6.503.763-8.629z" class="H"/><g class="C"><path d="M171.92 653.094c43.023 32.167 120.493 11.745 161.383-2.175s113.098-30.885 138.328-34.799 6.552-112.526-21.315-104.398c-73.079 21.315-169.6 6.266-223.152 27.405-82.649 32.625-80.603 95.008-55.244 113.968z"/><path d="M460.109 509.132c14.311-15.209 23.697-32.127 29.768-36.234 8.232-5.568 49.014-9.906 61.473-14.032 18.489-6.122 28.801 15.276 8.347 23.511-10.742 4.325-27.253 5.886-35.274 11.108-4.717 3.071-2.471 8.941-2.471 8.941-6.721 19.462-59.093 30.938-61.843 6.705z"/></g><path d="M513.473 469.657s10.002-4.983 66.405-3.073c33.042 1.119 45.562 4.758 45.562 4.758s-.494 10.923-8.937 14.448-72.929 12.424-80.961 8.355-21.896-18.439-22.069-24.488z" class="G"/><g class="N"><path d="m613.877 574.976-91.967-1.385-10.361-150.97 116.834 1.759z"/><ellipse cx="567.894" cy="574.283" rx="12.04" ry="45.989" transform="matrix(.015044 -.999887 .999887 .015044 -14.873 1133.468)"/></g><g class="G"><ellipse cx="570.012" cy="433.534" rx="16.742" ry="63.951" transform="matrix(.015044 -.999887 .999887 .015044 127.947 996.955)"/><path d="m506.321 415.831 127.887 1.925-.252 16.74-127.887-1.925z"/></g><ellipse cx="570.264" cy="416.793" rx="16.742" ry="63.951" transform="matrix(.015044 -.999887 .999887 .015044 144.934 980.719)" class="J"/><path d="M523.195 419.658c-1.016-1.036-1.47-2.219-1.45-3.596.065-4.273 4.659-6.551 16.386-8.126 8.665-1.163 20.133-1.703 32.289-1.52s23.602 1.068 32.228 2.491c11.676 1.927 16.199 4.343 16.135 8.615s-4.659 6.551-16.386 8.126c-8.666 1.163-20.133 1.703-32.289 1.52s-23.602-1.068-32.228-2.491c-7.915-1.306-12.545-2.837-14.684-5.02zm84.254-2.305c-6.327-1.579-18.824-3.328-37.14-3.604s-30.86 1.097-37.231 2.485c6.327 1.579 18.825 3.328 37.14 3.604s30.86-1.096 37.231-2.485z" class="G"/><path d="m625.44 471.343-5.655 60.489c-.112 7.407-23.14 13.068-51.442 12.642s-51.149-6.778-51.038-14.185l-3.832-60.632c.987 7.862 25.532 14.505 55.771 14.96s54.973-5.445 56.196-13.274z" class="J"/><g class="C"><path d="M450.316 511.721c26.949-6.142 53.257-21.302 65.031-13.623 5.997 3.911 11.901 9.861 30.942 8.501s18.361 105.406 0 108.127-52.07 4.148-74.658 1.394-21.315-104.398-21.315-104.398z"/><path d="M546.288 614.725c19.259-2.375 36.388-4.656 44.036-9.336 9.593-5.871 21.733-14.223 28.563-22.191 9.956-11.615.639-26.753-12.304-18.456s-27.545 15.266-27.545 15.266l-31.079 5.461-1.67 29.257z"/><path d="M546.288 589.57c9.321-1.099 40.661-5.713 46.307-7.251s28.613-18.322 34.648-23.29c10.986-9.044 5.266-27.464-10.992-19.994-10.988 5.048-29.654 15.16-29.654 15.16l-40.308 4.834v30.54z"/><path d="M546.288 562.36c11.518-1.134 38.058-2.888 47.562-5.57 10.755-3.034 30.663-16.1 37.779-21.93 14.281-11.698 6.591-32.208-6.811-23.574s-33.096 16.282-33.096 16.282l-45.435 6.853v27.939z"/><path d="M546.288 506.599c20.716.25 40.125-.963 44.573-2.176s26.233-11.098 36.773-19.439c11.003-8.708 25.093 6.095 10.699 20.274-16.752 16.502-36.584 25.044-43.848 27.066s-48.198 6.47-48.198 6.47V506.6z"/></g><path d="M546.283 543.794a4.999 4.999 0 0 1-.387-9.984c15.479-1.218 40.724-3.865 46.827-6.164 6.961-2.623 30.259-17.222 38.647-22.625a5.001 5.001 0 0 1 5.416 8.407c-3.179 2.047-31.32 20.103-40.538 23.576-9.379 3.534-45.482 6.454-49.568 6.775a4.825 4.825 0 0 1-.397.016zm.001 23.567a5 5 0 0 1-.348-9.987c16.551-1.174 41.8-3.578 46.112-5.246 5.364-2.076 26.197-14.459 33.771-19.056a5 5 0 0 1 6.868 1.681 4.998 4.998 0 0 1-1.681 6.868c-2.864 1.738-28.191 17.063-35.351 19.833-7.287 2.819-42.107 5.404-49.014 5.894-.12.009-.24.013-.358.013zm-.001 27.209a5.001 5.001 0 0 1-.446-9.98c18.777-1.701 40.539-4.675 44.453-6.708 6.771-3.516 26.504-17.131 26.702-17.269a5 5 0 0 1 5.684 8.229c-.832.574-20.452 14.111-27.776 17.915-7.617 3.956-41.455 7.186-48.16 7.792a5.024 5.024 0 0 1-.457.021z" class="E"/><g class="C"><path d="M676.77 698.068c90.926 11.964 206.976-126.818 251.841-162.276 31.224-24.678-43.092-102.221-77.168-71.021-56.829 52.033-144.166 66.4-159.719 101.095s-56.598 126.722-14.955 132.202z"/><path d="M851.444 464.771c26.919-22.133 91.365-55.971 112.461-66.4 13.651-6.748 52.641 84.944 35.294 94.515s-54.541 28.917-70.587 42.906-77.168-71.021-77.168-71.021z"/><path d="M963.905 398.371c14.533-7.352 44.172-24.844 44.172-24.844l25.752-27.696c14.502-15.122 33.498.486 22.808 16.52s-26.696 31.71-33.984 36.02l-45.778 27.434zm-104.283 60.124c4.289-18.138 6.858-46.027 12.729-51.898s45.364-38.606 52.475-46.237c15.045-16.146 32.484-.498 20.183 17.614-12.066 17.766-28.29 36.081-28.29 36.081 6.348 46.848-15.378 63.732-57.098 44.44z"/><path d="M974.8 421.416c7.55-4.784 42.5-25.305 46.624-29.949s23.414-28.994 29.504-37.848c11.421-16.603 36.484-2.644 25.063 15.756s-29.822 42.829-35.849 46.953-50.76 30.456-50.76 30.456z"/></g><path d="M974.805 426.416a5 5 0 0 1-2.707-9.207l45.768-29.398c1.943-2.84 8.47-12.283 15.648-21.633 17.127-22.307 22.483-24.244 26.16-24.309 2.716-.037 5.039 2.149 5.088 4.911a4.999 4.999 0 0 1-4.54 5.067c-4.885 1.921-21.778 23.365-34.655 42.42a5.017 5.017 0 0 1-1.44 1.408l-46.624 29.948a4.975 4.975 0 0 1-2.697.793zm85.051-74.55h-.004z" class="E"/><path d="M984.306 442.025c9.835-4.759 49.491-25.697 49.491-25.697s10.596-21.052 15.228-31.725c7.297-16.814 33.946-17.449 25.697 9.2s-16.18 43.463-21.89 48.222-57.422 27.284-57.422 27.284z" class="C"/><path d="M984.309 447.026a5.001 5.001 0 0 1-2.307-9.439l48.052-24.95c2.575-5.146 11.294-22.661 14.361-29.969 2.938-7.006 9.813-12.871 17.103-14.595 5.327-1.261 10.357-.157 14.161 3.108a5 5 0 1 1-6.512 7.589c-1.353-1.159-3.149-1.485-5.348-.965-4.126.976-8.504 4.73-10.184 8.732-3.729 8.89-14.899 31.098-15.373 32.039a4.998 4.998 0 0 1-2.162 2.189l-49.491 25.697a4.978 4.978 0 0 1-2.3.563z" class="E"/><path d="M990.016 462.012l21.818-11.328 11.616-26.478c10.03-23.106 36.313-18.664 28.209 7.081-4.75 15.092-12.956 30.37-15.545 36.047-3.817 8.368-36.916 25.552-36.916 25.552z" class="C"/><path d="M990.02 467.013a5.001 5.001 0 0 1-2.307-9.439l20.32-10.551c1.623-3.468 5.862-12.688 10.79-24.714 6.575-16.042 19.243-21.064 28.352-17.736 8.17 2.985 14.196 12.877 9.244 28.247-2.497 7.749-5.55 14.802-5.678 15.099a5.001 5.001 0 0 1-9.174-3.982c.03-.068 2.991-6.917 5.334-14.184 2.914-9.043.514-14.445-3.158-15.787-4.502-1.645-11.532 2.046-15.666 12.136-6.402 15.624-11.521 26.301-11.736 26.748a5.003 5.003 0 0 1-2.203 2.271l-21.817 11.329a4.975 4.975 0 0 1-2.3.563zm-87.514 1.404a5 5 0 0 1-2.87-9.098c13.446-9.4 13.189-23.704 13.003-34.148l-.035-2.293a5 5 0 0 1 4.955-5.045h.046a5 5 0 0 1 4.999 4.955l.033 2.203c.201 11.248.539 30.072-17.271 42.523a4.977 4.977 0 0 1-2.861.903z" class="E"/><path d="M564.826 11.428c-31.122-21.066-73.231-12.429-112.76 21.139-14.828 12.592-12.62 27.157-12.62 27.157-13.733 22.098-36.635 12.059-33.606 33.618-13.068 0-30.697 28.009-16.833 44.637-15.315 15.141-21.333 44.549-.187 56.428 2.99 7.622-7.164 9.061-11.743 19.7-2.88 6.692-1.934 16.288 15.422 13.427-13.522-7.177-.354-22.104 6.539-18.181 10.616 6.04-1.435 25.91 19.604 30.006 19.246 3.747 24.005-9.202 24.005-9.202s21.154 21.993 50.623 7.412c16.956 21.112 61.232 25.454 87.711 14.492 23.489 16.656 60.734 5.478 74.4-19.078 0 0 16.557 4.441 24.704-6.692 8.518-11.642 1.582-27.001 1.582-27.001s10.888-17.123 0-33.844c-21.328-32.755-5.36-43.529-12.321-80.787-4.089-21.888-20.806-43.814-37.97-59.464-32.745-29.857-66.549-13.767-66.549-13.767z" fill="#4f2000"/><g class="C"><rect height="188.279" rx="48.405" transform="matrix(.98851 .151157 -.151157 .98851 40.854 -76.681)" width="102.786" x="473.433" y="136.255"/><path d="M646.224 66.991c9.793 25.879-.884 49.368 3.116 69.322 3.305 16.486 6.143 34.499 0 52.186-6.776 19.509-32.828 49.076-64.648 49.07-24.234-.005-76.607-8.072-96.079-47.017s-24.65-95.521 12.737-133.687 124.925-42.593 144.875 10.126z"/></g><g fill="#4f2000"><path d="M479.035 144.216c11.332 21.554 17.18 11.337 17.361-2.765.193-15.01-8.894-47.513 27.76-75.806 26.105-20.151 53.385-22.422 67.265-9.609 20.73-13.565 46.931-8.128 56.865 17.478 4.673-42.703-38.684-83.15-93.46-62.084 0 0-77.754 21.49-86.868 70.765-9.955 53.822 11.077 62.023 11.077 62.023z"/><path d="M561.071 43.321c-28.9 13.203-34.43 35.684-29.974 51.15 7.97 27.665-.368 45.914-11.211 48.956-12.544 3.52-19.482-5.308-15.482-15.482-1.033 7.206 12.927 12.485 13.734-.132.796-12.447-19.054-46.141-6.26-62.705 22.593-29.25 49.193-21.789 49.193-21.789z"/></g><path d="M495.711 140.702c-11.74-21.378-48.499-13.283-40.685 17.343 6.837 26.795 33.559 30.163 40.685 23.631s8.356-25.758 0-40.974z" class="C"/><path d="M623.596 96.334c-8.393 3.957-11.509-9.823-6.436-13.485 8.32-6.007 32.443-3.211 38.024 5.814s.811 13.588-2.821 10.584-19.61-7.23-28.767-2.913zm-39.139-14.481c7.566 3.88 4.85 18.527-4.268 15.161-7.749-2.861-28.517-5.044-36.471 1.692-5.476 4.637-8.148-3.304-4.074-8.348 9.765-12.09 35.81-13.122 44.812-8.506z" class="B"/><g class="E"><path d="M488.215 175.128a5 5 0 0 1-4.989-4.732c-.475-8.873-6.868-17.992-12.52-21.353-2.067-1.229-3.182-1.177-3.346-1.096a5 5 0 0 1-4.299-9.029c3.647-1.736 8.177-1.192 12.755 1.53 7.922 4.71 16.71 16.62 17.396 29.413a5 5 0 0 1-4.997 5.267z"/><path d="M473.273 166.369a5 5 0 0 1-3.441-8.628l8.657-8.21a5 5 0 1 1 6.88 7.256l-8.657 8.21a4.982 4.982 0 0 1-3.439 1.372z"/></g><path d="M556.977 188.525c2.495-.378 9.418 7.299 19.074 11.272 10.604 4.363 17.931 2.919 19.272 5.023 1.465 2.298-12.556 14.248-26.314 9.707-15.231-5.027-16.26-25.361-12.032-26.001z" fill="#fff"/><path d="M591.423 56.735a5 5 0 0 1-4.668-3.208c-6.048-15.736-20.386-34.439-33.003-37.215a5 5 0 0 1 2.148-9.767c18.711 4.117 34.581 28.802 40.188 43.395a4.999 4.999 0 0 1-4.666 6.794z" class="B"/><path d="M575.128 242.199c-21.175 0-52.983-11.739-63.275-19.351a5 5 0 0 1 5.947-8.04c8.049 5.953 37.793 17.391 57.328 17.391a5 5 0 1 1 0 10z" class="E"/><g clip-path="url(#D)"><ellipse cx="561.234" cy="132.691" fill="#fff" rx="23.911" ry="21.533" transform="matrix(.065508 -.997852 .997852 .065508 392.064 684.028)"/><ellipse cx="569.18" cy="129.711" rx="18.018" ry="13.376" transform="matrix(.065508 -.997852 .997852 .065508 402.463 689.172)" class="B"/></g><path d="M637.268 107.205c-10.52-.69-19.708 8.81-20.523 21.221s7.053 23.031 17.572 23.722c6.533.429 12.55-3.075 16.37-8.762l-1.347-7.072c-1.454-7.253-.968-14.976-.231-23.109-3.089-3.462-7.207-5.695-11.841-5.999z" fill="#fff"/><path d="M649.34 136.313c-1.454-7.253-.968-14.975-.231-23.107a19.064 19.064 0 0 0-3.792-3.282 8.419 8.419 0 0 0-2.555-.589c-6.51-.427-12.285 6.796-12.898 16.135s4.168 17.255 10.678 17.682c3.49.229 6.76-1.754 9.145-5.069l-.348-1.77z" class="B"/><path d="M618.895 166.595a4.999 4.999 0 0 1-4.863-6.182c.706-2.906-.037-5.017-1.987-5.646-2.249-.728-5.552.684-7.503 5.485a4.996 4.996 0 0 1-6.515 2.749 5 5 0 0 1-2.749-6.515c4.16-10.237 13.13-13.403 19.839-11.236 5.757 1.858 10.914 8.135 8.632 17.524a5.002 5.002 0 0 1-4.854 3.82z" class="E"/><path d="M681.686 493.774a5 5 0 0 1-5-5l-.021-24.537c-.012-8.509-1.959-21.343-4.021-34.931-1.813-11.946-3.687-24.299-4.503-35.273a5 5 0 0 1 4.615-5.357 4.995 4.995 0 0 1 5.357 4.615c.788 10.593 2.633 22.754 4.417 34.515 2.12 13.968 4.122 27.161 4.135 36.417l.021 24.551a5 5 0 0 1-5 5zM351.13 514.795c-3.616 0-7.326-.288-10.838-.861a5 5 0 0 1-4.13-5.74 4.995 4.995 0 0 1 5.739-4.129c4.575.746 9.691.921 14.148.509l32.179-60.148a5 5 0 0 1 8.819 4.717l-33.404 62.439a5 5 0 0 1-3.659 2.585c-2.765.42-5.775.628-8.854.628z" fill="#002e77"/><path d="M697.49 561.791a5 5 0 0 1-4.215-7.683c5.6-8.807 24.744-19.23 42.733-28.264l.842-.423a5 5 0 0 1 4.492 8.935l-.846.425c-8.388 4.212-33.91 17.03-38.782 24.693a4.996 4.996 0 0 1-4.225 2.318zm-470.322-17.664a5 5 0 0 1-2.152-9.516c15.075-7.171 50.559-11.911 105.465-14.088l1.034-.041c2.747-.106 5.086 2.037 5.196 4.796a5 5 0 0 1-4.796 5.196l-1.038.041c-66.697 2.644-92.046 8.598-101.566 13.126a4.975 4.975 0 0 1-2.144.486z" class="E"/></svg></g><defs ><path id="F" d="M332.848 76.62c-19.716 26.619-33.817 169.013-8.241 184.704 30.753 18.868 122.724 8.077 140.094-5.018s29.802-67.375 26.055-103.184C478.123 32.406 360 39.964 332.849 76.62z"/><path id="G" d="M787.044 1608.957c-43.387-27.903-215.565-10.2-242.159 39.377l16.852 177.162c9.314 98.885 250.52 12.064 244.341-62.168-2.995-35.989-10.206-91.577-19.034-154.372z"/><path id="H" d="M110.546 1491.506c-18.671 44.998-36.819 86.377-51.448 116.521-43.364 89.356 141.918 164.257 180.026 111.695 15.464-21.33 40.251-67.253 67.438-123.891-85.302 10.426-169.254-60.667-196.016-104.324z"/></defs></svg>