<svg xmlns="http://www.w3.org/2000/svg" width="249.504" height="140.544" viewBox="0 0 1974 1112" shape-rendering="geometricPrecision" image-rendering="optimizeQuality" fill-rule="evenodd" xmlns:v="https://vecta.io/nano"><path d="M505 444c-67 0-122-54-122-121s55-121 122-121 121 54 121 121-54 121-121 121z" fill="#c22a32"/><path d="M303 326h45c-1 5-1 9-1 14 0 79 72 144 160 144s160-65 160-144c0-5-1-9-1-14h58c39 0 71 32 71 70v603c0 39-32 71-71 71H303c-38 0-70-32-70-71V396c0-38 32-70 70-70z" fill="#ef7f1a"/><path d="M661 100L541 54c19 26 29 44 33 61C272 105 18 267 1 488-17 720 230 930 551 957c114 10 223-5 316-38-67 12-139 16-214 10-321-26-568-227-550-448 15-187 217-330 474-353 2 16-1 32-6 54l90-82z" fill="#c22a32"/><path d="M643 73c-20 0-37-16-37-36 0-21 17-37 37-37s37 16 37 37c0 20-17 36-37 36z" fill="#ef7f1a"/><path d="M690 623h-18c-5-14-13-28-24-42-12-15-23-24-34-25-4-1-11-1-19-2h-22-52v132h33c10 0 18-1 25-3s13-6 19-11c4-4 7-11 11-20s6-17 7-24h18v142h-18c-1-7-3-16-7-26-5-10-8-17-11-20-5-5-11-9-18-12-7-2-16-3-26-3h-33v112c0 5 1 10 3 14s6 8 12 10c4 2 8 3 15 4l18 3v18H386v-18c5-1 11-1 19-2 7-1 13-2 16-3 5-3 9-6 12-10 2-4 3-9 3-15V584c0-6-1-11-3-15s-6-7-12-10c-5-2-11-3-18-5s-13-3-17-3v-19h304v91zm69-96h-69v-11c3-3 7-6 10-9 4-2 8-4 11-6 4-2 7-4 10-6s5-3 6-5c2-2 3-3 4-5 0-2 1-5 1-7 0-5-2-9-4-12-3-2-6-3-10-3h-4c-1 0-2 0-4 1 1 2 2 4 2 6 1 2 1 4 1 7s-1 5-3 7-5 2-8 2c-4 0-6-1-8-3s-3-4-3-7c0-5 3-10 9-14 6-3 14-5 22-5 10 0 18 1 24 5 7 3 10 9 10 16 0 4-1 8-3 10-1 2-4 5-7 6-3 2-6 3-9 4-4 2-8 3-12 3-4 2-7 3-10 4-4 1-6 2-9 4v1h53v17z" fill="#fefefe"/><path d="M739 254c-33 0-60-27-60-60s27-60 60-60 60 27 60 60-27 60-60 60z" fill="#ef7f1a"/><path d="M969 1072c-11-1-22-1-32-1-11 0-21 0-32 1 4-12 8-22 11-31 4-12 8-26 13-43s10-32 13-46c4-13 7-27 10-39 3-13 7-27 10-43 20 1 39 2 59 2 21 0 42-1 63-2 0 1-1 3-1 3 0 1-1 2-1 4-2 5-4 13-6 23-14-1-30-2-48-2h-7-7l-15 56h7 7c15 0 32-1 49-2-2 5-4 10-5 14l-3 16c-16-1-31-1-46-2h-8-8c-9 31-17 61-23 92zm368-1h-28c-8 0-14 0-19 1 6-16 13-39 21-69 9-29 17-58 24-85 7-26 11-42 12-48 8 1 17 2 26 2 11 0 22-1 34-2 27 0 44 1 52 4s15 7 20 14c4 6 7 14 7 23 0 10-3 20-10 31-2 4-7 9-14 14s-14 9-20 13c-6 3-10 5-13 7l2 7c1 7 7 22 17 45l20 44c-12-1-24-1-36-1s-25 0-37 1c-1-6-3-15-6-26l-9-36-7-20-5 21c-6 19-11 40-15 61-2-1-5-1-8-1h-8zm43-107h5c10 0 18-3 25-9s11-15 14-28c2-5 3-10 3-14 0-6-2-11-5-14-3-2-7-4-13-4-1 0-3 1-7 1h-1s-1 0-1 1l-20 67zm119 38l11-36 6-20 4-15c4-17 10-38 14-61 4 0 9 1 16 1 21 0 37 0 47-1l-11 30c-3 9-6 19-9 31l-5 15-11 42c-2 5-3 12-5 21-1 3-1 5-1 6 0 9 3 16 10 21 6 5 15 8 26 8 5 0 10-1 14-1 8-2 15-5 22-10 6-5 12-12 18-21 5-10 9-21 13-34l9-33 4-14c6-22 11-42 15-61 6 1 12 1 16 1 5 0 11 0 17-1-9 25-16 45-20 61l-4 12-6 22-7 27c-2 8-4 13-5 15-5 11-10 20-18 28s-17 16-29 23c-9 5-20 10-31 13-9 2-19 3-28 3-13 0-26-2-37-7s-20-11-27-20c-7-8-10-16-10-24 0-6 1-13 2-21zm209 69c-7 0-14 0-21 1 3-5 5-10 7-13 1-3 3-6 5-10 1-3 3-7 6-12 7-15 15-30 22-47 8-16 14-30 19-41 4-11 10-24 16-39s11-29 15-40c3 0 7 0 12 1h18c3 0 7-1 10-1 2 9 3 20 5 30l6 34c3 11 6 24 9 37l5 18 1 5 18-24 28-36c8-11 17-22 25-34l20-30c6 1 13 1 19 1 7 0 13 0 21-1-4 15-7 32-10 51l-9 57c-3 19-5 38-7 58 0 2-1 6-1 10 0 5-1 10-1 15s-1 8-1 11c-3-1-6-1-9-1h-7c-22 0-39 0-50 1l9-38c3-13 5-25 7-36 1-3 2-7 3-13 1-5 1-9 2-12 0-2 1-7 2-13-11 13-21 25-30 37-10 11-19 24-29 38l-26 36h-10-12c-1-4-2-10-3-18-2-8-3-14-4-18-5-28-11-53-17-77-2 5-4 8-5 11s-2 6-4 10c-13 31-25 62-34 92h-20z" fill="#c22a32"/><path d="M1279 851c-35-27-115 8-178 78-63 69-86 147-51 174 35 26 115-9 178-78s86-148 51-174z" fill="#ef7f1a"/><path d="M1232 903c-21-15-68 5-105 46-37 40-50 86-29 101 20 16 67-4 104-45s50-86 30-102z" fill="#fefefe"/><path d="M1087 875l146-2-34 36-112-34zm-104-83c0 2-1 3-2 4-1 2-2 2-4 2-1 0-3 0-3-2-1-1-2-2-2-4v-93c0-4 1-6 2-7s3-1 7-1h48c2 0 3 0 4 1s2 2 2 4c0 1-1 2-2 3s-2 1-4 1h-46v19h44c2 0 3 0 4 1s2 2 2 4c0 1-1 2-2 3s-2 1-4 1h-44v64zm55-34c0-12 3-22 10-30 7-7 16-11 26-11 11 0 20 4 27 11 6 8 10 18 10 30s-3 22-10 29c-7 8-16 12-27 12-10 0-19-4-26-12-7-7-10-17-10-29zm36-32c-7 0-14 3-19 9s-7 13-7 23c0 9 2 17 7 23s12 9 19 9c8 0 14-3 19-9s8-14 8-23c0-10-2-17-8-23-5-6-11-9-19-9zm108 60c-4 4-7 7-11 10-5 2-9 3-15 3-9 0-16-3-21-8s-7-13-7-23v-44c0-2 0-3 1-5 1-1 2-1 4-1s3 0 4 1c0 2 1 3 1 5v39c0 10 1 17 5 21 3 4 8 6 15 6 8 0 14-3 18-8 4-6 6-15 6-26v-32c0-2 0-3 1-5 1-1 2-1 4-1 1 0 2 0 3 1 1 2 1 3 1 5v67c0 3 0 4-1 5s-2 2-3 2c-2 0-3-1-4-2s-1-3-1-5v-5zm42 6c0 2 0 3-1 4s-2 2-4 2c-1 0-3-1-3-2-1-1-2-2-2-4v-68c0-2 1-3 2-5 0-1 2-1 3-1 2 0 3 0 4 1 1 2 1 3 1 5v6c4-5 7-8 11-10s9-3 15-3c9 0 16 3 21 8 4 5 7 13 7 23v44c0 2-1 3-1 4-1 1-3 2-4 2-2 0-3-1-4-2s-1-2-1-4v-39c0-10-2-17-5-21s-8-6-15-6c-8 0-14 3-18 8-4 6-6 14-6 26v32zm126-65h-1c-3-1-5-1-6-1-13 0-23 4-30 10-8 6-11 15-11 26 0 8 2 15 7 19 4 5 11 7 20 7h21v-61zm0 70h-13c-9 0-16 0-20-1-5-1-9-3-12-5-5-3-8-7-11-12-2-5-3-11-3-17 0-14 5-25 14-33 10-8 23-12 40-12h3 2v-20c0-2 1-4 2-5s2-1 3-1c2 0 3 0 4 1s1 3 1 5v94c0 2 0 4-2 5-1 1-4 1-8 1zm77-44c-15 1-26 2-33 6-7 3-10 8-10 15 0 6 2 10 6 13 3 3 9 4 16 4 8 0 13-2 16-5 4-3 5-8 5-15v-18zm0 38c-3 3-6 5-10 6s-8 2-14 2c-9 0-16-2-21-7-5-4-8-9-8-17 0-10 5-17 14-22s22-7 39-8v-1-2c0-5-1-9-2-11-2-2-5-4-9-4h-29c-2 0-3 0-4-1-1 0-2-2-2-3s1-3 2-3c1-1 2-2 4-2h26c9 0 15 2 19 6 3 3 5 10 5 19v49c0 2-1 3-1 4-1 1-2 2-4 2-1 0-3-1-4-2s-1-2-1-4v-1zm41-87c0-2 0-4 1-5s2-1 4-1 3 0 4 1c0 1 1 3 1 5v14h17c2 0 4 1 5 1 1 1 1 2 1 4 0 1 0 2-1 3s-3 1-5 1h-17v48c0 5 1 9 2 11 2 2 5 2 9 2h10c2 0 3 1 4 2 1 0 2 2 2 3s-1 2-2 3-2 1-4 1h-8c-9 0-15-1-18-5-3-3-5-10-5-20v-45h-5c-2 0-3 0-4-1s-2-2-2-3c0-2 1-3 2-3 1-1 2-2 4-2h5v-14zm55 2c0 3 0 4-1 6-1 1-2 1-4 1s-3 0-4-1c0-2-1-3-1-6 0-2 1-4 1-5 1-1 2-2 4-2s3 1 4 2 1 3 1 5zm-10 19c0-2 1-4 1-5 1-1 3-2 4-2 2 0 3 1 4 2s1 3 1 5v67c0 2 0 3-1 4s-2 2-4 2c-1 0-3-1-4-2 0-1-1-2-1-4v-67zm27 33c0-12 3-22 10-30 7-7 16-11 26-11 11 0 20 4 27 11 6 8 10 18 10 30s-4 22-10 29c-7 8-16 12-27 12-10 0-19-4-26-12-7-7-10-17-10-29zm36-32c-8 0-14 3-19 9s-7 13-7 23c0 9 2 17 7 23s11 9 19 9 14-3 19-9 8-14 8-23c0-10-3-17-8-23s-11-9-19-9zm63 66c0 2 0 3-1 4s-2 2-3 2c-2 0-3-1-4-2s-1-2-1-4v-68c0-2 0-3 1-5 1-1 2-1 4-1 1 0 2 0 3 1 1 2 1 3 1 5v6c4-5 8-8 12-10s9-3 14-3c9 0 16 3 21 8s7 13 7 23v44c0 2 0 3-1 4s-2 2-4 2c-1 0-3-1-3-2-1-1-2-2-2-4v-39c0-10-1-17-4-21-4-4-9-6-16-6-8 0-14 3-18 8-4 6-6 14-6 26v32z" fill="#c22a32"/></svg>