<svg xmlns="http://www.w3.org/2000/svg" width="223.296" height="43.968" viewBox="0 0 1923 379" shape-rendering="geometricPrecision" image-rendering="optimizeQuality" fill-rule="evenodd" xmlns:v="https://vecta.io/nano"><path d="M355 83s42-61 88-60c31 1 85 4 106-23-7 30-51 47-90 50-51 5-65-1-104 33z" fill="#005aa5"/><path d="M111 376h122v3H111l-1-1 1-2zm0 3c-1 0-2-1-2-2s1-1 2-1v3zM24 199l88 178-2 1-88-177 2-2h0zm-2 2c-1-1 0-2 0-2 1-1 2 0 2 0l-2 2zm-10-17l3-2h0v1h0l1 1h0v1h0 1v1h0l1 1h0v1h0l1 1h0v1l1 1h0v1h1v1h0l1 1h0v1 1h1v1 1h1v1h0l-2 2-1-1h0v-1l-1-1h0v-1h-1v-1-1h-1v-1h0v-1h-1v-1h0l-1-1h0v-1h-1v-1h0v-1h-1v-1h0l-1-1h0v-1h0-1v-1h0zm0 0c0-1 0-2 1-2 0-1 1 0 2 0l-3 2zM2 167v3l1-3v1h1v1l1 1h0v1h1 0l1 1h0l1 1h0v1h1v1h1v1h0l1 1h0v1h1 0v1h1v1h0l1 1h0v1h0 1l-3 2h0v-1h-1 0v-1h-1v-1h0l-1-1h0 0l-1-1h0v-1H7v-1h0l-1-1h0 0l-1-1h0l-1-1h0v-1H3v-1H2v-1H1v-1H0l2-3zm-2 3c0-1 0-2 1-3h2l-3 3zm138 0H2v-3h136l1 2-1 1zm0-3c1 0 1 1 1 2 0 0 0 1-1 1v-3zm-2 13h-3 0 0v-1h0 0v-1h0v-1h0 0v-1h0 0l1-1h0 0v-1h0 0v-1h0v-1h1 0v-1h0v-1h0 0l1-1h0v-1h0l3 1v1h0 0l-1 1h0v1h0 0v1h0-1v1h0 0v1h0 0v1h0 0l-1 1h0 0v1h0 0 0v1h0 0v1h0 0zm1 9l-3 1h0 0 0v-1h0 0v-1h0 0 0v-1h0 0l-1-1h0 0v-1h0 0v-1h0 0v-1h0 0v-1h0 0v-1h0 0v-1h0 3 0v1h0 0v1h0 0 0v1h0 0v1h0 0v1h0 1 0v1h0 0v1h0 0 0v1h0 0 0v1h0 0 0zm6 12l-3 2h0l-1-1h0v-1h0v-1h-1v-1h0v-1h-1 0v-1h0v-1h0-1v-1h0v-1h0 0l-1-1h0 0v-1h0 0v-1h0 0l-1-1h0l3-1h0l1 1h0 0v1h0 0 0v1h0 1v1h0v1h0 0v1h1 0v1h0v1h1v1h0 0v1h1v1h0v1h1 0zm0 0c0 1 0 2-1 3-1 0-2 0-2-1l3-2zm64 137l-67-135 3-2 67 135v2h-3zm3-2c0 1 0 2-1 2-1 1-2 0-2 0l3-2zm92-167l-92 169-3-2 92-168 3 1h0zm-3-1c0-1 1-2 2-1 1 0 1 1 1 2l-3-1zM415 58v3h0l-5 1-6 1-5 1-5 2-5 2-4 2-5 2-5 3-4 3-5 3-4 4-4 4-4 3-4 4-4 4-3 5-4 4-3 4-4 5-3 4-3 5-3 4-2 4-3 5-3 4-2 4-2 4-2 4-2 3-2 4-2 3-1 3-3-1 1-3 2-4 2-3 2-4 2-4 2-4 3-4 2-4 3-4 3-5 3-4 3-5 3-4 3-5 4-4 3-4 4-5 4-4 4-4 4-4 4-4 4-3 5-3 5-4 4-3 5-2 5-2 5-2 5-2 6-1 5-1 6-1h0zM556 1l-3 2 3-1-2 5-2 4-2 4-3 4-3 3-3 3-3 4-3 3-4 2-4 3-4 2-4 2-4 2-5 2-5 2-4 2-5 1-5 2-5 1-5 1-6 1-5 1-5 1h-6l-5 1-6 1h-5l-6 1h-6l-5 1h-6-5v-3h5l6-1h5 6l5-1 6-1h5l6-1 5-1h5l6-1 5-1 5-1 5-2 5-1 5-1 4-2 5-2 4-2 5-2 4-2 4-2 3-2 4-3 3-3 3-3 3-3 3-3 2-4 2-4 2-4 2-4h3zm-3 0c0-1 1-1 2-1s1 1 1 2l-3-1zm-49 122l-1-3h0l5-2 5-3 4-2 5-3 4-4 4-3 3-3 4-4 3-4 3-4 3-4 2-4 2-4 2-4 2-5 2-4 1-4 1-5 1-4 1-4v-5l1-4v-4-4l-1-4v-4l-1-3-1-4-1-3-1-3-1-3-2-2 3-2 1 3 2 3 1 3 1 3 1 4 1 4 1 4v4 4 4 5l-1 4-1 4-1 5-1 4-1 5-2 4-2 5-2 4-2 5-3 4-3 4-3 4-3 4-3 4-4 4-4 3-4 3-5 3-5 3-5 3-5 2h0zm-156 49l-3-2h0l3-6 4-5 3-5 4-4 4-3 3-4 4-2 4-2 4-2 4-2 4-1 4-1h5 4l5-1h4 5 5l5 1h5 5 6 5l6-1h6l6-1 7-1 6-1 7-2 7-2 7-2 7-3 1 3-7 3-8 2-7 2-6 2-7 1-6 1-7 1-6 1h-5-6-6-5-5-5-5-5-4-5-4l-4 1h-4l-4 1-4 2-4 1-3 3-4 2-3 3-4 3-3 4-3 5-4 5-3 6h0zm0 0c-1 0-2 1-2 0-1 0-1-1-1-2l3 2zM232 377l113-207 3 2-114 206-1 1-1-2zm2 1c0 1-1 1-2 1-1-1-1-2 0-2l2 1zm256-194l-3-1h0l1-1v-1h0v-1h0l1-1h0v-1h0l1-1h0v-1h0l1-1h0v-1h1 0v-1h1v-1h0l1-1h0v-1h1 0v-1h1v-1h1v-1l2 3h0-1v1h0l-1 1h0 0l-1 1h0v1h-1v1h0 0l-1 1h0v1h-1v1h0 0l-1 1h0v1h0v1h-1v1h0v1h0l-1 1h0zm-3 16h-3 0v-1h0v-1-1h0v-1h0v-1h0l1-1h0v-1h0v-1h0v-1h0v-1-1h0l1-1h0v-1h0v-1h0v-1h1v-1h0v-1h0l3 1h0v1h0v1h-1v1h0v1h0v1h0v1h-1v1h0v1h0v1h0v1h0v1h0v1h0l-1 1h0v1h0v1h0v1h0zm-3 146V200h3v146h0-3zm6 16l-3 2h0v-1h0v-1h-1v-1h0v-1h0v-1h0l-1-1h0v-1h0v-1-1h0v-1h0v-1h0l-1-1h0v-1-1h0v-1h0v-1h0v-1-1h3v1h0v1 1h0v1h1v1h0v1h0v1h0v1h0v1h0v1h0v1h1v1h0v1h0v1h0v1h1v1h0 0 0zm0 0c0 1 0 2-1 3-1 0-2-1-2-1l3-2zm8 17v-3l-1 2h-1 0v-1h-1v-1h-1v-1h0l-1-1h0v-1h-1 0v-1h-1v-1h0l-1-1h0v-1h0l-1-1h0v-1h0-1v-1h0v-1h0l-1-1h0l3-2v1h0l1 1h0v1h0v1h1 0v1h0l1 1h0v1h0 1v1h0l1 1h0v1h1 0v1h1v1h0 1v1h0l1 1h0l-1 3zm1-3c1 1 1 2 0 2 0 1-1 1-2 0l2-2zm-136 0h135v3H363l-1-3h1zm0 3c-1 0-2-1-2-2s1-1 2-1v3zm8-17l3 1h0l-1 1h0v1h0l-1 1h0v1h0v1l-1 1h0 0l-1 1h0v1h0l-1 1h0v1h-1v1h0l-1 1h0v1h-1 0v1h-1v1h-1 0l-2-2h0v-1h1 0l1-1h0v-1h1 0v-1h0l1-1h0 0l1-1h0v-1h0l1-1h0v-1h0 1v-1h0v-1h1v-1h0v-1h0l1-1h0zm3-16h3 0v1h0v1h0v1h0v1 1h-1v1h0v1h0v1h0v1h0v1h0l-1 1h0v1 1h0v1h0l-1 1h0v1h0v1h0l-3-1h0v-1h0v-1h0l1-1h0v-1h0v-1h0v-1h0l1-1h0v-1h0v-1h0v-1h0v-1h0v-1h0v-1h0v-1h1v-1h0v-1h0zm3-146v146h-3V200h0 3zm-6-17l3-1h0v1h0v1h0l1 1h0v1h0v1h0v1h1v1h0v1h0v1 1h0v1h0v1h0l1 1h0v1 1h0v1h0v1 1h-3v-1-1h0l-1-1h0v-1h0v-1h0v-1h0v-1-1h0v-1h0v-1h0v-1h-1v-1h0 0v-1h0v-1h0l-1-1h0v-1h0v-1h0zm-8-16v3l1-3v1h1v1h1v1h0l1 1h0 1v1h0l1 1h0v1h1v1h0v1h1v1h0 1v1h0v1h1v1h0v1h0l1 1h0l-3 1h0-1v-1h0v-1h0l-1-1h0 0v-1h0l-1-1h0v-1h-1v-1h0 0l-1-1h0v-1h-1 0v-1h-1v-1h0l-1-1h0 0l-1-1h0l1-3zm-1 3c-1-1-1-2 0-3h2l-2 3zm136 0H363v-3h135l1 3h-1zm0-3c1 0 2 1 2 2 0 0-1 1-2 1v-3zm290 39l1-3h0 1 0 1l1 1h1 0 1 1 0l1 1h1 0 1 1 1v1h1 1 0l1 1h1 0 1 1v1h1 0l1 1h1 0 1l1 1-2 3v-1h-1-1 0l-1-1h0-1l-1-1h0-1 0-1l-1-1h0-1-1 0l-1-1h-1 0-1-1 0l-1-1h-1 0-1-1 0-1l-1-1h-1 0zm0 0s-1-1-1-2c0 0 1-1 2-1l-1 3zm-25-1v-4h0 1 0 1 1 1 1 1 1l1 1h0 1 1 1 1 1 0 1 1 1 1 1 0 1 1 1v1h1 1 1 0 1 1l-1 3h0-1-1 0-1-1-1 0-1l-1-1h-1-1 0-1-1-1-1 0-1-1-1-1-1 0-1-1-1-1-1-1 0-1 0zm-101-4h101v4H662h0v-4zm-14 6l-1-3h0 0v-1h1 0 1 0 0 1 0l1-1h0 1 0 0 1 0 1 0 1 0 1 0 1 0l1-1h1 0 1 0 1 0 1v4h-1 0-1 0-1 0-1 0-1 0-1 0-1 0-1 0-1 0 0-1v1h-1 0 0-1 0 0-1 0 0l-1 1h0 0zm-4 7h-3 0 0v-1h0v-1h0v-1h0 0v-1h0v-1h1 0v-1h0 0v-1h1 0v-1h0 1 0v-1h0 1 0v-1h1 0 0 1l1 3h0 0-1 0 0 0l-1 1h0 0 0 0 0l-1 1h0 0 0v1h0 0 0-1v1h0 0v1h0 0v1h0 0v1h0 0zm-3 7v-7h3v7h0-3zm7 9l-1 3h0-1 0 0l-1-1h0 0-1v-1h0-1v-1h0 0v-1h-1 0v-1h0v-1h0-1v-1h0v-1h0v-1h0v-1h0v-1h0v-1h3v1h0v1h0 0v1h0v1h0 0v1h1 0v1h0 0v1h0 0 1 0v1h0 0 0 1v1h0 0 0 1 0 0zm18 2v3h0-1-1-1-1-1 0-1-1 0-1-1 0-1-1 0-1-1 0-1v-1h-1 0-1 0-1 0-1 0 0l-1-1h0 0l1-3h0 0 1v1h0 1 0 0 1 0 1 0 1 0 1v1h1 1 0 1 0 1 1 0 1 1 1 0 1 1 1 1 0zm71 3h-71v-3h71 0v3zm59 6l-1 3h0l-1-1h-2l-1-1h-1l-2-1h-1l-1-1h-2-1l-2-1h-1-2l-2-1h-1-2l-2-1h-2-2-2-1l-2-1h-2-2-3-2-2-2l-2-1h-3-2-2-3v-3h3 2 2 3 2 2 2l3 1h2 2 2 2 2l2 1h2 2 1l2 1h2 2l1 1h2l1 1h2 2l1 1h1l2 1h1l2 1h1l1 1h0zm0 0c1 0 1 1 1 2s-1 1-2 1l1-3zm20 36h-3 0v-1-2-1-2-1l-1-2v-1-2-1l-1-1v-1-1l-1-2v-1l-1-1v-1l-1-1-1-1v-1l-1-1-1-1h-1v-1l-1-1-1-1-1-1h-1l-1-1-1-1h-1l-1-1h-1l1-3h1l2 1 1 1h1l1 1 1 1 1 1h1l1 1 1 1 1 1v1l1 1 1 1 1 1v2l1 1v1l1 1v1l1 2v1l1 1v2 1l1 2v1 2 1 2 2 1h0zm-3 57v-57h3v57h0-3zm-18 35l-2-3h0 2l1-1h1l1-1 1-1h1l1-1 1-1 1-1 1-1h1v-1l1-1 1-1 1-1v-1l1-1v-1l1-1v-1l1-1v-2l1-1v-1-1-2l1-1v-1-2-1-1-2h3v2 1 2 1 2 1l-1 1v2 1l-1 1v2l-1 1v1l-1 1v2l-1 1-1 1-1 1v1l-1 1-1 1-1 1-1 1-1 1h-1l-1 1-1 1-1 1h-2l-1 1-1 1h-1 0zm-58 10v-3h0 2 3 2 2l2-1h2 2 2 2 2 2l2-1h2 2 1l2-1h2 2l1-1h2 2l1-1h2l1-1h2 1l2-1h1l1-1h2l1-1 1-1 2 3-2 1-1 1h-2l-1 1h-1l-2 1h-1l-2 1h-2-1l-2 1h-1l-2 1h-2-2l-1 1h-2-2-2l-2 1h-2-2-2-2-2l-2 1h-2-2-2-2-2-3 0zm-193-3h193v3H544l-2-1 2-2zm0 3c-1 0-2-1-2-2s1-1 2-1v3zm-9-44l11 42-4 1-10-42 2-2 1 1zm-3 1c0-1 1-2 2-2 0 0 1 0 1 1l-3 1zm27 4l-1 3h0 0-1-1-1-1l-1-1h0-1-1-1-1 0l-1-1h-1-1-1 0l-1-1h-1-1 0-1l-1-1h-1-1 0l-1-1h-1-1v-1h-1-1l1-3h1 1l1 1h0 1 1v1h1 1 1v1h1 1 1 0l1 1h1 1 0 1l1 1h1 1 0 1 1 1 1v1h1 1 1 0zm0 0c1 0 1 1 1 2s-1 1-2 1l1-3zm29 1v4h0-1l-1-1h-1-1-1-1-1-1-1-1-1-1-1-1 0-1-1-1-1-1-1-1-1-1-1 0l-1-1h-1-1-1-1-1l1-3h1 0 1 1 1 1 1 1v1h1 1 1 1 1 1 1 1 1 1 0 1 1 1 1 1 1 1 1 1 1 1 1 0zm9 4h-9v-4h9 0v4zm0-4c1 0 1 1 1 2s0 2-1 2v-4zm85 4h-85v-4h85 0v4zm0-4c1 0 1 1 1 2s0 2-1 2v-4zm8 4h-8v-4h8 0v4zm12-6l1 3h0 0 0 0l-1 1h0 0-1 0 0-1 0v1h-1 0-1 0 0-1 0-1 0-1 0-1 0-1 0-1 0-1v1h-1v-4h1 0 1 0 1 0 1 0 1 0 0 1 0 1 0 0 1 0v-1h1 0 0 1 0 0 0 1 0 0v-1h0 1 0zm2-7h3 0 0v1h0v1h0 0v1h0 0v1h0 0v1h0 0l-1 1h0 0v1h0 0v1h-1 0 0v1h0-1 0 0v1h-1l-1-3h0 0 0 0 0v-1h1 0 0 0 0v-1h0 0 0 0l1-1h0 0 0v-1h0 0 0v-1h0 0v-1h0 0v-1h0 0zm3-7v7h-3v-7h0 3zm-5-8l3-3h0v1h0 0 0v1h1 0v1h0 0 0v1h0 1v1h0 0v1h0 0v1h0v1h0 0v1h0v1h0 0v1h0-3 0 0v-1h0v-1h0 0v-1h0 0v-1h0 0v-1h0 0 0v-1h-1 0 0v-1h0 0 0 0v-1h0-1 0 0 0 0zm-9-3v-3h0 0 1 0 1 0 1 0 1 0 1 0 0 1v1h1 0 0 1 0 0 1 0v1h1 0 0 0l1 1h0 0 0 1l-3 3v-1h0 0 0 0-1 0 0 0v-1h-1 0 0 0-1 0 0-1 0 0l-1-1h0 0-1 0-1 0 0-1 0-1 0 0zm-83-3h83v3h-83 0v-3zm-59-5l1-3h0 2l1 1h1l1 1h2 1l1 1h2l1 1h2 2l1 1h2 2l1 1h2 2 2l2 1h2 2 2 2 2l2 1h2 3 2 2 3 2 2v3h-2-2-3-2-3-2-2-2l-2-1h-3-2-2-2-2l-1-1h-2-2-2l-2-1h-1-2l-2-1h-1l-2-1h-1-2l-1-1h-2l-1-1h-1l-2-1h-1 0zm0 0c-1-1-1-2-1-2 1-1 2-2 2-1l-1 3zm-20-37h4 0v2 2 1 2 1 1 2l1 1v1 2l1 1v1l1 1v1l1 2v1l1 1v1l1 1h1v1l1 1 1 1 1 1h1v1l1 1 1 1h1l1 1h1l1 1-1 3-1-1h-1l-1-1-1-1h-1l-2-1-1-1v-1l-1-1-1-1-1-1-1-1-1-1v-1l-1-1-1-1v-1l-1-1v-1l-1-2v-1l-1-1v-2-1l-1-2v-1-2-1-2-1l-1-2v-2h0zm4-57v57h-4v-57h0 4zm18-35l2 3h0-2l-1 1h-1l-1 1-1 1-1 1h-1l-1 1-1 1-1 1-1 1h-1v1l-1 1-1 1v1l-1 1-1 1v1l-1 2v1 1l-1 1v1 1l-1 2v1 1 2 1 2 1h-4v-1l1-2v-2-1-1-2-1l1-2v-1l1-1v-2l1-1v-1l1-1v-1l1-1 1-2v-1l1-1 1-1 1-1 1-1 1-1h1l1-1 1-1 1-1 1-1h1l2-1 1-1h1 0zm57-10v3h0-2-2-2-2-2l-2 1h-2-2-2-2-2l-2 1h-2-2-1l-2 1h-2-2l-1 1h-2-1l-2 1h-2l-1 1h-2-1l-2 1h-1l-1 1h-2l-1 1-1 1-2-3 2-1 1-1h2l1-1h1l2-1h1l2-1h2 1l2-1h1l2-1h2 2l1-1h2 2 2l2-1h2 2 2 2l2-1h2 2 2 2 2 2 2 0zm189 3H610v-3h189l2 1-2 2zm0-3c1 0 2 1 2 2 0 0-1 1-2 1v-3zm9 45l-10-43 3-1 10 43-2 2-1-1zm3-1c1 1 0 2-1 2s-1-1-2-1l3-1zm172-27l-3-1h0l1-1h0v-1-1h0l1-1h0v-1h0l1-1h0v-1h0l1-1h0v-1h1 0v-1h1v-1h0l1-1h0v-1h1 0v-1h1v-1h0l1-1 2 3h0-1v1h0l-1 1h0 0l-1 1h0v1h-1v1h0 0l-1 1h0v1h-1v1h0 0l-1 1h0v1h0l-1 1h0v1h0v1h-1v1h0zm-3 16h-3 0v-1h0v-1-1h0v-1h0v-1h0v-1h1v-1h0v-1h0v-1h0v-1-1h0v-1h1v-1h0v-1h0v-1h1v-1h0v-1h0l3 1h0v1h0v1h-1v1h0v1h0v1h0l-1 1h0v1h0v1h0v1h0v1h0v1h0v1h-1v1h0v1h0v1h0v1h0zm-3 118V200h3v118h0-3zm8 18l-2 3h0l-1-1h0v-1h-1 0v-1h-1v-1h0v-1h-1v-1-1h0v-1h-1v-1-1h0v-1-1-1h0l-1-1v-1-1h0v-1-1-1-1-1h3v1 1 1 1h0v1l1 1v1h0v1 1h0v1 1h0l1 1h0v1h0v1h0l1 1h0v1h0 0l1 1h0v1h0 1 0 0zm23 5v4h0l-2-1h-1-1-1-1-1-1-1-1-1-1-1-1l-1-1h0-1-1-1 0l-1-1h-1 0-1l-1-1h0-1v-1h-1 0l-1-1h0 0l2-3v1h0 1 0l1 1h0 0 1v1h1 0 1 1v1h1 1 0 1 1l1 1h1 0 1 1 1 1 1 1 1 1 1 2 0zm90 4h-90v-4h90 0v4zm22-9l2 3h0 0-1v1h0-1v1h-1-1v1h-1 0-1l-1 1h0-1-1-1 0l-1 1h-1-1-1-1-1-1-1-1-1-1-1-1l-1 1v-4h1 1 1 1 1 1 1 1 1 1 1 0l1-1h1 1 0 1 1v-1h1 1 0 1v-1h1 0 0l1-1h0 0 1v-1h0zm5-18h3 0v1 1 1 1 1h0l-1 1v1 1h0v1 1 1h0v1l-1 1h0v1h0v1l-1 1h0v1h0l-1 1h0v1h0-1v1h0l-1 1-2-3h0 0 1v-1h0v-1h1 0v-1h0v-1h1v-1h0v-1h0v-1h1v-1-1h0v-1-1h0v-1-1-1h0v-1l1-1v-1-1h0zm3-118v118h-3V200h0 3zm-6-17l3-1h0v1h0v1h0l1 1h0v1h0v1h0v1h1v1h0v1 1h0v1h0v1h0v1h0l1 1v1h0v1h0v1h0v1 1h-3v-1-1h0l-1-1h0v-1h0v-1h0v-1h0v-1h0v-1h0v-1h0v-1h0l-1-1h0v-1h0v-1h0v-1h0l-1-1h0v-1h0v-1h0zm-8-16v3l1-3v1h1v1h1v1h0 1v1h1v1h0l1 1h0v1h1v1h0 0l1 1h0v1h1v1h0v1h1v1h0v1h0l1 1h0l-3 1h0l-1-1h0 0v-1h0l-1-1h0v-1h0v-1h-1 0v-1h-1v-1h0v-1h-1 0v-1h-1v-1h0-1v-1h0l-1-1h0 0l-1-1h0l1-3zm-1 3c-1-1-1-2 0-3h2l-2 3zm73 0h-72v-3h72l2 3h-2zm0-3c1 0 2 1 2 2 0 0-1 1-2 1v-3zm-7 17l-3-1h0v-1-1h0l1-1h0v-1h0l1-1h0v-1h0l1-1h0v-1h0l1-1h0 0l1-1h0v-1h1v-1h0l1-1h0 0l1-1h0l1-1h0v-1l3 3h-1 0v1h-1v1h0-1v1h0l-1 1h0v1h-1 0v1h-1v1h0v1h-1 0v1h0l-1 1h0v1h0v1h-1v1h0v1h0zm-3 16h-3 0v-1h0v-1-1h0v-1h0v-1h0v-1h0v-1h0v-1h0v-1h1v-1-1h0v-1h0v-1h0l1-1h0v-1h0v-1h0l1-1h0l3 1h0l-1 1h0v1h0v1h0v1h-1v1h0v1h0v1h0v1h-1v1h0v1h0v1h0v1h0v1h0v1h0v1h0v1h0zm-3 118V200h3v118h0-3zm-1 24l-3-1h0 1v-1-1h0v-1h1v-1-1h0v-1-1h0l1-1v-1-1h0v-1-1-1h0v-1-1-1-1h0l1-1v-1-1-1-1-1h0 3 0v1 1 1 1 1 1 1 1h0l-1 1v1 1 1h0v1 1 1h0v1l-1 1v1h0v1 1h0l-1 1v1h0v1 1h-1 0zm0 0c0 1-1 2-2 1 0 0-1-1-1-2l3 1zm-14 19l-2-2h0l1-1h0l1-1h0l1-1h1v-1h1v-1l1-1h0l1-1h0l1-1h0l1-1h0v-1l1-1h0v-1h1v-1h0l1-1h0v-1l1-1h0v-1h0v-1l3 1v1 1h0l-1 1h0v1 1h-1v1 1h-1v1h-1v1 1h-1v1h-1v1h-1v1l-1 1h0l-1 1h-1v1l-1 1h0l-1 1h-1v1h-1 0zm0 0c-1 1-2 1-2 0-1-1-1-2 0-2l2 2zm-26 14l-1-3h0l1-1h1 1l1-1h0 1l1-1h1 1l1-1h0 1l1-1h1 1v-1h1l1-1h1 1v-1h1l1-1h0l1-1h1l1-1h0l1-1h1v-1h1l2 2-1 1h0l-1 1-1 1h-1v1h-1l-1 1h-1v1h-1-1l-1 1h0l-1 1h-1l-1 1h-1-1v1h-1-1l-1 1h-1l-1 1h-1-1 0l-1 1h-1-1l-1 1h0zm-32 4v-3h0 1 1 1 1 1 1l1-1h1 1 1 1 1 1 1 1 1 1l1-1h1 1 1 1 1l1-1h0 1 1l1-1h1 1 1 1l1 3h-1-1-1l-1 1h-1-1-1l-1 1h-1-1-1-1-1l-1 1h-1-1-1-1-1-1-1l-1 1h-1-1-1-1-1-1-1-1-1-1 0zm-157-3h157v3H943h0v-3zm-57-14l2-2h0l1 1 1 1 1 1h1l2 1 1 1 1 1 2 1h1l2 1 1 1h2l1 1 2 1h2l1 1h2l2 1h2 2l2 1h1 2l2 1h2 3 2 2l2 1h2 3 2v3h-2-3-2-2-3l-2-1h-2-2-2l-2-1h-2-2l-2-1h-2l-2-1h-1l-2-1h-2l-2-1-1-1h-2l-2-1-1-1h-2l-1-1-2-1-1-1-1-1-2-1-1-1-1-1-1-1h0zm0 0c-1 0-1-1-1-2 1-1 2-1 3 0l-2 2zm-20-44h4 0v1 2 1 2 2 1l1 2v1 2 1l1 2v1l1 1v2l1 1v1l1 2v1l1 1 1 1v2l1 1 1 1 1 1 1 1 1 2v1l1 1 1 1 2 1 1 1 1 1-2 2-2-1-1-1-1-1-1-1-1-1-1-1-1-2-1-1-1-1v-1l-1-2-1-1-1-1v-2l-1-1-1-1v-2l-1-1v-2l-1-1v-2l-1-1v-2-1l-1-2v-1-2-2-1-2l-1-2v-1h0zm4-118v118h-4V200h0 4zm-6-17l3-1h0v1h0v1h0l1 1h0v1h0v1h0v1h1v1h0v1h0v1 1h0v1h0v1h0v1h1v1 1h0v1h0v1 1h-4v-1-1h0v-1h0v-1h0v-1h0v-1h0v-1-1h0v-1h0v-1h0v-1h-1v-1h0 0v-1h0v-1h0l-1-1h0v-1h0v-1h0zm0 0c-1 0 0-1 1-2 0 0 1 0 2 1l-3 1zm-8-16v3l1-3v1h1v1h1v1h0l1 1h0 0l1 1h0v1h1v1h0l1 1h0v1h1v1h0 0l1 1h0v1h0l1 1h0v1h0l1 1h0l-3 1h0-1v-1h0v-1h0l-1-1h0 0v-1h-1v-1h0v-1h-1v-1h0 0l-1-1h0v-1h-1 0v-1h-1v-1h0l-1-1h0-1v-1h0l1-3zm-1 3c-1-1-1-2 0-3h2l-2 3zm136 0H856v-3h135l1 3h-1zm0-3c1 0 2 1 2 2 0 0-1 1-2 1v-3zm566 187l-102-185 2-1 103 184-3 2h0zm3-2c0 1 0 2-1 2-1 1-2 0-2 0l3-2zm21 27v-3l-1 3-1-1-1-1-1-1h-1l-1-1v-1l-1-1h-1l-1-1-1-1-1-1v-1h-1l-1-1-1-1v-1h-1l-1-1-1-1v-1l-1-1h-1v-1l-1-1v-1h-1l-1-1v-1l-1-1v-1h-1v-1l3-2v1l1 1h0l1 1v1l1 1h0l1 1v1l1 1h1v1l1 1v1h1l1 1 1 1v1h1l1 1 1 1v1h1l1 1 1 1 1 1h0l1 1 1 1 1 1h1l1 1-1 3zm1-3c1 1 1 2 0 2 0 1-1 1-2 1l2-3zm-148 0h147v3h-147l-1-3h1zm0 3c-1 0-2-1-2-2s1-1 2-1v3zm6-16h3 0v1h0v1h0v1h0v1h0l-1 1h0v1h0v1h0l-1 1h0v1h-1v1h0v1h-1v1h0l-1 1h0-1v1h-1v1h0l-1 1-2-3h0l1-1h0 1v-1h0l1-1h0 0l1-1h0v-1h1 0v-1h0v-1h1 0v-1h0v-1h0 0l1-1h0v-1h0 0v-1h0v-1h0zm-8-21l3-2h0v1l1 1h0l1 1v1l1 1h0v1l1 1v1h0l1 1v1 1h1v1 1 1h1v1 1h0v1l1 1h0v1 1 1h0v1 1h0-3 0v-1-1h0v-1h0v-1l-1-1h0v-1-1h0v-1h-1v-1-1h0l-1-1v-1h0v-1l-1-1v-1h0l-1-1v-1h-1v-1l-1-1v-1h0l-1-1h0zm0 0c0-1 0-2 1-2 0-1 1-1 2 0l-3 2zm-11-19v-4l1 1v1h1v1h0v1h1v1h1v1h0l1 1v1h0l1 1h0l1 1v1h0l1 1v1h1v1 1h1v1l1 1h0l1 1v1l1 1h0l1 1-3 2v-1l-1-1h0l-1-1v-1l-1-1h0l-1-1v-1h-1v-1-1h-1v-1l-1-1h0l-1-1h0v-1l-1-1h0v-1h-1v-1l-1-1h0v-1h-1v-1h0v-1h-1l2 1zm-2-1c0-1 0-2 1-2 0-1 1-1 2 0l-3 2zm-118-3h120v4h-120l-1-3 1-1zm0 4s-1-1-1-2 1-2 1-2v4zm-19 26l18-29 3 2-19 28h0l-2-1zm2 1c0 1-1 1-2 1 0-1-1-2 0-2l2 1zm-3 7l-3-2h0 0 0 0 0v-1h0 0 1 0v-1h0 0 0v-1h0 1 0 0v-1h0 0 0l1-1h0 0 0 0v-1h0 1 0 0l2 1v1h0 0 0 0v1h-1 0 0 0v1h0 0 0-1v1h0 0 0v1h0 0 0-1v1h0 0 0 0v1h0 0 0zm-2 6h-3 0 0v-1h0 0 0v-1h0 0 0 0v-1h0 0 0v-1h0 0 0l1-1h0 0 0v-1h0 0 0 0v-1h0 0 1v-1l3 2h-1 0 0v1h0 0 0 0v1h0 0 0 0v1h-1 0 0 0 0v1h0 0 0 0v1h0 0 0 0v1h0 0 0zm1 6l-2 1h0-1 0 0v-1h0 0 0v-1h0 0 0v-1h-1 0 0 0v-1h0 0 0v-1h0 0 0v-1h0 0 0 0v-1h0 0 3 0 0 0v1h0 0 0 0v1h0 0 0 0 0v1h0 0 1 0v1h0 0 0 0v1h0 0 0v1h0 0 0 0zm0 0c1 1 0 2 0 2-1 1-2 0-2-1l2-1zm3 10v-3l-1 2h0 0-1v-1h0 0 0v-1h-1 0 0v-1h0 0 0l-1-1h0 0 0v-1h0 0 0l-1-1h0 0 0v-1h0 0 0v-1l2-1h1v1h0 0 0v1h0 0 0 0l1 1h0 0 0v1h0 0 0 1v1h0 0 0v1h0 1 0 0v1h0 0 0l-1 3zm1-3c1 1 1 2 0 3-1 0-2 0-2-1l2-2zm-83 0h82v3h-82l-1-3h1zm0 3c-1 0-1-1-1-2s0-1 1-1v3zm18-21l2 2h0v1l-1 1h-1v1h-1v1l-1 1h0l-1 1h-1v1l-1 1h0l-1 1h0l-1 1h-1v1l-1 1h0l-1 1h-1v1h-1v1h-1l-1 1h0l-1 1v1h-1l-1 1-2-3h1l1-1h0l1-1v-1h1v-1h1l1-1h0l1-1h0l1-1h1v-1h1v-1l1-1h0l1-1h1v-1l1-1h0l1-1h0l1-1h1v-1l1-1h0l1-1h0zm0 0c0-1 1-1 2 0s1 2 0 2l-2-2zm16-21l3 2h0l-1 1h0l-1 1v1l-1 1h0l-1 1v1h-1v1l-1 1h0l-1 1v1h-1v1l-1 1h0l-1 1v1h-1v1h-1v1l-1 1h-1v1l-1 1h0l-1 1v1h-1l-2-2v-1h1v-1h1l1-1v-1h1v-1l1-1h0l1-1v-1h1v-1h1v-1l1-1h0l1-1v-1h1v-1l1-1h0l1-1v-1h1v-1l1-1h0l1-1v-1h0zm0 0c1 0 2-1 2 0 1 0 1 1 1 2l-3-2zm105-155l-102 157-3-2 103-157h2v2zm-2-2c0-1 1-1 2 0 1 0 1 1 0 2l-2-2zm-11-13v3l1-3 1 1h0 1v1h0 1v1h1 0l1 1h0v1h1 0l1 1h0v1h1 0v1h1v1h0 1v1h1v1h0l1 1h0v1h0l-2 2h0l-1-1h0v-1h-1v-1h0-1v-1h0l-1-1h0v-1h-1 0v-1h-1 0v-1h-1 0l-1-1h0v-1h-1 0l-1-1h0 0-1v-1h-1l1-3zm-1 3v-2c1-1 2-1 2-1l-2 3zm130 0h-129v-3h129l1 1-1 2zm0-3c1 0 2 1 2 2 0 0-1 1-2 1v-3zm-134 119l40-64 3 1-41 65-1 1-1-3zm2 2c0 1-1 1-2 1-1-1-1-2 0-3l2 2zm77 1h-78v-3h78 1l-1 3zm0-3c1 0 1 0 1 1s0 2-1 2v-3zm-36-64l37 64-3 2-37-65v-1h3zm-3 1c0-1 0-2 1-2s2 0 2 1l-3 1zm233 153h317v3h-317l-1-3h1zm0 3s-1-1-1-2 1-1 1-1v3zm8-17l3 1h0v1h0v1h-1v1h0v1h-1v1h0v1h-1v1h0l-1 1h0v1h0l-1 1h0v1h-1v1h0l-1 1h0-1v1h0l-1 1h0 0l-3-2h1v-1h0 1v-1h0l1-1h0 0l1-1h0v-1h1 0v-1h0l1-1h0v-1h1v-1h0 0v-1h1v-1h0v-1h1v-1h0v-1h0zm0 0c0-1 1-1 2-1 1 1 1 1 1 2l-3-1zm3-16h3 0v1h0v1h0v1h0v1 1h0v1h0v1h0v1h0l-1 1h0v1h0v1h0v1 1h0l-1 1h0v1h0v1h0l-1 1h0l-3-1h0l1-1h0v-1h0v-1h0v-1h1v-1h0v-1h0v-1h0v-1h0l1-1h0v-1h0v-1h0v-1h0v-1h0v-1h0v-1h0v-1h0zm3-146v146h-3V200h0 3zm-6-17l3-1h0l1 1h0v1h0v1h0v1h1v1h0v1h0v1h0v1h1v1 1h0v1h0v1h0v1h0v1 1h0v1h0v1 1h-3v-1-1h0v-1h0v-1h0v-1h0v-1h0v-1-1h0l-1-1h0v-1h0v-1h0v-1h0 0v-1h-1v-1h0v-1h0v-1h0l-1-1h0zm0 0s0-1 1-2c1 0 2 0 2 1l-3 1zm-8-16v3l2-3v1h0l1 1h0l1 1h0v1h1 0v1h1v1h0l1 1h0v1h1v1h0l1 1h0 0v1h1v1h0v1h1v1h0v1h0l-3 1h0 0v-1h0l-1-1h0v-1h0 0l-1-1h0v-1h0l-1-1h0v-1h-1 0v-1h0l-1-1h0 0l-1-1h0v-1h-1v-1h-1 0v-1h-1l1-3zm-1 3v-3h3l-3 3zm137 0h-136v-3h136l1 3h-1zm0-3c1 0 2 1 2 2 0 0-1 1-2 1v-3zm-8 16l-3-1h0 0l1-1h0v-1h0v-1h1v-1h0v-1h1v-1h0v-1h1 0v-1h1v-1h0l1-1h0v-1h1v-1h1 0v-1h1v-1h0l1-1 2 3h0l-1 1h0 0l-1 1h0v1h-1 0v1h-1v1h0-1v1h0l-1 1h0v1h0-1v1h0v1h-1v1h0v1h0-1v1h0 0zm0 0c0 1-1 2-2 1-1 0-1-1-1-2l3 1zm-3 17h-3 0v-1-1h0v-1h0v-1h0v-1-1h0l1-1h0v-1h0v-1h0v-1-1h0v-1h0l1-1h0v-1h0v-1h0v-1h1v-1h0v-1l3 1v1h0v1h-1v1h0v1h0v1h0v1h-1v1h0v1h0v1h0v1h0v1h0v1h0v1h-1v1h0v1h0v1 1h0zm-3 143V200h3v143l-1 2-2-2zm3 0c0 1 0 2-1 2s-2-1-2-2h3zm165 2h-166v-4h166 0v4zm19-5l1 3h0-1 0-1 0-1-1 0l-1 1h0-1 0-1-1 0-1-1 0-1 0-1-1 0-1-1 0-1-1-1 0-1l-1 1h0v-4h0 1 1 0 1 1 0 1 1 0 1 1 0 1 1 0 1 0 1 1 0l1-1h0 1 0 1 1 0 1 0 1 0 0zm19-5h-3l2 2h0-1-1v1h-1 0-1v1h-1 0-1 0l-1 1h0-1 0l-1 1h-1 0-1 0-1v1h-1 0-1 0-1-1v1h-1 0l-1-3 1-1h0 1 0 1 0 1 0l1-1h0 1 0 1 0l1-1h0 1 0 1v-1h1 1 0 1v-1h1 0 1v-1h1 0 1l2 1zm-2-1c0-1 1 0 2 0 0 1 0 2-1 3l-1-3zm-10 43l9-42h3l-9 43-2 1-1-2zm3 1c0 1-1 1-2 1s-2-1-1-2l3 1z" fill="#fefefe" fill-rule="nonzero"/><path d="M233 377H111L23 200c-3-7-7-12-10-17-3-4-6-9-11-14h136c-2 4-3 8-3 11 0 4 0 7 1 10s3 7 5 12l67 135 92-169c16-31 56-105 115-108 58-4 123-11 139-58 19 28 6 96-50 120-80 33-122-17-158 49L233 377zm265-208c-4 4-7 9-9 14-2 6-3 11-3 17v146c0 7 1 12 3 17s5 10 9 14H363c4-4 7-9 9-14 2-6 3-11 3-17V200c0-7-1-12-3-17s-5-10-9-14h135zm312 42c-7-3-14-5-21-6-8-1-17-2-26-2H662c-6 0-11 1-15 2-3 2-5 5-5 9v7c0 6 2 9 5 11 3 1 10 2 19 2h71c26 0 46 3 58 8 13 6 20 18 20 35v57c0 16-7 28-21 34s-33 9-57 9H544l-10-42c7 4 16 6 25 6 9 1 18 2 29 2h9 85 8c6 0 10-1 13-2 2-2 3-5 3-9v-7c0-4-1-8-3-9-1-2-5-3-10-3h-83c-26 0-46-3-58-9-13-5-19-17-19-35v-57c0-16 7-28 21-34s33-9 56-9h189l11 42zm181-42c-4 4-7 9-9 14-2 6-3 11-3 17v118c0 10 1 16 5 20 3 3 11 5 24 5h90c12 0 20-2 23-5 3-4 5-10 5-20V200c0-6-1-12-3-17s-5-10-9-14h72c-4 4-7 9-9 14-2 6-3 11-3 17v118c0 9-1 17-3 24-2 6-7 12-14 18s-16 10-26 13-20 4-31 4H943c-25 0-44-5-56-16-13-11-19-25-19-43V200c0-7-1-12-3-17s-5-10-9-14h135zm465 0l102 184c5 8 13 16 23 24h-147c5-4 7-9 7-14 0-6-2-14-8-22-5-8-9-15-12-20h-120l-18 28c-1 3-3 5-4 7s-2 5-2 7 1 4 2 7c1 2 2 5 4 7h-82c7-5 13-11 19-18s11-14 16-21l103-157a34.47 34.47 0 0 0-12-12h129zm-92 53l-41 65h78l-37-65zm548 155h-317c5-4 8-9 10-14 2-6 3-11 3-17V200c0-7-1-12-3-17s-5-10-10-14h136c-4 4-7 9-9 14s-3 11-3 17v143h166c7 0 14-1 20-2 5-1 11-3 16-6l-9 42z" fill="#d12023"/><path d="M593 59c3 0 4 0 5-2 1-3 5-8 10-14 4-6 9-9 9-11 0-3-2-4-4-4s-3 1-5 3c-2 4-4 6-7 10-2 3-5 7-7 9l-3-8c-2-3-3-6-3-8 0-1 1-2 1-2 0-1-2-3-5-3s-4 2-4 3v2c0 2 3 7 5 13 2 4 4 8 4 9 0 3 2 3 4 3h0zm33-44c-3 0-4 3-4 7 0 2 1 3 3 3s5-2 5-6c0-2-2-4-4-4h0zm4 17c0-1-3-3-4-3-5 0-5 2-5 4v2 18 3c0 2 1 3 3 3s6-1 6-3c0-1-1-2-1-3V34s1-1 1-2h0zm31-4c-11 0-24 4-24 12 0 4 3 7 8 7 3 0 7-1 11-2s7-1 9-1c3 0 4 1 4 2 0 5-11 8-19 8-2 0-5-1-6-2 0-1 0-2-2-2-3 0-4 1-4 3 0 4 6 7 12 7 8 0 27-4 27-15 0-5-5-7-10-7-3 0-6 1-11 2-4 1-7 1-9 1s-3 0-3-1c0-4 8-7 16-7 6 0 6 1 7 1 0 0 0 1 2 1s3-1 3-3c0-3-4-4-11-4h0zm30 5c1 0 1-1 1-1 0-3-3-3-4-3-2 0-5 0-5 3 0 1 1 1 1 2v18c0 4 4 8 8 8 7 0 12-3 17-7v2c-1 0-1 1-1 2s1 2 4 2c2 0 5-1 5-3l-1-1V33c0-4-2-4-5-4-2 0-3 1-3 3 0 0 0 1 1 1v14c-5 3-11 7-14 7-2 0-4-2-4-3V33zm61 6c-21 1-30 9-30 15 0 4 4 6 8 6 8 0 15-3 22-8h0v3s-1 1-1 2 1 2 4 2c2 0 5-1 5-3 0 0 0-1-1-1V35c0-4-3-7-9-7-8 0-14 2-19 4-2 0-3 2-3 3 0 2 1 4 3 4s3-2 3-2c4-2 9-4 15-4 2 0 3 1 3 3v3zm0 6c0 3-12 9-19 9-2 0-3 0-3-1 0-3 8-9 22-10v2zm18 9c-1 0-1 1-1 1 0 3 2 4 5 4s4-2 4-3 0-2-1-2V20c1 0 1-1 1-3s-2-3-4-3c-4 0-5 1-5 4 0 1 0 2 1 2v34zm21-39c-2 0-4 3-4 7 0 2 1 3 4 3 2 0 4-2 4-6 0-2-1-4-3-4h-1zm4 17c0-1-2-3-4-3-4 0-4 2-4 4v2 18s-1 1-1 3 2 3 4 3 6-1 6-3c0-1-1-2-1-3V34v-2h0zm8 21c-1 1-2 2-2 4 0 1 1 2 3 2h2 27 2c3 0 4-1 4-5 0-3-1-4-3-4s-3 1-3 3h-20l23-18c2-1 3-2 3-4 0-1-1-2-3-2s-3 0-4 1h-26c-3 0-4 1-4 5 0 2 1 4 3 4s3-2 3-4h18l-23 18zm47-38c-2 0-4 3-4 7 0 2 1 3 4 3 2 0 4-2 4-6 0-2-1-4-4-4h0zm4 17c0-1-2-3-4-3-4 0-5 2-5 4 0 1 1 1 1 2v18s-1 1-1 3 2 3 4 3 5-1 5-3c0-1 0-2-1-3V34c1 0 1-1 1-2h0zm17 10c9-7 14-8 15-8s2 1 2 2v18 2c0 2 1 3 4 3 2 0 4-1 4-3v-2-21c0-2-4-5-7-5-4 0-9 2-18 8v-3c0-1 1-2 1-2 0-2-1-3-4-3-2 0-5 1-5 3 0 1 0 1 1 2v5c-1 3-1 4-1 5s0 2 1 2v10c-1 0-1 1-1 2s2 2 4 2 4-1 4-3v-1-13zm68-9c0-3-2-4-5-4-19 0-32 12-32 24 0 4 3 7 10 7s16-5 20-12v11c0 7-8 9-11 9s-6-1-8-2c0-1-2-2-3-2-2 0-3 2-3 4 0 3 5 5 13 5s19-4 19-13V33zm-26 21c-2 0-3-1-3-3 0-8 10-17 22-17v1c-1 3-2 6-3 8-4 8-12 11-16 11h0zm68 3c-3 7-6 10-10 10-3 0-5-1-5-2l1-1c0-2-2-3-4-3-3 0-4 1-4 4 0 2 1 1 1 3 2 3 6 5 11 5s10-3 14-9l16-29c1-1 2-2 2-3 0-2-2-3-5-3-2 0-3 1-3 3l-10 19-15-18c1-3-1-4-4-4-2 0-4 1-4 4 0 1 1 2 2 3l17 21zm48-29c-14 0-25 9-25 21 0 8 7 11 12 11 8 0 13-1 20-7 2-1 7-6 7-12 0-5-3-13-14-13h0zm-1 6c5 0 7 3 7 7s-2 7-6 10c-3 2-6 3-11 3-3 0-7-2-7-6 0-8 9-14 17-14h0zm30-1l1-1c0-3-3-3-4-3-3 0-5 0-5 3 0 1 0 1 1 2v18c0 4 4 8 8 8 7 0 12-3 16-7v2 2c0 1 0 2 4 2 2 0 4-1 4-3v-1-22c0-4-2-4-5-4-2 0-3 1-3 3v1 14c-4 3-10 7-14 7-1 0-3-2-3-3V33zm34 22v1c0 2 1 3 3 3 4 0 6-1 6-3 0-1-1-2-1-2V43c5-5 10-8 12-8 1 0 1 1 1 2v2c0 1 1 2 4 2 2 0 4-2 4-4 0-6-3-8-5-8-5 0-11 3-16 7h0v-3-2c0-1-1-2-4-2-2 0-4 1-4 2v2 22zm79-23c-1-1-3-2-6-2-11 0-26 11-26 22 0 6 5 8 9 8 9 0 19-5 23-10v4 2c0 2 1 3 4 3s5-1 5-3c0-1-1-2-1-2V20v-3c0-1-1-3-4-3-2 0-5 1-5 3 0 1 1 2 1 3v12zm-6 4c4 0 6 1 6 4 0 4-3 7-6 9-4 3-9 5-14 5-3 0-4-1-4-4 0-5 11-14 18-14h0zm24 19c-1 0-1 1-1 1 0 2 1 3 4 3 4 0 5-1 5-3 0-1 0-2-1-2V43c5-5 11-8 13-8 0 0 1 1 1 2-1 0-1 1-1 2s2 2 4 2 4-2 4-4c0-6-3-8-5-8-5 0-11 3-16 7h0v-3c1-1 1-1 1-2s-2-2-4-2c-3 0-5 1-5 2l1 2v22zm53-27c-12 0-24 9-24 22 0 7 6 10 14 10 15 0 22-8 22-10s0-4-3-4-4 2-4 4c-2 1-8 4-15 4-4 0-7-1-7-4 0-2 1-3 1-3l4-1c23-3 25-6 25-9 0-2-3-9-13-9h0zm-1 6c5 0 6 2 6 3s-2 2-19 4c3-5 9-7 13-7h0zm48 5c-21 1-30 9-30 15 0 4 4 6 8 6 8 0 15-3 22-8h0v3s-1 1-1 2 1 2 4 2c2 0 5-1 5-3 0 0 0-1-1-1V35c0-4-3-7-9-7-8 0-14 2-19 4-2 0-4 2-4 3 0 2 2 4 3 4 3 0 4-2 4-2 4-2 8-4 14-4 3 0 4 1 4 3v3zm0 6c0 3-12 9-19 9-2 0-3 0-3-1 0-3 8-9 22-10v2zm25-3c6-4 12-7 15-7 1 0 1 0 1 1v18s-1 1-1 2c0 2 2 3 4 3 3 0 5-1 5-5V43c8-7 13-9 16-9 1 0 1 1 1 2v18 2c0 2 1 3 4 3 2 0 4-1 4-3v-2-22c0-3-2-4-6-4s-11 3-19 9v-4c0-4-2-5-6-5s-12 4-18 8v-3-2c0-2-1-3-3-3-3 0-5 0-5 3 0 1 0 2 1 3v19c-1 1-1 2-1 3 0 2 2 3 5 3 2 0 4-1 4-3 0-1-1-2-1-2V42zm80-14c-10 0-23 4-23 12 0 4 3 7 7 7s8-1 12-2 7-1 9-1c3 0 4 1 4 2 0 5-11 8-19 8-3 0-5-1-6-2 0-1 0-2-3-2-2 0-3 1-3 3 0 4 5 7 12 7 8 0 26-4 26-15 0-5-4-7-9-7-3 0-7 1-11 2s-7 1-9 1-3 0-3-1c0-4 8-7 16-7 6 0 6 1 7 1 0 0 0 1 2 1s3-1 3-3c0-3-5-4-12-4h0zm26 31c4 0 5-2 5-5s-1-4-4-4-4 3-4 5c0 3 2 4 3 4h0zm18 0c4 0 5-2 5-5s-2-4-4-4c-3 0-5 3-5 5 0 3 2 4 4 4h0zm18 0c3 0 4-2 4-5s-1-4-3-4c-3 0-5 3-5 5 0 3 2 4 4 4h0zm17 0c4 0 5-2 5-5s-1-4-4-4-4 3-4 5c0 3 2 4 3 4h0zm18 0c3 0 5-2 5-5s-2-4-4-4c-3 0-5 3-5 5 0 3 2 4 4 4h0z" fill="#fefefe"/></svg>