<svg xmlns="http://www.w3.org/2000/svg" baseProfile="tiny" viewBox="0 0 256 256" overflow="visible" xmlns:v="https://vecta.io/nano"><style><![CDATA[.B{stroke-miterlimit:2.6131}.C{stroke-width:10}.D{stroke-linejoin:round}.E{stroke-linecap:round}]]></style><path fill-rule="evenodd" fill="#4cb748" d="M126.8 4.82l12.82 31.88 21.83-27.19 2.77 34 29.07-20.29-7.5 33.36 33.95-11.74-17.16 30.01 36.09-2.25-25.44 24.24 35.3 7.43-40.53 16.7.01-.66c0-42.28-36.36-76.56-81.21-76.56s-81.21 34.28-81.21 76.56L5.07 104.27l35.3-7.43L14.93 72.6l36.09 2.25-17.16-30.01 33.95 11.74-7.5-33.36 29.07 20.29 2.77-34 21.83 27.19L126.8 4.82z"/><g fill="none" class="B"><g stroke="#000"><path d="M54.17 125.16h145.26c0-37-28.07-67.48-64.22-71.62-9.19-1.05-7.52 8.6-9.28 8.6-1.84 0 .43-10.01-11.17-8.09-34.38 5.68-60.59 35.36-60.59 71.11z" class="C D"/><g stroke-width="5"><path d="M84.69 68.95c1.41 4.65 1.25 6.64 5.48 11.77 8.47-4.79 12.58-4.84 18.93-5.49-.13-5.25 1.91-10.24 5.95-11.3"/><path d="M97.52 76.95c.23 12.33 3.84 20.72 14.08 21.34m-1.11 18.24c-25.73-4.18-37.33-19.3-20.81-26.51"/><path d="M82.27 100.23c-4.54-4.02-9.07-3.87-13.61-.78m20.08 9.39c-5.66.23-10.26 3.53-11.74 7.53m49.09-40.96c9.34 8.03 20.23 3.56 28.73 1.52m-9.49 2.64c-8.73 5.98-7.14 13.11-1.75 14.9 19.11 3.57 12.8 18.17-2.96 18.33m34.69-39.62c-9.93 2.65-15.11 7.6-13.77 15.69m24.84-1c-4.6-1.79-11.05 4.14-11.58 8.47 2.38 8.65-.45 13-6.42 17.88"/></g><path stroke-width="8" d="M126.09 61.14v40.47" class="D E"/><path d="M198.75 136.05v62.9c0 12.78-10.44 23.24-23.19 23.24H78.04c-12.75 0-23.19-10.46-23.19-23.24v-62.9" class="C"/></g><path d="M85.38 164.75l21.36 17.41-22.6 11.33m84.08-28.74l-21.36 17.41 22.61 11.33" stroke-width="8" stroke="#4cb748"/><path d="M169.92 250.53h-14.7v-26.85m-71.54 26.85h14.7v-26.85" stroke="#000" class="C E"/></g></svg>