<svg xmlns="http://www.w3.org/2000/svg" width="3000" height="1875" xmlns:v="https://vecta.io/nano"><g transform="matrix(1.677644 0 0 1.684592 315 167.5)"><svg width="1488.695" height="839.966"><path d="M393.101.81C180.019-7.602 30.317 48.348 1.865 221.353 80.305 118.112 220.751 45.504 393.101.81zm674.014 837.779c285.482-7.025 401.777-138.496 421.58-322.657-59.281 134.953-207.105 252.111-421.58 322.657zM4.084 491.37c34.224 228.958 363.332 372.951 779.233 345.181s678.713-223.348 673.954-454.801c-5.168-251.375-334.37-404.654-736.033-377.833C305.337 31.687-41.796 184.435 4.084 491.37z" fill="#54d8f7"/></svg></g><g transform="matrix(1.681461 0 0 1.689443 687.5 465)"><svg width="923.304" height="479.448"><path d="M616.686 230.76c-.187 58.148 4.182 115.939-16.254 173.105-34.851 97.493-162.915 87.554-210.709 43.449-43.482-40.126-52.309-83.383-49.195-137.229 3.944-68.203 39.581-234.907 102.421-289.928C472.245-5.493 530.33-6.9 561.877 17.299c64.032 49.118 54.808 125.656 54.808 213.461zm-106.218-80.042c-5.374-19.883-20.664-15.122-25.247 1.939-10.891 40.538-9.676 69.009-18.658 146.634-2.89 24.974 4.907 48.679 23.257 49.844 4.572.29 9.228-4.064 13.473-11.861 16.434-30.189 10.093-175.763 7.176-186.556zm-231.67 6.58c-17.857 57.625-16.853 114.618.797 171.804 6.744 21.848 7.609 44.266 4.588 66.624-4.767 35.278-22.745 60.736-57.031 73.845-33.434 12.782-63.866 9.068-87.934-18.056-21.398-24.115-21.006-54.411-15.263-83.933 3.209-16.497 10.306-32.291 16.197-48.199 8.127-21.944-6.487-40.593-31.386-36.973-23.448 3.41-45.727 1.878-68.629-3.884-49.995-12.58-50.709-74.568-16.375-105.627 4.881-4.416 10.529-8.777 17.29-14.893C133.1 74.737 151.552-5.614 220.447 3.521c49.568 6.573 64.87 20.6 69.623 71.86 1.732 18.675-5.455 63.145-11.272 81.917zm-133.505 19.738c-.847 8.979-2.838 21.963 10.333 24.043 12.336 1.948 25.337-16.55 26.829-35.468.708-8.975 3.258-28.358-9.428-26.892-16.708 1.931-25.968 19.607-27.734 38.317zM882.971 14.124c-42.101-13.581-62.473-1.358-78.77 10.865s-76.054 84.203-111.365 120.871-42.101 66.547-23.088 108.648 94.438 14.26 113.452 34.632-12.609 56.27-17.655 95.916c-7.13 56.022 21 94.898 82.115 88.107s81.876-54.154 69.653-157.37-5.822-141.413 2.327-179.44 5.432-108.648-36.669-122.23zm-55.632 145.317c-1.7 11.478-21.73 55.003-40.793 40.743-10.26-7.674-9.457-25.125 6.841-46.855s36.669-12.223 33.953 6.111z" fill="#5917c1"/></svg></g><g transform="matrix(1.681009 0 0 1.687841 1220 1112.5)"><svg width="514.572" height="407.325"><g fill="#ea2688"><path d="m206.288 226.955 31.137 46.884L43.243 402.8c-12.456 8.273-29.285 4.876-37.557-7.58l-1.16-1.746c-8.273-12.456-4.876-29.286 7.58-37.558z"/><circle cx="347.854" cy="166.718" r="166.7"/></g><circle cx="347.854" cy="166.718" fill="#55a2ff" r="125.333"/><path d="M230.396 292.554a7.475 7.475 0 0 1-5.289-2.183 176.55 176.55 0 0 1-38.744-58.25 7.5 7.5 0 1 1 13.897-5.645 161.47 161.47 0 0 0 35.426 53.26 7.5 7.5 0 0 1 .028 10.606 7.474 7.474 0 0 1-5.317 2.211z" fill="#b7006d"/><path d="M437.758 218.491a7.465 7.465 0 0 1-3.301-.771 7.5 7.5 0 0 1-3.425-10.038 92.76 92.76 0 0 0 9.198-33.162c.351-4.128 4.005-7.187 8.108-6.837a7.5 7.5 0 0 1 6.837 8.108 107.69 107.69 0 0 1-10.681 38.504 7.5 7.5 0 0 1-6.737 4.195z" fill="#fff"/></svg></g><g transform="matrix(1.601121 -.477257 .481045 1.613831 48.614813 706.364946)"><svg width="246.897" height="426.069"><path d="M239.397 356.688a7.5 7.5 0 0 1-7.5-7.5c0-24.805-14.888-56.538-39.825-84.887-23.388-26.587-50.324-43.766-68.624-43.766s-45.236 17.179-68.624 43.766c-24.937 28.349-39.825 60.083-39.825 84.887a7.5 7.5 0 0 1-15 0c0-28.348 16.285-63.785 43.563-94.794 26.51-30.137 57.121-48.859 79.886-48.859s53.375 18.722 79.886 48.859c27.277 31.009 43.562 66.447 43.562 94.794a7.5 7.5 0 0 1-7.5 7.5z" fill="#ebebeb"/><g fill="#00ba96"><path d="M223.037 358.101c-20.244-10.291-57.265-2.502-99.588-2.502s-79.345-7.789-99.588 2.502H7.5v32.733c0 19.46 51.912 35.235 115.948 35.235s115.949-15.775 115.949-35.235v-32.733h-16.36z"/><ellipse cx="123.449" cy="358.101" rx="115.949" ry="35.235"/></g><path d="M92.001 361.511c36.428 6.428 87.855 2.143 100.712-11.785s-35.8-44.884-52.985-72.018c-13.626-21.515-33.799-5.124-63.798 25.947s-40.914 47.8 16.071 57.856zm31.448-148.477c37.083 0 85.019-55.619 65.121-61.046s-45.223 13.567-75.07 15.376c-20.843 1.263-57.885-3.618-45.223 15.376s39.796 30.294 55.172 30.294z" fill="#ffd215"/><path d="M123.449 220.534c-48.216 0-114.648-84.799-114.648-146.347 0-8.689 6.368-20.981 36.703-30.199 20.925-6.359 48.606-9.861 77.945-9.861s57.021 3.502 77.946 9.861c30.335 9.218 36.702 21.511 36.702 30.2 0 61.548-66.432 146.347-114.648 146.347zm0-171.407c-64.475 0-99.648 16.555-99.648 25.06 0 56.695 62.679 131.347 99.648 131.347s99.648-74.651 99.648-131.347c0-8.506-35.172-25.061-99.648-25.061z" fill="#ebebeb"/><path d="M223.037 35.235c-20.244-10.291-57.265-2.502-99.588-2.502s-79.345-7.789-99.588 2.502H7.5v32.733c0 19.46 51.912 35.235 115.948 35.235s115.949-15.775 115.949-35.235V35.235h-16.36z" fill="#00ba96"/><ellipse cx="123.449" cy="43.939" fill="#5917c1" rx="107.148" ry="32.56"/><ellipse cx="123.449" cy="35.235" fill="#00ba96" rx="115.949" ry="35.235"/><path d="M123.449 77.97C62.103 77.97 0 63.291 0 35.235a7.5 7.5 0 0 1 15 0c0 4.352 8.963 11.759 28.641 17.739 21.212 6.446 49.555 9.996 79.808 9.996s58.595-3.55 79.807-9.996c19.679-5.98 28.642-13.387 28.642-17.739a7.5 7.5 0 1 1 15 0c0 28.056-62.103 42.735-123.449 42.735zm0 31.321C62.103 109.291 0 94.611 0 66.555a7.5 7.5 0 0 1 15 0c0 4.352 8.963 11.759 28.641 17.739 21.212 6.446 49.555 9.996 79.808 9.996s58.595-3.55 79.807-9.996c19.679-5.98 28.642-13.387 28.642-17.739a7.5 7.5 0 1 1 15 0c0 28.056-62.103 42.735-123.449 42.735zm0 286.304C64.079 395.595 0 377.852 0 349.187a7.5 7.5 0 0 1 15 0c0 10.784 42.233 31.408 108.449 31.408s108.449-20.624 108.449-31.408a7.5 7.5 0 1 1 15 0c0 28.665-64.079 46.408-123.449 46.408z" fill="#007a63"/><path d="M186.348 297.79a7.488 7.488 0 0 1-6.132-3.173c-8.488-12.013-18.976-23.027-29.531-31.012a7.5 7.5 0 0 1-1.457-10.506 7.499 7.499 0 0 1 10.506-1.457c11.754 8.891 23.379 21.079 32.733 34.319a7.499 7.499 0 0 1-6.118 11.828z" fill="#fff"/></svg></g><g transform="matrix(1.51609 -.727552 .729697 1.52056 2229.251378 328.06002)"><svg width="343.418" height="278.67"><path d="M195.893 13.235a29.021 29.021 0 0 0-48.731.038L4.644 233.902a29.02 29.02 0 0 0 24.399 44.767l285.377-.22a29.022 29.022 0 0 0 24.331-44.805L195.893 13.235z" fill="#f62" fill-rule="evenodd"/><path d="M171.618 203.96c5.446-.004 9.831 1.596 13.153 4.802s4.986 7.308 4.989 12.306c.004 4.924-1.653 8.991-4.971 12.202s-7.699 4.818-13.146 4.822c-5.372.004-9.719-1.597-13.041-4.802s-4.986-7.27-4.989-12.194 1.653-9.01 4.97-12.258 7.662-4.874 13.034-4.878zm-.014-17.682a13.89 13.89 0 0 1-13.892-13.411l-2.934-85.135c-.271-7.849 6.016-14.362 13.87-14.368l5.738-.004c7.854-.006 14.151 6.496 13.892 14.346l-2.803 85.14a13.89 13.89 0 0 1-13.871 13.432z" fill="#fff"/></svg></g></svg>