<svg xmlns="http://www.w3.org/2000/svg" width="3000" height="3000" xmlns:v="https://vecta.io/nano"><style><![CDATA[.B{fill:#a85f36}.C{fill:#773a11}.D{fill:#005141}]]></style><g transform="matrix(1.497984 0 0 1.497991 585 165)"><svg width="373.502" height="287.385"><g fill="#ce9800"><rect height="75.56" rx="18.383" width="104.468" x="268.477"/><rect height="75.56" rx="18.383" width="373.502" y="28.765"/></g><rect fill="#ffd215" height="241.785" rx="18.383" width="373.502" y="45.6"/></svg></g><g transform="matrix(1.499227 0 0 1.498194 1213.5 1126.5)"><svg width="945.487" height="681.821"><path d="M804.997 322.863a238.842 238.842 0 0 0 3.746-19.003c10.04-64.625-5.734-130.365-33.008-173.065-34.452-53.938-99.732-103.388-220.44-123.506-321.702-53.618-294.128 206.193-294.128 206.193s-85.421-24.43-186.894 32.489c-55.149 30.935-140.936 147.36 12.255 300.552 63.204 44.395 174.61 109.433 324.227 128.954 228.857 29.859 496.421-47.847 530.581-187.084 8.254-33.642 7.068-92.131-30.638-129.874-44.223-44.266-94.611-37.434-105.702-35.655z" fill="#5ac4ff"/><path d="M754.44 349.31a4.998 4.998 0 0 1-4.092-7.867c12.09-17.273 26.606-22.742 36.654-24.288 10.986-1.689 19.158.832 19.5.94a5 5 0 0 1-3.011 9.536c-1.028-.314-25.985-7.546-44.951 19.546a4.99 4.99 0 0 1-4.1 2.133zM256.577 493.308a4.999 4.999 0 0 1-4.989-5.404c3.263-40.276 18.765-76.414 44.829-104.505 24.092-25.964 55.682-43.865 91.355-51.767s71.87-5.016 104.671 8.347c35.489 14.457 64.801 40.667 84.767 75.798l3.524 6.202c11.672-24.833 26.085-38.238 42.929-39.888 32.501-3.179 60.407 39.208 61.579 41.014a5 5 0 1 1-8.387 5.446c-.347-.531-25.813-39.106-52.233-36.506-14.819 1.461-27.82 15.919-38.642 42.972a5.003 5.003 0 0 1-8.99.614l-8.475-14.913c-36.452-64.141-106.551-95.277-178.581-79.322s-122.424 73.78-128.381 147.315a5 5 0 0 1-4.978 4.597z" fill="#2199ce"/></svg></g><g transform="matrix(1.502856 0 0 1.501984 703.5 300)"><svg width="992.111" height="1718.727"><path d="M128.534 1472.599c-42.553 71.149-50.702 58.173-69.787 73.872-21.163 17.469-76.258 46.673-50.554 93.617 25.781 46.867 148.795 60.56 210.438 29.776 48.714-24.319 46.021-51.331 68.8-73.033 17.162-16.392 76.65-57.411 76.804-82.268s-13.314-83.576-21.625-97.352c-15.315 30.167-87.613 70.9-126.246 55.047-.924-38.325-69.976-56.993-87.83.34z" fill="#007a63"/><path d="M317.302 1568.21a4.999 4.999 0 0 1-4.728-3.38c-.249-.73-6.09-18.136-4.026-40.407 1.921-20.74 11.319-49.675 45.183-69.742a5 5 0 1 1 5.098 8.604c-24.16 14.316-37.716 35.076-40.289 61.702-1.954 20.212 3.445 36.453 3.5 36.614a5.004 5.004 0 0 1-4.737 6.61z" class="D"/><path d="M359.522 1503.007c8.311 1.385 13.391 45.636 10.851 60.489-3.694 21.394-41.463 38.817-58.009 58.21-19.701 23.087-29.35 42.366-51.745 62.298-19.855 17.7-77.356 34.723-132.766 34.723s-110.31-25.678-124.855-45.918c-3.617-5.002-5.211-39.21 2.562-38.133 17.162 34.092 81.133 53.825 121.613 51.67s99.149-12.386 120.761-36.658c21.463-24.105 21.009-39.864 39.864-54.255 45.174-34.4 52.639-95.582 71.725-92.426z" fill="#e3e5e5"/><path d="M143.024 1575.179c-6.261 0-12.774-.871-19.53-2.618-6.846-1.771-12.989-5.646-17.298-10.913-6.99-8.547-14.745-26.485 11.517-50.851 2.421-3.376 20.288-28.788 24.304-48.718a4.997 4.997 0 0 1 5.889-3.914 5 5 0 0 1 3.914 5.889c-4.728 23.461-25.438 51.841-26.317 53.038l-.288.392-.358.329c-15.757 14.478-19.431 27.096-10.919 37.504 2.974 3.634 7.257 6.32 12.062 7.563 17.147 4.434 32.367 2.384 45.241-6.089 31.619-20.813 40.103-73.529 40.185-74.06a5.001 5.001 0 0 1 9.884 1.52c-.359 2.341-9.209 57.588-44.54 80.872-10.161 6.696-21.459 10.056-33.743 10.056z" class="D"/><path d="M151.664 919.307c-7.052 26.763-9.104 44.212-23.456 68.806-22.006 37.566-61.211 30.146-39.43 82.478 61.307 20.357 167.016-63.899 186.753-84.238 19.672-20.301 96.77-105.545 112.51-120.652 0 0-28.751-43.693-46.682-62.751-27.954 53.288-86.933 87.972-153.369 92.898-6.256-24.002-46.199-13.523-36.327 23.459z" fill="#007a63"/><path d="M88.843 1070.554c-8.915-.608 2.683 29.509 9.506 31.608 21.474 6.67 72.214-4.307 114.983-29.284 70.772-41.357 97.828-80.582 114.411-93.216s82.665-50.534 89.828-79.633c2.383-9.609-19.905-41.124-28.469-43.51-17.192-4.734-66.506 75.785-88.102 96.081-25.306 23.788-61.268 60.043-108.373 86.259-39.464 21.985-75.442 33.712-103.786 31.693z" fill="#e3e5e5"/><path d="M142.963 989.191c-8.056 0-13.531-2.778-13.655-2.844a5 5 0 0 1 4.634-8.862c.927.466 20.656 9.896 38.665-19.325 19.724-32.001 17.358-62.195 17.332-62.496a5.003 5.003 0 0 1 4.538-5.418 4.995 4.995 0 0 1 5.422 4.523c.123 1.358 2.772 33.671-18.778 68.638-13.029 21.141-27.747 25.784-38.157 25.784z" class="D"/><path d="M786.777 783.717a39.42 39.42 0 0 1 23.336 45.486c-3.202 13.59-7.335 30.156-12.14 47.244-2.342 8.328-7.81 31.296-21.298 52.493-12.739 20.019-33.225 38.276-45.288 47.201-21.566 15.957-45.594 30.662-63.324 38.672l-164.521 74.66c-8.126 3.699-14.698 10.067-18.792 18-2.786 5.399-6.842 11.187-12.2 13.722-9.763 4.618-16.231 56.407-17.837 70.676a39.045 39.045 0 0 0-.171 6.786c1.006 16.177 4.155 90.526-19.412 132.97-3.813 6.868-5.39 14.744-4.666 22.566 3.339 36.082 8.638 135.093-31.291 153.81-46.555 21.823-224.366 16.703-272.975-73.748-4.714-8.772-5.976-19.005-3.447-28.637 5.234-19.932 17.571-58.315 41.273-90.637 33.702-45.957 28.34-154.723 98.043-307.915s208.747-222.209 269.82-239.402c50.126-14.112 128.268-19.566 154.672-21.069a39.389 39.389 0 0 1 17.263 2.913l82.955 34.207z" fill="#0a3ea5"/><path d="M489.391 1100.919a4.995 4.995 0 0 1-4.242-2.347l-10.554-16.851a5 5 0 1 1 8.475-5.308l10.554 16.851a5 5 0 0 1-4.232 7.654zm-16.838 25.277a5.002 5.002 0 0 1-4.484-2.781l-16.695-33.702a5 5 0 1 1 8.961-4.439l16.695 33.702a5 5 0 0 1-4.477 7.221zm-82.569 254.297a5.001 5.001 0 0 1-3.311-8.749l39.064-34.468a5 5 0 1 1 6.616 7.498l-39.063 34.468a4.977 4.977 0 0 1-3.306 1.251zm-202.986-22.212a5.003 5.003 0 0 1-4.848-3.793l-13.611-54.654a4.999 4.999 0 0 1 3.644-6.06c2.67-.67 5.392.963 6.06 3.644l13.611 54.654a4.999 4.999 0 0 1-4.856 6.209z" fill="#002e77"/><path d="M841.44 364.174s-43.607-23.406-166.341-21.405l-37.49-2.079-26.266-7.462a286.35 286.35 0 0 0-51.437-9.641l-13.669-1.285-46.979 165.447s-4.085 33.702-7.149 42.894c-2.115 6.345-19.501 101.77-17.362 147.221.713 15.15 451.404 41.809 451.404 41.809l9.191-150.222-93.903-205.277z" fill="#f62"/><path d="M376.194 873.025l-24.51-48.638S245.982 956.515 115.003 900.6c0 0-19.149-9.191-14.553-62.808 0 0-36-25.02-13.021-83.744 0 0-104.17-236.426-11.49-306.129s212.17 7.66 212.17 7.66l86.612 70.784a512.93 512.93 0 0 1 130.347 160.241l6.429 12.345 28.611 77.157-163.915 96.919z" fill="#0a3ea5"/><path d="M127.254 789.94a4.98 4.98 0 0 1-3.061-1.049l-39.83-30.893a5 5 0 1 1 6.129-7.901l39.83 30.893a5 5 0 0 1-3.068 8.951zm-16.086 58.98a4.97 4.97 0 0 1-2.476-.66l-10.724-6.128a5 5 0 0 1 4.961-8.682l10.724 6.128a5 5 0 0 1-2.486 9.342zm237.578-16.07a5.002 5.002 0 0 1-4.291-7.565c.355-.865 2.888-7.95 6.08-40.829 3.005-30.949-50.964-123.892-72.012-157.093l-1.065-1.68.38-1.953c6.229-31.985-31.545-62.842-31.928-63.15l-2.066-1.665.218-2.647c1.273-15.283-9.836-24.054-10.31-24.42-2.177-1.682-2.597-4.815-.926-7.001a4.989 4.989 0 0 1 6.978-.96c.625.472 14.677 11.331 14.355 30.573 8.297 7.24 38.801 36.361 33.84 69.183 9.558 15.241 76.237 123.179 72.489 161.779-2.642 27.207-5.308 42.569-7.925 45.659a4.99 4.99 0 0 1-3.818 1.769zm-4.329-7.475zm.473-.704-.003.004.003-.004zm.012-.014-.008.009.008-.009zm.021-.026-.02.023.02-.023zm.011-.013-.011.012.011-.012zm25.228 41.429a5 5 0 0 1-2.707-9.207c1.313-.843 131.96-84.671 190.252-115.141a5 5 0 0 1 4.633 8.863c-57.898 30.264-188.172 113.852-189.48 114.693a4.975 4.975 0 0 1-2.697.793z" fill="#002e77"/><g class="B"><path d="m688.542 385.359-13.233-.737c-22.38-1.292-39.329-20.294-37.797-42.514l5.612-82.467c1.8-26.78 25.242-47.283 52.215-45.772l4.904.257c26.973 1.511 42.071 22.231 40.27 49.012l.243 76.449c-1.879 26.819-25.242 47.283-52.215 45.772z"/><path d="M693.485 125.01c-31.47-4.087-47.861-5.754-59.983 22.921-12.111 28.649-39.855 112.245-30.382 131.306 17.334 34.881 68.598 40.098 107.372 20.829 40.65-20.201 46.977-68.669 49.221-92.399 3.222-34.512-22.582-77.02-66.228-82.658z"/></g><path d="M647.262 145.575c-9.534 4.213-22.734 5.713-33.016-4.582-9.922-10.001-10.96-22.487-4.575-23.905 6.462-1.46 10.786 5.016 18.287-.739s7.962-20.236 15.19-23.389c7.27-3.078 15.066 6.811 20.814 4.955s5.038-8.633 12.737-7.823 15.812 10.227 23.422 9.417 17.478-10.799 22.995-9.978 14.389 22.58 17.554 22.916 10.567-5.419 15.156.815c4.707 6.267 3.889 17.261 7.985 20.034s9.638 6.404 10.756 9.916-3.266 12.807-1.841 16.152c1.466 3.421 4.886 8.942 4.46 12.903s-5.402 9.132-3.4 13.537-.011 27.728-4.633 50.396c-4.516 22.147-23.789 7.683-26.722 2.118s-6.391-37.484-7.682-49.342c0 0-9.573-16.605-11.972-30.313 0 0-23.579-6.74-36.477-21.106-6.358-6.742-27.046 2.661-39.039 8.018z" fill="#111"/><ellipse cx="686.432" cy="212.622" fill="#fff" rx="20.164" ry="18.08" transform="matrix(.177291 -.984158 .984159 .177291 355.48 850.483)"/><ellipse cx="681.716" cy="209.537" fill="#111" rx="16.439" ry="11.042" transform="matrix(.286006 -.958228 .958228 .286006 285.953 802.845)"/><path d="M743.754 237.383c10.779-9.302 24.542-11.619 33.16 1.996 9.349 14.889-17.591 49.928-35.434 35.797-12.077-9.395-6.31-30.352 2.274-37.793z" class="B"/><g class="C"><path d="M746.615 265.696a4.534 4.534 0 0 1-3.623.164c-2.212-.921-3.245-3.391-2.332-5.673 2.379-5.609 9.45-18.842 25.083-21.318 2.339-.393 4.586 1.185 4.996 3.58s-1.242 4.563-3.659 4.994c-11.267 1.846-16.601 11.907-18.424 16.084-.397.967-1.103 1.703-2.041 2.169z"/><path d="M761.59 262.68c-1.954.971-4.403.36-5.596-1.453l-6.197-9.527c-1.27-1.967-.665-4.673 1.33-5.954s4.717-.708 5.987 1.259l6.197 9.527c1.27 1.967.665 4.673-1.33 5.954z"/></g><path d="M674.356 178.223c-9.872 2.693-12.595-7.886-5.201-12.427 11.424-7.024 36.454-.988 43.549 13.289 2.339 4.707-3.676 7.119-7.505 3.729-6.497-5.817-24.054-6.426-30.843-4.591zm-32.384-14.905c9.183.825 9.276 14.155 1.612 13.248-8.443-.904-23.779 3.542-26.955 6.371-3.254 2.868-6.85-.445-3.738-5.167 5.319-8.128 20.014-15.239 29.08-14.452z" fill="#111"/><path d="M626.422 188.137c-2.773-.327-5.483.149-7.939 1.261-.94 2.937-7.003 22.311-8.186 27.486 2.446 4.189 6.574 6.538 11.459 7.114 8.871 1.047 17.106-6.132 18.395-16.035s-4.858-18.78-13.729-19.827z" fill="#fff"/><path d="M624.409 189.043c-2.398-.283-4.753.794-6.698 2.777a1173.172 1173.172 0 0 0-4.578 14.714c.593 5.544 3.564 9.823 7.659 10.306 5.198.614 10.222-5.111 11.221-12.787s-2.406-14.396-7.604-15.01z" fill="#111"/><path d="M657.499 233.831c-.327.123-.654.246-1.011.288-2.388.347-4.515-1.339-4.844-3.701-.479-3.503-4.665-5.702-8.276-5.632-3.336.059-5.259 1.888-5.555 5.314-.221 2.385-2.369 4.114-4.745 3.996-2.407-.199-4.135-2.311-3.995-4.665.666-7.893 6.251-13.127 14.106-13.321 9.62-.215 16.251 6.497 17.087 13.18.29 2.009-.97 3.864-2.768 4.541z" class="C"/><path d="M655.157 269.287c6.164-.785 11.313-1.594 15.823-3.724 4.053-1.874 9.228-6.747 12.066-9.719 3.922-4.073 9.028-.315 9.137 4.168.097 6.069-4.493 13.775-13.065 18.476-8.691 4.669-18.569 3.287-24.535-1.471-5.072-3.876-2.681-7.289.575-7.729z" fill="#fff"/><path d="M709.543 308.432c-23.828 10.653-53.545 10.914-71.37 5.479-2.307-.668-3.592-3.114-2.816-5.443s3.176-3.591 5.517-2.844c16.517 5.075 45.899 4.493 67.906-6.384 2.196-1.076 4.768-.244 5.832 1.923a4.29 4.29 0 0 1-1.996 5.801c-1.001.542-2.037 1.005-3.073 1.468z" class="C"/><g class="B"><path d="M616.315 334.64c-1.564 10.037 6.866 55.754 43.977 59.607 42.064 4.44 86.617-14.169 114.815-46.512l-33.327-5.418-93.071.63zM286.544 161.671s-40.555-68.425-51.852-83.847-96.312 27.593-83.663 54.435 29.093 56.295 52.091 53.909l6.099 15.89c17.588 45.574 101.044-.858 77.325-40.387z"/><use href="#B"/><path d="M129.805 99.94c-1.05 12.732 4.759 30.143 12.464 43.869 9.818 17.491 35.245 2.012 25.837-12.905-7.26-11.51-11.986-29.24-11.986-29.24l-26.314-1.724z"/><use href="#B" x="9.898" y="-19.163"/><path d="M139.702 80.778c-1.433 14.64 7.996 36.293 15.702 50.019 9.818 17.491 35.245 2.012 25.837-12.905-7.26-11.51-15.224-35.39-15.224-35.39l-26.314-1.724zm63.637.522c-3.025-6.942-10.637-20.622-18.837-29.876-4.788-5.405-23.658 2.885-23.721 14.571-.059 10.901 15.907 26.627 17.983 29.998l24.575-14.692z"/><path d="M160.783 65.994c-1.433 14.64 7.996 36.293 15.702 50.019 9.818 17.491 35.245 2.012 25.837-12.905-7.26-11.51-15.224-35.39-15.224-35.39l-26.314-1.724zm73.909 11.83c-10.315-19.057-22.721-41.613-29.458-47.823S161.387 4.152 151.554.981c-19.001-6.127-26.399 18.099-9.3 27.381a5168.716 5168.716 0 0 1 38.652 21.226l23.663 40.313 30.123-12.076z"/></g><g class="C"><path d="M204.574 94.544a4.64 4.64 0 0 1-4.008-2.293l-23.663-40.313a4.642 4.642 0 1 1 8.006-4.7l23.663 40.313a4.642 4.642 0 0 1-3.998 6.993zm-14.1 33.817c-4.516 0-11.099-1.678-17.545-9.364-12.583-15-16.734-45.637-16.788-52.968a4.641 4.641 0 0 1 4.608-4.676h.035a4.642 4.642 0 0 1 4.641 4.608c.045 6.087 3.976 34.385 14.616 47.069 3.806 4.538 7.896 6.588 11.821 5.935 3.382-.564 5.586-2.876 6.014-3.988a4.642 4.642 0 1 1 8.663 3.335c-1.51 3.921-6.268 8.663-13.151 9.81a17.82 17.82 0 0 1-2.914.239z"/><path d="M168.601 143.472c-5.645 0-11.819-2.652-16.992-10.003-4.904-6.967-11.236-18.499-16.725-46.058a4.643 4.643 0 0 1 9.105-1.813c5.149 25.852 10.833 36.307 15.211 42.527 5.761 8.185 11.615 6.364 14.589 4.552 4.117-2.508 5.856-6.774 5.195-8.042a4.644 4.644 0 0 1 1.967-6.264 4.645 4.645 0 0 1 6.264 1.967c3.676 7.044-1.599 16.003-8.595 20.266-2.819 1.717-6.305 2.867-10.02 2.867z"/><path d="M160.426 155.482a4.64 4.64 0 0 1-.526-9.253c1.834-.213 4.88-5.073 6.18-8.955a4.642 4.642 0 1 1 8.804 2.946c-.792 2.366-5.185 14.224-13.92 15.232-.181.02-.36.032-.538.032z"/></g><path d="M257.814 121.704c-8.482-9.582-20.187-26.932-29.189-31.463s-42.61-13.283-54.033-15.817c-15.822-3.508-24.659 22.752-4.923 29.336s39.539 14.415 39.539 14.415c-3.623 18.796 16.799 52.368 41.684 45.375 19.025-5.347 6.922-41.847 6.922-41.847z" class="B"/><path d="M244.174 169.131c-8.029 0-15.981-3.347-22.998-9.8-10.775-9.91-17.614-25.617-16.986-38.14-6.473-2.522-21.487-8.271-36.192-13.17-12.93-4.308-16.202-15.737-13.771-24.532 2.385-8.626 10.418-16.118 21.152-13.742 9.497 2.102 45.316 11.307 55.333 16.347 7.362 3.704 15.254 13.603 22.886 23.174 2.761 3.463 5.37 6.734 7.693 9.358a4.641 4.641 0 1 1-6.951 6.153c-2.481-2.803-5.161-6.164-7.999-9.724-6.351-7.966-14.256-17.88-19.801-20.669-8.272-4.162-41.397-12.971-53.166-15.575-5.322-1.178-9.017 2.882-10.198 7.151-1.305 4.722.047 10.682 7.757 13.251 19.639 6.542 39.795 14.57 39.996 14.651a4.642 4.642 0 0 1 2.838 5.19c-1.882 9.766 4.261 24.768 13.694 33.444 4.87 4.478 12.669 9.257 22.177 6.584a4.64 4.64 0 1 1 2.511 8.937 29.388 29.388 0 0 1-7.975 1.111v.002z" class="C"/><path d="M747.426 713.334s80.508-28.69 119.12-56.906c50.009-36.544 147.994 89.059 60.485 127.162-43.479 18.931-122.637 22.82-164.762 24.955s-14.843-95.211-14.843-95.211z" class="B"/><path d="M840.152 363.691c67.58 31.504 135.61 186.148 151.096 312.225 11.623 94.634-126.385 77.107-148.026-24.476-18.124-3.589-12.743-25.196-15.692-38.193-14.161-62.417-35.382-87.224-45.388-117.726-12.322-37.561 10.372-154.038 58.01-131.83z" fill="#f62"/><path d="M738.127 715.23c-12.042-6.53-37.858-28.232-60.419-26.994s-49.431 7.331-60.665 9.667c-15.768 3.28-14.346 24.442 4.311 22.696l42.718-4.065s17.795 34.158 45.759 31.275 28.295-32.579 28.295-32.579z" class="B"/><path d="m505.794 832.97 147.157-25.167c5.218-.784 9.968-6.083 10.624-11.857l28.657-214.303c1.177-8.407-7.509-17.19-15.581-16.852l-162.809 15.072c-6.074.562-11.33 6.659-11.723 13.588l-12.73 224.571c-.185 8.558 9.661 16.254 16.405 14.948z" fill="#8f969e"/><path d="m505.794 832.97 151.226-22.732c5.218-.784 9.968-6.083 10.624-11.857l24.588-216.737c.757-6.666-3.158-11.671-8.759-11.153l-162.809 15.072c-6.074.562-11.33 6.659-11.723 13.588l-12.73 224.571c-.338 5.964 3.959 10.095 9.584 9.249z" fill="#656c72"/><path d="M666.908 593.701c.426-4.023 3.528-7.558 6.921-7.884 3.387-.326 5.772 2.672 5.331 6.685-.439 4.003-3.525 7.514-6.899 7.849s-5.779-2.637-5.353-6.65z" fill="#111"/><g class="B"><path d="M747.426 713.334c-14.638 4.037-50.586 9.466-77.311 6.196s-14.283 95.462 6.557 98.062 73.35-5.737 85.599-9.046c29.012-7.838 9.082-100.691-14.843-95.211z"/><path d="M676.67 817.592c-12.824-.003-38.987-.512-48.958-3.798-8.08-2.662-24.52-11.709-33.438-17.538-11.277-7.37-2.129-26.059 11.758-19.974s30.48 12.689 30.48 12.689l38.68 1.544 1.478 27.076z"/><path d="M678.339 797.98c-7.761-.174-46.995 1.348-55.516-1.322s-38.665-13.626-45.747-17.257c-14.203-7.284-3.147-28.698 13.261-22.199 13.093 5.186 38.079 13.688 38.079 13.688l47.457-1.065 2.464 28.154z"/><path d="M676.421 776.074c-6.395.152-42.965-.207-52.456-2.101s-38.559-11.137-48.466-14.789c-14.085-5.193-4.567-28.854 11.892-24.467s41.597 10.363 41.597 10.363l43.683 1.402 3.75 29.593z"/><path d="M673.084 749.736c-6.531.113-37.934-.751-45.614-1.891s-34.778-6.947-43.373-9.142c-14.266-3.643-11.052-27.186 6.801-25.667l34.856 2.965 44.361 3.529 2.97 30.205z"/></g><path d="M677.974 723.942l.145.01c9.055.468 16.076.678 20.867.623a4.31 4.31 0 0 0-.099-8.621c-4.61.053-11.447-.153-20.322-.611a4.31 4.31 0 0 0-.591 8.6zm-46.07 28.764c12.239 1.041 35.846 1.296 41.144 1.341 2.38.02 4.327-1.894 4.347-4.274s-1.889-4.332-4.274-4.347c-16.837-.143-38.695-.704-44.884-1.822l-4.357-.745c-31.008-5.205-40.028-8.285-42.041-9.971a4.31 4.31 0 0 0-7.498 4.234c2.23 4.461 10.283 7.888 48.113 14.239l4.253.726c1.285.232 3.07.437 5.199.618v.002zm-49.856-19.442l.002.005-.002-.005zm50.02 46.184c15.528 1.321 40.937.99 44.419.937a4.311 4.311 0 0 0-.131-8.621c-11.461.175-43.021.16-51.32-1.967-10.436-2.674-47.849-14.601-48.226-14.721a4.31 4.31 0 1 0-2.62 8.214l48.706 14.859c2.15.552 5.366.975 9.173 1.299v.002zm-1.569 22.775c16.103 1.37 44.183.23 48.026.065a4.31 4.31 0 1 0-.373-8.614c-17.397.751-47.429 1.116-53.943-1.096-9.545-3.243-33.099-11.952-33.335-12.039a4.312 4.312 0 0 0-2.991 8.086l33.554 12.116c1.981.673 5.174 1.151 9.063 1.482z" class="C"/><g fill="#f62"><path d="M509.174 477.988s-127.935 20.484-202.938-41.304c-21.186-17.453-74.778-119.285-89.332-199.133l98.59-56.952s88.784 93.191 92.869 130.543l59.359 1.999a808.92 808.92 0 0 1 114.328 13.404c37.741 7.18-72.877 151.443-72.877 151.443zM782.62 798.782l-10.444-117.204c-1.262-14.16-13.764-24.616-27.924-23.354s-24.616 13.764-23.354 27.924l3.04 26.819c6.312 29.284 9.54 59.314 4.263 88.802l-2.346 13.108c25.904 13.212 51.364 2.384 52.978-.202a25.623 25.623 0 0 0 3.787-15.892z"/><path d="M852.62 666.472s-79.66 13.398-89.362 35.295 7.915 111.298 7.915 111.298 129.512 3.415 184.596-37.98c53.354-40.096 33.156-129.44 29.899-134.671-29.201-46.906-133.048 26.058-133.048 26.058zM216.905 237.551s-9.787-8.725-13.943-20.696c-2.705-7.79-8.3-24 .159-30.687 0 0 62.825 1.396 75.118-38.426 0 0 12.75.702 23.148 13.198 4.373 5.256 10.88 11.714 14.11 19.66 9.407 23.142-98.59 56.952-98.59 56.952z"/></g><g fill="#c83400"><path d="M833.674 677.173a4.313 4.313 0 0 0 2.272-4.671c-1.728-8.8 4.661-18.166 4.726-18.259a4.315 4.315 0 0 0-2.81-6.711c-8.472-1.451-9.717-10.204-11.19-25.55l-.953-8.939c-2.369-18.605-19.649-67.792-31.878-90.742a4.31 4.31 0 1 0-7.609 4.055c11.645 21.855 28.703 70.256 30.933 87.777.369 2.896.65 5.833.923 8.674 1.244 12.968 2.526 26.318 12.718 31.437-1.936 4.036-4.1 10.119-3.732 16.619m-44.631 147.202a5 5 0 0 1-4.93-5.872c.127-.717 12.46-72.171-6.56-109.423l-.271-.623c-.396-.906-4.424-8.965-21.99-8.965l-.538.003c-18.298.169-20.893 9.322-20.994 9.712l.025-.115-9.791-2.032c.146-.707 3.901-17.317 30.668-17.565l.62-.002c23.572 0 30.138 12.545 31.271 15.227 20.416 40.283 7.947 112.469 7.406 115.527a5.001 5.001 0 0 1-4.918 4.128z"/><path d="M775.106 700.408a5 5 0 0 1-3.743-8.314l1.229-1.389c14.836-16.761 36.903-24.807 59.059-21.52a5 5 0 1 1-1.469 9.892 55.76 55.76 0 0 0-50.102 18.256l-1.229 1.389a4.99 4.99 0 0 1-3.746 1.686zm61.836-43.795a5 5 0 0 1-1.58-9.745l29.106-9.702a5.001 5.001 0 0 1 3.162 9.488l-29.106 9.702a4.99 4.99 0 0 1-1.582.258z"/><path d="M846.735 686.163a4.976 4.976 0 0 1-1.899-.377l-17.096-7.03a5 5 0 0 1 3.802-9.248l17.096 7.03a5 5 0 0 1-1.903 9.626zM501.297 485.586a5.002 5.002 0 0 1-4.959-5.684l5.882-42.625a5.002 5.002 0 0 1 9.907 1.367l-5.882 42.625a5.002 5.002 0 0 1-4.947 4.317zm172.378-68.577c-10.695 0-20.798-1.253-29.671-3.792-43.457-12.44-47.346-74.721-47.489-77.366a5 5 0 0 1 4.72-5.265 4.977 4.977 0 0 1 5.265 4.717c.032.577 3.654 57.823 40.257 68.3 37.495 10.731 107.881-3.633 137.341-51.408a5 5 0 1 1 8.512 5.248c-14.349 23.271-39.33 41.622-70.342 51.672-16.132 5.229-32.991 7.895-48.592 7.895zM216.901 242.551a5 5 0 0 1-.206-9.996c.688-.035 44.989-2.729 94.724-51.716a5 5 0 1 1 7.017 7.124c-52.844 52.049-99.374 54.504-101.329 54.583l-.206.004zm170.02 84.751a5 5 0 0 1-2.311-9.436l21.447-11.159a5 5 0 0 1 4.615 8.871l-21.447 11.159a4.972 4.972 0 0 1-2.304.565z"/></g></svg></g><g transform="matrix(1.517943 0 0 1.518346 640.5 120)"><svg width="115.617" height="190.668"><path d="M115.617 117.231a4.002 4.002 0 0 0-.407-1.83 4.092 4.092 0 0 0-3.658-2.364l-33.036-.511-.06-107.823A4.127 4.127 0 0 0 74.39.51L41.354 0a4.138 4.138 0 0 0-4.193 4.066l.06 107.823-33.036-.511a4.11 4.11 0 0 0-3.73 2.25 4.147 4.147 0 0 0 .352 4.346l52.598 71.031a4.113 4.113 0 0 0 3.25 1.664 4.08 4.08 0 0 0 3.3-1.579l54.768-69.371c.576-.717.88-1.6.894-2.487z" fill="#cc2bc5"/></svg></g><g transform="matrix(1.494901 0 0 1.483986 1593 1623)"><svg width="434.477" height="183.964"><path d="M.937 183.964S12.878 22.602 138.518 8.928c102.928-11.202 119.366 3.765 156.795 46.837s32.922 71.518 32.922 71.518l.17 44.426L.937 183.964z" fill="#5ac4ff"/><path d="M5 172.2a5 5 0 0 1-5-5v-6.215l.017-.404C3.28 120.305 18.781 84.168 44.846 56.077c24.09-25.966 55.681-43.866 91.355-51.768s71.866-5.016 104.67 8.347c35.489 14.457 64.802 40.667 84.767 75.798l3.524 6.202c11.672-24.833 26.086-38.238 42.93-39.888 32.498-3.165 60.407 39.208 61.579 41.015a5 5 0 1 1-8.387 5.446c-.347-.531-25.816-39.107-52.233-36.506-14.82 1.461-27.821 15.918-38.643 42.972a5 5 0 0 1-8.99.613l-8.475-14.912C280.49 29.252 210.394-1.881 138.363 14.072 66.398 30.013 16.032 87.748 10 161.188v6.012a5 5 0 0 1-5 5z" fill="#2199ce"/></svg></g><defs ><path id="B" d="M172.362 115.246c-3.025-6.942-10.637-20.622-18.837-29.876-4.788-5.405-23.658 2.885-23.721 14.571-.059 10.901 19.149 28.947 21.224 32.319l21.333-17.013z"/></defs></svg>