<svg xmlns="http://www.w3.org/2000/svg" width="3000" height="2250" xmlns:v="https://vecta.io/nano"><style><![CDATA[.B{fill:#111}.C{fill:#e09273}.D{fill:#0a3ea5}.E{fill:#002e77}.F{fill:#a85f36}]]></style><g transform="matrix(1.500913 0 0 1.500384 120 318)"><svg width="1719.953" height="1200.693"><path d="M167.394 166.442c-231.989 201.774-208.85 707.116 44.787 848.483 279.858 155.981 802.021 175.23 1154.597 89.712 351.016-85.14 374.082-292.037 343.375-466.786-72.639-413.381-306.507-149.621-647.244-491.845C824.628-93.316 362.916-3.615 167.394 166.442zm999.348-68.431c41.715 86.142 129.513 125.92 257.337 154.938 72.856 16.54 196.919 52.55 220.787 100.474 0 0-45.229-119.173-151.527-181.689-128.536-75.594-213.88 5.774-326.596-73.723zM0 912.62c62.316 141.201 254.156 257.043 465.833 279.324C225.638 1228.188 16.291 1154.999 0 912.62z" fill="#54d8f7"/></svg></g><g transform="matrix(1.494009 0 0 1.490736 328.5 1465.5)"><svg width="1577.3" height="394.436"><path d="M1393.219 6.933c-23.159-7.519-71.78-9.176-108.948-3.721L0 191.673c23.143 25.08 49.406 46.327 78.764 62.69 279.858 155.981 802.021 175.23 1154.597 89.712 227.697-55.228 317.397-161.691 343.939-277.378L1393.219 6.934Z" fill="#b7b7b7"/></svg></g><g transform="matrix(1.49856 0 0 1.498609 1531.5 916.5)"><svg width="900.865" height="624.579"><path d="M433.559 606.517 8.602 551.683c-14.199-1.832-10.394-10.552 8.271-19.375l307.49-145.341c14.74-6.967 36.714-11.3 49.237-9.747l374.342 46.397c12.747 1.58 13.098 8.748.649 16.085L488.566 592.948c-15.803 9.314-40.519 15.437-55.008 13.567z" fill="#656c72"/><path d="M699.44 437.816 449.148 585.309c-9.586 5.649-25.822 9.064-36.182 7.584L221.848 565.59c-10.251-1.464-9.962-7.124.558-12.598l274.877-143.025c8.186-4.26 22.084-6.684 31.102-5.444l168.016 23.102c9.102 1.252 10.487 5.8 3.039 10.19z" class="B"/><path d="M262.788 512.862c-1.987 0-3.881-.127-5.549-.368l-100.268-14.422c-8.545-1.229-10.949-5.395-11.462-8.673-.242-1.551-.516-6.865 6.156-10.113L256.5 428.229c5.418-2.639 14.15-3.205 19.98-2.4l97.751 13.506c8.657 1.196 11.129 5.333 11.678 8.592.256 1.516.598 6.709-5.72 9.928L278.034 509.89c-4.082 2.079-9.99 2.973-15.247 2.973zm-89.222-27.558l85.809 12.343c4.526.651 10.127-.246 11.852-1.124l86.911-44.27-83.709-11.565c-4.334-.599-9.707.222-11.359 1.027l-89.503 43.59zm584.15-38.077c.125 2.907-2.9 6.533-9.124 10.201L488.567 610.674c-15.803 9.314-40.519 15.437-55.008 13.567L8.602 569.409c-5.709-.737-8.507-2.587-8.6-5.11l.056-17.225c.427 2.266 3.22 3.922 8.544 4.609l424.957 54.833c14.489 1.87 39.205-4.254 55.008-13.567l260.025-153.246c6.348-3.741 9.368-7.438 9.113-10.373l.011 17.898z" fill="#374047"/><path d="M764.94 452.068 478.33 618.582c-10.874 6.318-15.042-6.338-9.21-28.38l111.709-422.24c6.223-23.521 20.04-46.28 30.761-50.726L892.993.53c8.418-3.491 10.379 10.631 4.451 31.464L790.609 407.452c-5.599 19.676-17.06 39.614-25.669 44.616z" fill="#656c72"/></svg></g><g transform="matrix(1.499658 0 0 1.499049 682.5 1702.5)"><svg width="754.172" height="268.17"><path d="M754.172 136.841c0 3.371-457.863 132.332-463.327 131.323S-1.099 98.518.003 95.264 483.838-.708 487.143.004s267.03 133.465 267.03 136.837z" fill="#f62"/><path d="M731.687 134.749c-87.943 26.907-188.678 22.845-216.801 64.402-51.852-6.635-124.263 26.342-219.387 54.354L19.094 94.009c92.545-24.219 186.217-58.695 227.42-44.879C295.056 9.313 388.131 14.979 472.6 5.326z" fill="#fff"/><path d="M514.879 206.652a7.47 7.47 0 0 1-3.653-.954L242.854 55.677a7.5 7.5 0 0 1 7.319-13.093l268.373 150.02a7.5 7.5 0 0 1-3.666 14.048z" fill="#e3e5e5"/><path d="M525.661 157.938a7.5 7.5 0 0 1-3.119-14.325c23.439-10.701 49.32-14.54 76.722-18.604 21.151-3.137 43.023-6.381 66.293-12.961a7.5 7.5 0 1 1 4.082 14.434c-24.197 6.842-46.554 10.158-68.175 13.365-27.465 4.074-51.185 7.592-72.693 17.411a7.473 7.473 0 0 1-3.11.68zm-114.075-46.903a7.501 7.501 0 0 1-4.013-13.842c14.368-9.077 33.292-16.127 51.919-19.344a7.5 7.5 0 0 1 2.553 14.782c-16.76 2.894-33.694 9.179-46.46 17.244a7.47 7.47 0 0 1-3.999 1.16zm82.651-23.98a7.5 7.5 0 0 1-1.096-14.919c16.63-2.478 49.582-8.266 67.208-13.25a7.501 7.501 0 0 1 4.082 14.434c-18.429 5.211-51.408 11.02-69.079 13.653a7.542 7.542 0 0 1-1.115.083zm33.789 34.366a7.501 7.501 0 0 1-1.258-14.893c7.702-1.32 15.44-2.468 23.633-3.684 21.152-3.137 43.025-6.382 66.295-12.962a7.496 7.496 0 0 1 9.258 5.176 7.5 7.5 0 0 1-5.176 9.258c-24.197 6.843-46.555 10.159-68.176 13.366l-23.299 3.631a7.598 7.598 0 0 1-1.276.108z" fill="#374047"/></svg></g><g transform="matrix(1.497076 0 0 1.495408 199.5 132)"><svg width="1003.957" height="1144.504"><clipPath id="A"><path d="M707.435 182.07c-2.874 19.408-8.774 49.254-15.747 77.673-9.196 37.484-60.173-2.467-49.956-52.479 14.887-72.869 72.893-73.747 65.703-25.194z"/></clipPath><path d="M730.097 418.487c75.714 40.884 196.984 232.577 221.47 337.198 19.838 31.888 52.919 88.481 52.326 159.941-.839 100.965-203.494 154.183-250.801 34.798-14.844-37.459-108.741-177.257-116.056-286.309s49.139-269.346 93.061-245.628z" class="D"/><path d="M412.837 311.3c28.432-12.965 123.336 9.585 164.031 40.655l-8.994 31.021-185.922-26.144 30.885-45.531z" class="B"/><rect height="276.259" rx="72.758" transform="matrix(.960444 .278472 -.278471 .960444 106.833 -129.525)" width="145.516" x="436.6" y="173.17" class="C"/><path d="M605.18 389.277s89.236 18.395 111.306 39.239 14.293 559.736-2.052 587.597c-47.128 80.332-352.391 116.75-539.889 24.042-78.806-38.965 51.497-642.292 85.828-655.779s93.381-25.403 121.579-27.544c24.194-1.837 223.229 32.446 223.229 32.446z" fill="#ffd215"/><path d="m566.293 376.208 38.888 13.069s-6.731 63.438-72.363 62.565-137.878-33.294-150.865-95.011h24.998l159.343 19.376z" class="C"/><g class="D"><path d="m470.893 443.966-3.645 59.24c13.322 138.715 32.061 377.355-28.852 603.823 0 0-246.951 7.363-295.446-67.987-22.688-35.253 54.699-642.639 101.973-656.066 49.47-14.05 112.03-26.144 137.028-26.144l88.942 87.135z"/><path d="M412.837 311.3c-6.411 17.637 30.512 97.21 58.056 132.666 0 0-67.7 38.963-72.759 55.747 0 0-60.26-101.869-54.761-138.756 0 0 51.517-40.104 69.463-49.658zm156.685 65.993c32.272 4.729 127.144 23.024 160.575 41.194 37.217 20.227 5.714 162.165 9.853 196.464 6.216 51.508 16.78 305.31-1.329 401.138-4.593 24.304-70.33 70.691-122.837 74.148 38.17-182.286 19.83-372.853-.51-573.449 10.431-55.784-8.653-100.896-45.752-139.495z"/><path d="M576.112 342.34c45.745 15.635 112.319 102.636 105.537 148.11 0 0-34.256-23.206-43.649-19.891s-22.727 46.228-22.727 46.228c.777 2.006-3.018-102.513-48.981-140.58l9.819-33.868z"/></g><g class="E"><path d="M738.619 1023.591a7.473 7.473 0 0 1-2.593-.465 7.499 7.499 0 0 1-4.443-9.631c19.416-52.684 5.267-342.722.891-397.952a7.5 7.5 0 0 1 6.884-8.069 7.483 7.483 0 0 1 8.069 6.884c2.655 33.513 19.998 345.26-1.77 404.323a7.503 7.503 0 0 1-7.038 4.909zM681.65 497.95c-1.655 0-3.3-.547-4.655-1.619-15.298-12.104-40.539-18.428-40.792-18.49a7.5 7.5 0 0 1-5.704-7.286c.01-18.674-5.317-43.736-13.902-65.407-7.304-18.438-20.303-43.211-40.75-56.524a7.5 7.5 0 0 1 8.184-12.57c23.754 15.467 38.404 43.106 46.511 63.569 8.534 21.543 13.933 45.447 14.825 65.215 5.965 1.805 15.877 5.179 25.713 10.187-4.492-19.399-14.561-51.833-34.772-73.575a7.5 7.5 0 0 1 10.987-10.213c33.674 36.222 41.479 95.761 41.794 98.278a7.502 7.502 0 0 1-7.441 8.434z"/><ellipse cx="456.703" cy="579.778" rx="9.069" ry="13.684" transform="matrix(.99805 -.062425 .062425 .99805 -35.3 29.639)"/><ellipse cx="461.717" cy="726.628" rx="9.069" ry="13.684" transform="matrix(.999749 -.022391 .022391 .999749 -16.16 10.524)"/><ellipse cx="456.703" cy="883.587" rx="13.684" ry="9.069" transform="matrix(.084704 -.996406 .996406 .084704 -462.389 1263.813)"/></g><path d="M710.806 135.083c17.36-11.911 29.234-52.212 7.622-76.279s-76.696-14.013-76.696-14.013 43.217 78.013 69.074 90.292z" class="B"/><path d="M693.562 81.877c16.891 25.95 21.064 51.64 13.873 100.193-6.666 45.007-29.6 146.14-44.454 155.464-22.856 14.346-140.515 15.374-179.054-58.354-43.001-82.265-16.956-196.533 49.326-225.82s133.765-12.265 160.309 28.517z" class="C"/><path d="M492.923 174.299c7.982 20.445 8.477 40.912 17.725 39.37s16.153-64.335 51.14-90.017c34.27-25.155 75.88-7.557 109.678-14.175 31.743-6.215 46.236-15.875 46.963-50.673 1.567-75.045-209.071-75.871-232.137-16.096 0 0-55.193 3.817-65.349 64.757-12.755 76.534 12.121 120.791 20.857 175.567l15.882-54.779z" class="B"/><path d="M492.923 174.299c-8.478-34.103-52.426-35.295-53.693 13.681-.824 31.855 18.497 46.242 31.342 42.645s29.026-29.474 22.351-56.326z" class="C"/><ellipse cx="597.73" cy="205.872" fill="#fff" rx="32.517" ry="27.673" transform="matrix(.142318 -.989821 .989821 .142318 308.889 768.22)"/><ellipse cx="603.001" cy="212.011" rx="25.086" ry="17.285" transform="matrix(.142318 -.989821 .989821 .142318 307.333 778.702)" class="B"/><path d="M655.102 263.494a7.5 7.5 0 0 1-7.146-9.785c.718-2.246-1.776-3.49-2.557-3.817-.971-.407-5.978-2.117-9.305 4.199a7.5 7.5 0 0 1-13.27-6.992c6.801-12.909 19.477-14.771 28.376-11.04 9.271 3.888 13.916 13.231 11.044 22.216a7.502 7.502 0 0 1-7.142 5.219z" class="F"/><path d="M625.647 166.397c11.628 4.676 17.378-15.493 7.303-20.89s-52.591-4.858-63.004 8.672c-3.313 4.304-1.821 12.218 5.016 9.34s35.964-3.041 50.685 2.879zm53.753 5.057c-11.321 2.482-15.258-16.84-3.598-19.912 15.191-4.002 36.307 6.354 41.592 14.27s1.708 17.753-3.52 13.795-24.682-10.3-34.473-8.153z" class="B"/><g class="F"><path d="M606.354 316.149c-16.499 0-31.438-8.351-35.908-21.267a7.5 7.5 0 0 1 14.175-4.907c2.925 8.45 16.692 13.257 29.463 10.286a7.498 7.498 0 0 1 9.004 5.605 7.5 7.5 0 0 1-5.605 9.004 49.138 49.138 0 0 1-11.129 1.278zM473.673 213.374a7.5 7.5 0 0 1-6.851-10.545c4.77-10.744-2.649-24.465-5.598-26.102a7.5 7.5 0 0 1 5.027-14.133c7.34 2.551 11.822 11.331 13.408 14.988 2.197 5.064 6.679 18.254.873 31.333a7.502 7.502 0 0 1-6.859 4.459zm-12.348-36.611h.002-.002z"/><path d="M462.488 200.7a7.502 7.502 0 0 1-6.892-4.536 7.498 7.498 0 0 1 3.922-9.854l12.592-5.423a7.497 7.497 0 0 1 9.854 3.922 7.498 7.498 0 0 1-3.922 9.854l-12.592 5.423a7.462 7.462 0 0 1-2.963.614zm114.07 147.625a7.51 7.51 0 0 1-1.855-.234c-23.167-5.897-64.482-19.22-80.899-42.192a7.5 7.5 0 0 1 12.204-8.722c9.964 13.943 36.352 27.203 72.396 36.378a7.5 7.5 0 0 1 5.418 9.118 7.503 7.503 0 0 1-7.263 5.652z"/></g><g clip-path="url(#A)"><ellipse cx="688.104" cy="212.968" fill="#fff" rx="30.175" ry="24.667" transform="matrix(.142318 -.989821 .989821 .142318 379.378 863.76)"/><ellipse cx="689.55" cy="218.837" rx="23.424" ry="15.503" transform="matrix(.142318 -.989821 .989821 .142318 374.809 870.226)" class="B"/></g><path d="M398.134 507.214a7.5 7.5 0 0 1-5.09-1.992c-12.27-11.339-28.793-42.631-39.725-68.612-8.767-20.835-22.653-58.639-17.152-77.728a7.498 7.498 0 0 1 9.283-5.13 7.5 7.5 0 0 1 5.13 9.283c-2.95 10.236 3.553 36.833 16.565 67.757 9.653 22.942 21.363 44.69 30.211 56.602 17.271-20.174 60.248-44.632 69.898-49.985a7.5 7.5 0 0 1 7.277 13.116c-26.022 14.441-64.763 40.102-69.418 51.935a7.5 7.5 0 0 1-6.979 4.754z" class="E"/><path d="M801.502 836.944l-248.938 74.714c-45.882 13.18 5.439 143.681 34.402 142.95 88.743-2.237 276.934-27.907 284.922-29.919 89.959-22.652 21.875-215.234-70.386-187.746z" class="C"/><g class="D"><path d="M826.611 798.654c-41.354-2.047-60.766 39.6-60.766 39.6-26.605 30.856 27.617 202.887 44.339 202.484 53.771-1.296 88.136-12.224 129.29-31.61 48.181-22.696 61.681-34.213 64.419-93.502 3.053-66.111-102.513-132.287-177.282-116.972z"/><path d="M702.552 865.157c25.733 18.779 57.203 143.786 36.726 181.808-7.323 13.597 61.724 8.645 70.906-6.227 15.111-24.474-8.007-188.479-44.339-202.484-27.807-10.719-71.988 20.552-63.293 26.903z"/></g><path d="M810.186 1048.24a7.5 7.5 0 0 1-7.158-9.745c4.646-14.823 5.728-55.016-.507-96.621-7.302-48.725-21.91-83.382-41.133-97.587a7.5 7.5 0 0 1-2.427-9.009c.872-2.015 21.897-49.29 68.484-44.077a7.5 7.5 0 0 1 6.618 8.288 7.498 7.498 0 0 1-8.288 6.619c-27.878-3.133-44.48 19.841-50.481 30.218 25.271 22.964 36.81 68.281 42.061 103.325 5.971 39.839 5.964 84.262-.015 103.332a7.503 7.503 0 0 1-7.154 5.258z" class="E"/><path d="M552.564 911.658c-29.25 10.756-112.907 52.871-125.593 72.664s16.27 114.622 64.555 103.682 84.711-20.773 95.439-33.396-34.402-142.95-34.402-142.95z" class="C"/><path d="M702.546 872.659a7.501 7.501 0 0 1-6.673-10.913c10.056-19.685 38.494-37.186 71.39-30.856a7.5 7.5 0 0 1 5.947 8.782 7.495 7.495 0 0 1-8.783 5.947c-24.77-4.771-47.52 7.924-55.196 22.951a7.5 7.5 0 0 1-6.685 4.089zM951.57 763.185a7.482 7.482 0 0 1-5.742-2.671c-13.553-16.105-35.713-32.707-35.935-32.873a7.5 7.5 0 0 1 8.966-12.026c.964.718 23.759 17.787 38.445 35.24a7.5 7.5 0 0 1-5.734 12.329zM615.274 524.289a7.5 7.5 0 0 1-7.102-9.915c3.286-9.669 14.82-41.834 25.291-49.788a7.5 7.5 0 0 1 9.073 11.945c-4.707 3.575-14.131 24.932-20.162 42.669a7.505 7.505 0 0 1-7.101 5.087z" class="E"/><path d="M244.924 382.975C155.087 411.59 131.3 479.663 79.583 620.331S17.508 872.56 11.317 899.237c-7.06 30.423 234.595-65.306 253.213-84.958s25.605-45.005 23.536-69.828 6.498-52.493 30.288-85.592.748-299.512-73.431-275.884z" class="D"/><path d="M231.106 907.589l311.402 91.118c45.808 13.437 66.293 135.789 21.749 144.273-38.478 7.329-300.592-12.743-405.376-39.985-89.783-23.343-19.821-223.603 72.225-195.406z" class="C"/><g class="D"><path d="M11.317 899.238c-36.22 114.74 20.59 185.323 84.287 188.766 0 0 3.4 26.016 26.418 29.339 24.997 3.609 57.292-3.516 57.292-3.516s67.37-228.6 85.216-240.154c23.679-15.331 19.366-39.77 0-59.393-20.558-20.83-227.648 3.973-253.213 84.958z"/><path d="M316.527 932.954c-24.06 25.444-81.403 93.628-50.613 190.393 5.653 17.765-88.42 14.171-91.602 6.074-31.637-80.486 5.946-229.811 90.219-255.748 19.203-5.91 63.307 47.32 51.997 59.281z"/></g><path d="M810.309 1077.853l-1.111 24.912c-.151 3.382-4.166 5.067-6.685 2.805l-18.556-16.66-115.296-274.755c-3.054-7.277.37-15.651 7.647-18.705s15.651.37 18.705 7.647l115.296 274.755z" class="B"/><g class="C"><path d="M542.508 998.708c33.859-8.022 101.841-62.952 129.651-62.946 16.168.003 37.198 157.443 13.905 164.637-30.591 9.449-64.79 35.706-121.807 42.582-44.476 5.364-21.749-144.273-21.749-144.273z"/><path d="M672.16 935.762c17.799-3.893 83.385.846 103.312 13.511 8.554 5.437 38.837 64.762 44.004 84.497 5.73 21.888-26.777 37.475-40.489 8.102-6.173-13.222-28.49-50.657-28.49-50.657l-66.571-9.751-11.766-45.701z"/><path d="M682.816 977.154c12.454-4.524 79.857-2.658 94.496 9.877 8.729 7.474 6.035 60.643 2.008 80.564s-44.882 21.093-41.628-7.536l4.404-41.144-55.116-2.646-4.163-39.115z"/><path d="M686.979 1016.269c12.895-5.047 77.336-3.477 82.123 4.759s17.329 53.856 12.174 59.38-22.953 14.428-34.775 19.948c-26.085 12.179-38.583-27.626-14.308-38.686 8.265-3.766 9.521-4.512 9.521-4.512l-.884-4.002-56.469 8.589z"/><path d="M684.361 1056.644c12.017-3.983 50.859-11.692 57.007-6.598s15.594 46.326 11.91 56.681-25.169 19.674-41.13 25.384c-26.36 9.43-31.847-29.716-15.726-35.299l18.989-6.576-29.345 10.163-1.704-43.755z"/></g><g class="F"><path d="M782.506 1054.792a7.5 7.5 0 0 1-7.438-8.53c2.964-21.426 2.62-48.152-3.103-53.971-.594-.603-6.778-5.949-40.901-8.005-20.923-1.26-40.584-.563-47.283.306-4.113.534-7.869-2.365-8.402-6.473s2.365-7.87 6.473-8.402c8.857-1.149 30.026-1.614 50.115-.404 40.859 2.462 48.261 9.987 50.692 12.459 13.768 13.997 8.469 57.894 7.267 66.551a7.501 7.501 0 0 1-7.419 6.469z"/><path d="M780.626 1067.146l-.154-.001a7.5 7.5 0 0 1-7.347-7.65c.113-6.494-1.342-25.134-9.341-33.177-.216-.216-5.674-5.306-40.138-4.715-18.481.316-35.712 2.108-35.884 2.126-4.115.423-7.81-2.555-8.243-6.675a7.5 7.5 0 0 1 6.675-8.243c.729-.077 18.063-1.879 37.196-2.206 36.541-.619 46.472 4.554 51.028 9.136 13.9 13.977 13.764 41.02 13.702 44.058a7.501 7.501 0 0 1-7.495 7.349zm-26.528 37.072a7.5 7.5 0 0 1-7.476-7.002c-1.091-16.359-5.256-36.858-9.582-41.007-6.65-2.201-39.168 3.032-49.852 7.381a7.5 7.5 0 0 1-5.655-13.893c6.394-2.603 19.592-5.665 32.096-7.446 25.337-3.61 30.26.244 32.363 1.89 11.891 9.313 14.944 42.219 15.597 52.083a7.5 7.5 0 0 1-7.491 7.995zm-68.034 3.683a7.501 7.501 0 0 1-2.453-14.589l29.346-10.163a7.5 7.5 0 0 1 4.908 14.174l-29.346 10.163a7.478 7.478 0 0 1-2.455.415z"/></g><g class="E"><path d="M316.532 940.454a7.5 7.5 0 0 1-7.499-7.819c1.556-36.621-46.201-51.639-46.683-51.787a7.51 7.51 0 0 1-5.228-6.035 7.5 7.5 0 0 1 3.163-7.325c5.165-3.544 8.152-7.992 9.133-13.597 2.775-15.844-10.836-35.037-10.975-35.229a7.52 7.52 0 0 1-1.265-5.85 7.506 7.506 0 0 1 3.409-4.915c14.813-9.151 18.001-36.631 19.998-63.994 2.267-31.077 13.48-62.783 31.575-89.276a7.5 7.5 0 0 1 12.386 8.46c-16.625 24.341-26.924 53.429-29.001 81.907-2.124 29.109-5.434 56.403-21.049 71.047 4.917 8.584 12.405 24.812 9.707 40.375-.942 5.433-2.993 10.303-6.125 14.568 5.074 2.347 11.295 5.667 17.492 10.089 19.471 13.899 29.309 31.949 28.448 52.197a7.5 7.5 0 0 1-7.488 7.182z"/><path d="M166.625 1123.563a7.501 7.501 0 0 1-7.396-6.313c-8.979-55.953-2.003-114.291 19.644-164.265 20.511-47.352 51.943-79.743 84.083-86.645a7.5 7.5 0 0 1 3.15 14.666c-27.414 5.887-54.878 35.024-73.468 77.941-20.227 46.697-27.005 103.53-18.597 155.926a7.5 7.5 0 0 1-7.415 8.69zm-71.021-28.059a7.475 7.475 0 0 1-5.162-2.06c-14.457-13.722-21.044-38.846-21.318-39.909a7.5 7.5 0 1 1 14.528-3.736c.055.212 5.812 22.036 17.117 32.766a7.5 7.5 0 0 1-5.164 12.94zM11.32 906.74a7.5 7.5 0 0 1-7.191-9.643c13.033-43.741 28.977-56.349 30.752-57.643l8.835 12.122.101-.076c-.136.107-13.758 11.102-25.313 49.879a7.503 7.503 0 0 1-7.185 5.36z"/></g><path d="M540.975 1006.346c-5.052 0-17.693-1.919-56.987-14.526-23.863-7.657-46.417-15.691-46.642-15.771a7.5 7.5 0 1 1 5.039-14.127c42.468 15.147 91.069 30.273 98.922 29.385 5.85-.993 28.938-13.769 49.308-25.041 38.781-21.46 67.28-36.748 80.843-38.011 11.768-1.096 42.852-.215 44.169-.177 4.141.12 7.4 3.573 7.281 7.713s-3.582 7.387-7.713 7.281c-.314-.01-31.483-.894-42.346.119-11.485 1.07-48.179 21.375-74.971 36.2-29.183 16.148-46.084 25.351-54.115 26.713-.63.106-1.438.244-2.788.244z" class="F"/></svg></g></svg>