<svg xmlns="http://www.w3.org/2000/svg" width="3000" height="3000" xmlns:v="https://vecta.io/nano"><style><![CDATA[.B{fill:#a85f36}.C{fill:#111}.D{fill:#ffd215}.E{fill:#773a11}.F{fill:#c83400}.G{fill:#5917c1}.H{fill:#330096}.I{fill:#e3e5e5}.J{fill:#8f969e}]]></style><g transform="matrix(1.20042 0 0 1.200009 549.6 166.8)"><svg width="1582.446" height="2221.983"><clipPath id="A"><path d="M.518 0h1581.928v2221.983H.518z"/></clipPath><clipPath id="B"><path d="M1140.675 190.417c0 13.364 9.507 24.197 21.234 24.197s21.235-10.833 21.235-24.197-9.507-24.198-21.235-24.198-21.234 10.833-21.234 24.198"/></clipPath><clipPath id="C"><path d="M.518 0h1581.928v2221.983H.518z"/></clipPath><clipPath id="D"><path d="M1080.537 160.711l-5.949 69.64c-1.879 35.489 44.653-3.111 45.581-39.934.441-17.518-30.733-30.368-38.092-30.368-.953 0-1.505.215-1.54.662"/></clipPath><clipPath id="E"><path d="M1080.062 166.572l-3.924 42.501a17.274 17.274 0 0 0 6.932 1.453c10.716 0 19.403-9.899 19.403-22.109s-8.687-22.11-19.403-22.11a17.21 17.21 0 0 0-3.008.265"/></clipPath><g clip-path="url(#A)"><path d="M1006.341 364.234c-22.789 14.092-46.443 63.371-52.356 85.054s-48.293 95.6-53.221 171.489c0 0-46.322 81.804-61.106 114.328s152.885 132.066 183.317 73.918 65.696-179.375 77.631-221.755-94.265-223.034-94.265-223.034" fill="#f62"/><path d="M1282.756 1108.127c-13.84 7.042-61.64-.013-111.467-50.523s56.653-43.685 87.369-17.065 49.561 54.632 24.098 67.588" class="C"/><g class="D"><path d="m617.194 289.02 152.855 19.424-22.226 174.905-152.855-19.424z"/><path d="M770.164 308.889c1.448-11.398-31.595-24.987-73.805-30.351s-77.798-1.871-79.247 9.528 31.792 26.386 74.002 31.75 77.602.472 79.05-10.927z"/></g><ellipse cx="693.883" cy="299.17" fill="#ce9800" rx="15.557" ry="67.199" transform="matrix(.12606 -.992023 .992023 .12606 309.628 949.803)"/><g class="D"><ellipse cx="671.397" cy="473.637" rx="20.805" ry="77.042" transform="matrix(.12606 -.992023 .992023 .12606 116.901 1079.971)"/><path d="M593.174 442.792c-38.231-4.858-65.723-37.221-61.286-72.142s39.15-59.379 77.381-54.521 65.724 37.221 61.286 72.142-39.151 59.379-77.382 54.521zm13.196-103.846c-26.063-3.312-49.576 12.168-52.415 34.508s16.056 43.209 42.118 46.521 49.577-12.168 52.416-34.508-16.056-43.209-42.119-46.521z"/></g><path d="M751.595 442.935s19.168 22.615.527 50.549c-5.802 8.695-17.63 28.2-38.894 37.277-17.97 7.671-43.509 6.027-69.35 3.187 0 0 .84-15.104-28.591-33.365-20.926-12.984-36.956-22.184-43.931-29.736-1.483-1.606-6.043-14.601-3.832-22.927.38-1.43.96-2.723 1.789-3.797 2.158-2.792 5.915-4.715 10.052-6.063 6.895-2.246 14.845-2.894 18.204-3.299 14.128-1.702 20.303-3.352 25.872-3.352 15.319 0 24.34 25.99 5.021 31.309-.259.071 123.133-19.783 123.133-19.783z" class="B"/><path d="M752.761 444.497l-5.576 40.562s-2.08 4.375-9.957 7.149c-10.245 3.607-29.074 5.702-53.354 4.21-15.924-.978-34.953-4.244-57.199-11.359-7.511-2.402-13.157-5.603-21.447-8.936l8.425-9.702c-.433.456 10.823-1.699 15.451-3.803l8.509-3.908c5.426-2.765 112.38-21.651 112.38-21.651l2.767 7.438z" class="D"/><g class="B"><path d="M756.183 418.757s35.473-49.266 36.452-66.114-12.962-18.831-21.802-15.262-7.294 22.664-7.294 22.664l-7.357 58.713zm-112.146-12.762c1.097 5.726.367 13.65-6.128 17.872-3.06 1.99-7.514 2.526-11.142 2.071-12.292-1.541-48.728-7.42-54.045-14.077-6.345-7.943-7.586-22.033 7.682-29.825 14.663-7.483 41.354 6.89 53.108 12.478 4.835 2.299 9.504 6.152 10.525 11.48z"/><path d="M637.212 391.101s-49.111-9.09-60.465-16.764c-10.327-6.98-2.559-33.492 14.014-28.937 18.653 5.127 44.564 12.515 52.734 16.771 10.568 5.504 5.531 29.017-6.283 28.931zm-45.033-85.748c1.206-5.069 4.099-9.653 8.467-12.495 1.348-.877 2.838-1.589 4.412-1.927 6.297-1.352 11.701 1.937 11.623 2.133-.354.892-.27 6.282-1.074 8.452-.371 1 3.52 4.017 4.22 6.487.73 2.578.741 5.306.663 5.839-1.581 10.852-12.436 16.461-23.168 8.987-6.858-4.776-6.381-12.268-5.142-17.476z"/></g><path d="M596.458 476.201c-7.297 0-11.658-.888-11.949-.949a5 5 0 0 1-3.866-5.921 5.007 5.007 0 0 1 5.906-3.869c.141.028 10.212 1.999 25.483-.649a5 5 0 1 1 1.709 9.853c-6.76 1.172-12.621 1.535-17.283 1.535zm174.185-101.29a4.991 4.991 0 0 1-3.911-1.881c-4.816-6.034-6.349-13.81-6.411-14.137a5 5 0 0 1 9.819-1.897c.019.094 1.174 5.744 4.409 9.796a5 5 0 0 1-3.905 8.12zm-138.037 22.958c-.391 0-.788-.046-1.185-.143l-49.314-11.985a5 5 0 0 1-3.678-6.04 4.998 4.998 0 0 1 6.039-3.678l49.314 11.985a5 5 0 0 1-1.176 9.86z" class="E"/><g fill="#f62"><path d="M914.714 713.248l-45.563-39.184s1.137-21.071-32.054-36.39c0 0 1.532-54.638-12.255-78.128s-44.426-29.106-44.426-29.106l-131.745 29.617s-8.628 10.216-13.277 20.936c-3.913 9.025-3.896 18.457-4.596 21.957-1.34 6.702 3.999 34.399 20.936 54.638 7.53 8.999 7.249 16.313 11.729 27.158 2.485 6.015 4.717 12.176 5.633 16.757 2.553 12.766 10.213 44.426 29.106 58.213s125.106 41.872 125.106 41.872l91.404-88.34z"/><path d="M752.289 492.313c8.569-11.391 39.454 27.499 34.238 41.393-9.776 26.044-97.737 66.22-120.326 56.606-17.384-7.398-22.763-59.994-22.763-59.994 30.539 11.929 89.132-2.91 108.851-38.006"/></g><path d="M679.673 589.687c-2.59 0-5.067-.143-7.416-.433-15.913-1.964-26.513-10.46-30.651-24.57a5 5 0 1 1 9.596-2.814c3.013 10.271 10.301 15.982 22.28 17.46 37.436 4.62 99.795-32.706 111.094-51.95a5 5 0 0 1 6.843-1.78 4.998 4.998 0 0 1 1.78 6.843c-6.841 11.653-26.671 26.987-50.52 39.067-23.205 11.754-45.652 18.178-63.006 18.178zm147.209 63.199a5.001 5.001 0 0 1-3.667-8.397c8.917-9.629 5.145-32.281 2.938-40.197a5 5 0 0 1 9.633-2.685c.385 1.382 9.264 34.019-5.233 49.676a4.987 4.987 0 0 1-3.67 1.603zm52.809 82.28a5.001 5.001 0 0 1-4.478-7.217c1.298-5.22-3.295-36.875-8.344-63.49a4.999 4.999 0 1 1 9.824-1.864c.029.152 2.92 15.425 5.333 31.237 5.124 33.584 3.224 36.778 1.966 38.891a5 5 0 0 1-4.302 2.443zm-4.292-7.558h0z" class="F"/><path d="M905.425 790.837c-69.723-15.425-516.166-186.692-648.608-36.742-57.129 64.682 14.796 161.009 109.759 179.007 98.771 18.719 517.747 119.581 517.747 119.581 131.402 19.711 148.491-225.784 21.102-261.846" class="G"/><path d="M1462.697 384.826c23.018 34.479 47.335 58.797 54.54 76.81s15.311 82.859 23.417 99.972 33.734 102.199 39.628 134.197c6.305 34.225-2.557 73.658-8.861 92.571s14.266 90.261-6.45 122.684-41.881 49.683-59.585 60.812c-30.432 19.129-169.18-80.626-170.981-191.406 0 0-19.814-17.113-9.907-81.959s-10.808-130.595-10.808-130.595c7.001-91.227 55.16-153.324 149.007-183.086" fill="#f62"/><path d="M1298.081 1050.155c-37.045 37.874-306.914 215.035-407.759 293.605-56.99 44.401-336.982-71.072-278.878-159.992 50.158-76.758 311.291-265.766 397.34-303.462s289.297 169.849 289.297 169.849" class="G"/><path d="m325.703 1730.663-116.986 170.652c-21.613 34.387 18.869 128.288 70.468 183.83 41.005 44.138 91.247 54.271 109.702 25.702 19.041-29.477 149.386-239.088 180.766-305.021 37.793-79.408-198.462-167.76-243.95-75.162" class="B"/><g class="G"><path d="M611.444 1183.768c-32.612 52.936-107.067 185.972-160.964 266.211-13.434 19.999-52.074 76.771-66.359 108.187-3.966 8.721-8.32 22.013-11.776 30.638-11.129 27.774-41.507 47.652-49.501 72.766-13.707 43.063-2.908 82.947-20.457 108.016 0 0 271.526 24.141 236.654 153.941 0 0 56.112 5.735 104.739-26.367 24.818-16.384 42.037-51.702 60.511-83.93 26.838-46.821 25.743-135.559 39.304-176.242s98.219-251.556 146.725-293.228c70.912-60.92-223.132-250.475-278.877-159.991"/><path d="M280.717 1796.378c-7.145-10.442 18.124-46.177 40.596-75.83 12.249-16.162 15.729-33.234 30.982-37.154 42.199-10.844 162.082 38.313 201.991 113.885s-6.789 112.891-11.883 126.477-67.224 45.099-67.224 45.099c2.39-45.328 11.151-63.711-26.119-112.869-23.938-31.574-43.773-41.233-64.165-49.669-29.856-12.352-60.556-13.859-104.177-9.939"/></g><path d="M547.531 1913.975a5 5 0 0 1-2.515-9.325c124.498-72.262 147.234-179.906 160.819-244.22 2.97-14.057 5.534-26.198 8.645-36.07l10.688-34.217c33.806-108.702 60.508-194.562 131.749-276.327 48.771-55.976 140.482-108.339 221.397-154.539 47.913-27.357 93.169-53.197 120.223-74.948l77.518-62.345a5 5 0 0 1 6.268 7.791l-77.521 62.347c-27.672 22.249-73.263 48.28-121.53 75.839-80.226 45.806-171.156 97.724-218.816 152.424-69.857 80.177-96.283 165.149-129.739 272.727a9602.738 9602.738 0 0 1-10.7 34.253c-2.964 9.409-5.482 21.329-8.397 35.131-6.909 32.71-16.371 77.508-39.931 122.5-28.029 53.527-69.13 95.495-125.653 128.302a4.978 4.978 0 0 1-2.505.676z" class="H"/><path d="M237.824 1866.801s26.809 41.362-4.596 112.596l100.851 161.407c9.191 15.319 12.28 41.713 12.255 41.872-4.596 29.152-68.681 36.511-68.681 36.511l-248.17-388.386-28.965 23.024s-13.673-90 99.433-68.982c93.335 17.344 137.872 81.957 137.872 81.957z" class="D"/><path d="M.946 1837.926c-4.583 37.579 27.823 142.953 91.145 194.762s41.81 85.106 82.51 133.358c45.792 54.291 78.234 66.035 132.34 48.187 35.625-11.751 28.175-45.275-42.155-135.38-65.549-83.981-127.603-229.414-174.614-258.197s-84.429-22.067-89.226 17.27" class="I"/><path d="m1045.225 863.222 139.801-12.662 16.644 114.281-156.445 9.399c-28.09 2.27-35.879-109.556 0-111.018" class="B"/><path d="M1006.341 364.234c37.356-14.01 103.157-32.823 157.59-39.57s124.52-3.473 124.52-3.473 137.899 28.57 174.246 63.634c0 0-33.318 165.307-57.549 213.77s18.672 283.652 14.134 355.392c-5.213 82.413-26.862 128.992-101.485 134.238-9.365 8.26-21.265 15.164-35.041 19.901 25.127-19.295-5.194-62.255-182.174-133.265-174.221-69.903-232.335-191.582-232.335-191.582l57.785 27.032 2.269-48.325s-18.436-47.725 35.635-164.401c41.198-88.899 42.405-233.351 42.405-233.351" fill="#f62"/><path d="M1317.804 1093.225a5 5 0 0 1-4.99-5.394c1.642-20.784-17.971-54.325-45.716-66.418a5.001 5.001 0 0 1 3.996-9.167c31.937 13.92 53.63 51.802 51.688 76.372a5 5 0 0 1-4.979 4.606zM945.359 780.358a5 5 0 0 1-4.903-4.054c-7.479-38.761 3.768-98.333 11.979-141.831l6.546-37.552c2.926-21.827 11.074-48.44 18.954-74.177 6.642-21.692 12.915-42.18 15.416-57.735a4.993 4.993 0 0 1 5.73-4.143 5 5 0 0 1 4.143 5.73c-2.61 16.236-8.982 37.044-15.728 59.075-7.762 25.351-15.788 51.564-18.604 72.577-1.364 10.179-3.805 23.108-6.631 38.078-8.063 42.707-19.104 101.195-11.987 138.082a5.001 5.001 0 0 1-4.915 5.949z" class="F"/><path d="m1271.848 215.442 18.389 106.045s36.387 7.248 43.645 10.391c1.577.683-208.9-1.031-208.9-1.031l40.416-8.651-8.918-87.301c-3.36-42.928 108.408-56.343 115.368-19.452" class="B"/><path d="M800.098 1012.459a4.999 4.999 0 0 1-2.652-9.242l115.131-73.18a5 5 0 0 1 5.539 8.325c-31.571 21.008-114.54 72.817-115.375 73.338a4.974 4.974 0 0 1-2.643.759z" fill="#2199ce"/><path d="M729.591 992.254s151.426 25.688 228.829 51.018c3.48 1.139 38.468 15.66 36.426 41.191-5.822 72.772-98.131 217.018-158.298 241.362-35.404 14.325-66.462-54.89-91.753-65.266l-210.701-95.619c6.661-109.385 62.642-175.082 195.497-172.686" class="B"/><g class="G"><path d="M256.817 754.095c-35.423 42.538-56.432 141.321-12.833 255.26 37.794 98.772 113.383 100.774 148.563 143.619 52.807 64.31 160.085 146.298 234.383 58.213 55.951-66.334 69.454-180.518 137.812-202.015-67.982-27.207-175.157-127.77-246.613-133.443-85.716-94.239-261.312-121.634-261.312-121.634"/><path d="M699.696 1230.336c5.362-88.851 77.484-214.827 114.76-220.416-14.763-29.786-68.391-22.161-68.391-22.161-56.339 20.3-122.719 73.405-119.135 223.428l34.747 16.063z"/></g><g class="H"><path d="M687.665 1236.505c-18.233 0-36.384-6.827-49.462-13.278-10.304-5.083-16.355-15.749-15.419-27.174 5.381-65.607 31.021-117.17 45.825-142.067 5.897-9.918 17.473-15.212 28.8-13.176 18.586 3.341 44.669 9.769 63.382 21.421a4.999 4.999 0 1 1-5.285 8.488c-18.283-11.385-45.355-17.46-59.866-20.068-7.249-1.303-14.655 2.092-18.435 8.445-14.363 24.154-39.238 74.172-44.454 137.773-.6 7.308 3.277 14.133 9.876 17.388 12.12 5.978 35.516 15.38 56.067 11.178a5 5 0 0 1 2.004 9.798c-4.304.88-8.671 1.271-13.033 1.271z"/><path d="M705.312 1197.568c-.117 0-.235-.004-.354-.012-1.431-.1-35.511-2.74-75.713-27.455a5 5 0 1 1 5.236-8.519c37.983 23.35 70.854 25.975 71.182 25.999a5.003 5.003 0 0 1 4.629 5.343 4.999 4.999 0 0 1-4.979 4.645zm21.354-65.843c-.491 0-.99-.073-1.483-.226a756.31 756.31 0 0 1-34.519-11.797c-32.52-12.089-39.428-17.99-41.813-21.78a5 5 0 1 1 8.463-5.327c3.563 5.659 39.54 19.643 70.831 29.352a5 5 0 0 1-1.479 9.777zM576.46 1250.948a5 5 0 0 1-.478-9.977c31.577-3.068 49.183-35.249 49.356-35.573a5.004 5.004 0 0 1 6.765-2.05 4.997 4.997 0 0 1 2.059 6.757c-.809 1.519-20.228 37.226-57.213 40.82a5.049 5.049 0 0 1-.489.024z"/></g><path d="M714.656 988.164a4.976 4.976 0 0 1-2.584-.723c-5.73-3.469-13.86-9.657-24.153-17.492-34.83-26.514-93.125-70.89-154.837-83.65-37.54-7.763-52.709-43.701-53.336-45.227a5 5 0 1 1 9.248-3.803c.132.317 13.866 32.568 46.113 39.237 63.937 13.22 123.363 58.458 158.869 85.487 10.056 7.655 17.999 13.701 23.273 16.895a5 5 0 0 1-2.594 9.278z" fill="#2199ce"/><path d="m1074.092 1079.57-89.077 173.49-209.106 245.872s-94.213 1.532-26.043-238.979c0 0 65.872-92.681 216-53.617 0 0 59.572-134.882 71.873-138.894 11.745-3.83 29.412 6.696 36.353 12.127z" class="D"/><path d="M943.8 1283.635c-38.375 55.814-120.134 71.783-160.6 114.056-31.748 33.166-50.389 99.32-9.608 118.012s172.096-89.529 218.855-184.342 108.126-216.009 81.645-251.791c-16.556-22.373-81.479 133.071-130.292 204.065" class="I"/><path d="M384.032 1156.594a5.002 5.002 0 0 1-4.585-3c-12.104-27.71-27.151-51.1-41.702-73.719-18.571-28.868-34.609-53.799-40.253-81.082a5 5 0 0 1 3.884-5.909 4.995 4.995 0 0 1 5.909 3.883c5.267 25.463 20.839 49.669 38.869 77.698 14.077 21.882 30.031 46.683 42.457 75.126a5 5 0 0 1-4.579 7.002z" class="H"/><g class="J"><path d="M606.915 1041.056 382.061 849.618c-4.551-3.875.759-8.664 11.773-10.738l275.826-51.928c10.098-1.901 23.367-.787 29.74 2.521l309.924 160.882c11.33 5.203 9.286 13.038-3.034 15.851l-358.063 81.593c-14.522 3.309-33.105.244-41.312-6.743"/><path d="M380.431 846.832v13.939c-.009 1.007.514 2.013 1.631 2.964l224.853 191.439c8.207 6.987 26.79 10.052 41.312 6.742l358.063-81.592c6.453-1.471 9.994-3.989 10.531-6.862l-.163-16.327c.235 4.13-2.302 7.234-10.368 9.072L648.227 1047.8c-14.522 3.308-33.105.244-41.312-6.743L382.062 849.618c-1.052-.895-1.577-1.839-1.627-2.786z"/></g><path d="M772.318 913.391c-3.723 0-7.577-.908-10.117-2.506l-78.543-49.43c-2.517-1.583-3.717-4.069-3.21-6.649.337-1.712 1.721-4.728 7.21-5.69l79.441-13.894c4.081-.714 9.27-.023 12.34 1.642l84.803 45.99c4.378 2.374 4.381 5.761 4.179 7.106-.21 1.395-1.279 4.756-6.674 5.842l-85.477 17.215a20.187 20.187 0 0 1-3.952.374zm-4.791-10.97c1.047.658 4.35 1.281 6.768.793l77.67-15.643-77.293-41.917c-.9-.489-3.756-.948-5.849-.582L696.5 857.721z" fill="#656c72"/><path d="M614.583 1022.762 415.589 855.863c-3.76-3.154-1.268-6.722 5.52-8l158.103-29.765c6.583-1.239 15.698.091 20.413 2.999L847.839 974.22c7.96 4.911 7.632 10.381-.85 12.156l-204.716 42.837c-8.834 1.848-21.275-1.071-27.69-6.451" class="C"/><path d="m602.306 1053.732-233.962-199.28c-4.77-4.063-9.088-16.96-9.702-28.905l-56.831-327.401c-.701-13.627-.793-24.052 7.721-21.751l251.226 83.048c9.337 3.086 17.048 20.87 17.059 39.547l39.928 439.777c.009 15.575-6.964 22.184-15.439 14.965" class="J"/><path d="M635.998 1054.347c-8.442 0-15.607-2.411-22.948-7.464a5 5 0 0 1 5.67-8.238c7.43 5.114 14.456 7.454 28.397 4.278l358.062-81.593a5 5 0 0 1 2.222 9.75l-358.063 81.593c-4.857 1.106-9.249 1.673-13.341 1.673z" fill="#656c72"/><path d="M932.572 806.263a5 5 0 0 1-4.776-6.487c9.924-31.905 36.479-46.59 37.605-47.199a5 5 0 0 1 4.768 8.79c-.349.192-24.165 13.538-32.825 41.379a5.002 5.002 0 0 1-4.772 3.516zm401.838-20.797a4.999 4.999 0 0 1-4.261-2.376c-10.182-16.514-18.511-38.291-10.581-85.413 8.173-48.576-7.504-115.611-10.729-128.555a5 5 0 1 1 9.704-2.418c3.31 13.282 19.39 82.1 10.888 132.633-7.382 43.864.074 63.654 9.231 78.505a5 5 0 0 1-4.251 7.625zm17.195-321.939a5 5 0 0 1-3.809-8.237c16.511-19.442 72.793-68.752 114.106-75.401a5.001 5.001 0 0 1 1.589 9.873c-38.19 6.146-92.786 53.998-108.073 72.001a4.988 4.988 0 0 1-3.813 1.764zm-347.842-43.545a5 5 0 0 1-4.995-5.313c.082-1.314 2.104-32.429 9.486-54.461a5 5 0 0 1 9.482 3.178c-6.963 20.775-8.969 51.601-8.988 51.91a5 5 0 0 1-4.985 4.686z" class="F"/><g class="B"><path d="M1045.225 863.222c-15.294-6.326-96.52-47.496-112.655-61.96s-61.197 116.275-33.38 139.085 69.543 47.29 95.691 45.621 41.797-7.701 50.344-11.728c25.825-12.169 25.319-100.654 0-111.018"/><path d="M932.57 801.261c-23.177-15.97-45.283-44.918-55.283-47.024s-73.992 19.766-84.609 23.512c-16.656 5.877-12.237 36.49 9.869 30.7s60.528-17.369 60.528-17.369l42.107 48.09z"/><path d="M923.137 831.59s-55.558-20.556-71.309-18.541-64.476 43.698-72.179 49.576c-15.316 11.689.806 37.887 21.765 23.78l52.397-34.86 51.614 18.738z"/><path d="M915.076 860.571s-50.318-18.904-63.248-14.874-53.828 35.207-61.964 40.456c-16.271 10.496-.139 38.571 20.418 26.264s44.738-28.027 44.738-28.027l47.561 13.301z"/><path d="M911.475 895.635c-10.47-5.404-48.974-19.928-58.094-18.577s-35.442 23.477-44.825 33.289c-15.971 16.699 4.97 37.978 21.183 23.454a1039.671 1039.671 0 0 1 24.655-21.384l44.796 27.93z"/></g><g class="E"><path d="M783.999 894.495a5 5 0 0 1-2.803-9.143c2.294-1.55 56.316-38.026 68.379-44.118 11.025-5.569 33.911 2.211 58.388 11.392l8.763 3.224a5.001 5.001 0 0 1-3.297 9.441c-2.523-.881-5.515-2.003-8.978-3.302-13.744-5.155-42.347-15.883-50.368-11.829-11.501 5.808-66.732 43.102-67.289 43.478a4.97 4.97 0 0 1-2.794.857zm18.85 25.985a5 5 0 0 1-3.448-8.621c6.507-6.195 39.646-37.223 53.067-39.716 12.079-2.241 31.71 6.264 50.696 14.491a916.316 916.316 0 0 0 10.241 4.39 5 5 0 1 1-3.861 9.224 923.287 923.287 0 0 1-10.356-4.438c-15.957-6.914-35.811-15.518-44.895-13.835-7.708 1.432-32.708 22.572-47.998 37.126a4.989 4.989 0 0 1-3.446 1.379zm120.289-83.888a5.008 5.008 0 0 1-1.576-.256l-34.671-11.512a5 5 0 0 1 3.15-9.491l34.671 11.512a5 5 0 0 1-1.574 9.747z"/></g><g fill="#f62"><path d="M1505.386 971.872c-31.482 19.777-58.324 15.057-74.611 15.744s-60.344 35.125-98.171 37.827-116.243-32.729-140.307-22.59-93.862 35.199-104.67-21.542-9.868-115.674 7.205-138.7c28.684-38.686 72.953-26.119 113.482-18.013 0 0 44.132-20.715 74.754-17.113 0 0 34.679-36.469 89.08-25.478 86.315 17.44 194.484 151.391 133.238 189.865"/><path d="M1045.225 863.222c-8.381-11.53 37.85-29.668 49.607-20.611 22.039 16.976 34.685 112.847 18.876 131.629-12.166 14.454-64.03 4.191-64.03 4.191 20.351-25.705 23.327-86.075-4.453-115.209"/></g><g class="F"><path d="M1088.089 986.314c-.174 0-.347 0-.521-.003a5 5 0 0 1-4.94-5.06c.033-2.761 2.288-4.951 5.06-4.94 10.741.131 18.257-4.85 22.89-15.222 6.201-13.883 6.738-36.737 1.473-62.702-4.613-22.746-13.013-43.802-20.9-52.396a5 5 0 0 1-.428-6.226c14.657-21.183 40.128-31.276 73.643-29.187 20.028 1.248 37.101 6.413 43.271 8.484 20.536-12.605 63.104-15.857 73.131-16.46 14.939-15.815 35.526-24.534 61.229-25.922 22.629-1.223 42.683 3.755 50.256 5.951a5 5 0 0 1 3.409 6.195 4.997 4.997 0 0 1-6.194 3.409c-11.403-3.307-69.941-17.953-102.674 18.585a5.004 5.004 0 0 1-3.496 1.659c-.526.024-52.838 2.57-72.093 16.199a5.004 5.004 0 0 1-4.645.601c-.746-.279-73.438-26.839-105.391 13.185 8.234 11.101 16.146 31.574 20.681 53.936 5.671 27.96 4.89 53.025-2.142 68.768-6.184 13.843-17.11 21.146-31.618 21.146z"/><path d="M1242.84 846.503a4.98 4.98 0 0 1-2.517-.683c-13.522-7.898-33.764-16.535-33.967-16.622a5 5 0 1 1 3.916-9.201c.852.363 21.03 8.974 35.094 17.188a5 5 0 0 1-2.526 9.318zm-197.615 19.068a5 5 0 0 1-5-5c0-7.754 6.374-14.518 18.432-19.56 11.804-4.935 32.581-8.971 39.687-1.959a5 5 0 0 1-7.023 7.118c-2.785-2.04-19.416-.826-31.994 5.533-5.698 2.881-9.101 6.196-9.101 8.868a5 5 0 0 1-5 5zm276.658 165.304c-25.638 0-47.694-7.076-67.447-13.412-26.651-8.55-49.67-15.934-74.397-4.551a5 5 0 0 1-4.182-9.084c28.255-13.009 54.183-4.693 81.634 4.113 22.727 7.29 46.232 14.827 74.709 12.518 36.019-2.921 88.917-35.348 89.447-35.676a5 5 0 0 1 5.254 8.509c-2.247 1.387-55.468 34.018-93.893 37.134-3.781.307-7.491.449-11.125.449z"/></g><path d="M1091.243 80.626c-16.013-6.249-33.939 51.573-10.707 80.085 0 0 20.633-15.606 39.638-9.559 12.915 4.109-12.466-64.1-28.931-70.526" class="C"/><path d="M1158.85 62.508c-34.638 2.425-73.628 22.565-77.498 86.476-4.146 68.487-20.447 139.297 15.975 152.077s120.128-4.473 153.994-35.783 37.06-65.815 30.671-120.767-59.245-86.476-123.142-82.003" class="B"/><path d="M1204.997 143.424c-24.708-55.917 109.279-80.808 115.162-55.314 6.801 29.47 7.255 80.472-15.648 115.732 0 0-65.056 17.565-99.514-60.418" class="C"/><path d="M1247.661 187.646c5.511-18.738 59.29-44.244 59.843-2.564.443 33.341-23.51 54.848-36.346 54.84-12.816-.009-34.184-15.943-23.497-52.276" class="B"/><g class="E"><path d="M1161.643 20.609c-36.685-12.498-74.642-12.325-99.671 33.431-33.784 61.759 18.565 106.671 18.565 106.671-24.001-61.939 32.527-61.079 53.62-93.196 17.454-26.577 27.486-46.906 27.486-46.906"/><path d="M1137.402 49.571c-16.775 45.339 35.542 91.579 64.559 116.969 0 0 29.945-2.868 39.802-8.054 0 0 1.906-9.839-4.497-28.654 0 0 14.131 10.907 17.193 26.84 30.338-2.483 54.656-12.684 79.756-26.851 0 0 2.72-85.237-38.539-111.988s-135.878-28.793-158.274 31.738"/></g><path d="M1183.145 190.417c0-13.364-9.507-24.198-21.235-24.198s-21.234 10.834-21.234 24.198 9.507 24.197 21.234 24.197 21.235-10.833 21.235-24.197" fill="#fff"/></g><g clip-path="url(#B)"><use href="#G" class="C"/></g><g clip-path="url(#C)"><path d="M1145.379 154.738c-16.146-.493-10.63-19.426 2.276-21.353 15.261-2.278 34.83 4.762 47.257 13.669 10.302 7.384 6.606 21.106-5.909 15.967-14.897-6.117-31.469-7.912-43.624-8.283m-50.294 3.515c15.95-3.132 13.296-19.901.261-20.499s-23.332 2.445-33.363 10.193-5.424 19.52 7.436 15.316 17.04-3.317 25.666-5.01" class="C"/><g class="E"><path d="M1101.542 237.824a5 5 0 0 1-4.7-3.296c-4.156-11.453.64-18.412 6.01-20.891 7.542-3.484 19.689.085 27.348 13.552a5 5 0 0 1-8.693 4.943c-4.945-8.696-11.555-10.759-14.463-9.416-2.431 1.123-2.008 5.076-.801 8.401a5 5 0 0 1-4.7 6.707zm24.311 38.711a5 5 0 1 1 0-10c20.835 0 29.823-6.546 38.308-17.852a5 5 0 0 1 7.998 6.002c-11.8 15.724-24.782 21.85-46.306 21.85zm137.295-56.689a5 5 0 0 1-4.797-6.42c3.225-10.902 14.276-29.289 31.508-35.259a5 5 0 0 1 3.273 9.448c-13.57 4.702-22.654 20.067-25.191 28.647a5.003 5.003 0 0 1-4.793 3.583z"/><path d="M1284.713 212.952a5 5 0 0 1-4.337-2.504c-1.392-2.388-5.379-7.55-8.781-8.2a5 5 0 1 1 1.877-9.823c8.804 1.682 14.902 11.874 15.568 13.03a5 5 0 0 1-4.327 7.497z"/></g><path d="M1134.155 72.515a5 5 0 0 1-4.994-4.83c-1.156-33.945 28.804-50.761 30.079-51.461a5.002 5.002 0 0 1 4.807 8.77c-1.046.579-25.835 14.647-24.892 42.351a5 5 0 0 1-5 5.17z" class="C"/><path d="M1161.637 307.356a5.001 5.001 0 0 1-.897-9.919c8.588-1.578 48.77-12.676 58.024-17.35a5 5 0 0 1 4.508 8.926c-10.862 5.486-52.561 16.759-60.726 18.26a5.03 5.03 0 0 1-.909.083z" class="E"/></g><g clip-path="url(#D)"><path d="M1102.473 188.417c0-12.211-8.687-22.109-19.402-22.109s-19.402 9.898-19.402 22.109 8.686 22.109 19.402 22.109 19.402-9.899 19.402-22.109" fill="#fff"/></g><g clip-path="url(#E)"><path d="M1094.209 199.021c0-11.127-5.722-20.147-12.78-20.147s-12.78 9.02-12.78 20.147 5.722 20.147 12.78 20.147 12.78-9.02 12.78-20.147" class="C"/></g><path d="M1169.347 250.678c-2.246-.865-10.814 6.596-21.31 9.956s-22.923 2.617-23.051 5.193c-.254 5.153 16.441 13.612 30.46 7.86 14.35-5.889 18.393-21.28 13.901-23.008" fill="#fff"/><path d="M1216.149 433.337c-6.761 0-13.64-.371-20.641-1.115-46.644-4.953-72.032-29.504-85.117-49.228-14.146-21.323-17.22-41.32-17.344-42.161a5 5 0 1 1 9.893-1.458c.027.18 2.968 18.937 16.01 38.43 17.315 25.879 43.429 40.842 77.615 44.472 88.637 9.414 136.294-46.068 156.811-79.978a5 5 0 0 1 8.556 5.177c-10.326 17.064-28.481 41.257-56.342 59.601-26.518 17.461-56.53 26.259-89.441 26.259z" class="F"/><path d="M1124.983 330.846s172.269-20.538 210.691 1.675c0 0-20.145 69.666-123.794 68.134 0 0-92.258-3.937-86.897-69.809z" class="B"/><g class="H"><path d="M544.189 1925.317a5.001 5.001 0 0 1-4.967-5.628c.086-.688 7.157-62.068-36.349-114.046-37.366-44.642-100.059-69.575-186.337-74.108a5 5 0 0 1-4.73-5.255 4.984 4.984 0 0 1 5.256-4.731c89.254 4.689 154.389 30.87 193.596 77.815 46.296 55.433 38.826 118.909 38.485 121.584a5 5 0 0 1-4.954 4.369z"/><path d="M449.064 1860.987a5 5 0 0 1-2.422-9.378c.376-.218 18.59-11.117 45.25-59.844a5 5 0 1 1 8.773 4.799c-28.588 52.25-48.401 63.373-49.23 63.821a4.979 4.979 0 0 1-2.371.602zm28.538 64.331a5 5 0 0 1-4.629-3.107 4.999 4.999 0 0 1 2.732-6.521c.519-.214 40.568-16.948 60.684-47.244a5 5 0 0 1 8.33 5.531c-21.871 32.942-63.465 50.246-65.225 50.967a4.984 4.984 0 0 1-1.893.374zm-80.621-107.299a5 5 0 0 1-4.895-6.045c4.862-22.76 31.727-61.933 32.868-63.59a5 5 0 1 1 8.234 5.673c-.268.389-26.876 39.188-31.323 60.006a5.003 5.003 0 0 1-4.885 3.957zm-71.058-18.853a5 5 0 0 1-4.992-5.349c2.406-34.354 33.837-65.436 35.174-66.743a5 5 0 0 1 6.991 7.15c-.301.294-30.051 29.766-32.19 60.292a5 5 0 0 1-4.982 4.651z"/></g></svg></g><g transform="matrix(1.225115 0 0 1.217313 2052 397.2)"><svg width="39.18" height="53.232"><path d="M17.858 22.799c-.869-.698-1.17-1.845-1.217-2.725-.093-1.716 2.883-7.255 3.878-8.717C24.104 6.088 27.51-.299 32.494.011c3.192.199 7.309 4.593 6.607 10.951-.84 7.606-6.184 17.441-10.749 18.462l-1.294.493-9.2-7.118Z" class="I"/><path d="m2.356 51.968-.509-.394c-2.64-2.042-2.221-4.914-.179-7.554l16.19-21.221 9.2 7.118-16.225 20.97a6.042 6.042 0 0 1-8.477 1.081Z" class="J"/></svg></g><defs ><path id="G" d="M1169.09 199.809c0-11.127-5.722-20.147-12.78-20.147s-12.78 9.02-12.78 20.147 5.722 20.147 12.78 20.147 12.78-9.02 12.78-20.147"/></defs></svg>