<svg xmlns="http://www.w3.org/2000/svg" width="3000" height="2700" xmlns:v="https://vecta.io/nano"><style><![CDATA[.B{fill:#f4bbab}.C{fill:#111}.D{fill:#e09273}.E{fill:#ea2688}.F{fill:#5ac4ff}.G{fill:#0a3ea5}.H{fill:#b7006d}.I{fill:#002e77}.J{fill:#2199ce}]]></style><g transform="matrix(1.898236 -.277813 .279644 1.910746 9.645895 786.947178)"><svg width="1424.582" height="988.814"><path d="M458.473 927.376l16.9 7.46c145.81 62.22 306.77 76.54 432.91 11.61 20.76-8.82 40.97-18.94 60.59-30.24l7.28-4.24c9.41-5.59 18.68-11.46 27.8-17.59.02-.02.03-.03.05-.04a599.173 599.173 0 0 0 31.42-22.59c.01-.01.02-.02.03-.02 33.26-25.52 64.16-54.52 92.22-86.24 108.05-122.14 173.96-284.55 170.18-443.59-20.43-238.26-235.72-342.05-438.9-228.55l-6.88 3.79-1.11.61a805.725 805.725 0 0 1-28.33 14.69c-22.36 10.99-43.12 19.75-62.63 26.73-7.74 2.78-15.29 5.28-22.67 7.52a444.06 444.06 0 0 1-21.39 5.94c-20.85 5.26-40.38 8.56-59.19 10.65l-10.46 1.06c-11.71 1.06-23.17 1.69-34.53 2.08-35.14 1.22-69.33.15-106.91 2.29-45.82 2.6-96.7 9.97-160.51 32.09-178.74 61.95-285.97 195.78-236.03 356.54 29.46 86.42 90.6 167.71 169.04 234.82 53.69 45.96 115.48 85.27 180.77 115.07zm773.124-133.351c100.258-154.256 148.165-356.142 118.972-543.311C1323.411 123.153 1255.375 37.105 1171.434 0c114.991 9.632 214.101 93.023 246.222 237.319 31.149 196.322-44.847 412.426-186.059 556.706zm-1047.718 3.566C108.149 731.427 36.95 645.427 8.2 561.091c-28.86-92.906 23.161-170.266 82.761-236.5-31.115 64.836-53.53 144.86-34.58 226.651 22.34 87.885 74.998 171.656 127.498 246.35z" fill="#fdd016"/></svg></g><g transform="matrix(1.614203 0 0 1.611625 750 552)"><svg width="1145.767" height="1283.487"><clipPath id="A"><path d="M475.502 117.969c-3.95 17.533-8.336 41.188-12.136 63.985-5.522 33.125 41.624 6.474 47.222-17.604 8.639-37.152-32.251-58.972-35.086-46.381z"/></clipPath><clipPath id="B"><ellipse cx="469.556" cy="152.354" rx="22.223" ry="20.954" transform="matrix(.127324 -.991861 .991861 .127324 258.656 598.69)"/></clipPath><clipPath id="C"><ellipse cx="556.04" cy="158.979" rx="26.445" ry="24.936" transform="matrix(.127324 -.991861 .991861 .127324 327.557 690.252)"/></clipPath><path d="M55.256 293.185c4.016-12.681 114.396-29.345 130.585-22.017-75.372 53.877-130.585 22.017-130.585 22.017z" class="C"/><path d="M490.583 784.828l276.385-33.313c50.122-5.95 179.181-16.372 247.991-7.701 44.202 5.57 72.93 42.643 86.697 93.957 17.911 66.759.313 162.704-127.1 181.1-172.762 24.943-348.896 50.667-501.813 64.208-110.694 9.801-171.426-273.17 17.84-298.251z" class="F"/><path d="M560.397 993.797c17.477-8.24 78.768-21.262 141.02 116.922 26.79 59.467 15.373 108.279-6.203 114.522-2.907.841-7.441.987-10.608.1-26.163-7.328-38.67-27.28-84.203-98.457-54.444-85.107-50.156-128.301-40.005-133.086h-.001z" class="C"/><path d="M659.699 784.828c-80.896-11.899-242.329-28.262-276.385-33.313-104.246-15.459-273.409-25.675-332.62 27.111-82.49 73.538-22.201 206.41 125.032 240.245 146.649 33.701 374.984 61.389 468.795 56.698 168.962-8.448 162.236-269.111 15.178-290.741z" class="F"/><path d="M455.071 850.705a5.628 5.628 0 0 1-5.005-3.047c-13.532-26.199-36.698-55.085-36.93-55.374a5.629 5.629 0 0 1 8.767-7.06c.977 1.213 24.102 30.043 38.164 57.268a5.628 5.628 0 0 1-4.997 8.212h.001z" fill="#005141"/><path d="M821.617 1061.635c9.962 88.106-87.189 104.914-129.127 116.191-26.392 7.097-48.77 15.967-117.349 35.656-37.607 10.797-122.251-25.318-126.813-89.052-5.219-72.923 51.37-122.403 112.312-133.309l154.755-27.698c.723-.167 93.801-11.634 106.22 98.214h.001z" fill="#a85f36"/><path d="M553.668 1201.38l-27.045-21.902s36.148-26.577 26.111-71.595c-8.454-37.918-51.455-66.391-51.455-66.391s-3.755-20.182 1.877-35.67 30.695-30.727 30.695-30.727-12.737-15.101-37.266-14.328c-29.389.926-70.154 35.881-107.009 48.811-56.185 19.713-106.668 16.086-146.433 34.731-48.049 22.528-80.573 71.141-59.447 146.277 20.593 73.239 106.761 89.989 139.109 83.722 54.594-10.578 230.862-72.928 230.862-72.928h-.001z" fill="#e3e5e5"/><path d="M577.439 1208.885l-28.686-16.714s36.148-26.577 26.111-71.595c-8.454-37.918-51.455-66.391-51.455-66.391s-3.755-20.182 1.877-35.67 30.695-30.727 30.695-30.727-12.737-15.101-37.266-14.328c-29.389.926-70.154 35.881-107.009 48.811-56.185 19.713-106.668 16.086-146.433 34.731-48.049 22.528-80.723 71.183-59.447 146.277 18.56 65.507 92.419 75.685 124.861 69.925 132.157-23.462 246.752-64.32 246.752-64.32h-.001z" class="G"/><path d="M452.395 1029.22c-5.866 0-11.329-1.656-16.188-5.689a5.629 5.629 0 0 1 7.189-8.661c10.263 8.519 29.838-2.644 48.77-13.438 16.971-9.676 34.517-19.682 49.715-18.538a5.627 5.627 0 1 1-.846 11.223c-11.765-.887-27.792 8.254-43.294 17.092-15.606 8.899-31.586 18.009-45.346 18.009z" fill="#c83400"/><g fill="#fff"><path d="M404.756 1226.726a5.624 5.624 0 0 1-4.459-2.196l-68.434-88.91a5.627 5.627 0 1 1 8.918-6.864l60.374 78.439 17.981-119.569a5.63 5.63 0 0 1 4.499-4.689 5.625 5.625 0 0 1 5.92 2.678l59.854 102.021 15.405-131.378a5.627 5.627 0 0 1 11.179 1.31l-17.359 148.04a5.625 5.625 0 0 1-4.434 4.852 5.626 5.626 0 0 1-6.01-2.66l-60.291-102.765-17.579 116.899a5.628 5.628 0 0 1-5.564 4.791z"/><path d="M373.375 1228.979a5.628 5.628 0 0 1-5.628-5.622l-.11-115.953a5.63 5.63 0 0 1 10.218-3.262l66.826 94.2 17.836-126.635c.338-2.395 2.168-4.307 4.547-4.749s4.773.688 5.946 2.803l69.042 124.403a5.627 5.627 0 1 1-9.841 5.461l-60.891-109.716-17.467 124.017a5.627 5.627 0 0 1-10.163 2.471l-64.781-91.316.093 98.266a5.627 5.627 0 0 1-5.622 5.633h-.006.001z"/></g><path d="M382.863 1229.762c-12.007 0-23.813-3.391-34.121-9.92a63.687 63.687 0 0 1-27.53-37.492c-8.554-32.077 8.489-64.913 39.642-76.382l166.065-61.132a5.628 5.628 0 0 1 3.888 10.562l-166.065 61.132c-25.662 9.447-39.701 36.496-32.655 62.919 6.197 23.239 27.579 39.038 50.943 39.041 3.092 0 6.214-.276 9.345-.849l166.138-30.379a5.628 5.628 0 0 1 2.024 11.072l-166.138 30.379a64.122 64.122 0 0 1-11.539 1.049h.002z" class="I"/><path d="M971.475 741.078c-23.667 0-41.095 11.948-46.756 25.433-7.981 19.008 0 30.381 0 30.381-92.616 45.057-174.108 63.286-208.804 97.831-6.4 6.373-30.247 9.178-76.176 33.166-37.624 19.65-79.342 65.908-79.342 65.908s18.52-1.666 44.128 15.114c12.993 8.514 30.189 26.175 46.358 46.843 45.526 58.198 69.133 161.388 44.332 169.488 124.942-36.822 188.939-114.522 188.939-114.522 73.93-30.456 156.43-76.955 187.663-96.485 110.567-69.141 112.456-273.156-100.341-273.156h-.001z" class="F"/><g class="J"><path d="M884.159 1116.348a5.629 5.629 0 0 1-3.203-10.259c63.585-43.91 85.195-72.126 85.405-72.406a5.628 5.628 0 0 1 8.99 6.772c-.906 1.202-22.928 29.96-87.999 74.896a5.601 5.601 0 0 1-3.193.997h.001zm-274.821-97.716c-1.53 0-3.054-.62-4.165-1.84-14.473-15.91-44.703-17.358-45.007-17.37-2.179-.091-4.112-1.434-4.956-3.444s-.454-4.328 1.007-5.947c1.731-1.919 42.834-47.238 80.915-67.127 26.92-14.059 46.321-20.927 59.16-25.471 7.738-2.74 13.851-4.903 15.652-6.695 21.865-21.77 60.174-36.746 108.675-55.705 30.642-11.979 65.373-25.555 101.638-43.198a5.627 5.627 0 1 1 4.923 10.121c-36.67 17.84-71.624 31.504-102.464 43.56-47.281 18.484-84.626 33.082-104.831 53.199-3.596 3.58-9.709 5.745-19.838 9.33-12.54 4.439-31.49 11.146-57.704 24.837-26.947 14.074-56.547 42.686-70.157 56.656 11.797 2.054 29.91 7.152 41.312 19.683a5.627 5.627 0 0 1-4.161 9.415v-.002z"/><path d="M686.915 937.629a5.625 5.625 0 0 1-4.868-8.439c.343-.594 8.649-14.827 29.683-38.229a5.626 5.626 0 1 1 8.37 7.524c-20.138 22.406-28.231 36.203-28.31 36.34a5.628 5.628 0 0 1-4.876 2.805z"/></g><path d="M551.125 967.73l24.878 168.58c8.442 62.913-3.889 112.073-30.927 106.046-39.186-8.733-90.638-81.134-69.048-163.971 27.169-104.246 75.097-110.655 75.097-110.655h-.001z" class="C"/><path d="M598.911 1209.353l27.045-21.902s-36.148-26.577-26.111-71.595c8.454-37.918 51.455-66.391 51.455-66.391s3.755-20.182-1.877-35.67-30.695-30.727-30.695-30.727 12.737-15.101 37.266-14.328c29.389.926 70.154 35.881 107.009 48.811 56.185 19.713 106.668 16.086 146.433 34.731 48.049 22.528 80.573 71.141 59.447 146.277-20.593 73.239-106.761 89.989-139.109 83.722-54.594-10.578-230.862-72.928-230.862-72.928h.001z" fill="#e3e5e5"/><path d="M709.084 1138.191c26.052-88.229-70.185-122.906-111.003-141.984-25.688-12.006-46.955-25.101-113.479-57.574-36.48-17.807-129.473 3.844-145.616 68.143-18.47 73.57 30.436 134.322 90.739 156.446l153.133 56.183c.709.3 93.745 28.787 126.226-81.214z" class="B"/><path d="M582.857 1219.405l20.97-19.261s-36.148-26.577-26.111-71.595c8.454-37.918 51.455-66.391 51.455-66.391s3.755-20.182-1.877-35.67-30.695-30.727-30.695-30.727 12.737-15.101 37.266-14.328c29.389.926 70.154 35.881 107.009 48.811 56.185 19.713 106.668 16.086 146.433 34.731 48.049 22.528 80.723 71.183 59.447 146.277-18.56 65.507-92.419 75.685-124.861 69.925-132.157-23.462-239.036-61.772-239.036-61.772h.001z" class="G"/><path d="M697.887 1032.596c-13.761.001-29.739-9.11-45.346-18.009-15.502-8.839-31.534-17.978-43.294-17.092a5.623 5.623 0 0 1-6.035-5.189 5.626 5.626 0 0 1 5.189-6.034c15.194-1.146 32.743 8.861 49.715 18.538 18.932 10.794 38.508 21.956 48.77 13.438a5.628 5.628 0 1 1 7.189 8.661c-4.858 4.033-10.322 5.689-16.188 5.689z" class="I"/><g fill="#fff"><path d="M747.825 1234.699a5.628 5.628 0 0 1-5.564-4.791l-17.579-116.899-60.291 102.765a5.629 5.629 0 0 1-10.444-2.192l-17.359-148.04a5.628 5.628 0 0 1 11.178-1.31l15.405 131.378 59.854-102.021a5.629 5.629 0 0 1 10.419 2.011l17.981 119.569 60.374-78.439a5.628 5.628 0 1 1 8.918 6.864l-68.434 88.91a5.631 5.631 0 0 1-4.459 2.196z"/><path d="M779.205 1236.951h-.006a5.627 5.627 0 0 1-5.622-5.633l.093-98.266-64.781 91.316a5.63 5.63 0 0 1-10.163-2.471l-17.467-124.017-60.891 109.716a5.627 5.627 0 1 1-9.841-5.461l69.042-124.403a5.628 5.628 0 0 1 10.493 1.946l17.836 126.635 66.827-94.2a5.63 5.63 0 0 1 10.218 3.262l-.11 115.953a5.627 5.627 0 0 1-5.628 5.622z"/></g><path d="M769.717 1237.733c-3.84 0-7.7-.347-11.539-1.049l-166.138-30.379a5.628 5.628 0 0 1 2.024-11.072l166.138 30.379c26.79 4.898 53.272-11.877 60.289-38.192 7.046-26.422-6.993-53.472-32.655-62.919l-166.065-61.132a5.628 5.628 0 0 1 3.888-10.562l166.065 61.132c31.154 11.468 48.196 44.305 39.642 76.382a63.682 63.682 0 0 1-27.53 37.492c-10.307 6.529-22.115 9.919-34.121 9.92z" class="I"/><path d="M152.694 742.986c38.899-2.982 68.208 37.962 129.466 61.258 111.011 42.216 155.956 59.394 227.309 92.043 16.778 8.66 49.576 80.063 49.576 80.063s-73.001 58.338-69.246 151.268c2.817 69.728 30.476 106.641 55.278 114.739-129.538-20.888-278.948-131.638-278.948-131.638-73.93-30.456-156.94-76.16-187.663-96.485C-40.477 935.545-30.7 757.045 152.694 742.986z" class="F"/><path d="M266.123 1116.348a5.603 5.603 0 0 1-3.193-.997c-65.071-44.935-87.093-73.694-87.999-74.896a5.627 5.627 0 1 1 8.99-6.772c.208.275 22.106 28.695 85.405 72.406a5.629 5.629 0 0 1-3.203 10.259h.001z" class="J"/><g class="B"><path d="M143.083 388.458c55.03-8.695 44.851-63.088 44.851-63.088l-17.446-92.523s6.927-45.267-9.483-81.668c-25.396-56.335-145.849-12.07-134.657 21.702 8.762 26.438 21.289 66.324 45.016 90.109L70.1 340.582s.703 59.297 72.981 47.876h.001z"/><path d="M149.42 126.779L95.185 9.898c-8.074-17.475-40.632-7.1-31.44 14.615l49.134 116.065 36.539-13.798h.001zm-91.29 53.96l-19.383-53.677c-4.655-12.907-28.749-2.83-22.908 15.15 4.818 14.831 7.8 23.263 16.435 47.956 6.281 17.958 32.167 7.635 25.855-9.429z"/></g><path d="M44.668 204.913c-1.131 0-2.261-.1-3.378-.304-6.528-1.196-11.649-5.818-14.049-12.679a5.334 5.334 0 0 1 10.069-3.521c1.147 3.281 3.134 5.201 5.902 5.709 3.067.562 6.671-.787 8.766-3.279 1.33-1.584 2.611-4.3 1.15-8.247a5.333 5.333 0 1 1 10.004-3.7c2.49 6.731 1.4 13.586-2.988 18.81-3.839 4.569-9.654 7.214-15.476 7.214v-.002z" class="D"/><path d="M87.389 168.183L63.37 107.598c-5.394-13.779-35.013-1.747-27.369 19.371l19.16 51.748c7.07 19.021 39.015 7.021 32.228-10.534z" class="B"/><path d="M69.442 193.716c-1.27 0-2.531-.099-3.769-.303-7.271-1.199-12.925-5.878-15.511-12.838l-21.15-55.741a5.334 5.334 0 0 1 9.954-3.832l21.194 55.857c1.27 3.417 3.709 5.447 7.248 6.03 4.833.797 10.735-1.382 13.732-5.067 1.942-2.387 2.358-4.912 1.274-7.716l-12.887-32.551-11.124-28.014a5.334 5.334 0 0 1 9.934-3.889l11.096 27.944 12.931 32.662c2.442 6.317 1.368 12.983-2.947 18.29-4.616 5.677-12.434 9.165-19.974 9.165h-.001z" class="D"/><path d="M94.202 95.1c-8.188-21.063-37.921-5.62-32.194 9.044l22.736 56.686c6.505 16.211 36.258 6.888 31.402-11.467L94.202 95.101z" class="B"/><path d="M98.156 174.482c-7.615 0-15.091-3.516-18.362-11.667a10392.32 10392.32 0 0 0-12.943-32.12l-9.088-22.761a5.334 5.334 0 0 1 9.934-3.888l9.043 22.647 12.954 32.148c2.396 5.973 9.412 5.453 13.179 4.204 4.751-1.575 9.691-5.658 8.193-12.02L89.233 97.03a5.333 5.333 0 1 1 9.942-3.864l21.911 54.181a5.2 5.2 0 0 1 .217.649c3.372 12.746-5.45 21.984-15.073 25.174a25.772 25.772 0 0 1-8.072 1.31h-.001z" class="D"/><path d="M172.866 245.456c9.319-20.273 35.544-102.792 12.304-122.516-8.131-6.901-25.982-21.38-52.621-39.655-22.738-15.599-43.692 14.661-22.351 32.74l40.185 33.803c-30.768 13.975-36.882 49.939-24.291 74.47 15.948 31.076 46.774 21.158 46.774 21.158z" class="B"/><path d="M126.096 229.633a5.336 5.336 0 0 1-4.75-2.899c-7.587-14.784-8.831-33.045-3.327-48.846 4.292-12.322 12.142-22.226 22.917-29.021l-34.186-28.773c-13.513-11.446-13.032-27.327-5.571-37.099 6.683-8.754 20.295-13.774 34.386-4.108a5.333 5.333 0 0 1-6.034 8.796c-8.966-6.151-16.31-2.884-19.874 1.785-4.267 5.589-4.84 15.01 3.987 22.487l40.164 33.785a5.331 5.331 0 0 1-1.22 8.943c-14.916 6.775-21.554 18.265-24.496 26.713-4.563 13.1-3.538 28.229 2.744 40.468a5.333 5.333 0 0 1-4.741 7.77h.001z" class="D"/><g class="E"><path d="M439.785 362.772c-43.492-64.142-133.983 59.453-165.576 77.056l-52.379 28.827c-70.115 42.457-20.088 203.964 53.246 186.932 18.779-4.361 70.477-22.48 103.135-48.026 50.962-39.862 54.858-105.074 31.64-139.316l29.935-105.473z"/><path d="M262.638 527.804c6.375-50.761-8.087-95.081-22.841-123.057-13.622-25.83 4.381-58.733-51.696-94.404-36.095-22.96-98.909-2.139-114.916 14.408-21.263 21.98-32.59 61.834-16.107 127.27 10.433 41.413 11.616 59.676 15.602 84.186 7.09 43.586 32.919 118.308 124.876 127.601 30.653 3.098 53.294-1.519 77.518-8.22 61.201-16.928-20.106-66.721-12.437-127.784z"/></g><path d="M262.641 533.433a5.628 5.628 0 0 1-5.376-7.298c5.918-19.064 4.109-46.45-4.961-75.133a5.628 5.628 0 1 1 10.732-3.394c9.747 30.821 11.562 60.659 4.979 81.864a5.63 5.63 0 0 1-5.373 3.961zm-173.899-33.8a5.6 5.6 0 0 1-3.773-1.454l-.334-.303c-8.661-7.832-23.156-20.938-32.741-43.668a5.628 5.628 0 0 1 10.37-4.374c8.615 20.43 21.436 32.022 29.919 39.693l.335.304a5.627 5.627 0 0 1-3.778 9.802z" class="H"/><path d="M566.318 181.237c34.432-6.467 67.587 16.203 74.053 50.635l18.312 97.502c6.467 34.432-16.203 67.587-50.635 74.053s-67.587-16.203-74.053-50.635l-18.312-97.502c-6.467-34.432 16.203-67.587 50.635-74.053z" class="B"/><path d="M526.685 313.877c-22.351 2.146-107.126 33.556-110.045 54.92s-30.268 349.918 10.6 388.84 96.943 29.404 124.249 26.436c24.071 12.827 80.713 14.815 123.339 2.177 0 0 111.329-1.859 118.947-25.985 17.528-55.521-12.304-140.875-17.105-250.597-2.427-55.48-10.704-151.711-34.057-169.27s-83.93-11.019-83.93-11.019l-131.999-15.502z" fill="#5917c1"/><path d="M525.59 308.042c-6.564 13.606-17.915 57.011 25.9 63.923 38.09 6.01 93.287-23.747 107.194-42.586-14.252-21.336-133.094-21.336-133.094-21.336zM482.956 92.253c-8.861 16.307-29.506 144.582-29.302 162.219.293 25.128 83.723 43.694 148.819 15.574 37.207-16.072 59.412-101.52 39.224-153.434-25.061-64.442-133.679-70.481-158.741-24.36z" class="B"/><path d="M631.431 189.22c-4.889 7.042-14.796 8.457-13.38-4.281s14.031-32.022 2.326-47.435c-12.705-16.728-18.562-51.765-34.407-58.717-46.234-20.286-95.3-2.359-103.014 13.465-10.213 3.991-27.669-41.772-2.665-63.473 0 0 1.888 19.815 16.041 23.117 0 0-1.415-31.61 17.927-51.896 0 0 1.415 13.21 8.964 18.872.472-9.436 17.927-8.964 28.267 10.851 0-8.491 10.669-19.907 19.855 4.718 0 0 24.078-2.384 33.496 22.646 0 0 44.347 20.758 53.783 42.932 0 0-1.888-17.456 3.302-17.927s12.267 89.167 0 108.51-30.495-1.38-30.495-1.38z" class="C"/><path d="M659.785 173.768v9.956s13.272 11.064 11.617 31.489c0 0-9.648 10.739-19.524 14.22s-2.172 11.652 7.907 7.737 21.026-18.714 21.707-29.607-3.404-30.444-21.707-33.795z" class="G"/><path d="M489.009 115.725c11.202 0 13.093-17.413 3.463-17.242-6.053.107-26.413 2.88-33.343 10.778-4.494 5.121-6.256 12.041 2.435 10.158s16.701-3.693 27.444-3.693h.001z" class="C"/><g fill="#656c72"><path d="M553.052 205.479c-24.355 0-44.169-19.814-44.169-44.168s19.814-44.169 44.169-44.169 44.168 19.814 44.168 44.169-19.814 44.168-44.168 44.168zm0-77.214c-18.222 0-33.046 14.824-33.046 33.046s14.824 33.045 33.046 33.045 33.045-14.824 33.045-33.045-14.824-33.046-33.045-33.046zm-88.404 68.63c-22.514 0-40.831-18.316-40.831-40.831s18.316-40.831 40.831-40.831 40.831 18.316 40.831 40.831-18.316 40.831-40.831 40.831zm0-70.539c-16.381 0-29.708 13.327-29.708 29.708s13.327 29.708 29.708 29.708 29.708-13.327 29.708-29.708-13.327-29.708-29.708-29.708z"/><path d="M514.439 166.872a5.564 5.564 0 0 1-5.454-4.496c-.461-.289-1.504-.691-2.781-.641-.893.038-1.61.296-1.92.689a5.562 5.562 0 0 1-8.735-6.887c3.98-5.047 10.822-5.736 15.828-4.181 5.028 1.559 8.328 5.235 8.616 9.59a5.561 5.561 0 0 1-5.554 5.927v-.002zm-5.544-5.196v.003zm145.936 21.006a5.54 5.54 0 0 1-3.398-1.161c-7.744-5.988-39.576-13.069-60.204-14.665a5.563 5.563 0 0 1-5.117-5.974 5.56 5.56 0 0 1 5.974-5.116c16.6 1.285 54.277 7.774 66.151 16.955a5.563 5.563 0 0 1-3.407 9.962h.001z"/></g><path d="M626.542 196.261c12.738-23.099 43.404-27.835 48.122 0s-21.23 42.932-36.799 37.742-19.403-23.089-11.322-37.742z" class="B"/><g class="D"><path d="M638.258 219.774a5.562 5.562 0 0 1-5.562-5.562c0-13.014 7.879-22.206 24.085-28.104a5.562 5.562 0 0 1 3.804 10.453c-14.861 5.407-16.766 12.273-16.766 17.651a5.562 5.562 0 0 1-5.562 5.562z"/><path d="M651.338 214.636a5.56 5.56 0 0 1-4.632-2.475l-6.111-9.155a5.563 5.563 0 0 1 9.253-6.176l6.111 9.155a5.563 5.563 0 0 1-4.621 8.651z"/></g><path d="M540.496 115.776c-11.603 3.509-17.256-13.778-4.811-16.349 15.805-3.265 42.24.806 51.498 11.168s5.558 15.705-2.584 12.108-28.56-11.629-44.104-6.927z" class="C"/><path d="M531.206 289.894c-3.754 0-7.33-.147-10.662-.454-3.059-.281-5.309-2.99-5.028-6.049s2.977-5.302 6.049-5.028c22.729 2.096 59.411-4.131 78.492-13.327a5.562 5.562 0 0 1 4.83 10.02c-18.111 8.728-49.491 14.837-73.681 14.837z" class="D"/><g clip-path="url(#A)"><ellipse cx="469.556" cy="152.354" fill="#fff" rx="22.223" ry="20.954" transform="matrix(.127324 -.991861 .991861 .127324 258.656 598.69)"/><g clip-path="url(#B)"><ellipse cx="470.434" cy="147.738" rx="19.565" ry="11.979" transform="matrix(.127324 -.991861 .991861 .127324 264.001 595.533)" class="C"/></g></g><ellipse cx="556.04" cy="158.979" fill="#fff" rx="26.445" ry="24.936" transform="matrix(.127324 -.991861 .991861 .127324 327.557 690.252)"/><g clip-path="url(#C)"><ellipse cx="545.57" cy="156.065" rx="21.855" ry="14.339" transform="matrix(.127324 -.991861 .991861 .127324 321.312 677.324)" class="C"/></g><path d="M506.539 178.849c-11.71-15.807-26.036-5.304-16.396 13.861" class="B"/><path d="M490.148 198.271a5.562 5.562 0 0 1-4.973-3.063c-6.886-13.69-3.496-23.804 2.921-27.754 5.782-3.562 15.112-2.445 22.912 8.084a5.562 5.562 0 1 1-8.938 6.622c-3.597-4.855-6.929-5.98-8.142-5.233-1.463.901-2.618 5.723 1.185 13.283a5.562 5.562 0 0 1-4.964 8.062z" class="D"/><g class="E"><path d="M526.685 313.877c-21.419-1.329-71.605 14.303-110.044 24.44-6.26 1.651-31.361 11.182-32.844 13.116-13.526 17.648 13.071 102.164 3.918 150.746-5.747 30.502-4.531 103.648-16.35 172.615-7.403 43.198-24.578 69.265-12.531 73.358 15.892 5.398 68.183 109.305 97.76 118.75 19.561-73.642 20.446-295.602 70.092-440.506v-112.52.001zm129.087 0s88.567 3.027 141.476 23.007c32.801 12.386-7.545 207.848 12.745 286.474 15.178 58.814 17.075 97.706-.709 131.666-38.645-19.233-171.654 118.827-186.858-5.485s-26.575-258.521-19.113-332.751c32.951-35.783 39.487-57.541 52.459-102.91z"/><path d="m526.685 313.877-4.677-24.905-58.803 51.426-3.914 49.061 23.553-22.95 43.842 59.887c-6.332-40.507-6.37-78.032 0-112.52h-.001z"/></g><path d="M526.69 431.959a5.554 5.554 0 0 1-4.492-2.277l-40.06-54.72-18.967 18.481a5.56 5.56 0 0 1-9.425-4.426l3.915-49.061a5.569 5.569 0 0 1 1.882-3.744l33.393-29.204a5.562 5.562 0 1 1 7.324 8.372l-31.691 27.716-2.557 32.049 12.951-12.619a5.554 5.554 0 0 1 4.344-1.559 5.567 5.567 0 0 1 4.024 2.257l43.842 59.887a5.562 5.562 0 0 1-4.482 8.848z" class="H"/><path d="m649.327 279.562 57.031 39.893-14.414 75.586-50.237-26.097-38.395 47.844c25.294-48.92 42.265-95.182 46.014-137.225h.001z" class="E"/><path d="M603.309 422.348a5.562 5.562 0 0 1-4.335-9.043l38.396-47.844a5.564 5.564 0 0 1 6.901-1.455l43.609 22.655 13.015-68.249a5.56 5.56 0 1 1 10.926 2.084l-14.414 75.586a5.56 5.56 0 0 1-8.026 3.893l-46.19-23.995-35.541 44.287a5.552 5.552 0 0 1-4.34 2.081h-.002z" class="H"/><path d="M546.403 992.895a5 5 0 0 1-3.815-8.229c.918-1.086 1.563-1.622 2.146-2.079l.171-.137c.081-.077.57-.607 2.25-3.423l1.186-1.958c4.173-6.847 4.375-7.964 1.965-10.873-61.479-74.205-277.743-160.487-279.92-161.35a5.001 5.001 0 0 1-2.807-6.49 5.003 5.003 0 0 1 6.49-2.807c.55.218 55.646 22.126 117.725 53.059 83.713 41.713 139.635 79.129 166.213 111.209 7.236 8.734 2.793 16.024-1.127 22.456l-1.138 1.879c-2.537 4.253-3.463 5.226-4.838 6.304-.244.192-.346.271-.681.667a4.984 4.984 0 0 1-3.82 1.771z" class="J"/><path d="M976.476 588.83c-16.276-21.497-63.25-126.808-92.343-168.019-27.333-38.718-55.911-76.68-101.671-89.018-120.022-32.362-22.567 150.566-25.672 244.336-1.09 32.918 8.681 65.295 27.091 92.606 8.054 11.948 15.514 21.789 19.547 26.203 72.044 78.849 236.44-10.635 181.155-83.653z" class="E"/><g class="B"><path d="M702.312 764.555c12.371 24.535-5.324 52.126-18.093 58.932-2.349 10.061-21.28 28.208-33.856 35.531-10.235 5.959-25.163 11.845-34.739 14.115-51.014 12.093-98.026-82.089-77.072-93.382l84.592-45.447s47.927-31.704 79.166 30.251h.001z"/><path d="M538.553 779.751c-19.437 9.005-34.562 53.796-36.582 65.171-1.599 9.004 3.181 18.897 21.824 66.02 7.373 18.636 38.569 8.098 30.659-12.772l-16.095-42.466 28.212-55.508-28.016-20.447h-.001z"/><path d="M556.849 795.844s-26.602 47.004-28.088 54.333 1.496 15.528 16.696 70.134c4.799 17.239 36.578 9.952 31.698-9.324l-13.183-52.078 25.698-48.465-32.822-14.602h.001z"/><path d="M567.768 809.82s-18.708 48.411-19.281 56.542 5.368 19.175 20.996 56.131c7.459 17.638 38.029 4.849 30.376-13.654l-16.687-40.345 16.512-43.862-31.915-14.81h-.001z"/><path d="M591.411 841.342s3.064-5.77-11.915 23.672c-6.304 12.39-.165 29.619 8.481 33.709 26.863 12.705-5.557-2.628 20.247 9.609 19.73 9.357 32.509-19.691 13.429-29.198a104.445 104.445 0 0 1-6.832-3.718l12.149-15.193-35.559-18.883z"/></g><path d="M595.645 909.394a5.602 5.602 0 0 1-2.247-.471c-22.452-9.792-26.158-31.737-23.219-43.268 4.016-15.761 10.062-36.953 10.123-37.164a5.629 5.629 0 0 1 10.823 3.091l-10.039 36.853c-1.709 6.707.152 22.906 16.811 30.172a5.627 5.627 0 0 1-2.253 10.787h-.001zm19.171-28.349a5.62 5.62 0 0 1-2.686-.685l-12.387-6.742a5.625 5.625 0 0 1-2.252-7.633 5.626 5.626 0 0 1 7.633-2.253l12.387 6.742a5.625 5.625 0 0 1 2.252 7.633 5.628 5.628 0 0 1-4.948 2.939zm-71.504 43.707a5.63 5.63 0 0 1-5.344-3.866l-15.072-46.601c-4.4-14.947-4.524-25.851-.388-34.317l18.658-38.195a5.629 5.629 0 0 1 10.114 4.941l-18.658 38.195c-2.826 5.786-2.486 14.111 1.072 26.198 2.427 8.242 14.838 45.875 14.963 46.253a5.628 5.628 0 0 1-5.345 7.393h.002zm28.442 7.108a5.632 5.632 0 0 1-5.171-3.4l-19.877-46.081c-4.502-10.824-2.662-22.327-1.064-26.907l14.333-41.071a5.628 5.628 0 0 1 10.626 3.708l-14.333 41.071c-.831 2.382-2.468 10.949.8 18.808l19.849 46.013a5.626 5.626 0 0 1-5.165 7.857h.001z" class="D"/><g class="E"><path d="M945.93 755.549c-20.195 8.036-50.463 16.863-78.249 26.919-22.422 8.115-22.554 10.037-50.292 26.234-33.357 19.478-65.935 25.11-92.284-7.113-3.96-4.842-56.793-69.784-63.124-96.385-1.967-8.268 2.898-16.226 7.713-22.059 17.6-21.323 82.248-64.695 145.765-91.56 30.16-12.756 47.817-21.457 60.975-29.356 42.614-25.585 74.823-7.549 90.72 11.609 15.205 18.322 41.347 72.665 28.588 116.404s-42.724 62.487-49.812 65.308zM180.405 269.536c3.919-.01 3.456-.207 5.795 1.042 3.54 1.891 6.618 4.295 8.964 8.071 7.884 12.689 12.519 34.702 11.045 40.957-1.046 4.439-17.057 14.861-53.625 25.295-33.622 9.593-86.021 7.387-92.272 4.261-13.572-6.786-8.935-51.168-5.057-56.016 15.014 9.383 52.862 4.727 85.823-3.513 15.359-3.84 26.72-11.36 26.72-11.36 3.311-2.013 9.053-8.728 12.607-8.737z"/><path d="M697.652 694.079c-2.271-11.635-39.875 5.577-42.242 19.789-10.485 25.204 27.133 88.833 29.661 92.757 15.781 24.492 23.554 30.673 31.504 31.138 8.641.506 50.903-7.149 62.99-29.685.709-6.161-22.397-15.222-47.686-44.906-21.367-25.079-31.934-57.344-34.228-69.095z"/></g><g class="H"><path d="M104.754 357.725c-28.438 0-49.578-4.315-50.514-4.51a5 5 0 0 1-3.88-5.909 5.006 5.006 0 0 1 5.91-3.883c.927.193 93.32 18.686 147.115-23.244a4.997 4.997 0 0 1 7.017.87 4.998 4.998 0 0 1-.87 7.017c-30.174 23.519-70.872 29.085-99.699 29.612a272.52 272.52 0 0 1-5.079.047zm273.451 254.838a4.999 4.999 0 0 1-4.143-7.792c17.094-25.408 17.58-62.918 17.583-63.294a5 5 0 0 1 4.999-4.961h.04a5 5 0 0 1 4.961 5.039c-.013 1.657-.531 40.92-19.286 68.798a4.995 4.995 0 0 1-4.153 2.21zm276.623 114.339a4.964 4.964 0 0 1-2.378-.606 4.988 4.988 0 0 1-2.02-6.744c.523-.976 13.089-23.646 48.513-27.631 6.949-4.97 43.858-31.214 58.784-38.786 10.694-5.426 28.825-11.271 46.414-15.749-14.344-19.68-57.595-81.499-61.898-117.067a5 5 0 0 1 9.927-1.201c4.245 35.092 52.238 101.779 62.524 115.73 9.153-2.067 17.688-3.638 24.363-4.432 3.088-.374 5.289 1.854 5.646 4.213.267 1.771-.045 4.892-5.13 5.902l-3.112.601-9.345 1.746-13.441 2.476c-19.027 4.482-40.126 10.968-51.425 16.699-15.479 7.854-58.124 38.455-58.553 38.764a5.006 5.006 0 0 1-2.433.916c-30.893 3.01-41.6 21.779-42.04 22.577a5.023 5.023 0 0 1-4.397 2.593z"/><path d="M764.077 826.424a4.99 4.99 0 0 1-3.893-1.858c-25.015-30.974-60.731-119.885-62.24-123.654a5.002 5.002 0 0 1 2.785-6.5 5.002 5.002 0 0 1 6.5 2.785c.363.909 36.663 91.28 60.734 121.086a5 5 0 0 1-3.887 8.141z"/></g><g class="G"><path d="M645.577 209.086c-2.547-1.067-16.169-34.86 14.208-35.318.973-.015 4.16 5.373 3.913 5.365-7.104-.159-12.502 1.837-14.371 6.27-3.431 8.138 5.81 18.721 5.638 19.092-.798 1.906-8.746 4.859-9.388 4.591z"/><path d="M642.548 217.837c-.626-2.448-.079-5.045 1.313-7.154 2.896-4.387 9.263-12.735 16.821-14.618 5.606-1.397 7.949 4.375 6.874 8.43-1.239 4.675-11.623 9.893-15.28 13.057-3.166 2.739-8.308 5.835-9.728.285z"/></g><path d="M544.228 214.999c-2.634-1.015-12.686 7.738-24.999 11.679s-26.891 3.07-27.041 6.092c-.298 6.045 19.286 15.968 35.733 9.22 16.833-6.908 21.576-24.963 16.307-26.991" fill="#fff"/></svg></g><g transform="matrix(-1.649666 -1.268334 1.265888 -1.646485 794.243322 754.89819)"><svg width="256.622" height="245.562"><path d="M128.129 61.224 122.534.51C88.772 3.573 59.456 20.034 39.369 44.165l46.892 39.034c10.114-12.15 24.867-20.433 41.869-21.975z" fill="#007a63"/><path d="M94.283 170.256c-12.167-10.129-20.473-24.897-22.039-41.889l-60.73 5.51c3.112 33.765 19.618 63.089 43.791 83.211l38.978-46.833z" class="G"/><path d="M212.306 28.474C188.134 8.359 156.303-2.554 122.533.51l5.595 60.715c17.008-1.543 33.032 3.954 45.199 14.082l38.978-46.833z" fill="#00ba96"/><path d="m256.096 111.685-60.73 5.51c1.566 16.992-3.909 33.01-14.024 45.161l46.899 39.04c20.093-24.138 30.966-55.947 27.853-89.712z" fill="#f62"/><path d="m145.071 245.053-5.596-60.722c-17.001 1.543-33.024-3.954-45.191-14.075l-38.978 46.833c24.164 20.115 56.003 31.028 89.766 27.964z" fill="#5917c1"/><path d="M256.096 111.685c-3.112-33.765-19.618-63.089-43.79-83.211l-38.978 46.833c12.16 10.129 20.473 24.896 22.039 41.889l60.73-5.51z" fill="#ffd215"/><path d="m228.243 201.397-46.899-39.04c-10.115 12.143-24.867 20.432-41.869 21.975l5.596 60.722c33.769-3.064 63.078-19.525 83.172-43.656z" class="E"/><g class="F"><path d="M97.697 82.652 39.95 34.582C15.204 64.308 1.816 103.48 5.648 145.062l74.788-6.786c-1.929-20.935 4.805-40.66 17.261-55.623z"/><path d="M5.642 150.062a5 5 0 0 1-4.973-4.541C-3.16 103.969 9.426 63.435 36.106 31.383a5 5 0 0 1 7.042-.644l57.748 48.07a5 5 0 0 1 .643 7.041c-12.143 14.586-17.869 33.042-16.126 51.966a4.996 4.996 0 0 1-4.527 5.438L6.098 150.04a5.062 5.062 0 0 1-.458.021zM40.657 41.677c-21.796 28.041-32.486 62.472-30.406 97.946l64.896-5.889a80.33 80.33 0 0 1 15.624-50.342z"/></g></svg></g></svg>