<svg xmlns="http://www.w3.org/2000/svg" height="2201.2" width="1031.6" xmlns:v="https://vecta.io/nano"><style><![CDATA[.B{fill:#f2b9a9}.C{fill:#111}.D{fill:#de8f74}.E{fill:#656c72}.F{fill:#374047}.G{fill:#41b30a}.H{fill:#2471eb}.I{fill:#004ebd}]]></style><clipPath id="A"><path d="m498.2 111.4c-.4 16.2-1.9 37.7-3.6 58.4-2.5 30.1-37.7-3.6-37.2-25.8.7-34.3 41.2-44.2 40.8-32.6z"/></clipPath><clipPath id="B"><ellipse cx="495.8" cy="142.7" rx="20" ry="18.8" transform="matrix(.1212 -.9926 .9926 .1212 294.1296 617.521)"/></clipPath><clipPath id="C"><ellipse cx="419" cy="129.3" rx="23.8" ry="22.4" transform="matrix(.1212 -.9926 .9926 .1212 239.916 529.4903)"/></clipPath><path d="m408.8 462.2s17.7 278.7 84.6 308.7c63.1 28.3 148.4-5 148.4-5l-71.4-310s-22.5-109.1-82.8-103.8c-60.2 5.3-85.4 57.2-78.8 110.1z" class="B"/><path d="m507.3 304.5s67.3 19.3 79.5 77c14.1 66.4 39 162.7 39 162.7l-131.7 22z" class="G"/><path d="m592.1 549.8s33.4-12.1 33.7-5.6c.5 11.3-29.8 22.9-29.8 22.9z" fill="#1d1d1b"/><path d="m188.3 693s-12.8-18.9-16.2-15.4 6.2 29.3 6.2 29.3z" class="C"/><path d="M432.3 718.5c17.4 34.5 27.3 90.8 30.1 121.1C410 935.2 353.7 993.3 290.8 993c-63-.2-146.7-84.3-226.1-152.2 9.6-42.7 22.8-86.9 39.5-132.4 23.1-63.9 300.5-40.1 328.1 10.1z" class="H"/><path d="M712.9 1920.2c-6-62-35.9-289.8-35.9-289.8-6.5-69.6-227.1-49.7-220.6 19.9l44.1 305.6c9.7 86.2 221.8 61.1 212.4-35.7z" class="B"/><g class="H"><path d="M462.5 839.6c26.7 124.1 146.8 403 165.3 481.9 20.5 87.2-200.4 135.8-229.6 54.9L265.9 994.5"/><path d="m627.8 1321.6c22.6 80.2 79.3 426.5 72.9 513.2s-216.7 32.8-233.2 5c-18.2-30.6-41.6-66.7-26.3-189.6 0 0-24.2-85.2-27.4-124.2s7.6-81.7-15.5-149.4c-25.4-74.3 217.2-98.8 229.5-55z"/><path d="m710.3 1786.9c12.4 7.6 18.8 73.2 5.1 85-17.7 15.2-144.6 34.3-196.9 36.1-36.4 1.2-64.8-8.6-69-14.1-5.6-7.4-12.3-72.7-4.8-77.5s43.9 9.9 63.2 9.1c136.9-5.9 194.2-43.6 202.4-38.6z"/></g><path d="m779.6 2106c-51.6-3.6-112.1-17.9-151.6-24.2s-128.5 8-139-16.7c-9.8-23.2 5.2-70.5 6.8-84.7 2.6-24.3-15.1-36.9-7.1-51 7.4-12.9 24.7 6.2 36 16.3 10.5 9.3 36.3 9.9 75.6 10.4s79.6-26.3 79.6-26.3c-11.1-24.5 21.2-36.3 29.7-34.6 8.6 1.7 9.2 20.8 28.3 40.4 11.2 11.5 42.7 26.4 79 37.8 26.6 8.4 57.3 12.4 77.3 24.4 38.3 22.9 30.2 78 28.9 99.4" class="E"/><path d="m930.9 2082.1c-31.4 10.8-85 15-135.2 12.6-54.3-2.6-131.4-24.1-161.7-25.3s-114.4 5.9-154.2-18c-6.6-3.9-10.2 38.4-5.5 41.2 31.6 18.4 96.6 13 151.5 16.2 31.8 1.9 139.9 21.3 167.2 22.4s123 2 139.4-11.6" fill="#e1e3e3"/><path d="m813.8 1991.6c-20.7 0-48.1-9.6-68.5-19.7-11.8-5.8-20.5-15.1-28.1-23.3-13.3-14.3-21-21.4-35.2-14.4-2.5 1.2-5.5.2-6.7-2.3s-.2-5.5 2.3-6.7c21.6-10.7 34.5 3.2 47 16.5 7.4 7.9 15 16.1 25.2 21.1 25.6 12.6 60.4 23.2 76.5 16.7 2.6-1 5.5.2 6.5 2.7 1 2.6-.2 5.5-2.7 6.5-4.7 2.1-10.2 2.9-16.3 2.9z" class="F"/><g class="I"><path d="M520.3 1829.8c-2.1 0-4.1-1.3-4.8-3.5-.2-.6-18.1-56.1-32.2-102.7-8.5-28.2-6.4-50.4-4.2-73.9 1.7-17.5 3.4-35.6 1.5-58.9-3.7-46.9-14.4-108.5-35.7-205.9-21.2-97.1-138.9-373.7-154.2-400.3-1.4-2.4-.5-5.5 1.8-6.8 2.4-1.4 5.5-.5 6.8 1.8 15.4 26.7 133.9 305.3 155.3 403.1 21.4 97.9 32.1 159.9 35.9 207.3 1.9 24.2.1 43.6-1.5 60.7-2.2 23.5-4.2 43.8 3.8 70l32.2 102.5c.8 2.6-.6 5.4-3.2 6.3-.4.2-1 .3-1.5.3zm-1.8 83.2c-1.2 0-2.5-.4-3.4-1.3-11.3-10.6-15.7-51.1-15.4-69.4.2-14.6 2.8-18.7 4.9-20.6 2.1-1.8 5.2-1.6 7.1.5 1.8 2 1.6 5-.3 6.9-1.7 2.7-2.7 16.9-.4 36.9 2.6 22 7.3 35.2 10.9 38.5 2 1.9 2.1 5.1.2 7.1-1 .8-2.3 1.4-3.6 1.4zm-77.4-257.8c-.3 0-.5 0-.8-.1-2.7-.4-4.6-3-4.1-5.7 5.1-31.6 10.9-102.9 10.9-103.6.2-2.8 2.6-4.8 5.4-4.6s4.8 2.6 4.6 5.4c-.1.7-5.9 72.4-11 104.4-.4 2.4-2.6 4.2-5 4.2z"/><path d="m511.6 1830.5c-1.5 0-2.8 0-4-.1-27.7-1.6-56.3-9.8-57.5-10.2-2.7-.8-4.2-3.5-3.4-6.2s3.5-4.2 6.2-3.4c.3.1 28.8 8.2 55.3 9.8 30.5 1.8 164.4-20.9 189.3-36.5 2.3-1.5 5.4-.8 6.9 1.6 1.5 2.3.8 5.4-1.6 6.9-17.8 11.1-73.7 22.1-96.9 26.3-39.5 7.1-77 11.8-94.3 11.8z"/></g><path d="M239.3 1975.5c.9-62.3 7.4-249.1 7.4-249.1 1.3-69.9-220.2-74.8-221.5-5l-1.1 265.7c.1 86.7 213.7 85.6 215.2-11.6z" class="B"/><g class="H"><path d="m64.7 840.8c-8.5 71.4-33.7 438.7-35.6 539.8-2 101.1 234.2 160.5 243.7 32.3s-1.2-311.5 29-469.3"/><path d="m29.1 1380.6c2.9 153.3-33 265.8-19.6 331.7-11.5 65.9-5.3 134.9 17.9 167.5 0 0 186.2 39.6 208.6 7.5 22.1-31.6 49.2-48.3 15.8-196.7-.6-102.4 17.3-178.2 20.9-277.8 1.9-50.4-244.7-88.6-243.6-32.2z"/><path d="m259.6 1870.3c8 9 6.6 71.7-4.4 76.8s-124.3 11.7-176.6-.8c-39.7-9.5-62.1-16.2-67.5-21.3-5.5-5.1-17.4-62.1-4.3-71.6s31.6 11 85.6 21.8c66.5 13.2 160.3-12.6 167.2-4.9z"/></g><path d="M251.8 1695.7c-2 0-3.9-1.2-4.7-3.2-11.2-29.4-20.3-100.9-22.2-122.2-.2-2.8 1.8-5.2 4.5-5.4 2.7-.3 5.2 1.8 5.4 4.5 1.9 21 10.8 91.1 21.6 119.6 1 2.6-.3 5.5-2.9 6.4-.5.2-1.1.3-1.7.3zm-122.7 186.8c-15.4 0-28-.8-37.6-2.4-41.7-6.8-74.9-23.7-76.3-24.4a5.02 5.02 0 0 1-2.2-6.7 5.02 5.02 0 0 1 6.7-2.2c.3.2 33.2 16.9 73.3 23.5 18.5 3 59.7 4.4 151.4-6l.5-.1c2.8-.3 5.2 1.7 5.5 4.4s-1.7 5.2-4.4 5.5l-.5.1c-48.5 5.5-87.4 8.3-116.4 8.3zM286.6 1061h-.4c-2.8-.2-4.8-2.6-4.6-5.4 1.8-22.6 10.9-88.5 15.2-112.9a4.99 4.99 0 0 1 5.8-4 4.99 4.99 0 0 1 4 5.8c-4.3 24.1-13.3 89.5-15.1 111.9-.1 2.6-2.3 4.6-4.9 4.6z" class="I"/><path d="m243.9 1979.7c6.6 22.5 40.4 59.1 65 69.9 26.2 11.6 67.1 31.1 54.7 91.1-11.5 55.6-144.8 23-181.7 11.8s-54.7-16-86.5-48.7c-31.9-32.7-69.4-28.8-84.6-64.2-5.2-14.6 11.5-46.3 10.7-59.1-.7-12.8-12.8-18.5-7.4-23.5 5.3-4.9 17.7 1.4 20.6 16.4s45.7 37.3 81.9 38.3c34.9.9 27.1-20.6 57.6-22.7-2.1-29.6 66.8-41.3 69.7-9.3z" class="E"/><path d="m273.5 2201.1c59.1 1.9 93-21 97.1-27.1 6-8.7 4.4-29.9-1.5-33.9-4.7-3.3-29.9 31-93.9 25-65.1-6.1-117.2-22.1-143.5-37.7-20-11.9-37.9-33.8-53.7-44-16.8-10.9-47.9-25.5-64.4-41-3.3-3.1-5.7-11.9-8.4-8.4-3.3 4.3-6.7 32.8-4.2 36.2 15.7 21.6 46.1 30.7 61.7 42.3 21.2 15.8 31.2 22.8 47.7 40 25.9 27.1 106 46.8 163.1 48.6" fill="#e1e3e3"/><path d="m269 2056.5c-9.7 0-20.3-2.6-27.8-7.7-7.9-5.4-18.9-15.1-30.4-25.4-13.4-12-31.8-28.4-37.4-29.3-2.7-.5-4.6-3-4.1-5.8.5-2.7 3-4.6 5.8-4.1 7.8 1.3 21.2 12.9 42.4 31.7 10.8 9.6 22 19.6 29.4 24.6 12 8.1 32.7 7.1 37.1 2 1-1.2-.6-3.3-2.1-4.9-1.9-2-1.8-5.2.2-7.1s5.2-1.8 7.1.2c8.7 9.3 4 16.3 2.4 18.3-4.3 5-13 7.5-22.6 7.5z" class="F"/><path d="m309.9 902.8c-.4 0-.9-.1-1.4-.2-2.7-.7-4.2-3.5-3.5-6.2 4-14.3 12.7-53.2 15.9-79.7.3-2.7 2.8-4.7 5.6-4.4 2.7.3 4.7 2.8 4.4 5.6-3.2 27.1-12.1 66.7-16.2 81.2-.6 2.3-2.6 3.7-4.8 3.7z" class="I"/><path d="m377.6 277.5c25.6 3.1 127.9 20.9 140.6 32.5 15.4 14-15.8 382-58.2 416.2s-101.5 22.1-127.6 17.1c-29.8 4.6-79.4-9-124-21.9 0 0-101.5 5.5-106.9-18.3-12.5-54.8 17.8-173.5 31.1-278.8 6.7-53.2-5.4-139.9 22.8-147 72.6-18.3 222.2.2 222.2.2z" class="G"/><g class="B"><path d="M352.6 341.4c-30.9-6.3-50.7-36.5-44.4-67.3l17.9-87.4c6.3-30.9 36.5-50.7 67.3-44.4 30.9 6.3 50.7 36.5 44.4 67.3L419.9 297c-6.3 30.9-36.5 50.7-67.3 44.4z"/><path d="m497.5 87.3c4.1 16.2-6.3 132.5-10.4 147.8-5.8 21.8-82.6 19.5-133.1-19.4-28.9-22.3-29.3-101.6-.2-142.4 36.1-50.5 132-31.7 143.7 14z"/></g><path d="M346.6 138.9c2.7 7.2 11 10.6 12.6-.8s-5.1-31 8.5-41.8c14.8-11.8 27.6-41 43-43.5 44.8-7.4 83.6 19.1 86.8 34.6 8 5.7 33.4-30.3 16.4-54.7 0 0-6 16.8-19.1 16.6 0 0 8.2-27.2-4.1-49.2 0 0-4.2 11.2-12 14.5 1.7-8.3-13.6-11.8-27 3.2 1.9-7.4-4.9-19.7-18.3-.3 0 0-20.5-7.4-34.2 12.3 0 0-43.2 8.3-56.4 25.5 0 0 5.5-14.8 1.1-16.4s-30.5 75-24.1 94.5c6.3 19.5 26.8 5.5 26.8 5.5zM487 106.4c-9.8-2.5-7.5-18.1.8-15.8 5.3 1.4 22.4 8.4 26.7 16.8 2.8 5.5 2.8 11.9-4.4 8.3-7.2-3.5-13.8-6.9-23.1-9.3z" class="C"/><path d="m349.3 146.1c-6-22.9-31.6-33.9-41.9-10.7s9 42.1 23.7 41c14.7-1 22-15.7 18.2-30.3z" class="B"/><g class="D"><path d="m335.1 164.1c-.4 0-.8-.1-1.2-.2-2.7-.7-4.3-3.4-3.6-6.1 1.2-4.7 1.1-11.1-10.7-19.1-2.3-1.6-2.9-4.7-1.3-6.9 1.6-2.3 4.7-2.9 6.9-1.3 12.8 8.7 17.6 18.5 14.8 29.8-.6 2.3-2.7 3.8-4.9 3.8z"/><path d="M324.9 156.8c-1.4 0-2.7-.6-3.7-1.7-1.8-2.1-1.7-5.2.4-7.1l7.4-6.6c2.1-1.8 5.2-1.7 7.1.4 1.8 2.1 1.7 5.2-.4 7.1l-7.4 6.6c-1.1.8-2.3 1.3-3.4 1.3zm116.8 53.8c-.4 0-.7 0-1.1-.1-4.5-1-19.7-5.3-27.8-19-1.4-2.4-.6-5.4 1.7-6.9 2.4-1.4 5.4-.6 6.9 1.7 4.8 8.1 14.2 12.7 21.4 14.3 2.7.6 4.4 3.3 3.8 6a5.01 5.01 0 0 1-4.9 4z"/></g><path d="m442.1 95.1c9.3 5.6 18.1-8.2 7.8-13.2-13-6.3-37-8.7-47.3-1.7-10.4 7-8.3 12.5-.4 11.1 7.8-1.3 27.4-3.8 39.9 3.8z" class="C"/><path d="m428.1 254c-.3 0-.5 0-.8-.1-22.1-3.5-54.3-17.8-70.3-31.2-2.1-1.8-2.4-4.9-.6-7s4.9-2.4 7-.6c14.6 12.2 45.2 25.8 65.4 29 2.7.4 4.6 3 4.2 5.7-.4 2.4-2.5 4.2-4.9 4.2z" class="D"/><g clip-path="url(#A)"><ellipse cx="495.8" cy="142.7" fill="#fff" rx="20" ry="18.8" transform="matrix(.1212 -.9926 .9926 .1212 294.1296 617.521)"/><g clip-path="url(#B)" class="C"><ellipse cx="495.8" cy="140.1" rx="17.6" ry="10.8" transform="matrix(.1212 -.9926 .9926 .1212 296.7001 615.2413)"/></g></g><ellipse cx="419" cy="129.3" fill="#fff" rx="23.8" ry="22.4" transform="matrix(.1212 -.9926 .9926 .1212 239.916 529.4903)"/><g clip-path="url(#C)" class="C"><ellipse cx="429.6" cy="126.6" rx="19.6" ry="12.9" transform="matrix(.1212 -.9926 .9926 .1212 251.7966 537.7)"/></g><path d="m457.7 157.5c13.7-11.2 23.9 1.2 11.2 15.7" class="B"/><path d="m468.9 178.2c-1.2 0-2.3-.4-3.3-1.2-2.1-1.8-2.3-5-.5-7.1 5-5.7 5.1-10.2 4-11.3-.9-.9-4-.7-8.3 2.8-2.1 1.7-5.3 1.4-7-.7s-1.4-5.3.7-7c9.1-7.4 17.5-6.4 21.8-2 4.7 4.9 5.4 14.4-3.6 24.8-1 1.2-2.4 1.7-3.8 1.7z" class="D"/><path d="M431.4 286.4c1 11.7-9.8 53.5-52.6 55.5-48.6 2.3-74.7-32.9-104.5-72.1l34.4 1.7 110.8 12.8zM751 668.6l-197.1-25.1c-33.3 1.3 32.9 133.5 68.1 128.7l137.5-35.9c26.3-8.7 22.5-59.9-8.5-67.7z" class="B"/><path d="m454.4 730.7s-.7 27.6 2.6 43-54.6 18-115.6 16.4c-74.9-1.9-193.3-28.3-251.3-42.6l11.4-44.3s192.3 32.1 242 34.3c77.3 3.2 110.9-6.8 110.9-6.8z" fill="#fdd016"/><path d="m343.3 799.6c-1.8 0-3.4 0-4.9-.1-13-.4-29.4-2.5-36.5-7.2-4.7-3.1-6.7-12.1-6-26.8.3-6.5 1.9-28.2 10.6-32.9 7.8-4.2 34.2-3.1 37.1-3 14 .7 31.7 2.7 36.9 8.5 9 10.2 3.6 46.1-6.1 54.9-6 5.5-20.5 6.6-31.1 6.6zm-35.6-15.5c10.2 6.3 53.4 7.5 60 1.5 2.4-2.2 5.5-10 6.9-20.7 1.5-11.7-.1-18.5-1.5-20.1-1.6-1.5-11.3-4.3-30.4-5.2-16.8-.8-28.9.5-31.3 1.7-1 .9-3.5 6.1-4.8 17-1.8 13.8-.3 23.8 1.1 25.8z" class="C"/><path d="M494.5 563.9h-.3c-2.8-.1-4.9-2.5-4.7-5.2l5-99.6c.1-2.8 2.5-4.9 5.2-4.7 2.8.1 4.9 2.5 4.7 5.2l-5 99.6c0 2.6-2.3 4.7-4.9 4.7z" fill="#2a7700"/><path d="M894.9 626.6L800 654.2l-82.2 23.9c-2.5.6-5.1 1-7.7 1.4-.3 0-.6.1-.9.1-3.3.4-6.7.6-10 .7l-285.7 2.1-1.4-9.7v-.1-.1L695 668c2.7 0 5.4-.2 8.1-.4 4.3-.4 8.6-1.1 12.8-2l2.6-.6 174.8-50.2z" class="F"/><path d="m893.2 614.7-177.4 50.8-1.1.3c-3.9 1-7.8 1.6-11.8 1.9-1.4.1-2.8.2-4.2.2l-285.8 5.4c-.4 0-.7-.3-.8-.6v-.1-.1c0-.3.2-.6.6-.7l198.1-45.8c4.1-.9 8.2-1.5 12.4-1.7l100-3.6z" class="E"/><path d="m577 658.8 119.7-31.2c2.7-.7 5.5-1.1 8.3-1.2l104.6-2.3-105.9 35.4c-2.5.8-5.2 1.3-7.9 1.3l-118.5.4c-1.5.2-1.8-2-.3-2.4z" class="F"/><path d="M1030.5 355.6l-19.1 39.9-82.3 172.3-21.7 45.5c-2.7 5.7-7.1 10.3-12.4 13.3l-1.8-11.9-170 6 99.5-231.6c7-16.4 22.1-28 39.7-30.6l152.7-22.6c11.1-1.6 19.7 9.4 15.4 19.7zm-135.6 271s0 .1 0 0c-2.1 1.2-4.3 2.1-6.6 2.8L800 654.3l-89.5 25.2c-.1 0-.2 0-.3.1-.3.1-.6.1-.9.1-5.3.3-9.3-5.1-7.1-10.2l.7-1.7.1-.2 3.9-9 13.9-32.4 2.3-5.4 170-6z" class="E"/><g class="B"><path d="M866.9 672.3c-8.7 18-82.7 57.4-107.5 64-21.1 5.6-76.2-11.2-64.3-34.8 11.9-23.7 66.7-34.8 66.7-34.8s120.6-26.1 105.1 5.6zM49.1 463.2S4.3 680.3 67.2 714.9c61.5 33.8 125.6 19.9 125.6 19.9l16.6-260.2s11.2-107.3-52.8-109.8c-64.3-2.5-102.3 47.4-107.5 98.4z"/><path d="m439 606.4-255-13.9c-32.7 1.9-33.4 145.6-.7 143.7l258.1-36c26.2-5.1 28.3-87.1-2.4-93.8z"/><path d="m412.2 651.9c-2.7-21.7 7.4-42.9 25.8-54.6 16.4-10.4 33.6-22.9 41.6-28.8 13.4-9.9 57.6 81.6 39.8 96.3-15.3 12.6-24.1 24.7-41.4 32-12.9 5.4-34.3 8.4-46.8 5.6-10.6-2.4-16.1-27.4-19-50.5z"/><path d="M479.6 568.5c10.7-11.3 49.1-37.4 57.3-36.4s49.2 23.3 56.2 27.6c13.1 8.2-1.7 29.9-18 21.7l-33.2-16.8-44.4 28.4z"/><path d="M487.7 596c10.1-8 43.4-32.5 51.4-35.2s58.8 16.8 67.2 20c18.6 7.1 9.7 37-12.7 29.8L549 595.9l-46.7 28.5z"/><path d="M490.9 616.3c7.3-7.1 42.4-25.6 53.4-24.6s46.8 11.5 57.8 14.8c15.1 4.5 11.8 33.5-9.4 28.4l-41.8-9.7-45.4 21.6z"/><path d="M498.4 643.2c5.1-5.2 30.8-21.7 37.8-22.1s32.9 10.9 40.9 14.7c13.7 6.5 5.1 26.8-17.7 20.8l-21.2-5.2-18.8 13.3z"/></g><path d="M505 643c-1.6 0-3.2-.8-4.2-2.2-1.5-2.3-.9-5.4 1.4-6.9 9.2-6.2 31.6-20.1 41.7-16.5l23.1 8.5c7.1 2.6 3.6 12-3.4 9.4l-23.1-8.4c-3.5-1.1-18.8 6.1-32.6 15.4-1 .5-1.9.7-2.9.7zm-8.6-22.2c-1.5 0-3.1-.7-4.1-2.1-1.6-2.2-1.1-5.4 1.1-7 8.9-6.4 38.9-27.3 51.8-24.9 11.8 2.2 50 12.5 51.6 13 2.7.7 4.2 3.5 3.5 6.1-.7 2.7-3.5 4.2-6.1 3.5-.4-.1-39.5-10.7-50.9-12.8-5.9-1.1-27.5 11.1-44 23.1a4.23 4.23 0 0 1-2.9 1.1zm-7-21.2c-1.6 0-3.1-.7-4.1-2.1-1.6-2.3-1.1-5.4 1.2-7 1.7-1.2 41.8-29.7 50.2-34.2 3.5-1.9 10.3-2.7 34 5.5 12.5 4.3 23.7 9.1 24.2 9.3 2.5 1.1 3.7 4 2.6 6.6-1.1 2.5-4 3.7-6.6 2.6-20.1-8.6-44.8-16.7-49.6-15.2-6.7 3.7-37.7 25.4-49.1 33.5-.8.7-1.8 1-2.8 1zm-15.9 103.8c-1.8 0-3.5-1-4.4-2.7-1.3-2.4-.4-5.5 2.1-6.8 5.7-3 21.6-11.8 26-15.9 2-1.9 5.2-1.7 7.1.3s1.7 5.2-.3 7.1c-6.2 5.7-25.9 16.2-28.1 17.4-.8.5-1.6.6-2.4.6z" class="D"/><g class="B"><path d="M810.6 683.2c13.4.9 52.1-5.2 56.3-10.9s14-45.4 15.3-52.6c2.5-13.5-19.8-18.7-24.1-3.4l-8.7 31.4-43.8 8.3z"/><path d="M786.7 696.7c10.7-2.8 44.7-13.1 50.5-17.2s17.1-49.3 19-56.7c4.2-16.5-21.5-25.9-27.5-6.7l-11.6 38.4-43.4 17.4z"/><path d="M767.4 693.7c5.3 6.3 14.5 7.6 21.3 2.9 10.8-7.5 23.9-18.5 26-24.4 3.1-8.8 7.6-40.4 8.9-50.1 1.8-13.3-22.4-21.8-26-3.5l-7.2 35.9-20.7 16.5c-7 5.6-8 15.8-2.3 22.7z"/><path d="m748.3 683.2c3.2 7.4 12.2 10.3 19.1 6.1 7.8-4.8 16.1-10.6 17.7-13.7 2.9-5.3 3.1-29.4 3-37-.3-13-19.5-14-22.9 5.7-1.8 10.7-3.4 18.3-3.4 18.3l-10.8 6c-6.5 3-5.6 8-2.7 14.6z"/></g><path d="M798.3 704.4c-1.3 0-2.6-.5-3.5-1.5-2-1.9-2-5.1 0-7.1 6.4-6.5 17.2-19 18.8-25.2 2.4-9.5 8-43.6 8-43.9.4-2.7 3-4.6 5.7-4.1 2.7.4 4.6 3 4.1 5.7-.2 1.4-5.7 34.8-8.2 44.7-2.7 10.9-19.5 28-21.4 29.9-1 1-2.2 1.5-3.5 1.5zm18.3 2.1c-1.4 0-2.7-.5-3.7-1.6-1.9-2-1.7-5.2.3-7.1l22.1-20.3c3.8-6.8 11.4-36.2 15.4-53.6.6-2.7 3.3-4.4 6-3.8s4.4 3.3 3.8 6c-1.1 4.9-11.2 48.2-17 57.2-.2.4-.5.7-.8 1L820 705.2a5.01 5.01 0 0 1-3.4 1.3zm-121.5 0c-.6 0-1.3-.1-1.9-.4-2.6-1-3.8-4-2.7-6.5 9.8-24 55.2-34.1 57.1-34.5 2.7-.6 5.4 1.1 5.9 3.8s-1.1 5.4-3.8 5.9c-11.7 2.5-43.4 12.6-50 28.5-.8 2-2.6 3.2-4.6 3.2zm70.2 0c-1.3 0-2.5-.5-3.5-1.4-2-1.9-2-5.1 0-7.1 4.2-4.3 15.9-17 18.7-24.3 3.4-8.6 2.7-19.5 2.7-19.6-.2-2.8 1.9-5.1 4.6-5.3 2.8-.2 5.1 1.9 5.3 4.6 0 .5.9 13.2-3.3 24-4.1 10.5-19.2 25.9-20.9 27.6-1 1-2.3 1.5-3.6 1.5z" class="D"/><path d="M308.7 271.4s.4 60 66.5 62.1c66.7 2.2 47.2-48.8 47.2-48.8l20.2 3.8-.9 60.4-75.9 35.1-82.5-38.6-16.3-75.9zm-96.6 280s-118.8 32.9-191.2-9.1c0 0-7-3-4.3-16.5 2.8-13.5 60.1-232.1 138.9-248.3 106.2-22.1 56.6 273.9 56.6 273.9z" class="G"/><path d="m184.1 598.2c-2.1 0-4.1-1.3-4.8-3.4-.9-2.6.6-5.4 3.2-6.3 9.6-3.1 29.3-1.9 31.5-1.8 2.8.2 4.8 2.6 4.6 5.3-.2 2.8-2.5 4.8-5.3 4.7-5.5-.4-21.1-.9-27.7 1.3-.5.1-1 .2-1.5.2z" class="D"/><path d="M207.4 555.3h-.7c-2.7-.4-4.7-2.9-4.3-5.6.1-.6 8.4-63.8 8.4-98.9a4.95 4.95 0 1 1 10 0c0 35.7-8.1 97.6-8.5 100.2-.3 2.5-2.4 4.3-4.9 4.3z" fill="#2a7700"/></svg>