<svg xmlns="http://www.w3.org/2000/svg" width="2823" height="3000" xmlns:v="https://vecta.io/nano"><style><![CDATA[.B{fill:#f4bbab}.C{fill:#c83400}.D{fill:#e09273}]]></style><g transform="matrix(1.769976 0 0 1.769213 270 1058.823529)"><svg width="1288.153" height="970.521"><g fill="#5917c1"><path d="M739.373 958.354a1009.304 1009.304 0 0 1-47.917 5.91c288.244 32.309 515.331-61.395 556.441-260.7-113.282 126.71-294.739 223.189-508.524 254.79zM298.632 41.624C158.37 51.6 66.302 104.091 24.064 221.629 12.155 254.77 4.085 289.284 0 324.5 55.558 211.687 161.148 111.556 298.632 41.624z"/><ellipse cx="666.978" cy="451.499" rx="624.389" ry="446.883" transform="matrix(.9893 -.1462 .1462 .9893 -58.8526 102.3845)"/></g></svg></g><g transform="matrix(1.778339 0 0 1.775067 721.764706 501.176471)"><svg width="862.338" height="1256.622"><clipPath id="A"><ellipse cx="328.526" cy="239.024" rx="30.364" ry="35.363" transform="matrix(.9387 -.3447 .3447 .9387 -62.2591 127.8991)"/></clipPath><clipPath id="B"><path d="M434.074 164.196l29.941 67.312c18.464 43.139-50.015 39.946-70.104-8.363s28.797-83.671 40.163-58.949z"/></clipPath><clipPath id="C"><ellipse cx="432.726" cy="203.636" rx="28.491" ry="33.181" transform="matrix(.9387 -.3447 .3447 .9387 -43.6736 161.6493)"/></clipPath><g fill="#f62"><path d="M551.541 413.753c47.986-.83 129.337-8.631 191.744 144.042s196.619 440.461 59.559 507.708c-119.058 58.415-153.265-84.434-171.922-135.499-19.136-52.377-72.778-257.426-78.35-299.773-17.932-76.007-9.879-168.275-1.031-216.478z"/><path d="M243.835 450.494s-112.053 28.473-134.098 39.495 11.915 649.241 67.049 676.024c105.712 51.352 482.275-15.366 526.309-65.214 30.149-34.129-86.34-437.211-98.281-492.322s-19.289-198.398-53.274-194.724-140.89 12.201-140.89 12.201z"/></g><path d="M364.403 506.402c-45.613 9.055-111.761-11.546-120.816-57.158l-26.995-135.98c-9.055-45.613 20.581-89.929 66.193-98.984s89.929 20.581 98.984 66.193l26.995 135.98c9.056 45.612-2.857 66.935-44.361 89.949z" class="B"/><g fill="#e3e5e5"><path d="m364.403 506.402 8.115-69.753c27.318-11.987 36.207-15.708 34.158-30.717l24.158 18.393c-10.584 36.717-31.481 67.082-66.431 82.077zm0 0-28.89-61.504c-39.601-7.252-76.308-7.248-103.377-41.454l-19.27 55.134c49.148 40.546 96.864 63.301 151.537 47.824z"/><path d="M335.513 444.898s-74.659-10.937-104.134-47.198l-31.226 61.041c15.07 29.534 65.866 71.775 104.1 75.253zm37.006-8.249c18.561-9.087 34.158-30.718 37.359-38.95l24.7 25.37c8.115 26.233-1.958 54.582-10.823 78.038z"/></g><path d="M313.29 511.591a7.5 7.5 0 0 1-7.046-10.069l19.917-54.685a7.499 7.499 0 0 1 9.614-4.48 7.5 7.5 0 0 1 4.48 9.614l-19.917 54.686a7.506 7.506 0 0 1-7.048 4.934zm91.754-28.429a7.485 7.485 0 0 1-5.84-2.79l-27.337-33.866a7.5 7.5 0 1 1 11.672-9.422l27.337 33.866a7.5 7.5 0 0 1-5.832 12.212z" fill="#b7b7b7"/><path d="M408.878 111.381c14.353 27.43 91.091 193.322 87.081 211.372-5.597 25.193-61.182 59.274-113.284 67.839-48.08 7.904-118.234 4.409-163.338-78.918s-17.385-180.527 42.81-214.816c60.394-34.402 130.101-17.259 146.731 14.523z" class="B"/><path d="M231.065 282.92c13.637 17.967 21.377 4.808 17.507-8.478-4.964-17.041-24.717-45.345-11.865-68.863 13.95-25.527 14.835-57.32 34.185-69.66 58.953-37.595 124.16-44.619 137.986-24.539 19.508-4.654 19.911-62.187-18.804-86.751 0 0 3.65 28.819-15.051 36.26 0 0-2.168-37.095-32.839-60.889 0 0 .785 18.382-8.385 27.69-2.591-12.824-26.694-11.803-36.768 17.463-1.751-11.629-18.715-25.063-26.216 10.554 0 0-34.46-7.775-42.198 28.442 0 0-59.818 27.955-65.783 74.143 0 0-1.014-24.294-8.218-23.87s2.986 109.765 31.781 156.035c16.759 26.931 44.668-7.537 44.668-7.537zm107.05-97.195c20.544 2.38 22.055-17.346 6.164-20.726-15.752-3.351-45.462 5.123-57.144 16.017-9.575 8.93-5.369 19.885 5.897 13.643 14.294-7.92 28.098-10.902 45.083-8.934zm48.791-37.186c-12.666 11.109-23.666-3.202-12.362-16.542 14.578-17.204 41.226-19.264 56.153-6.632 7.417 6.276 9.186 16.996.208 13.37-14.841-5.996-27.326-4.819-43.999 9.804z"/><g fill="#656c72"><path d="M329.494 302.487c-32.987 0-59.824-26.837-59.824-59.824s26.837-59.824 59.824-59.824 59.824 26.837 59.824 59.824-26.837 59.824-59.824 59.824zm0-104.648c-24.716 0-44.824 20.108-44.824 44.824s20.108 44.824 44.824 44.824 44.824-20.108 44.824-44.824-20.108-44.824-44.824-44.824zm111.568 62.377c-30.773 0-55.81-25.036-55.81-55.81s25.036-55.81 55.81-55.81 55.81 25.036 55.81 55.81-25.036 55.81-55.81 55.81zm0-96.619c-22.502 0-40.81 18.307-40.81 40.81s18.307 40.81 40.81 40.81 40.81-18.307 40.81-40.81-18.307-40.81-40.81-40.81z"/><path d="M378.938 233a7.5 7.5 0 0 1-6.889-4.529 7.499 7.499 0 0 1 3.912-9.858l15.945-6.886a7.5 7.5 0 1 1 5.946 13.77l-15.945 6.886a7.48 7.48 0 0 1-2.969.617zm-181.943 52.076a7.474 7.474 0 0 1-3.152-.699 7.5 7.5 0 0 1-3.646-9.96c5.246-11.308 21.378-19.753 49.318-25.821 19.208-4.171 36.878-5.627 37.621-5.687a7.5 7.5 0 0 1 1.209 14.951c-.173.014-17.544 1.452-35.788 5.425-31.646 6.893-37.663 15.095-38.753 17.445a7.504 7.504 0 0 1-6.809 4.346z"/></g><path d="M417.348 273.456a7.5 7.5 0 0 1-7.143-9.794c1.526-4.754.621-7.936-.617-9.215-.828-.855-1.612-.758-2.13-.609-2.193.626-5.363 4.164-7.076 12.074a7.5 7.5 0 1 1-14.66-3.174c2.684-12.393 9.106-20.895 17.621-23.324 6.169-1.758 12.533-.039 17.024 4.602 5.595 5.781 7.136 14.839 4.121 24.231a7.506 7.506 0 0 1-7.14 5.209zm-39.451 74.763c-9.241 0-18.164-.995-24.139-2.655a7.5 7.5 0 0 1 4.015-14.453c8.152 2.264 27.298 3.352 39.962-.021a7.5 7.5 0 0 1 3.861 14.495c-6.892 1.836-15.423 2.634-23.699 2.634z" class="D"/><path d="M226.625 277.779c-21.319-20.689-55.144-11.277-44.826 31.033 8.276 33.937 44.136 35.861 54.481 28.275s10.153-40.085-9.655-59.308z" class="B"/><g class="D"><path d="M230.621 323.65a7.5 7.5 0 0 1-6.78-4.285c-1.777-3.741-6.11-9.909-11.788-15.253-5.476-5.154-10.989-8.295-14.748-8.402a7.5 7.5 0 0 1-7.283-7.711 7.485 7.485 0 0 1 7.711-7.283c17.239.492 34.604 21.571 39.658 32.216a7.5 7.5 0 0 1-6.77 10.718z"/><path d="M206.957 317.739a7.501 7.501 0 0 1-6.171-11.754l8.846-12.85a7.501 7.501 0 0 1 12.356 8.506l-8.846 12.85a7.493 7.493 0 0 1-6.185 3.248zm141.317 82.477c-19.26 0-39.948-2.665-58.46-10.737a7.5 7.5 0 1 1 5.996-13.75c34.435 15.016 78.512 8.972 101.722 4.034a7.5 7.5 0 0 1 3.121 14.671c-12.892 2.743-31.821 5.782-52.379 5.782z"/></g><ellipse cx="328.526" cy="239.024" fill="#fff" rx="30.364" ry="35.363" transform="matrix(.9387 -.3447 .3447 .9387 -62.2591 127.8991)"/><ellipse clip-path="url(#A)" cx="333.382" cy="230.276" rx="20.085" ry="28.407" transform="matrix(.9387 -.3447 .3447 .9387 -58.9458 129.0366)"/><g clip-path="url(#B)"><ellipse cx="432.726" cy="203.636" fill="#fff" rx="28.491" ry="33.181" transform="matrix(.9387 -.3447 .3447 .9387 -43.6736 161.6493)"/><ellipse clip-path="url(#C)" cx="436.306" cy="195.605" rx="18.371" ry="26.364" transform="matrix(.9387 -.3447 .3447 .9387 -40.6858 162.3914)"/></g><path d="M324.724 560.635c-24.337 0-49.701-5.152-74.626-15.395-40.154-16.5-72.934-44.669-85.547-73.515a7.499 7.499 0 0 1 3.867-9.876 7.497 7.497 0 0 1 9.876 3.867c11.114 25.417 40.812 50.573 77.505 65.651 40.546 16.661 83.845 18.666 118.792 5.5 51.325-19.335 72.916-57.229 64.173-112.626a7.501 7.501 0 0 1 14.817-2.339c12.465 78.978-33.199 113.744-73.701 129.002-17.248 6.496-35.881 9.731-55.156 9.731z" class="C"/><path d="M109.737 489.989C20.756 528.546-9.897 614.123 2.711 812.021c14.217 223.154 25.856 315.808 117.793 372.481 89.972 55.463 136.339-144.223 123.578-213.135 0 0 13.876-21.694-5.185-39.561-17.785-26.799-13.792-123.782-7.576-216.944 7.575-105.919-52.763-213.754-121.584-224.873z" fill="#f62"/><path d="M647.265 779.797a7.5 7.5 0 0 1-7.25-5.603l-42.477-163.901a7.501 7.501 0 0 1 14.554-3.631l42.434 163.733a7.5 7.5 0 0 1-5.356 9.155 7.503 7.503 0 0 1-1.905.247zM245.224 989.026a7.5 7.5 0 0 1-7.019-10.14c8.374-22.275-5.331-42.601-5.471-42.804a7.789 7.789 0 0 1-.773-1.421c-20.652-50.191-12.887-155.265-9.155-205.76l1.029-14.507a7.501 7.501 0 0 1 14.971.937l-1.041 14.675c-3.347 45.28-11.162 151.035 7.798 198.284 2.996 4.653 16.947 28.567 6.683 55.872a7.505 7.505 0 0 1-7.022 4.864z" class="C"/><path d="m426.861 673.497 52.245 136.668c35.68 90.299 189.335 29.958 153.655-60.341l-70.778-140.999c-37.109-79.051-172.231-14.379-135.122 64.672z" class="B"/><g fill="#f62"><path d="M802.844 1065.502c-41.08 20.045-128.149.162-164.799-14.478s-73.111-37.203-86.437-98.952c-10.592-26.908-42.785-28.63-51.693-47.412-10.124-21.347-13.215-56.685-19.847-83.79-22.689-8.699-42.331-23.205-28.415-72.24 67.978-16.363 108.696-55.026 141.814-86.908 31.772 3.076 44.934 29.309 46.907 68.297 15.696-6.281 23.153 7.234 29.228 29.707 0 0 40.037-3.22 49.161 6.62s14.354 66.101 27.529 67.29 28.072 8.017 44.202 43.748c22.764 50.426 28.356 187.177 12.35 188.118z"/><path d="M451.654 748.631 429.321 695.6c56.908-.429 106.527-33.197 140.405-80.495l23.743 46.618c-30.336 53.169-81.671 85.274-141.815 86.908z"/></g><path d="M620.937 1057.039a7.483 7.483 0 0 1-3.132-.689c-29.283-13.485-68.499-68.451-73.616-103.184-.827-3.08-11.24-10.39-18.129-15.228-11.763-8.258-25.095-17.618-32.478-29.261-8.471-13.361-17.411-64.994-20.168-81.919-12.077-4-21.056-11.236-26.729-21.56-11.384-20.713-5.417-47.448-2.989-56.144l-21.287-50.545a7.5 7.5 0 0 1 13.824-5.822l22.333 53.031a7.503 7.503 0 0 1 .194 5.309c-.09.27-9.242 28.256 1.093 46.989 4.369 7.919 11.565 13.012 22 15.569a7.5 7.5 0 0 1 5.626 6.132c4.088 26.291 12.799 71.51 18.77 80.927 5.781 9.117 17.813 17.564 28.428 25.017 12.85 9.021 23 16.147 24.351 25.318 4.381 29.735 40.25 80.323 65.051 91.744a7.5 7.5 0 0 1-3.142 14.316z" class="C"/><g class="B"><path d="M561.983 608.825c-7.535-27.365-1.317-84.934 15.169-121.978s-122.326-15.651-132.572 16.897-24.86 66.543-30.631 89.271c-6.255 24.635-3.587 50.982 12.911 80.483 12.99 23.226 135.123-64.673 135.123-64.673z"/><path d="M577.152 486.847c9.004-24.722 27.743-77.35 26.08-94.223s-29.292-73.385-35.779-85.095c-13.055-23.565-48.323-12.889-37.818 15.698 12.448 33.875 25.079 74.85 25.079 74.85l-24.312 84.245z"/><path d="M547.009 490.05c5.365-22.331 21.182-85.816 14.847-97.699s-52.263-28.289-61.772-21.311c-5.312 3.898-25.571 51.173-29.066 59.306-7.89 18.361 26.351 34.161 35.89 13.811 5.311-11.33 11.699-23.947 11.699-23.947l-14.213 65.715z"/><path d="M518.061 493.51c1.72-17.771-.369-81.726-7.816-88.134s-62.384-7.666-68.788-4.786-10.918 45.263-12.904 54.89c-4.674 22.651 33.341 31.521 38.518 8.413 3.006-13.418 3.005-21.176 3.005-21.176l6.229.375-.421 56.767z"/><path d="M490.063 497.724c-1.018-13.384-.572-55.844-5.56-61.09s-57.366-9.217-63.561-5.787-13.368 39.893-17.254 61.721c-4.037 22.679 33.922 32.087 38.676 6.114 2.725-14.886 2.353-29.563 2.353-29.563l-.137 34.624z"/></g><path d="M547.013 497.552a7.501 7.501 0 0 1-7.238-9.482c7.955-29.062 18.96-79.449 15.154-92.752-1.219-1.381-5.277-4.317-8.92-6.427a7.502 7.502 0 0 1-2.735-10.247 7.498 7.498 0 0 1 10.242-2.74c8.791 5.078 13.983 9.791 15.433 14.008 7.022 20.424-11.018 88.649-14.705 102.118a7.506 7.506 0 0 1-7.231 5.522zm-28.947 3.458a7.5 7.5 0 0 1-7.501-7.729c.879-28.81-.575-73.569-6.53-83.686-2.153-1.613-11.279-2.615-19.067-2.07-4.128.288-7.716-2.821-8.009-6.95a7.5 7.5 0 0 1 6.941-8.012c7.809-.562 26.63-.823 32.695 8.82 10.701 17.017 9.344 79.919 8.963 92.356a7.5 7.5 0 0 1-7.492 7.271zm-28.008 4.214a7.501 7.501 0 0 1-7.492-7.255c-.724-22.197-2.449-48.416-4.133-56.104-6.56-1.958-27.633-4.002-45.27-4.807a7.5 7.5 0 0 1 .683-14.984c50.777 2.313 54.73 7.523 56.63 10.027 1.648 2.172 3.699 4.875 5.689 36.45l1.393 28.93a7.5 7.5 0 0 1-7.5 7.743zm-12.071-64.95zm-33.406 70.97h-.03a7.5 7.5 0 0 1-7.47-7.53l.137-34.625a7.5 7.5 0 0 1 7.5-7.47h.03a7.5 7.5 0 0 1 7.47 7.53l-.137 34.625a7.5 7.5 0 0 1-7.5 7.47z" class="D"/><g class="C"><path d="M783.923 871.759a7.5 7.5 0 0 1-7.479-7.044c-.244-4.003-4.34-9.062-11.24-13.882-7.502-5.239-15.918-8.635-20.845-9.95-10.762-2.873-14.518-18.38-19.273-38.014-2.491-10.284-6.66-27.497-10.73-30.454-15.515-11.271-42.856-5.427-43.129-5.366-4.015.881-7.998-1.624-8.928-5.624-4.07-17.509-9.814-22.7-12.876-24.236-2.819-1.416-5.167-.658-5.718-.44-2.19 1.243-4.685 1.203-6.934.051-2.278-1.167-3.617-3.518-3.86-6.065-5.087-53.255-23.442-57.549-38.191-60.999a198.925 198.925 0 0 1-3.077-.737 7.498 7.498 0 0 1-4.857-3.871l-23.743-46.618a7.5 7.5 0 1 1 13.366-6.807l22.171 43.531c15.643 3.664 40.897 10.081 48.359 66.138 2.578.103 5.498.673 8.57 2.102 8.655 4.023 15.232 13.354 19.597 27.775 11.092-1.349 32.716-2.12 48.067 9.033 8.533 6.199 12.399 22.16 16.492 39.058 2.214 9.142 5.893 24.329 8.998 27.171 13.731 3.798 41.557 17.624 42.754 37.294a7.5 7.5 0 0 1-7.494 7.954z"/><path d="M452.855 756.135a176.87 176.87 0 0 1-1.26-.005 7.501 7.501 0 0 1-7.441-7.559c.033-4.143 3.462-7.473 7.559-7.441l1.083.005c30.539 0 60.498-10.137 86.713-29.352 19.965-14.634 37.64-34.625 47.281-53.477a7.5 7.5 0 0 1 13.354 6.83c-16.15 31.583-67.637 90.999-147.289 90.999z"/></g><path d="M571.808 1056.917 426.23 1042.2c-96.712-8.606-112.428 168.001-15.716 176.607l157.831-1.063c87.323 1.881 90.787-158.947 3.463-160.827z" class="B"/><g fill="#f62"><path d="M120.504 1184.503c55.643 37.914 82.699 38.111 101.789 39.528 23.045 14.005 89.098 44.77 133.895 10.952 0 0 44.408 26.153 67.055 20.956 20.867-4.789 35.907-33.522 35.907-33.522-8.21-59.954 1.065-119.458 24.773-178.593-2.969-27.011-11.975-44.251-65.317-25.323 0 0-15.682-25.809-35.678-20.895s-31.215 17.209-47.476 12.163-52.692-27.125-75.931-28.67c-32.737-2.176-53.474 17.91-67.894 29.511-53.931 43.389-83.496 102.692-71.123 173.893z"/><path d="M483.921 1043.824c-29.169 11.574-52.068 124.604-24.773 178.593 0 0 50.64 2.601 69.104-.245-19.036-70.6-13.994-136.407 16.073-172.635z"/></g><g class="B"><path d="M571.808 1056.917c35.936 1.832 130.895-33.885 157.023-29.032 25.26 4.692 44.548 158.08 25.526 167.924s-116.17 39.125-163.407 31.016c-64.381-11.051-19.142-169.908-19.142-169.908z"/><path d="M728.832 1027.885c35.423 6.147 76.572 20.457 87.583 33.234s5.444 70.279-7.464 81.536c-5.791 5.05-47.962-1.29-58.412-2.714-26.17-3.565-23.927-40.536 3.272-39.184l27.2 1.352 1.502-11.111-47.133-9.16z"/><path d="M734.211 1072.207c16.865-.188 68.913 13.435 77.479 20.141 8.54 6.687 17.512 54.955 11.846 63.596-3.995 6.091-33.273 19.636-40.369 23.099-20.897 10.199-38.908-24.355-16.626-36.391 21.078-11.385 18.294-10.882 18.294-10.882l-4.737-9.014-41.823-2.265z"/><path d="M737.741 1114.148c14.507-1.326 60.983 2.123 66.621 6.029s17.257 49.407 13.222 56.78-26.122 24.701-31.797 29.026c-16.265 12.394-39.017-16.52-18.499-33.457l13.783-11.065-2.225-7.606-34.539 4.878z"/><path d="M743.212 1151.303c12.254-1.973 41.491-1.198 50.431.512s17.933 52.502 11.382 60.899-40.26 21.083-51.43 24.531c-22.364 6.904-34.833-27.71-14.765-35.308 11.003-4.166 21.284-7.162 21.284-7.162l-11.586-3.654z"/></g><path d="M820.843 1116.886a7.502 7.502 0 0 1-7.028-4.881c-.029-.078-3.247-8.575-8.151-15.191-3.837-4.315-33.872-12.279-72.397-17.167a7.5 7.5 0 0 1-6.497-8.384c.521-4.109 4.269-7.023 8.384-6.497.715.091 17.725 2.262 36.081 5.882 34.988 6.899 43.218 12.835 46.479 17.234 6.194 8.357 9.996 18.455 10.155 18.881a7.5 7.5 0 0 1-4.407 9.648 7.456 7.456 0 0 1-2.619.475zm-3.524 44.151a7.503 7.503 0 0 1-7.342-6.008c-2.912-14.285-7.619-26.329-10.319-28.993-5.539-2.841-36.275-4.547-61.866-4.388h-.052a7.5 7.5 0 0 1-.05-15 671.54 671.54 0 0 1 30.887.611c29.901 1.339 37.217 4.265 40.669 7.227 8.764 7.52 14.026 30.646 15.43 37.555a7.5 7.5 0 0 1-7.357 8.996zm-10.818 35.372a7.503 7.503 0 0 1-7.365-6.129c-2.581-13.863-6.8-28.205-9.311-31.854-7.16-1.721-38.058-.539-45.772.33a7.501 7.501 0 0 1-1.681-14.906c2.979-.336 14.083-1.037 25.601-1.239 23.118-.412 27.072 1.538 28.975 2.472 4.295 2.108 8.122 7.087 12.833 24.533 2.445 9.056 4.036 17.564 4.102 17.922a7.5 7.5 0 0 1-7.382 8.871zm-17.051-38.463zm-50.62 51.493a7.5 7.5 0 0 1-2.391-14.61l21.284-7.162a7.5 7.5 0 0 1 4.784 14.217l-21.284 7.162a7.52 7.52 0 0 1-2.393.393z" class="D"/><g class="C"><path d="M459.154 1229.919a7.499 7.499 0 0 1-6.725-4.17c-10.186-20.541-14.518-47.839-12.526-78.943 1.625-25.371 7.484-52.483 16.077-74.385 4.476-11.407 11.197-25.192 19.507-32.112-1.86-8.979-3.351-14.647-8.222-17.615-7.461-4.544-23.153-3.525-46.645 3.032a7.501 7.501 0 0 1-8.386-3.264c-15.672-25.211-28.922-19.645-47.257-11.94-9.915 4.166-20.169 8.469-30.801 6.641-19.948-3.438-31.765-10.417-42.191-16.575-9.929-5.864-18.504-10.93-33.021-12.007-35.467-2.644-61.426 26.661-61.684 26.957a7.497 7.497 0 0 1-10.582.729 7.5 7.5 0 0 1-.729-10.581c1.255-1.441 31.222-35.238 74.104-32.064 18.015 1.337 28.958 7.8 39.54 14.051 9.771 5.771 19.874 11.737 37.109 14.708 6.316 1.082 14.151-2.203 22.444-5.688 17.466-7.338 41.091-17.26 62.7 13.169 25.476-6.545 42.462-6.522 53.202.022 10.798 6.579 13.194 18.151 15.12 27.45l1.032 4.77a7.5 7.5 0 0 1-4.639 8.732c-2.843 1.079-9.621 9.177-16.638 27.063-16.263 41.451-22.885 103.258-4.076 141.186a7.5 7.5 0 0 1-3.387 10.051 7.463 7.463 0 0 1-3.326.783z"/><path d="M544.335 1057.038c-.236 0-.475-.012-.715-.034l-60.404-5.713a7.5 7.5 0 0 1 1.412-14.934l60.404 5.713a7.5 7.5 0 0 1-.697 14.968z"/></g></svg></g><g transform="matrix(1.813398 0 0 1.803603 1692.352941 225.882353)"><svg width="209.227" height="369.848"><g fill="#2471ed"><use href="#E"/><circle cx="136.712" cy="345.235" r="24.613"/></g></svg></g><g transform="matrix(.933212 .525852 -.520004 .922835 2180.593519 566.687417)"><svg width="209.227" height="369.848"><g fill="#54d8f7"><use href="#E"/><circle cx="136.712" cy="345.235" r="24.613"/></g></svg></g><defs ><path id="E" d="M120.573 298.789c-10.886.001-20.67-7.58-23.042-18.654l-.19-.888c-4.904-22.879-11.008-51.353 18.897-84.038 1.959-2.142 4.138-4.319 6.66-6.839 17.126-17.114 45.792-45.755 37.76-97.964-4.249-27.619-20.937-37.653-34.189-41.207-23.829-6.39-53.291 3.102-68.532 22.078-14.208 17.69-14.435 41.048-.656 67.551 6.009 11.558 1.511 25.799-10.048 31.809s-25.799 1.511-31.809-10.048c-22.407-43.1-20.318-86.42 5.732-118.853C48.246 8.008 96.577-7.659 138.688 3.634c37.353 10.018 62.355 39.03 68.596 79.599 11.669 75.849-32.277 119.759-51.043 138.509l-5.199 5.311c-13.485 14.739-11.876 22.246-7.575 42.307l.192.898c2.727 12.738-5.388 25.276-18.126 28.003a23.69 23.69 0 0 1-4.96.528z"/></defs></svg>