<svg xmlns="http://www.w3.org/2000/svg" height="2229.8" width="1077.2" xmlns:v="https://vecta.io/nano"><style><![CDATA[.B{fill:#111}.C{fill:#a85f36}.D{fill:#773a11}.E{fill:#2471ed}.F{fill:#004ebf}]]></style><clipPath id="A"><path d="M487 123.9l1.5 51.9c1.5 30 48.1 20.4 42.7-30.2-4.7-44.8-44.4-29.2-44.2-21.7z"/></clipPath><path d="m655.8 1793.4-9.6 197.4c-3.1 31.2-237.7 8.3-234.6-23l22.2-195c5.9-67.3 227.7-53.3 222 20.6z" class="C"/><path d="m648.9 1940.4c8.1-3.8 7 73.9 0 90.8s-103.4-1.9-122.8 6.3c-19.4 8.1-36.3 21.3-54.5 21.9s-256.8 1.9-256.1-11.3c.6-13.2 12.5-82 41.3-90.2s100.2-20.7 123.4-38.8 47.6-38.9 54.8-47.2c9.2-10.6 37.4 6.6 52.3 19.1 44.2 37 76.7 65.5 161.6 49.4z" fill="#007a63"/><path d="m651.1 2022.9c6.3 3.8 3.4 52.7.8 57.3s-118 5.4-125-.2-6-25.3-14-25.3c-22.7.1-29.1 26.5-39.8 28.4s-228.2 6.3-259.4-11.8c-7-4.1-5.3-33.6 1.8-32 60.6 13.3 230.1 11.9 256.4 4.7 11.9-3.3 34-19.5 45.2-21.2s126.7-4.3 134 .1z" class="B"/><path d="M535.8 2026.8c-2.4 0-4.5-1.7-4.9-4.2-5.3-30.9-33.3-44.1-55.8-49.7-16.6-4.1-56.3 5.8-85.3 13-31.4 7.8-42.8 10.3-48.1 7.4-2.3-1.2-5.3-4.1-12.5-22.2-4-10-7.9-21.5-10-28.4-.8-2.6.7-5.4 3.3-6.2s5.4.7 6.2 3.3c5.2 17.1 14.2 40.4 17.8 44.7 4.8.7 24.7-4.3 40.8-8.3 31.7-7.9 71.2-17.8 90.2-13 36.5 9.1 58.3 29.1 63.2 57.8.5 2.7-1.4 5.3-4.1 5.8h-.8z" fill="#005141"/><path d="M411.5 1913.6c-1.9 0-3.7-1.1-4.5-2.9-1.9-4.1-5.7-6.4-8-5.9-2.7.6-5.4-1.1-5.9-3.8-.6-2.7 1.1-5.4 3.8-5.9 7.3-1.6 15.4 3.2 19.2 11.4 1.2 2.5.1 5.5-2.4 6.6-.8.3-1.5.5-2.2.5zm-23.2 17.1c-1.9 0-3.7-1.1-4.5-2.9-1.5-3.2-4.1-6.7-6.4-6.2-2.7.6-5.4-1.1-5.9-3.8-.6-2.7 1.1-5.4 3.8-5.9 6.9-1.5 13.5 2.9 17.6 11.7 1.2 2.5.1 5.5-2.4 6.6-.8.3-1.5.5-2.2.5zm-27.8 12.6a4.92 4.92 0 0 1-4.7-3.4c-2.4-7.1-3.6-7-4.2-6.9-2.7.3-5.2-1.7-5.5-4.5-.3-2.7 1.7-5.2 4.5-5.5 9.7-1 13.1 8.9 14.7 13.7.9 2.6-.5 5.5-3.1 6.3-.6.3-1.2.3-1.7.3z" class="B"/><g fill="#e3e5e5"><path d="m457.9 761.8c-2.7 70-29.7 426.5-35 544.8-3.6 80.9 247.4 131.7 253.6 20.7s11.6-458.5 5.8-542.2c-2.2-32.6-224.4-23.3-224.4-23.3z"/><path d="M422.9 1306.7c-6.9 119.8-20.1 567.1-20.1 567.1 57.8 48.1 170.3 54.3 266.1 48.1l7.6-594.6c1.4-96.4-253.6-20.6-253.6-20.6z"/></g><path d="M931.7 1759.8l31.7 214.1c7.7 60.2-228.6 75.5-236.8 13.8L704.2 1779c-8.8-66.9 217-92.5 227.5-19.2z" class="C"/><path d="m951 2120.8-125.6-12.7.8-22.4 125.4 10.7z" class="B"/><path d="m961.8 1963.8c9.6 18.2 12.6 82.8 8.9 100.1-1.8 8.4-37.2 26.2-43.1 40.2s-4.9 44.5-15.6 60.2c-19.2 28.1-104.2 46.6-202.1 39.8-76.2-5.3-82.6-31.8-82.8-45.3-.3-13.6-2.1-69.3 28.5-94.8 18.6-15.5 28.7-10.9 43-29.3 10.7-13.7 24.9-54 30.4-70.8 5-15.1 40-23.5 37.5-8l46.5.8c4.8-15.1 30.5-18.4 85.2 18.4 31.3 21.1 59.2 10 63.6-11.3z" fill="#007a63"/><path d="m971.9 2054.2c7-9.3 3.5 38.3 2.6 46.7-.6 6.2-23.5 19.8-23.5 19.8l.6-24.4s-22.4 6.7-24.8 43.9c-2.4 37.1-2.1 45.3-12.3 54.8-28.7 26.8-133.3 39.1-206 33.3-75.4-6-84.3-33.9-84.5-40.1s-1.4-45.6 2.1-41.9c4.2 4.5 22 31.6 84.3 34.6s147.2 5.3 192.1-24.9c21-14.1 10-37.5 17-52.5 9.2-19.6 47.1-42.2 52.4-49.3z" class="B"/><path d="M867.6 2094.2h-.3c-5.3-.1-8.6-4.8-12.7-10.7-5.4-7.7-13.5-19.4-30-27.7-9.6-4.8-22.2-7.4-32.4-9.5-12.4-2.6-18.7-3.8-20.5-8.6-2-5.1 2.3-15.3 23.9-57.1 5.6-10.7 10.8-20.9 12.8-25.7 1.1-2.5 4-3.7 6.5-2.7 2.5 1.1 3.7 4 2.7 6.5-2.2 5.2-7.3 15.1-13.2 26.5-8 15.4-20.9 40.4-23 48.3 2.7.9 8.1 2.1 12.7 3 10.8 2.2 24.1 5 34.9 10.4 18.8 9.5 27.8 22.4 33.8 31 1.7 2.5 3.9 5.6 5 6.4 2.2-.4 7.1-5.2 11-9 7.3-7.2 16.4-16.2 29.2-22.2 11.8-5.5 26.4-5.1 35.6 1 6.5 4.3 10 11.1 9.8 19.3-.1 2.8-2.3 4.9-5.1 4.9-2.8-.1-4.9-2.4-4.9-5.1.1-4.8-1.6-8.3-5.3-10.7-6.3-4.1-17.4-4.2-25.9-.3-11.3 5.3-19.7 13.6-26.4 20.2s-12 11.8-18.2 11.8zm-174.8-47.9c-1.6 0-3.2-.8-4.2-2.3-1.5-2.3-.9-5.4 1.4-6.9 10.3-6.8 22.8-6.1 31.9-5.6 2.5.1 5.9.3 7.4.1 5.6-7.1 27.1-60.4 32.4-77.1.8-2.6 3.7-4.1 6.3-3.2 2.6.8 4.1 3.7 3.2 6.3-2.4 7.5-9.6 26.5-17.3 45.2-14.6 35.1-17.7 36.7-19.8 37.7-3.1 1.6-7.1 1.3-12.7 1-8.2-.4-18.3-1-25.9 4-.8.5-1.8.8-2.7.8z" fill="#005141"/><path d="M812.7 1984.9c-1.3 0-2.6-.5-3.6-1.5-4.4-4.6-15.8-8.6-28.3-9.7-13.3-1.3-25.2.8-31 5.3a4.99 4.99 0 1 1-6.1-7.9c17.1-13.3 59.8-8.1 72.7 5.4 1.9 2 1.8 5.2-.2 7.1-1 .8-2.3 1.3-3.5 1.3zm-10.7 22a5.01 5.01 0 0 1-3.4-1.3c-9.5-8.7-45.5-13-57.6-4.8-2.3 1.6-5.4 1-6.9-1.3-1.6-2.3-1-5.4 1.3-6.9 16.2-11 57.4-5.9 70 5.7 2 1.9 2.2 5 .3 7.1-1 1-2.3 1.5-3.7 1.5zm-8.2 25c-1.3 0-2.6-.5-3.6-1.5-9.7-10-47.7-13.1-59.8-4.9-2.3 1.6-5.4 1-6.9-1.3s-1-5.4 1.3-6.9c16.1-10.9 59.4-7.2 72.5 6.2a5.04 5.04 0 0 1-.1 7.1c-.9.8-2.2 1.3-3.4 1.3z" class="B"/><g fill="#e3e5e5"><path d="M566.8 782.1c8.6 155.5 39.5 460.6 52.8 578.4 9.1 80.5 266.4 109.3 255.1-1.3l-68.5-598.5c-3.2-32.7-239.4 21.4-239.4 21.4z"/><path d="M619.5 1360.4c7.8 111.5 43.1 383.7 72.6 600.2 46.8 46.9 184.2 12.3 261.6-54.8l-79.2-546.7c-10.6-91.1-255 1.3-255 1.3z"/></g><path d="M770.4 1984.6c-2.4 0-4.6-1.8-4.9-4.3l-78.4-605.1-60-594.2c-.3-2.7 1.7-5.2 4.5-5.5 2.7-.3 5.2 1.7 5.5 4.5l60 594.1c23.2 218.2 77.8 600.9 78.3 604.7.4 2.7-1.5 5.3-4.2 5.7-.3.1-.6.1-.8.1zM670.5 1804c-2.5 0-4.7-1.9-5-4.4L614.6 1361l-39.2-396.4c-.3-2.7 1.8-5.2 4.5-5.5s5.2 1.8 5.5 4.5l39.2 396.3 50.9 438.5c.3 2.7-1.6 5.2-4.4 5.6h-.6z" fill="#b7b7b7"/><path d="M455.9 313.1c-40.4 16.1-70 137.9-90.7 179.1-15.5 31-30.3 43.1-26.3 76.5 0 0-21.3 28-19.5 47.1 5.6 59.7 113.3 149.3 156.4 108.3 49.3-47 78.1-215.3 85.9-267.4S455.9 313.1 455.9 313.1z" class="E"/><path d="M235 925.5c-22.8 17.2-111.8-112.9-77.8-146.2C193 744.2 273.4 896.6 235 925.5z" class="B"/><g class="C"><path d="m157.2 775.6c-14.5 9.1-70.7 58.9-80.2 75.4-9.6 16.5 57.1 87.1 77.7 72.4 20.6-14.8 66.8-39.5 77.7-59.8 17.4-32.4-54.8-101-75.2-88z"/><path d="m154 777.8c-21.5 6.5-53.4 11.3-68.5 23.3-9.9 7.9-13.3 26.8-26 39.1-11.2 10.9 2.9 27 17.9 15.5 9.3-7.1 25.7-25.9 25.7-25.9s42 20.9 57.4 0-6.5-52-6.5-52z"/><path d="M76.9 851c-5.7 7-37.8 38.4-44.9 46.4L5 928.1c-12.9 15.8 1.2 33.1 16.3 20 6.3-5.4 21.9-24.5 30.3-32 8.5-7.5 36.9-38 36.9-38z"/><path d="M88.6 878.2c-7.8 6.8-44.3 45.2-49.9 51.5s6.8 25.8 16.2 17.5l52-45.9z"/><path d="M54.9 947.1c-6.3 4.6-23.1 5.5-23.9-9-.3-5.8 6.3-11.7 11.3-17.2 14-15.4 27.5 1.6 20.3 14.3-4.3 7.6-7.7 11.9-7.7 11.9zm52-45.9l-47.5 41.9c-6.4 6.7 4.8 23 15.8 16.4s50.8-42.7 50.8-42.7z"/><path d="M75.2 959.5c-11.5 8.7-26.9-5.8-15.8-16.4 3.8-3.6 4.1-5.4 8.9-9.5 11-9.6 24.8 4.3 16.8 16.3-2.9 4.2-9.9 9.6-9.9 9.6zm79.4-36.1c-11.7 8.4-47.6 41.1-53.9 46.2-13.9 11.1-29-3.1-16-15.1l41.3-37.7z"/><path d="m99.4 971.2c-9.8 9.7-27.3-3.3-16.6-15.5 1.9-2.2 3.5-4.2 6.1-6.6 10.8-9.8 25 4.5 16.1 15.8-3.5 4.2-5.6 6.3-5.6 6.3z"/></g><g class="D"><path d="M72.1 863.7c-2.1 0-4.1-1.4-4.8-3.5-.8-2.6.7-5.4 3.3-6.3 6.7-2.1 21.2-17.8 28.7-27.3 1.4-1.8 3.9-2.4 6-1.4 20.4 9.1 33.7 10.7 47.6 5.4 2.6-1 5.5.3 6.4 2.9 1 2.6-.3 5.5-2.9 6.4-15.7 6-30.5 4.9-51.7-4.1-6.3 7.7-21.2 24.6-31.1 27.6-.5.3-1 .3-1.5.3zm-16.5 86.5a4.64 4.64 0 0 1-2.9-1c-2.2-1.6-2.7-4.7-1.1-7l7-9.8c.1-.1.1-.2.2-.3 4.3-5.3 1.5-8.9.1-10.2-2.5-2.3-6.7-3.2-9.7-.4-2 1.9-5.2 1.7-7.1-.3s-1.7-5.2.3-7.1l42.9-39.6c2-1.9 5.2-1.7 7.1.3s1.7 5.2-.3 7.1l-31.7 29.3c2 .8 3.8 2 5.4 3.5 5.7 5.3 8.1 14.7 1 23.7-.6.8-3.2 4.6-7 9.9-1.2 1.1-2.7 1.9-4.2 1.9z"/><path d="m85 954.9c-1.2 0-2.5-.5-3.4-1.4-2-1.9-2.1-5.1-.2-7.1 3-3.2 2-7.2-.2-9.6-3.2-3.5-8-3.3-12.9.6-2.1 1.7-5.2 1.3-6.9-.8s-1.4-5.2.6-6.9l40.2-34.7c2.1-1.8 5.2-1.6 7.1.5 1.8 2.1 1.6 5.2-.5 7.1l-26.7 23c2.6 1 4.8 2.6 6.6 4.6 6.1 6.7 6.1 16.7 0 23.2-1 .9-2.3 1.5-3.7 1.5z"/><path d="M106.9 963c-.2 0-.5 0-.7-.1-2.7-.4-4.6-2.9-4.2-5.7.1-1-1-4.3-3.8-5.9s-6.1-.8-10 2.3c-2.1 1.7-5.2 1.4-7-.7s-1.5-5.2.5-7l37.7-33.1c2.1-1.8 5.2-1.6 7.1.5 1.8 2.1 1.6 5.2-.5 7.1L101.6 942c.6.3 1.1.5 1.5.8 5.7 3.3 9.6 10.3 8.7 16-.3 2.4-2.4 4.2-4.9 4.2zm-75.8-19.9h-.3c-2.8-.2-4.8-2.5-4.7-5.3.7-11.2 14.9-22.7 16.5-23.9 2.2-1.7 5.3-1.3 7 .8 1.7 2.2 1.3 5.3-.8 7-5.1 4-12.4 11.9-12.7 16.7-.2 2.7-2.4 4.7-5 4.7z"/><path d="m78.6 963c-1.1 0-2.2-.4-3.1-1.1-2.2-1.7-2.5-4.9-.8-7l6.4-8.2c1.7-2.2 4.9-2.5 7-.8 2.2 1.7 2.5 4.9.8 7l-6.4 8.2c-1 1.3-2.4 1.9-3.9 1.9z"/></g><path d="M475.8 724.1C426.6 782.1 235 925.5 235 925.5c17.5-29-19.4-142.5-77.9-149.9 5-7.1 119.6-108.3 127.7-122.1s16-31.5 34.5-37.8c12.9-4.2 187.2 72.1 156.5 108.4z" class="E"/><path d="M319.4 620.8c-2 0-3.9-1.2-4.7-3.3-1-2.6.4-5.5 3-6.4 17.1-6.3 35.8-7.1 36.6-7.1 2.8-.1 5.1 2 5.2 4.8s-2 5.1-4.8 5.2c-.2 0-18 .8-33.6 6.5-.5.2-1.1.3-1.7.3zm23.4-27.9c-1.8 0-3.6-1-4.4-2.7-.2-.3-3.9-7.9-4.4-21.3-.1-2.8 2-5.1 4.8-5.2s5.1 2 5.2 4.8c.4 11 3.4 17.1 3.4 17.2 1.2 2.5.2 5.5-2.3 6.7-.8.4-1.5.5-2.3.5z" class="F"/><path d="m595.7 116.5c29-4 55.7 16.3 59.6 45.2l16.1 117.2c4 29-16.3 55.7-45.2 59.6-29 4-55.7-16.3-59.6-45.2l-16.1-117.2c-4-29 16.3-55.7 45.2-59.6z" class="C"/><path d="M565.2 283l-4.2-30c25.8 5.3 74.1-2.3 103.3-26l5.9 43.2s78.5 21.1 123.6 37.8c25.6 9.4 7.4 365.5 7.4 409.7.1 31.5-340.7 85.9-343.4-3.5C455.7 644 433 327.7 466 315s99.2-32 99.2-32z" class="B"/><path d="M568.8 909c-2.6 0-4.8-2.1-5-4.7L563 891c-1.9-30.9-4.3-69.3-1.2-99.6.3-2.7 2.8-4.7 5.5-4.5 2.7.3 4.7 2.7 4.5 5.5-3.1 29.5-.7 67.4 1.2 97.9l.8 13.4c.2 2.8-1.9 5.1-4.7 5.3h-.3z" fill="#b7b7b7"/><path d="m457.9 714.1v47.7c73.2 44 214 36.2 348.2-1.2l-4.8-42.9c-137.7 38.3-267.1 34.8-343.4-3.6z" fill="#656c72"/><path d="m574.1 799.9c-7.1 0-13.9-.7-17.5-1.3-14.4-2.3-17.8-6.2-19.1-8.9-4.1-8.5-8.4-42 1.6-50.7 6.3-5.4 21.7-4.9 30.4-4.2 5.3.5 23 2.5 29.2 8.5 9.2 8.9 7.3 42.3-.8 50.9-4.2 4.4-14.3 5.7-23.8 5.7zm-27.8-14.7c1.6 1.5 9.5 3.9 21.9 4.6 13.9.7 21.2-1.4 22.4-2.4 1.5-1.6 3.9-8.5 4.2-18.7.4-10.7-1.7-16.8-3.1-18.1-1.7-1.7-10.1-4.6-23.2-5.8s-21.3.3-22.9 1.8c-1.3 1.1-3.1 6.8-2.6 17.9.3 8.9 1.9 17.6 3.3 20.7z" class="B"/><path d="M677 266c-7.5 53.1-59.4 317.7-59.2 386.7.1 61.1 17.5 252.8 23.5 279.6s11.8 78.5 75.1 73.8c61.8-4.6 111.1-11.1 150.8-41.6 0 0-35.8-175.4-39.5-262.3s41.9-371.2-1.6-388.8C782.6 295.9 677 266 677 266zm-120.9 13.7c-61.2 80.2-51.6 241.7-33.6 367 2.6 18.1-6.5 249.5-11.1 285.6-4.6 36-12.9 61-35.1 61s-42.5-19.4-42.5-19.4 13.9-210.7 8.3-303.2c-5.5-92.4-14.7-347.9 13.9-357.7l100.1-33.3z" class="E"/><path d="M667.8 252.3c9.8 4.9 40.5 15.8 46.6 23 3.7 4.4 5.9 27.2 5.9 27.2L684.1 321l26.6 16c-49.8 91.8-70 202-93 315.7-3.6-258.7 61.2-347.6 50.1-400.4zm-105.5 9.6c-20.8 6-54.2 40.8-60.2 49.7l11.4 6-23.7 25.6c-5.1 115.2-1.1 216.1 32.7 303.4-8.6-130.6-6.3-296.5 42.7-363.7z" class="F"/><path d="m1073.2 871.8 4 221.8c.1 8.1-6.2 15.9-14.3 17.4l-334.7 61.8c-9.3 1.7-17-4-17.2-12.8l-4-240c-.1-8.8 7.3-16.8 16.6-18l334.7-42.9c8.1-1.1 14.7 4.6 14.9 12.7z" fill="#ffd215"/><path d="m736.9 969.3c2.2 2.9 4.2 128.7 2.2 132.2s-39.2 9.4-41.5 7.1c-2.2-2.4-4.8-129.8-2.2-133.4 2.5-3.5 39.2-8.8 41.5-5.9z" class="B"/><path d="M826 313.4c66.3 27.3 141.6 236.7 170.7 339.3 23.3 82.3-157.8 74.5-170.1 68-12.3-6.6-22.7-21.5-20.4-38.6l-79.4-179.2C669 369.4 826 313.4 826 313.4z" class="E"/><g class="C"><path d="m834.4 1006.4c6.8-26 117.3-31.6 121.8 0 0 0 14.4 83.8 14.4 104.2s-116.2 43.2-125.9 24.6c-10.5-20.1-17.8-95.8-10.3-128.8z"/><path d="M840.4 1110.9s49.4-30.4 38.6-70.5-47.2-15-47.2-15c-9.4 19.1-29.7 60.3-29.7 73.2 0 16 29.2 19.7 38.3 12.3zm130.2-.2c1.5 19.1 2.3 29.6-1.5 38.2s-11 15.7-25.4 14.7c-10.9-.8-25.6-8.3-31.3-11.7-16.8-9.7-7.3-33.8 9.2-27.5 6.7 2.5 17.4 9.6 17.3 6.3s-1.7-15.1-1.7-15.1z"/><path d="m943.6 1114.6c1.5 19.1 3.7 33.3 2.4 42.6-1.2 8.7-10.7 16.3-25 16.2-10.9-.1-36.2-13.7-42-17-16.8-9.7-7.3-33.8 9.2-27.5 6.7 2.5 23.2 12 23.1 8.7s-2.5-17-2.5-17z"/><path d="m911.9 1120.6c1.5 19.1 3.7 33.3 2.4 42.6-1.2 8.7-10.7 16.3-25 16.2-10.9-.1-40.4-16.1-46.1-19.4-16.8-9.7-7.3-33.8 9.2-27.5 6.7 2.5 27.4 14.4 27.3 11.1s-2.5-17-2.5-17z"/><path d="m884.9 1122.8c1.5 19.1.9 36-.4 45.3-1.2 8.7-10.7 16.3-25 16.2-7.5-.1-20.7-5.4-31.7-11.7-5.6-3.2-5.6-24.4-5.6-26.5 0-19.7 24.7-20.9 26.4-7.6l1.3 10c-.1-3.3-2.9-20.6-2.9-20.6z"/><path d="m802.1 1098.5c0 14.6 11.5 46.1 10.3 63.6-1.8 25.5 28.9 22.2 30.9 1.4 1.6-16.7-.3-39.8-2.9-52.7-5-12.6-36.2-24.3-38.3-12.3z"/></g><path d="M943.7 1168.5c-1.3 0-2.6-.5-3.6-1.6-1.8-1.9-1.8-4.9 0-6.9 2.2-4.1 1-26.4-1.4-44.8-.4-2.7 1.6-5.2 4.3-5.6s5.2 1.6 5.6 4.3c.1.5 1.5 11.2 2.2 22.8 1.4 22.4-.9 27.8-3.6 30.4-1 1-2.3 1.4-3.5 1.4zm-33.2 7.7c-1.6 0-3.2-.8-4.1-2.2-1.6-2.3-1-5.4 1.3-6.9s3.2-3.3 1.8-23.8c-.8-11.2-2.5-21.7-2.5-21.8-.5-2.7 1.4-5.3 4.1-5.8s5.3 1.4 5.8 4.1c.1.5 1.9 11.5 2.7 23.5 1.5 23.6-2.5 29.5-6.2 32a5.21 5.21 0 0 1-2.9.9zm-32.9 6.4c-1.3 0-2.7-.5-3.6-1.6-1.9-2-1.8-5.2.2-7.1 5.5-5.2 4.2-26.9 3.3-41.2l-.5-9.6c-.1-2.8 2-5.1 4.8-5.2 2.7-.1 5.1 2 5.2 4.8.1 3 .3 6.1.5 9.5 1.2 20 2.5 40.7-6.4 49.1-1 .8-2.3 1.3-3.5 1.3zm-37.4-1.4c-6.6 3.2-10.7-5.7-3.9-9.2 0 0-.1 0-.1.1.2-.1 3.9-2.1 5.3-9.4 1.3-6.9-2.9-34.8-5.9-50.8a4.99 4.99 0 0 1 4-5.8 4.99 4.99 0 0 1 5.8 4c.8 4.4 8 43.6 5.9 54.6-2.4 12.4-10.2 16.1-11.1 16.5z" class="D"/><path d="m814.7 705c-5.6 16.2 2.5 24.5 6.2 30.1 0 0-2.6 26.3 6.4 41l-21.1 240.3c60.9 47.4 166.6 34 184.5-14.1 0 0 25.8-285.9 6-349.6s-182 52.3-182 52.3z" class="E"/><path d="m500.2 59.7c-11.7 15.2-15.1 26.5-13.8 47.2s-.3 122.7 13.8 133.1c21.5 15.9 93 11.1 131-20.3 23.5-19.5 24.4-100.2 0-144.8-26.9-49.2-104.2-50.2-131-15.2z" class="C"/><path d="M651.2 169.9c14.9-19.6 37.6-75.9-1.9-122.6C619.4 11.9 549.6-2 529 40.2c39.6-8.6 66.7 6 75.6 20.7 11.4 19-4.1 45.7 25.4 77.9z" class="B"/><path d="m528.9 40.1c6.6 37.7 60.4 77.7 73.6 82.1 7.2 0 18.1-3.7 30.7-7.2-1.8-10-5.9-18.5-9.7-26.1 9.4 5.1 20.2 15 23.4 21.8 17.9-6.1 31.1-11.8 36.9-19.9 0 0-2.3-75.1-54.3-87.5-48.9-11.7-95.1 9.4-100.6 36.8z" class="D"/><path d="m634 141.5c8.5-31.1 46.4-31.3 43.9-1.9-1.8 20.2-17.1 33.6-30.7 29.5s-15.4-19.4-13.2-27.6z" class="C"/><path d="m551.7 13.3c-53.1-8-101.7 32.9-65.2 93.6.5-47.3 27.9-49.4 42.5-66.8-.1-15 22.7-26.8 22.7-26.8z" class="D"/><ellipse cx="565.2" cy="138.8" fill="#fff" rx="20.1" ry="22.1" transform="matrix(.9907 -.1361 .1361 .9907 -13.6268 78.1883)"/><ellipse cx="560" cy="139.5" rx="11.6" ry="16.5" transform="matrix(.9907 -.1361 .1361 .9907 -13.7724 77.4871)" class="B"/><path d="m518.2 184.6c-2.3 0-4.3-1.6-4.9-3.9-2.2-9.7 2.6-15.1 7.9-16.9 7.9-2.7 17.6 1.6 21.2 9.4 1.2 2.5.1 5.5-2.4 6.6-2.5 1.2-5.5.1-6.6-2.4-1.6-3.3-6.2-5.1-8.9-4.1-.6.2-2.4.8-1.4 5.2.6 2.7-1.1 5.4-3.8 6-.4 0-.8.1-1.1.1z" class="D"/><path d="m585.3 195.6c4.7 1 5.1 16.6-9.1 22.9-13 5.8-29.6 1.4-29.6-3.9s11.1-4.9 19.9-8.3c9-3.6 14.1-11.7 18.8-10.7z" fill="#fff"/><g class="D"><path d="M649.2 157.7c-2.3 0-4.3-1.6-4.9-3.9-1.7-7-.2-13.8 4-19.2 3.9-4.9 9.8-8 15.4-8a4.95 4.95 0 1 1 0 10c-2.1 0-5.3 1.3-7.6 4.2-1.6 2-3.3 5.6-2.1 10.7.6 2.7-1 5.4-3.7 6-.3.1-.7.2-1.1.2z"/><path d="M658.3 149.3c-1.1 0-2.1-.3-3.1-1l-6.9-5.4a4.96 4.96 0 1 1 6.1-7.9l6.9 5.4a4.96 4.96 0 0 1 .9 7c-1 1.3-2.4 1.9-3.9 1.9z"/></g><path d="M542 109.7c-8.5 4.8-16.3-8.6-5.5-15.1 12.1-7.4 34.2-2.6 44.3 3.4 6.5 3.9 4.7 11-3.3 8.9s-25.8-2.6-35.5 2.8zm-37.6-7.9c7.5 0 10.5 10.8 3 13.9-4.9 2.1-18.2.9-29.6 8.1-3.9 2.4-5.6-2.1-2.9-6.1 4.9-7.2 17-15.9 29.5-15.9z" class="B"/><path d="m560 252.5c-2.5 0-4.7-1.9-5-4.5-.3-2.7 1.7-5.2 4.4-5.5 17.4-1.9 43.9-9.3 58.8-19.4 2.3-1.5 5.4-.9 6.9 1.3s.9 5.4-1.3 6.9c-18.3 12.4-47.9 19.4-63.3 21-.2.2-.4.2-.5.2z" class="D"/><path d="M528.9 45.1c-2.5 0-4.7-1.9-5-4.5-1.4-12.8 12.2-24.9 25.4-31.8 2.4-1.3 5.5-.4 6.8 2.1 1.3 2.4.4 5.5-2.1 6.8-10.3 5.4-20.9 14.6-20.1 21.9.3 2.7-1.7 5.2-4.4 5.5h-.6z" class="B"/><g clip-path="url(#A)"><ellipse cx="495.8" cy="147.8" fill="#fff" rx="17.3" ry="20.1" transform="matrix(.9907 -.1361 .1361 .9907 -15.503 68.837)"/><ellipse cx="493.3" cy="148.5" rx="10.2" ry="15.3" transform="matrix(.9907 -.1361 .1361 .9907 -15.6201 68.5018)" class="B"/></g><g class="B"><ellipse cx="506" cy="680.6" rx="7.9" ry="17.3"/><ellipse cx="500.6" cy="817.2" rx="17.3" ry="7.9" transform="matrix(.060195 -.9982 .9982 .060195 -345.2907 1267.6608)"/></g><g class="F"><path d="M675.1 805.4c1.4-2.2 104.2-22.8 107.2-21 2.9 1.8 6.4 27.2 5 29.5-1.3 2.3-105.6 24.7-108.3 22.5-2.8-2.1-5.4-28.8-3.9-31zM732.4 390c-.7 0-1.4-.2-2.1-.5-2.5-1.2-3.6-4.2-2.4-6.7 14.3-30.5 69.8-67.3 97-74.2 2.7-.7 5.4.9 6.1 3.6s-.9 5.4-3.6 6.1c-24.8 6.3-77.8 42-90.4 68.8-1 1.8-2.8 2.9-4.6 2.9zm84.9 504.9h-.4c-2.8-.2-4.8-2.7-4.5-5.4l9.9-112.7c-1.6-4.5-7-21.2-6.4-39.7-9.7-10.2-9.5-22.2-7.3-29.9-10.6-8.1-11.1-26.9-11-32.4l-64.5-145.3c-1.1-2.5 0-5.5 2.6-6.6 2.5-1.1 5.5 0 6.6 2.6l64.9 146.3c.3.7.5 1.5.4 2.2-.2 5.8.9 23.2 9 26.3a5.17 5.17 0 0 1 2.9 2.9c.5 1.3.4 2.8-.2 4.1-.3.5-6.5 13.3 5.1 24.1 1.1 1 1.7 2.5 1.6 4-1.2 19.9 6 38.8 6.1 39a4.22 4.22 0 0 1 .3 2.2l-10 113.8c-.4 2.6-2.6 4.5-5.1 4.5z"/><path d="M820.9 740.1h-.5c-2.7-.3-4.8-2.7-4.5-5.5 2.1-21.8 20.5-52.4 21.3-53.7 1.4-2.4 4.5-3.1 6.9-1.7s3.1 4.5 1.7 6.9c-.2.3-18 29.9-19.9 49.5-.3 2.6-2.5 4.5-5 4.5zm-377.2 21.5c-2.7 0-4.9-2.2-5-4.9l-3.3-107.8c-2.7-75.1-5.7-160.2-3.9-206.7.1-2.8 2.4-4.9 5.2-4.8s4.9 2.4 4.8 5.2c-1.8 46 1.2 131 3.9 205.9l3.3 107.9a5.19 5.19 0 0 1-5 5.2z"/></g></svg>