<svg xmlns="http://www.w3.org/2000/svg" width="3000" height="3000" xmlns:v="https://vecta.io/nano"><g transform="matrix(1.667763 0 0 1.667489 225 1123.333333)"><svg width="1288.153" height="970.521"><g fill="#5917c1"><path d="M739.373 958.354a1009.304 1009.304 0 0 1-47.917 5.91c288.244 32.309 515.331-61.395 556.441-260.7-113.282 126.71-294.739 223.189-508.524 254.79zM298.632 41.624C158.37 51.6 66.302 104.091 24.064 221.629 12.155 254.77 4.085 289.284 0 324.5 55.558 211.687 161.148 111.556 298.632 41.624z"/><ellipse cx="666.978" cy="451.499" rx="624.389" ry="446.883" transform="matrix(.9893 -.1462 .1462 .9893 -58.8526 102.3845)"/></g></svg></g><g transform="matrix(1.673744 0 0 1.672473 651.666667 598.333333)"><svg width="862.338" height="1256.622"><clipPath id="A"><ellipse cx="328.526" cy="239.024" rx="30.364" ry="35.363" transform="matrix(.9387 -.3447 .3447 .9387 -62.2591 127.8991)"/></clipPath><clipPath id="B"><path d="M434.074 164.196l29.941 67.312c18.464 43.139-50.015 39.946-70.104-8.363s28.797-83.671 40.163-58.949z"/></clipPath><clipPath id="C"><ellipse cx="432.726" cy="203.636" rx="28.491" ry="33.181" transform="matrix(.9387 -.3447 .3447 .9387 -43.6736 161.6493)"/></clipPath><g fill="#f62"><path d="M551.541 413.753c47.986-.83 129.337-8.631 191.744 144.042s196.619 440.461 59.559 507.708c-119.058 58.415-153.265-84.434-171.922-135.499-19.136-52.377-72.778-257.426-78.35-299.773-17.932-76.007-9.879-168.275-1.031-216.478z"/><path d="M243.835 450.494s-112.053 28.473-134.098 39.495 11.915 649.241 67.049 676.024c105.712 51.352 482.275-15.366 526.309-65.214 30.149-34.129-86.34-437.211-98.281-492.322s-19.289-198.398-53.274-194.724-140.89 12.201-140.89 12.201z"/></g><path d="M364.403 506.402c-45.613 9.055-111.761-11.546-120.816-57.158l-26.995-135.98c-9.055-45.613 20.581-89.929 66.193-98.984s89.929 20.581 98.984 66.193l26.995 135.98c9.056 45.612-2.857 66.935-44.361 89.949z" fill="#f4bbab"/><g fill="#e3e5e5"><path d="m364.403 506.402 8.115-69.753c27.318-11.987 36.207-15.708 34.158-30.717l24.158 18.393c-10.584 36.717-31.481 67.082-66.431 82.077zm0 0-28.89-61.504c-39.601-7.252-76.308-7.248-103.377-41.454l-19.27 55.134c49.148 40.546 96.864 63.301 151.537 47.824z"/><path d="M335.513 444.898s-74.659-10.937-104.134-47.198l-31.226 61.041c15.07 29.534 65.866 71.775 104.1 75.253zm37.006-8.249c18.561-9.087 34.158-30.718 37.359-38.95l24.7 25.37c8.115 26.233-1.958 54.582-10.823 78.038z"/></g><path d="M313.29 511.591a7.5 7.5 0 0 1-7.046-10.069l19.917-54.685a7.499 7.499 0 0 1 9.614-4.48 7.5 7.5 0 0 1 4.48 9.614l-19.917 54.686a7.506 7.506 0 0 1-7.048 4.934zm91.754-28.429a7.485 7.485 0 0 1-5.84-2.79l-27.337-33.866a7.5 7.5 0 1 1 11.672-9.422l27.337 33.866a7.5 7.5 0 0 1-5.832 12.212z" fill="#b7b7b7"/><path d="M408.878 111.381c14.353 27.43 91.091 193.322 87.081 211.372-5.597 25.193-61.182 59.274-113.284 67.839-48.08 7.904-118.234 4.409-163.338-78.918s-17.385-180.527 42.81-214.816c60.394-34.402 130.101-17.259 146.731 14.523z" fill="#f4bbab"/><path d="M231.065 282.92c13.637 17.967 21.377 4.808 17.507-8.478-4.964-17.041-24.717-45.345-11.865-68.863 13.95-25.527 14.835-57.32 34.185-69.66 58.953-37.595 124.16-44.619 137.986-24.539 19.508-4.654 19.911-62.187-18.804-86.751 0 0 3.65 28.819-15.051 36.26 0 0-2.168-37.095-32.839-60.889 0 0 .785 18.382-8.385 27.69-2.591-12.824-26.694-11.803-36.768 17.463-1.751-11.629-18.715-25.063-26.216 10.554 0 0-34.46-7.775-42.198 28.442 0 0-59.818 27.955-65.783 74.143 0 0-1.014-24.294-8.218-23.87s2.986 109.765 31.781 156.035c16.759 26.931 44.668-7.537 44.668-7.537zm107.05-97.195c20.544 2.38 22.055-17.346 6.164-20.726-15.752-3.351-45.462 5.123-57.144 16.017-9.575 8.93-5.369 19.885 5.897 13.643 14.294-7.92 28.098-10.902 45.083-8.934zm48.791-37.186c-12.666 11.109-23.666-3.202-12.362-16.542 14.578-17.204 41.226-19.264 56.153-6.632 7.417 6.276 9.186 16.996.208 13.37-14.841-5.996-27.326-4.819-43.999 9.804z"/><g fill="#656c72"><path d="M329.494 302.487c-32.987 0-59.824-26.837-59.824-59.824s26.837-59.824 59.824-59.824 59.824 26.837 59.824 59.824-26.837 59.824-59.824 59.824zm0-104.648c-24.716 0-44.824 20.108-44.824 44.824s20.108 44.824 44.824 44.824 44.824-20.108 44.824-44.824-20.108-44.824-44.824-44.824zm111.568 62.377c-30.773 0-55.81-25.036-55.81-55.81s25.036-55.81 55.81-55.81 55.81 25.036 55.81 55.81-25.036 55.81-55.81 55.81zm0-96.619c-22.502 0-40.81 18.307-40.81 40.81s18.307 40.81 40.81 40.81 40.81-18.307 40.81-40.81-18.307-40.81-40.81-40.81z"/><path d="M378.938 233a7.5 7.5 0 0 1-6.889-4.529 7.499 7.499 0 0 1 3.912-9.858l15.945-6.886a7.5 7.5 0 1 1 5.946 13.77l-15.945 6.886a7.48 7.48 0 0 1-2.969.617zm-181.943 52.076a7.474 7.474 0 0 1-3.152-.699 7.5 7.5 0 0 1-3.646-9.96c5.246-11.308 21.378-19.753 49.318-25.821 19.208-4.171 36.878-5.627 37.621-5.687a7.5 7.5 0 0 1 1.209 14.951c-.173.014-17.544 1.452-35.788 5.425-31.646 6.893-37.663 15.095-38.753 17.445a7.504 7.504 0 0 1-6.809 4.346z"/></g><path d="M417.348 273.456a7.5 7.5 0 0 1-7.143-9.794c1.526-4.754.621-7.936-.617-9.215-.828-.855-1.612-.758-2.13-.609-2.193.626-5.363 4.164-7.076 12.074a7.5 7.5 0 1 1-14.66-3.174c2.684-12.393 9.106-20.895 17.621-23.324 6.169-1.758 12.533-.039 17.024 4.602 5.595 5.781 7.136 14.839 4.121 24.231a7.506 7.506 0 0 1-7.14 5.209zm-39.451 74.763c-9.241 0-18.164-.995-24.139-2.655a7.5 7.5 0 0 1 4.015-14.453c8.152 2.264 27.298 3.352 39.962-.021a7.5 7.5 0 0 1 3.861 14.495c-6.892 1.836-15.423 2.634-23.699 2.634z" fill="#e09273"/><path d="M226.625 277.779c-21.319-20.689-55.144-11.277-44.826 31.033 8.276 33.937 44.136 35.861 54.481 28.275s10.153-40.085-9.655-59.308z" fill="#f4bbab"/><g fill="#e09273"><path d="M230.621 323.65a7.5 7.5 0 0 1-6.78-4.285c-1.777-3.741-6.11-9.909-11.788-15.253-5.476-5.154-10.989-8.295-14.748-8.402a7.5 7.5 0 0 1-7.283-7.711 7.485 7.485 0 0 1 7.711-7.283c17.239.492 34.604 21.571 39.658 32.216a7.5 7.5 0 0 1-6.77 10.718z"/><path d="M206.957 317.739a7.501 7.501 0 0 1-6.171-11.754l8.846-12.85a7.501 7.501 0 0 1 12.356 8.506l-8.846 12.85a7.493 7.493 0 0 1-6.185 3.248zm141.317 82.477c-19.26 0-39.948-2.665-58.46-10.737a7.5 7.5 0 1 1 5.996-13.75c34.435 15.016 78.512 8.972 101.722 4.034a7.5 7.5 0 0 1 3.121 14.671c-12.892 2.743-31.821 5.782-52.379 5.782z"/></g><ellipse cx="328.526" cy="239.024" fill="#fff" rx="30.364" ry="35.363" transform="matrix(.9387 -.3447 .3447 .9387 -62.2591 127.8991)"/><ellipse clip-path="url(#A)" cx="333.382" cy="230.276" rx="20.085" ry="28.407" transform="matrix(.9387 -.3447 .3447 .9387 -58.9458 129.0366)"/><g clip-path="url(#B)"><ellipse cx="432.726" cy="203.636" fill="#fff" rx="28.491" ry="33.181" transform="matrix(.9387 -.3447 .3447 .9387 -43.6736 161.6493)"/><ellipse clip-path="url(#C)" cx="436.306" cy="195.605" rx="18.371" ry="26.364" transform="matrix(.9387 -.3447 .3447 .9387 -40.6858 162.3914)"/></g><path d="M324.724 560.635c-24.337 0-49.701-5.152-74.626-15.395-40.154-16.5-72.934-44.669-85.547-73.515a7.499 7.499 0 0 1 3.867-9.876 7.497 7.497 0 0 1 9.876 3.867c11.114 25.417 40.812 50.573 77.505 65.651 40.546 16.661 83.845 18.666 118.792 5.5 51.325-19.335 72.916-57.229 64.173-112.626a7.501 7.501 0 0 1 14.817-2.339c12.465 78.978-33.199 113.744-73.701 129.002-17.248 6.496-35.881 9.731-55.156 9.731z" fill="#c83400"/><path d="M109.737 489.989C20.756 528.546-9.897 614.123 2.711 812.021c14.217 223.154 25.856 315.808 117.793 372.481 89.972 55.463 136.339-144.223 123.578-213.135 0 0 13.876-21.694-5.185-39.561-17.785-26.799-13.792-123.782-7.576-216.944 7.575-105.919-52.763-213.754-121.584-224.873z" fill="#f62"/><path d="M647.265 779.797a7.5 7.5 0 0 1-7.25-5.603l-42.477-163.901a7.501 7.501 0 0 1 14.554-3.631l42.434 163.733a7.5 7.5 0 0 1-5.356 9.155 7.503 7.503 0 0 1-1.905.247zM245.224 989.026a7.5 7.5 0 0 1-7.019-10.14c8.374-22.275-5.331-42.601-5.471-42.804a7.789 7.789 0 0 1-.773-1.421c-20.652-50.191-12.887-155.265-9.155-205.76l1.029-14.507a7.501 7.501 0 0 1 14.971.937l-1.041 14.675c-3.347 45.28-11.162 151.035 7.798 198.284 2.996 4.653 16.947 28.567 6.683 55.872a7.505 7.505 0 0 1-7.022 4.864z" fill="#c83400"/><path d="m426.861 673.497 52.245 136.668c35.68 90.299 189.335 29.958 153.655-60.341l-70.778-140.999c-37.109-79.051-172.231-14.379-135.122 64.672z" fill="#f4bbab"/><g fill="#f62"><path d="M802.844 1065.502c-41.08 20.045-128.149.162-164.799-14.478s-73.111-37.203-86.437-98.952c-10.592-26.908-42.785-28.63-51.693-47.412-10.124-21.347-13.215-56.685-19.847-83.79-22.689-8.699-42.331-23.205-28.415-72.24 67.978-16.363 108.696-55.026 141.814-86.908 31.772 3.076 44.934 29.309 46.907 68.297 15.696-6.281 23.153 7.234 29.228 29.707 0 0 40.037-3.22 49.161 6.62s14.354 66.101 27.529 67.29 28.072 8.017 44.202 43.748c22.764 50.426 28.356 187.177 12.35 188.118z"/><path d="M451.654 748.631 429.321 695.6c56.908-.429 106.527-33.197 140.405-80.495l23.743 46.618c-30.336 53.169-81.671 85.274-141.815 86.908z"/></g><path d="M620.937 1057.039a7.483 7.483 0 0 1-3.132-.689c-29.283-13.485-68.499-68.451-73.616-103.184-.827-3.08-11.24-10.39-18.129-15.228-11.763-8.258-25.095-17.618-32.478-29.261-8.471-13.361-17.411-64.994-20.168-81.919-12.077-4-21.056-11.236-26.729-21.56-11.384-20.713-5.417-47.448-2.989-56.144l-21.287-50.545a7.5 7.5 0 0 1 13.824-5.822l22.333 53.031a7.503 7.503 0 0 1 .194 5.309c-.09.27-9.242 28.256 1.093 46.989 4.369 7.919 11.565 13.012 22 15.569a7.5 7.5 0 0 1 5.626 6.132c4.088 26.291 12.799 71.51 18.77 80.927 5.781 9.117 17.813 17.564 28.428 25.017 12.85 9.021 23 16.147 24.351 25.318 4.381 29.735 40.25 80.323 65.051 91.744a7.5 7.5 0 0 1-3.142 14.316z" fill="#c83400"/><g fill="#f4bbab"><path d="M561.983 608.825c-7.535-27.365-1.317-84.934 15.169-121.978s-122.326-15.651-132.572 16.897-24.86 66.543-30.631 89.271c-6.255 24.635-3.587 50.982 12.911 80.483 12.99 23.226 135.123-64.673 135.123-64.673z"/><path d="M577.152 486.847c9.004-24.722 27.743-77.35 26.08-94.223s-29.292-73.385-35.779-85.095c-13.055-23.565-48.323-12.889-37.818 15.698 12.448 33.875 25.079 74.85 25.079 74.85l-24.312 84.245z"/><path d="M547.009 490.05c5.365-22.331 21.182-85.816 14.847-97.699s-52.263-28.289-61.772-21.311c-5.312 3.898-25.571 51.173-29.066 59.306-7.89 18.361 26.351 34.161 35.89 13.811 5.311-11.33 11.699-23.947 11.699-23.947l-14.213 65.715z"/><path d="M518.061 493.51c1.72-17.771-.369-81.726-7.816-88.134s-62.384-7.666-68.788-4.786-10.918 45.263-12.904 54.89c-4.674 22.651 33.341 31.521 38.518 8.413 3.006-13.418 3.005-21.176 3.005-21.176l6.229.375-.421 56.767z"/><path d="M490.063 497.724c-1.018-13.384-.572-55.844-5.56-61.09s-57.366-9.217-63.561-5.787-13.368 39.893-17.254 61.721c-4.037 22.679 33.922 32.087 38.676 6.114 2.725-14.886 2.353-29.563 2.353-29.563l-.137 34.624z"/></g><path d="M547.013 497.552a7.501 7.501 0 0 1-7.238-9.482c7.955-29.062 18.96-79.449 15.154-92.752-1.219-1.381-5.277-4.317-8.92-6.427a7.502 7.502 0 0 1-2.735-10.247 7.498 7.498 0 0 1 10.242-2.74c8.791 5.078 13.983 9.791 15.433 14.008 7.022 20.424-11.018 88.649-14.705 102.118a7.506 7.506 0 0 1-7.231 5.522zm-28.947 3.458a7.5 7.5 0 0 1-7.501-7.729c.879-28.81-.575-73.569-6.53-83.686-2.153-1.613-11.279-2.615-19.067-2.07-4.128.288-7.716-2.821-8.009-6.95a7.5 7.5 0 0 1 6.941-8.012c7.809-.562 26.63-.823 32.695 8.82 10.701 17.017 9.344 79.919 8.963 92.356a7.5 7.5 0 0 1-7.492 7.271zm-28.008 4.214a7.501 7.501 0 0 1-7.492-7.255c-.724-22.197-2.449-48.416-4.133-56.104-6.56-1.958-27.633-4.002-45.27-4.807a7.5 7.5 0 0 1 .683-14.984c50.777 2.313 54.73 7.523 56.63 10.027 1.648 2.172 3.699 4.875 5.689 36.45l1.393 28.93a7.5 7.5 0 0 1-7.5 7.743zm-12.071-64.95zm-33.406 70.97h-.03a7.5 7.5 0 0 1-7.47-7.53l.137-34.625a7.5 7.5 0 0 1 7.5-7.47h.03a7.5 7.5 0 0 1 7.47 7.53l-.137 34.625a7.5 7.5 0 0 1-7.5 7.47z" fill="#e09273"/><g fill="#c83400"><path d="M783.923 871.759a7.5 7.5 0 0 1-7.479-7.044c-.244-4.003-4.34-9.062-11.24-13.882-7.502-5.239-15.918-8.635-20.845-9.95-10.762-2.873-14.518-18.38-19.273-38.014-2.491-10.284-6.66-27.497-10.73-30.454-15.515-11.271-42.856-5.427-43.129-5.366-4.015.881-7.998-1.624-8.928-5.624-4.07-17.509-9.814-22.7-12.876-24.236-2.819-1.416-5.167-.658-5.718-.44-2.19 1.243-4.685 1.203-6.934.051-2.278-1.167-3.617-3.518-3.86-6.065-5.087-53.255-23.442-57.549-38.191-60.999a198.925 198.925 0 0 1-3.077-.737 7.498 7.498 0 0 1-4.857-3.871l-23.743-46.618a7.5 7.5 0 1 1 13.366-6.807l22.171 43.531c15.643 3.664 40.897 10.081 48.359 66.138 2.578.103 5.498.673 8.57 2.102 8.655 4.023 15.232 13.354 19.597 27.775 11.092-1.349 32.716-2.12 48.067 9.033 8.533 6.199 12.399 22.16 16.492 39.058 2.214 9.142 5.893 24.329 8.998 27.171 13.731 3.798 41.557 17.624 42.754 37.294a7.5 7.5 0 0 1-7.494 7.954z"/><path d="M452.855 756.135a176.87 176.87 0 0 1-1.26-.005 7.501 7.501 0 0 1-7.441-7.559c.033-4.143 3.462-7.473 7.559-7.441l1.083.005c30.539 0 60.498-10.137 86.713-29.352 19.965-14.634 37.64-34.625 47.281-53.477a7.5 7.5 0 0 1 13.354 6.83c-16.15 31.583-67.637 90.999-147.289 90.999z"/></g><path d="M571.808 1056.917 426.23 1042.2c-96.712-8.606-112.428 168.001-15.716 176.607l157.831-1.063c87.323 1.881 90.787-158.947 3.463-160.827z" fill="#f4bbab"/><g fill="#f62"><path d="M120.504 1184.503c55.643 37.914 82.699 38.111 101.789 39.528 23.045 14.005 89.098 44.77 133.895 10.952 0 0 44.408 26.153 67.055 20.956 20.867-4.789 35.907-33.522 35.907-33.522-8.21-59.954 1.065-119.458 24.773-178.593-2.969-27.011-11.975-44.251-65.317-25.323 0 0-15.682-25.809-35.678-20.895s-31.215 17.209-47.476 12.163-52.692-27.125-75.931-28.67c-32.737-2.176-53.474 17.91-67.894 29.511-53.931 43.389-83.496 102.692-71.123 173.893z"/><path d="M483.921 1043.824c-29.169 11.574-52.068 124.604-24.773 178.593 0 0 50.64 2.601 69.104-.245-19.036-70.6-13.994-136.407 16.073-172.635z"/></g><g fill="#f4bbab"><path d="M571.808 1056.917c35.936 1.832 130.895-33.885 157.023-29.032 25.26 4.692 44.548 158.08 25.526 167.924s-116.17 39.125-163.407 31.016c-64.381-11.051-19.142-169.908-19.142-169.908z"/><path d="M728.832 1027.885c35.423 6.147 76.572 20.457 87.583 33.234s5.444 70.279-7.464 81.536c-5.791 5.05-47.962-1.29-58.412-2.714-26.17-3.565-23.927-40.536 3.272-39.184l27.2 1.352 1.502-11.111-47.133-9.16z"/><path d="M734.211 1072.207c16.865-.188 68.913 13.435 77.479 20.141 8.54 6.687 17.512 54.955 11.846 63.596-3.995 6.091-33.273 19.636-40.369 23.099-20.897 10.199-38.908-24.355-16.626-36.391 21.078-11.385 18.294-10.882 18.294-10.882l-4.737-9.014-41.823-2.265z"/><path d="M737.741 1114.148c14.507-1.326 60.983 2.123 66.621 6.029s17.257 49.407 13.222 56.78-26.122 24.701-31.797 29.026c-16.265 12.394-39.017-16.52-18.499-33.457l13.783-11.065-2.225-7.606-34.539 4.878z"/><path d="M743.212 1151.303c12.254-1.973 41.491-1.198 50.431.512s17.933 52.502 11.382 60.899-40.26 21.083-51.43 24.531c-22.364 6.904-34.833-27.71-14.765-35.308 11.003-4.166 21.284-7.162 21.284-7.162l-11.586-3.654z"/></g><path d="M820.843 1116.886a7.502 7.502 0 0 1-7.028-4.881c-.029-.078-3.247-8.575-8.151-15.191-3.837-4.315-33.872-12.279-72.397-17.167a7.5 7.5 0 0 1-6.497-8.384c.521-4.109 4.269-7.023 8.384-6.497.715.091 17.725 2.262 36.081 5.882 34.988 6.899 43.218 12.835 46.479 17.234 6.194 8.357 9.996 18.455 10.155 18.881a7.5 7.5 0 0 1-4.407 9.648 7.456 7.456 0 0 1-2.619.475zm-3.524 44.151a7.503 7.503 0 0 1-7.342-6.008c-2.912-14.285-7.619-26.329-10.319-28.993-5.539-2.841-36.275-4.547-61.866-4.388h-.052a7.5 7.5 0 0 1-.05-15 671.54 671.54 0 0 1 30.887.611c29.901 1.339 37.217 4.265 40.669 7.227 8.764 7.52 14.026 30.646 15.43 37.555a7.5 7.5 0 0 1-7.357 8.996zm-10.818 35.372a7.503 7.503 0 0 1-7.365-6.129c-2.581-13.863-6.8-28.205-9.311-31.854-7.16-1.721-38.058-.539-45.772.33a7.501 7.501 0 0 1-1.681-14.906c2.979-.336 14.083-1.037 25.601-1.239 23.118-.412 27.072 1.538 28.975 2.472 4.295 2.108 8.122 7.087 12.833 24.533 2.445 9.056 4.036 17.564 4.102 17.922a7.5 7.5 0 0 1-7.382 8.871zm-17.051-38.463zm-50.62 51.493a7.5 7.5 0 0 1-2.391-14.61l21.284-7.162a7.5 7.5 0 0 1 4.784 14.217l-21.284 7.162a7.52 7.52 0 0 1-2.393.393z" fill="#e09273"/><g fill="#c83400"><path d="M459.154 1229.919a7.499 7.499 0 0 1-6.725-4.17c-10.186-20.541-14.518-47.839-12.526-78.943 1.625-25.371 7.484-52.483 16.077-74.385 4.476-11.407 11.197-25.192 19.507-32.112-1.86-8.979-3.351-14.647-8.222-17.615-7.461-4.544-23.153-3.525-46.645 3.032a7.501 7.501 0 0 1-8.386-3.264c-15.672-25.211-28.922-19.645-47.257-11.94-9.915 4.166-20.169 8.469-30.801 6.641-19.948-3.438-31.765-10.417-42.191-16.575-9.929-5.864-18.504-10.93-33.021-12.007-35.467-2.644-61.426 26.661-61.684 26.957a7.497 7.497 0 0 1-10.582.729 7.5 7.5 0 0 1-.729-10.581c1.255-1.441 31.222-35.238 74.104-32.064 18.015 1.337 28.958 7.8 39.54 14.051 9.771 5.771 19.874 11.737 37.109 14.708 6.316 1.082 14.151-2.203 22.444-5.688 17.466-7.338 41.091-17.26 62.7 13.169 25.476-6.545 42.462-6.522 53.202.022 10.798 6.579 13.194 18.151 15.12 27.45l1.032 4.77a7.5 7.5 0 0 1-4.639 8.732c-2.843 1.079-9.621 9.177-16.638 27.063-16.263 41.451-22.885 103.258-4.076 141.186a7.5 7.5 0 0 1-3.387 10.051 7.463 7.463 0 0 1-3.326.783z"/><path d="M544.335 1057.038c-.236 0-.475-.012-.715-.034l-60.404-5.713a7.5 7.5 0 0 1 1.412-14.934l60.404 5.713a7.5 7.5 0 0 1-.697 14.968z"/></g></svg></g><g transform="matrix(1.669614 0 0 1.670642 1940 253.333333)"><svg width="498.119" height="413.015"><ellipse cx="222.213" cy="206.508" fill="#2471ed" rx="222.391" ry="206.276" transform="matrix(.9937 -.1121 .1121 .9937 -21.7483 26.211)"/><path d="m247.22 86.88-140.278 15.824c-46.455 5.241-80.177 47.537-74.936 93.993l6.966 61.749c5.241 46.455 47.537 80.177 93.993 74.936l140.278-15.824c46.455-5.241 80.177-47.537 74.936-93.993l-6.966-61.749c-5.241-46.455-47.537-80.176-93.993-74.936z" fill="#54d8f7"/><g fill="#2471ed"><path d="m446.706 108.654-31.018 3.499c-23.386 2.638-38.645 37.569-34.081 78.02s27.22 71.105 50.606 68.467l31.018-3.499z"/><ellipse cx="454.968" cy="181.898" rx="42.612" ry="73.708" transform="matrix(.9937 -.1121 .1121 .9937 -17.5226 52.147)"/></g><g fill="#004ebf"><path d="M460.379 262.802c-26.481.003-50.328-32.036-55.208-75.287-5.104-45.25 12.771-83.164 40.693-86.314a7.5 7.5 0 1 1 1.681 14.905c-18.913 2.134-31.492 34.065-27.47 69.727s23.389 63.978 42.313 61.855a7.5 7.5 0 1 1 1.681 14.905c-1.231.14-2.466.209-3.69.209z"/><path d="M429.333 266.302c-12.8 0-25.286-7.441-35.514-21.279-10.329-13.975-17.313-33.156-19.666-54.009s.183-41.108 7.139-57.033c7.554-17.293 19.471-27.692 33.554-29.28l31.019-3.5a7.495 7.495 0 0 1 8.293 6.612 7.5 7.5 0 0 1-6.612 8.293l-31.019 3.5c-8.538.963-16.169 8.201-21.489 20.379-5.918 13.547-8.042 31.072-5.98 49.347s8.036 34.886 16.823 46.775c7.9 10.688 16.961 16.039 25.489 15.08l31.019-3.499a7.5 7.5 0 1 1 1.681 14.905l-31.019 3.499a32.89 32.89 0 0 1-3.718.21z"/><ellipse cx="107.697" cy="207.718" rx="18.393" ry="31.77" transform="matrix(.9937 -.1121 .1121 .9937 -22.6058 13.3817)"/><ellipse cx="218.832" cy="195.181" rx="18.393" ry="31.77" transform="matrix(.9937 -.1121 .1121 .9937 -20.5 25.7606)"/><path d="M170.283 288.145c-5.155 0-10.125-1.646-14.227-4.751-4.94-3.74-8.036-9.134-8.719-15.187a7.5 7.5 0 1 1 14.905-1.681c.218 1.93 1.236 3.673 2.868 4.909 1.745 1.321 3.958 1.909 6.235 1.65s4.304-1.321 5.71-2.998c1.316-1.568 1.92-3.494 1.703-5.424a7.5 7.5 0 1 1 14.905-1.681c.683 6.053-1.134 12-5.116 16.747-3.892 4.638-9.403 7.572-15.521 8.262-.917.102-1.832.154-2.743.154zm167.695 56.396a7.5 7.5 0 0 1-1.64-14.818l97.944-22.049 6.127-51.681c.488-4.114 4.221-7.055 8.331-6.565a7.5 7.5 0 0 1 6.565 8.331l-6.752 56.95a7.499 7.499 0 0 1-5.801 6.434l-103.121 23.214a7.552 7.552 0 0 1-1.653.184z"/><ellipse cx="316.352" cy="341.983" rx="30.351" ry="16.771" transform="matrix(.9749 -.2228 .2228 .9749 -68.2368 79.0716)"/></g></svg></g><g transform="matrix(1.667568 0 0 1.672511 1248.333333 305)"><svg width="332.82" height="179.371"><path d="M332.82 0H0v128.245h65.452l30.408 51.126 30.408-51.126H332.82z" fill="#e3e5e5"/><g fill="#8f969e"><path d="M60.668 109.93c-3.956 0-7.836-.713-11.448-2.137-17.837-7.033-26.519-32.766-27.036-53.698-.423-17.104 4.304-29.163 12.968-33.084 5.842-2.647 13.359-1.366 19.151 3.259 3.998 3.193 12.856 12.773 8.771 32.717a5.001 5.001 0 0 1-9.797-2.007c2.096-10.229.196-18.574-5.214-22.895-3.281-2.62-6.777-2.875-8.787-1.964-3.781 1.712-7.441 9.712-7.094 23.728.44 17.856 7.848 39.571 20.706 44.641 6.274 2.474 15.403 1.463 21.769-2.833-4.691-8.287-4.842-17.885-.22-25.787a5 5 0 0 1 7.305-1.483c9.646 7.192 12.321 17.022 7.156 26.297a23.22 23.22 0 0 1-.94 1.54c2.786 2.25 5.912 3.284 8.52 2.66 4.345-1.036 7.729-6.838 9.285-15.918.419-2.448 2.545-4.191 5.058-4.153a4.998 4.998 0 0 1 4.835 4.411c1.17 9.901 5.351 15.335 7.814 15.335h.028c2.061-.035 8.377-5.288 10.297-28.184a5 5 0 0 1 9.16-2.328c2.035 3.096 3.641 8.043 5.5 13.771 1.617 4.982 5.368 16.542 8.054 17.905 2.454-1.169 7.208-8.032 8.181-12.01-.024-1.25.061-2.346.253-3.204a5.011 5.011 0 0 1 5.165-3.897 5 5 0 0 1 4.686 4.461c.113 1.06.058 2.208-.14 3.411.279 3.23 1.995 8.625 3.624 10.489.592-.647 1.631-2.08 2.929-5.104a5 5 0 0 1 9.189 3.945c-4.955 11.539-10.757 12.419-14.751 11.127-3.099-1.004-5.524-3.742-7.297-7.096-2.532 3.331-5.438 6.014-8.01 7.125-.047.021-.095.04-.143.059-2.625 1.041-5.332.97-7.826-.205-5.612-2.642-8.928-10.508-11.809-19.007-4.808 16.389-12.955 18.673-16.894 18.74-5.318.058-9.964-3.227-13.268-8.938-3.791 6.087-8.465 8.243-11.604 8.991-5.945 1.42-12.514-.596-17.857-5.226-2.547 1.836-5.451 3.364-8.591 4.485-3.84 1.374-7.796 2.061-11.678 2.061zm20.42-26.9c.044.877.162 1.739.342 2.579a7.723 7.723 0 0 0-.342-2.579zm173.85 26.606c-2.858 0-5.722-1.444-8.294-4.156-3.125 2.602-7.202 3.36-11.356 2.073-2.249-.697-4.373-1.932-6.33-3.641-.735 1.355-1.716 2.476-2.985 3.269-7.504 4.686-15.444-5.252-18.052-8.518a5 5 0 1 1 7.812-6.242c2.291 2.867 3.917 4.37 4.941 5.151.219-1.509.192-3.808-.144-6.395-1.337-3.339-2.413-7.088-3.177-11.176a4.998 4.998 0 0 1 9.435-3.058c1.427 3.015 2.742 7.225 3.454 11.588 2.694 6.164 5.997 8.846 8.006 9.469 1.376.424 1.911-.106 2.167-.362s.511-.625.744-1.128c-2.31-5.792-3.425-13.051.206-17.695a5 5 0 0 1 8.717 1.605c1.739 5.637 2.277 10.791 1.651 15.116 1.033 1.842 2.115 3.138 2.867 3.754.561-.919 1.56-3.173 2.267-8.238a5 5 0 0 1 9.209-1.931c4.845 7.863 8.211 10.555 12.869 10.269a5.02 5.02 0 0 1 5.293 4.688 5 5 0 0 1-4.688 5.294c-6.903.42-11.929-2.639-15.603-6.374-1.487 3.058-3.751 5.708-7.238 6.451a8.506 8.506 0 0 1-1.771.187zm38.05-16.198a5 5 0 0 1-4.884-3.954l-.263-1.188c-1.169-5.217-2.937-13.1 3.537-20.508a5.04 5.04 0 0 1 .497-.494c5.235-4.521 10.169-14.638 8.446-20.422a5.073 5.073 0 0 1-.061-.22c-1.288-5.176-3.907-8.15-7.783-8.841-4.557-.809-10.154 1.754-13.016 5.968-1.667 2.455-3.021 6.405-.004 11.281a5 5 0 0 1-8.504 5.262c-4.488-7.253-4.402-15.33.235-22.16 5.099-7.512 14.574-11.704 23.042-10.195 7.74 1.379 13.46 7.269 15.708 16.167 2.291 7.941-1.342 21.719-11.228 30.467-2.705 3.27-2.222 6.553-1.111 11.508l.283 1.281a5.002 5.002 0 0 1-4.894 6.048z"/><circle cx="296.679" cy="104.455" r="5.069"/></g></svg></g><g transform="matrix(1.670088 0 0 1.669766 2095 1070)"><svg width="409.16" height="235.562"><path d="M116.375 69.635 87.297 0 58.22 69.635H0v165.927h409.16V69.635z" fill="#e3e5e5"/><path d="M25.139 194.145a5.001 5.001 0 0 1-.653-9.957c8.211-1.092 15.617-6.695 21.783-14.524a71.232 71.232 0 0 1-2.176-5.116c-8.685-22.794-7.442-55.103 8.227-65.019 7.815-4.946 13.084-3.354 16.127-1.15 10.734 7.777 5.606 31.989 3.779 39.225-3.03 11.995-8.015 23.529-14.174 32.869 7.641 12.217 16.929 12.979 22.358 12.081 4.706-.778 7.708-10.773 9.694-17.388.649-2.161 1.262-4.203 1.908-5.932a5.002 5.002 0 0 1 3.386-3.08 5.003 5.003 0 0 1 4.474.968c2.844 2.339 5.821 5.864 8.974 9.597 5.79 6.854 13.722 16.256 19.82 15.524 2.124-.249 4.347-1.771 6.584-4.479a41.026 41.026 0 0 1-2.819-6.665c-.892-2.734-3.605-11.057 1.868-14.625 3.025-1.971 7.083-1.242 10.594 1.904 4.083 3.657 7.123 10.271 4.15 16.152a68.06 68.06 0 0 1-1.726 3.205c2.933 3.137 6.575 4.738 10.709 4.59 7.838-.252 15.562-6.629 17.584-14.518a5 5 0 0 1 9.562-.411c2.85 8.138 5.791 16.544 24.949 15.104a4.999 4.999 0 1 1 .754 9.97c-17.528 1.33-25.838-4.379-30.626-11.914-5.254 6.862-13.42 11.49-21.902 11.763-6.443.21-12.267-2.077-16.947-6.431-3.553 3.721-7.389 5.796-11.572 6.286-11.443 1.34-20.968-9.94-28.624-19.004l-2.269-2.672c-2.823 9.178-6.946 20.274-16.896 21.919-11.906 1.972-22.483-2.894-30.355-13.576-7.768 8.788-16.617 14.026-25.883 15.258a4.75 4.75 0 0 1-.662.046zm36.721-87.856c-.95 0-2.474.602-4.191 1.688-9.705 6.143-11.927 31.353-4.75 51.597 4.257-7.657 7.544-16.233 9.612-24.421 4.587-18.16 1.955-27.297.05-28.677-.174-.125-.418-.187-.721-.187zm209.425 112.642a8.727 8.727 0 0 1-3.949-.926c-1.573-.789-6.537-4.093-4.36-13.489 4.528-19.553 13.733-25.478 24.176-26.316.315-4.063-.116-7.647-1.194-10.384-1.062-2.696-2.586-4.181-4.528-4.411-4.198-.496-12.32 4.174-22.554 18.773a5 5 0 0 1-8.188-5.74c14.308-20.41 25.254-23.747 31.92-22.964 5.714.678 10.208 4.47 12.654 10.676 1.531 3.885 2.253 8.876 1.889 14.487 3.326.458 6.667 1.144 9.928 1.812 3.713.762 7.552 1.549 11.434 2.083 3.265.448 6.017-2.876 7.661-5.518-5.81-12.113-7.642-29.702 1.952-40.394a4.999 4.999 0 0 1 3.64-1.66c1.383-.052 2.729.535 3.692 1.54 4.195 4.377 6.393 11.698 6.191 20.615-.153 6.73-1.642 13.726-4.145 19.652 2.798 4.172 5.768 6.197 7.653 6.046 2.017-.172 5.063-3.314 7.563-11.62a5 5 0 0 1 9.625.174c1.16 4.427 5.483 9.06 10.515 11.267 1.97.864 5.733 2.068 8.812.434a5 5 0 0 1 4.689 8.832c-5.039 2.675-11.26 2.638-17.517-.107-4.122-1.809-7.825-4.592-10.697-7.895-3.939 6.611-8.533 8.571-12.142 8.879-4.87.418-9.788-2.044-14.019-6.809-4.223 4.902-9.4 7.221-14.835 6.469-4.207-.578-8.209-1.399-12.08-2.193-3.519-.722-6.699-1.374-9.574-1.794-2.106 7.816-6.223 16.191-12.926 24.117-3.501 4.137-7.558 6.364-11.286 6.364zm13.684-30.405c-5.705 1.541-9.536 6.523-12.25 18.246a11.29 11.29 0 0 0-.262 1.591c.653-.415 1.515-1.113 2.478-2.253 4.792-5.666 8.071-11.778 10.034-17.584zm46.553-35.475c-.251 2.08-.252 4.266-.038 6.473.188-2.249.202-4.441.038-6.473z" fill="#8f969e"/></svg></g></svg>