<svg xmlns="http://www.w3.org/2000/svg" width="2640" height="3000" xmlns:v="https://vecta.io/nano"><style><![CDATA[.B{fill:#111}.C{fill:#a85f36}.D{fill:#ffd215}.E{fill:#2199ce}.F{fill:#5ac4ff}.G{fill:#e3e5e5}.H{fill:#ce9800}.I{fill:#8f969e}.J{fill:#773a11}]]></style><g transform="matrix(1.196262 0 0 1.196769 337.2 154.8)"><svg width="1581.928" height="2221.983"><clipPath id="A"><ellipse cx="1161.392" cy="190.417" rx="21.235" ry="24.198"/></clipPath><clipPath id="B"><path d="M1119.651 190.417c.498-19.784-39.329-33.614-39.633-29.705l-5.948 69.639c-1.879 35.49 44.654-3.11 45.581-39.934z"/></clipPath><clipPath id="C"><ellipse cx="1082.552" cy="188.417" rx="19.402" ry="22.109"/></clipPath><g class="D"><path d="M1327.179 346.145s51.523-26.218 54.595-51.562-40.512-52.609-85.547-48.661-212.72 27.967-212.761 86.232c-.011 15.051 13.834 32.531 78.705 52.672m-156.348-20.591c-22.789 14.092-46.443 63.371-52.356 85.053s-48.293 95.601-53.221 171.49c0 0-46.322 81.803-61.106 114.327s152.885 132.067 183.317 73.918 65.696-179.375 77.631-221.755-94.265-223.034-94.265-223.034z"/><path d="M839.14 735.105c-15.769 30.553-60.12 78.846-70.961 107.428s-89.687 33.736-89.687 60.233 108.478 111.058 159.728 92.332 155.878-119.382 184.238-186.075c21.082-47.543-163.822-112.531-183.317-73.918z"/></g><path d="M1282.238 1108.127c-13.841 7.042-61.64-.013-111.467-50.523s56.653-43.685 87.369-17.064 49.561 54.632 24.098 67.587z" class="B"/><path d="M904.906 790.837c-69.723-15.425-516.166-186.692-648.607-36.742-57.129 64.681 14.795 161.008 109.759 179.006 98.77 18.719 517.746 119.581 517.746 119.581 131.402 19.711 148.491-225.784 21.102-261.846z" class="F"/><path d="M1462.179 384.826c23.017 34.479 47.335 58.797 54.54 76.81s15.311 82.86 23.417 99.972 33.734 102.199 39.629 134.197c6.305 34.225-2.558 73.658-8.862 92.572s14.266 90.26-6.449 122.684-41.881 49.683-59.586 60.812c-30.432 19.129-169.18-80.626-170.981-191.406 0 0-19.814-17.112-9.907-81.959s-10.808-130.594-10.808-130.594c7.001-91.227 55.16-153.324 149.007-183.087z" class="D"/><path d="M275.906 1809.675c17.832 39.909 137.755 241.494 203.138 241.494s15.533-153.095-17.832-192.751c-70.012-83.214-178.256-90.476-185.306-48.742z" class="B"/><path d="M1297.562 1050.155c-37.045 37.874-306.914 215.035-407.759 293.605-56.991 44.402-336.982-71.071-278.878-159.991 50.158-76.759 311.291-265.767 397.34-303.462s289.297 169.848 289.297 169.848z" class="F"/><path d="m325.185 1730.663-87.667 141.483c-38.788 61.714 135.022 258.398 176.7 193.878 19.042-29.478 124.459-190.527 155.839-256.46 37.793-79.408-199.384-171.499-244.872-78.901z" class="C"/><g class="F"><path d="M610.926 1183.769c-32.612 52.935-113.886 189.745-154.569 269.175S344.281 1709 301.87 1769.587c0 0 276.537 88.253 241.666 218.053 0 0 151.11-129.799 170.483-180.169s15.498-129.799 29.06-170.483 98.219-251.556 146.726-293.228c70.911-60.92-223.132-250.476-278.878-159.991z"/><path d="M275.906 1809.675c-11.039-16.134 33.215-138.065 73.5-126.911 41.99 11.626 164.452 38.945 204.361 114.517s52.646 151.144 47.551 164.73-63.684 87.46-88.309 89.158-33.965 0-33.965 0c29.719-14.435 17.423-102.09-22.077-168.127-39.023-65.239-122.471-101.388-181.06-73.367z"/></g><path d="M593.822 1902.16a5 5 0 0 1-3.63-8.438c83.498-88.161 101.015-169.336 113.806-228.607 3.357-15.557 6.256-28.991 9.962-40.755l10.69-34.218c33.806-108.701 60.507-194.561 131.748-276.325 48.772-55.977 140.483-108.341 221.399-154.54 47.913-27.356 93.168-53.196 120.222-74.947l77.519-62.346a5 5 0 0 1 6.269 7.791l-77.521 62.348c-27.671 22.249-73.262 48.279-121.529 75.838-80.227 45.807-171.158 97.725-218.817 152.425-69.857 80.177-96.283 165.148-129.74 272.727a9602.08 9602.08 0 0 1-10.7 34.254c-3.567 11.321-6.421 24.546-9.726 39.858-6.267 29.04-14.066 65.182-30.879 104.899-19.707 46.554-47.655 88.578-85.441 128.476a4.987 4.987 0 0 1-3.631 1.562z" class="E"/><path d="M320.626 2206.303c30.192-17.087 48.896-52.831 82.391-113.77 0 0 11.412-14.72 21.32-19.135 15.392-6.858 14.778-36.804 5.544-31.543-15.83 9.019-47.843 19.458-78.056-20.827s-49.871-141.462-98.455-174.464c0 0-26.218 11.454-47.577 0-20.742-11.123-54.278-39.87-94.623-51.422 0 0-30.026-33.582-62.083-27.795-19.337 3.491-35.946 35.611-44.701 55.794-21.048 48.524 274.333 397.83 316.24 383.163z" fill="#0a3ea5"/><path d="M.427 1837.926c-4.583 37.579 27.823 142.953 91.145 194.762s41.81 85.106 82.51 133.359c45.792 54.29 78.235 66.035 132.341 48.187 35.625-11.751 28.175-45.275-42.156-135.381-65.549-83.98-127.602-229.414-174.614-258.196S5.224 1798.59.427 1837.927z" class="G"/><path d="M356.834 2176.263a5 5 0 0 1-4.992-5.36c2.754-38.245-32.946-79.81-61.632-113.207-13.137-15.295-24.483-28.505-31.016-39.827l-19.264-34.047c-37.197-66.382-75.66-135.024-143.664-195.578a5 5 0 1 1 6.65-7.469c69.257 61.671 108.137 131.057 145.738 198.159l19.202 33.937c6.066 10.514 17.13 23.395 29.941 38.31 29.881 34.79 67.069 78.087 64.02 120.441a5 5 0 0 1-4.982 4.641zm-76.167-281.466c-24.905 0-65.033-23.891-79.069-45.511a5 5 0 0 1 1.471-6.916 4.998 4.998 0 0 1 6.917 1.471c6.854 10.558 21.563 22.453 38.389 31.045 16.224 8.284 31.372 11.792 38.592 8.936a5 5 0 0 1 3.68 9.299c-2.897 1.146-6.27 1.677-9.979 1.677z" fill="#002e77"/><g class="E"><path d="M601.313 1967.011a5.003 5.003 0 0 1-4.978-4.585c-.074-.891-7.895-89.954-46.974-162.781-24.527-45.709-90.559-82.964-196.261-110.731l-4.997-1.322a5 5 0 0 1 2.605-9.654l4.932 1.305c17.514 4.602 58.527 15.375 99.563 33.828 51.646 23.225 86.29 50.763 102.969 81.847 40.083 74.699 48.052 165.769 48.128 166.68a5 5 0 0 1-4.988 5.415z"/><path d="M510.467 2034.29c-14.244 0-20.896-3.67-21.709-4.153a5 5 0 1 1 5.105-8.598c2.373 1.412 7.148 3.81 23.46 2.454 5.609-.468 21.959-13.996 42.355-38.949 17.916-21.918 31.751-43.813 32.896-52.061a4.996 4.996 0 0 1 5.641-4.265 5 5 0 0 1 4.265 5.64c-1.745 12.559-19.977 38.563-35.059 57.015-10.149 12.415-35.265 41.419-49.268 42.585a92.688 92.688 0 0 1-7.687.332z"/></g><path d="m1044.707 863.222 139.8-12.662 16.645 114.281-156.445 9.399c-28.09 2.27-35.879-109.555 0-111.018z" class="C"/><path d="M1005.823 364.235c37.357-14.01 103.157-32.823 157.59-39.571s124.52-3.473 124.52-3.473 137.899 28.57 174.246 63.634c0 0-33.318 165.307-57.549 213.77s18.673 283.653 14.135 355.392c-5.213 82.413-26.862 128.992-101.485 134.238-9.366 8.261-21.266 15.164-35.042 19.901 25.127-19.294-5.194-62.255-182.174-133.265C925.843 904.958 867.729 783.28 867.729 783.28l37.177 7.557 22.877-28.85s-18.436-47.726 35.635-164.402c41.198-88.899 42.405-233.351 42.405-233.351z" class="D"/><g class="H"><path d="M1184.509 919.867a5 5 0 0 1-4.639-3.133c-18.835-46.761-10.232-121.643-6.819-145.426-25.918 4.959-61.734 1.932-99.893-8.593-37.793-10.425-71.288-26.244-90.523-42.658-18.85 9.208-65.96 59.678-73.341 73.179a5.001 5.001 0 0 1-8.775-4.797c8.094-14.807 60.906-72.369 81.591-78.942a5.003 5.003 0 0 1 4.888 1.075c36.561 33.427 137.584 63.959 190.801 49.387a5 5 0 0 1 6.249 5.67c-.162.944-15.983 95.034 5.098 147.37a5 5 0 0 1-4.637 6.87zm132.776 173.358a5 5 0 0 1-4.989-5.394c1.643-20.784-17.969-54.324-45.715-66.418a5 5 0 0 1 3.995-9.167c31.938 13.92 53.631 51.803 51.688 76.372a5 5 0 0 1-4.979 4.606z"/><path d="M927.777 766.988a5 5 0 0 1-4.907-4.07c-10.823-57.121 20.765-131.528 35.945-167.286 14.389-33.894 27.72-91.47 34.016-130.622a5 5 0 1 1 9.873 1.587c-6.389 39.73-19.969 98.279-34.684 132.942-13.641 32.13-45.584 107.375-35.325 161.517a5 5 0 0 1-4.918 5.931z"/></g><path d="M1327.179 346.145c25.705-37.68 20.863-98.212-69.209-75.937-85.517 21.149-152.323 25.665-107.154 100.725s176.363-24.788 176.363-24.788z" class="B"/><path d="m1269.544 215.147 20.122 116.039s22.806 2.073 10.507 16.058c-16.03 18.228-71.965 74.252-121.297 67.114-32.813-4.748-28.947-73.191-28.947-73.191l14.979-1.933-10.732-104.636c-3.36-42.928 108.408-56.343 115.368-19.452z" class="C"/><path d="M799.58 1012.458a5 5 0 0 1-2.653-9.242l115.131-73.18a5 5 0 1 1 5.54 8.326c-31.572 21.008-114.541 72.817-115.375 73.337a4.979 4.979 0 0 1-2.643.759z" class="E"/><g class="D"><path d="M1167.641 432.283c6.102-37.205 127.994-68.547 159.538-86.138s47.922-37.003 54.595-51.562c0 0 34.917 26.608 18.054 57.792-87.773 57.021-173.027 90.22-232.187 79.908z"/><path d="M1181.696 418.257c-9.439-16.331-44.789-72.584-57.864-86.103s-39.954-15.673-40.367 0c-.665 25.221 29.846 92.377 84.176 100.13 11.235 1.603 14.055-14.026 14.055-14.026z"/></g><path d="M1182.267 438.922c-1.174 0-2.336-.012-3.496-.036a5.001 5.001 0 0 1-4.895-5.104c.058-2.761 2.362-4.94 5.104-4.895 73.526 1.521 185.064-51.132 217.508-80.234a5 5 0 0 1 6.678 7.444c-32.243 28.922-142.279 82.824-220.899 82.824zm-29.707-5.465c-.382 0-.77-.044-1.158-.136-20.306-4.813-68.773-45.496-72.55-94.471a5.001 5.001 0 0 1 4.601-5.37c2.749-.201 5.157 1.848 5.37 4.601 1.468 19.041 11.235 39.564 27.501 57.789 14.016 15.703 29.416 25.831 37.385 27.72a5 5 0 0 1-1.149 9.867z" class="H"/><path d="M802.329 1027.565c-51.473 3.437-168.543 156.48-123.838 280.148 8.81 24.371 84.918-113.716 101.234-178.682s22.605-101.467 22.605-101.467z" class="B"/><path d="m729.073 992.254 202.979 77.067c88.578 27.165-88.772 231.856-187.776 191.239l-210.701-95.62c6.66-109.385 62.642-175.082 195.497-172.686z" class="C"/><g class="F"><path d="M256.299 754.095c-35.423 42.538-56.432 141.321-12.833 255.26 37.795 98.771 112.379 107.513 147.56 150.357 52.806 64.311 132.649 98.941 222.934 110.485 19.863-84.476 81.907-239.528 150.264-261.025-67.982-27.207-175.156-127.77-246.612-133.442C431.896 781.49 256.3 754.096 256.3 754.096z"/><path d="M578.506 1289.437c-3.584-150.022 79.298-285.973 135.636-306.272 0 0 85.184 9.027 99.947 38.812-37.276 5.589-64.859 33.368-89.503 106.108-23.159 68.356-43.269 123.835-46.096 179.629-46.708 7.802-99.985-18.277-99.985-18.277z"/></g><g class="E"><path d="M663.191 1315.047c-31.81 0-80.083-18.442-86.506-20.953a5.002 5.002 0 0 1-3.18-4.7c.529-61.002 11.516-122.462 30.936-173.06 24.149-62.919 60.189-109.164 107.12-137.452a5 5 0 0 1 3.022-.698c.902.08 22.346 2.014 45.325 7.126 32.644 7.263 50.729 16.822 55.292 29.225a5 5 0 1 1-9.384 3.452c-5.903-16.049-57.921-26.611-90.485-29.693-117.954 72.366-130.864 241.735-131.781 297.719 22.304 8.369 74.201 24.766 93.052 17.072a5 5 0 0 1 3.78 9.258c-4.667 1.905-10.573 2.704-17.189 2.704z"/><path d="M714.138 988.165a4.965 4.965 0 0 1-2.584-.724c-5.73-3.468-13.859-9.657-24.151-17.492-34.831-26.514-93.126-70.891-154.839-83.651-37.541-7.763-52.709-43.701-53.336-45.227a4.999 4.999 0 0 1 2.723-6.525 4.997 4.997 0 0 1 6.525 2.724c.132.317 13.865 32.568 46.113 39.236 63.937 13.221 123.364 58.459 158.871 85.488 10.056 7.654 17.998 13.701 23.273 16.894a5 5 0 0 1-2.594 9.279z"/></g><path d="M875.492 1159.712c-26.58 46.216-131.858 70.433-131.216 100.847s11.301 73.051-5.576 106.804-41.748 106.591-7.106 129.686 48.615 20.563 48.615 20.563c125.198-142.609 218.891-291.296 291.488-439.724 0 0-47.866-23.192-90.502-19.639s-76.289-15.1-76.289-15.1-19.55-18.482-29.42-15.192c-11.208 3.736-3.445 15.218-.883 23.187 3.628 11.282 26.481 64.069.888 108.568z" fill="#0a3ea5"/><path d="M943.282 1283.634c-38.376 55.815-120.134 71.783-160.6 114.056-31.748 33.165-50.389 99.32-9.607 118.013s172.095-89.529 218.854-184.343 108.127-216.008 81.645-251.791c-16.556-22.372-81.48 133.072-130.292 204.066z" class="G"/><path d="M731.593 1502.051a5.002 5.002 0 0 1-4.778-3.532c-3.461-11.267-8.421-34.033-2.759-59.928 5.718-26.147 20.466-48.065 43.836-65.146 15.865-11.596 34.64-21.681 54.518-32.359 38.983-20.941 79.294-42.596 101.338-77.862 8.532-13.649 20.372-37.025 32.907-61.774 39.283-77.557 68.849-132.77 91.626-136.835 2.72-.493 5.315 1.325 5.801 4.043a5 5 0 0 1-4.043 5.801c-5.645 1.008-16.781 9.507-37.784 44.275-15.448 25.573-32.041 58.332-46.68 87.234-13.188 26.038-24.578 48.525-33.348 62.557-23.452 37.519-64.952 59.812-105.085 81.371-19.564 10.51-38.042 20.437-53.35 31.624-54.905 40.128-42.521 97.449-37.418 114.063a4.999 4.999 0 0 1-4.782 6.469zm13.911-149.344a5 5 0 0 1-4.023-7.964c16.734-22.736 35.428-67.177 33.037-117.599a5 5 0 0 1 9.989-.472c2.514 53.037-17.268 99.945-34.973 123.999a4.995 4.995 0 0 1-4.031 2.036z" fill="#002e77"/><path d="M383.513 1156.594a5.002 5.002 0 0 1-4.585-2.999c-12.105-27.711-27.152-51.102-41.703-73.722-18.57-28.867-34.607-53.797-40.251-81.081a4.999 4.999 0 1 1 9.792-2.026c5.268 25.462 20.839 49.668 38.869 77.696 14.076 21.883 30.031 46.684 42.457 75.128a5.001 5.001 0 0 1-4.579 7.003zm195.942 112.941c-.355 0-.716-.038-1.078-.117-15.105-3.318-55.305-15.144-57.009-15.646a5 5 0 0 1-3.384-6.208 4.996 4.996 0 0 1 6.209-3.384c.414.121 41.565 12.228 56.329 15.47a5.001 5.001 0 0 1-1.068 9.885z" class="E"/><g class="I"><path d="M606.397 1041.057 381.543 849.618c-4.551-3.875.759-8.664 11.772-10.737l275.826-51.928c10.098-1.901 23.367-.787 29.74 2.521l309.924 160.882c11.33 5.203 9.286 13.037-3.034 15.851l-358.063 81.592c-14.522 3.309-33.105.245-41.312-6.742z"/><path d="M379.912 846.832v13.939c-.009 1.007.514 2.013 1.631 2.964l224.854 191.439c8.206 6.987 26.79 10.051 41.312 6.742l358.063-81.592c6.453-1.47 9.994-3.989 10.531-6.862l-.162-16.327c.234 4.13-2.302 7.234-10.369 9.072l-358.063 81.592c-14.522 3.309-33.105.245-41.312-6.742L381.543 849.618c-1.051-.895-1.576-1.839-1.627-2.786z"/></g><path d="M771.801 913.391c-3.724 0-7.58-.908-10.119-2.506l-78.543-49.43c-2.517-1.584-3.717-4.07-3.209-6.65.337-1.712 1.722-4.728 7.21-5.689l79.44-13.894c3.498-.612 8.862-.245 12.341 1.643l84.802 45.989c4.378 2.374 4.381 5.761 4.179 7.106-.209 1.395-1.279 4.756-6.674 5.842l-85.475 17.216a20.17 20.17 0 0 1-3.951.373zm-4.792-10.97c1.045.658 4.349 1.281 6.77.794l77.667-15.644-77.293-41.917c-.901-.489-3.755-.949-5.85-.582l-72.322 12.649 71.027 44.7z" fill="#656c72"/><path d="m614.065 1022.762-198.994-166.9c-3.76-3.154-1.269-6.722 5.52-8l158.103-29.765c6.583-1.239 15.698.091 20.413 2.999l248.215 153.123c7.96 4.91 7.632 10.38-.85 12.155l-204.716 42.838c-8.833 1.848-21.275-1.071-27.69-6.451z" class="B"/><path d="m601.788 1053.732-233.962-199.28c-4.771-4.064-9.088-16.961-9.702-28.905l-56.831-327.401c-.701-13.627-.793-24.052 7.721-21.751l251.225 83.048c9.337 3.086 17.049 20.87 17.06 39.548l39.928 439.777c.009 15.575-6.965 22.183-15.439 14.965z" class="I"/><path d="M635.48 1054.347c-8.442 0-15.607-2.41-22.948-7.463a5 5 0 0 1 5.67-8.238c7.429 5.115 14.458 7.453 28.396 4.278l358.063-81.593 2.222 9.75-358.063 81.593c-4.855 1.106-9.249 1.673-13.34 1.673z" fill="#656c72"/><path d="M1333.892 785.466a4.997 4.997 0 0 1-4.261-2.376c-10.182-16.513-18.511-38.289-10.582-85.413 8.174-48.581-7.503-115.612-10.729-128.556a5 5 0 1 1 9.704-2.418c3.31 13.282 19.39 82.096 10.887 132.633-7.381 43.866.075 63.655 9.232 78.505a5 5 0 0 1-4.251 7.625zm17.194-321.939a5 5 0 0 1-3.809-8.236c16.51-19.442 72.792-68.752 114.107-75.401a5 5 0 0 1 1.589 9.873c-38.19 6.146-92.786 53.998-108.074 72.001a4.987 4.987 0 0 1-3.813 1.764zm-347.841-43.544a5 5 0 0 1-4.995-5.313c.083-1.314 2.104-32.43 9.487-54.461a5 5 0 1 1 9.482 3.178c-6.962 20.775-8.969 51.601-8.988 51.91a5.002 5.002 0 0 1-4.985 4.687z" class="H"/><g class="C"><path d="M1044.707 863.222c-15.294-6.326-96.521-47.496-112.655-61.96s-61.198 116.276-33.381 139.086 69.543 47.289 95.691 45.62 41.797-7.7 50.344-11.728c25.825-12.169 25.319-100.654 0-111.018z"/><path d="M932.052 801.261c-23.177-15.97-45.283-44.918-55.284-47.024s-73.992 19.766-84.609 23.512c-16.656 5.877-12.237 36.49 9.869 30.701s60.528-17.369 60.528-17.369l42.107 48.089 27.388-37.909z"/><path d="M922.619 831.59s-55.558-20.556-71.309-18.541-64.476 43.697-72.179 49.576c-15.316 11.689.806 37.887 21.765 23.78l52.397-34.861 51.613 18.739 17.712-38.693z"/><path d="M914.557 860.571s-50.318-18.905-63.248-14.874-53.828 35.207-61.965 40.456c-16.271 10.496-.138 38.572 20.418 26.264s44.739-28.027 44.739-28.027l47.561 13.301z"/><path d="M910.957 895.635c-10.47-5.404-48.975-19.928-58.094-18.577s-35.442 23.476-44.826 33.289c-15.97 16.699 4.971 37.977 21.183 23.454a1042.358 1042.358 0 0 1 24.656-21.385l44.795 27.93 12.286-44.712z"/></g><path d="M783.48 894.496a5 5 0 0 1-2.803-9.143c2.294-1.55 56.317-38.026 68.379-44.118 11.026-5.57 33.911 2.211 58.388 11.393l8.762 3.224a5 5 0 0 1-3.297 9.441c-2.524-.881-5.515-2.003-8.978-3.302-13.744-5.155-42.344-15.885-50.368-11.829-11.502 5.809-66.732 43.102-67.289 43.478a4.976 4.976 0 0 1-2.795.857zm18.85 25.983a5 5 0 0 1-3.449-8.621c6.507-6.194 39.646-37.222 53.068-39.715 12.075-2.244 31.709 6.264 50.695 14.491l10.243 4.39a5 5 0 1 1-3.862 9.224l-10.357-4.438c-15.957-6.914-35.816-15.523-44.893-13.834-7.714 1.432-32.712 22.572-47.999 37.126a4.984 4.984 0 0 1-3.447 1.378zm120.29-83.887a5.018 5.018 0 0 1-1.577-.256l-34.671-11.512a5 5 0 1 1 3.152-9.49l34.671 11.512a5.002 5.002 0 0 1-1.575 9.747z" class="J"/><g class="D"><path d="M1504.868 971.872c-31.483 19.777-58.324 15.057-74.611 15.743s-60.344 35.125-98.171 37.827-116.243-32.728-140.307-22.59-93.862 35.199-104.67-21.542-9.868-115.674 7.205-138.7c28.684-38.685 72.953-26.119 113.482-18.013 0 0 44.132-20.715 74.754-17.112 0 0 34.679-36.469 89.079-25.478 86.316 17.44 194.484 151.391 133.239 189.865z"/><path d="M1044.707 863.222c-8.381-11.53 37.849-29.668 49.607-20.611 22.038 16.976 34.685 112.847 18.876 131.629-12.166 14.454-64.03 4.192-64.03 4.192 20.351-25.705 23.327-86.076-4.453-115.21z"/></g><g class="H"><path d="M1087.571 986.314c-.174 0-.347 0-.522-.003a5 5 0 0 1 .06-10h.061c10.743.133 18.256-4.849 22.889-15.222 6.202-13.883 6.738-36.737 1.472-62.702-4.613-22.746-13.012-43.802-20.9-52.396a5 5 0 0 1-.428-6.226c14.657-21.182 40.121-31.275 73.643-29.187 20.028 1.248 37.1 6.413 43.271 8.483 20.537-12.605 63.105-15.856 73.131-16.459 14.939-15.815 35.527-24.534 61.229-25.922 22.625-1.218 42.683 3.755 50.256 5.951a5.001 5.001 0 0 1-2.785 9.605c-11.403-3.308-69.942-17.954-102.674 18.585a5 5 0 0 1-3.496 1.659c-.526.024-52.838 2.569-72.094 16.199a5 5 0 0 1-4.645.601c-.746-.278-73.438-26.84-105.39 13.185 8.234 11.101 16.146 31.574 20.681 53.936 5.67 27.96 4.89 53.025-2.142 68.768-6.183 13.843-17.11 21.146-31.618 21.146z"/><path d="M1242.322 846.503a4.97 4.97 0 0 1-2.517-.684c-13.522-7.898-33.764-16.535-33.967-16.621a5.001 5.001 0 0 1 3.915-9.203c.852.363 21.032 8.974 35.096 17.188a5 5 0 0 1-2.527 9.318zm-197.615 19.068a5 5 0 0 1-5-5c0-7.754 6.373-14.517 18.431-19.559 11.805-4.936 32.583-8.972 39.688-1.961a5 5 0 1 1-7.024 7.118c-2.784-2.042-19.419-.825-31.997 5.534-5.697 2.88-9.099 6.195-9.099 8.867a5 5 0 0 1-5 5zm276.658 165.305c-25.638 0-47.694-7.076-67.447-13.413-26.653-8.549-49.671-15.935-74.397-4.551a5 5 0 0 1-4.182-9.084c28.256-13.008 54.184-4.693 81.634 4.113 22.726 7.29 46.224 14.83 74.708 12.518 36.051-2.924 88.917-35.349 89.448-35.676a5 5 0 1 1 5.254 8.509c-2.247 1.387-55.468 34.018-93.893 37.135-3.781.307-7.491.449-11.125.449zm19.325-687.409a5 5 0 0 1-2.574-9.29c21.061-12.617 29.931-25.968 39.338-42.111a4.998 4.998 0 0 1 8.639 5.035c-9.792 16.804-19.775 31.837-42.839 45.654a4.977 4.977 0 0 1-2.564.712zm-179.57 199.067a5.001 5.001 0 0 1-4.301-7.543c7.4-12.536 11.681-36.174 15.821-59.033 4.926-27.199 9.18-50.689 18.889-58.23a5 5 0 0 1 6.134 7.898c-6.685 5.192-11.2 30.121-15.183 52.114-4.296 23.726-8.739 48.259-17.049 62.335a5 5 0 0 1-4.311 2.459zm-50.233 34.346a5 5 0 0 1-3.953-8.058c8.785-11.363 17.947-55.723 25.31-91.366 8.601-41.637 13.78-65.475 20.216-71.225a5 5 0 0 1 6.668 7.452c-4.369 4.208-11.422 38.356-17.09 65.796-8.354 40.444-16.993 82.266-27.191 95.459a4.992 4.992 0 0 1-3.959 1.942z"/></g><path d="M1090.725 80.626c-16.013-6.249-33.939 51.573-10.707 80.086 0 0 20.633-15.607 39.638-9.56 12.915 4.109-12.465-64.1-28.931-70.526z" class="B"/><path d="M1158.332 62.508c-34.638 2.425-73.628 22.565-77.497 86.476-4.146 68.487-20.447 139.297 15.974 152.077s120.128-4.473 153.994-35.783 37.061-65.815 30.671-120.767-59.244-86.476-123.142-82.003z" class="C"/><path d="M1204.479 143.424c-24.708-55.917 109.279-80.808 115.162-55.314 6.801 29.471 7.254 80.472-15.649 115.732 0 0-65.056 17.566-99.513-60.418z" class="B"/><path d="M1247.143 187.646c5.511-18.739 59.29-44.244 59.843-2.565.443 33.341-23.51 54.849-36.347 54.84-12.815-.008-34.183-15.942-23.496-52.276z" class="C"/><g class="J"><path d="M1161.125 20.609c-36.685-12.498-74.642-12.325-99.671 33.431-33.784 61.759 18.565 106.672 18.565 106.672-24-61.94 32.528-61.079 53.621-93.197 17.454-26.577 27.486-46.905 27.486-46.905z"/><path d="M1136.883 49.571c-16.776 45.339 35.541 91.579 64.559 116.969 0 0 29.946-2.868 39.803-8.054 0 0 1.906-9.838-4.497-28.653 0 0 14.131 10.907 17.192 26.84 30.339-2.483 54.657-12.685 79.757-26.851 0 0 2.72-85.238-38.538-111.988s-135.878-28.793-158.274 31.738z"/></g><ellipse cx="1161.392" cy="190.417" fill="#fff" rx="21.235" ry="24.198"/><g clip-path="url(#A)"><ellipse cx="1155.792" cy="199.809" rx="12.78" ry="20.147" class="B"/></g><path d="M1144.861 154.737c-16.146-.492-10.63-19.426 2.276-21.353 15.262-2.279 34.831 4.762 47.257 13.669 10.302 7.384 6.606 21.106-5.91 15.967-14.897-6.117-31.468-7.912-43.624-8.283zm-50.294 3.516c15.95-3.132 13.296-19.901.261-20.499s-23.332 2.445-33.363 10.193-5.424 19.52 7.436 15.316 17.04-3.316 25.666-5.01z" class="B"/><g class="J"><path d="M1101.024 237.825a5.003 5.003 0 0 1-4.701-3.296c-4.156-11.453.64-18.412 6.009-20.891 7.542-3.482 19.69.084 27.348 13.552a5 5 0 1 1-8.693 4.943c-4.945-8.696-11.555-10.759-14.463-9.416-2.431 1.123-2.008 5.076-.801 8.401a5 5 0 0 1-4.7 6.707zm24.311 38.71a5 5 0 0 1 0-10c20.835 0 29.823-6.545 38.306-17.852a5 5 0 0 1 7.999 6.001c-11.798 15.724-24.781 21.85-46.305 21.85zm137.294-56.689a5 5 0 0 1-4.796-6.42c3.225-10.902 14.277-29.289 31.508-35.259a5 5 0 0 1 3.273 9.449c-13.57 4.702-22.654 20.066-25.192 28.646a5.002 5.002 0 0 1-4.792 3.583z"/><path d="M1284.195 212.952a4.996 4.996 0 0 1-4.337-2.505c-1.392-2.388-5.379-7.55-8.781-8.2a5 5 0 0 1 1.877-9.823c8.804 1.682 14.902 11.874 15.568 13.03a4.999 4.999 0 0 1-4.327 7.497z"/></g><path d="M1133.636 72.515a5 5 0 0 1-4.994-4.83c-1.156-33.946 28.804-50.761 30.08-51.46a5 5 0 0 1 4.806 8.77c-1.045.58-25.835 14.646-24.892 42.351a5 5 0 0 1-5 5.17z" class="B"/><path d="M1161.119 307.356a4.999 4.999 0 0 1-.898-9.918c8.588-1.579 48.77-12.677 58.024-17.351a5 5 0 1 1 4.508 8.926c-10.862 5.486-52.56 16.759-60.725 18.26a5.04 5.04 0 0 1-.91.083z" class="J"/><g clip-path="url(#B)"><ellipse cx="1082.552" cy="188.417" fill="#fff" rx="19.402" ry="22.109"/><g clip-path="url(#C)"><ellipse cx="1080.911" cy="199.021" rx="12.78" ry="20.147" class="B"/></g></g></svg></g><g transform="matrix(1.185417 0 0 1.184567 612 277.2)"><svg width="321.912" height="176.267"><path d="M321.912 120.279H42.218L0 176.267V0h321.912z" class="G"/><path d="M106.982 92.012c-6.042 0-10.67-5.46-13.938-11.478-3.566 7.038-8.707 9.701-12.231 10.705-7.757 2.21-16.88-.838-24.397-7.731-6.404 5.408-14.422 8.448-23.114 8.448a5 5 0 0 1 0-10c6.296 0 12.013-2.13 16.621-6.004-8.624-12.729-12.632-33.135 1.413-53.352a5.002 5.002 0 0 1 7.505-.814c11.774 10.915 15.394 29.19 9.007 45.476a42.647 42.647 0 0 1-4.7 8.832c4.924 4.512 10.63 6.754 14.926 5.528 5.093-1.45 8.264-7.833 8.93-17.97a4.999 4.999 0 0 1 9.836-.902c2.658 10.473 8.082 19.144 10.214 19.255 4.224-.704 9.53-10.614 10.561-36.229a5 5 0 0 1 4.903-4.798c2.673-.029 4.873 1.973 5.078 4.612 2.044 26.315 8.826 34.645 11.065 34.701h.009c.844 0 4.133-2.861 5.324-12.109a4.998 4.998 0 0 1 9.085-2.186c6.6 9.643 12.581 14.889 18.282 16.04a5.001 5.001 0 0 1-1.979 9.803c-7.34-1.482-13.399-6.466-18.165-11.863-2.826 6.668-7.349 10.444-12.809 10.313-6.273-.158-11.424-5.374-15.1-14.901-3.191 9.873-8.076 15.394-14.62 16.482-.581.097-1.15.143-1.706.143zM56.159 33.959c-7.517 14.856-3.1 27.354.448 33.768a34.34 34.34 0 0 0 1.931-4.116c3.429-8.743 3.67-20.532-2.379-29.652zm225.526 59.398c-8.64 0-16.794-5.239-23.46-15.074-1.626 6.241-4.146 12.473-10.241 13.575-10.621 1.916-17.382-6.12-21.815-14.188l-.054.246c-1.39 6.323-3.484 15.88-17.423 13.977a5 5 0 0 1-4.277-5.631 5.006 5.006 0 0 1 5.631-4.277c4.792.655 4.878.267 6.303-6.215.892-4.06 2.003-9.111 5.517-13.667a5 5 0 0 1 8.542 1.053l.614 1.416c4.061 9.396 8.559 18.461 15.019 17.475 1.395-1.184 2.785-7.304 3.46-10.275.769-3.384 1.495-6.58 2.667-9.013.848-1.763 2.65-2.848 4.604-2.83a4.999 4.999 0 0 1 4.488 3.012c4.083 9.428 12.823 24.479 25.478 19.363a5 5 0 0 1 3.749 9.271c-2.962 1.198-5.909 1.785-8.8 1.785z" class="I"/></svg></g><g transform="matrix(1.194629 0 0 1.191374 792 450)"><svg width="233.043" height="176.267"><path d="M0 120.279h190.825l42.218 55.988V0H0z" class="G"/><g class="I"><circle cx="73.908" cy="61.288" r="10.78"/><circle cx="116.521" cy="61.288" r="10.78"/><circle cx="159.134" cy="61.288" r="10.78"/></g></svg></g></svg>