<svg xmlns="http://www.w3.org/2000/svg" width="3000" height="2142" xmlns:v="https://vecta.io/nano"><g transform="matrix(1.430105 0 0 1.429796 170 465.714286)"><svg width="1890.97" height="974.165"><clipPath id="A"><path d="M1710.951 682.22a339.793 339.793 0 0 1-9.515 13.984c-9.553 13.335-20.052 26.028-31.443 38.129-14.635 15.54-30.75 30.103-48.253 43.798-38.401 30.05-83.46 55.928-134.215 78.837-.062.021-.125.041-.187.082-23.585 10.648-48.398 20.647-74.343 30.137-150.607 55.05-382.548 88.688-596.612 84.445-156.693-3.098-303.819-26.501-402.461-76.653-32.014-16.278-61.156-35.642-87.37-57.492a414.348 414.348 0 0 1-9.378-7.987c-41.722-36.614-75.712-79.606-101.89-126.257-91.929-163.746-87.746-372.542 15.425-508.838C355.565 29.437 684-76.154 850.622 72.712c243.173 217.264 246.606 171.932 504.091 95.548 260.357-77.23 393.997 65.068 411.301 240.072 11.242 113.896-9.158 202.74-55.063 273.888z"/></clipPath><path d="M159.999 851.13l1.401 1.281a450.5 450.5 0 0 0 7.547 6.713 444.795 444.795 0 0 0 83.384 57.518c48.978 26.112 110.48 44.99 179.26 57.524-34.779-10.736-66.617-23.519-94.683-38.484a484.166 484.166 0 0 1-90.825-62.652 457.616 457.616 0 0 1-8.22-7.315 76.552 76.552 0 0 1-1.53-1.392C40.692 684.356 8.492 363.202 146.166 172.499c21.505-29.789 48.83-57.797 80.238-83.053-60.847 33.44-113.663 77.355-149.177 126.556-126.399 175.079-96.831 469.907 82.772 635.128zm1379.43-781.291c131.15 2.893 241.412 93.169 281.077 229.853 36.221 124.855 18.133 244.878-8.848 332.235a394.668 394.668 0 0 1-5.763 17.256 398.428 398.428 0 0 1-7.986 20.434c16.321-18.881 30.703-38.544 42.978-59.132 8.289-13.9 15.613-28.219 21.934-43.001a342.896 342.896 0 0 0 6.151-15.413c28.962-77.954 30.53-168.728-2.501-278.439-42.489-141.096-156.817-245.2-327.042-203.793zm171.522 610.944a339.793 339.793 0 0 1-9.515 13.984c-9.553 13.335-20.052 26.028-31.443 38.129-14.635 15.54-30.75 30.103-48.253 43.798-38.401 30.05-83.46 55.928-134.215 78.837-.062.021-.125.041-.187.082-23.585 10.648-48.398 20.647-74.343 30.137-150.607 55.05-382.548 88.688-596.612 84.445-156.693-3.098-303.819-26.501-402.461-76.653-32.014-16.278-61.156-35.642-87.37-57.492a414.348 414.348 0 0 1-9.378-7.987c-41.722-36.614-75.712-79.606-101.89-126.257-91.929-163.746-87.746-372.542 15.425-508.838C355.565 28 684-77.591 850.622 71.276c243.173 217.264 246.606 171.932 504.091 95.548 260.357-77.23 393.997 65.068 411.301 240.072 11.242 113.896-9.158 202.739-55.063 273.887z" fill="#fdd016"/><g clip-path="url(#A)"><path d="m1140.466 1052.312-1485.109-90.507c-38.902-2.371-48.794-13.992-22.514-25.884l553.32-250.388c21.85-9.887 69.264-16.815 106.242-15.533L1686.7 718.371c45.904 1.592 68.703 12.017 50.517 23.358l-466.118 290.668c-22.408 13.973-81.126 22.932-130.633 19.915z" fill="#5917be"/><path d="m-381.703 950.275 4.879 43.764.009-.001c.324 6.363 13.275 11.317 37.191 12.775l1485.108 90.507c49.507 3.017 108.225-5.942 130.632-19.915l466.118-290.668c4.547-2.835 6.532-5.614 6.234-8.211l-5.018-45.008c.297 2.597-1.688 5.375-6.234 8.21l-466.118 290.668c-22.407 13.973-81.125 22.932-130.632 19.915l-1485.109-90.507c-21.882-1.333-34.775-5.647-37.06-11.529z" fill="#330094"/></g></svg></g><g transform="matrix(1.425316 0 0 1.427484 524.285714 991.428571)"><svg width="688.569" height="604.46"><g fill="#8d949c"><path d="M274.762 580.62 60.785 377.096c-4.331-4.119 1.235-8.609 12.345-10.073l278.266-36.669c10.187-1.342 23.375.5 29.556 4.154l300.6 177.695c11.026 5.818 8.554 13.529-3.902 15.66l-362.01 61.763c-14.682 2.505-33.069-1.578-40.878-9.006z"/><path d="m59.31 374.225-.767 13.918c-.065 1.005.402 2.039 1.465 3.05l213.977 203.524c7.809 7.428 26.196 11.511 40.878 9.006l362.011-61.763c6.524-1.113 10.199-3.433 10.893-6.272l.736-16.312c.007 4.136-2.697 7.096-10.852 8.488L315.64 589.626c-14.682 2.505-33.069-1.578-40.878-9.006L60.785 377.096c-1-.951-1.473-1.923-1.471-2.872l-.004.001z"/></g><path d="M448.164 462.285c-4.089 0-8.473-1.168-11.188-3.095l-75.702-53.676c-2.427-1.721-3.487-4.269-2.839-6.817.431-1.691 1.979-4.626 7.512-5.283l80.085-9.501c3.527-.422 8.861.243 12.231 2.318l82.143 50.587c4.241 2.613 4.058 5.994 3.781 7.326-.285 1.381-1.538 4.677-6.984 5.466l-86.295 12.485a19.21 19.21 0 0 1-2.744.19zm-73.863-59.792 68.46 48.54.002.001c1.007.715 4.268 1.52 6.713 1.165l78.412-11.345-74.869-46.107c-.872-.538-3.698-1.149-5.811-.904l-72.907 8.65z" fill="#656c72"/><path d="M283.426 562.775 93.919 385.177c-3.581-3.356-.897-6.781 5.951-7.684l159.502-21.019c6.642-.875 15.669.955 20.217 4.118L519 527.144c7.678 5.341 7.049 10.785-1.518 12.09L310.718 570.74c-8.921 1.36-21.183-2.24-27.292-7.965z" fill="#111"/><path d="M269.463 593.023 46.823 381.169c-4.54-4.32-8.141-17.435-8.097-29.395L0 21.741C.05 8.096.531-2.318 8.907.447l246.274 96.748c9.153 3.596 15.875 21.777 14.857 40.427l15.665 441.308c-.849 15.553-8.176 21.766-16.24 14.093z" fill="#8d949c"/><path d="M305.642 595.56c-9.598 0-17.318-2.789-25.075-8.784a4.999 4.999 0 0 1-.899-7.014 4.997 4.997 0 0 1 7.014-.898c7.137 5.515 14.026 8.237 28.118 5.833l362.01-61.763 1.682 9.857-362.01 61.763c-3.897.666-7.483 1.006-10.84 1.006z" fill="#656c72"/></svg></g><g transform="matrix(1.426664 0 0 1.425128 1221.428571 252.857143)"><svg width="859.147" height="1071.583"><g fill="#41b30a"><path d="M258.574 854.091c5.532-12.269 9.114-25.455 11.055-38.947 12.644-87.864-17.65-410.546 44.862-436.019 72.778-29.657 130.973-29.803 228.979-38.04 4.048-.34 8.109-.478 12.169-.41 38.002.639 241.617 25.18 270.294 86.481 25.868 55.298-122.876 333.08-107.581 410.17S462.953 1065.53 366.121 978.767s-68.664-75.995-94.732-94.644c-17.735-12.685-18.411-17.62-12.815-30.032z"/><path d="M314.491 379.125s-56.057 18.031-74.915 91.425-30.281 188.242-30.281 188.242l-73.988 141.665s19.438 95.33 119.739 71.777c96.232-22.597 59.445-493.109 59.445-493.109zm343.54 166.312l-9.318 140.452c0 16.821-15.529 40.369-15.529 40.369s-49.538 33.66-55.749 59.731 9.938 66.471 9.938 66.471 38.754 38.295 33.949 76.59-28.595 101.829-28.595 101.829 81.906-24.788 124.859-53.112c44.676-29.46 146.517-89.686 141.373-236.397s1.61-113.707-3.511-214.92c-4.674-92.382-17.525-99.073-51.816-124.144s-141.639-28.66-145.601 143.131z"/></g><path d="M492.068 437.931c-21.795.001-38.948-6.914-50.991-20.555-23.178-26.253-18.228-67.668-18.006-69.419a7.495 7.495 0 0 1 8.385-6.496 7.5 7.5 0 0 1 6.497 8.375c-.057.468-4.254 36.581 14.412 57.661 9.098 10.274 22.515 15.502 39.872 15.434 41.294-.08 71.368-17.605 85.619-28.045 22.909-16.782 33.514-35.308 33.859-46.222.131-4.141 3.577-7.416 7.733-7.259a7.499 7.499 0 0 1 7.259 7.733c-1.104 34.827-59.332 88.646-134.441 88.792l-.198.001zM265.041 879.736a7.501 7.501 0 0 1-7.439-8.534c.103-.737 10.251-74.735 10.707-163.259.408-79.315 17.473-184.685 17.645-185.739a7.5 7.5 0 0 1 14.804 2.418c-.171 1.044-17.047 105.274-17.449 183.399-.461 89.569-10.746 164.501-10.85 165.247a7.502 7.502 0 0 1-7.418 6.468z" fill="#2a7700"/><g fill="#f2b9a9"><path d="m305.259 898.805 185.36-50.014c70.422-15.154 109.72 182.244 29.751 181.18l-231.678.896c-53.217 1.422-40.034-122.365 16.567-132.062z"/><path d="M305.259 898.805c-35.16-11.002-84.991-62.057-105.37-72.026s-37.584 116.554-6.146 149.773 67.44 54.422 94.95 54.316 16.566-132.063 16.566-132.063z"/><path d="M199.889 826.779c-28.742-17.796-69.837-35.921-90.191-35.603s-83.104 21.673-97.63 27.099c-22.371 8.356-12.009 46.063 17.665 38.771 34.508-8.48 78.65-17.717 78.65-17.717l76.062 32.906z"/><path d="M192.523 868.036c-14.962-7.378-80.736-16.217-99.029-10.732s-70.453 34.858-81.133 41.423c-24.191 14.87-7.039 53.319 23.492 38.715l66.119-32.673 88.705 9.527z"/><path d="M196.739 905.736c-15.401-6.381-85.284-11.553-93.948-9.515s-44.759 21.604-59.967 31.035c-24.867 15.421-3.933 51.26 21.334 39.395s49.54-21.15 49.54-21.15l75.614 3.017z"/><path d="M195.377 939.868c-9.396-4.282-55.468-7.173-63.107-6.581S84.7 957.08 77.941 964.256c-21.723 23.064 6.292 47.143 28.167 32.284 20.722-14.076 37.717-20.503 37.717-20.503l56.163 6.885z"/></g><path d="M36.026 938.059a5 5 0 0 1-2.493-9.338c2.251-1.291 55.246-31.674 67.205-37.059 16.607-7.477 96.262 9.015 97.056 9.186a5 5 0 0 1-2.109 9.775c-30.334-6.544-82.031-13.802-90.841-9.844-11.516 5.187-65.787 36.302-66.334 36.615a4.971 4.971 0 0 1-2.484.665zm57.748 19.836a4.998 4.998 0 0 1-3.103-8.922c2.198-1.737 21.785-17.04 32.28-19.347 16.11-3.537 58.381 2.641 73.309 5.321a4.999 4.999 0 0 1 4.037 5.805 4.993 4.993 0 0 1-5.805 4.037c-21.469-3.854-57.192-8.077-69.396-5.396-6.229 1.368-20.619 11.414-28.227 17.425a4.965 4.965 0 0 1-3.095 1.077z" fill="#de8f74"/><path d="M650.119 540.333a7.51 7.51 0 0 0-10.57-.9c-2.45 2.06-2.59 3.56-3.3 10.8l-3.35 39.56c-1.24 15.6-1.44 34.61-1.64 54.73-.36 34.97-.76 74.6-7.56 86.93l-1.56 2.9v.01c-3.13 5.93-5.33 10.99-6.86 15.22-1.1 3.01-1.86 5.6-2.39 7.79-1.06 4.37-1.2 7.15-1.17 8.5a9.31 9.31 0 0 0 .02.62l14.96-1.06a1.97 1.97 0 0 0 .01.22c0-.02 0-.86.3-2.54.29-1.61.86-4.02 1.97-7.24.77-2.26 1.82-4.93 3.23-8.02 1.23-2.72 2.76-5.77 4.62-9.15 3.97-7.21 6.2-19.18 7.49-33.94v-.01c1.5-17.26 1.72-38.35 1.94-60.08.2-19.86.39-38.61 1.59-53.69l3.86-44.24a7.5 7.5 0 0 0-1.59-6.41z" fill="#2a7700"/><g fill="#41b30a"><path d="M803.553 907.595c-52.771 72.927-16.406 80.08-205.409 123.284-37.014 8.461-83.317-.678-105.457 14.796s-87.082 55.146-107.267-11.369-29.099-137.279-16.037-167.235c21.946-50.327 67.89-41.377 109.386-37.257 0 0 99.433-79.329 155.149-73.666 88.402 8.987 214.736 89.12 169.635 151.447z"/><path d="M323.694 898.624c-10.227-12.663 32.53-40.785 45.689-31.552 24.663 17.304 53.206 130.466 40.687 155.159-9.635 19.004-62.717 13.864-62.717 13.864 15.861-33.619 5.96-102.852-23.659-137.471z"/></g><g fill="#2a7700"><path d="M385.413 1041.807a7.5 7.5 0 0 1-6.554-11.134c18.487-33.38 21.532-70.252 9.049-109.593-9.388-29.587-24.325-49.247-24.475-49.442a7.5 7.5 0 0 1 11.899-9.133c.677.882 16.698 21.97 26.874 54.038 13.585 42.813 10.049 84.792-10.226 121.398a7.499 7.499 0 0 1-6.567 3.866z"/><path d="M723.629 792.333c-.1-.14-.8-1.08-2.08-2.6-2.33-2.79-6.62-7.54-12.72-12.87l-.01-.01c-3.56-3.1-7.74-6.4-12.52-9.62-19.65-13.25-41.58-19.85-64.09-19.38-4.06.08-8.13.39-12.22.93-1.53.2-3.1.47-4.71.8-5.06 1.01-10.45 2.6-16.07 4.65h-.01c-43.61 15.82-100.45 58.57-114.82 69.69-26.05-8.93-62.14-14.03-93.43 7.64-12.94 8.96-20.96 19.74-25.05 26.34-2.95-.39-6.38-.25-10.26.4-6.6 1.11-13.81 3.62-20.29 7.05-14.62 7.74-22.14 18.33-20.65 29.06.08.6.24 1.18.46 1.72a7.502 7.502 0 0 0 8.01 4.67c.67-.09 1.31-.27 1.9-.53 3.04-1.29 4.97-4.5 4.49-7.93 0-.03-.01-.06-.01-.09-.32-2.74 2.1-6.28 6.64-9.74 10.07-7.67 24.08-10.57 28.09-9.71.13.03.26.06.37.1l2.08 1.87 5.21 4.69 3.14-6.82 1.13-2.46c.15-.33.79-1.68 1.97-3.67 7.53-12.75 37.21-52.23 104.96-27.11l3.96 1.47 3.3-2.62c.64-.51 47.2-37.22 89.53-59.09 11.2-5.79 22.11-10.54 31.79-13.29 3.6-1.04 7.03-1.79 10.25-2.22 1.69-.22 3.37-.4 5.04-.54 21.35-1.75 41.66 3.71 60.46 16.26 15.35 10.24 23.91 21.63 24.07 21.84a7.492 7.492 0 0 0 7.42 2.92c1.07-.19 2.12-.63 3.06-1.32a7.495 7.495 0 0 0 1.61-10.48z"/></g><ellipse cx="502.9" cy="315.818" fill="#111" rx="19.693" ry="11.83" transform="matrix(.9277 -.3732 .3732 .9277 -81.5298 210.5029)"/><path d="M492.683 1053.175a7.501 7.501 0 0 1-5.574-12.516c14.631-16.265 21.624-34.008 21.693-34.186a7.497 7.497 0 0 1 9.708-4.272 7.5 7.5 0 0 1 4.272 9.708c-.322.828-8.076 20.499-24.521 38.781a7.472 7.472 0 0 1-5.578 2.485z" fill="#2a7700"/><g fill="#f2b9a9"><path d="M560.619 204.973c.021 4.87-.14 9.55-.479 14.04v.01a119.42 119.42 0 0 1-.51 5.53c-.49 4.6-1.18 8.99-2.04 13.18 0 .05-.01.09-.03.14a122.33 122.33 0 0 1-3.98 14.89l-.3.86v.01c-.01.04-.02.08-.05.12-1.66 4.8-3.57 9.29-5.7 13.49-6.41 12.69-14.73 22.75-23.97 30.77-2.22 1.92-4.48 3.73-6.78 5.41-.18.15-.37.28-.56.41-1.14.84-2.28 1.64-3.44 2.41-9.38 6.3-19.23 10.92-28.67 14.37l-1.07.39a167.74 167.74 0 0 1-7.08 2.36c-4.36 1.35-13.43 3.24-24.68 4.58l-5.97.64c-33.12 3.13-79.59.64-84.3-30.62-2.94-19.49-4.62-43.88-5.54-68.78v-.04c0-.02 0-.04-.01-.07l-.5-16.7c-.01-.02-.01-.05-.01-.07l-.5-37.26-.01-10.67v-.76l.01-4.2v-.07l.06-10.29.14-15.61v-.01l.24-18.41.09-11.86c-.52-28.68 33.75-46.78 85.78-44.66 2.24.09 4.51.21 6.82.38 4.24.31 8.48.96 12.71 1.93 33.33 7.67 65.57 35.43 84.15 73.96a135.45 135.45 0 0 1 2.62 5.73 159.19 159.19 0 0 1 6.15 16.51c1.03 3.28 1.96 6.63 2.78 10.02l1.1 4.84.69 3.47.03.13a164.35 164.35 0 0 1 2.809 29.5z"/><path d="M588.932 340.581l-9.597-123.245c-3.219-41.341-36.898-72.434-75.225-69.45s-66.787 38.917-63.568 80.257l12.86 119.486c-2.204 26.779-.152 59.16 35.813 59.313 21.581.092 47.241-7.694 68.565-22.594 18.61-13.002 31.926-33.828 31.152-43.767z"/></g><path d="M428.317 144.154c-10.623 3.178-18.489-9.091-6.218-15.887 20.355-11.272 53.115 1.696 61.455 10.658s7.863 17.654-4.09 13.042-32.454-13.405-51.147-7.813z" fill="#111"/><path d="M550.912 184.693c13.369-24.487 49.916-30.717 56.315 0s-35.004 58.201-49.806 53.142c-19.014-6.499-15.166-37.285-6.509-53.142z" fill="#f2b9a9"/><path d="M380.696 145.643c-5.921 2.255-24.39.249-34.353 6.737-4.685 3.05-9.535-2.379-3.674-9.836 7.895-10.045 27.747-16.443 38.027-14.387 9.301 1.86 7.812 14.509 0 17.486z" fill="#111"/><path d="M467.793 261.53c7.768-6.708 10.312-.796 7.496 7.483-4.458 13.106-10.801 20.422-24.642 24.924-10.251 3.334-24.629 1.207-32.951-7.412-5.159-5.343-4.448-9.496 2.266-9.772 9.419-.388 17.532-1.257 24.551-3.658s17.264-6.37 23.28-11.565z" fill="#fff"/><g fill="#de8f74"><path d="M557.787 219.616a5.001 5.001 0 0 1-4.968-5.619c1.655-13.29 19.111-30.785 29.197-34.729a5 5 0 0 1 3.643 9.313c-2.836 1.109-8.343 4.998-13.731 10.916-5.241 5.757-8.675 11.639-9.185 15.736a5.003 5.003 0 0 1-4.956 4.383z"/><path d="M578.408 212.161a4.98 4.98 0 0 1-3.425-1.358l-10.884-10.238a4.999 4.999 0 1 1 6.851-7.283l10.884 10.238a4.999 4.999 0 0 1-3.426 8.641z"/></g><ellipse cx="452.734" cy="189.283" fill="#fff" rx="27.668" ry="24.957" transform="matrix(.066 -.9978 .9978 .066 233.9681 628.5302)"/><path d="M464.189 197.493c-.6 8.91-5.04 16.33-10.93 19.43-.77.03-1.56.02-2.35-.03-7.49-.5-13.97-4.6-18.15-10.71-1.1-3.26-1.61-6.97-1.35-10.86.8-12.18 8.79-21.57 17.85-20.97 9.05.6 15.73 10.96 14.93 23.14z" fill="#111"/><path d="M452.725 337.149a7.501 7.501 0 0 1-.749-14.963c17.505-1.778 37.645-4.856 55.125-18.967a7.5 7.5 0 1 1 9.422 11.672c-22.415 18.093-48.836 20.776-63.031 22.219a7.96 7.96 0 0 1-.767.039z" fill="#de8f74"/><path d="M386.379 189.663c-.47 7.04-3.44 13.25-7.88 17.62-3.89 3.83-8.92 6.26-14.37 6.58a17.97 17.97 0 0 1-1.03.03c-.09.01-.18.01-.27.01a20.55 20.55 0 0 1-1.35-.05 21.22 21.22 0 0 1-6.52-1.48c-.01-.02-.01-.05-.01-.07l-.5-37.26-.01-10.67c1.83-.85 3.76-1.45 5.77-1.77 1.52-.23 3.08-.31 4.67-.2 12.82.84 22.44 13.05 21.5 27.26z" fill="#fff"/><path d="M373.679 195.553c-.57 8.6-5.01 15.7-10.81 18.34-2.73-.03-5.4-.58-7.92-1.59l-.5-37.26c1.71-.72 3.52-1.05 5.39-.93 8.39.55 14.59 10.15 13.84 21.44z" fill="#111"/><path d="M418.689 228.503c-1.85-4.61-10.19-15.79-26.3-12.18-1.64.37-3.15.91-4.52 1.58-7.01 3.43-10.67 10.29-12.06 15.18-.18.61-.32 1.19-.43 1.73-.79 4.06 1.86 8 5.92 8.8.49.09.98.14 1.45.14 3.52 0 6.65-2.48 7.36-6.06.01-.06 1.31-5.78 5.56-6.73 6.23-1.4 8.63 2.29 9.14 3.24.01.02.01.03.02.04a7.51 7.51 0 0 0 9.69 4.02c3.84-1.54 5.71-5.91 4.17-9.76z" fill="#de8f74"/><g fill="#111"><path d="M339.974 136.839s15.406-36.252 53.513-43.952C481.532 75.095 502.054 8.317 435.444.481c-72.786-8.564-121.829 99.739-95.47 136.358z"/><path d="M606.9 183.248s-7.67-32.5-42.11-13.42c0 0-16.05 10.16-17.27 22.55-.56 5.72-.61 12.27-.86 17.52-.27 5.58-4.87 9.95-10.45 9.95-4.48 0-7.94-3.64-7.94-7.9 0-.59.06-1.18.2-1.78 4.68-20.69 13.85-67.79 1.83-73.33-15.46-7.12-87.03-33.55-89.35-72.62-2.29-38.6 16.3-54.32 33.28-59.26 0 0 38.87-7.61 77.32 4.76 11.77 3.78 23.51 9.44 34.07 17.77 10.56 8.31 19.95 19.28 27.05 33.71 37.39 76.02-5.77 122.05-5.77 122.05z"/></g><g fill="#fd6622"><path d="M479.159 4.187S484.368.86 501.301.983s26.054 3.291 26.054 3.291 70.749 22.045 70.749 126.233l-47.503 3.169c-.001.001-.001-114.8-71.442-129.489z"/><ellipse cx="568.968" cy="191.078" rx="65.037" ry="51.936" transform="matrix(.0701 -.9975 .9975 .0701 338.4824 745.2545)"/></g><g fill="#c63500"><path d="M576.735 262.433c-.178 0-.355-.006-.535-.019-14.679-1.035-27.792-9.565-36.925-24.021-8.673-13.728-12.744-31.332-11.464-49.572 1.683-23.959 12.128-44.879 27.94-55.961 12.375-8.674 27.225-10.884 42.951-6.396a7.5 7.5 0 0 1-4.118 14.424c-11.39-3.25-21.558-1.819-30.225 4.255-11.967 8.387-20.238 25.525-21.587 44.729-2.124 30.259 13.344 56.089 34.48 57.579a7.5 7.5 0 0 1 6.954 8.009 7.497 7.497 0 0 1-7.471 6.973z"/><ellipse cx="581.321" cy="193.893" rx="43.223" ry="29.113" transform="matrix(.0701 -.9975 .9975 .0701 347.1619 760.1949)"/><path d="M549.079 251.295l-2.755 28.26s-.233 7.597-11.672 13.159l-22.84 10.778 3.856 10.896 30.095-14.983s10.39-4.627 11.117-18.749l1.695-26.261z"/></g><ellipse cx="501.552" cy="314.388" fill="#111" rx="19.693" ry="11.83" transform="matrix(.9277 -.3732 .3732 .9277 -81.0933 209.8963)"/></svg></g><g transform="matrix(1.47934 0 0 1.468073 1227.142857 541.428571)"><svg width="297.43" height="94.39"><path d="M297.43 94.39H0V0h253.19v61.19z" fill="#e1e3e3"/><path d="M112.893 77.805a4.997 4.997 0 0 1-3.925-1.904L88.329 49.734a5 5 0 1 1 7.851-6.192l17.466 22.145 64.212-54.451a5 5 0 1 1 7.154 6.986c-6.819 6.983-66.398 56.336-68.931 58.434a4.996 4.996 0 0 1-3.188 1.149z" fill="#656c72"/></svg></g><g transform="matrix(1.410382 0 0 1.490636 1545.714286 1458.571429)"><svg width="146.87" height="52.71"><path d="M146.87 5.09c-2.93 3.7-5.08 7.02-6.53 9.49-8.98-1.94-22.6 2.64-30.61 6.88-13.63 7.22-20.68 16.88-19.34 26.51.07.5.21.97.41 1.41l-12.33 3.33c-4.23-1.32-8.68-3.23-13.26-5.57-4.85-2.48-9.86-5.46-14.92-8.76-7.5-4.89-15.13-10.48-22.6-16.25C17.96 14.63 8.51 6.85 0 0l23.13.8 1.27.05 10.21.35 2.19.08c.73.9 1.78 1.54 3.01 1.75a4.994 4.994 0 0 0 4.47-1.49l102.59 3.55z" fill="#5917be"/></svg></g><g transform="matrix(1.424524 0 0 1.426408 964.285714 844.285714)"><svg width="321.912" height="176.267"><path d="M321.912 120.279H42.218L0 176.267V0h321.912z" fill="#fff"/><path d="M106.982 92.012c-6.042 0-10.67-5.46-13.938-11.478-3.566 7.038-8.707 9.701-12.231 10.705-7.757 2.21-16.88-.838-24.397-7.731-6.404 5.408-14.422 8.448-23.114 8.448a5 5 0 0 1 0-10c6.296 0 12.013-2.13 16.621-6.004-8.624-12.729-12.632-33.135 1.413-53.352a5.002 5.002 0 0 1 7.505-.814c11.774 10.915 15.394 29.19 9.007 45.476a42.647 42.647 0 0 1-4.7 8.832c4.924 4.512 10.63 6.754 14.926 5.528 5.093-1.45 8.264-7.833 8.93-17.97a4.999 4.999 0 0 1 9.836-.902c2.658 10.473 8.082 19.144 10.214 19.255 4.224-.704 9.53-10.614 10.561-36.229a5 5 0 0 1 4.903-4.798c2.673-.029 4.873 1.973 5.078 4.612 2.044 26.315 8.826 34.645 11.065 34.701h.009c.844 0 4.133-2.861 5.324-12.109a4.998 4.998 0 0 1 9.085-2.186c6.6 9.643 12.581 14.889 18.282 16.04a5.001 5.001 0 0 1-1.979 9.803c-7.34-1.482-13.399-6.466-18.165-11.863-2.826 6.668-7.349 10.444-12.809 10.313-6.273-.158-11.424-5.374-15.1-14.901-3.191 9.873-8.076 15.394-14.62 16.482-.581.097-1.15.143-1.706.143zM56.159 33.959c-7.517 14.856-3.1 27.354.448 33.768a34.34 34.34 0 0 0 1.931-4.116c3.429-8.743 3.67-20.532-2.379-29.652zm225.526 59.398c-8.64 0-16.794-5.239-23.46-15.074-1.626 6.241-4.146 12.473-10.241 13.575-10.621 1.916-17.382-6.12-21.815-14.188l-.054.246c-1.39 6.323-3.484 15.88-17.423 13.977a5 5 0 0 1-4.277-5.631 5.006 5.006 0 0 1 5.631-4.277c4.792.655 4.878.267 6.303-6.215.892-4.06 2.003-9.111 5.517-13.667a5 5 0 0 1 8.542 1.053l.614 1.416c4.061 9.396 8.559 18.461 15.019 17.475 1.395-1.184 2.785-7.304 3.46-10.275.769-3.384 1.495-6.58 2.667-9.013.848-1.763 2.65-2.848 4.604-2.83a4.999 4.999 0 0 1 4.488 3.012c4.083 9.428 12.823 24.479 25.478 19.363a5 5 0 0 1 3.749 9.271c-2.962 1.198-5.909 1.785-8.8 1.785z" fill="#8d949c"/></svg></g></svg>