<svg xmlns="http://www.w3.org/2000/svg" width="3000" height="2150" xmlns:v="https://vecta.io/nano"><style><![CDATA[.B{fill:#111}.C{fill:#f2b9a9}.D{fill:#de8f74}.E{fill:#fff}.F{fill:#5ac2fd}.G{fill:none}.H{stroke-linecap:round}.I{stroke-linejoin:round}.J{stroke-width:15}.K{fill:#e82786}.L{fill:#2197cc}.M{fill:#5917be}.N{stroke:#a66036}.O{stroke:#330094}.P{fill:#41b30a}]]></style><g transform="matrix(.86024 0 0 .859568 1723.257815 1132.205334)"><svg width="1417.162" height="934.837"><path d="M1335.567 441.11c-.02 182.84-36.1 355.84-307.64 440.98-85.17 26.7-193.51 44.76-331.19 51.76-83.02 4.22-158.31-5.27-225.46-25.12-252.13-74.54-389.62-295.16-391.19-484.82C78.127 188.91 426.247 0 772.347 0s563.25 206.09 563.22 441.11zM42.358 428.818c.82 114.05 38.43 237.78 109.83 342.38C53.348 672.318.978 543.959.008 427.318c-.83-99.87 61.56-191.42 160.16-263.68-73.75 76.32-118.52 167.29-117.81 265.18zm1271.624 333.094c48.97-94.45 58.96-205.64 58.97-320.07.01-112.62-35.46-219.65-100.35-307.34 92.81 80.23 144.57 187.7 144.56 302.01-.01 120.08-15.58 235.91-103.18 325.4z" fill="#fdd016"/></svg></g><g transform="matrix(.864818 0 0 .863981 1023.802696 336.392314)"><svg width="1424.582" height="988.814"><path d="M458.473 927.376l16.9 7.46c145.81 62.22 306.77 76.54 432.91 11.61 20.76-8.82 40.97-18.94 60.59-30.24l7.28-4.24c9.41-5.59 18.68-11.46 27.8-17.59.02-.02.03-.03.05-.04a599.173 599.173 0 0 0 31.42-22.59c.01-.01.02-.02.03-.02 33.26-25.52 64.16-54.52 92.22-86.24 108.05-122.14 173.96-284.55 170.18-443.59-20.43-238.26-235.72-342.05-438.9-228.55l-6.88 3.79-1.11.61a805.725 805.725 0 0 1-28.33 14.69c-22.36 10.99-43.12 19.75-62.63 26.73-7.74 2.78-15.29 5.28-22.67 7.52a444.06 444.06 0 0 1-21.39 5.94c-20.85 5.26-40.38 8.56-59.19 10.65l-10.46 1.06c-11.71 1.06-23.17 1.69-34.53 2.08-35.14 1.22-69.33.15-106.91 2.29-45.82 2.6-96.7 9.97-160.51 32.09-178.74 61.95-285.97 195.78-236.03 356.54 29.46 86.42 90.6 167.71 169.04 234.82 53.69 45.96 115.48 85.27 180.77 115.07zm773.124-133.351c100.258-154.256 148.165-356.142 118.972-543.311C1323.411 123.153 1255.375 37.105 1171.434 0c114.991 9.632 214.101 93.023 246.222 237.319 31.149 196.322-44.847 412.426-186.059 556.706zm-1047.718 3.566C108.149 731.427 36.95 645.427 8.2 561.091c-28.86-92.906 23.161-170.266 82.761-236.5-31.115 64.836-53.53 144.86-34.58 226.651 22.34 87.885 74.998 171.656 127.498 246.35z" class="F"/></svg></g><g transform="matrix(.860862 0 0 .860728 1259.535417 215.0846)"><svg width="870.47" height="1147.48"><path d="M201.65 140.57c-2-35.92-7.49-95.68 57.56-124.5C316.64-9.37 360.94-.54 371.32 14.68c0 0 80.28-21.24 130.79 28.83s48.26 110.44 65 128.26c22.11 23.47 32.33 55.25 13.64 91.88 0 0-1.44-30.86-26.73-44.31-6.52 29.41-7.67 71.46 19.32 99.83 0 0-31.14-5.53-42.21-22.14 0 0-10 25.38 7.5 47.58 0 0-29.23 11.43-51.79-6.75s-280.5-110.71-285.19-197.29Z" fill="#fd6622"/><rect x="344.12" y="216.64" width="150.58" height="234.38" rx="75.29" transform="matrix(-.974605 .223931 -.223931 -.974605 902.93 565.23)" class="D"/><g class="M"><path d="M340.74 418.16c-33.07.73-112.48 8.43-138.81 12.57-23.93 3.77-5.1 118.68-7.57 146.81-12.39 141.16-28.15 437.32 0 521.48 107.76 52.55 315.56 85.86 501-27.7 51.18-35 14.76-443.18 25.7-486.94s16.3-201.06-27.34-204.17c-28-2-113.31 12.24-155.15 15.5Z"/><path d="M538.56 395.71c-8.11-15.44-20.49-61.67-28.79-64.49s-31.21 46.78-91.34 50.61c-42.65 2.71-73.94-6.59-85.83-13.27l8.14 49.6s18.82 11.29 87.33 7.74c79.24-4.11 110.49-30.19 110.49-30.19Zm-336.63 35.02c-38.3 7.41-131.85 27.43-150.21 106.95-23.79 103-18.92 143.3-33 179.25C-7.86 784.63-.65 901 7.22 957.74c43.55 45.13 90.25 95 187.14 141.28 22.84-30.51 34.82-111.47 32.63-168.75s10.26-229.47 9-312.9-34.06-186.64-34.06-186.64Z"/></g><g class="D"><path d="M461.55 219.11c13.31-37 72.87-32.49 63 17.06-6.48 32.6-28 52.44-48.69 46s-21.08-44.17-14.31-63.06Z"/><path d="M313.61 75.47c-51.46.25-128.86 37-119.67 117.79 7.76 68.15 37.16 147 64.51 177.63 27.8 31.16 54.73 48.2 93.93 41 61.45-11.36 125.89-56.18 122.15-167.94S410.17 75 313.61 75.47Z"/></g><g fill="#fd6622"><path d="M290.46 107.52c-12.44 5-53 18.4-71 31.24-18.82 13.39-26.61 26.51-24 54.55 4.23 46.35-2 72.85-44.6 79.51 15.65-19.17 15.57-42.69 4.87-71.18-9-24-17.21-104.76 46.83-151.25 48.34-35.1 110.59 10.69 110.59 10.69-8.65 16.85-24.28 32.92-22.69 46.44Z"/><path d="M313.09 61.08c15.88-12.49 79.36-14.27 106.31 0 28.64 15.16 30.52 52.53 47.41 73.6 11.8 14.72 38.44 42.35 71.87 33.18 0 0-19.78 43-76.18 35.16-44.76-6.21-50.39-48.63-80.86-59.77S301 125.1 290.46 107.52s22.63-46.44 22.63-46.44Z"/></g><path d="M261 213.28c12.61 5.72 24.48-20 6.13-28.73-13.83-6.6-55.76 1.45-70.85 16.53-13.06 13-2.52 24.51 4.6 18 8.12-7.43 37.97-15.86 60.12-5.8Zm66.24-6.98c-14.57 6.69-24.3-16-9.42-27.93s71.47-4.29 84.67 9.57c8.53 9 5.65 20.1-5.07 14.38-11.5-6.12-51.5-4.58-70.18 3.98Z" fill="#c63500"/><g class="G H I J"><path d="M291 309.25c-4.84-19.37 22.59-22.27 34.38-6.78m69.44 27.36c0 17.54-15.78 28-36.63 27.7m145.42-138.78c-16.42-1.36-27.44 20.84-22.87 40.58m16.14-17.86-14.87-5.1" class="N"/><path d="M219.45 41.72c38.22-9.81 73.8.51 93.64 19.36 0 0-30.11 24.8-22.63 46.44m22.63-46.44c18.31-7.95 69.29-20.68 106.31 0 29.74 16.61 31.54 53.85 47.41 73.6s42.94 42.75 71.87 33.18c0 0-10.59 22.13-32.25 29.92" stroke="#c63500"/><path d="M429 374.72c10.9-11.53 22.19-23.68 28.63-39" class="N"/></g><ellipse cx="248.41" cy="259.97" rx="25.76" ry="29.73" transform="matrix(.974605 -.223931 .223931 .974605 -51.92 62.25)" class="E"/><g clip-path="url(#clip-path)"><ellipse cx="241.65" cy="269.03" rx="17.21" ry="24.87" transform="matrix(.974605 -.223931 .223931 .974605 -54.12 60.97)" class="B"/></g><ellipse cx="361.42" cy="246.18" rx="27.71" ry="31.97" transform="matrix(.974605 -.223931 .223931 .974605 -45.96 87.21)" class="E"/><g clip-path="url(#clip-path-2)"><ellipse cx="354.68" cy="256.37" rx="17.68" ry="25.55" transform="matrix(.974605 -.223931 .223931 .974605 -48.41 85.96)" class="B"/></g><path d="M194.36 617.54c-6.38 126.08-29.21 383.14 0 481.48" class="G H I J O"/><path d="M693.71 380.21c42.76 2.86 100.44 19.93 119.1 108.78 12.18 59.81 37.66 99.69 14.4 203.81 7.79 53.78 39.91 85.87 42.79 119.38 3.85 45.56-15.14 79.06-15.14 79.06 12.24 43.89-6.56 157.44-137.27 168.88s-128-128.06-118.84-216.67 14.71-250 14.71-250Z" class="M"/><path d="M613.42 593.5l-4.37 101" class="G H I J O"/><path d="M732.71 797.63 554.38 561.75c-37.11-55.76-154.09 33.41-119.32 94.4L585.87 959.8c36.79 63.81 191.72-97.73 146.84-162.17Z" class="D"/><g class="M"><path d="M657 689.64c-7.49 69.67-106.8 132.96-151 118.84 8.2 40.15 19.41 83 43 112.49 49.76-8 163.19-87.57 162.88-167.6-16.88-22.3-38.09-40.86-54.88-63.73Z"/><path d="M711.83 753.37c19.3-1 34-1 40.88 22.26 0 0 29.36-7.77 41.44 40.58 0 0 109.46 208.38-76.6 243.91C588.67 1084.72 549 921 549 921Z"/></g><g class="D"><path d="M554.38 561.75c-27.49-45.19-106-144.87-125.23-156.2s-75.69 138.74-61.08 152.2 37.51 77 57.22 91.81c43.76 32.95 129.09-87.81 129.09-87.81Z"/><path d="M429.15 405.55c-20.24-11.17-98.39-27.66-112-26.45s-64.61 80.34-71.22 94.33 21.55 48.08 48.93 15 37.71-51.64 37.71-51.64l73.33 21Z"/><path d="M414.66 449.54c-21.17-18-74.74-40.91-85.92-30.22s-35.88 53.49-33.93 69.08 28.31 38.94 38.71 47.61c24.78 20.66 52.13-13.51 27-37.27l-17-15.6 11.09-15.48 37 24.61Z"/><path d="M400.25 484.82c-14.43-12.22-56-30.54-67.69-25.09s-35.42 58.16-30.56 68.41 27.18 22.5 37.75 29.59c22.91 15.34 46-16.82 20.49-36.12-9.8-7.42-15.16-10.25-15.16-10.25l3.18-7.5L378.93 523Z"/><path d="M388.8 519.72c-9.69-6.46-49.36-22.83-65.23-12.75s-13.32 61.82-10.44 69.42 27.54 13.63 41.35 17.89c24.43 7.54 33.14-28.67 7.33-38.13-9-3.31-14.15-3.63-14.15-3.63l20.41 5.23Z"/></g><g class="G"><path d="M414.66 449.54s-64.34-42.26-85.92-30.22-35.8 61-35.8 61m107.31 4.5c-7.4-5.35-50.1-33.54-67.69-25.09-14 6.76-26.93 42.69-26.93 42.69m83.17 17.3s-45.34-25.17-65.23-12.72c-8 5-12.06 33-12.06 33m36.15 12.52l20.41 5.23m40.79-160.05c-13-4.47-79.09-21.31-91.76-18.6s-27.91 28.15-27.91 28.15" class="H I J N"/><g class="O"><path d="m657 689.64 54.79 63.73s34.2-5.43 40.88 22.26c0 0 32.08-2.43 41.44 40.58m60.71 75.03c-12.07 22.89-17.93 32.7-28.73 43.49" class="H I J"/><path d="M506 808.48S528.47 894 549 921c35.79 4.65 157.86-71.89 162.88-167.6M549 921c17.5 83.44 92.89 152.63 156.85 140.9" class="H I J"/></g></g></svg></g><g transform="matrix(-.859845 0 0 .860246 1195.870376 534.270146)"><svg width="389.223" height="362.039"><g fill="#2471ed"><ellipse cx="194.611" cy="157.749" rx="196.455" ry="155.363" transform="matrix(.974284 -.225325 .225325 .974284 -30.54 47.908)"/><path d="M291.864 285.496c.758 18.578 3.821 52.545 19.349 76.542 0 0-78.565-20.918-96.881-49.885s77.532-26.657 77.532-26.657z"/></g></svg></g><g transform="matrix(.859735 0 0 .85973 84.313163 872.383137)"><svg width="1373.963" height="948.671"><g fill="#5917c1"><ellipse cx="688.919" cy="474.335" rx="434.898" ry="626.668" transform="matrix(.419405 -.907799 .907799 .419405 -30.619 900.795)"/><path d="M83.336 194.552c13.799-29.868 31.761-56.926 53.282-81.087C73.314 152.314 28.639 204.399 9.768 268.04c-35.775 120.646 28.823 257.028 159.104 372.9C58.253 496.726 20.071 331.489 83.336 194.552zm1105.607 88.24c125.866 149.837 172.504 326.427 105.56 471.326a326.855 326.855 0 0 1-29.901 51.705c48.889-36.358 83.559-82.085 99.593-136.158 37.224-125.531-34.217-268.1-175.251-386.874z"/></g></svg></g><g transform="matrix(.86239 0 0 .862337 351.878406 805.276742)"><svg width="1031.54" height="1302.973"><clipPath id="A"><ellipse cx="618.566" cy="182.93" rx="24.149" ry="27.535" transform="matrix(.981003 -.193995 .193995 .981003 -23.737 123.478)"/></clipPath><clipPath id="B"><ellipse cx="525.202" cy="203.432" rx="27.108" ry="30.098" transform="matrix(.981003 -.193995 .193995 .981003 -29.488 105.755)"/></clipPath><path d="M438.612 7.919C341.879 38.022 327.606 113.805 306.76 202.086c-30.373 128.63-182.24 98.855-249.631 205.162s-84.476 280.004 0 373.023 415.61 22.705 453.912-73.086c55.79-139.528-54.313-239.19-4.007-339.802 32.359-64.718 9.311-383.654-68.422-359.464z" class="K"/><path d="M544.642 406.831c27.934 14.653 189.548 330.836 214.74 385.618s81.68 204.282 2.067 212.896c-68.549 7.417-157.111 7.266-207.759-119.87-60.297-151.358-110.011-223.04-129.401-296.651-28.547-108.376 54.022-216.788 120.353-181.994z" class="F"/><path d="M883.08 469.698c-5.164-18.134-183.584-26.952-188.992-12.199-5.161 14.079 199.839 50.293 188.992 12.199z" class="B"/><path d="m719.354 383.683-19.422 238.078c-13.383 124.261 175.603 111.341 162.777-13.729-.34-3.318-17.947-218.633-17.947-218.633-3.546-44.157-122.001-45.55-125.408-5.715z" class="C"/><g class="F"><path d="M651.873 994.739c72.43 16.598 98.107 18.496 138.391.202s93.183-69.32 97.454-126.384c0 0 33.345-34.781 29.066-69.663s-46.969-260.7-46.969-260.7-153.301-25.242-163.372-9.797c-27.454 42.103-28.888 65.439-25.584 114.346s-11.34 47.554-11.802 71.746c0 0-36.241 55.82-21.237 99.739-37.685 64.086-58.809 166.107 4.054 180.512z"/><path d="M694.034 539.246c-3.737-26.818-10.078-55.222.054-81.748 11.936 17.33 184.331 37.796 188.992 12.199 8.493 30.191 4.231 56.227.695 81.738 0 0-28.117 16.829-79.097 14.824-58.336-2.294-110.643-27.013-110.643-27.013z"/></g><g class="C"><path d="M719.354 383.683c1.635-24.713 15.448-55.804 63.686-66.742s65.943-31.65 65.943-31.65 117.894 37.968 104.288 54.698c-22.502 27.669-95.757 54.524-106.441 74.692-15.817 29.86-128.652-13.226-127.477-30.999z"/><path d="M953.271 339.99c20.514-26.808 42.612-64.029 51.387-87.236s19.795-70.917 25.129-87.831c9.86-31.264-24.505-49.24-37.525-10.599-14.249 42.291-22.707 80.239-22.707 80.239l-48.401 82.005z"/><path d="M934.295 324.179c13.244-18.274 41.208-67.505 46.137-83.053s-17.587-92.537-21.365-107.311c-7.286-28.485-43.373-23.983-35.431 10.095l19.584 86.55-41.919 77.25 32.994 16.468z"/><path d="M912.587 315.5c11.653-16.749 40.578-56.949 42.906-78.02s-42.591-71.029-51.186-81.212c-14.945-17.705-43.35 9.498-24.758 31.425s36.317 45.957 36.317 45.957l-36.146 62.797z"/><path d="M887.257 304.473c11.074-11.762 35.433-43.14 36.045-56.332.674-14.527-23.166-40.858-29.135-49.797-15.732-23.559-45.657 4.625-29.374 27.177 11.419 15.814 16.66 25.396 16.66 25.396l-32.47 34.375 38.274 19.182z"/></g><path d="M934.288 331.68a7.502 7.502 0 0 1-6.159-11.773c16.467-23.764 37.642-61.852 45.315-81.509 2.811-7.2-1.187-24.002-3.562-31.011a7.5 7.5 0 0 1 4.695-9.511 7.504 7.504 0 0 1 9.511 4.695c.925 2.729 8.876 27.07 3.328 41.281-8.015 20.532-29.958 60.063-46.958 84.598a7.493 7.493 0 0 1-6.172 3.229zm-21.707-8.679a7.501 7.501 0 0 1-6.17-11.755l5.313-7.453c11.297-15.653 34.804-48.226 36.294-66.909 1.045-13.099-13.723-32.557-19.5-38.949-2.776-3.071-2.541-7.813.528-10.591a7.5 7.5 0 0 1 10.587.52c2.572 2.836 25.081 28.345 23.338 50.213-1.684 21.1-21.057 49.516-39.083 74.495l-5.123 7.183a7.492 7.492 0 0 1-6.184 3.247zm-25.327-11.028a7.5 7.5 0 0 1-5.646-12.434c28.115-32.191 33.529-46.61 34.254-52.34.027-.217.54-5.512-10.953-22.529-7.114-10.535-14.683-19.491-16.319-21.313-6.506-7.239-10.205-8.263-10.241-8.272.458.118.704.092.703.091l.996-14.967c2.528.168 9.51 1.783 19.698 13.121.334.371 33.29 37.622 30.997 55.75-1.691 13.378-14.068 33.111-37.838 60.325a7.48 7.48 0 0 1-5.651 2.566z" class="D"/><g class="L"><path d="M647.813 821.73a7.503 7.503 0 0 1-7.279-5.72c-11.95-48.854 14.388-93.573 20.991-103.756.082-8.893 2.411-15.493 4.865-22.448 3.626-10.277 7.735-21.927 6.972-46.833a7.5 7.5 0 1 1 14.992-.461c.851 27.712-3.956 41.337-7.818 52.284-2.473 7.009-4.26 12.072-3.984 19.412a7.494 7.494 0 0 1-1.37 4.608c-.313.446-31.748 45.917-20.077 93.629a7.5 7.5 0 0 1-7.291 9.284zM815.2 574.136a153.22 153.22 0 0 1-11.067-.396c-17.337-1.261-43.048-5.83-68.777-12.224-42.484-10.558-46.031-15.832-47.545-18.085a7.502 7.502 0 0 1 11.912-9.074c7.663 5.418 68.543 21.736 105.498 24.422 34.854 2.542 64.901-9.354 65.202-9.474a7.502 7.502 0 0 1 9.755 4.163 7.499 7.499 0 0 1-4.163 9.755c-1.221.491-27.582 10.913-60.814 10.913zm-114.947-39.082l.005.008zm147.096 383.194a7.5 7.5 0 0 1-4.948-13.14c.228-.2 22.945-20.195 39.415-41.182a7.5 7.5 0 0 1 11.801 9.259c-17.353 22.111-40.358 42.352-41.329 43.202a7.474 7.474 0 0 1-4.939 1.859z"/><path d="M689.301 762.507a7.478 7.478 0 0 1-5.785-2.724c-2.118-2.565-20.731-25.62-21.944-44.822a7.501 7.501 0 0 1 7.013-7.958c4.135-.252 7.696 2.879 7.958 7.013.769 12.178 13.646 30.275 18.543 36.221a7.5 7.5 0 0 1-5.785 12.271z"/></g><rect height="229.577" rx="66.108" transform="matrix(.91292 .408139 -.408139 .91292 171.929 -144.372)" width="132.215" x="358.182" y="215.927" class="C"/><path d="M504.299 1029.34c33.273-1.384 56.597-7.738 61.952-20.542 9.983-23.874 10.175-87.035 21.947-147.757 14.903-76.87 35.011-135.557 20.042-186.79-18.254-62.477-37.977-49.26-66.578-152.316-9.322-33.588-25.114-125.395-49.703-130.192L304.012 366.16c-70.302-10.596-97.635 12.641-128.145 63.063-34.83 57.562-84.677 372.644-49.713 480.776a906.614 906.614 0 0 0 79.01 41.309c100.246 46.314 202.748 71.831 299.134 78.032z" class="B"/><path d="M304.012 358.923c28.151 5.643 174.055 24.285 184.537 26.418s12.665 142.239-17.704 145.447c-46.556 4.918-166.833-171.865-166.833-171.865z" class="C"/><path d="M595.173 862.545c14.378-78.695 35.846-139.13 20.877-190.363-18.254-62.477-45.787-47.191-74.388-150.247-9.322-33.588 21.66-98.409 2.981-115.104-24.044-21.49-70.465-25.731-70.465-25.731 6.748 43.892 11.602 95.388 21.414 149.788 14.5 80.388 51.531 128.093 51.721 161 .342 59.555-20.042 141.094-26.455 183.583l-25.122 153.265a722.775 722.775 0 0 0 55.828 2.098c6.205-1.234 11.738-3.212 15.791-6.252 19.24-14.43 20.431-121.604 27.819-162.037zm-178.146-417.64l7.263-37.341-80.22-59.389-15.473 20.916S220.191 343.053 184.702 381.1C121.414 448.949 40.101 728.829 33.548 847.241c50.755 39.516 108.319 74.822 171.617 104.066 67.151 31.024 135.314 52.711 201.975 65.517 15.901-38.738 40.428-238.306 35.473-314.641-5.332-82.153-25.586-257.279-25.586-257.279z" class="F"/><path d="M529.814 290.643c12.523 68.729 43.315 86.956 55.317 127.343 9.529 32.066 4.954 72.304-13.064 101.19 0 0-1.602-51.208-28.048-93.06-18.324-28.999-43.433-20.06-50.425-82.354-3.819-34.023 36.22-53.12 36.22-53.12z" class="K"/><path d="m348.938 320.453 75.351 87.111c-12.033 17.679-21.646 38.435-28.154 63.139-33.07-36.003-59.141-70.556-75.754-103.15l28.557-47.101z" class="F"/><path d="M396.137 478.204a7.498 7.498 0 0 1-5.424-2.319c-2.225-2.328-54.598-57.356-65.842-87.029a7.5 7.5 0 1 1 14.027-5.315c7.604 20.065 38.569 55.646 53.934 72.556 6.699-18.104 18.926-42.605 25.094-52.5a7.5 7.5 0 1 1 12.728 7.936c-7.292 11.698-24.118 46.446-27.186 60.745a7.5 7.5 0 0 1-7.332 5.927z" class="L"/><path d="M383.808 259.293c-17.229 38.537 32.701 95.722-9.651 126.048-34.106 24.422-65.052-27.042-84.819-30.396-19.607-3.327 37.311-128.18 94.469-95.652z" class="K"/><path d="M617.923 75.77c20.692 24.525 26.29 79.146 28.724 102.98s19.146 54.93 16.679 86.335c-2.731 34.759-38.374 76.767-84.002 84.271S468.76 328.27 424.565 281.54 367.028 90.433 449.116 55.963s138.04-16.661 168.808 19.807z" class="C"/><path d="M414.543 219.612c24.821-30.319 17.501-56.949 40.467-75.872s70.876-57.161 84.384-89.28c0 0 53.458-10.716 91.043 43.485 6.717-19.713-16.418-67.114-76.057-88.908C504.737-9.105 437.8 1.834 391.943 26.154c-53.499 28.372-82.995 119.527-24.192 195.792 19.125 24.804 46.792-2.334 46.792-2.334z" class="K"/><path d="M414.543 219.612c-25.056-42.958-88.369-24.37-65.152 23.77s49.579 42.927 66.323 37.561 9.31-43.362-1.172-61.331z" class="C"/><path d="M600.736 142.783c-12.716 11.63-28.06-5.09-12.178-17.904 14.118-11.39 34.356-13.762 48.845-8.486 10.346 3.768 11.247 14.349 3.989 14.228-11.133-.186-30.457 2.834-40.656 12.161zm-60.996 13.07c16.614 5.601 23.223-17.258 3.26-23.025-16.718-4.83-49.762 2.578-62.945 14.622-11.588 10.587-7.037 19.774 3.094 14.626 15.739-7.999 39.858-11.863 56.591-6.222z" fill="#b5016d"/><g class="D"><path d="M583.148 250.74a7.5 7.5 0 0 1-7.241-9.475c5.353-19.621 18.378-27.652 28.497-25.439 7.556 1.653 15.388 9.554 12.596 26.382a7.501 7.501 0 0 1-8.626 6.171 7.499 7.499 0 0 1-6.171-8.626c1.07-6.457-.505-9.165-1.005-9.274-1.347-.296-7.519 2.632-10.82 14.733a7.503 7.503 0 0 1-7.23 5.528zm-177.773 10.938a7.503 7.503 0 0 1-7.246-5.586c-4.823-18.252-20.396-27.842-29.433-26.707-4.094.523-7.864-2.385-8.386-6.494s2.386-7.864 6.495-8.386c16.746-2.13 39.161 12.534 45.825 37.754a7.499 7.499 0 0 1-7.256 9.418z"/><path d="M383.743 255.358a7.501 7.501 0 0 1-6.327-11.518l9.51-14.994a7.501 7.501 0 0 1 12.668 8.035l-9.51 14.994a7.498 7.498 0 0 1-6.341 3.484z"/></g><ellipse cx="618.566" cy="182.93" rx="24.149" ry="27.535" transform="matrix(.981003 -.193995 .193995 .981003 -23.737 123.478)" class="E"/><g clip-path="url(#A)"><ellipse cx="625.306" cy="178.498" rx="14.912" ry="21.853" transform="matrix(.981003 -.193995 .193995 .981003 -22.749 124.702)" class="B"/></g><ellipse cx="525.202" cy="203.432" rx="27.108" ry="30.098" transform="matrix(.981003 -.193995 .193995 .981003 -29.488 105.755)" class="E"/><g clip-path="url(#B)"><ellipse cx="534.21" cy="199.414" rx="17.063" ry="23.315" transform="matrix(.981003 -.193995 .193995 .981003 -28.537 107.426)" class="B"/></g><path d="M509.553 347.507a7.49 7.49 0 0 1-2.295-.361c-19.467-6.25-39.235-20.096-44.831-24.19a7.501 7.501 0 0 1 8.859-12.105c5.135 3.758 23.236 16.453 40.558 22.014a7.5 7.5 0 0 1-2.291 14.643zm-109.627-53.283c-5.114 0-10.696-1.116-16.515-4.226a7.5 7.5 0 0 1 7.072-13.229c6.292 3.365 12.396 3.289 21.058-.259a7.501 7.501 0 0 1 5.683 13.882c-4.581 1.875-10.529 3.831-17.299 3.831z" class="D"/><path d="M531.542 281.524c-7.92-6.032-10.031-.157-6.812 7.69 5.096 12.423 11.672 19.129 25.34 22.663 10.122 2.618 23.916-.297 31.46-9.136 4.677-5.48 3.741-9.458-2.775-9.326-9.141.185-17.048-.174-23.987-2.081s-17.092-5.139-23.226-9.811z" class="E"/><path d="M595.182 870.046a7.502 7.502 0 0 1-7.433-8.577c2.548-17.576 6.566-35.662 10.821-54.81 10.128-45.584 20.602-92.721 10.221-132.588-4.801-18.437-13.771-31.21-25.126-47.383-15.554-22.149-34.91-49.716-49.244-102.798a7.498 7.498 0 0 1 5.285-9.195c3.991-1.081 8.115 1.285 9.195 5.285 13.646 50.533 31.387 75.798 47.039 98.088 11.742 16.723 21.883 31.164 27.366 52.224 11.293 43.368.42 92.3-10.094 139.621-4.192 18.866-8.151 36.686-10.618 53.708a7.503 7.503 0 0 1-7.413 6.425z" class="L"/><path d="M723.6 1055.648c17.841-1.067 55.696-132.697 53.378-176.334s-56.256 23.922-67.25 88.511c-3.658 21.491-1.631 88.75 13.872 87.823z" class="B"/><path d="M139.492 457.599c4.832-103.496 151.079-161.214 201.023-48.262 42.989 97.221 76.236 344.037 79.361 401.203s-125.691 220.167-165.742 192.932c-50.038-34.026-74.783-93.61-84.791-207.696s-33.809-253.397-29.851-338.177z" class="F"/><path d="M641.815 830.074s157.311 45.971 208.569 64.778c51.779 18.998-9.295 150.261-85.804 142.292l-177.329-16.446c-79.369-6.435-26.682-218.517 54.563-190.624z" class="C"/><g class="F"><path d="M250.404 995.927c12.011 27.887 50.845 75.351 182.053 40.251 17.6 27.776 67.298 6.807 115.198.836 59.182-7.378 135.517 3.343 135.517 3.343-9.577-70.616 14.741-130.714 66.857-182.186 0 0-137.058-43.457-182.186-48.472s-47.369-15.966-72.252-21.729c-28.87-6.686-71.302 9.193-71.302 9.193-24.487-19.221-46.329-2.183-76.24 12.536-85.519 42.083-133.301 103.441-97.645 186.228z"/><path d="M725.619 838.684c14.097-3.197 85.166 18.72 73.761 36.265-27.437 2.078-50.468 18.31-67.168 60.354-16.278 40.982-20.469 110.192-8.611 120.345 0 0-73.441.011-83.755-5.424s-12.975-83.623 9.367-131.948c19.544-42.272 49.442-71.278 76.406-79.592z"/></g><g class="L"><path d="M710.15 853.041a7.495 7.495 0 0 1-2.857-.568c-12.459-5.14-111.153-29.951-140.805-35.397-16.723-3.071-29.495-7.707-41.848-12.19-9.999-3.63-19.443-7.058-30.7-9.6-23.614-5.329-66.854 8.853-67.289 8.996a7.499 7.499 0 0 1-5.65-.378c-21.332-10.409-32.18-5.077-50.146 3.757-5.872 2.887-12.528 6.158-20.143 9.05a7.501 7.501 0 0 1-5.324-14.024c6.954-2.641 13.001-5.613 18.85-8.488 18.364-9.026 34.308-16.866 60.58-5.069 10.747-3.302 48.387-13.905 72.426-8.475 12.181 2.75 22.519 6.502 32.516 10.13 11.773 4.273 23.948 8.692 39.439 11.537 29.263 5.376 128.989 30.169 143.815 36.284a7.501 7.501 0 0 1-2.864 14.436z"/><path d="M418.546 802.124a7.5 7.5 0 0 1-7.449-6.71c-11.909-112.256-28.521-210.611-50.787-300.685a7.501 7.501 0 0 1 14.562-3.6c22.43 90.744 39.158 189.759 51.141 302.702a7.498 7.498 0 0 1-7.467 8.292zm-164.419 208.849a7.472 7.472 0 0 1-3.868-1.079c-34.908-21.063-57.668-64.006-73.799-139.24-14.851-69.266-23.732-162.853-34.976-281.336l-7.519-78.408a7.501 7.501 0 0 1 6.735-8.194c4.125-.383 7.791 2.612 8.194 6.735l7.521 78.45c11.197 117.997 20.042 211.198 34.71 279.608 15.189 70.846 35.816 110.798 66.882 129.541a7.501 7.501 0 0 1-3.882 13.923zm381.97 32.349a7.5 7.5 0 0 1-7.417-6.458c-2.853-20.312-5.979-87.261 16.307-127.101 24.873-44.462 45.238-64.882 77.824-78.035 13.613-5.493 58.024 7.497 75.435 22.064 9.71 8.124 10.512 15.736 9.475 20.691a7.5 7.5 0 0 1-14.682-3.072c.192-.922-.884-2.984-3.724-5.516-15.119-13.475-54.34-22.428-60.933-20.242-29.293 11.825-47.045 29.854-70.304 71.433-18.767 33.546-17.903 93.777-14.545 117.691a7.5 7.5 0 0 1-7.437 8.544zm-203.647.358a7.502 7.502 0 0 1-1.657-14.816c14.497-3.297 50.627-13.096 66.157-19.214a7.5 7.5 0 1 1 5.499 13.957c-16.188 6.376-53.439 16.497-68.329 19.884a7.542 7.542 0 0 1-1.67.188z"/></g><g class="C"><path d="M850.384 894.851c39.233 14.51 109.643 155.373 126.255 198.985 12.612 33.111-137.392 83.724-155.738 49.137-20.287-38.247-44.752-62.012-50.752-88.845-8.955-40.05 54.626-168.748 80.235-159.276z"/><path d="M976.639 1093.836c13.214 37.943 26.081 115.141 20.232 131.516s-58.052 64.135-70.764 74.273c-16.051 12.801-46.347-13.708-27.653-35.667 17.895-21.019 46.984-51.416 46.984-51.416l-16.992-96.553z"/><path d="M945.439 1108.178c1.894 17.989 11.01 94.896 4.856 109.098s-62.457 70.56-69.588 78.582c-18.935 21.302-55.859-12.308-27.794-42.914 26.247-28.623 44.036-45.828 44.036-45.828l3.167-78.363z"/><path d="M913.636 1122.615c-1.213 15.132-1.213 74.305-10.207 88.98s-50.7 52.364-56.806 57.753c-19.786 17.462-51.825-16.028-25.089-36.451 18.264-13.952 36.492-32.468 36.492-32.468l6.586-63.156 49.024-14.659z"/><path d="M873.341 1134.664c-1.862 22.047-2.845 63.713-10.857 74.767s-54.538 19.339-66.296 22.128c-23.904 5.67-34.933-35.157-7.297-42.385s32.995-9.93 32.995-9.93l-.986-36.272 52.441-8.309z"/></g><path d="M834.089 1230.168a7.503 7.503 0 0 1-7.266-5.666 7.497 7.497 0 0 1 5.436-9.107c10.695-2.71 22.105-7.499 23.937-10.047 5.452-8.453 8.257-50.284 9.313-66.031l.352-5.176a7.5 7.5 0 1 1 14.963 1.047l-.349 5.132c-2.085 31.092-4.704 62.354-11.687 73.178-5.665 8.78-24.865 14.423-32.857 16.44a7.49 7.49 0 0 1-1.842.23zm8.812 49.312a7.502 7.502 0 0 1-5.167-12.938c17.571-16.692 52.688-50.634 59.824-59.613.626-.787 3.857-5.931 6.034-29.963 1.37-15.128 1.846-31.748 2.193-43.884l.358-10.817a7.477 7.477 0 0 1 7.843-7.142 7.501 7.501 0 0 1 7.142 7.843l-.349 10.546c-1.253 43.748-3.61 72.851-11.479 82.751-9.565 12.034-59.13 59.154-61.234 61.154a7.479 7.479 0 0 1-5.165 2.063zm49.654 11.426a7.501 7.501 0 0 1-5.26-12.846c19.471-19.153 51.903-53.356 56.047-63.597 2.305-5.696 3.342-27.752-4.805-100.473l-.557-5.007a7.502 7.502 0 0 1 6.651-8.263 7.503 7.503 0 0 1 8.263 6.651l.549 4.948c7.11 63.46 8.283 96.697 3.803 107.77-6.664 16.472-54.051 63.37-59.432 68.663a7.475 7.475 0 0 1-5.26 2.153z" class="D"/><path d="M486.221 354.161c20.813 13.222 58.042 89.736 49.16 118.569-5.033-16.884-25.536-30.912-39.789-31.959l-9.37 29.932-12.916-87.653 12.916-28.89z" class="F"/><path d="M535.376 480.231a7.5 7.5 0 0 1-7.292-5.768c-3.592-15.126-18.742-21.971-27.446-24.705l-7.259 23.187a7.5 7.5 0 0 1-14.314-4.48l9.37-29.933a7.496 7.496 0 0 1 8.313-5.17c1.002.156 16.435 2.703 29.39 12.679-2.325-13.99-7.398-32.086-18.278-50.37a7.5 7.5 0 0 1 12.89-7.67c25.446 42.762 22.253 83.655 22.104 85.375a7.501 7.501 0 0 1-7.478 6.856z" class="L"/><path d="M455.009 143.74c-14.836 38.238 14.555 106.379 24.158 148.428 10.229 44.789-6.394 80.057-12.929 102.08-6.978 23.518-1.284 62.403 12.762 76.842 0 0-48.296-41.589-45.904-87.748 1.242-23.957 14.578-36.569 9.797-79.948-2.649-24.04-10.146-48.65-28.352-83.781-14.995-28.936 8.501-101.391 40.467-75.872z" class="K"/></svg></g><g transform="matrix(.855635 0 0 .858392 967.8807 578.147405)"><svg width="147.808" height="217.492"><path d="M73.904 0C33.088 0 0 29.952 0 66.901c0 16.82 6.224 32.701 18.173 43.936 13.094 12.311 28.828 33.761 31.154 53.414-.362 15.472 49.516 15.472 49.154 0 2.326-19.654 18.06-41.103 31.154-53.414 11.949-11.235 18.173-27.116 18.173-43.936C147.808 29.952 114.72 0 73.904 0z" fill="#ffd215"/><path d="M98.481 164.252c-3.135.871-12.289 4.027-24.577 4.027s-21.442-3.157-24.577-4.027c0 0-.47 9.957-.47 33.96 0 12.588 12.524 18.982 25.048 19.28 12.524-.299 25.048-6.693 25.048-19.28l-.47-33.96z" class="B"/></svg></g><g transform="matrix(.855077 0 0 .850213 782.907944 940.349871)"><svg width="144.886" height="77.917"><defs><clipPath id="C"><ellipse cx="120.596" cy="27.419" rx="24.149" ry="27.535" transform="matrix(.981003 -.193995 .193995 .981003 -3.028 23.917)" stroke="none" class="G"/></clipPath><clipPath id="D"><ellipse cx="27.232" cy="47.922" rx="27.108" ry="30.098" transform="matrix(.981003 -.193995 .193995 .981003 -8.779 6.193)" stroke="none" class="G"/></clipPath></defs><ellipse cx="120.596" cy="27.419" rx="24.149" ry="27.535" transform="matrix(.981003 -.193995 .193995 .981003 -3.028 23.917)" class="E"/><g clip-path="url(#C)"><ellipse cx="125.77" cy="20.954" rx="14.912" ry="21.853" transform="matrix(.981003 -.193995 .193995 .981003 -1.676 24.798)" class="B"/></g><ellipse cx="27.232" cy="47.922" rx="27.108" ry="30.098" transform="matrix(.981003 -.193995 .193995 .981003 -8.779 6.193)" class="E"/><g clip-path="url(#D)"><ellipse cx="35.749" cy="40.474" rx="17.063" ry="23.315" transform="matrix(.981003 -.193995 .193995 .981003 -7.173 7.704)" class="B"/></g></svg></g><g transform="matrix(.859979 0 0 .859944 1388.586177 878.405506)"><svg width="1545.646" height="1229.564"><clipPath id="E"><path d="M827.955 167.626c-1.653 24.533-2.609 57.434-2.953 89.05-.5 45.941 57.631-.001 60.137-33.726 3.867-52.042-55.997-72.94-57.184-55.324z"/></clipPath><clipPath id="F"><ellipse cx="827.147" cy="215.36" rx="28.667" ry="30.404" transform="matrix(.999645 -.026631 .026631 .999645 -5.442 22.103)"/></clipPath><clipPath id="G"><ellipse cx="945.454" cy="206.131" rx="34.114" ry="36.181" transform="matrix(.999645 -.026631 .026631 .999645 -5.154 25.25)"/></clipPath><path d="M947.806 706.859s-26.95 424.105-128.73 469.722c-96.082 43.064-225.9-7.558-225.9-7.558l108.643-471.821s34.255-166.032 125.976-157.888 130.073 87.048 120.011 167.544z" class="C"/><path d="M797.899 466.98s-102.376 29.42-121.02 117.129c-21.487 101.08-59.345 247.533-59.345 247.533l200.432 33.491L797.9 466.979z" class="P"/><path d="M668.812 840.163s-50.819-18.453-51.279-8.521c-.794 17.134 45.306 34.84 45.306 34.84zm614.547 218.014s19.414-28.727 24.585-23.491-9.39 44.543-9.39 44.543l-15.194-21.052z" class="B"/><path d="M1419.236 1176.817c-85.17 26.7-193.51 44.76-331.19 51.76-83.02 4.22-158.31-5.27-225.46-25.12-2.34-2.94-3.82-6.12-4.38-9.52-15.42-94.49-100.29-697.33-76.87-718.68 19.32-17.61 175.01-44.75 214.02-49.4 0 0 227.57-28.15 337.98-.25 42.92 10.84 24.54 142.7 34.76 223.68 19.71 156.21 41.58 434.93 51.14 527.53z" class="P"/><g class="C"><rect height="309.296" rx="86.785" transform="matrix(.979575 -.201078 .201078 .979575 -54.243 209.119)" width="173.571" x="915.485" y="216.923"/><path d="M832.623 131.294c-8.55 23.907-9.488 201.659-5.502 225.459 5.679 33.908 122.368 41.464 204.457-10.238 46.918-29.551 58.971-149.733 20.763-215.668-47.429-81.847-195.536-67.171-219.718.448z"/></g><path d="M1053.731 231.16c-5.128 10.547-18.224 14.544-18.989-2.974s12.234-46.241-6.83-64.614c-20.693-19.942-35.979-66.075-58.86-72.142-66.768-17.703-129.328 16.85-136.43 39.863-12.967 7.543-46.188-50.652-16.949-85.247 0 0 6.718 26.39 26.545 27.878 0 0-8.56-42.434 13.324-73.926 0 0 4.691 17.561 16.086 23.626-1.346-12.855 22.351-15.887 40.495 8.725-1.786-11.48 10.238-29.156 27.832 2.203 0 0 32.05-8.286 50.044 23.57 0 0 64.316 18.738 81.734 46.729 0 0-6.222-23.201.695-24.93s35.331 117.962 22.816 146.69-41.515 4.546-41.515 4.546zm-207.989-69.408c15.144-2.356 14.039-26.293 1.056-24.038-8.161 1.418-35.101 9.447-42.808 21.581-4.998 7.869-5.925 17.593 5.428 13.22s21.801-8.504 36.325-10.763z" class="B"/><path d="M1048.603 241.708c12.363-33.906 52.823-46.756 65.054-10.118s-19.673 62.502-41.811 58.76-31.085-27.135-23.243-48.642z" class="C"/><g class="D"><path d="M1068.207 271.011a7.502 7.502 0 0 1-7.402-6.348c-2.729-17.543 5.971-31.591 26.596-42.945a7.5 7.5 0 0 1 7.235 13.141c-19.011 10.465-20.145 20.193-19.008 27.499a7.499 7.499 0 0 1-7.42 8.653z"/><path d="M1084.812 261.314a7.48 7.48 0 0 1-5.526-2.427l-10.187-11.093a7.5 7.5 0 1 1 11.049-10.146l10.187 11.093a7.5 7.5 0 0 1-5.522 12.573zm-184.824 64.667a7.5 7.5 0 0 1-.912-14.944c11.117-1.375 26.028-6.993 34.536-18.636a7.5 7.5 0 0 1 12.111 8.85c-14.261 19.514-37.9 23.817-44.806 24.672a7.518 7.518 0 0 1-.931.058z"/></g><path d="M915.356 150.995c-14.947 7.184-26.225-14.998-9.941-21.09 20.68-7.736 57.272-7.791 71.967 4.269s10.815 20.061-.947 16.911-41.054-9.715-61.079-.091z" class="B"/><path d="M914.407 393.672a7.502 7.502 0 0 1-.461-14.986c31.188-1.947 79.488-18.087 103.363-34.54a7.5 7.5 0 0 1 8.512 12.352c-26.151 18.021-76.955 35.037-110.939 37.159a7.56 7.56 0 0 1-.475.015z" class="D"/><g clip-path="url(#E)"><ellipse cx="827.147" cy="215.36" rx="28.667" ry="30.404" transform="matrix(.999645 -.026631 .026631 .999645 -5.442 22.103)" class="E"/><g clip-path="url(#F)"><ellipse cx="827.147" cy="215.36" rx="16.388" ry="26.766" transform="matrix(.999645 -.026631 .026631 .999645 -5.442 22.103)" class="B"/></g></g><ellipse cx="945.454" cy="206.131" rx="34.114" ry="36.181" transform="matrix(.999645 -.026631 .026631 .999645 -5.154 25.25)" class="E"/><g clip-path="url(#G)"><ellipse cx="928.122" cy="208.999" rx="19.618" ry="29.9" transform="matrix(.999645 -.026631 .026631 .999645 -5.236 24.789)" class="B"/></g><path d="M882.713 243.401c-19.155-18.907-36.312-1.695-19.25 22.184" class="C"/><path d="M863.47 273.085a7.489 7.489 0 0 1-6.109-3.14c-12.148-17.003-9.711-31.331-1.906-37.988 7.035-6 19.82-6.436 32.526 6.105a7.5 7.5 0 0 1 .069 10.606 7.498 7.498 0 0 1-10.606.069c-5.931-5.853-10.737-6.665-12.255-5.368-1.816 1.548-2.396 8.375 4.377 17.854a7.5 7.5 0 0 1-6.096 11.861z" class="D"/><path d="M913.415 439.296c-1.455 17.815 14.967 81.467 80.01 84.513 73.89 3.461 113.677-50.136 159.006-109.768l-52.331 2.516-168.54 19.496-18.145 3.244zm-486.297 581.649 299.936-38.126c50.703 1.931-50.114 203.153-103.59 195.861l-209.266-54.636c-40.025-13.201-34.308-91.251 12.919-103.099z" class="C"/><path d="M817.403 859.06a5 5 0 0 1-4.99-4.749l-7.635-151.515a4.998 4.998 0 0 1 4.741-5.245c2.756-.15 5.107 1.984 5.246 4.742l7.636 151.515a5 5 0 0 1-4.998 5.251z" fill="#2a7700"/><path d="M208.012 957.129v.016l.073.02 144.329 42.027 125.059 36.401a127.94 127.94 0 0 0 11.642 2.091l1.391.179c5.065.631 10.168.959 15.277.999l434.76 3.196 2.181-14.748a1.09 1.09 0 0 0 .032-.226l.028-.181-.03-.002-430.407-6.798c-4.1-.057-8.204-.282-12.295-.673a153.662 153.662 0 0 1-19.41-3.103c-1.322-.28-2.626-.605-3.93-.929l-266.011-76.411-2.69 18.144z" fill="#374047"/><path d="M210.703 938.985l269.941 77.34 1.628.47a107.688 107.688 0 0 0 17.926 2.948l6.402.302 434.913 8.182a1.195 1.195 0 0 0 1.244-1.144c.004-.061.009-.122-.002-.183-.04-.491-.342-.956-.958-1.093l-301.401-69.7a100.028 100.028 0 0 0-18.828-2.512l-152.129-5.414-258.738-9.196z" fill="#656c72"/><path d="m691.886 1006.131-182.131-47.452a54.568 54.568 0 0 0-12.591-1.751l-159.219-3.435c-.022 0-.027.03-.006.037l161.17 53.81a38.275 38.275 0 0 0 11.986 1.97l180.293.656c2.291.008 2.716-3.258.499-3.835z" fill="#374047"/><g fill="#656c72"><path d="m1.683 544.723 29.033 60.756L156.014 867.68l33.081 69.231a45.954 45.954 0 0 0 18.917 20.218l2.69-18.144 258.738 9.196-151.451-352.439a78.326 78.326 0 0 0-60.485-46.569l-232.43-34.38C8.303 512.31-4.782 529.05 1.683 544.722z"/><path d="M208.012 957.129a.11.11 0 0 0 .073.036 44.694 44.694 0 0 0 9.995 4.152l134.334 37.875 136.235 38.396c.15.042.315.069.466.095.481.096.935.145 1.391.179 7.992.464 14.135-7.768 10.812-15.503l-1.12-2.615-.144-.315-5.903-13.755-21.179-49.268-3.531-8.225-258.738-9.196-2.69 18.144z"/></g><g class="C"><path d="M250.645 1026.616c13.311 27.346 125.839 87.398 163.554 97.428 32.054 8.524 116.033-16.971 97.921-53.006s-101.432-52.991-101.432-52.991-183.543-39.708-160.043 8.568zm1244.63-318.174s68.174 330.381-27.535 383.06c-93.515 51.471-191.06 30.336-191.06 30.336l-25.188-395.987s-17.089-163.317 80.422-167.158 155.375 72.11 163.361 149.75z"/><path d="m901.807 926.267 388.038-21.179c49.721 2.892 50.755 221.623 1.034 218.731l-392.843-54.861c-39.771-7.657-42.839-132.488 3.771-142.692z"/><path d="M942.615 995.611c4.079-32.954-11.202-65.305-39.23-83.11-24.9-15.818-51.146-34.904-63.382-43.871-20.457-14.991-87.61 124.226-60.515 146.548 23.299 19.195 36.625 37.596 62.962 48.647 19.632 8.237 52.127 12.739 71.144 8.566 16.246-3.565 24.681-41.718 29.021-76.78z"/><path d="M840.003 868.631c-16.327-17.216-74.672-56.95-87.248-55.451s-74.877 35.424-85.473 42.067c-19.98 12.525 2.536 45.427 27.343 32.981a8588.919 8588.919 0 0 0 50.593-25.623l67.661 43.309 27.125-37.283z"/><path d="M827.774 910.479c-15.372-12.222-66.115-49.52-78.221-53.59s-89.444 25.622-102.208 30.473c-28.322 10.765-14.798 56.3 19.259 45.334l67.809-22.4 71.003 43.373 22.358-43.191z"/><path d="M822.917 941.443c-11.056-10.85-64.555-38.945-81.216-37.374s-71.241 17.566-87.976 22.543c-23.022 6.847-18.025 50.917 14.231 43.281l63.65-14.807 69.103 32.809z"/><path d="M811.462 982.408c-7.835-7.866-46.796-32.984-57.584-33.589s-50.042 16.574-62.199 22.347c-20.79 9.872-7.737 40.798 26.885 31.698 18.733-4.924 32.248-7.949 32.248-7.949l28.677 20.264 31.974-32.77z"/></g><path d="M801.42 981.963a7.461 7.461 0 0 1-4.176-1.276c-.104-.07-10.604-7.107-22.526-13.484-21.609-11.558-27.202-9.935-27.258-9.918a20804.178 20804.178 0 0 0-35.076 12.856l-5.174-14.079 35.115-12.871c5.33-1.946 14.625-2.485 39.354 10.725a308.28 308.28 0 0 1 23.933 14.322 7.5 7.5 0 0 1-4.192 13.725zm13.165-33.874a7.463 7.463 0 0 1-4.39-1.424c-25.242-18.262-58.084-36.929-67.109-35.226-17.319 3.251-76.846 19.316-77.445 19.478a7.498 7.498 0 0 1-9.196-5.284 7.5 7.5 0 0 1 5.284-9.196c2.47-.667 60.696-16.38 78.59-19.739 5.971-1.124 17.49-.483 48.352 17.938 16.096 9.607 29.746 19.463 30.319 19.878a7.5 7.5 0 0 1-4.404 13.576zm10.594-32.144c-1.502 0-3.02-.45-4.338-1.387-21.58-15.336-64.834-45.636-74.709-50.993-.981-.294-8.444-1.667-40.987 9.721-17.983 6.293-34.446 13.306-34.61 13.375a7.5 7.5 0 0 1-5.891-13.795c.718-.307 17.802-7.585 36.749-14.158 36.075-12.515 46.382-11.285 51.705-8.43 12.856 6.896 73.843 50.211 76.433 52.052a7.5 7.5 0 0 1-4.351 13.614zm24.175 157.953a7.467 7.467 0 0 1-3.508-.876c-3.389-1.797-33.372-17.809-42.736-26.415a7.5 7.5 0 0 1 10.151-11.044c6.734 6.189 30.88 19.573 39.615 24.208a7.5 7.5 0 0 1-3.522 14.127z" class="D"/><g class="C"><path d="M336.374 1043.213c-20.355 1.416-79.356-7.93-85.728-16.597s-21.235-69.123-23.213-79.982c-3.73-20.476 30.116-28.483 36.704-5.114a7484.226 7484.226 0 0 1 13.285 47.82l66.675 12.669-7.722 41.204z"/><path d="M372.791 1063.743c-16.314-4.262-67.998-19.914-76.889-26.154s-26.036-75.006-28.901-86.33c-6.356-25.126 32.766-39.428 41.818-10.24l17.62 58.408 66.04 26.477-19.688 37.84z"/><path d="M402.038 1059.182c-8.056 9.616-22.099 11.523-32.426 4.402-16.484-11.368-36.335-28.168-39.511-37.199-4.72-13.42-11.545-61.48-13.579-76.244-2.799-20.31 34.077-33.108 39.557-5.391a6985.381 6985.381 0 0 0 11.02 54.594l31.515 25.275c10.629 8.524 12.174 24.12 3.424 34.564z"/><path d="M431.187 1043.209c-4.91 11.253-18.626 15.614-29.107 9.219-11.862-7.238-24.456-16.169-26.991-20.877-4.348-8.077-4.737-44.786-4.498-56.325.409-19.734 29.708-21.366 34.869 8.725 2.793 16.282 5.227 27.829 5.227 27.829l16.43 9.164c9.913 4.679 8.453 12.216 4.069 22.263z"/></g><path d="M355.125 1075.381a7.474 7.474 0 0 1-5.311-2.205c-2.898-2.907-28.435-28.88-32.536-45.393-3.751-15.094-12.116-65.904-12.47-68.06a7.5 7.5 0 1 1 14.801-2.432c.086.522 8.62 52.366 12.226 66.876 2.341 9.423 18.787 28.566 28.604 38.42a7.5 7.5 0 0 1-5.314 12.794zm-27.932 3.158a7.47 7.47 0 0 1-5.067-1.973l-34.424-31.569a7.446 7.446 0 0 1-1.236-1.467c-8.889-13.805-24.203-79.614-25.92-87.072a7.499 7.499 0 0 1 5.626-8.991c4.027-.931 8.063 1.588 8.991 5.626 6.101 26.498 17.681 71.234 23.474 81.58l33.628 30.839a7.5 7.5 0 0 1-5.071 13.028zm184.93.002a7.502 7.502 0 0 1-6.942-4.657c-9.938-24.236-58.306-39.579-76.104-43.446-4.047-.879-6.617-4.872-5.739-8.918s4.873-6.614 8.914-5.742c2.927.633 71.845 15.929 86.808 52.415a7.501 7.501 0 0 1-6.937 10.348zm-106.884-.003a7.476 7.476 0 0 1-5.329-2.222c-2.594-2.62-25.528-26.054-31.801-42.023-6.438-16.393-5.11-35.681-5.051-36.494a7.5 7.5 0 0 1 14.96 1.088c-.012.166-1.115 16.763 4.053 29.922 4.359 11.1 22.049 30.438 28.497 36.952a7.5 7.5 0 0 1-5.329 12.776z" class="D"/><path d="M1100.099 416.556s-.597 91.243-101.2 94.513c-101.46 3.297-71.839-74.294-71.839-74.294l-30.775 5.824 1.423 91.966 115.531 53.362 125.589-58.752 24.827-115.461-63.555 2.842zm147.066 426.062s180.755 50.075 291.027-13.912c0 0 10.672-4.618 6.475-25.184s-91.517-353.196-211.332-377.919c-161.648-33.354-86.169 417.017-86.171 417.015z" class="P"/><path d="M1289.772 913.758c-.772 0-1.559-.12-2.333-.374-10.054-3.289-33.872-2.546-42.2-1.982a7.51 7.51 0 0 1-7.989-6.976 7.5 7.5 0 0 1 6.976-7.99c3.362-.228 33.272-2.087 47.878 2.691a7.5 7.5 0 0 1-2.331 14.63z" class="D"/><path d="M1254.267 845.991a5.002 5.002 0 0 1-4.951-4.343c-.129-.974-12.9-97.953-12.9-152.172a5 5 0 1 1 10 0c0 53.558 12.686 149.891 12.814 150.858a5 5 0 0 1-4.963 5.657z" fill="#2a7700"/></svg></g></svg>