<svg xmlns="http://www.w3.org/2000/svg" width="3000" height="1223" xmlns:v="https://vecta.io/nano"><style><![CDATA[.B{fill:#111}.C{fill:#a66036}.D{fill:#f0b7a7}.E{fill:#dc8d74}.F{fill:#773a12}.G{fill:#fd6622}.H{fill:#c63500}.I{fill:#5917be}.J{fill:#330094}.K{fill:#4f2000}]]></style><g transform="matrix(.729483 0 0 .729222 1483.588621 297.592998)"><svg width="2002.758" height="1156.274"><path d="M1318.593 1071.653c-12.11 6.23-24.47 12.35-37.1 18.34-197.13 93.61-384.37 75.14-557.2 23.85-86.37-25.63-169.15-59.45-247.76-91.58-230.7-94.27-558.02-310.93-389.95-663.48 235.44-493.83 1399.81-415.05 1635.16-139.95 153.66 179.63 80.04 604.48-403.15 852.82zm369.196-190.183c312.316-285.528 159.282-649.597 70.888-805.304 379.497 328.693 285.927 598.961-70.888 805.304zM.004 704.672c88.565 200.548 280.635 324.049 440.687 329.994C196.627 1083.681-1.064 941.438.004 704.672z" fill="#fdd016"/></svg></g><g transform="matrix(.72942 0 0 .730183 77.315828 128.37345)"><svg width="1806.936" height="1385.503"><path d="M1709.527 606.484C1819.583 290.597 1610.553 81.409 1506.613 0c341.664 104.111 365.541 332.158 202.915 606.484zM438.701 304.565C172.222 396.47 31.944 712.658 12.978 934.935c-64.784-372.8 118.544-669.18 425.723-630.37zM1682.08 695.812l-1.11 17.33a642.75 642.75 0 0 1-2.77 28.18 665.37 665.37 0 0 1-25.25 118.5l-1.9 6.02a663.47 663.47 0 0 1-29.28 75.25l-5.09 10.76-3.95 8.04-1.94 3.88c-4.09 8.04-8.34 16-12.75 23.86l-3.45 6.09-.69 1.2a655.52 655.52 0 0 1-66.49 94.75c-40.84 48.45-89.01 91.26-143.65 126.58l-4.16 2.64-3.55 2.21c-160.67 98.36-556.17 181.97-852.83 161.21l-5.71-.43c-681.7-53.03-479.33-1000.98 463.54-1262.6 547.31-151.87 675.18 192.73 699.59 487.11a670.13 670.13 0 0 1 1.44 89.42z" fill="#007a63"/></svg></g><g transform="matrix(.851247 0 0 .851929 318.016047 81.692195)"><svg width="1356.4" height="1242.3"><clipPath id="A"><path d="M846.8 175c-1.9 25.3-5.8 59-10 91.3-6.2 46.9-58.8-8.4-56.4-43.2 3.7-53.7 67.8-66.2 66.4-48.1z"/></clipPath><clipPath id="B"><ellipse cx="840.6" cy="223.8" rx="31.3" ry="29.5" transform="matrix(.1684 -.9857 .9857 .1684 478.43 1014.7407)"/></clipPath><clipPath id="C"><ellipse cx="721.3" cy="197.1" rx="37.3" ry="35.2" transform="matrix(.1684 -.9857 .9857 .1684 405.57 874.8966)"/></clipPath><g class="D"><path d="M1078.7 726c32.5-5.7 116.9-8.7 156.4-17.8 24.5-5.6 76.5 125.7 48.4 138-33.6 14.7-133.4 41.4-184.7 35.3-51.4-6.1-20.1-155.5-20.1-155.5z"/><path d="M1078 737.8c4.9-12.7 30.3-48 52.6-66.2 21.6-17.6 64.3-39 79.1-46.7 30.2-15.6 52.3 13.4 20.5 32.7l-55.7 34.3s37.1 65-36.8 103.5c-41 21.4-56.4-25-59.7-57.6zm195.3 70.3c13.2-2.9 44-11.1 52.7-14.1 15.3-5.1 35.9 23.8 10.4 36.1-13.9 6.7-36.7 11.3-53 16.2-24.2 7.2-10.1-38.2-10.1-38.2z"/><path d="M1338.2 830.4c-16.5 10.8-41.6 18.2-55.8 22.9-29.4 9.7-47.4-23.2-16.6-34.1 22.2-7.9 46.8-22.8 60.3-25.2 13.4-2.3 37.8 19.7 12.1 36.4z"/><path d="M1269.8 776.6c18.5-6.1 43.3-13.5 60.2-16.3s26.2 29.6 6.3 36.1-46.7 13.6-57.5 16.9-9-36.7-9-36.7z"/><path d="M1341.9 798.8c-12.9 9.6-53 21.7-75.6 27.8-28.2 7.6-44.1-29.1-13.2-37.6 28.6-7.8 62-29.4 76.9-28.7 15 .7 33.9 22.1 11.9 38.5z"/><path d="M1261.5 738.9c16.5-7.6 43.4-15.9 55.5-20.3 20.5-7.4 41.3 19.3 21.1 33.9-17.1 12.3-52 23.5-63.3 26.9-9.8 3-13.3-40.5-13.3-40.5z"/><path d="M1339.8 758.2c-15.9 13.1-51.9 31.9-62 37.7-23.2 13.4-59.1-12.9-37.5-28.2 18.4-13 60.9-40.7 76.7-49.1s48.4 18.5 22.8 39.6z"/><path d="M1235.1 708.3c10.3-4.8 35.9-18.7 57.1-20.9 24.5-2.5 42.5 14.7 24.7 31.2-10.3 9.5-43 22.7-52.6 26.1-21.1 7.6-29.2-36.4-29.2-36.4z"/><path d="M1326.8 705.9c7.7 17.5-46.1 48-71.8 61.5-27.5 14.5-57.1-14.2-34.3-29.9 21.2-14.5 59.5-47.4 71.6-50.1 21.5-5 29.8 7.8 34.5 18.5z"/></g><g class="E"><path d="M1239.5 778.4c-14.1 0-26.5-7-32-16.7-6.1-10.9-2.6-22.9 9.1-30.5 15.3-10 40.8-29 41.1-29.2 3.3-2.5 8-1.8 10.5 1.5s1.8 8-1.5 10.5c-1.1.8-26.2 19.5-41.8 29.7-7.4 4.9-5 9.2-4.2 10.6 3.8 6.8 17.1 12.9 31.2 6.2 21.2-10.1 57.8-32.5 68.8-48.6 2.4-3.4 7-4.3 10.4-1.9s4.3 7 1.9 10.4c-15.1 21.9-60.2 46.7-74.7 53.6-6.3 3.1-12.7 4.4-18.8 4.4z"/><path d="M1262.2 806.8c-8.8 0-17.7-2.4-24.4-7.1-8.5-5.9-12.5-14.5-11.3-24.3.5-4.1 4.2-7.1 8.3-6.6s7.1 4.2 6.6 8.3c-.5 4.2 1.1 7.5 5 10.2 7.3 5.1 19.9 5.9 28.1 1.7 9.7-5 47.6-27.5 58-33.9 3.5-2.2 8.1-1.1 10.3 2.5 2.2 3.5 1.1 8.1-2.5 10.3l-59 34.5c-5.7 3-12.4 4.4-19.1 4.4z"/><path d="M1256.8 834.7c-1.7 0-3.2-.1-4.5-.3-12.9-2.2-21.9-10.2-24.1-21.4-2-9.9 2.3-20.1 10.6-25.3 3.5-2.2 8.1-1.1 10.3 2.4s1.1 8.1-2.4 10.3c-3.1 1.9-4.6 5.8-3.8 9.7 1 4.9 5.3 8.3 12 9.5 13.7 2.4 66.9-18.5 83.5-27.4 3.6-2 8.2-.6 10.2 3s.6 8.2-3 10.2c-9 4.7-64.2 29.3-88.8 29.3zm-134.5-30.5c-3.3 0-6.3-2.2-7.2-5.6-1.1-4 1.3-8.1 5.3-9.2 39.3-10.5 60.5-46.1 57.5-73.1-.5-4.1 2.5-7.8 6.6-8.3s7.8 2.5 8.3 6.6c1.9 17-3.6 36.1-15 52.4-12.6 17.9-31.6 31-53.5 36.9-.8.3-1.4.3-2 .3z"/><path d="M1260.8 860.2c-1.2 0-2.3-.3-3.4-.8-10.2-5.2-20.4-15.7-10.6-35.6 1.8-3.7 6.3-5.2 10-3.4s5.2 6.3 3.4 10c-3.8 7.7-4.1 11.6 3.9 15.7 3.7 1.9 5.1 6.4 3.3 10.1-1.3 2.5-3.9 4-6.6 4z"/></g><g class="G"><path d="M588.9 1095.1c47.2 9.3 76.6-9.5 96.3-16.5 19.6-7 136.9-3.5 183.1-18.4s94.3-46.8 122.2-59.2c28.1-12.5 113.6-20.2 97.9-95.4-15.7-75.3-46.4-147.6-78.1-167.8-53.4-34-99.5 2.9-143.4 32.4 0 0-62.7-4.3-97.1 14.9 0 0-59.4-28.3-118.3 11.4-93.6 63.2-154.5 280.6-62.6 298.6z"/><path d="M1079.3 739.5c4.1-18.3-59.7-18.4-69.1-1.6-17.6 31.6 15.6 156 43.7 171.6 21.7 12 77.9-25.6 77.9-25.6-37-22-70.8-95.1-52.5-144.4z"/></g><g class="H"><path d="M1073.5 916.4c-11 0-21.4-4.5-30.9-13.4-34.7-32.6-50.2-122.6-41.1-161.8-23.1-13.4-51-12.3-83.2 3.2-26.6 12.8-46.1 31.1-46.3 31.3-1.9 1.8-4.5 2.5-7 1.8-29.3-7.5-92.1 14.4-92.8 14.7-1.9.7-4.1.5-5.9-.4-56.4-29-117.8 16.8-129.6 26.3-3.2 2.6-7.9 2.1-10.5-1.1s-2.1-7.9 1.1-10.5c7.9-6.4 29.3-22.3 56.9-31.8 31.3-10.7 60.2-9.9 86 2.4 13-4.3 63.8-20.2 94.4-14.9 6.7-5.9 24.2-20.1 46.8-31.1 39.1-18.9 74.7-18.7 103 .6 2.8 1.9 4 5.5 2.9 8.7-9.8 28 2.4 120.5 35.6 151.7 10.1 9.5 20.7 11.7 32.6 6.7 3.8-1.6 8.2.2 9.8 4s-.2 8.2-4 9.8c-6.1 2.6-12 3.8-17.8 3.8z"/><path d="M834.4 815.3c-1.6 0-3.1-.5-4.5-1.5-3.3-2.5-4-7.2-1.6-10.5 12.6-17 32.2-37.4 33-38.2 2.9-3 7.6-3.1 10.6-.2s3.1 7.6.2 10.6c-.2.2-19.8 20.6-31.8 36.8-1.4 2-3.7 3-5.9 3zm175.8-69.9c-.9 0-1.9-.2-2.8-.6-3.8-1.6-5.7-5.9-4.1-9.8 5.2-12.7 31.6-17.5 47.1-17.5 18.2 0 30.4 5.6 34.6 15.8 1.6 3.8-.3 8.2-4.1 9.8s-8.2-.3-9.8-4.1c-1.2-2.9-6.3-5.2-13.8-6-17.1-1.9-37.3 4.1-40.2 7.9-1.3 2.8-4 4.5-6.9 4.5z"/></g><g class="G"><path d="M479.9 378.9s-55.2-49.2-50.7-81.5c4.4-32.3 67.2-51.9 121.6-32.3 54.4 19.5 253.9 103.7 235 175.8-4.9 18.6-27.7 35.7-114.4 39.5zm444.8 411.3v.8c-.1 9.7-.5 19.4-1.3 29.2v.3c0 .2 0 .5-.1.7v.2c-.1 1.6-.3 3.1-.4 4.7 0 .2 0 .5-.1.7-1 10.2-2.4 20.4-4.4 30.4l-.2 5.9v.7l-.8 22.2-1.1 28.5-3.8 77.9-2.9 41.5v.1c-.7 8.7-1.5 16.7-2.3 23.5v.1c-.4 3.6-36.9 37.8-36.9 37.8a478.81 478.81 0 0 1-14.7 10.1c-53.8 13-133.5.3-148.7-51.7-.3-1.2-.7-2.3-.9-3.5-4.5-19.7-8.2-44-11.1-70.4v-.2c-7.2-63.6-10.4-139.1-11.8-190.1v-1l-.7-31.8v-1.9c0-1.4-.1-2.8-.1-4-.9-49.7 147.3-202.9 181.9-237.9l7.1-7.2c23.6 24.8 36.8 93.4 37.1 122.2.1 6.2 1.4 15.8 3.3 28.2 0 .2.1.3.1.5l5.6 37 .3 2.1v.3l2 15.5.9 7.3c.1.4.1.9.2 1.4.1 1.1.2 2.2.4 3.3v.1c.7 6.3 1.3 12.8 1.8 19.5 0 .3.1.7.1 1 .9 11.8 1.5 24 1.7 36.5v.9l-.2 8.6zM300.4 382.8C260.8 418 222.8 440.1 208 460s-45.9 97.5-61.5 116C131 594.5 71.6 691.4 54 729.1c-19 40.2-20.8 91.8-19.2 117.3 1.6 25.4-47 107-31.9 153.8s35.6 75 53.9 94.6c31.4 33.5 235.4-44.7 273.6-181 0 0 30.1-14.7 38.9-98.1s55.8-157.9 55.8-157.9c21-115.2-18.3-207.7-124.7-275z"/><path d="M900.7 1099.7l-3 1.9c-137.5 84.1-475.8 155.7-729.6 137.9-1.6-.1-3.3-.2-4.9-.4l-2.6-.6c-1.3-18.9.5-77.6 4.1-110.2 0-.2 0-.3.1-.5.5-4.4 1-8.3 1.6-11.5 0-.3.1-.5.1-.8v-.1c.8-4.9 1.8-9.8 2.8-14.9 1.4-7.1 3.5-15.4 6.1-24.6 16.3-56.6 54-149.5 84.3-234.1.2-.6.4-1.1.6-1.7l4.6-12.9c0-.1.1-.3.1-.4s.1-.2.1-.3v-.1c24.7-70.4 42.9-133 37.1-160.6-14.2-67.8-1.6-283-1.6-283 19-10.7 52.1-16.6 87.6-19.9 24.3-2.2 49.7-3.1 72.5-3.4h1.1l13.3-.1c35.4 0 61.5 1.3 61.5 1.3s87.7 18.7 152.8 44.8c10.5 4.2 21.3 8.9 32.2 13.9a554.09 554.09 0 0 1 15.6 7.5c15 7.3 29.9 15.2 44.3 23.1.3.2.6.3.9.5 0 0 .1 0 .1.1 31.1 17.2 59.8 35.1 81.4 49.9l7.4 5.2c-.2.8-5.9 23.5-12.3 58-.1.3-.1.6-.2.9-.3 1.4-.5 2.9-.8 4.4 0 .2-.1.4-.1.4-3.4 18.9-6.9 40.9-9.8 64.6v.2l-1.9 17.2v.4l-1.1 11.5-1.6 19.8c-.3 4-.5 7.9-.7 11.9v.4l-.5 11.5c0 .7-.1 1.5-.1 2.2-.1 1.8-.1 3.6-.2 5.4v.2c0 1.7-.1 3.5-.1 5.2v1.2c-.1 3.4-.1 6.7-.1 10.1v.1a529.83 529.83 0 0 0 .3 17.9v1.2c.1 3.7.3 7.3.5 11v.3c0 .4 0 .7.1 1v.5c0 .4 0 .7.1 1.1l.3 4.8c0 .4.1.8.1 1.2.1.7.1 1.4.2 2.1 0 .5.1 1 .1 1.4s.1.9.1 1.3c0 .3 0 .5.1.8 0 .2 0 .4.1.7 0 .5.1 1 .1 1.5.2 2.7.5 5.5.8 8.2l.9 7.7c.5 3.7 1 7.4 1.7 11 0 .2.1.3.1.5s.1.5.1.7.1.3.1.5v.1c.1.4.1.8.2 1.2 0 .1 0 .2.1.3.2 1.2.4 2.5.7 3.7 0 .1 0 .2.1.3.2.9.3 1.9.5 2.8.1.4.1.8.2 1.2.1.3.1.6.1.9 0 .2.1.3.1.5.1.4.1.8.2 1.3l1.4 8.4c1.9 12.4 3.4 24.1 4.5 35.1 0 .4.1.7.1 1.1.1.7.1 1.4.2 2.1l.6 6.6c1.6 17.9 2.2 33.9 2.1 48.1 0 2 0 4-.1 5.9-.1 2.8-1.6 5.9-.2 8.1a167.38 167.38 0 0 1 3.4 5.6c27.4 45.9 32.8 79.2 32.8 79.2l2.8 30 1.5 18.7c.9 11.9 1.6 23.7 1.8 31.8z"/></g><path d="M479.9 378.9c-19.5-54.9 6.1-128.2 110.3-71.4 98.8 54 180 81.3 99.7 159.4s-210-88-210-88z" class="B"/><path d="m593.8 235.7-62.6 136.9s-28.9-4.9-18.2 16.4c13.9 27.7 64.8 115.2 128.1 122.4 42.1 4.8 59.6-81.1 59.6-81.1l-17.9-7.3 47.3-125.9c18.1-51.8-115.7-104.8-136.3-61.4z" class="D"/><g class="G"><path d="M649.1 537.3c4.6-48-136-126.4-169.2-158.4-33.3-32-47.2-61.3-50.7-81.5 0 0-51.8 21.5-41.1 65.6 89.9 99 184.6 167.8 261 174.3z"/><path d="M636.3 515.3c17-17.1 79-75.2 99.5-87.6 20.6-12.5 54.5-6.4 49.9 13.1-7.4 31.4-66.9 104.5-136.6 96.4-14.4-1.6-12.8-21.9-12.8-21.9z"/></g><path d="M634.7 543.1c-.6 0-1.2-.1-1.8-.2-43-10.4-96.4-38.4-150.4-79-44.4-33.4-84-71.4-100.7-96.8-2.3-3.5-1.3-8.1 2.1-10.4 3.5-2.3 8.1-1.3 10.4 2.1 30.6 46.4 151 147.5 242.2 169.4 4 1 6.5 5 5.5 9a7.45 7.45 0 0 1-7.3 5.9zm34.9 1.8h-.8c-4.1-.1-7.4-3.5-7.3-7.7s3.5-7.5 7.7-7.3c22.3.6 89-32.3 106.9-83.9 1.4-3.9 5.6-6 9.5-4.6s6 5.6 4.6 9.5c-20.4 59.3-93.1 94-120.6 94zM330.4 921.2c-2 0-4-.8-5.4-2.3-2.9-3-2.7-7.7.3-10.6 16-15.2 31.5-37.1 36.6-93.4 5.9-65.5 48.3-145.5 56.7-160.9 2-3.6 6.5-5 10.2-3 3.6 2 5 6.5 3 10.2-8.2 14.9-49.3 92.5-54.9 155-5.6 61.2-23.1 85.6-41.2 102.9-1.6 1.4-3.4 2.1-5.3 2.1zm83.4-403.6c-2.8 0-5.5-1.6-6.8-4.3-13-27.1-64.7-103.7-109.7-123.6-3.8-1.7-5.5-6.1-3.8-9.9s6.1-5.5 9.9-3.8c27.8 12.3 55.1 41.6 73 64.1 20.6 25.8 37.3 52.7 44.1 66.8 1.8 3.7.2 8.2-3.5 10-1 .4-2.1.7-3.2.7zM858 576.8c-.5 0-1 0-1.5-.1-4.1-.8-6.7-4.7-5.9-8.8.1-.4 7.6-39 5.7-66.8-.3-4.1 2.9-7.7 7-8s7.7 2.9 8 7c2 29.8-5.7 69-6 70.7-.6 3.5-3.8 6-7.3 6zm38.5 528.4h-.5c-4.1-.3-7.3-3.8-7-8 2.4-37.9-7.4-80.6-29.9-130.4-2.2-5-9.1-20.1-9.7-187.2l1-161.9c.1-4.1 3.4-7.4 7.6-7.4 4.1.1 7.4 3.5 7.4 7.6l-1 161.6c.6 147.9 6.1 175.9 8.4 181.1 23.5 52.2 33.7 97.2 31.2 137.6-.2 3.9-3.5 7-7.5 7z" class="H"/><g class="G"><path d="M86.4 1114.5c45.1 15 77.8 15.9 98.2 11.8s83.5 21.5 131.3 13.3 132.9-70 165.8-64.7c33 5.2 130.2 25 126.3-48.8-3.9-73.7-33.8-170.4-62-193.8-47.4-39.3-109.3-5.1-157.1 17.3 0 0-54.6-12-91.5 1.9 0 0-61.5-30.7-125.7-.4C69.8 899-1.4 1085.4 86.4 1114.5z"/><path d="M622.4 851c6.9-16.9-67.1-26.4-79-11.5-22.2 27.8 2.2 195.1 58.6 214.7 68.3 23.7 94.3-62.6 94.3-62.6-40.1-2.8-99.5-96-73.9-140.6z"/></g><g class="D"><path d="M622.4 851c17.1-12.5 105.3-88.4 121-111.3 15.6-22.9 111.4 125.7 83.9 162.5-27.6 36.8-72.9 85.5-105.9 91.4s-54.2 3.2-66.1.8c-35.8-7.2-61.2-122.8-32.9-143.4z"/><path d="M743.3 739.7c23.9-26.9 42.5-69.6 54.3-75.2s97.9 2 112.2 3.4c22.5 2.2 26.3 41.6-2.9 41.1-29.2-.4-80.4-3.1-80.4-3.1l-37.6 72.5z"/><use href="#E"/><path d="M783.1 808s56.7-38.8 74-37.8c17.3 1.1 77.6 27.3 89.3 31.3 23.4 8.1 11.9 47.8-17.3 38.8-29.3-9-64.1-21.1-64.1-21.1l-55 31z"/><use href="#F"/></g><path d="M783.2 814.4c-2.1 0-4.2-1-5.4-2.9-1.9-3-1.1-6.9 1.9-8.9 2.7-1.8 6.1-4 9.9-6.7 27.6-18.9 53.6-35.5 69-32 16.8 3.9 95 32.7 98.3 33.9s5 4.9 3.8 8.2-4.9 5-8.2 3.8c-.8-.3-80.7-29.8-96.8-33.5-11.2-2.6-43.4 19.5-58.9 30l-10.1 6.8c-1.1 1-2.3 1.3-3.5 1.3zm15.1 42.5c-2 0-3.9-.9-5.2-2.6-2.1-2.8-1.5-6.9 1.3-9 3.7-2.7 7.4-5.6 11.4-8.6 21.1-16 42.8-32.6 58.5-33.5 17.4-1 68 27.4 78 33.1 3.1 1.8 4.1 5.7 2.4 8.8-1.8 3.1-5.7 4.1-8.8 2.4-23.4-13.4-60.9-32-70.9-31.4-11.8.7-33.8 17.4-51.5 30.9l-11.5 8.7c-1 .8-2.4 1.2-3.7 1.2zm-34-76c-2.1 0-4.2-1.1-5.4-3-1.9-3-1-7 2-8.8l39.5-24.9c3-1.9 7-1 8.8 2s1 7-2 8.8l-39.5 24.9c-1 .7-2.2 1-3.4 1z" class="E"/><g class="H"><path d="M465.7 372.5c-1.9 0-3.9-.8-5.4-2.3-24.2-24.8-31.7-46.7-38.4-70.9-1.1-4 1.2-8.1 5.2-9.2s8.1 1.2 9.2 5.2c6.3 22.9 12.9 42.1 34.7 64.4 2.9 3 2.8 7.7-.1 10.6-1.4 1.5-3.3 2.2-5.2 2.2zM623 677c-3.3 0-6.3-2.2-7.2-5.5-5.8-20.3-3.3-52.2-.8-83 2.1-26.9 4.7-60.3-1.6-68.6-2.5-3.3-1.9-8 1.4-10.5s8-1.9 10.5 1.4c9.8 12.8 7.4 43.4 4.6 78.9-2.3 29.5-4.7 60 .3 77.7 1.1 4-1.2 8.1-5.2 9.3-.7.2-1.3.3-2 .3zm50.9 58.8c-2.9 0-5.7-1.7-6.9-4.6-8.4-19.9-5.5-74.5-2.7-127.3l2.4-57.5c.3-22.8-1.5-27.8-2-28.8-2.3-3.5-1.3-8.1 2.1-10.4 3.5-2.3 8.1-1.3 10.4 2.2 6 9.1 5.3 34.7 2 95.3-2.5 46.3-5.6 104 1.5 120.7a7.5 7.5 0 0 1-4 9.8c-.8.4-1.8.6-2.8.6zM150.7 873.6c-2.2 0-4.3-.9-5.9-2.5-3.1-3.3-2.9-8.4.3-11.5.6-.6 15-14.1 40.8-22.6 23.2-7.6 60.5-12.5 107.2 7 11.5-2 59.4-9.4 92.5-1.3a8.19 8.19 0 0 1 6 9.8 8.19 8.19 0 0 1-9.8 6c-33.7-8.3-87.5 1.8-88.1 1.9-1.6.3-3.2.1-4.7-.5-34.3-14.8-67-17.4-97.2-7.7-22.6 7.2-35.4 19.1-35.5 19.2-1.6 1.5-3.6 2.2-5.6 2.2z"/><path d="M273.6 1157.2c-59.3 0-95.7-16.2-106.3-21.6l-11.6 3.2c-4.3 1.2-8.8-1.4-10-5.7s1.4-8.8 5.7-10l14.8-4.1c2.1-.6 4.4-.3 6.3.9.4.2 43.2 25 120.1 20.5 39.9-2.3 71.5-22.4 99.3-40.2 27-17.2 52.6-33.5 80.7-30.1.6.1 1.3.2 1.9.4.8.3 80.2 28.9 104.5-9.4-1.7-8.1-9.5-36.1-39.2-75.2-31.6-41.5-12.8-114.8-5.6-138.2-50.5-20.9-94.6-20.4-131.4 1.7-28.8 17.3-42.3 42.1-42.4 42.4-2.1 4-7 5.5-11 3.4s-5.5-7-3.4-11c.6-1.2 15.3-28.5 47.7-48.3 29.8-18.1 80.7-32.9 153.8-.2 3.9 1.7 5.8 6.2 4.3 10.1-.3.9-30.9 88.4.9 130.2 38.5 50.6 42.7 84.2 42.9 85.6.2 1.6-.1 3.3-.9 4.8-12.9 24-38.3 30.8-62.9 30.8-28.6 0-56.1-9.2-61.9-11.2-22.1-2.2-43.9 11.7-69.2 27.8-29.5 18.8-63 40.1-107.1 42.7-7 .5-13.7.7-20 .7z"/><path d="M614.5 858.2c-1.7 0-3.5-.6-5-1.7-29.7-23.1-61.3-6.3-61.6-6.1-3.9 2.2-8.9.7-11-3.2s-.7-8.9 3.2-11c1.7-.9 41.4-22.1 79.4 7.5 3.5 2.8 4.2 7.9 1.4 11.4-1.6 2-4 3.1-6.4 3.1z"/></g><g class="D"><path d="M1276.6 808c13.4-2.2 44.5-9 53.4-11.5 15.6-4.4 34.7 25.5 8.7 36.6-14.2 6-37.2 9.5-53.7 13.5-24.8 6.1-8.4-38.6-8.4-38.6z"/><path d="M1340.3 833.6c-17 9.9-42.4 16.1-56.8 20.1-29.8 8.3-46.2-25.5-14.9-34.9 22.5-6.8 47.9-20.5 61.5-22.2 13.4-1.7 36.7 21.5 10.2 37z"/><path d="M1274.6 776.5c18.7-5.1 43.9-11.4 60.9-13.4s24.8 30.9 4.5 36.4-47.3 11.3-58.3 14c-10.9 2.8-7.1-37-7.1-37z"/><path d="M1345.5 802.1c-13.3 8.9-54.1 19-76.9 24-28.5 6.2-42.6-31.2-11.3-38.2 29-6.4 63.4-26.3 78.3-24.8s32.7 23.7 9.9 39z"/><path d="M1268.2 738.3c16.8-6.8 44.2-13.8 56.5-17.5 20.8-6.4 40.3 21.3 19.4 34.9-17.7 11.5-53.1 20.9-64.5 23.8-10.1 2.4-11.4-41.2-11.4-41.2z"/><path d="M1345.5 761.5c-16.5 12.3-53.4 29.3-63.8 34.6-23.8 12.2-58.4-15.8-36.1-30 19-12.1 62.8-37.7 79-45.3s47.4 20.9 20.9 40.7z"/><path d="M1335 708.6c6.8 17.9-48.5 45.7-74.7 57.9-28.2 13.1-56.4-17-32.8-31.5 21.9-13.4 61.8-44.4 73.9-46.6 21.8-3.9 29.5 9.3 33.6 20.2z"/></g><g class="E"><path d="M1246.3 776.8c-14.9 0-28-7.8-33.2-18.3-5.6-11.2-1.4-23 10.6-30 15.7-9.2 42.2-26.9 42.5-27.1 3.4-2.3 8.1-1.4 10.4 2.1 2.3 3.4 1.4 8.1-2.1 10.4-1.1.7-27.1 18.1-43.2 27.6-7.7 4.5-5.5 8.9-4.7 10.4 3.5 7 16.5 13.7 30.9 7.7 21.7-9 59.3-29.6 71.1-45.1 2.5-3.3 7.2-3.9 10.5-1.4s3.9 7.2 1.4 10.5c-16.2 21.1-62.4 43.6-77.3 49.9-5.7 2.3-11.4 3.3-16.9 3.3z"/><path d="M1267.9 806.3c-9.6 0-19.4-2.9-26.4-8.3-8.2-6.3-11.8-15.1-10.1-24.8.7-4.1 4.6-6.8 8.6-6.1 4.1.7 6.8 4.6 6.1 8.6-.7 4.1.8 7.5 4.5 10.4 7.1 5.5 19.6 6.9 27.9 3.1 9.9-4.5 48.9-25.2 59.6-31 3.6-2 8.2-.7 10.2 3 2 3.6.7 8.2-3 10.2-9.3 5.1-49.8 26.6-60.7 31.5-4.9 2.3-10.8 3.4-16.7 3.4z"/><path d="M1260.8 833.9c-2.5 0-4.7-.2-6.6-.6-12.8-2.9-21.4-11.3-23.1-22.5-1.5-10 3.3-20 11.8-24.8 3.6-2 8.2-.7 10.2 2.9s.7 8.2-2.9 10.2c-3.1 1.8-4.9 5.6-4.3 9.5.7 4.9 4.9 8.6 11.5 10.1 13.6 3.1 67.7-15.2 84.7-23.3 3.7-1.8 8.2-.2 10 3.5s.2 8.2-3.5 10c-8.7 4.2-62.3 25-87.8 25z"/><path d="M1261.9 859.4c-1.3 0-2.6-.3-3.7-1-10-5.7-19.6-16.7-8.8-36.1 2-3.6 6.6-4.9 10.2-2.9s4.9 6.6 2.9 10.2c-4.2 7.5-4.6 11.4 3.2 15.9 3.6 2.1 4.8 6.7 2.8 10.2-1.5 2.4-4 3.7-6.6 3.7z"/></g><path d="M847.4 137.3c5.2 25.6-19.9 207.1-27.4 230.8-10.8 33.8-130.9 24.4-207-40.4-43.5-37-38.2-161.4 10.4-223 60.3-76.6 209.2-39.9 224 32.6z" class="D"/><path d="M607.2 206.7c3.7 11.5 16.5 17.5 19.8-.3s-5.7-49 16.4-64.9c24-17.3 46.4-62.1 70.6-65 70.7-8.3 129.4 36.1 133.3 60.6 12.1 9.6 54.5-44.9 29.8-84.5 0 0-10.7 25.9-31.2 24.5 0 0 14.9-42-2.8-77.4 0 0-7.4 17.2-19.9 21.7 3.3-12.9-20.5-19.5-42.6 3 3.5-11.4-6.2-31.2-28.7-1.8 0 0-31.5-13.1-54.5 16.7 0 0-68.3 9.7-90.2 35.7 0 0 9.7-22.8 2.9-25.5C603.5 47 557 164.9 565.5 196s41.7 10.7 41.7 10.7zm222.3-40.3c-15.1-4.6-10.5-28.9 2.4-24.7 8.1 2.6 34.4 14.8 40.5 28.3 3.9 8.8 3.5 18.8-7.5 12.7-10.8-6.1-20.9-11.9-35.4-16.3z" class="B"/><path d="M610.9 218.3c-7.6-36.4-47-55.4-64.9-19.8s10.9 66.6 34 66.1 35.8-23.3 30.9-46.3z" class="D"/><g class="E"><path d="M587.7 245.1c-.7 0-1.5-.1-2.2-.3-4-1.2-6.2-5.4-5-9.4 2.3-7.4 2.5-17.5-15.4-31.1-3.3-2.5-4-7.2-1.5-10.5s7.2-4 10.5-1.5c19.3 14.5 26.1 30.1 20.8 47.4-1 3.3-4 5.4-7.2 5.4z"/><path d="M572.2 232.8c-2.2 0-4.3-.9-5.8-2.8-2.6-3.2-2.1-7.9 1.1-10.6l12-9.8c3.2-2.6 7.9-2.1 10.6 1.1 2.6 3.2 2.1 7.9-1.1 10.6l-12 9.8c-1.4 1.1-3.1 1.7-4.8 1.7z"/></g><path d="M760.1 145.2c14.2 9.5 28.9-11.5 13.2-20.1-20-10.9-57.3-16.3-74-6.2s-14 18.9-1.5 17.4 43.3-3.8 62.3 8.9z" class="B"/><path d="M726.6 392.7c-.5 0-1-.1-1.5-.2-34.3-7.1-83.6-31.9-107.6-54.1-3-2.8-3.2-7.6-.4-10.6s7.6-3.2 10.6-.4c22 20.3 68.9 43.9 100.5 50.4 4.1.8 6.7 4.8 5.8 8.9-.8 3.6-3.9 6-7.4 6z" class="E"/><g clip-path="url(#A)"><ellipse cx="840.6" cy="223.8" fill="#fff" rx="31.3" ry="29.5" transform="matrix(.1684 -.9857 .9857 .1684 478.43 1014.7407)"/><path clip-path="url(#B)" d="M819.3 230.3c2.2-13.1 8.5-22 16.5-20.6s12.7 13.1 10.5 26.2-10.6 22.6-18.6 21.2c-8-1.3-10.6-13.7-8.4-26.8z" class="B"/></g><ellipse cx="721.3" cy="197.1" fill="#fff" rx="37.3" ry="35.2" transform="matrix(.1684 -.9857 .9857 .1684 405.57 874.8966)"/><ellipse clip-path="url(#C)" cx="730.3" cy="211.5" rx="28.1" ry="17.1" transform="matrix(.3031 -.953 .953 .3031 307.4423 843.3168)" class="B"/><path d="M779.9 244.3c22.3-16.5 37.3 3.6 16.4 25.4" class="D"/><path d="M796.2 277.2c-1.9 0-3.7-.7-5.2-2.1-3-2.9-3.1-7.6-.2-10.6 8.1-8.5 9-15.7 7.1-17.9-1.4-1.6-6.6-1.5-13.6 3.6-3.3 2.5-8 1.8-10.5-1.6s-1.8-8 1.6-10.5c14.7-10.8 27.5-8.6 33.8-1.5 6.9 7.9 7.3 22.7-7.5 38.2-1.5 1.6-3.5 2.4-5.5 2.4z" class="E"/><path d="M707.2 284.8c5.9 8.4 11 15.3 17.6 20 5.9 4.2 17.4 6.8 24.2 8.1 9.2 1.7 7.3 13.2.3 18-9.3 6.4-24.9 7.5-38.6-.6-13.9-8.2-19-24.5-16.1-38.3 2.5-11.7 9.5-11.6 12.6-7.2z" fill="#fff"/><g class="G"><path d="M86.8 1114.1c45.1 15 77.8 15.9 98.2 11.8s83.5 21.5 131.3 13.3 132.9-70 165.8-64.7 130.2 25 126.3-48.8c-3.9-73.7-33.8-170.4-62-193.8-47.4-39.3-109.3-5.1-157.1 17.3 0 0-54.6-12-91.5 1.9 0 0-61.5-30.7-125.7-.4C70.2 898.6-.9 1085 86.8 1114.1z"/><path d="M622.8 850.6c6.9-16.9-67.1-26.4-79-11.5-22.2 27.8 2.2 195.1 58.6 214.7 68.3 23.7 94.3-62.6 94.3-62.6-40-2.8-99.5-95.9-73.9-140.6z"/></g><g class="D"><path d="M622.8 850.6c17.1-12.5 105.3-88.4 121-111.3 15.6-22.9 111.4 125.7 83.9 162.5-27.6 36.8-72.9 85.5-105.9 91.4s-54.2 3.2-66.1.8c-35.8-7.2-61.1-122.8-32.9-143.4z"/><path d="M743.8 739.3c23.9-26.9 42.5-69.6 54.3-75.2s97.9 2 112.2 3.4c22.5 2.2 26.3 41.6-2.9 41.1-29.2-.4-80.4-3.1-80.4-3.1L789.4 778z"/><use href="#E" x="0.5" y="-0.4"/><path d="M783.6 807.6s56.7-38.8 74-37.8 77.6 27.3 89.3 31.3c23.4 8.1 11.9 47.8-17.3 38.8-29.3-9-64.1-21.1-64.1-21.1l-55 31z"/><use href="#F" x="0.5" y="-0.3"/></g><path d="M783.6 815.1c-2.5 0-4.9-1.2-6.3-3.4-2.3-3.5-1.3-8.1 2.2-10.4l9.9-6.7c28.9-19.7 54-35.8 69.9-32.1 16.9 3.9 95.2 32.7 98.5 34 3.9 1.4 5.9 5.7 4.4 9.6-1.4 3.9-5.7 5.9-9.6 4.4-.8-.3-80.7-29.7-96.7-33.4-1.9-.4-8.1-.5-24.5 8.5-11.5 6.3-23.7 14.6-33.5 21.4l-10.2 6.9c-1.3.8-2.7 1.2-4.1 1.2zm15.2 42.5c-2.3 0-4.6-1.1-6-3-2.5-3.3-1.8-8 1.6-10.5 3.7-2.7 7.4-5.6 11.4-8.6 21.2-16.1 43.1-32.8 59.1-33.7 17.7-1 68.6 27.5 78.6 33.3a7.52 7.52 0 0 1 2.8 10.2 7.52 7.52 0 0 1-10.2 2.8c-23.3-13.3-60.5-31.9-70.3-31.3-11.4.7-33.3 17.3-50.9 30.6l-11.5 8.7c-1.5 1-3.1 1.5-4.6 1.5zm-34-76c-2.5 0-4.9-1.2-6.4-3.5-2.2-3.5-1.2-8.1 2.4-10.3l39.5-24.9c3.5-2.2 8.1-1.2 10.3 2.4 2.2 3.5 1.2 8.1-2.4 10.3l-39.5 24.9c-1.2.7-2.6 1.1-3.9 1.1z" class="E"/><g class="H"><path d="M151.2 872.6c-2 0-4-.8-5.4-2.3-2.9-3-2.7-7.7.3-10.6.6-.6 14.9-14 40.6-22.4 23.1-7.6 60.3-12.4 106.9 7.1 11.1-1.9 59.3-9.5 92.5-1.4 4 1 6.5 5 5.5 9.1-1 4-5.1 6.5-9.1 5.5-33.7-8.3-87.8 1.8-88.3 1.9-1.5.3-3 .1-4.4-.5-82.4-35.6-132.9 11.1-133.4 11.5-1.5 1.5-3.4 2.1-5.2 2.1z"/><path d="M274 1156.2c-59.6 0-96-16.3-106.2-21.6l-11.9 3.3c-4 1.1-8.1-1.3-9.2-5.3s1.3-8.1 5.3-9.2l14.8-4.1c2-.5 4.1-.3 5.8.8.4.2 43.3 25.1 120.4 20.5 40.1-2.4 71.7-22.5 99.6-40.3 26.9-17.1 52.4-33.3 80.3-30 .6.1 1.2.2 1.7.4.8.3 81 29.2 105.4-9.8-1.7-7.9-9.3-36.1-39.4-75.7-31.7-41.6-12.4-115.5-5.4-138.2-50.9-21.2-95.5-20.7-132.6 1.6-29 17.4-42.5 42.3-42.6 42.6-1.9 3.6-6.5 5-10.1 3.1-3.7-1.9-5-6.5-3.1-10.1.6-1.2 15.3-28.4 47.5-48 29.7-18.1 80.4-32.7 153.3-.1 3.6 1.6 5.3 5.7 4 9.4-.3.9-31 88.7 1 130.8 38.4 50.4 42.6 83.9 42.7 85.3a7.41 7.41 0 0 1-.8 4.4c-12.8 23.7-37.9 30.5-62.4 30.5-28.6 0-56.2-9.2-61.8-11.2-22.3-2.3-44.3 11.7-69.6 27.9-29.5 18.7-62.8 40-106.8 42.6l-19.9.4z"/><path d="M615 857.1c-1.6 0-3.2-.5-4.6-1.6-29.8-23.2-61-6.8-62.3-6.1-3.6 2-8.2.6-10.2-3s-.6-8.2 3-10.1c1.7-.9 41-21.9 78.7 7.5 3.3 2.5 3.9 7.3 1.3 10.5-1.5 1.8-3.7 2.8-5.9 2.8zm-14.8 212.7c-7.6 0-12.6-.3-13.4-.4-4.1-.3-7.2-3.9-7-8 .3-4.1 3.9-7.2 8-7 19.6 1.4 74.8 0 94-22.2 6.5-7.5 8.4-16.9 5.9-28.7-.9-4 1.7-8 5.7-8.9s8 1.7 8.9 5.7c3.6 16.5.5 30.5-9.2 41.7-21.1 24.6-69.3 27.8-92.9 27.8z"/></g></svg></g><g transform="matrix(.831853 0 0 .825363 1517.870168 183.80744)"><svg width="1532.7" height="1162.1"><path d="m443.5 538.2-76.4 41.3L347.2 712l47.3 169.3s59.3-22.1 75.7-28.5S613 782.7 613 782.7l35.2-201.8L528.9 531z" fill="#5223b7"/><g class="C"><path d="M971.9 468.6l-163.8.4-118.4 5s-85.6 110.8-76.8 319.1l1.5 34.3c6.7 141 120.9 253.1 262.1 256.9h.2c147.7 4 271.4-111.7 276.5-259.4.6-18.2.8-36.8.5-55.6-2.7-169.2-31.4-256.4-31.4-256.4z"/><path d="M890.7 588h-2.9c-44.4-.3-80.2-36.5-79.9-80.9l.9-141.4c.3-44.4 36.5-80.2 80.9-79.9h2.9c44.4.3 80.2 36.5 79.9 80.9l-.9 141.4c-.2 44.4-36.4 80.2-80.9 79.9z"/></g><path d="M835.3 70c-16.1-13.4-53-20-65 2 0 0-31.6 9.3-33.3 32.3 0 0-25.1-8.3-36.7 14.4s-32.3 3.5-37.9 25.8c-6.1 24.1 27.3 32.2 5 46.2 18.3 1.9 29.7-8.9 16.6-28.2-4.9-7.2-.4-18.4 11-15.9 17.6 3.9 48.2.1 71.4-7.7C785.7 132.5 818 92 818 92z" class="K"/><path d="M759.4 119.4c-31.6 24.4-28.1 59.4-42.2 97.7-10.4 28.3-24.9 33.9-30.8 69.7-7.3 44.6 47.5 129.2 85.4 135.7 48.5 8.3 136.6-5 184.6-44.9 45.6-37.9 65.3-117.3 39.5-182.8C950 77.9 831.2 64 759.4 119.4z" class="C"/><g class="K"><path d="M958.7 81c0-34.2 37.4-66.4 53.4-39.4 0 0 29.8-26.2 43.9-10.7 8.8 9.7 5.4 27.9 5.4 27.9 18.5-9.2 52.9-.8 57.3 39 0 0 39.4 14.5 17.5 51.9 22.5 33 26.4 82.9-9.7 98.1 0 0-14.9 42.1-68.2 34.3C992.5 230.2 964.7 168 958.7 81z"/><path d="M817.9 91.9c11-31.9 55.5-39.5 94.6-26.5 12.5-10.9 34.5-14.3 52.7 6.8 19.9 1.7 32.3 16.1 36.9 40.2 42.3 4.4 51.2 25.7 57.8 81.8 15.8 9.6 19 40.3.8 62.1 19.1 21.4 12 68.3-12.4 79.7 0 0-1.5 38.7-38.1 42.6-21.5 2.3-20 40.6 6.5 27.7-4.4 17-46 27-44.3-11.3l.2-31.6 26.7-49.1s-53.8-31.3-54.2-110.6c-.5-73.5-69.5-116.4-127.2-111.8z"/></g><path d="M981.1 293.1c14.6-12.4 58.7-27 57.9 20.5-.8 46.1-55 65.9-72.1 47.7-14.9-15.8 3.5-59.1 14.2-68.2z" class="C"/><path d="M940 167.8c10.2 27.6-13.7 54.6-13.6 77.1.2 30.7 43.8 60.1 3.9 67.1 17.8 7.6 37.4 2.4 32.6-28-6.2-39.9 23.2-36.9 10.8-73.1-4.5-12.9-33.7-43.1-33.7-43.1z" class="K"/><path d="M845.4 171.7c-18.2 2.9-22.9-25.6-6.3-30.9 22.2-7.1 59.1 4.5 82.3 38.6 9 13.1-2.2 19-9.3 12.6-19-16.8-41.5-24.4-66.7-20.3zM763 166c17.1 4 27.2-22.7 14.5-27.7-22.8-8.8-57.9 5.9-67.8 14.2-11.6 9.7-9.8 19.4 4.4 14.9s34.2-4.9 48.9-1.4z" class="B"/><path d="M857.3 93.2c11 7.9 8.7 19.9 1.5 32.1-9.5 16.3 6.4 41.3 28.5 37.1-18.3-8.6-11.9-25.3-2.3-38.2 10.4-13.9 16.6-35.9-1.1-43.3s-26.6 12.3-26.6 12.3z" class="K"/><g class="F"><path d="M795.8 281.3c-2.4 0-4.7-1.3-5.9-3.6-5.6-10.9-15.1-15.2-21.1-13.6-3.4.9-5 3.6-4.9 8 .2 3.7-2.7 6.8-6.4 6.9-3.7.2-6.8-2.7-6.9-6.4-.5-10.7 5.2-18.9 14.7-21.4 11.3-3 27.4 3 36.3 20.3 1.7 3.3.4 7.3-2.9 8.9-.8.7-1.8.9-2.9.9zM983.4 351c-.3 0-.6 0-.9-.1-3.6-.5-6.2-3.8-5.7-7.4 2.6-20 15.7-34.3 38-41.2 3.5-1.1 7.2.9 8.3 4.4s-.9 7.2-4.4 8.3c-17.2 5.3-26.9 15.5-28.8 30.2-.4 3.4-3.2 5.8-6.5 5.8z"/><path d="M1009.2 340.3c-1.6 0-3.2-.6-4.5-1.7l-14.2-13c-2.7-2.5-2.9-6.7-.4-9.4s6.7-2.9 9.4-.4l14.2 13c2.7 2.5 2.9 6.7.4 9.4-1.3 1.4-3.1 2.1-4.9 2.1z"/></g><path d="M852.4 320.4c9.1 3.9 5.9 34.2-19.9 43.7-30.3 11.2-54.6-8.3-53.7-19.9s19.6.3 39.3-6.5 26-20.8 34.3-17.3z" fill="#fff"/><path d="M811.3 431.8c-3.6 0-6.5-2.8-6.6-6.4a6.6 6.6 0 0 1 6.4-6.8c23.5-.7 66.1-8 85.8-16.4 3.4-1.4 7.3.1 8.7 3.5s-.1 7.3-3.5 8.7c-21.4 9-65.4 16.7-90.6 17.4h-.2z" class="F"/><path d="M1071.3 289.7c-.4 0-.7 0-1.1-.1-3.6-.6-6.1-4-5.5-7.6.9-5.4-4.9-15.8-9.3-21.4-2-2.6-1.9-6.3.4-8.7 7.5-7.8 11.3-19.6 10.2-31.5-.8-9.1-4.6-16.8-10-20.7-1.7-1.2-2.7-3.1-2.8-5.2-1-27.4-10.1-51.7-24.5-65-7.9-7.3-16.7-10.8-26.4-10.4-3.4.1-6.3-2.3-6.8-5.6-5.4-33.8-29.4-34.6-30.4-34.6-3.7 0-6.6-3-6.6-6.6 0-3.7 3-6.6 6.7-6.6 11.9 0 35.2 8.6 42.4 40.4 11 .9 21.3 5.6 30.2 13.8 16.3 15.1 26.9 41.6 28.6 71.3 7.1 6.4 11.7 16.5 12.8 28.1 1.3 13.7-2.5 27.3-10.2 37.6 4.1 6.2 10.4 17.7 8.8 27.4-.5 3.1-3.3 5.4-6.5 5.4zM817.9 98.6c-.6 0-1.2-.1-1.8-.3-3.5-1-5.6-4.7-4.6-8.2 2.7-9.3 9.3-17.9 19.9-25.5 3-2.1 7.1-1.5 9.3 1.5 2.1 3 1.5 7.1-1.5 9.3-8 5.8-13 12-14.9 18.3-.8 2.9-3.5 4.9-6.4 4.9zM962 278.8c-3.6 0-6.5-2.8-6.6-6.4-.4-12.2 4.4-20.1 8.7-27.1 5.4-8.8 9.6-15.8 3.4-32-1.3-3.4.4-7.3 3.8-8.6s7.3.4 8.6 3.8c8.5 22.2 1.6 33.6-4.5 43.6-3.8 6.2-7 11.6-6.8 19.8.1 3.7-2.8 6.7-6.4 6.8 0 .1-.1.1-.2.1zm-204.7-47.5c-2.4 0-4.7-1.3-5.9-3.6-3.3-6.4-9.4-10.9-16.6-12.4-9.4-2-19.8 1.1-29.4 8.7-2.9 2.3-7.1 1.8-9.3-1.1-2.3-2.9-1.8-7.1 1.1-9.3 12.8-10.1 27.1-14.1 40.4-11.3 11.1 2.4 20.5 9.4 25.6 19.3 1.7 3.3.4 7.3-2.8 9-1 .4-2.1.7-3.1.7zM885 247.9c-2.4 0-4.7-1.3-5.9-3.6-3.3-6.4-9.4-10.9-16.6-12.4-9.4-2-19.8 1.1-29.4 8.7-2.9 2.3-7.1 1.8-9.3-1.1-2.3-2.9-1.8-7.1 1.1-9.3 12.8-10.1 27.1-14.1 40.4-11.3 11.1 2.4 20.5 9.4 25.6 19.3 1.7 3.3.4 7.3-2.8 9-1 .4-2.1.7-3.1.7z" class="B"/><g class="C"><path d="M199 450.8c78.5-15.8 60.6-93.2 60.6-93.2L229 225.8s7.2-65.4-18.5-116.6c-39.8-79.3-210-8.6-192 39.2 14.2 37.4 34.5 93.9 70 126.6l2.8 111.4c.1 0 4.7 85.1 107.7 64.4z"/><path d="M64.7 157.7l-31-75.9c-7.5-18.2-41.4-2.3-32 23.1 7.8 21 12.6 32.9 26.5 67.8 10 25.5 46.5 9.2 36.5-15z"/></g><path d="M45.6 193.3c-1.2 0-2.5-.1-3.7-.3-9.4-1.3-17.1-7.7-20.9-17.4-1.6-3.9.4-8.4 4.3-9.9 3.9-1.6 8.4.4 9.9 4.3 1.8 4.6 4.8 7.3 8.8 7.8 4.4.6 9.5-1.5 12.4-5.2 1.8-2.4 3.5-6.3 1.2-11.9-1.6-3.9.2-8.4 4.1-10s8.4.2 10 4.1c4 9.5 2.8 19.4-3.2 27.2-5.4 7.1-14.1 11.3-22.9 11.3z" class="F"/><path d="M105.9 138L67.8 52.5C59.2 33 17.4 52 29.7 81.9L60.3 155c11.3 26.9 56.4 7.8 45.6-17z" class="C"/><path d="M80.2 175.6c-1.3 0-2.7-.1-4-.2-10.4-1.3-18.8-7.6-22.9-17.4L19.6 79.3c-1.6-3.8.1-8.2 3.9-9.9 3.8-1.6 8.2.1 9.9 3.9.2.5 20.2 46.5 33.8 78.9 2.1 4.9 5.7 7.7 10.9 8.3 7 .9 15.4-2.6 19.6-8.2 2.6-3.5 3.1-7.3 1.4-11.3L78.6 95 61 55.5c-1.7-3.8.1-8.2 3.8-9.9 3.8-1.7 8.2 0 9.9 3.8l17.6 39.4 20.5 46.1c3.9 8.9 2.7 18.4-3.1 26.3-6.6 8.8-18.2 14.4-29.5 14.4z" class="F"/><path d="M111.3 32.7C98.3 3 56.5 26.9 65.6 47.6l36 80c10.3 22.9 52.5 7.7 44.4-18.3 0-.1-28.9-63.5-34.7-76.6z" class="C"/><path d="M120.3 146.4c-10.4 0-20.6-4.7-25.6-15.7L74.2 85.4 59.8 53.3a7.71 7.71 0 0 1 3.9-10.1 7.71 7.71 0 0 1 10.1 3.9l14.3 32 20.5 45.4c3.8 8.4 13.8 7.3 19.2 5.2 6.7-2.5 13.6-8.7 11-17.7l-34.6-76.2a7.71 7.71 0 0 1 3.9-10.1 7.71 7.71 0 0 1 10.1 3.9l34.7 76.4c.1.3.3.6.4.9 5.6 18.1-6.5 31.9-20.1 37-4.1 1.7-8.5 2.5-12.9 2.5z" class="F"/><path d="M156.1 14c-13-29.7-54.8-5.8-45.7 14.9l36 80c10.3 22.9 52.5 7.7 44.4-18.3 0-.1-29-63.5-34.7-76.6z" class="C"/><path d="M165.1 126.7c-10.1 0-19.9-4.5-24.7-15.1l-20.5-45.3-14.4-32.1c-1.5-3.4 0-7.3 3.4-8.8s7.3 0 8.8 3.4l14.3 32 20.5 45.4c3.6 7.9 13.1 8.6 20.5 5.8 7.2-2.7 14.4-9.3 11.6-19L150 16.8c-1.5-3.4.1-7.3 3.4-8.7 3.4-1.5 7.3.1 8.7 3.4L196.8 88c.1.3.2.5.3.8 5.4 17.5-6.3 30.8-19.5 35.8-3.9 1.2-8.3 2.1-12.5 2.1z" class="F"/><path d="M234.5 258.4c12.2-29.7 33.8-150.7-.7-177.6-12.1-9.4-49.6-14.4-98.7-12.7-41.2 1.4-39.1 52.4-1.4 55.1 25.3 1.8 62.8-.6 62.8-.6-44.7 18.7-49.9 73.9-30.4 108.3 24.7 43.6 68.4 27.5 68.4 27.5z" class="C"/><path d="M155.8 193.7h-.5c-3.7-.3-6.4-3.4-6.1-7.1 1.6-22.2 16.6-39.9 29.1-51l-31.8.7c-2.9.2-25.4 1.6-37.9-11-6.3-6.3-9-14.8-8-25.1 1-11.1 5.4-19.7 12.9-25.5 13.6-10.5 32.4-7.5 33.2-7.4 3.6.6 6.1 4 5.5 7.6s-4 6.1-7.6 5.5c-.3 0-14.1-2.1-23 4.8-4.5 3.5-7.1 8.8-7.8 16.2-.6 6.3.8 11 4.2 14.5 8.6 8.6 27.4 7.1 27.6 7.1h.5l52.7-1.1c3 0 5.7 1.9 6.5 4.8s-.4 6-3 7.5c-.4.2-37.5 22.5-39.7 53.3-.4 3.5-3.3 6.2-6.8 6.2z" class="F"/><g class="I"><path d="M369.6 672.8c7.2-79.4-15.4-147-37.7-189.2-20.6-39 4-91.6-78.1-142.2-52.9-32.6-142.5 5.2-164.9 32.3-29.8 36-44.5 98.9-18.2 199.1 16.6 63.4 19.1 91.7 25.8 129.4 11.9 67.1 52 181 184.8 187.5 44.3 2.2 86.5 1.5 121.1-11 87.4-31.5-41.5-110.3-32.8-205.9z"/><path d="m239.3 269.8 19.1 94.7c-19 40.1-128.7 65.7-169.1 33.8l-1-101.7c35.8 16.4 130.5 4.2 151-26.8z"/></g><g class="J"><path d="M369.6 680.3c-.6 0-1.3-.1-1.9-.2-4-1-6.4-5.1-5.4-9.1 7.9-30.5 4.2-73.2-10.1-117.3-1.3-3.9.9-8.2 4.8-9.4 3.9-1.3 8.2.9 9.4 4.8 15.1 46.7 18.9 92.5 10.4 125.7-.8 3.3-3.9 5.5-7.2 5.5zm-251.7-37.5c-1.8 0-3.6-.6-5-1.9l-.5-.4c-13.6-12.1-34-30.4-48.6-64.7-1.6-3.8.1-8.2 4-9.8 3.8-1.6 8.2.1 9.8 4 13.3 31.2 32.3 48.2 44.8 59.4l.5.4c3.1 2.8 3.4 7.5.6 10.6-1.5 1.5-3.6 2.4-5.6 2.4zm.8-189.5c-3.7 0-6.9-2.7-7.4-6.4-3.7-26 .4-50 11.7-67.6 2.2-3.5 6.9-4.5 10.4-2.3s4.5 6.9 2.3 10.4c-9.3 14.5-12.6 34.9-9.4 57.4.6 4.1-2.3 7.9-6.4 8.5h-1.2zm41.7-18.6c-2.7 0-5.3-1.4-6.6-4-5-9.4-10.4-36-2.4-50.8 2-3.6 6.5-5 10.2-3 3.6 2 5 6.5 3 10.2-4.7 8.7-1.3 29.6 2.4 36.6 1.9 3.7.6 8.2-3.1 10.1-1.1.6-2.3.9-3.5.9zm95-21.5h-.5c-4.1-.3-7.3-3.8-7-8 .8-13-7.4-28.6-20.6-38.8-3.3-2.5-3.9-7.2-1.4-10.5s7.2-3.9 10.5-1.4c17.3 13.3 27.6 33.5 26.5 51.6-.3 4.1-3.6 7.1-7.5 7.1z"/><path d="M140.9 391.2c-24.8 0-45.7-4.8-56.5-13.5-3.2-2.6-3.7-7.3-1.1-10.5s7.3-3.7 10.5-1.1c10.8 8.7 39.2 12.4 69.1 8.9 38-4.4 69.8-18.7 84.9-38.1 2.5-3.3 7.3-3.9 10.5-1.3 3.3 2.5 3.9 7.3 1.3 10.5-25.3 32.5-74.9 41.5-95 43.8-8.1.9-16.1 1.3-23.7 1.3z"/></g><g class="I"><path d="M1124.6 1087.2c-10.7 5.5-21.7 10.9-32.9 16.2-174.6 82.9-340.4 66.5-493.4 21.1l19-109.9 498.3-3.7z"/><path d="M1359.7 690.2c-60.1-69.8-117.4-146.2-195-170.5l-101.5-34.9c-5.1-1.6-10.7.3-13.7 4.8-16.8 24.8-73.3 109-192.5 90.2-64.5-10.2-96.2-64.8-102.5-89.2-1.7-6.7-2.7-22-9.3-20l-123.7-6.4c-69.4-2-133.9 44.5-180.7 77.2 35.7 11.2 120.4 157.8 147.1 275.7-3.4 20.8-7 39.1-10.7 53.1-17.3 65.3-26.5 151.2 37.6 172.1 136.5 44.5 359.5 51.2 505.6 22.1 65.7-13.1 49.2-129.7 48.8-188.7 25.8 35.3 109.4 51.5 167.4 4.8 87.8-70.9 44.3-161.1 23.1-190.3z"/></g><g class="J"><path d="M918 1089.3c-18 0-36.1-.4-54.4-1.1-96.5-3.8-185.7-17.7-251.2-39-3.9-1.3-6.1-5.5-4.8-9.5 1.3-3.9 5.5-6.1 9.5-4.8 130.1 42.4 350.5 52 501.8 21.9 4.1-.8 8 1.8 8.8 5.9s-1.8 8-5.9 8.8c-58.6 11.7-129.4 17.8-203.8 17.8zm-32-452.5c-2.8 0-5.7 0-8.5-.1-62-1.7-113.9-30.5-149.9-83.2-27-39.4-35.6-77.9-35.9-79.5-.9-4 1.7-8 5.7-8.9s8 1.7 8.9 5.7c.1.4 8.4 37.6 33.9 74.6 33.7 49 80 74.6 137.7 76.3 67.1 1.9 123.1-18.9 166.7-61.9 32.7-32.2 45.7-65.5 45.8-65.9 1.5-3.9 5.8-5.8 9.7-4.3s5.8 5.8 4.3 9.7c-.6 1.5-14 36.2-48.8 70.7-20.4 20.3-44 36.2-70 47.4-30.1 12.8-63.6 19.4-99.6 19.4z"/><path d="M666.5 1064c-.6 0-1.3-.1-1.9-.2-37.4-9.8-42-56.1-42.2-58.1-.4-4.1 2.7-7.8 6.8-8.1 4.1-.4 7.8 2.7 8.1 6.8 0 .4 3.9 37.8 31 44.9 4 1 6.4 5.1 5.4 9.2-.8 3.2-3.9 5.5-7.2 5.5zm374.9-320.4c-1.6 0-3.1-.5-4.5-1.5-3.3-2.5-4-7.2-1.5-10.5 44.6-59.7 66.3-157.9 66.5-158.9.9-4 4.9-6.6 8.9-5.7s6.6 4.9 5.7 8.9c-.9 4.2-22.7 102.4-69.2 164.7-1.4 2-3.6 3-5.9 3zm41.4 132.9c-1.6 0-3.3-.5-4.7-1.6-3.2-2.6-3.8-7.3-1.2-10.5 19.6-24.7 60.1-91.6 60.5-92.2 2.1-3.5 6.8-4.7 10.3-2.5 3.5 2.1 4.7 6.8 2.5 10.3-1.7 2.8-41.4 68.3-61.6 93.8-1.4 1.7-3.6 2.7-5.8 2.7z"/></g><path d="M1517.6 899.7L1425.7 776c-23.2-28.6-30.4-44.4-66.1-85.8-18.1 1.9-140.8 59.3-195.9 185.6 5.7 36.1 58.9 112.7 74.9 130.1 103.6 113.2 358.4-1.3 279-106.2z" class="I"/><path d="M1169.8 907.2c-4 0-7.3-3.2-7.5-7.2 0-.5-.4-11.3 0-24.4 1.5-44.3 12.4-105.3 16.4-118.1 1.2-4 5.4-6.2 9.4-4.9 4 1.2 6.2 5.4 4.9 9.4-4 12.7-14.4 72.8-15.7 114.1-.4 12.5 0 23.2 0 23.3.2 4.1-3.1 7.6-7.2 7.8h-.3z" class="J"/><g class="C"><path d="M1053.9 978.2c-28.9 26.9-71 20-102.6 13.4-14.8.8-47.4-18.1-62.5-32.5-12.3-11.7-26.4-30-33.3-42.3-37-65.6 74.2-168 98.1-143.6l96.5 98.6s76.9 38.6 3.8 106.4z"/><path d="M953.6 773.1c-20.2-23.2-88-26.2-104.5-24.5-13.1 1.4-24.8 11.9-82.4 56.5-22.8 17.6 4.2 56.5 29.9 37.2l52.2-39.2 87.9 16.8z"/><path d="M938.7 804.8s-75.5-18-86.2-17.1-20.8 8.3-90.1 51c-21.9 13.5.9 54.4 25.5 40l66.6-39 77.1 16.1z"/><path d="M923.7 825.4s-74.3-6.5-85.7-4-24.3 15.1-69.1 51.4c-21.4 17.3 8.5 54.4 31 36.5l49-39.1 67.1 5.3z"/><path d="M889.7 870.6s9.2 1.9-37.4-7c-19.6-3.8-40.9 11.6-43.1 25.2-6.8 42.1 1.4-8.7-5.2 31.8-5 31 40.1 37 45.6 6.9 1.1-6.2 2.4-10.9 2.4-10.9l25.8 10.7z"/></g><g class="F"><path d="M805.7 904.9c-.3 0-.7 0-1-.1-4.1-.5-7-4.3-6.5-8.4 4.5-34.5 33-48.3 49.9-48.8l5.5-.2c18.2-.6 18.2-.6 41-.7h8.8c4.1 0 7.5 3.3 7.5 7.5 0 4.1-3.3 7.5-7.5 7.5h-8.8l-40.6.6-5.5.2c-10.1.3-32.1 9.5-35.5 35.7-.3 4-3.5 6.7-7.3 6.7zM852 924c-.5 0-1.1-.1-1.6-.2-4-.9-6.6-4.9-5.7-8.9l4.4-19.8c.9-4 4.9-6.6 8.9-5.7s6.6 4.9 5.7 8.9l-4.4 19.8c-.7 3.5-3.9 5.9-7.3 5.9zm-91.7-53.2c-1.9 0-3.7-.7-5.2-2.1-3-2.9-3.1-7.6-.3-10.6l48.8-50.6c15.8-15.6 29.5-23.1 42.8-23.6l61-2.2c4.1-.2 7.6 3.1 7.8 7.2s-3.1 7.6-7.2 7.8l-61 2.2c-9.4.3-19.8 6.5-32.9 19.3-8.8 8.7-48.1 49.9-48.5 50.3-1.3 1.5-3.3 2.3-5.3 2.3z"/><path d="M765.2 880.9c-2.2 0-4.3-.9-5.8-2.7-2.6-3.2-2.2-7.9 1-10.6l55.7-45.8c13-10.4 29.4-12.4 36.3-12.1l31 1.7 31.4 1.7c4.1.2 7.3 3.8 7.1 7.9s-3.8 7.3-7.9 7.1l-31.3-1.7h-.2l-30.9-1.7c-3.7-.2-16.3 1-26 8.7L770 879.2c-1.4 1.1-3.1 1.7-4.8 1.7z"/></g><g class="I"><path d="M1417.2 1153c-24.7 1-49.4-14.3-78.5-24.8-52.2-18.9-112.5-28.1-166.9-35.1-55-7.1-97-29.2-98.8-89-.3-9-3.4-129.2 12.7-165 5-11.1 17.5-15.9 28.1-18.3 38.7-8.8 150.3-1.5 246.1 23.6 45.5 11.9 73.2 17.5 95.1 20.1 70.9 8.3 89.2 82.3 90.5 118 2.7 68.3-41 167-128.3 170.5z"/><path d="M1087.9 842.4l-71.7-4.2c17.9 39.9 11.8 131.7-8.7 155l65.7 10.9c98.9 15.7 159-151.6 14.7-161.7z"/></g><g class="J"><path d="M1096.8 880.5c-1.1 0-2.2-.2-3.3-.8-3.7-1.8-5.2-6.3-3.4-10.1.5-1 12.9-25.5 45.5-23.8 4.1.2 7.3 3.8 7.1 7.9s-3.7 7.3-7.9 7.1c-22.4-1.2-30.9 14.8-31.2 15.5-1.4 2.7-4.1 4.2-6.8 4.2zm23.3 145.2c-.7 0-1.5-.1-2.2-.3-18-5.6-36.6-22.7-41.6-38.1-1.3-3.9.9-8.2 4.8-9.4 3.9-1.3 8.2.9 9.4 4.8 3.4 10.7 18.6 24.2 31.8 28.3 4 1.2 6.2 5.4 4.9 9.4-.9 3.2-3.9 5.3-7.1 5.3z"/><path d="M1073.2 1011.6c-.4 0-.8 0-1.2-.1l-60.5-10.1c-4.1-.7-6.8-4.5-6.2-8.6.7-4.1 4.5-6.8 8.6-6.2l55.4 9.2c34.8-61.4 23.1-124.9 11.8-150.4-.3-.8-.6-1.6-.6-2.4-.1-.9-.5-9.5 7-17.7 9.1-9.9 25.4-14.9 48.6-14.9h.1c25 0 59 8.2 91.9 16.2 34.9 8.4 70.9 17.1 95.4 16 45.8-2.1 60.3.9 80.4 5.1l5.9 1.2c4.1.8 6.7 4.8 5.9 8.8-.8 4.1-4.8 6.7-8.8 5.9l-6-1.2c-19-4-32.7-6.8-76.6-4.8-26.6 1.2-63.7-7.7-99.6-16.4-32-7.7-65.2-15.7-88.4-15.7h-.1c-22.9 0-32.9 5.2-37.2 9.6-2.4 2.4-3.2 4.8-3.4 6 12.5 29.7 24.4 100.3-15.9 166.9-1.5 2.3-4 3.6-6.5 3.6z"/><path d="M1082.8 847.2h-.5l-60.4-4.5c-3.7-.3-6.4-3.5-6.1-7.1.3-3.7 3.4-6.4 7.1-6.1l60.4 4.5c3.7.3 6.4 3.5 6.1 7.1-.2 3.4-3.1 6.1-6.6 6.1z"/></g><path d="M1074.9 1004.1s-5.7 52.6 49.7 75" fill="none" stroke="#330094" stroke-width="13.284" stroke-linecap="round" stroke-linejoin="round" stroke-miterlimit="10"/><path d="M972 451.9s-.4 13.5 18 22c18.4 8.6-31.7 9.3-31.7 9.3l-9.7-22.3z" class="C"/></svg></g><g transform="matrix(.735769 0 0 .735728 978.118162 638.949672)"><svg width="617.603" height="332.116"><path d="M543.24 5.682l37.151-3.627s12.33-1.804 21.652 10.826 10.826 34.283 6.616 43.305L531.4 216.929c-2.919 6.064-7.641 11.098-13.575 14.272-8.545 4.571-23.233 10.203-46.646 13.018C431.152 249.031 543.24 5.681 543.24 5.681z" fill="#e82786"/><path d="M146.976 49.229L543.24 5.682l19.076 14.075s8.078 6.155 3.462 16.157L471.179 244.22 94.616 318.798z" class="B"/><path d="M146.976 49.229s17.939 12.606 17.454 30.545-69.814 239.024-69.814 239.024-47.527 12.313-63.213 8.555C14.834 323.384 1.46 300.737.034 284.577S42.81 108.245 42.81 108.245s22.054-59.258 104.167-59.016z" fill="#55d6f5"/><path d="M74.879 104.77c7.657-9.167 31.097-33.172 67.066-33.853 2.506-.047 4.809 1.363 5.959 3.59 3.708 7.182 9.464 23.552-8.029 33.773-20.15 11.773-52.041 11.804-64.01 3.767-2.429-1.631-2.862-5.031-.986-7.276zM52.681 91.379s-3.019 14.412 9.093 11.955c0 0 25.191-40.551 79.698-41.955 0 0 1.141-2.282-.79-5.091s-8.246-6.448-8.246-6.448-50.215 1.046-79.754 41.539zM565.354 3.944l.236-1.625a2.264 2.264 0 0 1 1.879-1.912c5.692-.93 23.702-1.19 32.061 9.859 0 0-17.101-1.678-25.083-.609-1.049.14-2.1.213-3.016-.317l-4.808-2.779a2.594 2.594 0 0 1-1.269-2.617zm12.098 15.067s-2.831 16.668 4.977 20.876 20.592 9.062 34.024 4.046c0 0 2.589-4.208 0-6.635s-9.548-11.166-13.755-16.506-21.523-4.531-25.245-1.78z" class="B"/><path d="M164.424 84.774a5.001 5.001 0 0 1-.621-9.961L564.7 24.054a5 5 0 0 1 1.255 9.921L165.058 84.734c-.213.027-.425.04-.634.04z" fill="#374047"/><path d="M52.352 332.117c-.157 0-.315-.007-.474-.022-11.081-1.043-19.569-5.538-25.229-13.362-11.931-16.492-6.349-41.74-6.105-42.807.013-.058.027-.115.042-.173l39.122-147.061a5 5 0 1 1 9.664 2.572L30.278 278.218c-.285 1.338-4.536 22.239 4.491 34.679 3.953 5.448 9.855 8.472 18.045 9.242a5 5 0 0 1-.462 9.978z" fill="#2197cc"/></svg></g><g transform="matrix(.750832 0 0 .745952 1345.733042 665.937272)"><svg width="169.032" height="199.472"><g class="D"><path d="M75.727 140.641c15.619-2.597 52.004-10.486 62.39-13.4 18.192-5.103 40.562 29.818 10.115 42.734-16.655 7.065-43.446 11.055-62.793 15.823-28.825 7.104-9.713-45.158-9.713-45.158Z"/><path d="M150.18 170.483c-19.925 11.614-49.564 18.821-66.436 23.496-34.826 9.649-54.007-29.823-17.462-40.817 26.334-7.921 55.958-23.976 71.835-25.921s43.09 25.156 12.063 43.242z"/><path d="M73.48 103.743c21.908-6.009 51.343-13.283 71.205-15.61s28.94 36.061 5.245 42.522-55.285 13.203-68.131 16.407-8.319-43.319-8.319-43.319z"/><path d="M156.31 133.72c-15.571 10.417-63.18 22.264-89.865 28.057-33.309 7.231-49.757-36.513-13.23-44.616 33.863-7.512 74.056-30.741 91.47-29.027s38.303 27.739 11.625 45.587z"/><path d="M65.897 59.176c19.653-7.981 51.629-16.096 65.988-20.491 24.331-7.448 47.091 24.941 22.665 40.775-20.693 13.413-62.051 24.421-75.448 27.782-11.631 2.918-13.205-48.066-13.205-48.066Z"/><path d="M156.292 86.215c-19.275 14.363-62.465 34.228-74.577 40.449-27.802 14.28-68.298-18.466-42.173-35.054 22.226-14.113 73.447-44.063 92.344-52.926s55.411 24.428 24.407 47.531z"/><path d="M144.048 24.388c7.992 20.911-56.637 53.415-87.34 67.683C23.8 107.364-9.193 72.151 18.356 55.229 43.911 39.531 90.558 3.336 104.793.805c25.404-4.517 34.399 10.878 39.255 23.583Z"/></g><g class="E"><path d="M40.357 102.891c-16.933 0-31.754-8.847-37.65-20.675-6.212-12.463-1.558-25.596 11.856-33.458 18.433-10.803 49.402-31.537 49.712-31.745a7.5 7.5 0 1 1 8.351 12.461c-1.284.86-31.653 21.193-50.479 32.226-6.628 3.885-8.652 8.536-6.016 13.824 4.272 8.57 20.153 16.928 37.693 9.624 25.474-10.611 69.686-34.838 83.678-53.139a7.499 7.499 0 0 1 10.513-1.402 7.5 7.5 0 0 1 1.403 10.514c-18.734 24.503-72.477 50.646-89.826 57.874-6.471 2.695-12.997 3.896-19.235 3.896z"/><path d="M65.557 137.378c-10.908 0-22.04-3.277-30.046-9.453-9.161-7.066-13.198-16.928-11.366-27.765a7.5 7.5 0 1 1 14.79 2.5c-.902 5.335.975 9.714 5.738 13.388 8.617 6.649 23.849 8.344 33.955 3.78 11.574-5.226 57.239-29.448 69.8-36.316a7.5 7.5 0 0 1 7.197 13.16c-10.895 5.958-58.146 31.104-70.823 36.828-5.792 2.615-12.476 3.878-19.244 3.878Z"/><path d="M57.441 169.62c-2.834 0-5.363-.224-7.518-.709-14.425-3.249-24.133-12.705-25.97-25.296-1.635-11.208 3.658-22.324 13.17-27.661a7.501 7.501 0 0 1 7.34 13.082c-4.134 2.319-6.412 7.309-5.667 12.414.918 6.295 6.176 10.97 14.423 12.828 16.909 3.798 82.711-19.15 99.863-27.328a7.5 7.5 0 0 1 6.456 13.539c-10.241 4.883-72.571 29.131-102.097 29.131z"/><path d="M58.559 199.472a7.458 7.458 0 0 1-3.736-1.002c-16.234-9.348-19.535-22.979-9.811-40.514a7.498 7.498 0 1 1 13.118 7.275c-5.08 9.158-5.75 14.523 4.178 20.24a7.5 7.5 0 0 1-3.749 14z"/></g></svg></g><g transform="matrix(.729587 0 0 .728952 356.673961 646.973012)"><svg width="1071.718" height="576.35"><g class="G"><path d="M46.326 528.41c52.735 17.476 95.717 14.517 119.292 24.811 22.324 9.747 93.071 14.122 148.925 4.558s155.325-81.811 193.859-75.677 109.208 50.852 147.637-57.017c28.966-81.304-54.067-186.591-87.05-213.919-55.414-45.911-113.149-18.559-169.071 7.651 0 0-63.847-13.975-106.999 2.169 0 0-71.909-35.853-146.931-.511C26.952 276.551-56.263 494.413 46.326 528.41z"/><path d="M668.328 224.929c8.051-19.719-73.928-35.307-87.761-17.972-25.928 32.49-8.9 232.918 57.057 255.801 46.115 15.999 91.592-2.36 111.636-29.3 14.655-19.699 10.123-48.712 10.123-48.712-46.924-3.219-120.981-107.636-91.055-159.816Z"/></g><g class="D"><path d="M672.884 220.427c19.939-14.632 123.13-103.329 141.386-130.071s130.255 146.913 98.021 189.929-85.234 99.961-123.773 106.86-63.397 3.726-77.235.929c-41.812-8.452-71.444-143.582-38.398-167.647z"/><path d="M814.27 90.357c27.94-31.437 49.698-81.324 63.459-87.944s114.416 2.305 131.158 3.957c26.265 2.591 30.765 48.589-3.377 48.068s-94.025-3.627-94.025-3.627l-43.958 84.793-53.257-45.247z"/><path d="M838.77 131.004s73.292-49.634 96.867-52.325 109.138 40.425 122.412 46.209c26.392 11.501 12.336 55.266-23.106 42.267l-88.461-31.908-68.216 45.591-39.496-49.834z"/><path d="M860.799 170.185s66.278-45.37 86.477-44.131 90.66 31.9 104.339 36.616c27.352 9.431 13.95 55.923-20.266 45.391s-74.912-24.721-74.912-24.721l-64.274 36.255-31.364-49.411z"/><path d="M878.524 219.783c13.267-11.574 63.963-46.376 77.678-47.666s59.799 21.432 76.914 32.326c29.127 18.539 6.325 56.881-22.378 41.586-23.382-12.46-43.402-22.242-43.402-22.242l-55.046 56.498-33.767-60.502z"/></g><path d="M860.806 177.686a7.5 7.5 0 0 1-4.097-13.787c3.205-2.085 7.079-4.734 11.564-7.802 32.252-22.052 62.696-41.502 80.688-37.351 19.677 4.54 111.076 38.215 114.957 39.646a7.5 7.5 0 0 1 4.441 9.632 7.499 7.499 0 0 1-9.632 4.442c-.941-.348-94.38-34.776-113.139-39.104-13.083-3.006-50.747 22.74-68.85 35.117l-11.851 7.992a7.463 7.463 0 0 1-4.083 1.215zm17.724 49.598a7.5 7.5 0 0 1-4.469-13.527l13.3-10.022c24.62-18.708 50.078-38.053 68.413-39.104 20.366-1.177 79.53 32.045 91.181 38.716a7.5 7.5 0 1 1-7.452 13.017c-27.372-15.667-71.178-37.415-82.87-36.759-13.764.789-39.509 20.353-60.196 36.072l-13.448 10.134a7.467 7.467 0 0 1-4.458 1.473zm-39.752-88.779a7.5 7.5 0 0 1-4.001-13.85l46.208-29.064a7.5 7.5 0 0 1 7.987 12.697l-46.208 29.064a7.466 7.466 0 0 1-3.986 1.152z" class="E"/><g class="H"><path d="M121.532 244.899a7.473 7.473 0 0 1-5.446-2.341 7.492 7.492 0 0 1 .27-10.582c.689-.655 17.221-16.173 46.99-25.931 26.894-8.816 70.19-14.42 124.469 8.409 12.205-2.149 68.98-11.226 107.915-1.672a7.5 7.5 0 0 1-3.574 14.568c-39.709-9.744-103.173 2.13-103.81 2.252a7.496 7.496 0 0 1-4.376-.481c-40.618-17.545-79.389-20.591-115.235-9.056-26.804 8.625-41.904 22.65-42.053 22.791a7.495 7.495 0 0 1-5.15 2.042Z"/><path d="M265.104 576.356c-70.369.003-112.837-19.521-124.015-25.391l-14.365 3.936a7.5 7.5 0 0 1-3.964-14.467l17.301-4.74a7.49 7.49 0 0 1 5.839.802c.485.287 50.866 29.521 141.491 24.197 47.164-2.773 84.298-26.406 117.061-47.257 31.292-19.913 60.848-38.724 93.009-34.904a7.507 7.507 0 0 1 1.71.41c.97.356 96.247 34.709 124.933-12.446-1.751-8.72-10.408-42.261-46.349-89.488-37.207-48.891-13.593-136.528-5.746-161.511-60.369-25.461-113.25-24.954-157.257 1.537-34.105 20.53-50.027 49.896-50.184 50.191a7.51 7.51 0 0 1-10.138 3.103 7.495 7.495 0 0 1-3.118-10.124c.704-1.331 17.668-32.878 55.058-55.631 21.998-13.386 46.502-20.922 72.833-22.398 32.56-1.825 67.939 5.686 105.14 22.329a7.498 7.498 0 0 1 4 9.366c-.368 1.035-36.505 104.314 1.348 154.054 44.641 58.659 49.523 97.479 49.709 99.104a7.496 7.496 0 0 1-.845 4.403c-14.636 27.236-43.584 34.982-71.763 34.984-33.446.003-65.812-10.905-71.93-13.08-26.56-2.758-52.44 13.715-82.359 32.756-34.303 21.831-73.182 46.574-124.233 49.577a394.8 394.8 0 0 1-23.169.688z"/><path d="M663.687 226.793a7.47 7.47 0 0 1-4.603-1.583c-35.479-27.626-72.657-8.114-74.222-7.271-3.641 1.962-8.188.615-10.161-3.015a7.49 7.49 0 0 1 2.979-10.154c1.907-1.045 47.224-25.189 90.62 8.605a7.5 7.5 0 0 1-4.613 13.417zm-11.473 249.866c-10.107 0-19.626-1.14-21.198-1.337a7.5 7.5 0 0 1-6.506-8.374c.515-4.108 4.268-7.026 8.374-6.509 5.955.744 23.369 2.22 32.325.137 1.978-.46 4.903-.824 8.951-1.328 16.918-2.106 56.537-7.038 71.567-28.268 6.041-8.531 7.625-18.873 4.845-31.615a7.5 7.5 0 1 1 14.656-3.197c3.678 16.854 1.236 31.483-7.258 43.48-18.853 26.63-61.474 31.935-81.956 34.484-3.185.396-6.193.771-7.404 1.053-4.762 1.108-10.673 1.474-16.394 1.474z"/></g></svg></g><g transform="matrix(.728542 0 0 .728117 1878.920496 663.749088)"><svg width="548.641" height="427.749"><path d="M175.144 23.387 62.407 250.216l-36.141-17.963c-23.399-11.63-32.941-40.027-21.311-63.427L75.576 26.735c11.63-23.399 40.028-32.94 63.427-21.311z" fill="#55d6f5"/><path d="m170.932 26.496-1.574 3.168c-1.145 2.304-4.152 3.139-6.716 1.864l-38.108-18.94c-6.311-3.137-12.773-5.295-19.105-6.516-2.555-.493-3.036-3.821-.629-4.481 10.55-2.894 22.623-1.922 33.737 3.602l29.827 14.824c2.564 1.274 3.714 4.175 2.569 6.479zM62.408 250.216 175.145 23.387l312.63 155.382-112.737 226.829z" class="B"/><path d="m543.686 259.392-70.621 142.091c-11.63 23.399-40.027 32.941-63.427 21.311l-34.6-17.197 112.737-226.829 34.6 17.197c23.399 11.63 32.941 40.027 21.311 63.427z" fill="#e82786"/><path d="m144.781 49.179-37.289-18.533c-9.265-4.605-6.288-13.103-4.064-17.277.749-1.406 2.569-1.914 4.101-1.152l51.921 25.805c1.532.762 2.227 2.519 1.558 3.965-1.985 4.293-6.962 11.797-16.226 7.193zm378.058 187.9-37.289-18.533c-9.265-4.605-6.288-13.103-4.064-17.277.749-1.406 2.569-1.914 4.101-1.152l51.921 25.805c1.532.762 2.227 2.519 1.558 3.965-1.985 4.293-6.962 11.797-16.226 7.193zm-36.238-53.691-1.574 3.168c-1.145 2.304.005 5.205 2.569 6.479l38.108 18.94c6.311 3.137 11.933 6.984 16.73 11.295 1.935 1.739 4.879.112 3.952-2.204-4.064-10.157-12.128-19.194-23.242-24.718l-29.827-14.824c-2.564-1.274-5.571-.44-6.716 1.864z" class="B"/></svg></g><g transform="matrix(.734587 0 0 .733931 2139.314369 800.145879)"><svg width="894.631" height="457.157"><g class="C"><path d="M339.212 259.709c-32.657 30.332-80.229 22.639-115.853 15.083-16.736.872-53.543-20.448-70.62-36.745-13.897-13.262-29.795-33.872-37.647-47.77C73.263 116.235 198.834.544 225.873 28.107l108.933 111.335s86.871 43.672 4.406 120.267z"/><path d="M225.873 28.107C203.084 1.878 126.473-1.508 107.839.469c-14.752 1.565-28.012 13.47-93.04 63.754-25.717 19.886 4.76 63.748 33.715 42.019l58.918-44.215 99.205 18.948 19.236-52.868Z"/><path d="M209.04 63.867s-85.229-20.273-97.319-19.284S88.2 53.91 9.961 102.201c-24.7 15.245.973 61.48 28.811 45.191l75.208-44.007 87.098 18.206 7.963-57.723z"/><path d="M192.183 87.179s-83.863-7.337-96.791-4.566-27.46 17.004-78.003 58.007c-24.123 19.57 9.579 61.442 34.963 41.18l55.348-44.181 75.787 5.964 8.697-56.404z"/><path d="M153.719 138.223s10.371 2.174-42.256-7.9c-22.147-4.239-46.227 13.088-48.704 28.404-7.693 47.583 1.592-9.844-5.85 35.879-5.69 34.959 45.331 41.784 51.546 7.77 1.282-7.014 2.715-12.32 2.715-12.32l29.147 12.086 13.401-63.918Z"/></g><g class="F"><path d="M58.941 175.96a7.5 7.5 0 0 1-7.446-8.471c5.011-38.397 36.638-53.658 55.396-54.258l6.2-.199q20.504-.663 46.299-.741l9.926-.031h.025a7.5 7.5 0 0 1 .025 15l-9.93.031q-25.575.078-45.86.733l-6.204.199C95.7 128.596 70.32 139.16 66.37 169.43a7.502 7.502 0 0 1-7.428 6.53zm52.237 21.597a7.5 7.5 0 0 1-7.332-9.116l4.923-22.339a7.5 7.5 0 0 1 14.648 3.228l-4.923 22.339a7.503 7.503 0 0 1-7.317 5.888zM7.632 137.398a7.5 7.5 0 0 1-5.428-12.675l55.114-57.145c17.712-17.417 32.875-25.78 47.716-26.319l68.906-2.501a7.51 7.51 0 0 1 7.767 7.223c.15 4.14-3.083 7.617-7.223 7.768l-68.905 2.501c-10.871.395-22.864 7.394-37.744 22.024-9.957 9.79-54.326 56.33-54.773 56.799a7.48 7.48 0 0 1-5.43 2.325z"/><path d="M13.162 148.845a7.5 7.5 0 0 1-4.771-13.29l62.847-51.736c14.437-11.571 32.69-13.828 40.323-13.413l34.884 1.896.146.008h.022l35.403 1.923a7.5 7.5 0 0 1 7.082 7.896c-.225 4.136-3.75 7.271-7.896 7.082l-34.549-1.877c-.183-.01-.361-.023-.536-.039-.102 0-.203-.003-.306-.007-.005 0-.026 0-.07-.004h-.018l-34.976-1.899c-4.249-.236-18.885 1.126-30.053 10.077l-62.771 51.674a7.47 7.47 0 0 1-4.762 1.71Z"/></g><g class="I"><path d="M749.437 457.105c-27.865 1.124-55.745-16.119-88.607-27.998-58.964-21.316-127.069-31.74-188.412-39.641-62.141-8.004-109.574-33.027-111.52-100.515-.292-10.141-3.868-145.89 14.336-186.334 5.658-12.571 19.79-17.977 31.752-20.704 43.726-9.969 154.783 29.868 265.195 32.278 53.104 1.159 96.659 9.702 120.144 17.076 76.92 24.154 100.739 92.882 102.195 133.235 2.786 77.191-46.576 188.631-145.082 192.603Z"/><path d="M377.542 106.336l-81.014-4.787c20.187 45.044 13.346 148.702-9.84 175.053l74.209 12.349c111.753 17.686 179.637-171.217 16.645-182.615z"/></g><g class="J"><path d="M387.566 148.43a7.51 7.51 0 0 1-3.317-.775c-3.718-1.825-5.24-6.345-3.414-10.063.566-1.154 14.287-28.24 50.411-26.296a7.5 7.5 0 0 1 7.086 7.893c-.223 4.136-3.734 7.288-7.893 7.086-25.959-1.394-35.761 17.188-36.166 17.979a7.459 7.459 0 0 1-6.708 4.176zm26.352 163.888a7.48 7.48 0 0 1-2.239-.343c-20.029-6.259-40.8-25.253-46.302-42.341a7.5 7.5 0 1 1 14.279-4.598c3.975 12.347 21.371 27.895 36.497 32.62a7.5 7.5 0 0 1 4.922 9.396 7.503 7.503 0 0 1-7.156 5.266z"/><path d="M360.899 296.451a7.46 7.46 0 0 1-1.233-.102l-68.303-11.367a7.5 7.5 0 0 1 2.463-14.797l63.219 10.521c39.897-69.82 26.581-142.271 13.646-171.32a7.511 7.511 0 0 1-.624-2.438c-.084-1.028-.583-10.3 7.702-19.298 10.063-10.927 28.287-16.474 54.168-16.487h.064c28.124 0 66.475 9.268 103.566 18.231 39.43 9.528 80.195 19.375 107.997 18.083 51.559-2.404 67.895.99 90.503 5.692l6.671 1.375a7.5 7.5 0 1 1-2.981 14.701l-6.745-1.391c-21.53-4.479-37.084-7.717-86.749-5.394-29.94 1.381-71.765-8.711-112.22-18.487-36.237-8.757-73.707-17.812-100.042-17.812h-.057c-26.804.014-38.255 6.342-43.142 11.648-2.727 2.961-3.492 5.761-3.705 7.095 14.073 33.168 27.686 112.731-17.784 187.925a7.5 7.5 0 0 1-6.416 3.619z"/><path d="M371.844 111.756a7.76 7.76 0 0 1-.568-.021l-68.214-5.111a7.5 7.5 0 0 1-6.918-8.04c.309-4.129 3.907-7.207 8.04-6.919l68.214 5.111a7.5 7.5 0 0 1-.553 14.979z"/></g></svg></g><defs ><path id="E" d="M764.3 774.5s62.7-42.5 82.9-44.8 93.4 34.6 104.7 39.5c22.6 9.8 10.6 47.3-19.8 36.2l-75.7-27.3-58.4 39z"/><path id="F" d="M798.3 850.4c11.4-9.9 54.7-39.7 66.5-40.8 11.7-1.1 51.2 18.3 65.8 27.7 24.9 15.9 5.4 48.7-19.1 35.6-20-10.7-37.1-19-37.1-19l-47.1 48.3z"/></defs></svg>