<svg xmlns="http://www.w3.org/2000/svg" width="3000" height="3000" xmlns:v="https://vecta.io/nano"><g transform="matrix(2.224891 0 0 2.231791 50 620)"><svg width="1288.153" height="970.521"><g fill="#ffd215"><path d="M739.373 958.354a1009.304 1009.304 0 0 1-47.917 5.91c288.244 32.309 515.331-61.395 556.441-260.7-113.282 126.71-294.739 223.189-508.524 254.79zM298.632 41.624C158.37 51.6 66.302 104.091 24.064 221.629 12.155 254.77 4.085 289.284 0 324.5 55.558 211.687 161.148 111.556 298.632 41.624z"/><ellipse cx="666.978" cy="451.499" rx="624.389" ry="446.883" transform="matrix(.9893 -.1462 .1462 .9893 -58.8526 102.3845)"/></g></svg></g><g transform="matrix(2.233133 0 0 2.229202 284 82)"><svg width="1084.575" height="1285.662"><path d="M680.187 376.091c-7.508-15.016-59.163-27.874-140.767-22.675s-107.454 17.23-127.071 34.134c-11.65 10.251-2.44 62.038-2.44 62.038 22.327-42.982 62.96-40.222 129.511-43.401 67.625-3.231 117.912-5.32 139.015 27.175 4.39-9.937 6.578-41.827 1.752-57.271z" fill="#40b509"/><rect fill="#e09273" height="343.606" rx="82.508" transform="matrix(.998613 -.05265 .05265 .998613 -18.502 29.033)" width="165.015" x="459.292" y="193.878"/><path d="M37.083 787.379c-26.884 32.849 200.33 109.441 237.195 78.976S90.487 722.127 37.083 787.379z" fill="#111"/><path d="M286.237 477.924c-75.638 15.19-165.046 219.071-195.79 271.203S-59.56 982.664 37.084 1067.58c76.394 67.123 170.191-49.228 231.146-187.455 50.078-113.562 78.866-189.814 78.866-189.814l-60.86-212.387z" fill="#e09273"/><g fill="#2471ed"><path d="M288.318 466.244C174.489 482.682 116.993 674.349 37.083 787.379c40.522-38.496 171.204 13.169 237.195 78.976l85.966-178.254-71.926-221.856z"/><path d="M806.198 735.456c2.486-50.958 1.243-329.365-39.772-326.879S648.9 421.743 648.9 421.743c-59.611 15.672-164.473 30.562-213.665 18.891l-146.916 25.611c-31.072 4.972-17.805 110.122-25.262 179.724S264.3 805.058 273 853.531c7.726 43.043-17.392 197.752-6.132 259.764 106.538 34.12 231.014 44.908 360.594 25.754 63.16-9.336 123.098-25.136 178.622-46.226 18.373-32.772-2.347-306.913.114-357.367z"/></g><path d="M325.726 724.601c62.988 9.694 362.473 4.371 426.826-18.494 7.413 0 12.813 157.105 9.819 188.238-80.548 35.231-283.841 42.974-434.41 17.556-9.053 2.366-17.28-135.486-2.235-187.3z" fill="#e3e5e5"/><path d="m462.881 435.935-27.648 4.698s1.428 76.593 87.12 73.718c87.059-2.922 121.014-68.499 126.545-92.609l-21.435 1.635-164.583 12.557zm305.88-17.866c97.568-9.509 178.249 111.988 242.4 232.172 59.757 111.954 91.96 218.606 62.11 298.792-26.191 70.358-160.24 48.641-213.755-75.66S752.875 639.009 752.875 639.009z" fill="#e09273"/><path d="M766.425 408.577c159.734-9.967 265.799 242.956 300.247 291.909-20.85 58.974-105.84 99.495-237.595 103.479 0 0-63.375-130.676-83.318-156.059s20.666-239.33 20.666-239.33z" fill="#2471ed"/><path d="M274.269 873.856a7.502 7.502 0 0 1-7.433-6.57c-9.66-77.254-13.378-144.044-10.47-188.066.273-4.133 3.836-7.245 7.979-6.989a7.5 7.5 0 0 1 6.989 7.979c-2.848 43.1.841 108.877 10.386 185.215a7.5 7.5 0 0 1-7.451 8.432z" fill="#004ebf"/><path d="M647.43 522.884c-7.837 24.021-16.432 52.944-32.393 59.665l-28.454-9.283c-22.168-7.232-30.868-41.514-19.431-76.572s38.679-57.615 60.848-50.383l28.454 9.283c7.642 14.917-1.628 44.619-9.023 67.289z" fill="#111"/><g fill="#40b509"><ellipse cx="635.745" cy="519.072" rx="66.77" ry="42.221" transform="matrix(.310146 -.950689 .950689 .310146 -54.905 962.48)"/><path d="M676.44 429.913s-8.835-10.786-20.638-15.678c-9.53-3.95 26.37-27.785 24.385-38.145 3.958 26.897 14.227 46.371-3.747 53.822z"/><path d="M680.187 376.091c3.773 10.254 10.261 29.607 14.126 52.73 1.211 19.417-3.057 61.261-15.266 73.656-12.477 12.667-30.148-33.804-30.148-33.804 6.887-9.118 14.629-28.327 20.797-41.482 7.58-21.437 12.061-40.227 10.49-51.1z"/></g><path d="M634.329 578.956c-2.768 0-5.484-.427-8.118-1.286-20.51-6.691-28.231-37.516-17.577-70.174 4.855-14.882 12.856-27.872 22.529-36.576 10.788-9.709 22.524-13.165 33.049-9.733a7.5 7.5 0 0 1-4.653 14.261c-5.134-1.676-11.826.738-18.363 6.622-7.75 6.974-14.25 17.656-18.302 30.079-8.456 25.918-2.587 47.818 7.968 51.261 4.736 1.545 9.721-.574 13.07-2.624a7.5 7.5 0 1 1 7.831 12.793c-5.83 3.569-11.74 5.377-17.435 5.377zm37.654-150.937a7.46 7.46 0 0 1-3.197-.72 7.5 7.5 0 0 1-3.58-9.984c6.942-14.704 9.492-28.171 7.577-40.029a7.501 7.501 0 0 1 6.209-8.6c4.088-.656 7.939 2.12 8.6 6.209 2.406 14.903-.562 31.33-8.821 48.824a7.502 7.502 0 0 1-6.787 4.3z" fill="#297700"/><path d="M438.763 526.666c4.088 20.262 9.581 52.528 15.469 63.941l29.581-5.712c8.741-1.764 9.865-32.746 2.51-69.201s-20.404-64.578-29.146-62.814l-29.581 5.712c-.454 12.523 7.489 49.847 11.166 68.075z" fill="#111"/><g fill="#40b509"><path d="M418.782 530.972l11.847 57.203s19.565 3.247 23.604 2.432c8.741-1.764 9.865-32.746 2.51-69.201s-20.404-64.578-29.146-62.814c-3.972.801-20.663 12.145-20.663 12.145-.896 12.775 7.834 40.344 11.847 60.236z"/><ellipse cx="418.782" cy="529.455" rx="16.147" ry="59.903" transform="matrix(.980247 -.197777 .197777 .980247 -96.441 93.283)"/><path d="M421.973 432.355c-7.15 6.805-8.647 14.054-10.064 17.233s-13.845-47.075.44-62.038c5.249-5.498 9.623 44.805 9.623 44.805z"/><path d="M412.349 387.55c-8.49 6.14-19.267 46.959-20.308 55.564-2.421 20.015-.205 45.643 8.992 78.59 10.25 36.72 18.052-35.511 17.749-45.489-.132-4.35 1.682-8.506 0-13.107-8.697-23.786-15.959-65.148-6.433-75.558z"/></g><g fill="#297700"><path d="M414.819 482.479a7.502 7.502 0 0 1-7.197-5.405c-7.572-26-10.474-73.676 6.782-98.267a7.5 7.5 0 0 1 12.278 8.616c-12.49 17.799-12.493 58.557-4.659 85.456a7.5 7.5 0 0 1-7.205 9.599z"/><path d="M430.621 595.677a7.502 7.502 0 0 1-2.426-14.597c2.731-3.825 5.19-22.964-.938-53.334s-15.815-47.059-19.816-49.525a7.5 7.5 0 0 1-1.99-14.835c22.522-4.535 35.146 54.632 36.511 61.395 3.291 16.313 4.667 32.088 3.874 44.421-1.018 15.838-5.635 24.696-13.723 26.328a7.53 7.53 0 0 1-1.491.149z"/></g><path d="M401.063 112.02c-7.588 28.074-57.6 214.314-43.159 240.364 19.448 35.081 134.056 53.268 206.01 14.485 66.761-35.984 70.27-153.733 61.964-191.525-32.189-146.46-207.095-128.886-224.815-63.324z" fill="#e09273"/><path d="M611.609 245.286c-17.78-14.502-26.649-72.192-21.635-98.38-20.622 4.654-64.769-16.14-66.688-36.462-10.075 15.832-58.179 11.375-59.951-9.299 0 0-47.81 46.889-91.87 13.394-32.217-24.492-20.059-73.774-.957-87.325 27.982-19.849 59.543-6.922 70.258.709 8.156-31.185 53.734-39.821 68.623-7.38 32.609-41.557 114.169-12.291 111.513 41.009 23.767-13.567 43.259 11.831 26.721 30.142 44.341-7.068 76.155 64.141 42.963 94.091 19.057 6.912 25.809 63.958-4.569 73.067 11.378 36.64-16.987 83.857-63.277 74.897l-1.65-31.835-9.48-56.627z" fill="#773a11"/><ellipse cx="525.123" cy="225.09" fill="#fff" rx="36.275" ry="30.826" transform="matrix(.082252 -.996612 .996612 .082252 257.6 729.917)"/><ellipse cx="525.123" cy="222.925" fill="#111" rx="26.584" ry="18.636" transform="matrix(.082252 -.996612 .996612 .082252 259.758 727.931)"/><ellipse cx="406.494" cy="221.786" fill="#fff" rx="33.498" ry="27.055" transform="matrix(.082252 -.996612 .996612 .082252 152.022 608.658)"/><ellipse cx="409.657" cy="220.925" fill="#111" rx="24.929" ry="17.475" transform="matrix(.082252 -.996612 .996612 .082252 155.783 611.021)"/><path d="M504.676 175.958c-13.494 5.47-21.996-15.806-8.957-23.063 18.197-10.128 53.141-7.153 66.488 9.038 11.106 13.472 1.83 24.749-6.213 19.004s-30.871-13.267-51.318-4.979zm-71.831-28.748c14.051 7.366 9.902 27.955-7.061 25.301-13.949-2.182-34.424-.425-43.659 6.235-6.373 4.596-11.273-8.98-5.236-16.682 8.698-11.097 43.332-21.471 55.955-14.854z" fill="#4f2000"/><path d="M433.285 283.706a7.504 7.504 0 0 1-7.173-5.321c-6.997-23.023 3.185-30.111 7.887-32.089 9.266-3.897 21.875 1.531 27.537 11.855a7.5 7.5 0 1 1-13.152 7.212c-2.277-4.152-6.981-5.907-8.567-5.241-.813.342-2.231 4.428.647 13.902a7.499 7.499 0 0 1-7.179 9.682zm42.368 60.746c-4.763 0-9.382-.641-13.594-1.956a7.5 7.5 0 1 1 4.469-14.319c15.45 4.819 36.218-3.522 41.153-16.534a7.5 7.5 0 0 1 14.026 5.32c-6.714 17.699-27.453 27.487-46.053 27.487z" fill="#a85f36"/><path d="M608.609 243.203c17.832-43.985 58.251-17.238 52.901 22.587-5.011 37.305-36.853 48.287-51.713 39.598s-7.787-45.909-1.189-62.185z" fill="#e09273"/><g fill="#a85f36"><path d="M622.184 292.248a7.502 7.502 0 0 1-7.4-6.339c-2.139-13.648 1.572-29.421 9.234-39.25 4.861-6.234 11.084-9.862 18-10.492a7.501 7.501 0 0 1 1.361 14.939c-2.719.248-5.253 1.855-7.531 4.777-5.108 6.551-7.734 18.203-6.245 27.704a7.5 7.5 0 0 1-7.419 8.662z"/><path d="M638.328 274.56a7.466 7.466 0 0 1-3.797-1.037l-13.009-7.655a7.5 7.5 0 1 1 7.608-12.928l13.009 7.655a7.5 7.5 0 0 1-3.811 13.965z"/></g><path d="M463.331 108.645a7.5 7.5 0 0 1-5.652-12.427c6.611-7.588 5.292-15.669 5.276-15.749a7.5 7.5 0 0 1 14.733-2.817c.118.617 2.759 15.269-8.7 28.42a7.483 7.483 0 0 1-5.658 2.573z" fill="#4f2000"/><path d="M477.109 394.969c-6.586 0-12.888-.311-18.696-.942a7.5 7.5 0 0 1-6.646-8.267 7.497 7.497 0 0 1 8.267-6.646c31.073 3.379 80.165-3.699 99.353-18.226a7.501 7.501 0 0 1 9.054 11.96c-19.058 14.427-58.622 22.12-91.332 22.12z" fill="#a85f36"/><g fill="#e09273"><path d="M37.083 1067.58c71.966 61.708 151.174 3.277 201.919-77.469s101.594-182.999 101.594-182.999l-72.967-145.07C162.084 772.175 46.604 823.451 41.596 881.104c-27.779 56.71-41.698 154.592-4.513 186.476z"/><path d="M267.629 662.042c30.485-18.399 110.853-40.431 141.169-43.852s41.426 168.595 18.906 178.148-60.103 17.389-100.309 15.173c-37.348-2.058-59.767-149.47-59.767-149.47z"/><path d="M267.629 662.042c12.918-18.203 28.107-64.033 39.104-77.181s29.708-34.101 37.326-63.897c7.83-30.63 45.759-25.928 40.915 6.174s-17.784 51.341-19.216 60.836c-2.401 15.912 13.29 29.293 31.42 33.212-28.082 31.063-105.381 55.157-129.548 40.856zm154.421 92.989c9-4.201 49.592-23.694 54.597-18.281s10.367 22.913 1.373 32.058c-6.675 6.787-30.5 21.067-50.315 27.531s-5.654-41.308-5.654-41.308z"/><path d="M421.331 715.012c10.305-4.074 54.577-22.235 59.962-16.764s10.563 30.317 3.288 37.37-39.475 22.378-54.698 25.515-8.553-46.121-8.553-46.121z"/><path d="M420.318 670.396c9.554-4.361 61.341-22.97 66.558-19.436s20.413 20.935 7.734 38.429-47.776 28.864-64.604 32.353-9.687-51.347-9.687-51.347z"/><path d="M408.798 618.19c19.848-3.187 71.911-11.245 82.495-4.213s15.84 28.784 4.749 37.979-63.727 21.047-71.396 22.995-15.848-56.76-15.848-56.76z"/></g><path d="M424.64 682.452a7.503 7.503 0 0 1-1.785-14.785c17.413-4.281 53.645-13.19 64.727-19.276a7.5 7.5 0 0 1 7.22 13.148c-11.819 6.49-41.485 14.085-68.365 20.694a7.569 7.569 0 0 1-1.797.219zm5.361 46.793a7.5 7.5 0 0 1-1.904-14.755c22.483-5.917 47.102-15.009 50.658-18.708a7.497 7.497 0 0 1 10.596-.428 7.502 7.502 0 0 1 .428 10.6c-9.4 10.198-55.89 22.522-57.864 23.042a7.525 7.525 0 0 1-1.914.249zm-.125 39.39a7.502 7.502 0 0 1-1.593-14.829c16.533-3.611 34.816-13.766 46.914-20.486a7.5 7.5 0 0 1 7.283 13.113c-12.866 7.146-32.309 17.945-50.996 22.027a7.516 7.516 0 0 1-1.608.174zM25.755 930.609a7.5 7.5 0 0 1-7.481-8.15c4.532-52.172 76.556-124.867 105.827-146.392a7.5 7.5 0 0 1 8.886 12.084c-26.753 19.673-95.712 88.897-99.771 135.605a7.501 7.501 0 0 1-7.463 6.852z" fill="#a85f36"/><g fill="#e09273"><path d="M1073.27 949.034c-32.4 85.031-232.205 143.968-321.364 167.204 0 0-132.535-98.939-101.398-121.534s184.298-128.249 248.276-143.559 189.407 58.73 174.486 97.889z"/><path d="M650.509 994.704c-30.883 22.336-86.226 82.955-103.972 104.925s112.265 83.222 133.871 63.659 55.893-26.877 71.499-47.05c10.088-13.04-101.398-121.534-101.398-121.534z"/><path d="M546.537 1099.629c-15.627 20.208-43.603 61.566-42.554 82.094s8.232 69.402 11.277 84.431c6.455 31.853 51.705 21.182 47.449-6.781l-10.021-69.905 31.876-62.899-38.027-26.939z"/><path d="M569.179 1113.789c-10.039 13.59-29.839 58.242-29.532 69.755s10.043 72.438 12.94 84.011c6.448 25.752 49.361 14.731 44.547-11.476l-12.147-63.061 22.113-56.949z"/><path d="M597.98 1129.288c-6.996 10.671-21.637 56.93-20.875 66.601s29.589 59.529 33.345 65.76c11.589 19.22 50.366-.503 35.733-24.42-9.462-15.465-23.103-42.154-23.103-42.154l12.751-46.066-37.852-19.721z"/><path d="M630.535 1146.249c-6.295 10.066-16.868 41.679-14.474 48.6s22.165 41.389 27.117 50.089c11.979 21.042 49.202-1.681 39.848-20.951l-17.392-34.628 14.773-26.071-49.873-17.038z"/></g><path d="M557.819 1284.383a7.472 7.472 0 0 1-3.398-.818c-4.964-2.528-9.944-8.26-16.268-50.073-3.323-21.975-5.559-44.873-5.973-49.24-1.305-13.754 19.686-61.83 31.311-75.353a7.5 7.5 0 0 1 11.375 9.779c-10.77 12.528-28.365 56.729-27.753 64.161 4.189 44.15 10.597 81.595 15.009 87.896a7.5 7.5 0 0 1-4.304 13.649zm4.499-13.389h.01zm30.515-33.113a7.498 7.498 0 0 1-6.723-4.166c-1.378-2.774-13.536-27.344-16.151-35.549-.849-2.662-2.428-7.618 7.078-35.637 4.885-14.399 10.81-29.207 14.137-36.393a7.5 7.5 0 1 1 13.612 6.304c-7.638 16.492-20.985 54.182-20.439 61.461 2.127 6.359 11.652 26 15.199 33.143a7.5 7.5 0 0 1-6.712 10.837zm56.306 20.74a7.486 7.486 0 0 1-2.308-.366c-3.849-1.244-8.18-4.376-22.248-30.219-7.092-13.028-13.758-26.603-15.343-30.068-1.602-3.502-2.296-9.157 3.42-26.664 3.503-10.731 8.015-21.606 11.068-28.205a7.5 7.5 0 0 1 13.613 6.299c-7.563 16.346-14.616 37.61-14.238 42.813 5.428 11.736 23.8 47.109 29.36 52.184a7.501 7.501 0 0 1-3.324 14.225zm3.553-14.028zm-1.248-.61l.008.002-.008-.002z" fill="#a85f36"/><g fill="#5917c1"><path d="M719.104 947.816c38.073 5.366 83.799 95.682 80.274 155.931l-38.875 10.257c-5.18-60.421-28.399-118.26-77.294-142.09l35.894-24.098z"/><ellipse cx="710.015" cy="962.156" rx="47.629" ry="26.307" transform="matrix(.904931 -.425558 .425558 .904931 -341.949 393.616)"/></g><ellipse cx="706.982" cy="955.706" fill="#111" rx="36.995" ry="17.609" transform="matrix(.904931 -.425558 .425558 .904931 -339.493 391.713)"/><path d="M707.598 998.494a7.5 7.5 0 0 1-1.278-14.89c15.979-2.784 31.258-14.411 36.25-23.587a7.5 7.5 0 0 1 13.176 7.168c-6.711 12.336-25.412 27.462-46.853 31.197a7.542 7.542 0 0 1-1.296.113z" fill="#330096"/><path d="M855.131 870.714a7.503 7.503 0 0 1-6.883-4.514 7.5 7.5 0 0 1 3.891-9.867c24.742-10.748 40.182-16.256 48.59-17.335a7.5 7.5 0 1 1 1.908 14.878c-4.658.598-16.164 3.896-44.522 16.215a7.47 7.47 0 0 1-2.984.623z" fill="#a85f36"/><path d="M808.034 768.89a7.5 7.5 0 0 1-6.718-4.155c-8.26-16.569-28.932-57.659-42.458-81.295a7.499 7.499 0 1 1 13.018-7.45c13.719 23.973 34.547 65.368 42.865 82.053a7.501 7.501 0 0 1-6.706 10.848z" fill="#004ebf"/></svg></g></svg>