<svg xmlns="http://www.w3.org/2000/svg" width="1961" height="2999" xmlns:v="https://vecta.io/nano"><g transform="matrix(1.154227 0 0 1.154003 41.538462 321.923077)"><svg width="1464.517" height="2248.695"><g fill="#e09273"><path d="M1300.162 163.161c-.41-4.439-10.845-45.422-10.797-50.547s5.965-32.715 6.584-34.98 6.326-19.739 10.403-26.738 23.478-6.578 21 9.595c-2.331 15.214-4.279 22.953-4.269 23.909.005.512-.541 17.738 4.381 20.912 6.553 4.225 12.207-3.84 20.561-12.36 8.213-8.377-9.747 49.795-10.624 53.342s-15.74 32.208-17.684 31.406-19.555-14.538-19.555-14.538z"/><path d="M1406.134 200.056c2.643-4.28 31.394-61.816 33.673-66.135s-20.434-36.739-55.651-49.521c-18.716-6.793-45.5-.865-49.629 5.097-16.984 24.522-18.166 48.994-18.149 63.081s-.244 28.696 2.626 28.957 87.13 18.522 87.13 18.522zM808.305 1697.927l174.88 89.287-105.692 207.015-174.88-89.287zm-269.578-353.54 13.304 195.904-231.901 15.748-13.304-195.903z"/></g><g fill="#e3e5e5"><path d="M1056.569 921.622c11.739 41.478 28.156 261.13 29.469 384s3.293 186.783-3.382 223.043c-6.99 37.972-30.783 108.261-37.043 156.783s-7.043 89.217-9.391 106.435-37.565 57.391-48.522 57.391-217.304-96.783-217.304-96.783-7.826-51.652 10.957-80.609 1.565-3.913 27.391-85.304l37.565-120.522c3.13-7.826 4.696-198 1.565-211.304s-31.304-401.478-24.261-406.957 106.435-27.391 131.478-23.478 101.478 97.304 101.478 97.304z"/><path d="M932.395 1040.317c0 48.522-11.443 98.121-56.348 214.435-44.716 115.826-117.391 226.957-140.87 253.565s-49.224 41.904-116.529 53.643c-56.549 9.863-90.862 30.096-119.819 11.313-28.777-18.666-45.241-227.967-45.241-227.967s4.546-32.525 27.241-34.931 63.391-5.537 63.391-5.537 5.739-19.043 16.696-23.739 34.174 8.87 34.174 8.87 48.522-86.87 84.522-191.739 60.261-201.913 71.217-219.913 140.87-90 160.435-77.478 21.13 239.478 21.13 239.478z"/></g><path d="M374.134 222.14s-37.304-49.64-42.522-64.249c-1.256-3.517 48.261-34.174 55.043-33.913s28.435 20.87 42.783 31.304 25.826 26.87 27.13 40.435-82.435 26.423-82.435 26.423z" fill="#e09273"/><path d="M938.191 1002.274a5.001 5.001 0 0 1-4.976-5.555c3.472-31.112.336-75.737-.328-84.366a5 5 0 0 1 9.971-.767c.676 8.787 3.867 54.239.295 86.242a5 5 0 0 1-4.963 4.446z" fill="#b7b7b7"/><path d="M772.575 922.68c54-3.391 202.08-9.145 275.159 26.594 10.807-27.591-14.905-39.913-15.166-40.696s-35.739-48.783-53.217-54.783-60.783-14.87-103.304-2.609-72.261 39.913-72.261 39.913l-31.211 31.58z" fill="#656c72"/><path d="M947.412 932.05c-20.841 0-39.419-1.696-56.335-5.121a5 5 0 0 1-4-4.625c-.741-13.402.014-26.733 2.243-39.623a5 5 0 0 1 4.854-4.148c27.581-.4 54.034 1.098 78.623 4.449a5 5 0 0 1 4.318 4.692c.787 15.008.046 28.002-2.264 39.724a5 5 0 0 1-4.643 4.026c-7.895.416-15.485.625-22.796.625zm22.533-5.618h.01zm-73.054-8.565c20.077 3.686 42.678 4.922 68.835 3.764 1.422-8.805 1.943-18.453 1.582-29.283-21.659-2.741-44.759-4.038-68.788-3.861-1.405 9.612-1.951 19.461-1.628 29.38z" fill="#111"/><path d="M805.091 269.969s6.819-36.525-26.609-51.13c-35.601-15.555-76.174 7.601-89.239 47.701-12.948 39.741-28.153 57.132-65.196 57.132-38.092 0-93.913 9.495-119.478 67.375s-6.783 123.37 16.174 149.842c19.826-46.571 55.095-80.51 89.217-80.51 50.609 0 121.043-8.322 151.304-85.539s43.826-104.87 43.826-104.87z" fill="#773a11"/><path d="M813.895 272.349c-8.148-12.423-21.391-6.101-30.783 2.216s-15.13 21.883-5.217 27.1 36-29.316 36-29.316z" fill="#111"/><path d="M1007.134 532.404s39.427-31.265 72.391-53.217c34.098-22.708 61.043-36 65.739-39.913s17.217-31.304 36-30.522c-12.522-20.348 3.913-36.783 18.783-56.348s43.043-97.043 43.043-97.043-7.043-16.435 0-25.826 25.043-18.783 34.435-22.696 50.87-3.13 75.13 4.696 43.043 36 43.043 36-8.609 69.652-19.565 88.435-15.652 14.92-21.913 33.677-30.04 116.581-35.519 132.236-22.102 31.183-49.786 49.929c-18 12.188-51.201 45.698-63.652 55.463-49.565 38.87-94.696 70.957-144.522 88.696-44.883 15.979-53.609-163.565-53.609-163.565z" fill="#5ac4ff"/><g fill="#e09273"><path d="m907.966 540.867-50.07-2.013c-14.677-.59-29.395-10.903-28.805-25.58l5.972-68.583c.59-14.677 12.966-26.097 27.644-25.507l50.07 2.013c14.677.59 26.097 12.966 25.507 27.644l-2.674 66.52c-.59 14.677-12.966 26.097-27.644 25.507z"/><path d="M937.547 287.685c14.87 9.391 30.066 30.328 33.196 49.11s9.785 25.854 17.609 41.478c14.87 29.696 12.652 75.095-21.522 92.348-36.571 18.463-78.763 7.164-94.304 3.522-25.043-5.87-59.87-28.957-70.043-53.609s-13.52-102.522 28.849-122.087 83.145-25.333 106.216-10.763z"/></g><path d="M831.331 407.23c5.289 1.11 12.238 2.739 14.586-1.957s-8.467-25.057-8.467-25.057 28.423-20.835 31.945-63.769c54-5.87 78.617-20.312 78.617-20.312s4.491 4.522 6.868 7.644c1.777-8.854-.18-28.419-26.789-41.332s-97.043-16.043-139.696 24.261-36 103.304-21.13 131.478c15.207 28.813 45.546 48.951 66.99 46.584 6.018-18.392 6.183-24.28 6.183-24.28l-9.108-33.261z" fill="#773a11"/><path d="M801.809 494.122a4.985 4.985 0 0 1-3.615-1.546c-7.408-7.752-9.324-21.175-4.882-34.198 2.749-8.06 7.605-14.927 13.675-19.339 6.596-4.794 13.852-6.199 20.431-3.954a5 5 0 0 1-3.229 9.464c-3.412-1.164-7.434-.248-11.324 2.579-4.417 3.21-8 8.352-10.089 14.478-3.151 9.238-2.063 19.132 2.647 24.061a4.999 4.999 0 0 1-3.615 8.454z" fill="#e3e5e5"/><path d="M835.352 406.448c-8.005-12.007-31.696-18-41.478 0-10.532 19.379 12.522 49.304 41.087 41.87 25.27-6.577 7.435-31.304.391-41.87z" fill="#e09273"/><g fill="#5ac4ff"><path d="M828.308 479.831c6.366-1.177 29.507 16.732 63.923 17.947 44.32 1.565 50.925-8.222 56.403-7.44s14.943 37.413 14.674 42.109-28.957 33.261-81.391 24.261-72.783-30.13-73.957-31.696 14.836-44.163 20.348-45.182z"/><path d="M741.439 511.274s54.523-4.696 97.826 18.783c61.826 10.174 102.522-.587 102.522-.587s64.565-10.935 85.696 5.674c14.87 29.913 47.817 101.818 49.696 144.391 2.348 53.217-26.417 73.332-23.287 106.985s20.156 95.711 27.2 123.102 6.276 45.913-14.087 83.217c-4.643-19.758-13.565-39.13-13.565-39.13s-40.696-12.261-56.019-58.174c-26.416-18-94.764-18-121.373-13.304-20.348 25.043-75.391 40.435-130.174 42.522-6.261 10.174-22.142 33.871-22.142 33.871s-4.206-17.697-6.554-44.306 17.217-80.609 18-95.478-36-111.13-44.609-155.739 26.609-141.652 50.87-151.826z"/><path d="M755.907 518.317s-136.555-77.896-179.598-89.035c-1.565-22.095-13.304-47.363-25.043-62.903s-29.739-78.931-31.304-86.757 4.696-37.565-36-58.696-105.652 16.435-113.478 29.739-21.148 35.217-11.756 54.783c7.519 15.666 21.93 22.696 24.278 29.739s35.694 124.684 46.957 171.391c8.87 36.783 30.261 56.609 45.391 64.174 23.302 11.651 42.261 11.739 93.645 47.678 56.348 39.411 149.746 86.93 152.094 87.713s34.816-187.826 34.816-187.826z"/></g><path d="M904.221 441.665c-7.703-10.094 1.957-19.383 14.087-14.478 8.722 3.526 19.565 1.113 27-.617s12.537 5.643 3.522 16.975c-10.957 13.772-33.261 12.99-44.609-1.88z" fill="#fff"/><g fill="#a85f36"><path d="M830.272 432.103a5 5 0 0 1-4.984-4.67c-.309-4.679-2.801-9.494-6.347-12.267-2.747-2.148-5.842-2.932-9.2-2.33a5 5 0 0 1-5.804-4.039 4.999 4.999 0 0 1 4.039-5.804c6.19-1.111 12.112.375 17.125 4.295 5.774 4.515 9.669 11.981 10.166 19.484a5 5 0 0 1-4.994 5.33z"/><path d="M812.505 430.086a5 5 0 0 1-4.975-5.564c.934-8.225 6.959-14.047 14.995-14.488a5 5 0 1 1 .548 9.985c-3.13.172-5.226 2.276-5.606 5.63a5.002 5.002 0 0 1-4.962 4.437zm125.419-24.899a5 5 0 0 1-5-5c0-8.323 7.086-13.964 13.754-15.046 7.02-1.142 12.97 2.351 15.152 8.895a5 5 0 1 1-9.487 3.164c-.246-.739-.905-2.699-4.063-2.188-2.576.418-5.356 2.516-5.356 5.176a5 5 0 0 1-5 5z"/></g><path d="M890.917 395.101a5.002 5.002 0 0 1-4.719-6.653c2.511-7.175 9.474-12.94 17.739-14.688 7.894-1.67 15.507.662 20.888 6.397a5 5 0 1 1-7.293 6.842c-4.014-4.279-8.945-4.002-11.526-3.456-4.767 1.008-9.031 4.384-10.37 8.208a5.003 5.003 0 0 1-4.719 3.35zm61.022-20.201a5 5 0 0 1-4.995-5.311c.49-7.891 5.233-14.041 12.689-16.45 6.899-2.229 14.134-.557 18.005 4.16a5 5 0 1 1-7.73 6.343c-1.034-1.26-4.08-1.996-7.2-.988-2.025.654-5.47 2.506-5.783 7.555a5 5 0 0 1-4.985 4.69z" fill="#111"/><path d="M916.236 486.334c-11.043 0-23.899-1.176-34.247-4.917a5 5 0 1 1 3.4-9.404c17.19 6.216 42.687 4.306 50.029 2.907a5 5 0 1 1 1.872 9.824c-4.249.81-12.049 1.592-21.054 1.592z" fill="#a85f36"/><path d="M812.425 498.711a19.56 19.56 0 0 1-6.349-1.052c-2.979-1.016-5.63-2.726-7.882-5.083a5 5 0 0 1 7.23-6.908c1.131 1.184 2.437 2.034 3.88 2.527 7.574 2.583 17.379-5.229 21.414-17.057s1.045-24.004-6.528-26.587a5 5 0 0 1 3.229-9.464c13.141 4.482 18.748 21.736 12.764 39.28-5.035 14.76-16.44 24.344-27.757 24.345z" fill="#e3e5e5"/><path d="M1283.004 165.361c11.739-8.217 48.522-4.696 72 2.348s55.785 28.613 60.261 36.833c5.087 9.341-2.348 50.82-19.565 55.515-14.231 3.881-39.522-8.217-40.696-8.609s-78.414-31.366-86.087-38.047c-10.174-8.859.87-38.787 14.087-48.04zm-938.348 56.348c4.65-8.365 31.826-26.87 57.913-34.957s65.217-11.739 73.826-8.348 30.783 39.913 22.696 56.348-120.902 41.987-134.087 40.957c-16.696-1.304-28.209-39.859-20.348-54z" fill="#5ac4ff"/><path d="M899.891 561.084c-.973 0-1.93-.011-2.874-.033-36.738-.851-77.837-18.827-91.617-40.071a5 5 0 1 1 8.39-5.442c10.68 16.466 46.764 34.666 83.458 35.516 19.035.442 45.063-3.688 60.953-25.865a5 5 0 1 1 8.129 5.825c-17.622 24.595-45.301 30.072-66.44 30.072zm-178.804 150.06a4.982 4.982 0 0 1-2.265-.545l-32.181-16.385a5 5 0 1 1 4.537-8.911l32.181 16.385a5 5 0 0 1-2.272 9.456zM876.046 887.23a5 5 0 0 1-3.706-8.355c3.531-3.901 13.293-14.892 16.029-18.843a5.001 5.001 0 0 1 8.222 5.692c-3.665 5.294-16.3 19.269-16.836 19.862a4.988 4.988 0 0 1-3.708 1.645zm121.367 13.305a5 5 0 0 1-.584-9.965c.367-.046 24.651-3.274 37.21-23.856a5 5 0 1 1 8.537 5.209c-15.181 24.88-43.384 28.44-44.577 28.579a5.057 5.057 0 0 1-.586.034zm79.831-205.777a5 5 0 0 1-4.978-4.585c-2.9-34.831-33.207-75.305-33.512-75.71a5 5 0 0 1 7.976-6.031c1.32 1.745 32.358 43.167 35.501 80.911a5 5 0 0 1-4.988 5.416zm154.885-246.57a5.004 5.004 0 0 1-4.912-4.095c-4.73-25.679-46.054-30.324-46.471-30.368a5.002 5.002 0 0 1-4.452-5.492 4.994 4.994 0 0 1 5.485-4.454c2.005.207 49.186 5.461 55.272 38.502a5 5 0 0 1-4.924 5.907zm127.764-85.905a5 5 0 0 1-4.917-5.936l7.638-40.095a4.997 4.997 0 0 1 5.847-3.976 5 5 0 0 1 3.976 5.847l-7.638 40.095a5.002 5.002 0 0 1-4.906 4.065zm35.811-97.226a4.998 4.998 0 0 1-4.375-2.573c-17.532-31.552-87.18-49.558-121.636-44.145a5.001 5.001 0 0 1-1.551-9.879c19.256-3.025 47.048.326 72.525 8.747 16.901 5.586 47.093 18.265 59.404 40.42a5 5 0 0 1-4.366 7.429zm-144.794 19.47a5 5 0 0 1-4.964-4.456c-.578-5.275-5.592-18.246-7.476-22.799a5 5 0 1 1 9.24-3.823c.749 1.81 7.34 17.905 8.176 25.532a5 5 0 0 1-4.977 5.545zM535.617 485.026a5 5 0 0 1-2.61-9.268c22.644-13.827 38.597-48.212 38.756-48.557a5 5 0 0 1 9.092 4.162c-.697 1.524-17.362 37.497-42.637 52.93a4.973 4.973 0 0 1-2.601.733zM358.903 278.524a5 5 0 0 1-4.457-7.259c12.769-25.214 94.572-52.277 145.685-41.402a5 5 0 1 1-2.081 9.781c-48.345-10.287-124.64 16.308-134.682 36.139a5 5 0 0 1-4.465 2.742zm55.405 75.751a4.997 4.997 0 0 1-1.689-.295c-.864-.31-21.34-7.741-36.227-20.031a5 5 0 0 1 6.367-7.711c13.516 11.159 33.045 18.26 33.241 18.331a5 5 0 0 1-1.692 9.706z" fill="#2199ce"/><path d="M757.085 389.082a5.001 5.001 0 0 1-4.867-3.876c-10.304-44.618 19.084-86.369 20.34-88.125a5 5 0 1 1 8.133 5.82c-.411.579-27.981 39.995-18.73 80.056a5 5 0 0 1-4.876 6.126z" fill="#4f2000"/><g fill="#e09273"><path d="M369.178 145.369c0-.783-3.913-47.382-4.696-52.078s2.805-35.069 3.391-43.661c.783-11.478 21.393-14.515 21.652 5.739.261 20.348 1.826 40.174 1.826 40.174l7.677 40.435c8.081 7.628-29.851 9.391-29.851 9.391zm-37.566 12.522c-6.973-12.452-19.51-52.754-21.913-64.917-1.565-7.923 0-61.083 2.087-73.083s22.018-16.411 23.061 1.85 3.025 57.629 6.417 68.585 24.821 54.261 23.106 55.043-25.454 25.565-32.758 12.522z"/><path d="M354.525 145.369c0-.522-20.087-46.435-21.949-55.826-1.298-6.547-4.92-52.435-3.877-64.957s20.348-16.174 22.957 1.304l8.087 52.174c1.304 3.913 22.696 55.043 22.957 56.087s-28.174 11.217-28.174 11.217z"/></g><path d="M371.39 140.979a5.002 5.002 0 0 1-4.897-4.019l-6.014-30.122c-.824-4.225-.981-12.532-.996-13.466a5 5 0 0 1 4.918-5.08 5.002 5.002 0 0 1 5.081 4.917c.038 2.293.257 8.866.812 11.715l6.004 30.071a5 5 0 0 1-4.908 5.983zm-27.176 1.957a5.002 5.002 0 0 1-4.801-3.612l-12.58-42.498c-1.485-4.576-1.607-9.624-1.971-24.609l-.33-12.79-.361-9.86c-.815-19.915-1.404-34.303 7.535-38.142a5 5 0 0 1 4.015 9.158c-.195.196-1.41 1.671-1.823 8.372-.338 5.487-.045 12.635.265 20.203l.366 9.986.331 12.83c.319 13.138.451 18.576 1.486 21.766 2.703 8.33 12.269 41.403 12.675 42.806a5 5 0 0 1-4.805 6.39z" fill="#a85f36"/><path d="M760.221 1737.622c8.214-3.36 43.826 31.304 114.783 55.826s137.389 40.174 143.128 44.87-.522 51.13-31.826 59.478-96.753-16.828-142.606-36c-48.394-20.235-95.717-43.318-101.217-68.869-2.016-9.363 6.261-50.609 17.739-55.304zm-361.565-404.87c6.905-22.251 57.391-19.826 62.087-14.609s2.087 81.913 22.957 142.435 38.101 121.043 39.144 129.391-57.28 13.946-65.231 9.913c-25.715-13.043-34.957-60.522-47.478-127.304-11.848-63.189-16.174-124.696-11.478-139.826z" fill="#e3e5e5"/><g fill="#b7b7b7"><path d="M849.561 1321.515a5 5 0 0 1-4.497-7.18c14.733-30.441 64.039-137.524 79.926-237.356a5 5 0 1 1 9.876 1.572c-16.102 101.184-65.917 209.388-80.801 240.141a5 5 0 0 1-4.504 2.823zm-267.775 20.048a5 5 0 0 1-5-5c0-15.268 13.126-47.156 13.685-48.506a5 5 0 0 1 9.24 3.824c-3.595 8.689-12.925 33.654-12.925 44.682a5 5 0 0 1-5 5zm-44.608-12.157a5 5 0 0 1-4.704-6.695l7.043-19.565a5 5 0 1 1 9.409 3.387l-7.043 19.565a5.002 5.002 0 0 1-4.705 3.308zm-16.385 256.324a4.996 4.996 0 0 1-4.15-2.205c-27.889-41.361-48.374-130.817-59.24-258.697a5 5 0 0 1 4.559-5.405 4.991 4.991 0 0 1 5.405 4.559c13.546 159.421 38.782 226.094 57.567 253.953a5 5 0 0 1-4.141 7.796z"/><path d="M505.163 1492.809c-5.749 0-11.735-.905-18.099-2.68a5 5 0 0 1 2.686-9.633c14.236 3.971 30.278 4.999 51.079-14.201a5 5 0 1 1 6.783 7.347c-14.073 12.99-27.44 19.166-42.45 19.166zm297.319 200.509a5.003 5.003 0 0 1-4.707-3.314c-3.693-10.298-6.158-22.036-8.139-31.467l-1.985-9.032a5 5 0 0 1 3.655-6.053 4.997 4.997 0 0 1 6.053 3.655c.63 2.55 1.294 5.713 2.063 9.375 1.918 9.131 4.305 20.496 7.766 30.147a5 5 0 0 1-4.707 6.689zm205.996 146.086a5.63 5.63 0 0 1-.259-.006c-82.208-4.184-203.984-62.533-242.829-98.326a5 5 0 1 1 6.776-7.354c37.8 34.83 156.412 91.614 236.561 95.693a5.001 5.001 0 0 1-.249 9.994z"/><path d="M851.008 1792.826a4.998 4.998 0 0 1-4.353-2.532c-8.065-14.205-6.722-49.347-.472-72.002a4.999 4.999 0 1 1 9.639 2.659c-6.226 22.568-6.455 53.868-.472 64.405a5.001 5.001 0 0 1-4.343 7.47zm137.734-86.987a5 5 0 0 1-3.624-8.444c23.204-24.425 55.286-84.955 74.455-121.121l12.768-23.755a5 5 0 0 1 8.724 4.888c-3.225 5.756-7.596 14.002-12.656 23.55-20.664 38.988-51.892 97.906-76.04 123.325a4.984 4.984 0 0 1-3.626 1.556z"/></g><path d="M949.908 2195.112c-.417-2.869-3.569-7.654-11.091-6.594-8.567 1.207-11.632 17.778-3.39 18.974s14.915-9.389 14.481-12.379z" fill="#b7006d"/><path d="M833.969 2067.164c-4.35-67.863 38.699-157.479 48.821-162.583 5.976-3.013 38.571 16.991 42.301 25.562-7.066 12.606-17.355 32.242-34.935 50.95l-56.187 86.07z" fill="#ea2688"/><path d="m649.299 2080.672 53.267 1.832 12.735-16.419-49.032-4.603" fill="#111"/><path d="M639.369 1974.141c1.717-7.932 95.786-151.217 95.786-151.217 3.541-.189 6.8-.014 8.668 1.314l-4.736 9.276c14.548 34.079 51.291 67.185 57.82 67.423 9.861.359 25.307-.18 34.124 1.613s81.376 45.638 81.376 45.638c-21.489 35.675-41.118 75.899-59.378 119.475 0 0 8.284 54.441 20.085 61.659s72.653 11.101 70.969 59.706-173.225 42.789-211.55 19.865-18.291-115.317-48.735-164.346l-44.429-70.406z" fill="#ea2688"/><path d="M949.908 2195.112c1.877 12.47 2.864 24.23 1.837 34.384-16.322 18.202-189.621 34.114-233.834-4.908-41.071-36.25-24.707-135.223-51.643-163.106l-16.97 19.189s-53.621-85.478-42.293-100.542 38.275-34.452 38.275-34.452c14.843-12.299 36.415 65.175 53.453 101.937 30.974 66.831 17.043 122.839 38.268 141.928 26.478 23.814 145.304 43.025 212.907 5.569zm-250.3-153.552a5 5 0 0 1-3.179-8.862c16.2-13.323 24.819-38.435 23.646-68.896-1.081-28.095-10.392-57.066-24.298-75.608a5 5 0 0 1 8-6c15.062 20.082 25.136 51.205 26.291 81.223 1.313 34.106-8.378 61.453-27.288 77.004a4.981 4.981 0 0 1-3.173 1.138zm113.07 28.274a5 5 0 0 1-4.947-4.321c-6.684-48.703 23.312-132.998 34.402-156.567a5 5 0 1 1 9.049 4.257c-10.767 22.882-39.924 104.459-33.543 150.95a5 5 0 0 1-4.96 5.68z" fill="#b7006d"/><path d="M840.794 2068.333a5 5 0 0 1-1.445-9.788l11.868-3.588c-1.791-4.308-4.167-10.688-5.582-17.158a4.999 4.999 0 0 1 5.208-6.058c5.399.349 11.098.235 14.754-.21-6.017-8.333-8.163-21.318-8.72-25.52a8.402 8.402 0 0 1-.172-1.709 5 5 0 0 1 9.558-2.057c2.353-.124 6.904-1.466 12-3.475-5.858-7.737-6.053-20.839-6.046-22.854a4.998 4.998 0 0 1 7.941-4.027c3.314 2.412 9.956 1.208 15.821-.786-3.948-3.654-7.431-8.54-10.847-13.334-2.269-3.184-4.413-6.191-6.451-8.455a5 5 0 0 1 7.432-6.692c2.419 2.687 4.723 5.92 7.162 9.342 4.66 6.538 9.941 13.948 14.698 14.955a5 5 0 0 1 1.361 9.281c-1.847 1.009-15.159 8.013-26.483 6.858.945 5.594 2.985 11.26 6.396 11.405a5 5 0 0 1 2.008 9.475c-7.304 3.621-16.182 7.336-23.072 8.083 1.345 5.564 3.585 12.025 6.917 15.309 3.835 3.78 2.86 7.286 2.263 8.617-.803 1.791-2.797 6.255-20.251 6.049 2.367 7.525 5.429 13.831 5.468 13.911a5.001 5.001 0 0 1-3.045 6.983l-17.292 5.228c-.482.146-.97.215-1.449.215z" fill="#111"/><path d="M65.928 1716.172c6.453.498 8.002-14.367.529-17.735s-12.039 2.549-12.959 8.853 6.343 8.412 12.431 8.881z" fill="#b7006d"/><path d="m52.771 1422.913 23.998 43.764 28.32 6.878-24.082-45.043" fill="#111"/><g fill="#ea2688"><path d="M364.795 1555.143c-129.142-4.441-160.643 43.686-194.399 78.762-17.137 17.807-10.732 46.443-35.199 66.144s-89.31 5.266-89.31 5.266-33.019-51.699-20.736-121.593c13.283-75.583 103.462-226.971 103.462-226.971l226.683-8.087c3.958.496 3.817 7.915 3.817 7.915l-6.827.53c-10.293 25.655-12.869 62.212-13.506 66.924-.709 5.243 18.428 21.077 19.58 29.696s-4.855 77.549 6.435 101.412z"/><path d="M214.548 1539.27c28.11-14.137 127.02-42.101 162.66-32.28 8.661 2.386 12.066 44.146 5.284 50.433-7.06 6.544-54.924-.256-78.353.028s-89.591-18.18-89.591-18.18z"/></g><g fill="#b7006d"><path d="M65.928 1716.172c-16.137-.342-31.135-1.489-43.186-4.714 0 0-33.46-46.935-19.209-125.883 18.543-102.726 43.505-88.741 77.473-157.062l-28.236-5.599c-2.49-11.487 21.256-69.409 32.947-80.047 6.476-5.893 70.444-1.287 79.654 9.491 0 0-17.812 50.924-46.043 85.026-29.56 35.706-76.262 84.661-82.805 162.787-4.881 58.286 6.895 83.906 29.405 116.002z"/><path d="M134.48 1444.117c-3.782 0-7.45-.184-10.97-.55a5 5 0 0 1-4.456-5.49c.285-2.747 2.746-4.748 5.49-4.456 43.134 4.485 110.654-20.381 119.92-77.075a5 5 0 0 1 9.869 1.613c-9.477 57.99-73.18 85.958-119.853 85.958zm63.664 81.599a5 5 0 0 1-3.41-8.658c19.147-17.846 55.551-26.234 82.718-30.129 32.142-4.607 63.186-4.785 78.427-2.999a4.999 4.999 0 0 1 4.384 5.547 4.995 4.995 0 0 1-5.548 4.384c-31.995-3.746-122.694 2.112-153.163 30.511a4.983 4.983 0 0 1-3.408 1.342z"/></g><path d="M237.896 1581.476c-.605 0-1.216-.11-1.802-.336-.757-.293-18.645-7.399-27.883-27.45a4.999 4.999 0 1 1 9.082-4.184c3.487 7.569 8.558 12.916 12.996 16.474-1.149-10.731.432-21.27.527-21.886a5.001 5.001 0 0 1 8.538-2.711c5.427 5.618 18.632 10.741 28.464 13.869-4.241-15.137-3.093-26.692-3.031-27.269a5 5 0 0 1 9.437-1.721c3.475 6.896 14.272 15.215 22.974 21.015-.394-12.7 3.467-27.25 4.055-29.384.618-2.242 2.708-3.746 5.022-3.667a5 5 0 0 1 4.71 4.061c1.12 5.877 9.598 16.407 18.264 25.609-.033-9.088 2.357-19.392 7.145-30.554a4.999 4.999 0 1 1 9.19 3.941c-6.898 16.083-8.182 30.143-3.617 39.592a5.001 5.001 0 0 1-7.874 5.868c-2.219-2.027-16.918-15.635-25.987-28.585-1.173 8.147-1.498 16.705.575 21.201a5.001 5.001 0 0 1-6.989 6.453c-2.097-1.178-15.828-9.04-26.243-18.63a77.54 77.54 0 0 0 4.825 17.633 5 5 0 0 1-5.833 6.739c-2.583-.64-21.615-5.519-34.497-13.279-.247 6.515.129 14.693 2.536 20.203a5 5 0 0 1-4.583 7.001z" fill="#111"/><path d="M869.058 363.539c4.96-7.353 16.548-21.504 30.467-26.526 12.034-4.342 21.118 9.137 10.304 12.913-14.67 5.123-26.662 15.133-33.261 19.841-4.048 2.888-11.077-.942-7.511-6.227zm67.296-36.98c10.304-6.395 24.875-6.028 35.117-1.113 6.166 2.959 6.837 9.481-1.161 9.113-10.014-.46-23.828 2.454-29.567 4.02s-11.954-7.324-4.389-12.019z" fill="#773a11"/><g fill="#e09273"><path d="M1437.741 137.77c3.678-7.087 17.647-31.546 19.572-34.88s6.141-27.687 7.105-35.302c1.565-12.362-15.947-15.864-21.048.519-5.832 18.732-11.751 27.411-11.751 27.411l-21.05 26.016zm-70.796-49.69s18.865-32.908 19.452-35.858c.332-1.669 4.216-23.207 3.908-37.909-.387-18.454 21.341-18.454 23.092-3.502 1.338 11.429-.783 50.87-.783 50.87l-21.548 40.936-24.058-11.744"/><path d="M1418.917 110.578L1434.83 69.1c2.676-7.488 6.281-28.214 6.281-45.652 0-11.193-20.491-13.478-22.595 1.003-2.469 16.997-7.549 34.341-7.81 35.995s-24.138 36.959-24.138 36.959l32.348 13.173zm-92.773-9.652c2.127-3.907 25.503-50.023 25.503-50.023s3.192-20.473 4.968-36.722c1.989-18.206 20.745-18.681 21.314-2.578.433 12.253.323 37.158-.554 41.545-1.176 5.877-11.414 39.431-13.868 44.258-2.08 4.091-40.752 9.747-37.362 3.521z"/></g><path d="M1331.484 129.558a5 5 0 0 1-4.936-4.243c-1.337-8.72-5.085-19.483-5.123-19.591a5 5 0 0 1 9.438-3.307c.166.474 4.09 11.732 5.57 21.382a5 5 0 0 1-4.949 5.759zm64.016-28.261a5 5 0 0 1-4.466-7.242c.118-.236 11.886-23.722 14.851-31.66.335-.897.972-3.546 2.104-11.077.715-4.756 3.393-5.566 5.502-5.407a5.01 5.01 0 0 1 4.506 6.096l-.12.797c-.792 5.269-1.659 10.502-2.625 13.089-3.152 8.439-14.787 31.66-15.28 32.645a4.999 4.999 0 0 1-4.473 2.759z" fill="#a85f36"/></svg></g><g transform="matrix(1.152071 0 0 1.151364 161.538462 75)"><svg width="1526.348" height="850.83"><path d="M969.743 390.509c4.119 13.346 18.152 24.68 22.967 27.945-2.601-15.439 2.102-37.852 4.426-40.951-17.543-3.818-31.488-15.66-34.754-27.447-.367 14.841 1.69 22.075 7.361 40.452z" fill="#ce9800"/><path d="M578.348 331.434c-15.652 19.422-23.478 30.378-25.043 36.639-4.696-25.043-20.348-50.087-34.043-52.435 34.995 1.565 48.13 10.461 59.087 15.796z" fill="#cc2bc5"/><path d="M919.576 95.595c-7.002 0-14.099-1.449-20.708-4.492-14.884-6.853-26.362-20.655-31.769-37.513-5.99 1.664-12.247 2.074-18.338.973-10.716-1.937-20.72-9.075-26.759-19.095-5.619-9.322-7.131-20.058-4.15-29.454a5 5 0 0 1 9.532 3.024c-2.112 6.656-.952 14.408 3.183 21.269 4.577 7.594 12.043 12.983 19.972 14.416 4.657.842 9.507.472 14.182-.885a72.073 72.073 0 0 1-.481-3.279C862.409 25.704 866.9 7.896 881.06 1.6c3.68-1.636 7.148-2.023 10.312-1.15 3.428.946 6.115 3.192 7.771 6.495 2.892 5.769 1.828 13.173.038 17.76-4.294 11.004-12.709 19.887-22.735 25.164 4.516 14.425 14.291 26.482 26.605 32.152 16.352 7.528 37.183 2.584 46.435-11.021a5 5 0 1 1 8.268 5.623c-8.267 12.156-22.994 18.971-38.177 18.972zM887.982 9.999c-.782 0-1.768.251-2.86.737-9.484 4.217-12.338 17.402-10.958 28.598l.031.247c6.899-4.289 12.649-10.777 15.668-18.513 1.291-3.308 1.436-7.453.338-9.643-.475-.947-1.021-1.207-1.493-1.337a2.729 2.729 0 0 0-.728-.089z" fill="#ffd215"/><path d="M1442.224 698.144c-5.882 0-12.266-.967-17.951-4.212-2.947-1.683-5.548-3.921-7.688-6.537a60.73 60.73 0 0 1-2.593 1.247c-9.07 4.098-18.213 5.499-26.443 4.049-14.782-2.604-27.404-15.452-30.014-30.548-2.55-14.746 4.146-30.583 16.661-39.407a5 5 0 0 1 5.763 8.173c-9.276 6.54-14.445 18.684-12.57 29.531 1.916 11.083 11.124 20.505 21.896 22.403 7.883 1.388 15.548-1.035 20.589-3.313a47.97 47.97 0 0 0 1.814-.866 27.29 27.29 0 0 1-1.395-6.295c-.875-8.878 2.765-18.028 9.499-23.879 3.461-3.006 8.109-4.684 12.122-4.387 3.047.228 5.656 1.519 7.545 3.734 3.265 3.828 3.536 9.362.761 15.584-3.198 7.172-8.381 13.532-15.049 18.597a17.434 17.434 0 0 0 4.059 3.231c5.247 2.995 12.126 3.642 22.312 2.097 11.833-1.796 19.688-5.154 24.719-10.569a5 5 0 0 1 7.326 6.806c-8.739 9.405-21.618 12.294-30.545 13.649-3.135.476-6.864.913-10.819.913zm-11.29-44.078c-1.354 0-3.236.802-4.583 1.972-4.263 3.704-6.66 9.729-6.105 15.349.051.52.128 1.039.229 1.554 4.68-3.874 8.36-8.541 10.613-13.594 1.125-2.524 1.233-4.471.763-5.022-.064-.075-.183-.214-.682-.251a2.973 2.973 0 0 0-.234-.009z" fill="#ff5cf0"/><path d="M80.341 850.837c-4.521 0-9.042-.67-13.401-2.081-21.301-6.896-35.401-30.434-31.432-52.468a48.73 48.73 0 0 1 .872-3.897 33.471 33.471 0 0 1-3.115-.043c-10.358-.632-19.305-7.082-21.758-15.686-1.656-5.812-.329-11.563 1.012-15.925a75.246 75.246 0 0 1 17.299-29.575 4.999 4.999 0 1 1 7.247 6.89 65.191 65.191 0 0 0-14.987 25.625c-1.391 4.521-1.685 7.68-.954 10.244 1.46 5.123 7.52 8.127 12.75 8.446 2.088.126 4.201-.049 6.318-.433 1.776-3.938 3.782-7.669 5.671-11.182 3.275-6.092 10.09-18.768 22.421-20.013 4.825-.487 10.937 1.498 12.943 7.011.754 2.072.818 4.371.196 7.027-2.786 11.893-14.439 18.072-24.28 22.126-3.12 1.285-6.337 2.55-9.658 3.542-.927 2.499-1.67 5.036-2.135 7.616-3.063 17.001 8.235 35.86 24.67 41.181s36.643-3.339 44.125-18.909a5 5 0 0 1 9.013 4.331c-7.713 16.05-25.247 26.171-42.817 26.172zm-10.558-90.175a4.94 4.94 0 0 0-.494.025c-6.191.625-10.685 7.482-14.619 14.799l-1.115 2.078c7.579-3.139 16.401-7.686 18.131-15.069.231-.986.144-1.323.14-1.337-.153-.16-.983-.496-2.043-.496z" fill="#54d8f7"/><path d="M91.555 362.169c11.739 5.122 31.304 7.47 36.783 9.035-31.292 40.091-42.96 63.395-58.294 89.217-29.281-10.878-49.921-25.475-70.043-37.957 45.972-18.762 68.596-39.768 91.555-60.296z" fill="#ffd215"/><path d="M337.304 146.595c13.691 9.177 26.867 28.03 31.304 32.087 12.255-35.403 26.609-64.174 36.783-70.435-18-13.304-28.174-39.913-30.522-51.652-10.749 36.725-26.515 76.638-37.565 90z" fill="#00ba96"/><path d="M460.957 362.169c32.087-34.4 67.304-48.095 117.391-30.735-43.043-29.072-79.826-34.964-118.174-29.072 4.696 17.972 4.696 36.507.783 59.807zm64.456-185.704c10.957 8.609 18.275 13.304 22.051 18 27.254-22.696 41.071-36.783 45.046-41.478-18.858-1.5-31.158-10.957-35.04-18.783-7.013 13.304-21.1 36-32.056 42.261z" fill="#ff5cf0"/><path d="M1008.94 321.268c-17.605-6.114-36.822-11.88-55.527-11.434.003 27.274 6.799 58.716 16.33 80.675-2.768-38.737 13.373-62.389 39.197-69.241z" fill="#ffd215"/><path d="M1036.333 183.378c21.232 20.87 44.911 23.187 55.174 22.957-11.015 14.754-17.768 42.261-18.783 54.783-8.965-16.396-41.768-33.131-54.783-37.565 13.84-14.331 17.971-33.913 18.391-40.174z" fill="#00ba96"/><path d="M1368.783 155.987c20.348-8.348 35.478-27.196 44.022-46.957 11.385 11.926 23.283 25.043 26.935 29.739-19.304 24-41.739 39.652-48.522 43.304-10.957-12.522-20.348-21.391-22.435-26.087z" fill="#ffd215"/><path d="M1504.957 391.291c3.522 26.674 10.066 40.124 21.391 56.87-17.574 15.523-35.218 29.417-46.488 58.68-9.783-27.456-15.731-35.804-30.207-57.636 27.13-12.457 47.478-38.478 55.304-57.913z" fill="#5ac4ff"/></svg></g></svg>