<svg xmlns="http://www.w3.org/2000/svg" width="2454" height="3000" xmlns:v="https://vecta.io/nano"><style><![CDATA[.B{fill:#e09273}.C{fill:#007a63}.D{fill:#005141}.E{fill:#ea2688}.F{fill:#a85f36}.G{fill:#c83400}.H{fill:#2471ed}.I{fill:#b7b7b7}]]></style><g transform="matrix(1.365302 0 0 1.36543 140.454545 240)"><svg width="1540.119" height="1973.405"><clipPath id="A"><ellipse cx="673.731" cy="261.031" rx="21.3" ry="24.099" transform="matrix(.998926 -.046339 .046339 .998926 -11.372 31.499)"/></clipPath><clipPath id="B"><path d="M746.691 230.331c1.076 9.044 1.232 18.656 1.444 29.471.205 11.014 2.256 17.992 4.639 24.082 3.115 8.017-39.939 22.682-41.755-21.511-1.951-48.801 34.314-44.398 35.672-32.041z"/></clipPath><clipPath id="C"><ellipse cx="740.503" cy="257.524" rx="18.3" ry="21.9" transform="matrix(.998926 -.046339 .046339 .998926 -11.137 34.589)"/></clipPath><path d="M570.553 177.786c-13.448-70.194-94.649-68.439-146.575-13.489-37.55 39.737-30.763 69.988-21.926 104.987 10.542 41.753 31.526 79.471 13.371 101.989-16.183 20.073-35.771 15.638-53.996-3.009 4.46 14.723 11.287 30.008 20.305 44.25 15.962 8.704 33.898 4.543 52.92-6.694-8.81 12.146-19.376 23.011-34.926 30.244 10.607 11.493 22.985 21.308 36.996 28.187 13.314-1.842 25.031-7.599 35.555-16.278-3.646 9.931-8.395 18.428-15.645 23.672a101.07 101.07 0 0 0 21.819 3.136s43.221-35.516 33.769-87.55c-6.772-37.284-40.578-98.709-18.492-136.534 20.495-35.1 27.298-25.067 27.298-25.067l49.524-47.845h.003z" fill="#f62"/><path d="M436.529 409.792a5 5 0 0 1-2.974-9.023c32.622-24.096 20.221-50.443 19.677-51.553l-.14-.306-19.117-45.973c-.37-.915-8.649-21.622-10.583-46.519-2.637-33.963 7.996-59.103 30.749-72.703 28.25-16.884 50.725-14.29 64.604-9.142 15.147 5.618 23.488 15.34 23.836 15.751a5 5 0 0 1-7.626 6.469c-1.167-1.36-28.756-32.545-75.684-4.495-47.171 28.195-16.361 106.06-16.044 106.843l19.046 45.803c.673 1.42 4.315 9.711 3.58 21.112-.719 11.154-5.875 27.626-26.357 42.755a4.98 4.98 0 0 1-2.967.979z" class="G"/><path d="M630.193 386.608c-4.271-13.056-17.365-21.082-30.94-18.981-61.842 9.57-237.566 12.871-227.656 44.676 12.22 39.22-5.995 377.6 4.217 386.775s181.823 62.233 224.703-2.97c34.996-53.214 50.092-347.094 29.675-409.5z" class="C"/><path d="m145.919 1581.013-45.651 78.53 22.825 81.246 132.875 55.523 45.65-116.662zm760.529 204.757 37.534 85.448 170.373-74.906-40.759-82.424z" class="B"/><g class="H"><path d="M793.785 735.325l178.185 589.993c.289 1.834 22.77 102.649 41.086 148.769l50.529 127.629c6.139 17.068 20.055 93.423 16.794 112.172-4.235 24.35-47.27 24.595-167.899 74.566-5.692 2.358-12.261.303-15.579-4.888-24.19-37.837-116.296-183.959-120.543-221.709-4.891-43.476-38.77-128.38-56.205-196.856s-67.999-315.231-67.999-315.231L576.43 727.627z"/><path d="M694.083 944.428s-103.925 391.061-157.455 461.438l-239.426 307.725a3.876 3.876 0 0 1-4.095 1.357c-60.23-16.698-135.761-47.733-171.233-98.554l5.234-13.535c0-3.978 46.663-106.821 118.805-196.632l41.574-94.432c13.059-30.788 23.658-60.767 32.708-78.579 53.783-105.859 35.771-122.565 61.129-203.294 45.751-145.648 104.445-304.395 110.032-323.234 11.956-40.318 234.124 99.478 234.124 99.478l-31.398 138.26z"/></g><path d="M932.551 1778.415a5 5 0 0 1-4.614-3.071c-.791-1.89-7.482-15.018-15.953-31.64-45.143-88.571-87.231-172.688-89.52-188.325-3.504-23.94-5.438-64.472-2.733-86.651 1.164-9.547-17.107-57.359-33.228-99.542-20.254-52.999-39.385-103.059-39.088-120.58.484-28.545-27.434-114.572-36.002-140.259l-.153-.461c-3.177-9.529-37.25-94.416-37.594-95.272a5 5 0 1 1 9.279-3.726l37.801 95.835.153.459c11.145 33.41 37.011 114.283 36.514 143.592-.264 15.587 20.293 69.38 38.431 116.84 21.872 57.234 35.207 92.894 33.813 104.323-2.568 21.066-.638 61.173 2.702 83.993 2.365 16.166 62.749 134.641 88.534 185.232l16.269 32.319a5 5 0 0 1-4.611 6.932zm-786.35-128.7a4.999 4.999 0 0 1-3.786-8.263c.747-.867 75.354-87.55 133.303-163.434 33.23-43.516 101.529-152.06 107.469-170.796 16.731-52.773 58.978-250.899 59.402-252.895.079-.371.2-.73.36-1.074 8.283-17.747 50.076-219.393 71.018-323.537a5 5 0 0 1 9.805 1.972c-2.464 12.25-60.034 298.202-71.51 325.229-2.887 13.546-42.924 200.909-59.542 253.328-6.768 21.344-77.293 132.251-109.055 173.843-58.131 76.123-132.926 163.023-133.674 163.892a4.992 4.992 0 0 1-3.79 1.736z" fill="#fff"/><path d="M658.038 1075.011a5 5 0 0 1-4.654-6.825c.103-.264 10.438-26.75 21.276-62.626 5.278-17.476 10.906-37.896 16.726-60.695a5 5 0 1 1 9.689 2.474c-5.855 22.938-11.522 43.5-16.843 61.113-10.961 36.284-21.434 63.115-21.538 63.382a5.001 5.001 0 0 1-4.656 3.178zm-412.122 336.021a5 5 0 0 1-3.311-8.749c20.376-17.979 74.84-67.527 82.073-80.717a5 5 0 1 1 8.767 4.809c-9.388 17.119-76.592 76.672-84.225 83.406a4.977 4.977 0 0 1-3.306 1.251z" fill="#004ebf"/><path d="M606.366 406.569l-17.269-26.277-.965-1.423c-10.521-15.018-27.682-21.986-45.901-18.632-18.394 3.385-32.643 16.685-37.188 34.708l-1.992 7.898-19.393-4.892 1.992-7.898c6.482-25.705 26.776-44.667 52.961-49.487 25.738-4.739 50.993 5.544 65.906 26.833l1.294 1.907 17.27 26.279-16.715 10.983z" class="C"/><g class="B"><path d="M630.078 259.267c29.727 2.568 51.801 28.776 49.234 58.503l-9.549 109.928c-2.568 29.727-28.776 51.801-58.503 49.234s-51.801-28.776-49.234-58.503l9.549-109.928c2.571-29.827 28.776-51.801 58.503-49.234z"/><path d="M735.657 194.812c11.664 20.732 11.993 39.455 12.577 64.993.488 25.434 10.749 29.504 12.298 50.473 2.008 27.69-30.716 64.04-46.203 66.186-16.394 2.314-88.344-.369-112.856-47.878-24.412-47.506-25.148-127.384 17.44-151.372s97.648-16.309 116.744 17.598z"/></g><path d="M572.246 284.209c1.135-20.472 28.531-17.088 28.531-17.088s21.42-80.061 92.544-90.617c0 0-15.128-22.779-43.24-31.293-28.016-8.41-81.278-16.025-115.541 46.486-34.585 63.1 4.642 128.088 35.385 135.796 0 0 1.297-9.843 1.916-21.425.377-7.057-.024-14.108.406-21.859z" fill="#f62"/><path d="M600.117 265.997c-21.133-21.772-50.081-7.001-41.21 21.836 7.434 24.282 31.672 26.453 39.675 20.936s12.633-31.367 1.535-42.772z" class="B"/><path d="M693.321 176.504c-18.225 25.463-58.148 30.012-69.547 82.737-5.276 24.326-10.543 59.56-4.487 105.507-14.516-22.135-26.552-57.589-19.926-108.384 4.982-38.446 19.443-70.548 37.548-87.109 18.006-16.565 55.059 6.737 55.059 6.737l1.352.513z" fill="#f62"/><g class="F"><path d="M588.212 299.392a4.95 4.95 0 0 1-4.817-5.176c.176-4.897-1.747-9.869-5.419-13.503-2.412-2.488-5.36-3.995-7.562-3.974-2.802 0-5.025-2.182-5.028-4.883 0-2.802 2.182-5.025 4.883-5.028 5.004-.021 10.518 2.479 14.861 6.937 5.503 5.601 8.532 13.214 8.255 20.91-.093 2.598-2.374 4.818-5.173 4.718z"/><path d="M576.171 291.955c-.899-.032-1.692-.261-2.473-.789a4.936 4.936 0 0 1-1.451-6.957l5.723-8.9a4.936 4.936 0 1 1 8.408 5.506l-5.723 8.9c-1.153 1.46-2.784 2.302-4.483 2.241zm131.328 12.718c-.6-.022-1.096-.139-1.688-.361-2.566-.993-3.761-3.937-2.769-6.503 3.731-9.172 14.147-15.002 22.363-12.506 4.947 1.578 9.571 6.547 7.625 16.184-.597 2.68-3.259 4.386-5.943 3.889-2.68-.597-4.386-3.259-3.889-5.943.243-1.192.747-4.076-.738-4.529-2.573-.793-8.166 1.708-10.245 6.637-.671 1.977-2.717 3.205-4.715 3.133z"/></g><path d="M727.279 224.731c5.347-1.209 17.96-1.357 23.945 1.96s9.291-2.368 3.728-9.072-22.295-11.707-32.582-6.673c-10.084 4.942-3.261 15.593 4.909 13.785zm-35.282 1.636c9.604 2.846 11.555-12.494 1.759-15.547-13.751-4.396-32.13.248-42.289 10.09-5.601 5.503-1.961 10.036 3.75 7.039 5.615-3.101 21.834-6.121 36.78-1.582z" class="G"/><path d="M674.2 379.327c-.3-.011-.6-.022-.896-.132-24.123-5.369-40.219-11.35-47.695-17.722-2.138-1.778-2.323-4.986-.548-7.024 1.778-2.138 4.986-2.323 7.024-.548 3.494 3.027 13.786 9 43.37 15.565a4.99 4.99 0 0 1 3.789 5.94c-.486 2.384-2.645 4.008-5.044 3.922z" class="F"/><path d="M597.793 269.416a4.95 4.95 0 0 1-4.817-5.176c1.829-50.967 17.118-83.84 48.241-103.436 2.356-1.516 5.432-.806 6.849 1.547s.806 5.432-1.547 6.849c-27.957 17.809-41.849 48.03-43.549 95.4a4.95 4.95 0 0 1-5.176 4.817z" class="G"/><ellipse cx="673.731" cy="261.031" fill="#fff" rx="21.3" ry="24.099" transform="matrix(.998926 -.046339 .046339 .998926 -11.372 31.499)"/><g clip-path="url(#A)"><ellipse cx="679.177" cy="257.125" fill="#111" rx="11.9" ry="19" transform="matrix(.998926 -.046339 .046339 .998926 -11.185 31.747)"/></g><g clip-path="url(#B)"><ellipse cx="740.503" cy="257.524" fill="#fff" rx="18.3" ry="21.9" transform="matrix(.998926 -.046339 .046339 .998926 -11.137 34.589)"/><g clip-path="url(#C)"><ellipse cx="742.774" cy="252.603" fill="#111" rx="10.4" ry="17.7" transform="matrix(.998926 -.046339 .046339 .998926 -10.907 34.689)"/></g></g><g class="B"><path d="M721.685 405.722c32.58-5.889 50.779 5.207 138.098 65.564 33.436 74.52 62.289 96.363 74.034 123.522 9.049 20.925 21.982 157.249-3.606 157.73-78.46 1.475-140.702-157.544-162.087-238.715s-46.439-108.101-46.439-108.101z"/><path d="M901.145 745.374c50.752 27.744 108.368-29.969 134.298-89.563s48.537-160.975 48.537-160.975c12.83-29.465-72.783-67.132-85.613-37.667 0 0-66.032 114.007-81.303 163.855-14.782 48.252-36.309 113.001-23.288 120.119l7.369 4.232z"/><path d="M1129.107 353.565c-32.004 2.386-52.776 14.031-63.281 21.21-10.142 6.931-17.059 14.471-30.894 29.552-29.296 31.935-37.199 53.54-36.833 53.941.889.975 5.109.561 7.534 2.216 17.677 12.064 68.845 37.003 78.347 34.352 31.606-8.82 73.078-48.942 73.078-48.942-11.754.771-27.951-92.329-27.951-92.329z"/></g><path d="m1190.506 309.073-135.034 106.479c-2.869 2.14-2.537 6.398.651 8.341l36.297 29.008c2.013 1.227 4.583 1.117 6.362-.271l136.056-104.994c2.954-2.306 2.312-6.813-1.215-8.533l-37.32-30.494c-1.908-.93-4.171-.749-5.798.464z" class="H"/><path d="M1107.329 463.204l7.381-22.705-15.303-19.024a7.384 7.384 0 0 1-1.623-5.05c.233-4.088 1.82-10.991 9.625-13.103 3.79-1.026 7.829.365 10.398 3.334l10.709 12.38s-6.047-14.213-8.801-17.991c-1.022-1.403-4.041-6.446-3.537-9.398.688-4.028 2.705-10.025 11.926-9.3 1.469.116 2.869.648 4.096 1.465 3.964 2.637 12.844 9.331 14.902 17.56l.468-16.926c.119-2.913-2.467-8.255-3.928-11.026a11.13 11.13 0 0 1-1.282-4.73c-.211-5.001.907-14.449 12.675-12.97 3.13.394 5.906 2.195 7.669 4.811 3.066 4.549 7.881 12.37 8.763 17.79 0 0-2.844-40.392-1.586-46.727 2.931-14.768 16.384-14.988 20.253-4.456 7.23 19.679 3.466 68.888 3.466 68.888s-1.884 13.913-6.553 19.773c-2.55 3.201-4.971 6.494-7.172 9.944-3.036 4.758-7.89 10.611-14.784 13.928L1122 473.059l-14.67-9.854z" class="B"/><path d="M1143.189 458.972a5 5 0 0 1-4.833-6.293c3.579-13.387-11.915-29.253-12.072-29.409a5 5 0 1 1 7.047-7.094c.812.806 19.803 19.95 14.686 39.087a5.002 5.002 0 0 1-4.827 3.71zm21.374-17.363a5 5 0 0 1-4.997-4.909c-.281-15.422-14.159-38.622-14.299-38.854a5 5 0 0 1 8.561-5.166c.629 1.042 15.405 25.725 15.735 43.838a4.998 4.998 0 0 1-4.908 5.09h-.093zm17.697-19.803a5 5 0 0 1-4.999-4.951c-.245-25.008-9.919-42.496-10.017-42.669-1.352-2.404-.504-5.452 1.896-6.808a5 5 0 0 1 6.806 1.882c.451.794 11.042 19.775 11.314 47.497a5 5 0 0 1-4.951 5.049h-.05z" class="F"/><path d="M440.479 424.681a5.01 5.01 0 0 1-.866-.076l-69.106-12.074a5 5 0 1 1 1.721-9.851l69.106 12.074a5 5 0 0 1 4.065 5.786 5.003 5.003 0 0 1-4.92 4.141zm-.201 343.832c-4.434 0-8.484-.975-12.13-2.927-11.987-6.419-14.399-20.935-14.496-21.55a5 5 0 0 1 4.162-5.716 4.996 4.996 0 0 1 5.714 4.143c.032.19 1.828 10.328 9.394 14.336 5.344 2.832 12.675 2.143 21.791-2.054a5 5 0 0 1 4.182 9.084c-6.783 3.123-13.006 4.685-18.616 4.685z" class="D"/><g class="E"><path d="M856.685 455.24l9.736 12.267c23.52 28.865 40.02 54.973 46.052 69.765 1.827 4.481.139 9.644-3.949 12.234-73.198 46.369-69.095 94.179-94.699 100.355-32.538 7.848-69.171-36.194-86.186-55.947-27.206-31.584-46.274-176.047-9.814-187.479 2.431-.762 23.582-5.896 26.318-5.311 0 0 75.299 7.864 112.541 54.116z"/><path d="M653.672 401.243c16.923-3.408 81.312-2.999 104.238 1.872 21.147 4.494-8.239 54.334 4.887 69.903s60.015 91.908 61.892 115.139-4.588 43.115-5.052 68.674c-.398 21.9-2.999 79.426-10.186 98.98-19.418 52.834-79.046-2.328-106.292 13.552-33.898 19.757-88.795 36.493-148.636 20.194-48.7 17.069-88.05 9.814-97.72-10.867-6.23-13.324 22.541-221.284 24.902-262.612s-8.391-105.936 7.758-108.314c17.232-2.538 65.077 2.89 65.077 2.89l99.753-3.219-.62-6.192z"/></g><path d="M819.721 649.829h.003a5.054 5.054 0 0 0 5.579-4.469l.934-8.065c1.717-14.534 4.069-34.438 3.505-49.329-1.026-27.088-35.681-79.304-61.661-116.224l-1.147-1.632a5.055 5.055 0 0 0-8.271 5.813l1.15 1.635c14.542 20.666 58.796 83.557 59.826 110.788.533 14.105-1.765 33.557-3.442 47.76l-.943 8.143a5.055 5.055 0 0 0 4.467 5.578z" fill="#b7006d"/><path d="M429.287 464.137c23.66 23.16-21.513 16.731-20.192 122.871-41.416 70.398-2.492 181.576-17.841 206.872-11.827 19.491-103.499 69.065-147.057-3.646-46.615-63.128 23.344-188.932 77.158-253.352s107.932-72.746 107.932-72.746z" class="B"/><path d="M486.142 407.764c-26.336 2.57-60.173 14.895-83.467 33.905-21.921 17.889-78.692 59.098-88.956 82.482-1.237 2.818-.247 12.146 2.746 12.866 20.827 5.011 55.25 30.499 64.037 69.128 6.457 28.386 10.787 51.239 4.899 64.764-1.922 4.415 3.074 8.655 7.212 6.193 3.563-2.12 7.32-4.926 11.106-8.636 20.452-20.038 87.665-33.578 93.531-34.729.28-.055.549-.128.817-.227 62.013-22.939 42.743-232.455-11.925-225.745z" class="E"/><path d="m669.495 398.265 32.5.751s35.117 108.255-4.377 118.545c-64.24 16.707-184.555-109.955-184.555-109.955l50.926-11.516 105.506 2.174z" class="B"/><path d="M949.376 1832.669c-12.027-5.868-31.295-18.025-34.475-5.251-3.45 13.861 14.684 20.349 18.283 41.616 2.106 12.441.635 56.229 14.57 73.627 14.813 18.495 86.983-15.039 122.087-19.15s89.937-6.489 134.652-15.779 127.08-25.78 122.46-46.8-15.877-62.777-50.895-68.056-111.664 1.135-147.932-19.871c-20.908-12.11-26.051-28.194-33.723-27.574s-32.251 18.383-16.978 36.523c0 0-27.802 32.445-61.3 41.419s-55.615 14.728-66.748 9.295z" class="C"/><path d="M936.663 1933.276c-6.518-1.776.515 35.121 5.19 36.327 31.288 8.075 85.232-12.11 132.627-22.548 27.476-6.051 123.981-15.426 147.451-21.121s105.044-27.797 115.701-43.317c5.018-7.307-5.094-35.047-10.266-31.452-24.068 16.734-68.678 33.135-111.857 43.105-46.813 10.808-117.418 11.05-143.452 17.309s-95.774 32.494-135.394 21.696z" fill="#e3e5e5"/><path d="M1202.433 1803.263c6.73-1.479 12.548-3.774 16.813-7.097a4.415 4.415 0 0 0-5.428-6.964c-12.065 9.402-44.206 8.756-68.968 4.177-9.859-1.824-18.321-6.955-26.504-11.917-13.808-8.375-28.086-17.033-43.879-2.784a4.415 4.415 0 0 0 5.915 6.555c10.428-9.41 18.62-5.177 33.386 3.778 8.45 5.125 18.027 10.932 29.476 13.05 18.389 3.401 41.819 5.019 59.188 1.202z" class="D"/><path d="M116.334 1666.148c-2.134-13.211-3.299-35.964-15.573-31.202-13.317 5.167-8.171 23.726-23.479 38.922-8.955 8.889-45.591 32.918-51.781 54.331-6.581 22.764 62.41 62.427 85.997 88.75s57.124 69.769 90.481 100.961 193.688 38.654 197.715 17.513c3.192-16.76 4.779-38.212 3.593-53.378-1.43-18.285-14.054-33.914-31.772-38.655-23.709-6.344-53.279-2.466-76.69-14.833-9.355-4.942-15.046-14.652-20.013-24.182-12.323-23.642 3.502-47.435 4.796-52.989.624-2.675-.522-11.763-8.389-17.663-9.445-7.084-26.385-7.339-32.274-3.34-10.491 7.123-23.761 8.901-35.917 5.292-13.178-3.913-28.545-10.248-40.636-20.329-26.636-22.208-44.082-36.969-46.057-49.198z" class="C"/><path d="M26.781 1713.726c-2.304-6.351-28.408 20.657-26.701 25.173 11.428 30.225 59.007 62.684 94.847 95.407 20.777 18.97 84.044 92.444 102.222 108.344 5.716 5 19.212 24.851 45.505 28.021 57.32 6.911 150.537-.815 161.296-6.25 8.864-.109 5.919-25.833 0-27.988-11.845-4.313-42.793 1.809-75.159 4.348-42.897 3.364-90.639-4.783-109.464-21.624-35.807-32.033-76.686-89.601-96.802-107.272s-81.742-59.555-95.744-98.159z" fill="#e3e5e5"/><path d="M290.327 1849.285c-9.044 0-18.375-2.644-25.918-9.001-11.241-9.476-15.254-35.994-18.687-64.663-.725-6.045-1.35-11.267-1.992-14.774-1.968-10.731-17.94-17.099-23.93-18.646a5.003 5.003 0 0 1-3.595-6.086 4.996 4.996 0 0 1 6.076-3.602c1.131.289 27.758 7.298 31.284 26.531.699 3.813 1.341 9.177 2.085 15.388 2.261 18.883 6.046 50.487 15.203 58.205 11.174 9.419 27.715 7.95 37.604 1.787a4.999 4.999 0 0 1 6.888 1.599 5 5 0 0 1-1.599 6.888c-6.311 3.934-14.733 6.374-23.42 6.374z" class="D"/><path d="M531.029 288.233s-3.274-111.732 203.242-160.052c0 0-28.046-41.135-64.981-49.442-45.126-10.149-137.564 24.728-151.464 78.674s6.253 128.834 13.203 130.82z" class="C"/><path d="M709.725 165.648 778.89 132.6s21.665-7.467 40.272-2.987c2.206.531 6.168 2.934 9.973 6.384 4.124 3.739 8.065 8.709 9.388 13.862 1.281 4.99 1.799 13.131-.552 18.476-2.706 6.153-7.001 11.058-8.826 12.576-1.74 1.448-18.095 10.753-38.832 17.43-22.654 7.294-48.282 5.985-48.282 5.985s-9.217-33.974-51.198-30.862l8.903-3.757 9.989-4.06z" class="D"/><path d="M742.151 207.187s9.969-33.83-19.079-46.301l-41.521 5.414 10.404 10.151s33.427 1.035 50.196 30.736z" fill="#f62"/><path d="M577.328 196.09s59.833-66.719 145.617-68.732l77.61 1.143s-8.489 1.103-21.895 5.645c-7.187 2.435-15.787 5.858-25.25 10.628-29.144 14.693-65.607 37.126-99.01 48.493-30.726 10.456-58.824 10.842-77.073 2.823z" class="C"/><g class="D"><path d="M580.524 202.367a4.997 4.997 0 0 1-4.217-2.306c-24.263-37.918-8.527-98.315-7.846-100.867a5 5 0 1 1 9.662 2.58c-.155.581-15.268 58.711 6.607 92.897a5 5 0 0 1-4.207 7.695z"/><path d="M580.523 202.367a5 5 0 0 1-2.936-9.05c97.904-70.879 152.258-75.9 154.524-76.079a5.008 5.008 0 0 1 5.378 4.59 5 5 0 0 1-4.577 5.377c-.532.045-54.237 5.273-149.462 74.211a4.973 4.973 0 0 1-2.928.951z"/></g><path d="M713.948 332.291c2.841 4.732-15.987 21.4-33.207 11.699-18.779-10.577-13.786-32.306-8.4-33.089s12.641 10.093 21.223 13.514 17.922 3.769 20.386 7.874h-.002z" fill="#fff"/><path d="M466.721 407.606s28.405-14.058 49.337-8.591 83.706 120.758 60.198 186.767c-34.727 97.508-119.75 168.524-119.75 168.524s-44.278-51.867-14.338-68.997 91.872-96.756 89.73-139.649-43.29-129.106-65.177-138.055z" class="C"/><g class="B"><path d="M398.173 786.412c52.323-64.385 98.359-138.974 98.359-138.974 27.984-47.485-51.369-107.474-76.069-73.722 0 0-115.101 134.073-148.251 156.267-6.848 16.901-27.821 71.92 1.665 89.798 32.731 19.845 97.336-.193 124.296-33.368z"/><path d="M429.287 566.529c5.748-16.285 10.213-37.885 20.658-50.432 13.748-16.321 38.938-27.752 45.065-35.159 13.787-16.541 27.622-4.142 17.656 12.622-10.324 17.246-35.057 37.115-35.057 37.115 18.268 15.32 22.855 66.82-11.111 70.11-25.95 2.394-37.211-34.256-37.211-34.256z"/><path d="M425.899 569.244c14.484-12.784 65.292-47.288 93.046-57.811 28.293-10.745 75.63 88.347 52.935 103.128-26.145 17.075-49.504 12.798-80.274 37.774-20.886 16.872-65.707-83.091-65.707-83.091z"/><path d="M558.945 584.018c8.437-5.317 20.059-9.389 30.103-13.013s13.849 20.259.538 31.298c-8.469 7.037-17.706 12.258-17.706 12.258z"/><path d="M548.048 561.966c8.024-3.755 26.504-12.697 36.051-15.819 13.92-4.481 21.023 23.348 5.137 30.978s-26.94 13.619-26.94 13.619l-14.247-28.777z"/><path d="M531.899 537.257c8.643-3.918 37.975-14.888 50.908-16.365s23.101 22.898 7.793 30.086l-38.383 17.449-20.318-31.171z"/><path d="M518.864 511.374c17.155-10.176 46.278-18.684 62.474-14.996s20.264 23.531 5.722 27.675-32.334 10.483-45.214 19.6c-8.015 5.755-22.983-32.279-22.983-32.279z"/></g><path d="M593.438 518.825c5.178 4.097-1.027 11.945-6.205 7.847l.161.119c-.08-.06-1.504-.993-4.424-.92-10.459.326-42.901 13.469-54.539 18.401-2.555 1.091-5.44-.056-6.532-2.611s.056-5.44 2.611-6.532c4.432-1.94 43.897-18.834 58.195-19.297 6.479-.169 10.011 2.456 10.733 2.993zm4.425 32.941l-.179.241c-1.831 2.128-4.929 2.442-7.057.611-.904-.796-3.47-2.205-5.107-1.677-3.356.995-27.332 10.961-42.604 17.428-2.555 1.091-5.521-.116-6.532-2.611s.116-5.521 2.611-6.532l43.622-17.793c7.25-2.212 13.733 2.979 14.396 3.597 2.108 1.691 2.401 4.649.85 6.736zm-5.449 25.104c-.08-.06-1.264-.814-3.204-.886-3.337.635-20.185 8.049-34.156 14.611-2.475 1.151-5.479.164-6.651-2.451-1.151-2.475-.084-5.42 2.451-6.651 22.054-10.397 34.931-15.654 38.291-15.649 5.22.017 8.571 2.382 9.213 2.859 5.458 4.056-.507 12.082-5.965 8.026l.021.14zM287.111 701.972a5 5 0 0 1-3.321-8.74l92.747-82.322a5 5 0 1 1 6.639 7.479l-92.747 82.322a4.984 4.984 0 0 1-3.317 1.261zm645.178-79.643a5 5 0 0 1-4.983-4.651l-2.083-29.811a5 5 0 0 1 9.977-.697l2.083 29.811a5 5 0 0 1-4.994 5.348z" class="F"/><path d="M714.203 772.87a5 5 0 0 1-4.284-7.57l29.481-49.222a5 5 0 0 1 8.578 5.139l-29.481 49.222a4.998 4.998 0 0 1-4.294 2.432z" fill="#b7006d"/><path d="m1209.826 331.371 244.34-214.073" class="H"/><g class="I"><path d="m1226.621 333.275-20.195-15.544 239.503-209.835 16.475 18.804z"/><path d="m1483.774 159.472 52.094-18.058-108.936-57.801-37.831 23.206z"/><path d="M1530.112 146.82a9.959 9.959 0 0 1-4.243-.95l-99.762-46.836c-4.999-2.347-7.149-8.303-4.802-13.302s8.301-7.149 13.302-4.802l99.762 46.836c4.999 2.347 7.149 8.303 4.802 13.302a10.002 10.002 0 0 1-9.059 5.752z"/></g><path d="m1468.462 153.562-63.402-40.458a8.005 8.005 0 0 1-3.698-6.746v-85.95c0-5.969 6.299-9.837 11.622-7.137l69.947 31.528a8.002 8.002 0 0 1 4.383 7.137l-6.545 94.88c0 6.319-6.98 10.145-12.307 6.746z" fill="#656c72"/><path d="M1423.965 42.894l-13.355-6.29a3.938 3.938 0 0 1-2.26-3.562v-4.6a3.94 3.94 0 0 1 5.615-3.562l13.355 6.29a3.938 3.938 0 0 1 2.26 3.562v4.6a3.94 3.94 0 0 1-5.615 3.562z" fill="#ffd215"/><path d="M1465.409 93.156c-.876 12.148-5.82 20.201-14.343 22.165-3.328.767-11.281 1.787-15.057.413-13.444-4.892-20.505-23.401-19.287-40.293.569-7.89 1.393-12.661 3.832-16.676 1.707-2.81 4.113-6.051 8.173-6.317 2.557-.167 12.378-1.043 15.147-.036 13.444 4.892 22.753 23.851 21.535 40.743z" fill="#374047"/><ellipse cx="1435.244" cy="84.299" rx="23.455" ry="32.577" transform="matrix(.952571 -.304316 .304316 .952571 42.42 440.77)" class="I"/><path d="M1457.602.833a10.32 10.32 0 0 0-6.871-.443l-43.954 12.443c.714-.252 2.187-.421 4.502.655l59.64 27.663a21.817 21.817 0 0 1 12.013 19.491l-3.399 85.714c.038 3.648-2.136 6.957-5.5 8.369s42.809-14.135 42.809-14.135a13.96 13.96 0 0 0 10.994-13.475l2.281-79.574a21.819 21.819 0 0 0-12.842-20.148L1457.601.832z" fill="#374047"/><ellipse cx="1435.244" cy="84.299" fill="#111" rx="14.719" ry="20.443" transform="matrix(.952571 -.304316 .304316 .952571 42.42 440.77)"/><path d="M1482.923 168.99a9.95 9.95 0 0 1-4.703-1.182l-91.894-49.092a10 10 0 1 1 9.424-17.64l91.894 49.092a10 10 0 0 1-4.721 18.822z" class="I"/><path d="M472.67 416.477a4.962 4.962 0 0 1-2.949-.967 4.99 4.99 0 0 1-1.092-6.961c.211-.289 21.378-28.61 56.772-10.288a5 5 0 1 1-4.595 8.881c-27.644-14.307-43.443 6.418-44.103 7.307a5.013 5.013 0 0 1-4.033 2.029z" class="D"/><path d="M1056.041 391.639a76.617 76.617 0 0 1 46.35-32.633l26.42-6.311 1.103.214c9.273 1.803 12.802 13.208 6.167 19.932s-21.663 7.155-21.663 7.155l-50.52 28.912-7.857-17.27z" class="B"/></svg></g><g transform="matrix(1.209394 0 0 1.218565 2015.454545 137.727273)"><svg width="46.229" height="66.024"><use href="#E" class="E"/></svg></g><g transform="matrix(-1.799343 0 0 1.817521 2338.636364 208.636364)"><svg width="46.229" height="66.024"><use href="#E" class="E"/></svg></g><g transform="matrix(1.370425 0 0 1.37247 1868.181818 312.272727)"><svg width="86.569" height="93.395"><path d="M40.896 23.439C44.685-4.003 71-7.095 79.674 12.83c7.964 18.294-4.764 37.761-4.023 56.41.503 12.663 10.917 24.154 10.917 24.154C14.98 92.499-19.614 28.1 11.414 11.311c15.055-8.147 29.483 12.128 29.483 12.128z" class="E"/></svg></g><defs ><path id="E" d="M21.098 9.09C19.565-.457 6.51-5.16 1.058 8.609s10.24 53.651 45.171 57.415c0 0-10.983-9.426-8.645-24.715 1.605-10.5 8.155-30.049-2.401-37.141C27.277-1.143 21.098 9.09 21.098 9.09z"/></defs></svg>