<svg xmlns="http://www.w3.org/2000/svg" width="3000" height="3000" xmlns:v="https://vecta.io/nano"><style><![CDATA[.B{fill:#e09273}.C{fill:#ea2688}.D{fill:#a85f36}.E{fill:#111}.F{fill:#b7006d}.G{fill:#773a11}.H{fill:#4f2000}.I{fill:#e3e5e5}]]></style><g transform="matrix(1.875233 0 0 1.877237 253.125 195)"><svg width="1232.847" height="1408.32"><clipPath id="A"><path d="M825.964 141.342c1.861 10.654 3.941 22.827 3.555 41.409-1.11 53.304 45.732 20.97 40.332-22.176-4.094-32.707-45.314-27.408-43.887-19.233"/></clipPath><path d="M828.444 683.061c-83.705 8.548-401.225-10.62-474.658 141.847-55.389 115.002 111.702 118.588 207.292 100.551s206.91-7.756 265.184-13.901c141.731-14.945 145.371-243.12 2.183-228.497z" class="B"/><path d="M819.149 677.973c-62.408 6-228.382 17.239-281.904 31.529 0 0 25.664 215.176 67.482 207.986s221.072-3.653 257.032-6.482c127.839-10.055 130.022-249.63-42.609-233.033z" fill="#0a3ea5"/><path d="M353.785 824.907c-104.336 215.081 344.917 282.609 550.031 353.291 127.153 43.817 138.691-206.332 21.187-232.097S657.596 842.581 580.128 821.75s-201.385-48.292-226.343 3.157z" class="B"/><path d="M852.955 271.387c9.016-20.815 78.415-57.09 147.005-58.009s114.827 9.956 112.892 62.903c-2.265 61.985-41.468 95.661-89.865 88.795s-186.122-56.542-170.033-93.689z" class="C"/><path d="M961.565 34.204c5.441-38.378 59.613-52.018 88.716-.733 18.547 32.684 7.153 61.268 15.856 89.088 13.024 41.634 24.034 63.959-3.835 87.978 0 0 2.89-30.001-7.784-29.553s-9.548 51.625 17.171 55.824c0 0-37.375 20.578-67.436-26.133-30.146-46.843-49.701-126.991-42.687-176.47z" class="G"/><rect height="201.418" rx="47.542" transform="matrix(.962753 -.270382 .270382 .962753 -26.875 270.416)" width="95.083" x="920.546" y="132.046" class="B"/><path d="M884.07 21.493c-15.081-4.456-53.412.327-70.609 33.933-17.753 34.693-7.884 56.898-4.113 75.75s-5.837 30.451-22.622 28.792c0 0 31.701 15.914 44.655-16.177s1.275-47.576 6.759-65.057 45.93-57.241 45.93-57.241z" class="G"/><path d="M823.284 117.288c-.105 19.802 6.918 32.623 6.235 65.462-1.11 53.304 53.061 77.823 84.945 72.476 47.512-7.967 82.416-49.614 82.144-88.63-.23-32.961-3.91-57.55-27.618-90.746-44.112-61.766-145.332-28.696-145.705 41.438z" class="B"/><g class="G"><path d="M826.819 95.682c-3.536-52.371 30.158-74.124 61.069-81.643 32.441-7.891 99.954-2.093 128.009 40.332 33.908 51.275 15.789 112.151-7.525 145.995l-8.889-31.65c-31.521-17.561-23.024-95.293-76.161-110.229-46.375-13.035-85.893 19.564-96.503 37.197z"/><path d="M869.884 52.172c2.697 38.22 38.646 39.8 65.905 53.815 24.553 12.623 36.335 48.171 23.364 64.412 17.862-8.967 23.057-37.629 12.114-61.602-15.209-33.319-29.072-26.234-39.697-55.284-8.167-22.329-63.257-23.614-61.686-1.342z"/></g><path d="M867.488 203.05a5.001 5.001 0 0 1-4.679-3.237c-2.406-6.379-.688-12.698 4.375-16.099 4.759-3.199 12.784-3.431 19.982 3.252a5 5 0 0 1-6.804 7.328c-3.17-2.943-6.164-3.246-7.602-2.279-1.587 1.066-.944 3.341-.594 4.27a4.998 4.998 0 0 1-4.677 6.765z" class="D"/><path d="M889.789 131.728c-6.945 6.636-18.19-9.166-8.259-15.102 14.227-8.504 39.013-4.633 47.672 2.691 7.361 6.226 2.033 9.616-3.296 7.021-7.759-3.78-27.469-2.872-36.116 5.39zm-35.995 3.521c8.194.558 7.126-15.076.588-15.661-18.087-1.619-29.476 9.781-32.722 18.338s1.876 8.154 4.279 5.182c4.244-5.248 15.365-8.709 27.855-7.859z" class="H"/><path d="M902.078 233.992c-.797 0-1.545-.039-2.235-.116a5 5 0 1 1 1.104-9.938c5.778.641 18.843-3.356 22.019-11.545a5 5 0 0 1 9.324 3.616c-4.898 12.629-20.864 17.983-30.211 17.983z" class="D"/><path d="M982.85 140.093c7.706-25.818 34.117-14.403 35.881 5.885 1.962 22.558-17 37.924-26.154 34.981s-16.167-19.289-9.727-40.866z" class="B"/><g class="D"><path d="M996.218 173.339a5.002 5.002 0 0 1-4.649-3.157c-5.803-14.622.643-31.286 10.057-37.098a5 5 0 0 1 5.253 8.509c-5.207 3.214-10.138 14.512-6.015 24.899a5 5 0 0 1-4.646 6.846z"/><path d="M1002.831 160.497c-.525 0-1.06-.083-1.586-.26l-7.948-2.658a4.999 4.999 0 0 1-3.156-6.327 4.997 4.997 0 0 1 6.327-3.156l7.948 2.658a5.002 5.002 0 0 1-1.585 9.743zm-78.432 97.528a5 5 0 0 1-1.673-9.713c12.708-4.514 35.586-14.153 46.024-27.989a5 5 0 1 1 7.983 6.023c-11.41 15.124-33.847 25.417-50.66 31.389a4.983 4.983 0 0 1-1.674.29z"/></g><path d="M1008.367 205.365a5.001 5.001 0 0 1-4.223-7.67c26.204-41.495 32.851-84.037 18.718-119.789-11.104-28.09-34.396-49.808-60.788-56.678a5.001 5.001 0 0 1 2.52-9.678c29.422 7.659 55.313 31.676 67.568 62.679 15.337 38.798 8.389 84.542-19.563 128.805a4.997 4.997 0 0 1-4.232 2.331zm-31.814-57.299a5 5 0 0 1-4.958-5.697c1.378-9.786-.412-21.291-4.91-31.566-5.855-13.376-13.392-20.78-20.68-27.94-7.79-7.652-15.146-14.88-19.208-27.854a5 5 0 0 1 9.543-2.989c3.314 10.584 9.505 16.667 16.673 23.709 7.595 7.461 16.202 15.917 22.833 31.063 5.221 11.925 7.28 25.4 5.651 36.971a5.001 5.001 0 0 1-4.945 4.303z" class="H"/><g clip-path="url(#A)"><ellipse cx="843" cy="163.521" fill="#fff" rx="18.16" ry="20.817" transform="matrix(.982499 -.186267 .186267 .982499 -15.705 159.878)"/><ellipse cx="841.148" cy="168.597" rx="11.191" ry="15.52" transform="matrix(.982499 -.186267 .186267 .982499 -16.683 159.622)" class="E"/></g><ellipse cx="911.569" cy="156.101" fill="#fff" rx="19.911" ry="22.24" transform="matrix(.982499 -.186267 .186267 .982499 -13.123 172.52)"/><ellipse cx="907.54" cy="161.575" rx="11.863" ry="16.452" transform="matrix(.982499 -.186267 .186267 .982499 -14.213 171.865)" class="E"/><path d="M870.28 64.78a5.002 5.002 0 0 1-4.851-3.804c-4.081-16.552 4.941-35.458 15.64-43.482a5 5 0 0 1 6 8c-8.019 6.014-14.891 21.083-11.931 33.089a5 5 0 0 1-4.859 6.197z" class="H"/><path d="M851.415 283.444l46.98-5.853c15.616-1.67 138.199-12.856 166.486-3.018s-34.425 127.093-135.272 122.174-78.194-113.304-78.194-113.304z" class="E"/><path d="m1027.359 267.972 24.17 2.599c-11.952 25.482-55.587 53.232-110.321 50.784-40.813-1.825-42.813-43.764-42.813-43.764l31.717-4.089 97.246-5.53z" class="B"/><path d="M827.408 285.414c-42.054 14.486-96.07 143.632-115.686 216.959-25.878 96.733 37.832 173.394 79.151 166.618 46.36-7.602 48.783-122.117 80.304-215.461 28.491-84.37-13.161-178.66-43.769-168.116z" class="C"/><g class="B"><path d="M517.43 633.972c22.868 17.28 167.772 27.842 217.796 31.239 55.646 3.779 34.89-92.33-15.738-88.843-54.306 3.74-170.938-1.258-170.938-1.258-16.825 14.804-51.25 43.651-31.119 58.862z"/><path d="M467.879 494.371c-15.05 23.199 2.235 76.915 9.806 93.386s28.33 37.193 39.745 46.215c5.112 4.041 35.634-23.652 33.389-47.511-3.787-40.242-70.788-110.824-82.94-92.091z"/></g><g class="C"><path d="M790.873 668.99c-33.836 5.073-84.886 16.791-125.691 5.088-27.811-7.976-69.277 10.458-104.104-23.723 24.275-15.988 29.836-50.873 15.483-74.224 3.569-18.368 50.533-38.341 79.336-33.801 34.272 5.402 34.551-29.251 90.079-9.215 39.769 14.35 73.99 131.512 44.898 135.874z"/><path d="M562.84 575.662c12.398 26.327-.835 68.783-21.777 74.19l31.604 4.698c20.898 1.652 31.851-73.754 10.501-78.888zm453.873 119.389c-79.215-15.089-172.094-21.609-196.99-41.978s-2.019-65.927-8.807-99.994c-5.639-28.299-28.235-47.606-16.91-94.071 7.119-29.209 18.116-46.02 19.997-80.724 1.322-24.388-1.957-73.536 13.405-92.871 0 0 25.821-8.878 34.916-8.725 0 0 6.3 73.681 65.145 82.734 26.109 4.017 111.293-31.652 141.47-88.036 0 0 49.546 3.451 71.347 10.94 18.551 6.373 34.707 241.562 26.408 307.197-3.816 30.185-7.316 58.225-7.365 89.583s-142.617 15.944-142.617 15.944z"/></g><path d="M1169.712 870.173c-7.829 20.686-35.083 9.77-72.069 0-54.1-14.291-68.513-46.787-29.457-48.318s114.632 13.689 101.527 48.318zm-376.503 51.623c-74.696 9.923-27.189-260.772 53.112-277.786s25.592 267.331-53.112 277.786z" class="E"/><path d="M819.725 658.073a4.99 4.99 0 0 1-3.895-1.861c-18.758-23.263-14.186-54.35-10.847-77.049 1.512-10.279 2.939-19.988 1.273-24.27a2885.083 2885.083 0 0 0-4.322-11.023c-14.531-36.903-20.546-52.178-12.802-85.978 1.085-4.738 3.222-12.35 5.695-21.162 5.207-18.553 12.338-43.961 14.214-59.062a5 5 0 0 1 9.924 1.234c-1.969 15.846-9.217 41.673-14.51 60.531l-5.576 20.693c-7.052 30.783-1.767 44.206 12.359 80.081l4.337 11.06c2.626 6.747 1.159 16.722-.699 29.352-3.241 22.035-7.274 49.458 8.738 69.316a5.001 5.001 0 0 1-3.889 8.139z" class="F"/><g class="I"><path d="M586.372 407.772c34.376-29.852 199.029-25.115 199.029-25.115l-184.25 25.282z"/><path d="M586.372 407.772c-16.603-28.977-77.944-27.498-103.666-27.348l85.54 27.144 18.127.204z"/></g><g fill="#656c72"><path d="m821.45 630.655-176.928 24.277-43.371-246.993 191.4-26.263zm-208.32 25.789-87.154-27.657-48.403-249.992 90.672 28.773z"/><path d="m568.245 407.568 32.906.371 43.371 246.993-31.392 1.512z"/></g><path d="M643.91 656.48a5.002 5.002 0 0 1-4.919-4.136l-42.003-239.205a5 5 0 1 1 9.85-1.73l42.003 239.205a5 5 0 0 1-4.931 5.866zm-31.386 1.636a5.002 5.002 0 0 1-4.915-4.113l-43.436-240.84a5 5 0 0 1 4.033-5.808 4.997 4.997 0 0 1 5.808 4.033l43.436 240.84a5 5 0 0 1-4.926 5.889z" fill="#374047"/><path d="M1053.722 706.356c-44.711-19.694-306.83-144.359-418.743-123.178-76.91 14.556-64.389 201.653 72.816 256.046 133.98 53.115 259.255 93.901 326.702 96.629 60.233 2.436 101.004-36.799 108.693-101.607 6.857-57.799-29.91-101.658-89.468-127.891z" class="B"/><path d="M925.003 946.102c-35.68-7.823-70.436-21.215-110.184-33.401-32.489 39.82-71.786 162.575-59.312 221.383 56.982 16.45 107.947 30.205 148.31 44.114 127.153 43.817 138.691-206.332 21.187-232.097z" class="I"/><path d="M837.045 618.026c35.294 41.286 39.53 276.054-43.836 303.77 0 0 32.269-6.734 59.642-4.02l181.646 20.077c42.811 3.526 108.61-12.939 116.02-100.273s-51.243-119.83-96.252-139.426c-44.325-19.298-174.331-65.996-217.22-80.129z" fill="#0a3ea5"/><path d="M1073.837 825.501c-32.197 0-73.793-14.583-119.907-30.75-30.324-10.632-61.681-21.625-92.352-29.026a5 5 0 0 1 2.345-9.721c31.16 7.519 62.757 18.596 93.315 29.31 59.364 20.813 115.434 40.471 145.005 23.924 11.048-6.182 18.157-17.213 21.733-33.724a5 5 0 0 1 9.773 2.117c-4.161 19.206-13.118 32.776-26.624 40.333-9.448 5.287-20.645 7.537-33.29 7.537z" fill="#002e77"/><path d="M1159.33 679.108c-.997 32.248.559 58.314 5.856 68.093 9.808 18.106 26.351 46.02 3.368 77.706 0 0 7.948 31.686 1.159 45.266-1.159-21.547-24.693-23.301-33.949-45.266-11.118-26.382-41.437-123.923-120.652-139.012l144.218-6.788z" class="C"/><path d="M1168.556 829.908a4.994 4.994 0 0 1-3.866-1.825c-9.333-11.355-14.04-26.102-19.022-41.713-5.235-16.404-10.649-33.366-21.905-49.09-19.272-26.924-60.536-63.767-60.951-64.136a5 5 0 1 1 6.648-7.47c1.726 1.536 42.509 37.949 62.434 65.786 12.171 17.004 18.083 35.527 23.3 51.87 4.683 14.672 9.105 28.53 17.221 38.404a5.001 5.001 0 0 1-3.86 8.175zM933.638 508.45a5.003 5.003 0 0 1-4.828-3.715c-10.831-40.673 3.328-127.066 10.636-143.15a5 5 0 0 1 9.105 4.137c-6.751 14.858-20.193 98.456-10.078 136.44a5 5 0 0 1-4.835 6.288zm-35.274-18.773a5 5 0 0 1-4.973-4.54c-1.903-20.551 2.166-41.854 6.101-62.456 4.195-21.964 8.158-42.711 5.514-62.53a5 5 0 0 1 9.912-1.322c2.858 21.426-1.444 43.948-5.604 65.729-3.804 19.918-7.738 40.515-5.966 59.658a4.999 4.999 0 0 1-4.985 5.461z" class="F"/><path d="M927.469 359.424c-17.973-15.953-35.572-60.044-34.241-82.734 1.098-18.721-36.137-16.438-40.274-5.302-13.41 36.095 36.425 90.255 74.514 88.036z" class="C"/><path d="M897.881 356.688a4.973 4.973 0 0 1-2.612-.74c-12.296-7.551-49.714-30.529-48.612-75.674.067-2.76 2.395-4.941 5.121-4.876a5 5 0 0 1 4.876 5.121c-.646 26.506 13.696 48.392 43.849 66.909a5 5 0 0 1-2.622 9.261z" class="F"/><g class="B"><path d="M467.879 494.371c7.451-12.536 38.105-32.529 46.615-32.713s42.54 7.086 53.639 10.628c15.3 4.882 12.223 28.691-7.822 25.496-20.109-3.205-40.215-7.752-40.215-7.752l-33.678 26.59-18.538-22.249z"/><path d="M479.573 518.431c8.074-12.243 35.07-32.914 42.273-33.287s40.445 9.771 48.87 13.333c16.302 6.894 10.038 29.668-8.154 24.18l-34.491-10.034-30.641 27.776-17.858-21.969z"/><path d="M485.502 540.115c9.527-8.82 35.765-20.187 41.669-18.813s28.326 6.27 36.782 8.992c14.625 4.707 12.808 27.189-7.763 22.592l-28.473-6.504-28.936 12.874-13.279-19.14z"/><path d="M493.332 561.749c6.239-6.151 27.688-20.748 36.782-18.334s20.111 9.217 27.238 13.211c12.892 7.225 2.166 26.573-10.961 19.747s-17.271-9.572-17.271-9.572-20.888 17.731-21.74 16.294-14.048-21.347-14.048-21.347z"/></g><path d="M482.341 518.224a5 5 0 0 1-3.273-8.782 659.068 659.068 0 0 0 6.106-5.376c12.367-10.977 25.155-22.329 35.965-23.872 11.77-1.684 44.891 11.061 51.411 13.632a5 5 0 1 1-3.668 9.302c-14.147-5.577-39.237-14.044-46.329-13.035-7.834 1.119-20.535 12.393-30.741 21.452a674.284 674.284 0 0 1-6.202 5.46 4.98 4.98 0 0 1-3.27 1.219zm3.165 26.891a5 5 0 0 1-3.047-8.968c5.248-4.026 26.008-17.29 35.852-18.661a5 5 0 0 1 1.379 9.905c-6.624.922-25.275 12.188-31.145 16.691a4.979 4.979 0 0 1-3.04 1.033zm7.83 21.634a5 5 0 0 1-3.127-8.904c19.583-15.665 33.592-22.097 41.64-19.119 8.69 3.216 17.424 7.527 17.791 7.709a5 5 0 0 1-4.436 8.962c-.085-.042-8.642-4.264-16.826-7.293-2.742-1.016-13.509 2.819-31.922 17.549a4.983 4.983 0 0 1-3.12 1.096z" class="D"/><path d="M634.978 583.178c-71.81 12.089-91.532 55.689-141.646 123.708-100.33 136.175-219.786 311.621-269.783 382.205-75.847 107.079 190.044 197.587 246.558 104.637s174.415-248.823 260.525-379.676c83.774-127.303 8.992-248.49-95.653-230.874z" class="B"/><path d="M303.853 973.874l-80.303 115.217c-75.847 107.079 190.044 197.587 246.558 104.637 18.521-30.463 37.547-57.615 67.137-101.226-37.728-56.181-156.62-140.22-233.392-118.629z" class="I"/><path d="M550.933 1075.825a5.002 5.002 0 0 1-4.109-7.843L692.271 862.23a5.001 5.001 0 0 1 8.159 5.783l-145.379 205.655a4.994 4.994 0 0 1-4.118 2.157zM343.056 922.777a5.001 5.001 0 0 1-4.112-7.838l136.949-192.714a5 5 0 0 1 7.639 6.453C461.754 754.46 348.32 918.956 347.177 920.615a4.994 4.994 0 0 1-4.121 2.162z" class="D"/><path d="M231.552 1097.012c-1.761-14.62-6.599-19.872-19.889 0-22.276 33.307-39.883 49.025-71.782 64.975S8.964 1209.835 4.312 1278.949s104.179 98.416 157.499 105c57.938 7.154 100.948-8.431 143.352-39.994 37.24-27.72 135-22.86 145.729-63.676 7.625-29.007 10.731-59.681 19.216-86.549 0 0-25.19-26.049-58.424-25.096-90.247 2.587-80.307-36.304-106.52-33.228 15.476-44.011-61.649-71.469-73.611-38.392z" fill="#00ba96"/><path d="M5.101 1272.068c-.87-8.652-5.462 41.993-5.079 45.303.952 8.209 19.159 73.712 134.628 88.77 86.163 11.236 143.627-23.755 169.16-41.694 49.444-34.741 128.58-31.465 150.233-67.866 0 0 4.004-34.459.53-30.277-44.953 44.275-120.68 41.982-163.483 67.111-32.086 18.837-89.033 36.497-150.155 28.445-50.051-6.593-131.899-36.753-135.834-89.791zm197.435-50.29a5 5 0 0 1-1.289-9.831c29.608-7.922 50.334-32.578 66.988-52.39 13.691-16.287 24.506-29.152 36.928-29.152a5 5 0 1 1 0 10c-7.765 0-17.732 11.857-29.273 25.587-17.557 20.886-39.407 46.879-72.058 55.615a5 5 0 0 1-1.295.171zm-55.352-38.133a5 5 0 0 1-2.452-9.362c17.55-9.853 69.624-46.898 82.161-79.086a5 5 0 0 1 9.319 3.629c-13.266 34.061-65.014 72.068-86.583 84.178a4.972 4.972 0 0 1-2.443.641z" fill="#007a63"/><path d="M276.884 1172.076a5.003 5.003 0 0 1-4.895-4.005c-2.717-13.36-17.073-30.564-32.683-39.165-7.219-3.978-17.887-7.938-27.724-4.199a5.001 5.001 0 0 1-3.55-9.349c10.615-4.028 23.097-2.374 36.1 4.79 18.478 10.182 34.314 29.498 37.657 45.932a5 5 0 0 1-4.905 5.998zm-23.032 24.427a5.004 5.004 0 0 1-4.641-3.136c-8.424-20.958-42.225-51.298-60.654-44.239a5 5 0 1 1-3.577-9.338c26.305-10.081 64.448 27.303 73.51 49.847a5 5 0 0 1-4.637 6.866zm-28.9 20.785a5.002 5.002 0 0 1-4.744-3.424c-2.948-8.871-13.245-21.525-25.041-30.772-13.515-10.596-26.669-15.331-36.093-12.995a4.999 4.999 0 1 1-2.408-9.705c17.021-4.221 35.294 7.479 44.67 14.83 13.61 10.67 24.742 24.6 28.36 35.488a5 5 0 0 1-4.746 6.578z" class="E"/><path d="M925.004 946.102c38.546 4.398 90.361-14.981 109.493-8.248s36.951 50.993 59.063 63.392 57.499 28.83 68.834 84.371-3.068 146.483-28.271 166.905-80.172 13.992-118.575-20.009c-30.682-27.165-68.017-43.129-104.054-53.74-9.357-2.755-12.205-32.495-2.313-35.497-52.633 11.204-50.397-87.259-4.272-90.281-18.342-40.123 19.322-72.858 20.095-106.892z" fill="#00ba96"/><path d="M1110.969 1262.379c-11.531 4.339 40.712-.478 40.712-.478 34.409-16.074 55.056-87.738 40.068-158.868-17.035-80.845-51.614-94.386-80.577-111.651-31.307-18.662-35.639-49.32-65.071-61.666-9.293-3.898-38.891 4.584-33.103 7.386 39.983 18.547 51.541 63.152 72.477 78.844 24.206 18.143 52.99 41.398 62.23 98.507 9.142 56.501 1.47 131.609-36.737 147.926zM997.46 1106.005a4.987 4.987 0 0 1-3.685-1.619c-25.372-27.638-49.596-32.557-67.284-36.148-12.08-2.453-21.621-4.391-26.029-12.955a5 5 0 0 1 8.892-4.576c2.108 4.096 8.324 5.537 19.128 7.731 17.957 3.646 45.093 9.157 72.66 39.187a4.999 4.999 0 0 1-3.682 8.38zm-3.706 73.936a4.987 4.987 0 0 1-3.734-1.672c-12.853-14.413-65.342-30.242-80.753-29.995-2.733.075-5.038-2.151-5.085-4.913a5 5 0 0 1 4.913-5.085c17.699-.328 73.462 16.599 88.39 33.337a5 5 0 0 1-3.73 8.329z" fill="#007a63"/><path d="M977.124 1174.198a4.99 4.99 0 0 1-3.82-1.771c-15.195-17.961-9.388-70.826 10.188-92.73a5 5 0 1 1 7.456 6.665c-17.153 19.193-21.039 66.57-10.009 79.607a5.001 5.001 0 0 1-3.815 8.23zm-27.735-12.955a4.987 4.987 0 0 1-3.872-1.833c-15.122-18.476-9.277-72.914 10.251-95.491a5 5 0 0 1 7.564 6.543c-17.232 19.921-21.149 69.086-10.077 82.614a5 5 0 0 1-3.866 8.167zm-32.165-8.345a4.991 4.991 0 0 1-3.881-1.844c-15.109-18.563-9.259-73.274 10.263-95.967a5 5 0 0 1 7.581 6.522c-17.245 20.046-21.167 69.521-10.088 83.133a5 5 0 0 1-3.875 8.156z" class="E"/><path d="M880.085 525.114c54.603 24.349 131.252 39.388 179.056 48.472s19.028 136.585-27.821 124.054-150.586-67.546-187.942-91c-33.88-21.272 2.664-96.707 36.707-81.526z" class="B"/><g class="C"><path d="M1140.286 282.328c29.428 9.055 70.823 44.334 79.753 79.071s20.837 105.435 5.209 138.923c0 0 14.884 89.302-9.674 126.511 0 0-11.907 56.558-41.674 75.907s-107.907-73.674-99.721-113.116-12.651-46.139-3.721-67.721 20.093-48.372 14.884-83.349 16.95-167.917 54.944-156.227z"/><path d="M1173.9 702.74c-30.305 19.55-44.155 5.565-51.982 8.808s-55.971 35.61-101.757-11.241c0 0-20.407-6.446-39.3-8.027s-86.895-9.894-82.825-50.749c2.996-30.072 36.726-93.008 43.501-101.27s24.652-19.747 41.862-11.731c15.704 7.314 30.078 27.958 43.046 28.334 0 0 7.523-12.458 22.057-11.242 12.46 1.042 30.795 14.671 45.805 26.149 32.519 24.869 106.649 113.514 79.595 130.968z"/><path d="M897.675 532.371c6.47 24.979-6.29 71.143-30.624 88.256l30.984 20.904c34.603-23.227 45.19-59.196 43.501-101.27z"/></g><g class="B"><path d="M880.085 525.114c-21.225-10.359-47.946-54.331-60.055-61.921-7.439-4.663-56.548 94.021-37.57 99.407 29.888 8.482 39.658 40.467 60.918 44.04 14.988 2.519 36.707-81.526 36.707-81.526z"/><path d="M820.03 463.193c-17.472-10.757-53.503-17.792-62.809-17.778-5.986.009-38.762 8.709-49.515 10.594-19.705 3.454-20.29 34.095 5.111 29.49l44.475-8.033 48.177 16.66 14.562-30.933z"/><path d="M809.169 487.839c-7.464-3.878-46.588-19.313-56.118-18.358s-39.614 12.244-50.312 15.271c-14.187 4.014-12.313 32.28 8.607 26.224l39.949-11.206 45.935 14.914z"/><path d="M799.537 509.48c-4.759-2.698-37.704-18.039-45.141-16.402s-35.763 10.294-42.654 12.857c-19.887 7.398-9.346 33.462 5.937 28.473 14.136-4.615 36.341-10.265 36.341-10.265l36.382 14.26 9.136-28.923z"/><path d="M790.427 535.456c-8.314-3.259-29.758-12.593-38.739-11.208-9.073 1.4-30.433 13.183-34.891 16.004-14.84 9.387-3.34 30.978 13.211 22.721l23.622-11.81 28.83 11.436 7.967-27.144z"/></g><path d="M700.915 518.903c-.632 0-1.275-.12-1.899-.373-2.56-1.036-3.776-3.99-2.74-6.55 2.152-5.316 10.377-12.242 55.059-23.292l1.819-.454c2.757-.705 7.458-.52 23.042 5.593 11.167 4.38 22.336 9.634 25.494 11.139a5.002 5.002 0 0 1 2.361 6.666 5.003 5.003 0 0 1-6.666 2.361c-19.192-9.153-37.913-16.327-41.874-16.04l-1.775.442c-42.376 10.48-47.608 16.346-48.227 17.416a4.938 4.938 0 0 1-4.593 3.091zm54.723-20.982a.047.047 0 0 0-.016.004l.016-.004zm53.529-5.081c-.68 0-1.371-.14-2.032-.435-25.452-11.341-48.238-19.1-53.001-18.043-8.958 1.984-49.453 15.017-49.86 15.148a5 5 0 1 1-3.066-9.518c1.684-.542 41.353-13.309 50.765-15.394 10.069-2.23 41.435 10.742 59.234 18.673a5 5 0 0 1-2.038 9.568zm-18.743 47.617a4.983 4.983 0 0 1-2.07-.451c-9.598-4.374-25.587-11.667-35.789-10.817-4.14 1.119-10.782 3.708-10.85 3.735a5 5 0 0 1-3.64-9.314c.312-.122 7.689-2.997 12.365-4.202a5.1 5.1 0 0 1 .735-.132c11.892-1.224 26.936 5.074 41.325 11.631a5 5 0 0 1-2.076 9.551z" class="D"/><g class="F"><path d="M1073.075 560.416a5 5 0 0 1-4.965-4.462c-.22-2.034-1.331-3.851-2.737-6.152-3.631-5.941-8.604-14.077.747-30.386 11.045-19.265 15.493-63.069 14.235-80.502a5 5 0 0 1 9.974-.72c1.287 17.815-3.03 64.388-15.533 86.195-6.405 11.172-3.971 15.155-.89 20.197 1.728 2.827 3.685 6.03 4.146 10.291a5 5 0 0 1-4.977 5.538z"/><path d="M1114.042 594.567a4.983 4.983 0 0 1-3.679-1.613c-20.297-22.039-48.854-43.5-66.941-41.739-5.468.531-9.628 3.235-12.718 8.266a5 5 0 0 1-4.211 2.383l-.36.002c-12.261 0-17.258-6.241-22.094-12.278-4.465-5.574-9.525-11.892-22.285-16.335-24.207-8.429-35.521 8.937-35.991 9.681a5.004 5.004 0 0 1-5.112 2.25l-43.861-7.891a5 5 0 0 1-4.036-5.806 4.999 4.999 0 0 1 5.806-4.036l40.795 7.339c6.987-8.453 22.992-18.882 45.686-10.98 15.479 5.389 22.023 13.561 26.802 19.527 3.916 4.889 6.283 7.843 12.031 8.424 4.627-6.149 10.998-9.762 18.582-10.498 22.947-2.227 53.92 21.743 75.263 44.917a4.999 4.999 0 0 1-3.677 8.387z"/><path d="M898.04 646.532a4.999 4.999 0 0 1-2.628-9.257c27.913-17.197 46.384-60.395 41.175-96.295a5 5 0 0 1 9.896-1.436c5.826 40.155-14.304 86.823-45.827 106.244a4.972 4.972 0 0 1-2.618.744zm308.831-117.991a5 5 0 0 1-2.99-9.011c.104-.078 11.126-8.444 16.796-21.235a5 5 0 1 1 9.141 4.053c-6.764 15.259-19.431 24.805-19.967 25.204a4.978 4.978 0 0 1-2.981.99zm-121.317 200.851a5.002 5.002 0 0 1-4.871-3.891 4.999 4.999 0 0 1 3.765-5.985c14.139-3.22 21.78-5.78 35.546-11.908 3.136-1.396 6.946-.799 12.219.023 7.471 1.168 16.769 2.62 24.731-1.588a5.001 5.001 0 0 1 4.672 8.842c-10.898 5.759-22.963 3.875-30.947 2.626-2.411-.377-5.696-.894-6.745-.708-14.382 6.397-22.415 9.083-37.256 12.462a5.03 5.03 0 0 1-1.115.126z"/></g><path d="M852.844 922.777a5 5 0 0 1-.534-9.971c30.375-3.303 65.006-2.116 66.464-2.066a5 5 0 0 1-.357 9.994c-.351-.014-35.387-1.213-65.026 2.014-.184.02-.367.029-.547.029z" fill="#002e77"/><path d="M927.469 359.424c19.43-10.34 112.393-60.674 128.828-101.249s62.175-9.786 55.983 13.212c-10.823 40.203-126.347 101.836-184.811 88.036z" class="C"/><path d="M961.526 365.383a5 5 0 0 1-.174-9.997c23.9-.845 127.021-34.762 146.249-85.763a5.002 5.002 0 0 1 6.443-2.915 5.002 5.002 0 0 1 2.915 6.443c-21.079 55.908-129.109 91.305-155.253 92.229l-.18.003zm87.105-88.996a5 5 0 0 1-3.945-8.067c8.581-11.049 10.242-18.118 10.257-18.188a4.98 4.98 0 0 1 5.894-3.875c2.706.552 4.446 3.218 3.894 5.923-.188.921-2.126 9.37-12.147 22.272a4.99 4.99 0 0 1-3.952 1.933z" class="F"/></svg></g></svg>