<svg xmlns="http://www.w3.org/2000/svg" width="2500" height="3000" xmlns:v="https://vecta.io/nano"><style><![CDATA[.B{fill:#e09273}.C{fill:#e3e5e5}.D{fill:#ffd215}.E{fill:#007a63}.F{fill:#ea2688}.G{fill:#b7b7b7}.H{fill:#b7006d}.I{fill:#a85f36}]]></style><g transform="matrix(1.249676 0 0 1.249011 956.25 432.5)"><svg width="1022.265" height="678.537"><path d="M.922 352.996c-4.566-44.785 4.283-121.514 109.537-154.655 118.549-37.327 186.104 8.272 174.982 44.321-6.89 22.334-54.968-5.97-53.618 19.684 1.126 21.392 70.766 70.207 143.442 83.325 78.362 14.144 142.023-7.987 166.816-15.367 35.396-10.536 39.899 19.864 10.748 32.017-35.668 14.871-24.607 32.108 2.084 27.334 44.519-7.963 78.146-26.232 59.494-134.153-9.909-57.333 19.483-108.237 44.538-137.941 18.083-21.438 46.162-27.022 40.533 1.126-7.95 39.749 17.616 21.203 30.559 5.173 25.366-31.417 59.204-62.568 105.018-77.291 53.837-17.302 116.946-15.968 158.48 26.953 66.361 68.577 9.825 173.698-88.658 224.543-82.251 42.465-60.661 138.187-39.663 139.97s23.331-15.844 26.831-41.444 31.654-27.895 34.996 11.973c3.007 35.87-11.665 119.949-108.489 155.51s-188.981 7.564-218.145-15.767-47.273 12.61-30.942 35.924 27.48 50.641-23.886 42.628C436.331 609.817 373.767 515.06 315.016 450.435 263.962 394.276 139.793 329.01 72.388 412.11 20.572 475.993 2.873 372.131.922 352.996zM715.959 72.033c19.286-7.232 25.263-25.814 56.491-34.97 30.418-8.919 7.935-49.532-26.942-33.254-27.077 12.638-41.505 30.736-48.487 50.997-6.266 18.181 5.033 22.442 18.938 17.227zm-58.778 551.159c-37.214-27.064-77.093 2.317-33.509 33.576 32.77 23.503 107.699 25.857 132.693 17.046 30.049-10.593 30.697-35.668 0-39.279s-69.667 10.124-99.184-11.343z" fill="#55a2ff"/></svg></g><g transform="matrix(1.248994 0 0 1.24828 843.75 195)"><svg width="513.413" height="548.755"><path d="M32.423 534.611c-35.19-52.245-46.659-154.016-9.4-237.669 33.767-75.814 84.864-98.47 94.25-89.084s1.24 30.276 37.217 17.885c27.205-9.37 76.447-21.944 125.46-44.998 38.121-17.931 79.874-44.62 104.992-95.574C443.417-33.45 522.352-16.451 512.589 64.569c-9.026 74.9-56.314 116.148-109.109 130.227s39.889 15.252 28.157 35.196-67.813 11.158-104.299 23.764-66.442 19.077-86.121 22.445c-34.652 5.931-33.06-12.611-5.506-20.18 15.184-4.171 4.239-20.062-16.724-11.172-39.987 16.959-62.289 29.526-104.769 84.039-47.467 60.913-70.7 106.627-49.796 190.354 12.543 50.239-27.04 22.727-31.997 15.367zm147.939-361.686c19.385-9.192 82.902-37.01 82.903-50.576.002-27.113-74.039 2.607-97.502 32.327-16.35 20.71-8.812 29.351 14.599 18.249z" fill="#54d8f7"/></svg></g><g transform="matrix(1.249936 0 0 1.249468 996.25 856.25)"><svg width="1052.054" height="895.381"><path d="M26.98 63.94c61.47-97.854 254.832-89.243 311.847 66.644 42.548 116.333-11.015 147.298-22.081 139.018-17.079-12.78 7.787-61.453-22.581-61.453-23.141 0-35.04 134.709 39.712 215.69 57.887 62.711 110.57 59.178 124.069 53.491 20.209-8.514-20.507-48.819 32.442-42.441 45.274 5.454 87.21 64.48 237.492-1.706 93.101-41.003 128.779-123.591 142.495-145.112 24.139-37.874 46.72 31.427 25.129 54.337-32.803 34.807-15.006 61.185 20.507 19.609 34.19-40.028 56.37-73.947 69.607-120.386 15.119-53.041 56.035-47.153 64.629 46.439 11.68 127.203-36.597 142.776-49.056 248.674-6.33 53.801-79.715 57.022-109.013 117.578-15.475 31.986-49.448 46.332-66.608 59.496-17.378 13.331-14.277 32.655-2.512 22.612 25.752-21.984 38.284-11.884 15.703 21.355-18.656 27.461-89.55 55.267-159.75 66.052-89.606 13.766-125.231-33.561-157.442-28.366-19.471 3.141-13.354 14.323 3.928 16.099 39.261 4.035 37.109 48.545-17.746 71.836-47.641 20.228-134.426 13.225-223.753-8.996-95.801-23.831-245.679-72.332-227.629-337.952s102.499-349.029 60.749-385.509c-29.413-25.7-53.338 36.565-99.056 19.22-37.155-14.097-8.194-78.987 8.918-106.228z" fill="#2471ed"/></svg></g><g transform="matrix(1.24963 0 0 1.250174 143.75 472.5)"><svg width="948.281" height="1915.734"><clipPath id="A"><ellipse cx="304.984" cy="169.909" rx="21.464" ry="19.464" transform="matrix(.081347 -.996686 .996686 .081347 110.827 460.06)"/></clipPath><clipPath id="B"><ellipse cx="375.742" cy="166.166" rx="20.487" ry="18.578" transform="matrix(.081347 -.996686 .996686 .081347 179.56 527.144)"/></clipPath><path d="m739.329 506.577-101.332 96.068c-43.264 42.441-101.757-44.434-59.965-76.986l111.264-84.839c25.726-23.201 76.569 39.862 50.034 65.757z" class="B"/><g class="E"><path d="M641.439 469.1c-12.572 30.605 19.896 84.355 47.323 93.734-5.44 10.887-13.995 21.514-26.209 31.836-37.069-12.135-60.227-64.637-54.281-94.005 2.113-10.439 33.167-31.565 33.167-31.565z"/><path d="M662.553 594.67c8.123 26.079-34.134 54.08-65.376 51.581 0 0-60.007 41.449-108.862 3.425 0 0-27.494-12.481-32.421-56.189-6.818-60.487 74.815-75.148 74.815-75.148 15.153-3.157 55.376-44.097 77.563-17.674 7.363 41.779 30.375 73.705 54.281 94.005z"/><path d="M433.571 254.67c38.87 5.455 88.364 72.172 117.256 169.475 0 0 40.225 44.955 28.772 69.189 0 0 17.345 181.276-77.219 164.638-68.809-12.106-93.737-181.001-103.814-214.572s35.005-188.731 35.005-188.731z"/></g><path d="M591.052 607.72c22.138 25.866 50.152 188.553-54.044 244.323s-274.728 53.776-316.858-7.558 48.633-114.917 71.597-126.946S538.243 546.017 591.053 607.72z" class="D"/><path d="m842.497 860.175-31.009 141.143c-24.914 78.796-237.195 9.463-212.282-69.333l40.847-140.644c19.38-58.969 221.824 9.864 202.443 68.833z" class="B"/><path d="M825.707 936.599c-10.807 49.192-13.321 97.668 18.096 127.263 28.908 27.231 92.084 39.64 89.368 84.004s-120.546 37.062-172.525 26.766-150.782-51.981-192.085-92.881c2.168-48.247 21.99-116.001 34.421-162.769 0 0 107.857 43.695 147.926 44.6 0 0 2.537-16.143 12.686-21.042 15.99-7.718 49.598-9.215 62.112-5.942z" class="G"/><path d="M933.171 1147.867c12.426-.135 16.242 20.799 14.832 32.746-2.088 17.691-55.394 35.839-138.455 27.329-93.285-9.558-184.431-43.09-249.941-90.951-9.053-6.614.114-40.744 8.954-35.239 60.888 37.916 158.986 84.113 247.161 90.369 91.4 6.485 113.41-13.26 117.449-24.254z" class="C"/><path d="M863.211 1107.219c-.162 0-.324-.008-.489-.023-51.62-5.012-74.424-60.22-91.074-100.531-7.521-18.208-15.298-37.036-21.613-38.158a5 5 0 0 1-4.049-5.797 4.994 4.994 0 0 1 5.797-4.049c11.716 2.08 19.011 19.742 29.107 44.187 15.683 37.967 37.16 89.965 82.799 94.396a5 5 0 0 1-.478 9.977z" fill="#8f969e"/><g class="C"><path d="M826.27 1107.218c-.271 0-.536-.015-.796-.043a5.954 5.954 0 0 1-4.433-2.809c-2.436-3.943-.563-9.955 5.41-26.132 2.123-5.748 5.152-13.955 5.951-18.012-3.554-.62-10.271-.996-15.471-1.287-20.229-1.131-32.797-2.313-36.766-9.154-4.288-7.393 4.996-17.532 23.17-36.304 5.13-5.298 11.811-12.198 14.579-15.968-14.388-7.55-64.822-14.01-70.535-12.879a4.993 4.993 0 0 1-5.976-3.77 5.006 5.006 0 0 1 3.774-5.985c8.845-2.003 69.408 5.982 81.776 16.7 1.261 1.092 1.996 2.635 2.07 4.344.208 4.744-4.629 10.182-18.505 24.514-6.833 7.058-19.189 19.82-21.121 24.717 4.165 2.463 20.148 3.356 28.091 3.801 11.438.64 18.082 1.094 21.65 2.975 6.433 3.39 2.973 12.761-3.309 29.772-1.499 4.061-3.481 9.431-4.708 13.454 2.4-1.183 5.237-2.688 7.758-4.025 17.117-9.083 30.941-15.761 40.124-12.369a5 5 0 1 1-3.465 9.381c-5.718-2.12-22.796 6.951-31.972 11.821-9.243 4.904-13.834 7.258-17.3 7.258z"/><path d="M852.157 1116.919a5 5 0 0 1-4.99-5.395c.14-1.762.901-5.249 2.348-11.773 1.255-5.66 3.575-16.122 4.311-21.83-4.987.73-13.596 2.427-20.354 3.758-29.086 5.729-31.39 5.716-34.094 3.01-3.146-3.146-1.327-7.303 2.159-14.381 2.369-4.811 5.756-11.09 9.03-17.163 3.557-6.594 8.535-15.825 10.778-20.835-5.248-1.252-15.247-3.022-23.029-4.4-29.602-5.241-34.371-6.517-36.455-9.747-3.067-4.755 2.085-9.45 8.051-14.886 4.902-4.467 11.521-10.021 18.526-15.903 10.583-8.885 26.576-22.311 28.314-25.787 1.081-2.542 4.01-3.703 6.55-2.623a5.02 5.02 0 0 1 2.634 6.578c-2.035 4.781-11.484 13.05-31.068 29.491-7.015 5.889-15.936 13.378-20.812 18.035 6.552 1.551 17.808 3.544 26.003 4.995 27.281 4.83 29.564 5.609 31.413 8.271 2.508 3.612 1.377 6.562-12.104 31.558l-9.423 17.969c5.921-.907 14.922-2.68 21.593-3.993 24.88-4.901 27.106-4.994 29.675-3.347 4.161 2.667 3.908 7.037-1.937 33.396l-2.142 10.397a5 5 0 0 1-4.979 4.605z"/></g><path d="M792.971 390.927c92.996 6.706 128.539 59.206 116.366 164.017l-50.526 406.451c-51.451 28.714-196.376 2.851-262.525-54.67l43.449-169.411s-21.916-55.785 11.9-116.123c37.128-66.247 41.037-92.231 41.037-92.231s43.404-142.135 100.299-138.033z" class="D"/><path d="M203.246 38.994c-42.633-2.204-60.212 29.111-67.273 60.696-8.575 38.357 1.619 83.792-11.249 100.169-23.569 29.997-68.003 37.847-78.743 72.85-28.926 94.277 84.888 147.308 118.918 124.81-26.248-34.283-12.32-72.85 16.82-102.848 37.19-38.284 43.71-72.85 32.997-130.167s25.105-123.62-11.47-125.511z" class="F"/><path d="M161.19 402.63c-19.199 0-38.418-8.208-54.526-23.381-20.087-18.921-32.565-45.691-32.564-69.864 0-27.85 15.236-37.662 29.971-47.151 9.369-6.034 19.057-12.273 26.191-23.53 12.716-20.062 8.728-36.457 3.678-57.214-3.371-13.858-7.191-29.565-6.667-48.913.074-2.761 2.41-4.939 5.134-4.862a4.999 4.999 0 0 1 4.862 5.134c-.488 18.012 3.165 33.028 6.388 46.277 5.389 22.151 10.042 41.281-4.947 64.932-8.315 13.118-19.424 20.272-29.225 26.584-14.183 9.134-25.385 16.349-25.385 38.744 0 21.184 11.548 45.749 29.421 62.585 15.203 14.319 33.334 21.626 51.08 20.559a5 5 0 0 1 .598 9.982c-1.335.08-2.671.119-4.008.119z" class="H"/><path d="M220.15 844.484c74.84 123.054 226.338 242.015 282.231 314.045 45.161 58.199 240.617-54.297 224.19-109.963-22.309-75.601-185.646-205.265-237.196-296.901s-305.773 32.727-269.225 92.82z" class="D"/><path d="m701.128 1412.705-21.525 184.927c-11.107 81.891-239.002 50.982-227.895-30.909l31.304-186.113c10.539-71.062 227.152-29.316 218.116 32.095z" class="B"/><path d="M461.15 1510.588c-4.938 29.356-26.243 91.206-28.482 108.763-7.942 62.262 43.708 123.667 87.814 159.17s55.877 75.948 133.59 97.592c84.998 23.673 133.853-6.735 146.481-31.99s-12.628-71.557-40.408-93.445-59.204-65.833-69.873-109.44-5.718-86.142-3.881-101.923c3.344-28.728-74.411-28.728-78.62 11.846-33.765 10.171-92.603-5.051-146.621-40.574z" class="G"/><path d="M803.897 1835.488c10.559 3.092 8.085 32.775 6.849 42.67s-67.406 45.762-127.391 35.867-127.391-33.394-168.206-100.182-88.393-105.924-99.191-135.121c-2.256-20.752 2.256-58.448 16.712-59.372 7.393 62.204 55.37 103.571 91.421 144.771 67.553 77.202 103.066 101.512 157.409 107.233 58.748 6.184 113.168-8.658 122.398-35.867z" class="C"/><path d="M713.108 1775.293a4.986 4.986 0 0 1-2.75-.828c-35.125-23.194-59.353-52.894-74.067-90.795-12.351-31.813-15.313-62.437-17.691-87.043-2.134-22.062-3.819-39.487-11.487-40.51a5 5 0 0 1 1.32-9.912c15.537 2.071 17.46 21.948 20.12 49.459 4.641 47.982 11.652 120.493 87.315 170.455a5 5 0 0 1-2.76 9.174z" fill="#8f969e"/><g class="C"><path d="M680.197 1760.737c-1.394 0-2.484-.253-3.468-.726-1.478-.709-2.568-1.933-3.072-3.445-1.517-4.551 1.685-8.927 17.271-27.319 7.495-8.844 20.862-24.616 23.313-30.993-5.468-.49-19.346 1.405-29.826 2.837-27.877 3.812-45.295 5.693-52.173-.308-1.982-1.729-3.074-4.108-3.074-6.696 0-8.588 11.538-21.601 30.365-42.122 10.167-11.083 25.356-27.641 26.523-33.059-8.338-8.664-77.926-45.382-86.779-47.122a5.001 5.001 0 0 1 1.016-9.948c6.991.636 45.626 21.181 47.268 22.055 18.932 10.084 42.463 23.419 47.051 29.674 5.836 7.959-4.879 20.274-27.71 45.16-10.654 11.614-26.564 28.958-27.672 34.772 1.072.515 4.544 1.54 14.68.976 8.615-.481 19.055-1.909 29.15-3.289 20.118-2.752 31.765-4.185 37.213-1.621a7.39 7.39 0 0 1 4.165 5.223c1.62 7.452-7.066 18.728-25.881 40.928l-10.936 13.208c5.145-1.647 11.855-4.126 17.359-6.159 25.304-9.347 41.184-14.732 48.307-10.724a4.998 4.998 0 1 1-4.837 8.752c-4.692-1.702-27.657 6.791-40.005 11.353-16.463 6.081-23.856 8.595-28.249 8.595zm68.188-19.984zm-149.056-168.964l.058.006-.058-.006z"/><path d="M701.399 1778.575a4.999 4.999 0 0 1-3.951-8.059c11.997-15.517 25.063-34.14 29.366-42.602-6.339.747-17.936 3.235-26.961 5.172-32.644 7.004-41.282 8.177-44.534 2.634-3.044-5.188 1.517-11.653 17.806-33.282 8.077-10.726 22.884-30.387 23.629-36.22-3.78-2.939-20.797-7.455-33.368-10.792-32.994-8.756-51.606-14.249-50.484-25.307.668-6.579 8.046-13.003 22.125-24.726 18.067-15.044 42.813-35.647 45.429-57.862a5 5 0 1 1 9.932 1.17c-3.083 26.178-29.601 48.256-48.962 64.377-7.25 6.037-17.051 14.197-18.433 17.592.769.84 3.643 3.155 13.8 6.674 8.382 2.903 18.944 5.706 29.159 8.417 25.964 6.891 36.838 10.251 39.85 15.816 4.019 7.426-4.437 19.986-24.688 46.876-5.132 6.813-11.704 15.541-14.858 20.707 7.267-.652 21.431-3.691 31.501-5.852 29.085-6.24 35.649-7.196 39.051-3.133 2.942 3.516 1.19 8.313-2.828 15.412-2.539 4.484-6.334 10.353-11.279 17.439-8.336 11.947-17.251 23.49-17.341 23.605a4.99 4.99 0 0 1-3.959 1.941zm-4.619-112.902z"/></g><path d="M726.57 1048.565c29.204 80.972 17.502 454.516 0 516.828-27.429 38.256-234.764 5.498-286.496-58.647-.451-32.101 11.461-45.555 10.275-111.96-1.024-57.335 26.62-93.169 26.892-151.952-19.725-22.101-2.836-48.369 6.536-100.717 16.03-89.537 231.504-124.853 242.794-93.552z" class="D"/><path d="M500.532 1299.006a5.001 5.001 0 0 1-4.554-2.93l-23.289-51.171a5 5 0 1 1 9.101-4.143l23.289 51.171a5 5 0 0 1-4.547 7.072zm1.849-135.478a4.98 4.98 0 0 1-3.532-1.462c-.541-.539-13.294-13.297-18.424-20.645a5 5 0 0 1 8.199-5.725c4.624 6.623 17.163 19.167 17.29 19.293a5 5 0 0 1-3.533 8.538zM271.45 898.371a5 5 0 0 1-4.616-6.918c8.759-21.095 18.644-71.095-6.63-109.348a5 5 0 1 1 8.344-5.512c27.536 41.676 17.685 94.218 7.522 118.693a5.002 5.002 0 0 1-4.62 3.084z" fill="#ce9800"/><path d="M121.999 306.083c43.58-18.88 66.97-26.912 66.97-26.912 67.804-.01 132.346-8.106 192.951-25.964 0 0 32.852-2.796 51.651 1.463 22.115 5.01 15.583 72.379 23.57 92.347s50.918 62.898 46.924 96.844-12.172 59.081-4.822 74.379c8.586 17.87 62.777 31.337 69.418 61.15 7.639 9.064 22.392 19.552 22.389 28.33-36.162-14.457-109.35 33.487-154.832 77.416s-87.036 75.362-127.737 87.093c-55.182 15.906-88.542 28.223-88.334 72.255-10.304-8.428-18.336-20.083-23.274-36.127 0 0-43.243-2.081-36.254-57.991 5.238-41.904-43.929-118.808-38.622-184.702 5.29-65.688-32.263-245.603 0-259.581z" class="E"/><g fill="#005141"><path d="M288.048 358.539c-61.196 0-108.641-34.385-126.095-65.354a5 5 0 0 1 8.711-4.911c20.043 35.564 83.214 75.881 160.91 54.166 32.048-8.958 53.635-25.395 64.159-48.853 7.87-17.541 6.332-32.76 6.315-32.912a5.007 5.007 0 0 1 4.417-5.515 4.998 4.998 0 0 1 5.521 4.396c.081.712 1.888 17.666-6.901 37.612-8.048 18.265-26.867 42.617-70.819 54.902-16.045 4.485-31.531 6.467-46.218 6.467zm-91.173 454.819a5 5 0 0 1-4.712-6.674c11.604-32.696 30.705-51.241 58.392-56.694 45.925-9.046 110.568-34.899 139.915-64.998 6.662-6.833 13.333-14.168 20.396-21.935 22.992-25.281 49.051-53.936 80.215-69.35 43.245-21.391 76.528-19.402 77.923-19.307a5 5 0 1 1-.68 9.976c-.306-.021-32.146-1.82-72.81 18.293-29.47 14.577-53.76 41.286-77.25 67.115l-20.634 22.187c-30.758 31.547-97.737 58.492-145.143 67.828-24.26 4.779-40.434 20.739-50.9 50.229a5.002 5.002 0 0 1-4.712 3.328z"/><path d="M568.664 584.39a5.002 5.002 0 0 1-4.677-3.229c-6.769-17.87-27.959-31.049-44.985-41.638-11.29-7.021-20.208-12.568-23.998-18.634-6.421-10.276-3.027-30.642.565-52.202 1.537-9.226 2.988-17.939 3.51-25.185 2-27.801-18.183-54.625-32.919-74.212-6.226-8.274-11.143-14.81-13.578-20.222a5 5 0 0 1 9.119-4.103c1.978 4.395 6.831 10.845 12.45 18.313 15.687 20.85 37.171 49.404 34.902 80.94-.555 7.711-2.044 16.648-3.621 26.11-2.835 17.017-6.363 38.194-1.948 45.261 2.561 4.098 11.42 9.607 20.799 15.441 18.307 11.385 41.089 25.554 49.056 46.586a5 5 0 0 1-4.675 6.772z"/></g><path d="M188.969 279.171c16.198 28.74 68.18 63.473 133.375 45.25s59.576-71.213 59.576-71.213l-38.785 5.302-116.608 6.664-37.558 13.998z" class="B"/><g class="F"><path d="M250.082 219.322c-28.915 2.27-77.164-23.525-66.973-112.332 8.98-78.255 37.203-94.932 77.513-93.221C305.408-5.046 359.289.94 387.939 30.874s22.072 143.458-14.539 170.621c-26.512 19.671-94.918 15.598-123.318 17.828z"/><path d="M397.394 32.629c10.207 13.027 21.816 42.609 23.472 71.368 1.303 22.63 15.784 35.362 6.011 54.398-10.607 20.662-12.621 37.442-4.729 52.08 0 0-45.32-20.166-34.21-55.163 8.552-26.94 3.235-35.381-1.805-48.453-14.615-37.908 11.26-74.229 11.26-74.229z"/></g><g class="B"><rect height="192.185" rx="55.113" transform="matrix(.996686 .081347 -.081347 .996686 19.552 -22.635)" width="115.68" x="229.703" y="132.525"/><path d="M298.367 38.541c83.723-13.352 102.341 52.674 100.012 94.915-1.695 30.734-2.547 51.992-8.281 76.442-7.96 33.941-37.476 53.814-69.435 49.687-30.12-3.889-88.481-30.726-94.7-102.195-5.919-68.011 18.613-110.271 72.405-118.85z"/></g><g class="F"><path d="M318.539 55.248c-12.703-12.401-14.413-30.361 5.685-38.486s70.117-31.288 86.379-3.421c13.684 23.449 7.171 48.765 8.026 72.712s-100.09-30.805-100.09-30.805z"/><path d="M318.539 55.248c5.758 16.831 42.739 30.858 76.255 30.805 31.83-.05 10.523-61.863-12.313-62.319s-69.879 14.159-63.942 31.514z"/></g><path d="M232.915 149.694c-10.421-19.908-46.177-11.789-33.379 20.491 8.49 21.415 25.588 30.919 34.852 22.739s5.519-29.872-1.473-43.23z" class="B"/><g class="F"><path d="M224.14 138.908c12.571 6.902 95.342-67.341 80.844-100.596S204.689 15.508 199.356 66.729s1.866 59.596 24.784 72.18z"/><path d="M318.539 55.248c-2.868 32.499-39.643 80.393-78.639 89.801-18.082 4.362-37.196-11.973-37.196-11.973 22.512-1.336 37.196-11.523 43.692-37.203 5.677-22.44 5.131-60.978 44.254-60.977 18.421 0 27.889 20.353 27.889 20.353z"/></g><path d="M364.027 131.83c10.567-3.003 27.312-.784 33.07 5.018s9.519-3.853 2.28-11.597c-7.204-7.707-29.553-12.033-40.189-9.269-9.402 2.443-6.335 19.024 4.839 15.848zm-37.491 2.998c-7.19 0-32.138-.455-44.621 8.258-6.351 4.433-14.091-3.59-5.841-11.283s42.35-18.097 50.376-13.435 6.329 16.459.086 16.459z" class="H"/><g class="I"><path d="M337.998 200.838a5 5 0 0 1-4.913-5.962c2.007-10.249 10.348-14.574 17.181-13.442 5.684.944 11.24 6.065 10.01 15.079a4.99 4.99 0 0 1-5.63 4.278 5 5 0 0 1-4.278-5.63c.316-2.318-.269-3.618-1.739-3.862-1.745-.295-4.837.948-5.729 5.499a5.003 5.003 0 0 1-4.901 4.04zm-9.663 35.252c-9.784 0-20.512-4.757-23.951-13.481a4.999 4.999 0 1 1 9.302-3.668c2.217 5.621 12.963 8.479 19.361 6.506a4.998 4.998 0 1 1 2.943 9.557c-2.368.729-4.978 1.087-7.656 1.087zm-99.086-53.831a5.002 5.002 0 0 1-4.936-4.238c-2.083-13.494-10.428-21.606-12.794-22.339a5 5 0 1 1 2.957-9.553c6.618 2.048 17.153 13.74 19.72 30.366a5 5 0 0 1-4.948 5.764z"/><path d="M214.568 174.909a5.001 5.001 0 0 1-3.084-8.939l9.576-7.487a5.001 5.001 0 0 1 6.161 7.877l-9.576 7.487a4.98 4.98 0 0 1-3.076 1.062zm113.591 90.811c-23.138 0-52.145-11.581-67.776-28.753a5 5 0 1 1 7.394-6.732c17.125 18.812 53.642 30.476 73.727 23.548a4.997 4.997 0 0 1 6.357 3.096 5 5 0 0 1-3.096 6.357c-4.903 1.691-10.556 2.484-16.606 2.484z"/></g><g class="H"><path d="M218.348 216.391a4.976 4.976 0 0 1-2.955-.97c-14.303-10.502-32.549-30.072-38.255-63.672-5.503-32.401 1.748-71.031 21.553-114.815a5 5 0 0 1 9.111 4.121C161.6 143.2 196.435 189.095 221.311 207.361a4.998 4.998 0 0 1-2.963 9.03zM418.622 91.054a5.001 5.001 0 0 1-4.942-4.284c-.073-.504-7.603-50.416-32.692-58.264-11.125-3.48-23.654-2.038-35.276 4.065-10.983 5.767-19.565 15.023-22.397 24.156a4.999 4.999 0 0 1-8.749 1.553c-9.346-12.238-8.828-22.262-6.748-28.515 3.79-11.394 15.531-20.179 33.954-25.405a5.001 5.001 0 0 1 2.729 9.621c-14.877 4.22-24.535 10.946-27.194 18.94-1.2 3.608-.962 7.502.701 11.635 5.065-8.23 13.188-15.658 23.056-20.841 13.99-7.345 29.229-9.035 42.912-4.756 31.087 9.725 39.27 64.069 39.604 66.378a5.001 5.001 0 0 1-4.955 5.715z"/><path d="M204.18 138.093a61.45 61.45 0 0 1-1.601-.021 4.998 4.998 0 1 1 .25-9.996c20.251.529 33.232-10.725 38.707-33.38.662-2.739 1.291-5.798 1.956-9.037 4.561-22.206 11.453-55.765 47.157-55.765 15.087 0 24.781 6.947 32.416 23.229a5 5 0 0 1-9.054 4.246c-6.049-12.902-12.162-17.476-23.361-17.476-25.521 0-31.803 20.707-37.362 47.777l-2.03 9.374c-6.498 26.884-22.762 41.046-47.077 41.047z"/><path d="M310.156 47.37a4.995 4.995 0 0 1-4.194-2.272c-7.046-10.817-33.651-21.332-45.013-25.821l-2.177-.862a5 5 0 1 1 3.697-9.291l2.154.854c14.306 5.652 40.933 16.175 49.717 29.664a4.998 4.998 0 0 1-1.461 6.918 4.973 4.973 0 0 1-2.724.812z"/></g><ellipse cx="304.984" cy="169.909" fill="#fff" rx="21.464" ry="19.464" transform="matrix(.081347 -.996686 .996686 .081347 110.827 460.06)"/><g clip-path="url(#A)"><ellipse cx="307.74" cy="177.258" fill="#111" rx="18.611" ry="12.715" transform="matrix(.081347 -.996686 .996686 .081347 106.034 469.557)"/></g><ellipse cx="375.742" cy="166.166" fill="#fff" rx="20.487" ry="18.578" transform="matrix(.081347 -.996686 .996686 .081347 179.56 527.144)"/><g clip-path="url(#B)"><ellipse cx="377.853" cy="172.764" fill="#111" rx="17.843" ry="12.191" transform="matrix(.081347 -.996686 .996686 .081347 174.922 535.309)"/></g><path d="M121.999 306.083C97.53 319.936 52.407 432.444 41.321 495.532S-3.412 563.878 5 622.76c0 0-26.55 140.621 68.765 166.439C180.124 818.008 192.162 548.105 212.14 466.09s-90.142-160.008-90.142-160.008z" class="E"/><path d="m143.51 575.616 168.323-119.701c38.076-30.456 80.996 58.08 44.165 98.453L201.591 727.191c-48.448 51.435-116.868-107.66-58.08-151.574z" class="B"/><g class="E"><path d="M99.889 593.754c16.878-13.64 8.876-67.729 66.419-36.767l81.617 129.652c13.546 59.988-58.956 59.021-58.956 59.021-40.573 50.313-78.259 50.717-115.204 43.54-49.805-9.676-97.723-95.362 26.124-195.446z"/><path d="M207.256 523.911c-1.182 9.848 6.942 41.702 22.708 71.446 12.583 23.739 30.034 46.133 51.507 54.92-3.452 14.734-18.36 27.243-33.545 36.362-46.336 0-83.026-78.441-81.616-129.652 11.429-13.198 25.191-24.113 40.947-33.076z"/></g><g fill="#005141"><path d="M88.263 608.551c-1.213 0-2.401-.2-3.533-.62-4.329-1.604-7.943-6.626-5.104-15.907a4.997 4.997 0 0 1 6.244-3.318 5 5 0 0 1 3.318 6.244c-.572 1.868-.612 2.984-.563 3.555 1.417-.293 4.684-2.188 6.685-6.756 11.061-25.255 20.837-44.94 37.38-49.55 10.433-2.91 22.033.492 36.502 10.703a5 5 0 1 1-5.766 8.17c-11.661-8.229-20.836-11.25-28.052-9.24-12.287 3.424-21.266 21.92-30.904 43.929-3.378 7.713-10.103 12.791-16.207 12.791zm-56.515 71.221a4.98 4.98 0 0 1-3.466-1.398c-.866-.836-21.298-20.848-28.182-54.613a5 5 0 1 1 9.798-1.998c6.237 30.597 25.14 49.233 25.33 49.418a5.003 5.003 0 0 1-3.482 8.591zm129.03 98.668a5 5 0 0 1-3.193-8.851c9.912-8.21 27.545-27.144 27.723-27.334a5.002 5.002 0 0 1 3.608-1.595c21.854-.23 40.273-7.386 49.275-19.14 6.742-8.804 8.389-20.118 4.893-33.63a5 5 0 0 1 2.155-5.47c7.439-4.746 27.591-20.021 31.421-33.51a5 5 0 0 1 9.619 2.731c-4.652 16.388-24.973 31.831-32.706 37.222 3.078 14.991.531 28.325-7.442 38.737-10.704 13.977-30.653 22.308-54.954 23.017-4.524 4.807-18.407 19.379-27.213 26.673a4.983 4.983 0 0 1-3.187 1.149z"/><path d="M247.925 691.639c-45.332 0-86.616-64.18-86.616-134.652 0-16.529 14.746-22.875 26.595-27.974 6.242-2.687 12.139-5.224 15.949-8.765a4.997 4.997 0 1 1 6.806 7.325c-5.076 4.718-12.055 7.722-18.804 10.625-12.784 5.502-20.547 9.512-20.547 18.788 0 70.201 41.186 124.652 76.616 124.652a5 5 0 1 1 0 10z"/><path d="M201.28 532.472a5.001 5.001 0 0 1-4.947-5.767l7.873-49.312a5 5 0 0 1 9.871 1.603l-7.861 49.239a5.002 5.002 0 0 1-4.936 4.235z"/></g><path d="M535.722 429.539l9.482 16.066c1.287 2.181-.541 4.878-3.043 4.489l-18.436-2.859-184.513-125.08c-4.887-3.313-6.163-9.96-2.85-14.847s9.96-6.163 14.847-2.85l184.513 125.08z" class="C"/><g class="B"><path d="M311.832 455.915c24.856-26.931 78.534-81.942 93.352-83.918s79.525 92.367 65.2 106.198-68.721 64.818-88.343 69.368c-54.475 12.633-88.739-71.572-70.209-91.648z"/><path d="M405.185 371.998c12.819-1.493 65.451-4.696 76.095-1.983s8.89 18.373 7.453 23.248-61.184 9.402-61.184 9.402z"/><path d="M427.549 402.665c8.402-1.783 63.272-11.079 68.358-5.652s9.906 18.981 3.145 22.738-52.202 13.525-52.202 13.525z"/><path d="M445.385 430.051s52.044-15.39 57.78-11.026c11.127 8.466 3.189 24.076 3.189 24.076l-47.821 15.874-13.147-28.924zm64.031 13.35c17.453 23.76-4.243 42.923-24.152 59.076s-31.487-9.636-19.719-19.619 43.87-39.456 43.87-39.456z"/><path d="M455.895 453.174s47.054-22.541 53.521-9.772c7.889 15.574-5.015 17.201-39.031 34.794l-14.491-25.022zm25.385-83.159c11.206 3.431 34.925 26.546 42.029 32.65 13.545 11.639 1.319 29.988-14.212 22.99s-25.995-20.688-33.591-28.71c-13.778-14.552-7.578-31.017 5.774-26.93z"/></g><path d="M427.553 407.666a4.999 4.999 0 0 1-2.209-9.488c18.434-9.056 61.481-9.884 63.306-9.914h.086a5 5 0 0 1 .083 9.999c-.425.008-42.631.818-59.064 8.891a4.976 4.976 0 0 1-2.201.514zm17.829 27.386a5.001 5.001 0 0 1-1.334-9.819c15.895-4.41 52.674-10.178 54.232-10.422a5 5 0 0 1 1.543 9.881c-.376.059-37.765 5.921-53.102 10.178a5.007 5.007 0 0 1-1.34.183zm10.515 23.123a4.999 4.999 0 0 1-1.933-9.612l4.569-1.93c15.75-6.681 30.617-13 49.462-12.144a5 5 0 0 1 4.771 5.22c-.125 2.758-2.477 4.889-5.22 4.771-16.569-.749-29.795 4.864-45.109 11.359l-4.609 1.946a4.975 4.975 0 0 1-1.93.39zm14.492 25.021a4.998 4.998 0 0 1-2.274-9.455l22.084-10.945a5 5 0 0 1 4.408 8.976l-21.951 10.877a4.976 4.976 0 0 1-2.267.547z" class="I"/><path d="m744.62 259.523 8.554 8.467c-1.765-1.463-4.288-2.246-7.406-2.096l-198.907 9.568c-9.753.469-20.578 8.015-24.114 16.852L421.962 544.179c-1.829 4.57-1.261 8.368 1.118 10.766l.004-.004-9.485-9.367c-2.184-2.407-2.656-6.105-.888-10.523l100.785-251.865c3.536-8.837 14.361-16.383 24.114-16.852l198.907-9.568c3.558-.171 6.34.872 8.106 2.754z" class="G"/><path d="m641.195 527.223-207.187 30.26c-10.159 1.484-15.583-4.469-12.047-13.305l100.785-251.865c3.536-8.837 14.361-16.383 24.114-16.852l198.907-9.568c8.317-.4 12.396 5.833 9.16 13.919l-92.229 230.483c-3.236 8.086-12.84 15.661-21.503 16.927z" class="C"/><path d="M556.846 297.573c1.913-4.78-.812-8.426-6.103-8.144-5.313.283-11.196 4.416-13.122 9.23s.845 8.458 6.172 8.14c5.305-.316 11.142-4.446 13.054-9.226z" fill="#111"/><g class="B"><path d="M745.804 317.339c8.458 16.916 28.804 92.829 23.925 115.937s-18.492 58.551-30.4 73.302c-5.333 6.605-52.086-19.795-56.1-50.757-6.771-52.222 49.565-164.502 62.575-138.482z"/><path d="M745.804 317.339c-8.618-14.722-53.977-28.365-64.128-26.295s-48.589 19.85-60.811 27.038c-16.848 9.909-6.794 37.343 16.141 28.16 23.007-9.212 45.65-20.015 45.65-20.015l47.125 22.506 16.022-31.394z"/><path d="M738.393 349.043c-12.875-12.361-50.478-29.638-59.129-28.144s-45.381 22.473-54.423 28.968c-17.497 12.566-3.937 37.915 16.181 26.509l38.242-21.185 43.839 24.73z"/><path d="M737.186 376.375c-13.68-7.907-47.881-14.345-54.519-11.126s-31.936 15.059-41.242 20.563c-16.094 9.52-7.892 35.717 15.29 24.729l32.048-15.376 37.808 7.5 10.616-26.29z"/><path d="M733.709 404.16c-9.06-5.624-38.444-17.183-48.589-11.872s-21.393 16.349-28.779 23.006c-13.36 12.042 4.574 32.124 18.321 20.492s17.926-16.005 17.926-16.005 29.561 15.43 30.186 13.495 10.935-29.115 10.935-29.115z"/></g><path d="M624.846 354.866a4.999 4.999 0 0 1-2.822-9.131c4.296-2.929 42.388-28.648 56.835-29.82 12.929-1.065 31.011 8.908 48.503 18.536l8.702 4.744a5 5 0 0 1-4.711 8.821 796.992 796.992 0 0 1-8.813-4.804c-14.679-8.08-32.941-18.134-42.872-17.33-8.902.723-36.626 17.629-52.011 28.115a4.971 4.971 0 0 1-2.812.869zm112.337 26.51c-.7 0-1.411-.147-2.089-.459-8.256-3.802-33.728-12.253-42.001-11.533-2.742.226-5.172-1.809-5.404-4.561s1.81-5.171 4.561-5.404c11.688-.978 40.023 9.188 47.028 12.414a5.002 5.002 0 0 1-2.095 9.543zm-70.587 29.47a4.999 4.999 0 0 1-3.156-8.88c.385-.313 9.549-7.744 18.951-13.867 8.413-5.479 26.414-1.588 53.502 11.563a5 5 0 1 1-4.368 8.996c-24.688-11.985-39.728-14.757-43.678-12.18-8.95 5.828-18.011 13.174-18.102 13.247a4.975 4.975 0 0 1-3.15 1.12z" class="I"/><path d="M509.097 679.9c33.242-63.747 159.542-307.933 283.874-288.973 118.803 18.117 47.13 193.687 11.741 258.406-69.836 127.716-153.078 292.15-275.563 230.773-128.906-64.595-43.567-155.111-20.052-200.206z" class="D"/><g fill="#ce9800"><path d="M599.013 887.649a5.002 5.002 0 0 1-4.816-6.356l40.339-143.954c-1.322-4.764-5.191-20.525-5.288-42.125-.105-23.54 4.479-58.731 26.919-92.694 18.163-27.491 26.296-44.996 29.847-55.751-5.955 9.029-12.584 20.593-14.527 29.799a5 5 0 1 1-9.785-2.065c4.237-20.072 26.142-47.516 27.072-48.674a4.997 4.997 0 0 1 3.898-1.869h.042a5.002 5.002 0 0 1 3.908 1.935c2.808 3.617 8.789 20.23-32.111 82.137-40.228 60.886-20.212 127.124-20.005 127.786.289.922.305 1.913.044 2.844l-40.726 145.341a5.002 5.002 0 0 1-4.811 3.646z"/><path d="M639.738 742.315a4.999 4.999 0 0 1-4.838-6.271l19.407-73.884a4.997 4.997 0 0 1 6.106-3.565 4.999 4.999 0 0 1 3.565 6.106l-19.407 73.884a5.001 5.001 0 0 1-4.833 3.73zm-130.646-57.413a5 5 0 0 1-4.387-7.391l48.513-86.503a5 5 0 1 1 8.479 5.301c-10.646 17.026-47.834 85.296-48.208 85.983a5 5 0 0 1-4.396 2.61zM646.979 943.65a4.989 4.989 0 0 1-3.675-1.608c-25.974-28.131-131.535-146.56-158.128-187.661a5 5 0 0 1 8.396-5.432c25.859 39.968 132.229 159.396 157.079 186.31a5 5 0 0 1-3.673 8.391z"/></g></svg></g></svg>