<svg xmlns="http://www.w3.org/2000/svg" width="3000" height="2504" xmlns:v="https://vecta.io/nano"><g transform="matrix(1.304709 0 0 1.302325 229.565217 838.695652)"><svg width="2042.435" height="1153.789"><path d="M1667.462 873.436c-197.106 26.65-210.477 95.54-337.859 181.64a731.139 731.139 0 0 1-26.919 17.35c-18.033 11.07-38.154 22.38-60.98 33.89-157.588 79.47-413.634 52.77-555.276-32.72-36.564-22.07-65.512-48.06-83.166-77.15-8.091-13.33-13.809-27.3-16.811-41.85-34.939-169.37-224.595-257.58-274.838-287.68-50.232-30.09-380.937-241.59-79.535-529.21 265.298-253.178 539.017-88.079 600.783-44.895 11.589 8.102 23.933 15.075 36.889 20.739C1181.005 249.6 1466.253.945 1764.2 238.316c305.59 243.46 138.143 603.37-96.738 635.12zm72.298-722.839c184.136 119.18 283.33 281.564 242.834 437.488-5.113 19.687-12.305 38.682-21.417 56.935 47.339-46.043 75.808-98.168 80.554-154.426 11.018-130.604-108.208-254.42-301.972-339.998zM376.758 754.176C170.749 691.552 35.293 571.293 35.186 424.557c-.013-18.527 2.136-36.922 6.308-55.107C7.651 420.927-6.609 473.419 2.875 524.091 24.891 641.725 169.91 723.382 376.758 754.176z" fill="#55a0fd"/></svg></g><g transform="matrix(1.303997 0 0 1.303734 922.173913 738.26087)"><svg width="1231.331" height="1246.587"><clipPath id="A"><ellipse cx="562.47" cy="223.179" rx="36.866" ry="34.341" transform="matrix(.245646 -.96936 .96936 .245646 207.957 713.589)"/></clipPath><clipPath id="B"><path d="M630.681 225.178c-13.386 70.871 72.92 77.84 72.216 69.306-1.365-16.568-6.472-31.965 2.801-58.338 4.075-11.591 7.095-22.525 9.168-32.817-2.971-25.493-71.629-44.626-84.185 21.85z"/></clipPath><clipPath id="C"><ellipse cx="677.246" cy="242.598" rx="34.11" ry="31.773" transform="matrix(.245663 -.969355 .969355 .245663 275.714 839.497)"/></clipPath><path d="M637.506 42.541S579.308-33.973 475.84 18.228 373.303 204.121 359.321 219.304s-79.159 78.447-17.524 139.459 131.363-3.735 131.363-3.735z" fill="#a66036"/><g fill="#f2b9a9"><path d="M752.284 524.977c95.712 65.083 117.658 216.365 146.737 380.859 22.239 125.805 27.564 232.165-48.517 241.528-49.759 6.125-120.591-4.327-156.59-92.444-46.385-113.541-91.636-444.149-59.658-499.99 0 0 53.57-73.782 118.028-29.953z"/><path d="M802.97 952.628c88.193-66.049 255.944-163.947 301.363-196.835s121.808 61.02 77.866 124.431c-43.308 62.497-183.14 199.709-304.229 259.217-94.98 46.677-144.878-134.481-75-186.813z"/></g><path d="M631.507 34.462s101.431-17.999 118.163 98.825c20.663 144.274-7.638 164.419 75.368 196.699 0 0-39.966 63.023-67.634 63.023 0 0-32.494-16.195-33.908-28.213 0 0-6.363 36.054 7.776 50.193 0 0-226.149 64.675-330.869-58.801S426.284-46.298 631.507 34.462z" fill="#a66036"/><path d="M599.354 309.994L564.2 473.027c-10.053 46.625-56 76.272-102.624 66.219s-76.271-56-66.218-102.625l35.154-163.033c10.053-46.625 56-76.272 102.624-66.219s76.271 56 66.218 102.625z" fill="#f2b9a9"/><g fill="#e1e3e3"><path d="M770.748 511.749c-70.653-9.501-117.008 79.165-119.478 181.871l48.028 222.625c86.217 1.847 203.126-31.072 224.315-71.151-21.045-69.955-122.867-303.92-152.865-333.345z"/><path d="M595.223 447.067s-109.186 38.569-212.835-30.184c-59.465 0-157.364 18.001-196.447 38.763s4.886 377.395 31.755 437.241 505.007 71.691 517.851 34.198c11.895-34.718 25.731-67.805 29.395-100.782s-24.427-111.142-35.419-136.79 41.442-170.357-6.19-194.784-128.108-47.663-128.108-47.663h-.002z"/></g><path d="M571.474 439.286l-171.861-22.403h-17.225c31.649 78.46 116.345 122.218 179.593 115.428s33.243-85.245 33.243-85.245l-23.749-7.781h-.002z" fill="#f2b9a9"/><path d="M769.766 744.537c8.24 37.17 10.84 71.65 10.14 100.52-1.021 42.112-20.862 127.575 3.414 298.678-17.253 12.565-322.501 207.791-577.255 25.361-30.82-22.07-37.459-54.64-52.339-83.73 4.05-16.88 7.68-33.84 8.28-50.52 2.46-67.76 20.11-141.03 20.11-141.03 31.03 13.93 65.17 14.34 89.27 4.78 39.62-15.73 67.07-83.71 10.99-247.33-56.37-164.47-134.56-172.94-157.57-155.87 29.38-48.87 198.79-94.73 222.06-82.85 26.61 13.57 206.57 241.92 225.9 238.72 18.15-3.02 37.61-58.94 46.09-115.2 5.09-33.77 5.88-62.81 1.49-81.63-5.99-25.65 135.01 31.6 181.42 83.24 10.99 100.76-32 206.86-32 206.86z" fill="#e82786"/><path d="M119.224 504.266c19.445-24.19 64.447-64.496 121.258-11.126 84.358 79.249 39.311 324.716 42.311 491.734 2.294 127.735-9.079 233.619-85.687 230.97-50.104-1.731-118.431-23.13-140.208-115.793-28.06-119.397 22.009-545.629 62.325-595.782l.002-.002z" fill="#f2b9a9"/><path d="M154.923 481.516c127.75 2.162 166.771 120.385 158.419 295.827L297.299 926.34C171.675 946.564 38.17 895.929.001 845.068 15.164 802.06 92.36 520.165 129.344 489.125l25.579-7.61z" fill="#e1e3e3"/><path d="M583.922 713.682c-35.593-.005-85.891-57.194-162.963-149.708-51.019-61.242-103.775-124.571-137.225-139.777a8.663 8.663 0 0 1 7.171-15.771c37.055 16.845 88.694 78.833 143.367 144.458 54.555 65.485 122.48 146.963 151.438 143.363 6.185-.773 13.12-6.332 20.057-16.078 31.944-44.877 53.775-164.727 40.981-224.978a8.664 8.664 0 0 1 16.948-3.599c13.805 65.005-9.125 189.893-43.812 238.625-9.965 13.999-20.738 21.812-32.024 23.223a31.405 31.405 0 0 1-3.936.243l-.002-.002z" fill="#b5016d"/><path d="M663.324 71.007c-92.334-42.916-156.295-14.803-191.701 45.044-38.408 64.92-48.02 145.099-30.622 197.493 16.081 48.427 92.125 98.147 127.71 103.339 39.859 5.817 115.1-37.845 130.834-87.522 10.748-33.936-7.81-49.03 5.848-91.653 30.417-94.923.004-147.144-42.068-166.699v-.002z" fill="#f2b9a9"/><ellipse cx="562.47" cy="223.179" fill="#fff" rx="36.866" ry="34.341" transform="matrix(.245646 -.96936 .96936 .245646 207.957 713.589)"/><g clip-path="url(#A)"><ellipse cx="563.475" cy="233.858" fill="#111" rx="29.672" ry="21.054" transform="matrix(.245663 -.969355 .969355 .245663 198.363 722.619)"/></g><path d="M552.817 342.211c13.127 7.222 30.504 5.853 29.892 14.466s-19.627 18.423-42.229 6.12c-20.881-11.366-22.838-39.611-15.912-42.135 5.993-2.183 15.122 14.328 28.249 21.549z" fill="#fff"/><g clip-path="url(#B)"><ellipse cx="677.246" cy="242.598" fill="#fff" rx="34.11" ry="31.773" transform="matrix(.245663 -.969355 .969355 .245663 275.714 839.497)"/><g clip-path="url(#C)"><ellipse cx="677.246" cy="251.046" fill="#111" rx="26.786" ry="19.007" transform="matrix(.245663 -.969355 .969355 .245663 267.524 845.87)"/></g></g><path d="M173.249 457.723c97.093-46.215 195.721 174.858 200.969 289.763 3.155 69.084 5.712 140.586-38.415 154.765-21.448 6.89-32.187-34.546-31.863-37.556 5.341-49.655 16.112-103.503-21.561-213.429-56.367-164.47-134.56-172.937-157.575-155.875 7.893-13.127 25.891-26.038 48.446-37.67l-.002.002z" fill="#e82786"/><g fill="#f2b9a9"><path d="M174.165 1017.805c89.983-63.589 273.319-167.313 319.629-198.934s123.935 67.386 74.402 126.533-201.53 205.07-324.215 261.213c-96.232 44.038-141.111-138.429-69.815-188.812z"/><path d="M493.794 818.871c39.978-30.672 97.9-87.914 124.908-114.36s146.114 115.226 100.973 146.231c-50.446 34.649-92.063 104.236-151.478 94.662-27.301-4.399-74.402-126.533-74.402-126.533z"/><path d="M618.702 704.511c20.5-19.699 50.144-53.551 70.049-64.089 14.803-7.837 73.377-18.698 90.64-20.937 30.455-3.95 39.939 38.158 8.001 43.824s-74.381 18.944-74.381 18.944l-53.972 54.918-40.337-32.661z"/><path d="M653.952 732.202c15.454-17.32 61.102-30.731 76.348-28.154 12.284 2.076 34.419 62.702 19.287 69.141s-54.836 25.457-70.033 32.281-38.742-29.489-12.853-42.933 43.741-18.023 43.741-18.023L671.297 760.2l-17.345-27.997z"/><path d="M656.765 774.56c17.283-15.469 60.327-31.053 76.619-22.989 11.176 5.532 35.648 75.549 16.34 82.459-15.479 5.539-62.122 17.006-77.982 22.074s-35.215-33.673-7.993-44.114 45.47-12.98 45.47-12.98l-40.643 11.175-11.81-35.626z"/><path d="M674.803 819.637c17.283-15.469 56.504-21.232 71.367-16.952 11.975 3.448 21.118 68.699 7.907 79.027-9.649 7.543-21.34 16.457-35.573 25.393-23.511 14.762-48.303-19.045-25.233-36.951 16.562-12.855 25.101-21.351 25.101-21.351l-27.596 17.324-15.972-46.489z"/></g><g fill="#de8f74"><path d="M747.046 781.791a7.498 7.498 0 0 1-6.7-4.12l-9.198-18.212c-.508-1.008-2.047-4.059-8.817-4.994-18.769-2.589-49.91 12.595-53.872 16.857a7.501 7.501 0 0 1-11.749-9.325c6.642-8.452 42.936-24.891 66.111-22.576 13.075 1.306 19.027 7.943 21.719 13.281l9.195 18.208a7.5 7.5 0 0 1-6.688 10.883zm9.93 50.272a7.503 7.503 0 0 1-7.438-6.609c-.799-6.467-3.765-14.679-6.535-15.97-14.088-6.561-46.354 5.377-64.233 16.519a7.5 7.5 0 0 1-7.934-12.731c13.78-8.587 54.747-28.452 78.501-17.385 11.863 5.527 14.656 24.114 15.096 27.784a7.5 7.5 0 0 1-7.457 8.392zm-49.988 86.263c-9.621 0-18.867-4.99-24.521-12.273-8.506-10.96-9.968-28.078 5.943-41.612l25.101-21.351a7.498 7.498 0 1 1 9.718 11.426l-25.101 21.351c-10.929 9.296-6.307 17.775-3.812 20.989 4.41 5.684 12.869 9.061 19.857 4.124a25844.63 25844.63 0 0 0 32.972-23.368l8.684 12.231-32.999 23.387c-5.026 3.552-10.494 5.096-15.844 5.096z"/><path d="M666.056 905.177a7.5 7.5 0 0 1-5.333-12.773l27.215-27.524a7.5 7.5 0 0 1 10.666 10.546l-27.215 27.524a7.478 7.478 0 0 1-5.333 2.227z"/></g><path d="M632.517 67.85C630.566 16.561 532.186.213 462.306 60.484c-45.681 39.4-94.379 123.58-10.068 140.765 70.796 14.43 182.532-74.256 180.28-133.398h-.002zM410.005 304.164c7.836 22.654.698 36.919 20.881 48.625 23.496 13.628 71.115 10.054 71.115 10.054-10.828 21.308-57.283 36.085-95.548 33.087-38.063-2.981-69.163-31.374-79.101-69.597" fill="#a66036"/><path d="M602.3 148.891c-21.82-15.458-57.623-14.615-69.758-9.771-16.01 6.391-14.484 22.71-1.061 21.716 27.894-2.068 44.268 5.364 63.087 12.072s20.855-14.722 7.733-24.019v.002z" fill="#773a12"/><path d="M802.964 960.13a7.5 7.5 0 0 1-6.098-11.858c.954-1.336 23.729-32.776 55.542-36.671 4.091-.501 7.853 2.421 8.355 6.533a7.5 7.5 0 0 1-6.533 8.356c-25.334 3.102-44.96 30.224-45.155 30.498a7.49 7.49 0 0 1-6.111 3.144z" fill="#de8f74"/><path d="M1231.191 703.337c1.705 25.271-12.403 129.574-30.376 155.6s-53.113 62.777-75.45 74.844c-10.003 5.404-54.115-51.382-43.069-91.708 18.631-68.017 146.274-177.608 148.895-138.736z" fill="#f1b9a8"/><path d="M684.998 166.223c18.422-1.135 39.355 7.846 49.121 22.923 8.247 12.735-4.952 23.67-12.726 13.83s-20.819-13.631-38.793-11.18c-17.912 2.444-18.574-24.281 2.397-25.573zM451.904 367.606c-.208 0-.417-.009-.628-.026-35.305-2.926-45.659-28.938-46.202-42.284a7.5 7.5 0 0 1 7.189-7.798c4.126-.161 7.604 3.025 7.796 7.139.014.215.466 6.755 4.636 13.342 5.473 8.646 14.833 13.576 27.819 14.652a7.5 7.5 0 0 1-.611 14.975z" fill="#773a12"/><path d="M634.77 318.051a7.5 7.5 0 0 1-7.342-9.072c.313-1.591 1.576-9.911-5.502-11.904-8.943-2.52-16.209 7.546-16.281 7.648-2.385 3.366-7.052 4.19-10.432 1.827s-4.229-6.994-1.886-10.387c4.878-7.065 17.243-17.863 32.663-13.527 16.726 4.708 17.849 21.344 16.105 29.483a7.502 7.502 0 0 1-7.326 5.931z" fill="#de8f74"/><path d="M456.946 207.481c5.169 16.389 7.23 55.546-17.15 60.413-21.55 4.302-53.103-27.664-47.705-64.647 6.056-41.48 55.419-25.69 64.857 4.236v-.002z" fill="#f2b9a9"/><path d="M632.56 84.479a7.5 7.5 0 0 1-7.342-9.065c8.798-41.276-15.465-48.739-16.502-49.036-4.008-1.047-6.367-5.133-5.32-9.141s5.188-6.395 9.192-5.351c1.071.28 10.693 3.017 18.786 12.908 7.228 8.833 14.571 25.327 8.514 53.747a7.502 7.502 0 0 1-7.327 5.938z" fill="#773a12"/><g fill="#de8f74"><path d="M440.87 233.474a7.5 7.5 0 0 1-7.496-7.36c-.133-7.121-2.064-12.445-5.742-15.824-5.758-5.292-14.428-4.786-14.515-4.78a7.477 7.477 0 0 1-8.051-6.876c-.333-4.129 2.771-7.747 6.9-8.08 1.523-.12 15.197-.924 25.653 8.544 6.92 6.266 10.537 15.261 10.752 26.736a7.5 7.5 0 0 1-7.358 7.639l-.144.001z"/><path d="M414.676 233.474a7.47 7.47 0 0 1-5.237-2.133 7.5 7.5 0 0 1-.129-10.606l17.978-18.419a7.498 7.498 0 0 1 10.605-.128 7.5 7.5 0 0 1 .129 10.606l-17.978 18.419a7.48 7.48 0 0 1-5.368 2.261zm160.515 191.431c-.102 0-.203-.002-.305-.006-24.794-.993-66.599-26.878-68.366-27.979a7.499 7.499 0 0 1 7.933-12.731c11.112 6.919 43.74 25.03 61.033 25.722a7.5 7.5 0 0 1-.295 14.994z"/></g><path d="m1198.094 558.765 11.025 12.619c-2.303-2.21-5.727-3.551-10.073-3.656l-277.153-6.745c-13.59-.331-29.381 9.057-35.18 20.971L721.407 921.529c-2.999 6.161-2.594 11.492.468 15.061l.007-.006-12.228-13.961c-2.79-3.562-3.073-8.744-.173-14.701l165.306-339.575c5.8-11.914 21.59-21.302 35.18-20.971l277.153 6.745c4.957.121 8.716 1.849 10.978 4.64l-.005.004z" fill="#8d949c"/><path d="m1027.528 920.062-290.734 21.154c-14.256 1.037-21.187-7.774-15.387-19.688l165.306-339.575c5.8-11.914 21.59-21.302 35.18-20.971l277.153 6.745c11.589.282 16.625 9.347 11.317 20.25L1059.09 898.725c-5.307 10.902-19.406 20.453-31.562 21.338z" fill="#656c72"/><path d="M933.532 592.69c3.137-6.444-.278-11.782-7.655-11.923-7.405-.142-15.991 5.004-19.15 11.495s.322 11.829 7.75 11.925c7.399.095 15.918-5.052 19.055-11.496z" fill="#111"/><path d="M216.556 996.389a7.5 7.5 0 0 1-4.011-13.843l67.459-42.589a7.5 7.5 0 1 1 8.008 12.684l-67.459 42.589a7.471 7.471 0 0 1-3.997 1.159z" fill="#de8f74"/><g fill="#f1b9a8"><path d="M1231.331 705.169c-3.037-22.642-52.022-62.947-65.632-65.636s-70.29-.595-89.105 1.968c-25.936 3.532-27.698 42.622 5.384 43.134 33.186.513 66.745-1.129 66.745-1.129l46.585 52.166 36.023-30.502z"/><path d="M1205.786 740.505c-9.517-21.927-47.04-62.711-58.5-65.337s-67.682 4.305-82.211 7.653c-28.112 6.48-24.464 44.806 6.287 41.115l58.197-6.403 41.376 53.216 34.852-30.244z"/><path d="M1190.165 773.649c-12.813-16.841-51.738-42.474-61.603-41.929s-47.24 2.095-61.581 4.085c-24.805 3.441-28.213 40.046 6.106 38.454l47.542-2.429 42.832 28.811 26.705-26.992z"/><path d="M1171.506 806.178c-8.286-11.631-38.612-41.102-53.891-39.785s-34.881 9.138-47.447 13.545c-22.731 7.971-10.955 42.052 12.041 34.788s30.421-10.506 30.421-10.506 28.544 34.344 30.317 32.276 28.56-30.318 28.56-30.318z"/></g><path d="M1202.815 738.867a7.481 7.481 0 0 1-5.817-2.761l-8.416-10.505c-13.889-17.483-31.174-39.241-43.621-43.303-11.227-3.663-54.032 2.884-78.38 7.871-4.054.823-8.021-1.785-8.853-5.843a7.5 7.5 0 0 1 5.842-8.852c11.165-2.287 67.783-13.396 86.043-7.436 16.734 5.46 34.009 27.204 50.714 48.232l8.296 10.357a7.499 7.499 0 0 1-1.073 10.552 7.467 7.467 0 0 1-4.734 1.688zm-12.648 42.282a7.476 7.476 0 0 1-5.525-2.427c-8.19-8.917-35.112-32.364-45.582-35.739a7.5 7.5 0 1 1 4.601-14.276c15.305 4.933 44.763 31.959 52.027 39.869a7.5 7.5 0 0 1-5.521 12.573zm-18.658 32.529a7.485 7.485 0 0 1-5.629-2.54c-23.969-27.188-41.131-38.431-46.916-37.368-14.026 2.566-28.981 6.945-29.131 6.989a7.5 7.5 0 0 1-4.234-14.39c.64-.188 15.843-4.643 30.665-7.354 13.526-2.475 33.998 11.726 60.867 42.203a7.502 7.502 0 0 1-5.623 12.46zm-44.074 15.301a7.483 7.483 0 0 1-5.697-2.618l-14.802-17.26a7.501 7.501 0 0 1 11.387-9.765l14.802 17.26a7.501 7.501 0 0 1-5.69 12.383z" fill="#de8f74"/></svg></g><g transform="matrix(1.299814 0 0 1.300952 739.565217 500.869565)"><svg width="250.872" height="364.95"><path d="M84.068 322.699 63.82 363.574c-1.009 2.037-15.216-2.941-31.736-11.125-16.513-8.18-29.082-16.465-28.073-18.503l20.248-40.875c1.009-2.037 15.216 2.941 31.729 11.121 16.52 8.184 29.089 16.469 28.08 18.506z" fill="#5917be"/><path d="M118.86 25.888 238.048 84.93 97.592 329.655l-88.096-43.64z" fill="#fd5cee"/><path d="M131.684 0 118.86 25.888 238.048 84.93l12.824-25.888" fill="#5917be"/><path d="m125.486 88.719 59.811 29.628-48.97 98.857-59.81-29.628z" fill="#fff"/><path d="M68.588 364.951c-.421 0-.848-.054-1.274-.166-40.812-10.728-64.649-31.716-65.644-32.604a5 5 0 0 1 6.659-7.461c.354.313 23.278 20.34 61.528 30.394a5 5 0 0 1-1.269 9.837zM242.901 92.336a4.976 4.976 0 0 1-2.216-.521L111.783 27.962a5 5 0 0 1 4.439-8.961l128.902 63.854a5 5 0 0 1-2.223 9.482z" fill="#330094"/></svg></g><g transform="matrix(1.30323 0 0 1.30372 1334.347826 233.478261)"><svg width="810.695" height="332.16"><g fill="#fd6622"><path d="M807.146 163.464c-6.82-21.74-44.55-46.9-115.34-76.92-25.36-10.76-50.44-20.14-69.24-26.85l-31.58-10.84c-1.13-.36-76.11-24.39-158.67-38.5-113.14-19.33-186.19-11.57-217.13 23.07-16.25 18.2-27.05 36.21-32.1 53.53-1.55 5.32-2.53 10.55-2.94 15.65-.17 1.96-.25 3.91-.24 5.83.01 1.38.05 2.74.15 4.09 0 .05.01.09.01.14a66.44 66.44 0 0 1 7.78-.45 68.41 68.41 0 0 1 7.26.39 49.446 49.446 0 0 1-.16-6.29c.05-1.23.14-2.47.27-3.72 1.9-17.84 12.54-38.32 31.16-59.18 26.87-30.08 97.15-36.41 203.26-18.3 64.73 11.05 124.78 28.29 147.33 35.1.01.01.02.01.02.01l9.4 2.91h.01c.49.16 49.53 16 99.65 37.26 29.53 12.52 51.03 23.29 66.64 32.42l2.59 1.54c.4.23.8.47 1.19.71 3.24 1.96 6.21 3.83 8.91 5.63 19.62 13.05 25.8 21.98 27.46 27.27 8.55 27.24-4.25 41.29-8.38 44.95-6.49 5.76-18.96 11.85-42.3 10.61-8.37-.45-18.13-1.84-29.52-4.53-4.51-1.06-9.27-2.32-14.3-3.81-15.42-4.57-33.35-11.26-54.21-20.69-44.6-20.16-83.71-32.1-119.51-38.71l-10.83-1.85c-.08-.01-.16-.03-.24-.04-.92 4.77.79 9.85 4.521 15.04l-.41.83a41.41 41.41 0 0 1 1.18.2 8.96 8.96 0 0 1 .55.1h.01c38.28 6.78 76.76 19.2 118.55 38.1 15.75 7.12 33.03 14.09 50.43 19.55l.01.01c5.99 1.88 11.98 3.59 17.93 5.05 10.62 2.63 21.09 4.53 31.1 5.36 3.82.33 7.56.5 11.22.5 18.1-.01 34.09-4.14 45.77-14.49 15.57-13.8 20.34-36.48 12.74-60.68z"/><path d="M518.066 168.934l-.41.83a405.268 405.268 0 0 0-36.92-4.68c-45.8-3.7-86.93.64-130.47 5.23l-50.39 4.85c-39.01 3.07-70.72-2.86-91.78-16.57a69.45 69.45 0 0 1-8.89-6.83c-4.7-4.24-8.62-9.04-11.69-14.34a52.47 52.47 0 0 1-1.73-3.23 22.7 22.7 0 0 1-.41-.86c-3.03-6.39-4.81-13.33-5.31-20.67a66.44 66.44 0 0 1 7.78-.45 68.41 68.41 0 0 1 7.26.39c.46 5.32 1.83 10.32 4.12 14.93a43.88 43.88 0 0 0 2.78 4.77 43.91 43.91 0 0 0 2.65 3.49c2.28 2.71 4.93 5.22 7.94 7.51 2.61 2.01 5.49 3.84 8.63 5.52 18.3 9.77 45.2 13.92 77.48 11.38 17.08-1.34 33.81-3.1 49.98-4.81 32.05-3.38 63.46-6.69 96.62-6.69 21.76 0 44.28 1.42 68.24 5.19-.92 4.77.79 9.85 4.521 15.04z"/></g><g fill="#e1e3e3"><path d="m144.506 123.094-7.439 2.86v.01c-1.34 1.82-2.6 3.78-3.79 5.89-1.69 3-2.73 5.75-3.271 8.25 3.18-1.97 7.19-2.4 10.8-.98.32-.74.71-1.53 1.18-2.36 3.17-5.63 7.13-10.11 11.57-13.61a12.23 12.23 0 0 0-9.05-.06zm-65.02 117.06c-6.15 2.27-9.58 8.38-7.64 13.66s8.51 7.72 14.67 5.46c6.15-2.26 9.58-8.37 7.64-13.65s-8.51-7.73-14.67-5.47zm-3.16-39.02c-1.93-5.28-8.5-7.72-14.66-5.46s-9.58 8.37-7.64 13.65 8.5 7.73 14.66 5.47 9.58-8.38 7.64-13.66z"/><path d="M153.556 123.154c-4.44 3.5-8.4 7.98-11.57 13.61-.47.83-.86 1.62-1.18 2.36.56.22 1.12.49 1.66.8 5.05 2.93 7.2 8.94 5.45 14.27-.25.79-.6 1.56-1.03 2.31-1.47 2.53-3.7 4.33-6.24 5.27a12.105 12.105 0 0 1-10.35-.85c-5.79-3.37-7.77-10.79-4.41-16.59 1.04-1.79 2.47-3.22 4.12-4.23.54-2.5 1.58-5.25 3.271-8.25 1.19-2.11 2.45-4.07 3.79-5.89l-54.63 21.04c-2.01.76-3.77 2.05-5.14 3.71l-74.501 91.1c-4.62 5.64-3.37 14.04 2.68 18.11l63.42 42.54c5.61 3.77 13.21 2.33 17.06-3.22l67.17-96.88a12.22 12.22 0 0 0 2.14-5.83l2.91-29.52.98-9.94h.01l2.09-21.22c.58-5.83-2.89-10.75-7.7-12.7zm-84.87 91.64c-6.16 2.26-12.72-.19-14.66-5.47s1.479-11.39 7.64-13.65 12.73.18 14.66 5.46c1.94 5.28-1.48 11.4-7.64 13.66zm17.83 44.48c-6.16 2.26-12.73-.18-14.67-5.46s1.49-11.39 7.64-13.66c6.16-2.26 12.73.19 14.67 5.47s-1.49 11.39-7.64 13.65z"/></g><g fill="#fd6622"><path d="M752.016 133.084l-.01.03-.05.09-2.25 4.92-.35.77-.78 1.69v.01l-1.77 3.86-2.44 5.32-.47 1.03-5.32 11.6-.29.62-.75 1.65-.96 2.08-.6 1.32-1.02 2.23-.47 1.01-21.85 47.68-6.32 13.78-2.37 5.17-1 2.18-4.44 9.68-1.52 3.32-5.79 12.63-1.26 2.75-.45.97-.99 2.17a7.33 7.33 0 0 0-.18.39l-.811 1.76-.97 2.12-.54 1.19-.52 1.14-1.56 3.4-1.72 3.76-.35.75-.49 1.08-.41.88-.42.93-1.41 3.06-.77 1.7-.54 1.17-1.53 3.34-.45.98-.73 1.59-1.41 3.08-1.35 2.94-2.54 5.55-.5 1.08-.65 1.43-.43.93-.63 1.38-.62 1.33-.65 1.44a34.23 34.23 0 0 0-.42.91l-.4.87-2.45 5.34c-26.5-2.5-141.15-54.7-164.51-63.46-16-6-15-15-9.5-30 6.2-16.93 16.88-40.1 28.62-63.94.14-.27.27-.55.41-.83.07-.13.14-.27.21-.41l6.34-12.74c23.96-47.59 49.46-93.49 49.46-93.49l177.94 70.79z"/><path d="M663.043 327.16c15.518 0 35.955-10.588 48.545-13.563 17.433-50.334 44.568-125.687 56.846-187.209l-16.419 6.698-88.972 194.075z"/></g><path d="M663.039 332.161a5 5 0 0 1-4.542-7.085l88.972-194.074 9.09 4.167-88.972 194.075a5.001 5.001 0 0 1-4.548 2.917z" fill="#c63500"/><path d="M591.205 55.85c-25.879-1.679-60.119 58.781-76.237 94.06-18.466 40.42 161.451 104.792 179.412 72.415 15.299-27.58 47.767-87.026 74.054-95.937-51.919-30.227-109.46-54.523-177.229-70.538z" fill="#fd6622"/><path d="M513.552 158.895a5 5 0 0 1-4.922-5.911c.339-1.832.985-3.654 1.92-5.415l9.17-17.492 13.683-25.725.07-.121c10.536-18.801 23.649-39.226 41.05-48.382.176-.1.338-.181.483-.247 5.021-2.582 10.299-4.17 15.69-4.723a4.99 4.99 0 0 1 5.483 4.464 5 5 0 0 1-4.464 5.484c-4.245.435-8.251 1.653-12.249 3.725-.055.028-.109.056-.166.082l-.02.011c-15.161 7.92-27.273 26.96-37.123 44.542-.022.04-.046.08-.069.119-4.487 8.024-8.862 16.454-13.493 25.377l-9.221 17.588c-.45.847-.759 1.704-.913 2.532a5 5 0 0 1-4.91 4.091zm66.196-94.526l-.005.003zm.007-.005l-.007.005.007-.005zm89.628 171.622c-30.824 0-79.093-14.847-114.109-33.108l-2.875-1.53c-12.219-6.573-28.666-16.833-37.523-28.332a72.36 72.36 0 0 1-.839-1.122 5 5 0 0 1 8.058-5.92l.716.957c6.145 7.976 18.025 16.842 34.345 25.62l2.742 1.46c46.425 24.211 107.777 38.414 126.252 29.227a12.34 12.34 0 0 0 1.315-.741 8.593 8.593 0 0 0 1.501-1.22c.13-.122.255-.259.382-.419a6.02 6.02 0 0 0 .651-.95l3.97-7.159.983-1.746c17.581-31.205 33.347-54.086 48.202-69.964 3.379-3.624 6.757-6.906 10.034-9.75 4.343-3.774 8.639-6.886 12.767-9.245a5 5 0 0 1 4.961 8.682c-3.56 2.034-7.318 4.764-11.17 8.112-3.016 2.617-6.139 5.653-9.283 9.026-14.311 15.294-29.613 37.547-46.791 68.035l-.978 1.735-3.935 7.095a15.874 15.874 0 0 1-1.634 2.412 13.33 13.33 0 0 1-1.261 1.374 18.756 18.756 0 0 1-2.973 2.38 22.02 22.02 0 0 1-2.336 1.318c-5.225 2.6-12.512 3.772-21.174 3.772z" fill="#c63500"/><path d="M40.041 243.046a5.003 5.003 0 0 1-1.654-9.721l65.897-23.083a5 5 0 0 1 3.307 9.438l-65.897 23.083a4.984 4.984 0 0 1-1.653.283zm24.02-22.418c-6.568 0-12.538-3.618-14.728-9.58-1.429-3.888-1.023-8.307 1.112-12.124 2.025-3.619 5.399-6.441 9.499-7.945 4.501-1.651 9.438-1.509 13.538.393 3.57 1.656 6.248 4.513 7.54 8.044 1.426 3.881 1.02 8.302-1.115 12.12-2.026 3.623-5.399 6.447-9.499 7.951a18.441 18.441 0 0 1-6.348 1.14zm4.625-5.833h.01zM66.35 199.83c-.973 0-1.98.179-2.961.539-1.833.672-3.369 1.926-4.217 3.44-.416.743-1.028 2.224-.452 3.791.969 2.639 4.744 3.784 8.243 2.501 1.831-.672 3.368-1.927 4.216-3.444.417-.745 1.03-2.229.454-3.798-.48-1.315-1.548-2.038-2.358-2.414-.884-.41-1.885-.615-2.925-.615zm15.53 65.28c-6.569 0-12.538-3.614-14.728-9.571-2.883-7.848 1.874-16.854 10.603-20.076 8.746-3.209 18.205.575 21.095 8.436 2.885 7.856-1.874 16.858-10.609 20.068h-.003a18.425 18.425 0 0 1-6.357 1.143zm4.636-5.835h.01zm-2.372-14.955c-.955 0-1.955.169-2.935.529-3.495 1.29-5.638 4.608-4.67 7.242s4.748 3.776 8.255 2.49c3.498-1.287 5.637-4.598 4.669-7.232-.699-1.902-2.857-3.029-5.319-3.029zm131.372-136.546c-4.7-2.23-11.85-4.35-20.3-5.18-4.69-.46-9.78-.52-15.07.01a67.7 67.7 0 0 0-4.99.67c-11.6 1.97-27.04 7.56-38.09 22.68v.01c-1.34 1.82-2.6 3.78-3.79 5.89-1.69 3-2.73 5.75-3.271 8.25-1.41 6.4.35 11.2 2.48 14.4 1.99 3 4.8 5.39 8.16 7.27 2.54-.94 4.77-2.74 6.24-5.27.43-.75.78-1.52 1.03-2.31-3.25-1.38-5.72-3.15-7.1-5.23-.69-1.02-2.6-3.9-.01-9.84.32-.74.71-1.53 1.18-2.36 3.17-5.63 7.13-10.11 11.57-13.61 7.91-6.25 17.34-9.39 26.51-10.49a66.44 66.44 0 0 1 7.78-.45 68.41 68.41 0 0 1 7.26.39c6.39.7 12.03 2.25 16.13 4.2 4.9 2.33 7.87 7.63 7.87 13.13a14.96 14.96 0 0 1-.93 5.21c-1.08 2.92-2.99 5.67-5.58 8.16 2.61 2.01 5.49 3.84 8.63 5.52 2.74-3 4.91-6.38 6.33-10.19 4.38-11.79-1.02-25.63-12.04-30.86zm-37.5 49.34c-6.71.78-13.18.72-18.85-.04h-.01l-.98 9.94c3.44.44 6.96.64 10.42.64a91.8 91.8 0 0 0 10.57-.61c9.56-1.11 20.03-3.82 28.93-8.45a69.45 69.45 0 0 1-8.89-6.83c-6.1 2.58-13.3 4.44-21.19 5.35z" fill="#656c72"/></svg></g><g transform="matrix(1.301371 0 0 1.304328 2302.173913 780)"><svg width="435.995" height="454.007"><path d="M432.4 253.332c-20.615 99.77-124.453 159.051-236.496 138.115-20.518 36.333-108.516 62.56-108.516 62.56 17.387-30.09 20.818-72.677 21.668-95.972v-.011C31.468 310.352-13.444 224.779 3.595 142.31 25.253 37.477 138.804-22.659 257.207 8.004 375.619 38.656 454.058 148.499 432.4 253.332z" fill="#e1e3e3"/><g fill="#656c72"><path d="M282.911 291.757c-.22 0-.439-.015-.659-.043-46.999-6.254-101.194-21.647-144.973-41.175a4.996 4.996 0 0 1-2.616-2.738c-12.132-30.884-22.413-65.708-3.724-121.538a4.979 4.979 0 0 1 4.948-3.408c63.912 2.649 155.467 27.819 204.092 56.109a5 5 0 0 1 2.411 5.179c-7.713 44.336-28.228 83.14-56.283 106.46a5.005 5.005 0 0 1-3.196 1.155zm-139.686-49.521c41.934 18.464 93.233 33.044 138.151 39.267 24.695-21.358 42.958-55.929 50.533-95.628-47.165-26.343-131.666-49.527-192.657-52.848-15.651 49.438-6.891 81.179 3.973 109.208z"/><path d="M158.959 297.457a23.69 23.69 0 0 1-6.531-.92c-12.429-3.553-19.695-16.395-16.199-28.626 1.699-5.943 5.652-10.852 11.132-13.822 5.444-2.951 11.745-3.632 17.752-1.915 12.429 3.554 19.695 16.395 16.199 28.626-2.885 10.086-12.204 16.656-22.353 16.656zm-.408-36.207c-2.231 0-4.431.55-6.426 1.631-3.097 1.678-5.327 4.441-6.281 7.779-1.981 6.929 2.206 14.225 9.333 16.262s14.539-1.942 16.52-8.871-2.206-14.225-9.334-16.263a13.867 13.867 0 0 0-3.812-.539zm94.102 62.995a23.73 23.73 0 0 1-6.531-.92c-12.429-3.553-19.695-16.395-16.199-28.626 1.699-5.943 5.652-10.852 11.132-13.822 5.444-2.95 11.749-3.632 17.752-1.915s10.994 5.625 14.056 11.009c3.081 5.417 3.843 11.674 2.144 17.617-2.885 10.087-12.203 16.657-22.353 16.657zm-.408-36.207c-2.231 0-4.432.55-6.426 1.631-3.097 1.678-5.327 4.441-6.281 7.779-1.981 6.93 2.206 14.225 9.333 16.263s14.537-1.941 16.52-8.872c.954-3.337.521-6.862-1.221-9.923-1.76-3.095-4.642-5.346-8.112-6.338a13.867 13.867 0 0 0-3.812-.539zM135.716 132.87a5.001 5.001 0 0 1-4.811-6.376c10.148-35.495-8.492-55.278-9.291-56.103-1.914-1.978-1.879-5.139.09-7.063a4.991 4.991 0 0 1 7.047.057c.968.982 23.585 24.53 11.77 65.857a5.003 5.003 0 0 1-4.805 3.627z"/></g></svg></g><g transform="matrix(-1.037417 .791834 .792385 1.038139 374.487703 671.23213)"><svg width="391.78" height="443.442"><path d="M106.985 120.318a5.001 5.001 0 0 1-4.944-4.297c-1.216-8.558-4.674-38.647 1.905-66.56 6.736-28.572 22.005-45.385 44.157-48.618 57.727-8.43 81.395 46.267 98.369 106.625a5 5 0 0 1-9.627 2.707c-6.823-24.263-16.587-54.71-31.655-74.962-14.721-19.785-32.927-27.792-55.643-24.476-40.5 5.912-42.693 68.076-37.605 103.876a5 5 0 0 1-4.957 5.704z" fill="#ce9800"/><g fill="#ffd215"><path d="M391.78 379.764H59.359L28.963 119.547l296.823-14.783z"/><path d="m28.963 119.547 13.712 11.979L5 148.361l21.374 290.081 32.985-58.678z"/><path d="M358.796 438.442H26.374L5 148.361l290.91-14.031z"/><path d="m391.78 379.764-32.984 58.678L295.91 134.33l-13.359-15.716 43.235-13.85z"/></g><g fill="#ce9800"><path d="M358.791 443.444a5.002 5.002 0 0 1-4.891-3.988l-62.02-299.925L5.241 153.356a4.997 4.997 0 0 1-5.235-4.753 4.999 4.999 0 0 1 4.753-5.235l290.91-14.031c2.448-.139 4.639 1.571 5.137 3.981l62.886 304.112a5 5 0 0 1-4.902 6.013z"/><path d="M295.913 139.33a4.99 4.99 0 0 1-3.812-1.762l-13.359-15.717a4.998 4.998 0 0 1 2.284-8l43.234-13.85a5 5 0 0 1 3.051 9.523l-36.094 11.563 8.503 10.004a5 5 0 0 1-3.807 8.238zM90.149 186.989a5.002 5.002 0 0 1-4.923-4.161c-4.629-27.176-6.314-54.854-4.745-77.934 1.937-28.466 8.515-49.781 19.554-63.355 8.689-10.684 19.97-16.352 33.528-16.848 14.898-.542 28.514 4.99 40.485 16.447 29.89 28.607 43.613 88.559 43.956 135.283a5 5 0 0 1-4.963 5.036h-.038a5 5 0 0 1-4.999-4.964c-.316-43.175-13.24-101.687-40.87-128.131-9.945-9.518-21.104-14.12-33.206-13.678-10.7.391-19.25 4.696-26.135 13.163-21.591 26.55-20.722 86.267-12.709 133.3a5 5 0 0 1-4.935 5.841z"/></g></svg></g></svg>