<svg xmlns="http://www.w3.org/2000/svg" height="1989.199" width="1218.18" xmlns:v="https://vecta.io/nano"><style><![CDATA[.B{fill:#f4bbab}.C{fill:#e09273}.D{fill:#5ac4ff}.E{fill:#e3e5e5}.F{fill:#b7b7b7}.G{fill:#a85f36}.H{fill:#773a11}]]></style><clipPath id="A"><path d="m485.564 102.582c-2.102 11.82-2.467 23.796-2.741 34.456-.435 16.978-5.898 25.9-7.921 38.005-.88 5.262 46.002 9.03 53.921-24.448 7.974-33.71-40.557-63.204-43.259-48.013z"/></clipPath><path d="m303.806 520.423c-25.749-9.175-117.195-67.306-138.29-86.643s-84.678 21.71-67.387 49.808c28.127 45.706 161.662 192.425 242.516 184.009 81.114-8.443 41.417-119.289-36.839-147.173z" class="B"/><g class="E"><path d="m502.688 281.251c-38.409 10.491-68.485 31.295-85.917 59.47s-58.698 114.557-67.236 124.016c0 0-29.882-3.348-25.613 28.669 31.067 24.455 89.932 117.31 77.815 152.313 18.621 2.84 31.804 5.995 36.734-34.206 23.078-14.717 77.973-139.466 78.975-172.651 1.561-51.695 27.403-169.126-14.758-157.611z"/><path d="m323.922 493.406c-10.213 5.523-17.877 14.404-20.116 27.017 48.726 21.431 75.737 107.122 57.629 141.754 9.996 0 36.771-4.864 40.302-16.459 20.069-61.745-16.424-134.248-77.815-152.313z"/></g><g class="B"><path d="M165.516 433.78c-2.71-14.44-9.936-60.894-11.485-76.894s-91.79-13.068-90.842 13.42c1.751 48.943 6.687 102.673 34.94 113.282 16.072 6.035 67.387-49.808 67.387-49.808z"/><path d="M80.023 355.224c-2.429-7.17-18.024-48.16-23.899-45.606s-27.987 14.032-26.051 22.555c1.26 5.546 4.342 14.516 8.939 22.67s24.519 1.769 20.432-9.979l-6.486 4.086 10.23 21.355 16.834-15.081z"/><path d="M93.914 349.506c-3.754-6.593-7.844-65.237-19.051-65.311s-37.69 20.452-38.735 26.773 3.237 26.631 5.424 36.143 26.023 8.042 23.915-4.992l-2.986-19.874s5.934 38.908 7.083 37.758 24.349-10.498 24.349-10.498z"/><path d="M122.966 348.325c-3.331-11.842-15.913-63.754-25.905-64.124s-40.283 15.413-44.408 25.905c-2.495 6.345-6.593 19.705-8.882 29.605-3.552 15.363 22.235 22.004 27.385 5.551l6.291-19.243 8.042-4.308 6.822 30.974 30.654-4.359z"/><path d="m154.031 356.886c-2.079-18.575-17.783-69.848-34.485-69.924-16.083-.073-42.228 20.65-50.288 25.714-14.699 9.234-1.447 36.025 15.712 26.049 13.588-7.9 22.741-12.404 22.741-12.404s7.442 20.26 9.923 26.876 36.397 3.69 36.397 3.69z"/></g><g class="C"><path d="M114.322 382.599a4.65 4.65 0 0 1-.333-.011 5 5 0 0 1-4.661-5.317l1.793-27.249-6.002-16.278c-4.462 2.625-11.203 6.399-18.076 9.53-11.522 5.249-21.11.026-25.502-7.478-4.702-8.035-4.631-20.283 4.765-27.157 6.156-4.504 28.741-18.626 35.455-21.988a5 5 0 1 1 4.477 8.941c-6.255 3.132-28.252 16.892-34.027 21.117-4.663 3.412-4.53 9.777-2.038 14.035 1.28 2.19 5.085 6.907 12.725 3.428 10.978-5 22.02-12.002 22.13-12.072a5.01 5.01 0 0 1 4.283-.519 5 5 0 0 1 3.093 3.008l8.469 22.97c.242.657.344 1.358.298 2.058l-1.862 28.309a5 5 0 0 1-4.984 4.672zm-55.399-22.984c-5.385 0-10.896-2.247-15.046-6.34-4.538-4.478-6.368-10.085-4.895-15l2.462-8.439 6.498-21.407c3.277-9.205 23.118-21.195 30.106-24.2a5 5 0 1 1 3.949 9.187c-8.243 3.543-23.15 14.198-24.634 18.366-1.575 4.423-4.202 13.519-6.313 20.828l-2.491 8.538c-.301 1.003.303 2.999 2.34 5.008 2.269 2.239 6.388 4.391 10.526 3.089a5 5 0 1 1 3 9.539c-1.776.559-3.633.83-5.504.831z"/><path d="M43.436 355.295c-1.24 0-2.483-.459-3.451-1.383-3.702-3.534-5.104-11.501-7.082-24.207l-1.15-7.114a5 5 0 0 1 4.063-5.788c2.729-.472 5.312 1.342 5.787 4.063l1.183 7.3c.961 6.174 2.567 16.489 4.165 18.57 1.938 1.913 1.991 5.034.104 7.011-.982 1.029-2.299 1.547-3.617 1.547zm3.453-8.617c.006.005.012.011.018.017-.006-.005-.012-.011-.018-.017z"/></g><path d="M27.302 358.832c-10.245 3.896-15.764-.194-20.522-4.691s-12.39 11.739-.264 18.389c8.42 4.618 19.86 2.275 27.662-2.528s-6.876-11.17-6.876-11.17z" fill="#111"/><path d="M235.703 238.253c1.898 3.083.935 7.125-2.147 9.022L34.177 370.001l-6.876-11.17L226.68 236.105c3.083-1.898 7.125-.935 9.022 2.147z" fill="#656c72"/><path d="m128.08 413.309c-1.323-16.454-8.034-26.044-13.763-35.71-6.755-11.396-16.639-29.238-22.515-38.186-11.275-17.167-33.71-2.849-24.721 15.43s16.441 37.675 16.12 42.49-8.232 38.072 18.484 53.482 28-17.547 26.395-37.507z" class="B"/><path d="M96.773 452.489c-1.342 0-2.681-.537-3.666-1.599-13.367-14.402-15.587-30.597-14.904-53.704.007-.239.031-.477.072-.712.114-2.899-4.995-14.654-9.506-25.031l-6.297-14.661c-5.996-14.265.269-23.63 7.456-27.316 8.096-4.151 20.083-2.542 26.137 7.335 7.062 11.521 24.907 42.182 30.799 52.914a5 5 0 1 1-8.766 4.812c-5.844-10.645-23.551-41.066-30.559-52.501-3.023-4.933-9.009-5.735-13.048-3.663-4.66 2.39-5.682 7.691-2.801 14.543l6.25 14.55c7.487 17.228 10.898 25.357 10.249 30.333-.682 24.009 2.422 35.713 12.247 46.298a5 5 0 0 1-.264 7.066 4.98 4.98 0 0 1-3.4 1.335zm-18.48-56.111l-.006.032.006-.032z" class="C"/><path d="M350.717 469.739c-.399 0-.798 0-1.198-.002a5 5 0 1 1 .017-10h.017c9.546.03 31.941.104 38.484-7.832a5 5 0 1 1 7.717 6.36c-8.222 9.973-26.401 11.473-45.036 11.473zm87.753 146.773a5 5 0 0 1-4.999-4.94c-.212-17.716-4.014-28.112-4.052-28.214a5.01 5.01 0 0 1 2.922-6.434c2.578-.97 5.455.323 6.433 2.9.183.48 4.462 11.981 4.697 31.627.033 2.761-2.179 5.026-4.94 5.06h-.061zm-36.728 34.207a4.99 4.99 0 0 1-.973-.096 5 5 0 0 1-3.938-5.873c16.406-83.15-26.945-134.231-74.168-146.505a5 5 0 0 1-3.581-6.097c.695-2.672 3.425-4.273 6.097-3.582 26.59 6.911 50.63 25.127 65.956 49.977 18.262 29.61 23.624 67.005 15.507 108.143-.47 2.382-2.561 4.033-4.9 4.033z" class="F"/><path d="m571.675 278.957-27.966 2.553s-23.198 104.69 30.579 104.709c67.922.024 120.258-111.646 120.258-111.646h-30.632l-92.24 4.384z" class="B"/><g class="G"><path d="m629.83 32.369c-5.921-31.205 32.268-43.742 54.737-20.042-19.699-2.77-45.862 1.231-54.737 20.042z"/><path d="M549.447 22.096c-14.357 1.106-55.266 14.47-71.911 54.924-10.862 26.398-6.054 48.05-8.492 68.442-2.765 23.137-13.431 58.69-37.103 77.685 0 0 11.025 10.931 32.374 21.63 9.972-2.44 17.218-6.368 22.195-11.535 3.099 6.891 3.271 13.809-.313 20.764 19.253 6.705 43.479 11.655 72.438 10.999 77.013-1.742 159.598-9.726 166.37-57.557 4.916-34.722-13.408-44.38-18.938-82.698C691.528 24.012 601.24-6.695 549.447 22.096z"/></g><g class="B"><rect height="200.926" rx="46.517" transform="matrix(.985999 -.166752 .166752 .985999 -30.036 105.094)" width="93.035" x="564.294" y="130.944"/><path d="M505.772 60.91c-21.221 20.534-22.325 51.77-22.949 76.128s-11.596 32.135-7.916 56.518c3.875 25.679 31.805 57.044 76.521 56.799 42.013-.23 85.714-29.088 93.634-62.566 7.974-33.71 10.874-59.082.673-87.622-24.197-67.699-106.35-71.781-139.962-39.257z"/></g><path d="M542.83 37.528c1.749 19.742 55.124 109.857 95.783 107.903s35.279-68.282 9.025-92.979C601.506 9.056 540.093 6.643 542.829 37.528z" class="G"/><path d="M638.614 145.431c12.554-28.296 38.28-8.051 36.21 11.391-2.111 19.829-18.681 29.734-29.01 27.742s-13.562-24.795-7.201-39.133z" class="B"/><path d="M510.996 186.691c-2.366 0-4.469-1.687-4.912-4.097-1.495-8.139 1.794-15.015 8.38-17.519 7.004-2.662 15.195.545 19.484 7.623a5 5 0 1 1-8.553 5.182c-2.003-3.306-5.297-4.25-7.378-3.458-2.657 1.01-2.455 4.42-2.098 6.363a5 5 0 0 1-4.015 5.821 5.03 5.03 0 0 1-.909.083z" class="C"/><path d="M547.115 109.786c-10.2 4.753-13.755-10.356-6.16-13.825 14.675-6.703 35.872-2.635 43.917 5.712 5.109 5.301 7.094 12.431-.254 10.593s-24.554-8.515-37.503-2.481zm-38.482.562c10.411 3.15 11.473-15.336 3.357-15.892-13.39-.917-30.278 4.784-35.278 13.836-3.222 5.833-2.014 9.401 2.686 6.043s22.376-6.064 29.235-3.988z" class="H"/><g class="C"><path d="M551.211 221.339c-2.176 0-4.275-.237-6.219-.722a5 5 0 0 1-3.641-6.062c.668-2.68 3.378-4.312 6.063-3.641 7.42 1.852 19.424-2.295 22.857-9.774a5 5 0 1 1 9.088 4.172c-4.685 10.206-17.354 16.026-28.148 16.026zm97.257-44.157a5 5 0 0 1-4.747-3.435c-3.283-9.952 3.462-29.277 14.112-34.119a5 5 0 1 1 4.139 9.104c-5.322 2.419-10.723 15.917-8.755 21.882a5 5 0 0 1-3.182 6.315 5.01 5.01 0 0 1-1.567.253z"/><path d="M659.898 165.228a4.98 4.98 0 0 1-2.456-.648l-9.083-5.136a5 5 0 1 1 4.921-8.705l9.083 5.136a5 5 0 0 1-2.465 9.353zm-93.283 88.838c-2.331 0-4.417-1.638-4.896-4.011a5 5 0 0 1 3.911-5.891c9.122-1.842 27.198-6.723 37.082-13.328 2.299-1.534 5.402-.916 6.936 1.379a5 5 0 0 1-1.379 6.936c-13.766 9.199-37.946 14.268-40.658 14.815-.334.067-.668.1-.995.1z"/></g><ellipse cx="562.452" cy="144.18" fill="#fff" rx="23.6" ry="21.451" transform="matrix(.066135 -.997811 .997811 .066135 381.394 695.867)"/><ellipse cx="556.56" cy="146.814" fill="#111" rx="17.008" ry="12.848" transform="matrix(.066135 -.997811 .997811 .066135 373.263 692.447)"/><g clip-path="url(#A)"><ellipse cx="493.732" cy="142.974" fill="#fff" rx="22.314" ry="20.282" transform="matrix(.066135 -.997811 .997811 .066135 318.422 626.171)"/><ellipse cx="490.449" cy="146.119" fill="#111" rx="16.315" ry="12.324" transform="matrix(.066135 -.997811 .997811 .066135 312.218 625.832)"/></g><path d="M543.927 47.644c-2.305 0-4.378-1.604-4.883-3.948-1.454-6.752 1.553-20.059 12.792-28.502 2.207-1.658 5.342-1.213 7.001.994a5 5 0 0 1-.995 7.001c-7.802 5.861-9.75 15.022-9.022 18.401a5 5 0 0 1-3.835 5.94c-.354.077-.709.113-1.058.113z" class="H"/><path d="M570.664 272.978c-19.298 1.595-51.696 4.655-67.976 8.273s-47.631 173.644-47.029 204.393 31.352 104.307 34.97 147.718 294.833 27.132 294.23-21.705-17.485-324.979-39.793-331.009-67.68-9.315-74.16-10.25-58.586 32.727-64.514 44.617c0 0 3.618 10.263 1.206 15.381s-21.705 24.412-24.72 30.442-4.221 18.691-4.221 18.691-11.75-42.808-16.426-55.47 8.433-51.081 8.433-51.081z" class="E"/><path d="m483.159 700.884c-5.093 124.132 8.981 494.026 22.879 587.951s241.431 132.206 235.063-19.031-19.319-381.74-35.023-518.98c-12.453-108.832-219.915-123.154-222.919-49.94z" class="D"/><path d="m771.519 1797.048c-1.104 33.116 4.058 64.323-2.76 76.719-25.139 45.705-92.239 20.294-133.669 36.579-73.484 28.884-186.049 28.869-224.685-1.487 0 0-7.42-47.411 15.051-69.312 28.518-27.794 83.552-23.592 118.298-75.28 4.58-25.196 64.449-15.133 56.851 12.495 19.193-21.193 76.773 63.022 170.914 20.286z" fill="#5917c1"/><path d="M770.79 1868.27c2.193-3.526 1.712 26.78-.23 28.711-42.045 41.238-101.376 18.304-133.249 32.154-40.587 17.637-168.802 33.274-229.423.38-2.396-1.613-2.477-32.1 1.344-29.045 45.673 27.29 161.03 20.693 225.089 1.528 52.117-15.592 112.193 1.017 136.469-33.728zm-225.641-40.225c-15.672 0-41.216-11.201-51.014-20.423a5 5 0 0 1 6.853-7.281c10.387 9.776 40.385 20.551 47.913 17.208 8.816-3.918 36.95-27.009 47.491-43.482a5 5 0 0 1 6.907-1.517c2.325 1.488 3.005 4.581 1.517 6.907-11.151 17.426-40.483 42.176-51.854 47.23-2.109.937-4.777 1.357-7.814 1.357z" fill="#330096"/><path d="M506.038 1288.836c8.153 70.522 20.651 114.332 18.408 142.377s-1.122 84.135 16.827 108.814c0 0-41.386 123.057 0 186.218 0 0-23.975 34.907-13.879 57.343 40.862-8.535 76.187 10.723 115.962 38.009 44.819 30.747 126.08 8.992 141.346-11.218 0 0 0-65.531-12.34-114.423 0 0 18.164-72.372 6.731-115.545-22.66-85.564-33.754-218.58-37.992-310.606s-244.878-65.86-235.063 19.031z" class="D"/><path d="M541.269 1731.246c-.667 0-1.346-.134-1.997-.418a5 5 0 0 1-2.583-6.583c10.017-22.953 25.998-39.383 26.674-40.07a5 5 0 0 1 7.136 7.004c-.15.154-15.392 15.861-24.645 37.066a5 5 0 0 1-4.586 3.001zm219.754-3.525a4.97 4.97 0 0 1-2.814-.87c-2.28-1.558-2.867-4.668-1.311-6.949.043-.063 5.311-8.005 10.687-25.421.815-2.64 3.616-4.115 6.252-3.303a5 5 0 0 1 3.303 6.252c-5.881 19.054-11.735 27.749-11.981 28.11-.969 1.418-2.538 2.181-4.135 2.181zm-219.75-182.693c-.516 0-1.039-.08-1.556-.249a5 5 0 0 1-3.197-6.307c5.704-17.433 3.762-30.215 3.741-30.342-.435-2.721 1.412-5.288 4.131-5.731 2.726-.448 5.282 1.388 5.735 4.104.102.61 2.414 15.161-4.104 35.079a5 5 0 0 1-4.751 3.446z" fill="#2199ce"/><path d="m630.189 757.785c8.064 82.604 41.914 411.818 75.23 523.626 25.12 84.304 231.853-3.798 223.901-69.503-15.332-126.698-50.507-396.865-98.942-521.26-17.285-44.393-213.663-70.875-200.19 67.137z" class="D"/><path d="m972.561 1786.388c.321 37.184-2.866 59.14-17.459 75.91-12.86 14.778-53.107 19.215-50.101 80.465 2.197 44.769 143.729 35.266 189.048 16.786 46.454-18.943 52.283-60.934 63.551-101.868 11.165-40.559 57.009-84.111 45.562-131.23l-28.538-61.552c-44.127 123.624-127.771 86.714-132.057 118.627-1.789-22.573-70.747-23.345-70.006 2.861z" fill="#5917c1"/><path d="M905.001 1942.764c-4.532-2.7-2.836 32.454.842 33.544 92.658 27.449 212.596 8.35 238.103-31.718 22.147-34.791 14.09-70.413 24.692-90.768s53.857-72.94 49.192-108.138c-.651-3.494-14.068-24.809-14.668-19.232-8.78 49.616-36.677 91.402-51.063 115.92-13.63 23.228-9.195 49.028-26.716 75.909-25.07 38.459-165.342 55.265-220.381 24.484zm113.329-69.019c-5.575 0-12.35-1.938-20.114-4.157-13.74-3.929-29.312-8.383-40.945-2.784a5 5 0 1 1-4.338-9.01c15.063-7.251 33.343-2.021 48.033 2.179 7.97 2.279 17.887 5.116 20.319 3.128 15.544-12.739 21.342-40.768 16.325-78.922a5 5 0 0 1 4.306-5.608 5 5 0 0 1 5.608 4.306c5.563 42.313-1.317 72.729-19.901 87.959-2.552 2.092-5.669 2.91-9.293 2.91z" fill="#330096"/><path d="M705.42 1281.411c28.578 107.395 101.847 204.746 134.043 253.594s19.809 80.523 44.598 116.829c19.264 28.213 48.658 36.377 48.658 36.377 14.309 38.441 4.28 82.584 27.755 96.587 0 0-6.661 33.553 9.992 39.535 118.632 21.17 208.363-53.312 220.238-157.509l-37.901-49.385s-6.478-41.684-21.3-64.505-194.053-270.968-202.181-341.026-251.296-33.443-223.901 69.503z" class="D"/><path d="M965.334 1719.784a5 5 0 0 1-4.671-3.215c-.259-.652-6.844-16.7-29.402-23.574-2.641-.806-4.13-3.6-3.325-6.241s3.597-4.128 6.241-3.325c27.435 8.361 35.496 28.706 35.826 29.568a5 5 0 0 1-2.884 6.456 4.98 4.98 0 0 1-1.785.331zm175.158-58.179c-1.115 0-2.237-.371-3.167-1.134a5 5 0 0 1-.696-7.036c.069-.088 9.01-11.543 11.193-36.432.24-2.751 2.681-4.79 5.417-4.544a5 5 0 0 1 4.544 5.417c-2.479 28.263-12.976 41.355-13.422 41.898-.988 1.206-2.423 1.83-3.869 1.83zm-390.606-264.483a5 5 0 0 1-4.376-2.572c-22.873-41.169-45.499-105.639-57.642-164.243a5 5 0 1 1 9.793-2.029c14.524 70.104 39.563 130.768 56.591 161.415 1.341 2.414.471 5.458-1.942 6.8-.77.427-1.603.63-2.424.63z" fill="#2199ce"/><g fill="#ea2688"><path d="m495.085 408.597-12.253 3.063c-10.895 15.083-25.281 51.141-27.173 73.983-2.336 28.217 17.374 134.444 17.045 166.642-.929 90.979-9.445 304.096 3.689 542.162 50.733 78.074 331.746 38.956 395.845-44.927-8.215-149.23-58.891-530.019-58.891-530.019-20.101-7.905-116.471-64.25-134.084-191.375l-17.826-8.769c-76.752 16.427-131.951 11.116-166.352-10.759z"/><path d="m524.957 277.632c-12.545 16.824-45.475 95.926-50.945 137.113-4.021 30.277 30.202 33.089 33.782 2.49 4.763-40.711 22.081-108.871 43.055-140.531 4.704-7.101-20.654-7.497-25.892.928z"/></g><g class="E"><path d="M614.529 305.923c8.973-11.518 44.388-55.977 49.919-55.564s32.843 19.443 34.804 22.942-39.833 69.22-42.361 70.196-44.72-34.545-42.361-37.573zm-83.474 1.459c.64 11.909-2.126 32.424 0 33.315s16.932-24.38 16.932-24.38l-16.932-8.936z"/><path d="m568.333 259.198c-5.068 3.611-36.302 43.954-37.278 48.184s31.176 16.677 31.176 16.677c.087-16.241 4.269-27.393 9.444-45.102l-3.342-19.758z"/></g><path d="M575.106 602.872c-27.698 0-50.496-13.231-61-35.409-8.196-17.304-6.77-58.505-6.704-60.251a5 5 0 0 1 7.537-4.121c15.526 9.164 82.459 6.23 109.623-.56a5 5 0 0 1 5.985 3.36c2.516 8.056 14.714 48.982 7.83 63.604-9.238 19.62-35.216 33.345-63.173 33.376h-.099zm-57.842-88.107c-.048 14.158.937 37.983 5.879 48.417 12.682 26.775 40.51 29.689 51.974 29.689h.076c24.227-.027 46.488-11.392 54.138-27.636 3.729-7.922-1.897-34.368-7.005-51.961-24.95 5.035-80 8.939-105.062 1.49z" fill="#b7006d"/><path d="M724.815 649.338c-19.015 51.546-90.52 150.31-114.004 176.906s3.543 94.912 40.86 69.491c44.137-30.068 191.822-155.407 206.195-204.897s-117.347-84.067-133.05-41.5z" class="B"/><g class="E"><path d="M745.066 280.648c35.735 11.731 89.439 26.734 105.162 109.411 14.949 78.605 13.104 151.281 22.01 170.103 12.058 25.483 19.691 57.217 0 81.186s-137.99-12.371-147.268-25.516-8.416-39.353 0-50.258c0 0 2.47-65.754-8.846-110.488-8.301-32.816-2.865-184.879 28.941-174.438z"/><path d="m724.815 649.338c-3.781-8.027-4.355-28.825.155-33.507 33.407-34.678 147.268 5.627 155.354 39.659 3.195 13.448-17.353 44.49-25.861 43.886 11.344-28.368-67.769-67.749-129.648-50.039z"/></g><g class="B"><path d="M610.811 826.244c-26.459 19.907-48.555 33.946-62.363 41.618s16.797 83.753 38.929 73.174c26.41-12.625 39.777-27.162 64.294-45.3s-26.663-80.172-40.86-69.491z"/><path d="M558.631 892.604c-24.309 11.024-23.709 11.453-33.118 13.855s-22.604 1.731-33.696 1.697c-20.411-.063-19.26-25.12-.271-26.547l28.37-2.017 28.532-11.73z"/><path d="M564.977 909.551c-24.309 11.024-26.882 10.233-36.291 12.636s-29.743 2.949-40.835 2.915c-20.411-.063-20.257-25.081-1.271-26.547l35.509-3.235 31.706-10.511 11.183 24.742z"/><path d="m577.853 925.25c-24.309 11.024-38.931 18.095-48.34 20.498s-34.434 1.736-45.526 1.702c-20.411-.063-20.257-25.081-1.271-26.547 22.036-1.701 40.199-2.022 40.199-2.022l36.395-15.239z"/><path d="M587.377 941.035c-24.309 11.024-34.594 16.97-44.004 19.373s-34.727 1.249-45.78.319c-20.339-1.711-18.341-25.655.702-25.583l40.292-.307 32.742-13.934z"/></g><path d="M482.683 952.408a5 5 0 0 1-4.994-4.839c-.292-9.061 9.066-17.038 20.437-17.422 15.152-.511 34.745-.367 39.466-.321l31.779-13.522a5 5 0 1 1 3.916 9.202l-32.742 13.933a4.85 4.85 0 0 1-2.019.399c-.229-.004-23.031-.27-40.063.305-6.61.223-10.865 4.425-10.779 7.105a5 5 0 0 1-4.836 5.158c-.055.002-.109.003-.164.003zm-5.774-25.127c-1.601 0-3.173-.767-4.14-2.19a5 5 0 0 1 1.324-6.945c4.815-3.273 28.424-4.128 47.803-4.258l35.483-14.857c2.546-1.064 5.477.135 6.543 2.681a5 5 0 0 1-2.682 6.544l-36.394 15.239a5.02 5.02 0 0 1-1.904.388c-18.092.1-39.73 1.145-43.431 2.664-.81.496-1.711.734-2.604.735zm2.806-.866l-.113.075c.041-.025.079-.051.113-.075zm-1.478-20.108c-.875 0-1.761-.229-2.565-.712a5 5 0 0 1-1.719-6.859c1.275-2.128 4.25-7.094 47.257-8.394l23.422-7.764a5 5 0 1 1 3.146 9.492l-24.116 7.994c-.461.153-.942.237-1.429.252-16.546.479-36.349 2.309-40.246 4.303-.964 1.093-2.343 1.688-3.75 1.688zm4.294-2.431z" class="C"/><path d="M532.879 908.425c4.887 12.581 26.867-1.816 40.973 8.31s15.919 39.115-15.516 63.945c-43.606 34.443-154.809 70.006-226.393 45.624-59.128-20.139-44.535-80.793 5.083-127.551 61.797-58.236 224.389-92.515 236.299-50.445 8.926 31.531-48.976 38.155-40.446 60.117z" fill="#f7db9c"/><path d="m402.547 870.472c-31.447 21.971 17.127 32.978 41.127 14.434s-12.146-34.683-41.127-14.434z" fill="#40b509"/><path d="m345.426 913.992c-18.27 13.072 3.133 40.415 37.077 11.687 23.151-19.594-8.323-32.259-37.077-11.687z" fill="#297700"/><use href="#C" fill="#374047"/><path d="m368.047 994.435c-33.958 15.88 9.152 31.21 35.413 16.036 36.428-21.047-3.387-31.013-35.413-16.036z" class="D"/><use href="#C" x="151.36" y="-107.771" fill="#fff"/><path d="m441.147 981.792c-18.27 13.072 10.252 33.56 41.084 11.212 24.557-17.8-12.331-31.784-41.084-11.212z" fill="#f62"/><path d="m512.223 955.384c-18.27 13.072 11.382 28.8 42.214 6.452 24.557-17.8-13.461-27.024-42.214-6.452z" fill="#ff5cf0"/><path d="M626.933 884.809c-13.64 9.459-31.095 22.278-40.841 25.527s-26.899 3.974-38.056 4.641c-22.231 1.329-21.414-22.076-2.852-25.061l29.77-5.106s14.851-28.773 35.736-33.414 24.085 27.976 16.243 33.414z" class="B"/><path d="M546.263 920.03c-12.587 0-19.042-7.214-19.866-14.7-.915-8.316 5.08-18.274 17.993-20.352l27.33-4.656c4.125-7.184 18.316-29.459 37.885-33.808 2.693-.598 5.367 1.101 5.966 3.796a5 5 0 0 1-3.796 5.966c-18.323 4.071-32.24 30.563-32.379 30.83a5.01 5.01 0 0 1-3.513 2.616c-.113.021-11.563 2.18-29.905 5.129-6.813 1.096-10.052 5.653-9.641 9.385.434 3.94 4.793 6.144 11.4 5.749l3.104-.181c10.727-.617 25.416-1.462 33.669-4.212 7.674-2.559 22.026-12.613 33.558-20.692l6.015-4.199a5 5 0 1 1 5.699 8.217l-5.976 4.173c-13.313 9.326-27.077 18.97-36.134 21.988-9.515 3.171-24.971 4.06-36.257 4.709l-3.081.18c-.708.042-1.4.063-2.072.063z" class="C"/><path d="M724.967 570.574a4.98 4.98 0 0 1-3.141-1.112 5 5 0 0 1-.744-7.032c15.286-18.906 36.037-19.123 36.913-19.123a5 5 0 1 1 0 10c-.664.006-16.946.332-29.138 15.41-.987 1.222-2.433 1.856-3.891 1.856zm147.275 75.774c-1.54 0-3.06-.709-4.039-2.047-9.797-13.385-52.377-32.29-90.559-35.69-15.79-1.407-37.147-.667-49.225 10.841-2 1.904-5.164 1.828-7.069-.17a5 5 0 0 1 .171-7.069c11.701-11.153 31.418-15.843 57.01-13.563 38.435 3.423 85.021 22.367 97.742 39.745a5 5 0 0 1-1.082 6.988c-.891.652-1.924.966-2.949.966zm-147.274-97.716a5 5 0 0 1-4.996-4.873c-.561-22.018-2-45.897-8.684-71.325-.702-2.67.895-5.405 3.564-6.107 2.683-.701 5.406.895 6.107 3.565 6.962 26.486 8.461 52.075 9.008 73.613a5 5 0 0 1-4.871 5.125l-.129.001z" class="F"/><path d="m718.45 275.878c-11.15 16.271-66.553 106.785-73.174 150.903-5.686 37.89 35.096 37.217 40.224 1.116 6.15-43.296 40.924-109.523 62.509-145.27 4.727-7.829-23.935-15.795-29.558-6.749z" fill="#ea2688"/><path d="M656.779 348.498c-3.205 0-8.207-1.884-27.075-20.118-9.718-9.391-18.724-18.932-18.813-19.027a5 5 0 0 1 7.275-6.86c14.253 15.117 31.949 32.063 38.027 35.511 6.109-6.413 23.882-38.038 38.603-66.971a5 5 0 0 1 8.912 4.535c-.089.176-9.056 17.783-18.735 35.186-5.715 10.274-10.567 18.49-14.424 24.417-7.248 11.139-10.236 13.227-13.51 13.323-.086.003-.173.004-.261.004zm.618-9.94zm-124.745 7.859c-2.017 0-3.909-.833-5.295-2.355-5.816-6.39-3.262-26.282-1.222-37.57a5 5 0 0 1 2.743-3.612c1.44-.695 3.124-.661 4.535.093l31.176 16.677a5 5 0 1 1-4.717 8.817l-6.563-3.511c-5.908 10.153-13.463 20.651-19.771 21.408-.297.036-.593.053-.886.053zm2.259-31.302c-1.069 8.125-1.385 15.693-.828 19.718 2.662-2.746 6.662-8.359 10.382-14.607l-9.554-5.11z" class="F"/><path d="m725.005 207.448c-5.81 42.961-61.773 63.758-89.652 63.499 0 0 29.096-20.589 30.875-51.236 2.34-40.305 62.482-39.658 58.777-12.263z" class="G"/><path d="M663.148 461.547c-2.019 0-4.007-.269-5.903-.78-12.94-3.487-23.052-18.146-17.34-39.415a5 5 0 1 1 9.658 2.594c-4.011 14.934 2.138 24.97 10.284 27.165 6.552 1.77 14.6-1.74 17.796-13.556.721-2.666 3.456-4.245 6.132-3.521a5 5 0 0 1 3.521 6.132c-4.112 15.207-14.47 21.38-24.147 21.381zm-174.742-17.202c-7.54 0-16.422-4.873-19.156-18.619a5 5 0 1 1 9.809-1.95c1.336 6.713 4.896 10.647 9.504 10.567 5.738-.121 12.49-6.3 14.291-17.877.425-2.728 2.97-4.596 5.709-4.172a5 5 0 0 1 4.172 5.709c-2.771 17.809-14.362 26.136-23.961 26.338l-.367.004z" fill="#b7006d"/><path d="M659.899 247.726c-.798 0-1.607-.191-2.36-.595a5 5 0 0 1-2.042-6.77c.039-.074 4.532-8.671 5.755-21.138.27-2.748 2.71-4.761 5.465-4.488a5 5 0 0 1 4.488 5.464c-1.43 14.563-6.673 24.475-6.896 24.889a5 5 0 0 1-4.41 2.637z" class="H"/><defs ><path id="C" d="M322.689 965.648c-18.27 13.072 13.076 30.231 37.077 11.687s-8.323-32.259-37.077-11.687z"/></defs></svg>