<svg xmlns="http://www.w3.org/2000/svg" width="2750" height="3000" xmlns:v="https://vecta.io/nano"><style><![CDATA[.B{fill:#ffd215}.C{fill:#a85f36}.D{fill:#55a2ff}.E{fill:#e09273}.F{fill:#e3e5e5}.G{fill:#ea2688}.H{fill:#ce9800}.I{fill:#5ac4ff}.J{fill:#b7006d}.K{fill:#656c72}.L{fill:#2471ed}]]></style><g transform="matrix(1.25135 0 0 1.250961 311.25 365)"><svg width="1756.103" height="2067.41"><g class="E"><path d="M808.275 2018.741l7.085-3.553c18.751-8.73 41.882-14.747 63.496-19.938-1.339-26.61-14.127-114.838-49.808-151.473-23.942-24.583-63.327-40.45-87.691-48.482-32.244 61.135-144.157 147.222-153.548 184.787-5.71 22.84 11.739 46.174 24.652 56.348 26.323 20.74 57 31.957 81 30.913s43.043-10.696 61.826-21.13c11.705-6.502 32.366-17.057 46.276-24.088-.036.205 4.348-2.104 6.711-3.384zm177.045-248.014c.031 2.088 13.619 99.138 15.706 121.051s3.13 53.739-13.043 65.217-51.131 22.609-61.798 25.897-23.245-44.68-23.245-44.68 41.739-112.696 48-122.609 34.381-44.877 34.381-44.877zm575.725-1536.53c-5.827 0-11.37-3.416-13.803-9.115-3.252-7.619.287-16.432 7.906-19.685l42.38-18.092 27.401-24.221c6.208-5.487 15.687-4.902 21.174 1.305s4.902 15.687-1.305 21.173l-31.034 27.431-46.837 19.995a14.957 14.957 0 0 1-5.883 1.208zm57.298 36.821c-7.331 0-13.742-5.379-14.826-12.848-1.189-8.198 4.492-15.809 12.69-16.999l66.139-22.07a5.737 5.737 0 0 0 3.689-2.127l43.3-54.763c5.14-6.5 14.571-7.599 21.07-2.463s7.601 14.572 2.463 21.07l-40.005 57.159c-5.481 7.363-13.826 21.13-27.557 23.482l-43.324 7.987c-.73.106-22.922 1.573-23.639 1.573z"/><use href="#B"/><path d="M1591.934 243.847c-7.602 0-14.119-5.756-14.905-13.482-.839-8.242 10.93-19.832 19.171-20.671l53.589-1.813 30.892-36.251c5.374-6.306 14.842-7.06 21.146-1.688s7.061 14.841 1.688 21.146l-38.704 45.419-71.339 7.262c-.517.053-1.029.078-1.537.078zM188.449 426.695a14.99 14.99 0 0 1-4.979-.854l-74.348-26.162c-7.814-2.75-11.92-11.314-9.17-19.128a15 15 0 0 1 19.128-9.17l74.348 26.162c7.814 2.75 11.92 11.314 9.17 19.128-2.17 6.167-7.962 10.025-14.149 10.025zm-19.808 54.004c-.385 0-22.424.848-22.815.818l-72.263-8.06c-9.662-.74-21.389-10.2-28.066-20.037L3.522 403.53c-5.333-6.339-4.518-15.802 1.821-21.135s15.802-4.518 21.135 1.821l41.975 49.888a6.365 6.365 0 0 0 4.359 2.236l96.959 14.402c8.26.633 14.443 7.842 13.81 16.103-.603 7.87-7.176 13.854-14.94 13.854z"/><path d="M162.539 471.875c-.884 0-1.78-.078-2.682-.241l-84.962-15.335-53.836-55.505a15 15 0 0 1 21.534-20.886l47.121 48.582 75.472 13.622c8.152 1.472 13.568 9.273 12.097 17.426-1.309 7.251-7.627 12.338-14.745 12.338z"/><path d="M159.791 450.742a15.92 15.92 0 0 1-.437-.006l-60.239-1.721-46.341-41.192c-6.192-5.503-6.75-14.984-1.246-21.176s14.984-6.75 21.176-1.246l38.181 33.938 45.607-13.475c8.281.236 18.521 22.025 18.284 30.306-.232 8.135-6.9 14.572-14.985 14.572z"/></g><g class="I"><path d="M800.494 623.083a165.43 165.43 0 0 0-10.47 12.7l-7.01-8.23s0 .01-.01.02c-2.88 12.48-5.58 25.48-8.09 38.9l-3.15 17.63c-19.71 115.07-27.22 256.55-31.55 367.87l-1.14 30.27c-5.02 214.22 1.92 428.4 31.75 641.06 10.02 61.72 68.18 103.64 129.91 93.62 61.74-10.02 57.65-58.94 62.34-121.32 3.91-52.04 14.52-128.17 8.93-188.6l-4.87-57.521c-14.29-199.35-15.41-401.1 10.3-599.88.85-6.53 1.97-13.94 3.19-21.51l9.45-53.36c4.4-27.71-.97-17.08 5.77-47.22l12.17-69.87 7.5-43.1 2.25-12.92.46-2.61a117.05 117.05 0 0 0 1.33-8.15c13.01-103.33-150.65-43.25-219.06 32.22z"/><path d="M1440.754 1032.143c-.22-4.49-.61-9-1.26-13.44-.67-3.95-1.48-8.71-2.36-12.61-12.54-53.28-47.36-102.92-84.77-146.51v-.01c-16.41-19.11-33.3-37.06-49.04-53.64-47.52-48.81-97.59-94.13-149.16-138h-.01l-2.6-2.22-11.04-9.12-32.67-26.38h-.01l-23.07-18.53c-4.38-3.28-8.74-6.14-13.09-8.62-18.06-10.29-35.73-13.84-52.12-12.2-11.81 1.18-22.96 5.06-33.1 11.05h-.01c-6.37 3.76-12.34 8.35-17.84 13.63-12.18 11.68-22.02 26.73-28.62 43.59-.12.27-.22.54-.33.82-17.08 44.4-11.78 101.03 32.13 141.52 1.88 1.61-1.84 20.26.29 21.52l8.55 5.1c59.8 35.81 117.34 74.03 166.16 126.46 22.62 24.62 44.92 50.11 63.03 77.27-14.43 19.17-30.55 37.22-46.93 55.36l-14.67 15.74c-37.07 39.5-36.15 62.26-77.14 97.29-49.29 41.05-46.31 93.11-3.92 141.26 41.73 47.55 66.82 52.01 114.26 10.17 57.04-51.49 101.61-99.78 158.49-126.9 7.86-9.26 13.67-21.32 21.38-30.79 15.36-19.28 33.99-38.6 47.27-60.07 9.16-14.89 17.24-30.03 23.52-47.58 6.12-17.31 9.46-35.77 8.68-54.16zm-218.69 21.42c.2.55.38 1.07.53 1.56.12.38-.27-.43-.53-1.56z"/></g><path d="M1086.327 540.478l-.13 5.94-1.26 57.41-.17 7.86s-27.42 1.66-69.25 2.86l-46.91 1-5.15.06c-61.63.69-153.29 16.7-173.58 20.38l-4.07.75-2.79-9.18-19.75-64.98-1.72-5.67s129.91-51.65 181.26-51.97c50.11-.32 139.13 33.84 143.36 35.48a1.059 1.059 0 0 1 .16.06z" class="E"/><path d="M866.417 25.759c-13.308-8.465-42.092-23.362-67.826-2.329-32.557 26.609-43.54 61.86-51.652 90.261-21.913 76.717-40.091 47.166-62.13 101.739-21.913 54.261 12.043 112.696 58.478 127.304 21.913-31.826 44.577-33.489 57.391-49.043 28.37-34.435 36.981-85.043 28.925-123.652S866.417 25.76 866.417 25.76z" class="G"/><path d="M730.25 337.248a4.99 4.99 0 0 1-3.904-1.873c-.822-1.025-20.118-25.564-20.047-66.465.046-26.721 12.6-41.379 23.676-54.311 5.973-6.974 11.615-13.561 14.186-21.163 3.224-9.533 1.346-18.216-1.031-29.209-2.833-13.104-6.36-29.412-1.054-51.695a5 5 0 1 1 9.728 2.316c-4.78 20.073-1.656 34.52 1.1 47.265 2.488 11.507 4.839 22.376.73 34.526-3.19 9.434-9.443 16.735-16.063 24.464-10.438 12.187-21.231 24.789-21.271 47.823-.065 37.414 17.669 59.968 17.849 60.192a5 5 0 0 1-3.898 8.128z" class="J"/><path d="M838.264 282.157c-25.651.643-96.634-7.662-134.63 11.795-27.296 13.978-210.261 155.226-240 181.835s25.003 129.878 56.87 129.905c47.478.039 200.663-116.087 265.304-153.652s93.13-151.043 93.13-151.043l-40.675-18.838z" class="B"/><path d="M1014.591 50.039c4.183 14.014 7.428 19.133 8.653 25.833 5.861 32.07 31.863 54.829 17.434 80.08-12.522 21.913-16.696 50.45-5.217 81.913-24.522-8.87-47.478-38.609-50.087-56.87S967.113 78.212 975.983 62.56s34.076-27.705 38.609-12.522zM906.069 3.082c-32.348-4.174-73.006 12.573-91.013 45.913-26.351 48.791-31.152 93.261-19.674 120.913s48.795 39.231 48.795 39.231S941.754 7.687 906.069 3.082z" class="G"/><path d="M898.504 285.604c34.172.326 120.376 3.268 161.072 8.241 26.891 3.286 260.754 81.498 281.102 89.324s56.183 127.356 25.565 135.391c-67.796 17.793-161.033-16.464-211.826-29.739l-205.043-50.87c-1.565-2.348-50.87-152.348-50.87-152.348z" class="B"/><g class="E"><path d="M996.093 71.254c5.577 23.902 10.068 62.591 12.759 102.567 2.739 40.696-25.043 75.13-79.72 65.789-57.513-9.826-75.237-47.137-88.802-66.441s-18.261-120 46.435-141.391c55.421-18.325 102.023 8.172 109.328 39.477z"/><path d="M910.812 331.725l-41.611.52c-18.862.236-33.755-15.866-32.152-34.661 3.751-43.96 5.037-87.378 3.517-129.634-.329-9.159 7.086-16.721 16.25-16.599h74.63a16.06 16.06 0 0 1 15.837 16.35l-.516 130.672c.301 17.664-18.291 33.131-35.956 33.352z"/></g><path d="M937.374 58.908c17.739 18.261 75.098 23.746 85.87 16.964-4.479-12.79 1.648-47.515-21.827-63.18-20.014-13.356-64.043 3.955-64.043 3.955S920.489 2.841 906.07 3.082c-14.046.235-53.234 34.957-69.139 66.261s-20.079 67.304-20.079 67.304 44.214 2.144 71.345-19.769 43.96-46.492 49.177-57.97z" class="G"/><path d="M102.056 455.918c-1.845 0-3.276-.091-4.192-.292-11.64-2.561-48.474-44.079-48.843-44.498-9.944-11.289-2.001-24.862-1.658-25.434a5 5 0 0 1 8.592 5.115c-.215.372-4.495 7.958.57 13.708 12.067 13.699 37.75 39.802 43.506 41.345 4.573.919 38.223-3.03 68.1-7.381a5 5 0 0 1 1.441 9.895c-13.104 1.909-53.013 7.539-67.516 7.54zm59.426 17.433c-.081 0-.161-.002-.242-.006-13.195-.63-79.449-3.927-88.026-6.937-9.861-3.461-48.118-51.182-54.695-60.62-10.664-15.303-3.209-26.533-2.887-27.004l8.249 5.654.058-.087c-.157.253-3.776 6.305 2.785 15.72 10.373 14.886 43.746 54.1 49.894 56.937 4.867 1.705 47.502 4.553 85.1 6.348a5 5 0 0 1-.234 9.994z" class="C"/><path d="M844.372 142.212c-10.433-15.347-36.651-17.695-38.999 5.392-2.393 23.529 21.245 37.174 31.557 41.478s19.312-1.957 16.573-17.609-3.833-21.468-9.132-29.262z" class="E"/><path d="M521.026 457.134s-14.63-7.257-29.022-3.978c-13.838 3.153-21.587 3.847-21.587 3.847L264.33 404.43s-10.565-4.826-36.13-8.739c-36.116-5.528-89.217 14.509-89.217 14.509s14.503 52.422 5.633 71.205c32.348 5.217 71.281 6.642 71.281 6.642s92.26 44.601 141.825 71.209 117.378 53.94 158.073 47.349c87.074-14.103 5.231-149.472 5.231-149.472zm317.238-174.977c51.133 34.099 101.102 29.012 108.337 4.63 33.052 20.936 25.077 43.165 25.077 43.165s-69.261 28.565-92.739 26.217-47.802-5.87-49.336-6.652-14.055-22.696-14.055-25.826 22.717-41.534 22.717-41.534z" class="B"/><path d="M1611.708 246.172a5 5 0 0 1-.265-9.993c22.462-1.212 47.711-3.158 51.577-4.346 3.946-2.245 18.648-21.193 25.737-30.33l8.982-11.347c5.327-6.251 4.665-11.846 2.997-13.905a5 5 0 1 1 7.77-6.295c4.744 5.854 5.184 16.901-3.155 26.687-1.831 2.148-5.01 6.246-8.692 10.992-16.93 21.819-25.304 31.846-30.167 33.582-6.153 2.196-43.277 4.343-54.509 4.949a6.311 6.311 0 0 1-.274.008zm10.889 16.369a5 5 0 0 1-.64-9.958c26.582-3.465 56.429-8.223 61.525-10.346 4.943-4.437 30.661-42.761 39.184-55.462l5.855-8.662c2.118-2.977.82-10.245-.668-11.477a4.998 4.998 0 0 1-.908-7.011 5.002 5.002 0 0 1 7.014-.909c6.228 4.797 7.672 18.218 2.71 25.193-.673.946-2.891 4.252-5.7 8.437-31.891 47.524-39.418 57.06-42.751 58.715-7.711 3.832-55.473 10.199-64.97 11.437a4.966 4.966 0 0 1-.652.042z" class="C"/><g class="B"><path d="M1089.687 500.458l-3.36 4.48v35.54s-.02-.01-.07-.03a.465.465 0 0 0-.09-.03c-2.3-.65-30.769-28.364-81.489-29.684-18.68-.49-55.671-3.917-80.741-2.087-89.78 6.56-158.183 47.185-158.183 47.185l-4.207 1.076-12.65-37.02-18.65-54.55 25.04-85.3s58.7-46.17 126.78-54c68.09-7.83 173.74 11.74 173.74 11.74s43.83 61.04 50.87 97.83c5.48 28.63-9.9 54.7-16.99 64.85zm217.6-105.55s5.38-20.184 15.652-26.348c11.265-6.759 15.652-6 15.652-6l171.913-154.283c12.522-10.435 23.084-11.576 66.482-7.848 27.783 2.387 44.906 6.025 53.254 8.112 13.043 14.609 10.177 52.555 11.743 60.903l-73.304 11.724s-101.217 151.826-130.957 185.217-45.522 45.913-69.966 51.661c-23.665 5.565-74.034-104.879-60.469-123.14z"/><path d="M1086.327 504.938c-2.02 2.88 0 0 0 0v35.54l-.13 5.94c-23.94-7.73-51.13-12.85-80.05-15.46-78.26-7.1-169.2 4.13-242.68 31.55-.07.02-.14.05-.2.07l-1.72-5.67-12.65-37.02c106.42-39.48 245.477-44.076 337.43-14.95z"/></g><path d="M748.897 524.89a5 5 0 0 1-1.739-9.689c105.25-39.046 245.343-45.226 340.679-15.029a5 5 0 1 1-3.019 9.533c-93.408-29.587-230.828-23.471-334.181 14.871a4.983 4.983 0 0 1-1.739.314z" class="H"/><path d="M896.723 111.15c2.161.09 10.738-3.208 20.88-2.976 10.318.236 22.141 3.79 27.647 2.862s6.236-10.518-3.628-13.921-20.119-3.874-29.137-1.547c-9.597 2.477-12.39 5.39-15.143 6.628s-2.954 8.858-.619 8.955zm72.412-6.198c-.65-5.587 9.532-9.193 18.498-8.531s12.883 2.902 16.133 6.237 2.222 11.009-1.532 9.23-10.615-2.186-16.931-2.098c-7.387.103-15.187 3.585-16.168-4.838z" class="J"/><g class="C"><path d="M842.153 170.082a5 5 0 0 1-4.991-4.768c-.395-8.479-11.41-16.891-16.65-17.433a5 5 0 1 1 1.029-9.947c9.628.996 24.963 13.002 25.61 26.915a5 5 0 0 1-4.998 5.232z"/><path d="M825.981 165.44a5 5 0 0 1-3.772-8.28l.697-.827c2.477-2.972 7.114-8.486 14.128-8.358a5 5 0 1 1-.206 9.998c-2.243-.067-4.645 2.847-6.24 4.762l-.832.984a4.99 4.99 0 0 1-3.776 1.72zm146.095.001a5 5 0 0 1-4.897-6.036c.252-1.192.698-4.003-.603-4.362-2.512-.693-8.078 1.713-9.344 5.401a5 5 0 0 1-9.459-3.245c2.803-8.17 13.439-14.013 21.465-11.795 5.081 1.403 9.777 6.362 7.724 16.071a5.001 5.001 0 0 1-4.887 3.966zm-26.082 40.824c-3.316 0-6.756-.477-10.23-1.44-8.768-2.429-16.29-7.621-19.631-13.55a5 5 0 0 1 8.712-4.91c1.681 2.983 6.535 6.868 13.589 8.822 3.77 1.044 11.034 2.262 17.338-1.323a5 5 0 1 1 4.943 8.693c-4.325 2.459-9.36 3.706-14.721 3.706z"/></g><path d="M924.764 145.282c-8.736 0-17.412-3.225-21.774-9.207a5 5 0 1 1 8.08-5.891c3.911 5.363 17.466 7.303 24.935 2a5 5 0 1 1 5.79 8.153c-4.718 3.351-10.89 4.945-17.031 4.945zm62.623-1.462c-5.553 0-11.326-1.492-14.588-5.22a5 5 0 0 1 7.524-6.587c1.076 1.229 5.662 2.391 10.682 1.492 3.235-.578 5.783-1.948 6.341-3.407a4.999 4.999 0 0 1 6.456-2.885 5 5 0 0 1 2.885 6.456c-1.875 4.905-6.949 8.434-13.922 9.68a30.81 30.81 0 0 1-5.378.47z" fill="#111"/><path d="M940.884 246.887c-11.301 0-45.453-2.251-70.224-27.709a5 5 0 0 1 7.167-6.974c26.158 26.885 65.729 24.632 66.127 24.606 2.761-.175 5.134 1.904 5.318 4.657a5 5 0 0 1-4.646 5.321c-.287.02-1.608.1-3.743.1z" class="C"/><g class="J"><path d="M829.601 207.934a4.983 4.983 0 0 1-2.01-.424c-17.661-7.764-29.487-21.676-35.152-41.35-4.519-15.694-4.903-35.097-1.113-56.113 11.939-66.201 46.314-93.43 47.772-94.556a5 5 0 0 1 6.127 7.904c-.327.256-32.849 26.284-44.058 88.427-4.565 25.312-6.68 70.212 30.448 86.534a5 5 0 0 1-2.015 9.578zm-14.053-77.243a5 5 0 0 1 0-10c26.757 0 34.192-18.532 42.801-39.991 7.804-19.454 16.65-41.504 42.133-49.02 9.896-2.918 18.609-2.157 25.897 2.263 5.254 3.185 8.872 7.79 11.313 12.119 6.016-8.944 17.291-17.582 35.903-16.443 31.416 1.927 51.918 21.129 56.25 52.683a5.001 5.001 0 0 1-9.907 1.361c-3.677-26.782-20.353-42.431-46.956-44.062-25.434-1.559-30.523 19.492-30.727 20.389-.523 2.304-2.547 3.955-4.953 3.905a4.99 4.99 0 0 1-4.835-4.023c-.021-.105-2.552-12.129-11.321-17.407-4.775-2.875-10.777-3.275-17.836-1.193-20.835 6.145-28.046 24.12-35.681 43.151-8.7 21.687-18.562 46.268-52.082 46.268z"/><path d="M938.076 60.597a4.99 4.99 0 0 1-4.203-2.29c-.764-1.185-18.488-29.219.227-45.438a5 5 0 0 1 6.549 7.557c-12.169 10.546 1.496 32.255 1.635 32.473a5.003 5.003 0 0 1-4.208 7.699z"/><path d="M927.56 46.068a4.996 4.996 0 0 1-4.333-2.499c-.149-.257-15.138-25.819-35.865-33.912A5 5 0 0 1 891 .342c24.03 9.383 40.209 37.053 40.886 38.226a5 5 0 0 1-4.326 7.5z"/></g><path d="M1102.581 480.814a5 5 0 0 1-4.684-6.749c.117-.316 11.53-31.946-4.781-63.031l-23.214-42.829a5 5 0 0 1 8.56-5.169c.238.394 6.022 10.025 23.509 43.351 18.447 35.156 5.837 69.728 5.292 71.182a5.002 5.002 0 0 1-4.682 3.245zm-367.2 4.53a5 5 0 0 1-2.342-9.421l30.345-16.044a5 5 0 1 1 4.674 8.84l-30.345 16.044a4.976 4.976 0 0 1-2.333.581zm171.127-157.076c-54.443 0-90.735-40.987-92.338-42.831a5 5 0 0 1 7.544-6.565c.383.439 38.98 43.862 93.565 39.005 39.4-3.506 40.545-25.941 40.575-26.895.026-2.761 2.263-4.938 5.046-4.927 2.761.026 4.979 2.312 4.953 5.073-.013 1.319-.866 32.365-49.687 36.709a108.79 108.79 0 0 1-9.657.43zM502.809 483.206a5.003 5.003 0 0 1-4.664-3.197c-2.901-7.496-20.982-15.536-29.284-18.256a5 5 0 0 1 3.113-9.503c3.065 1.004 30.102 10.212 35.497 24.149a5 5 0 0 1-4.662 6.807zm846.739-83.296a5 5 0 0 1-4.727-6.632c3.453-10.012-5.961-23.102-9.879-27.301-1.882-2.017-1.778-5.179.235-7.064a5 5 0 0 1 7.059.223c.745.793 18.17 19.622 12.04 37.401a5.003 5.003 0 0 1-4.727 3.372z" class="H"/><path d="M981.145 831.233a5 5 0 0 1-4.609-6.933c.406-.969 10.061-23.835 20.693-33.348a5 5 0 0 1 6.668 7.452c-7.426 6.645-15.611 23.736-18.138 29.76a5.003 5.003 0 0 1-4.614 3.068zm228.671 205.595a5 5 0 0 1-3.607-8.462c.135-.141 7.32-7.69 15.955-19.684a5 5 0 0 1 8.115 5.843c-9.116 12.662-16.542 20.439-16.854 20.764a4.985 4.985 0 0 1-3.608 1.539z" fill="#2199ce"/><path d="M658.816 2064.257a5.001 5.001 0 0 1-4.973-4.538l-.25-2.048c-.9-6.717-2.408-17.96 11.388-33.106 7.402-8.127 14.485-14.038 21.335-19.753 4.484-3.742 8.719-7.275 12.792-11.229a5 5 0 0 1 6.966 7.174c-4.343 4.216-8.719 7.867-13.351 11.733-6.591 5.5-13.407 11.188-20.348 18.809-10.659 11.702-9.667 19.1-8.87 25.044l.295 2.451a4.999 4.999 0 0 1-4.985 5.463zm-29.796-13.587a5 5 0 0 1-4.946-4.313c-2.841-20.449 15.583-35.226 31.837-48.262 4.861-3.899 9.453-7.582 13.54-11.374a5 5 0 1 1 6.802 7.33c-4.351 4.038-9.3 8.006-14.085 11.845-15.556 12.477-30.249 24.261-28.189 39.085a5.001 5.001 0 0 1-4.959 5.689zm-22.737-20.848a5 5 0 0 1-4.805-6.392c4.167-14.395 13.419-21.437 22.367-28.246 6.534-4.973 13.291-10.116 18.728-18.48a5 5 0 0 1 8.384 5.45c-6.383 9.82-14.178 15.753-21.056 20.987-8.354 6.358-15.569 11.849-18.817 23.069a5.002 5.002 0 0 1-4.8 3.611zm-17.008-20.134a5 5 0 0 1-4.706-6.692c4.763-13.254 14.036-20.904 22.218-27.653 4.705-3.881 9.149-7.547 12.519-11.981a5 5 0 0 1 7.962 6.05c-4.072 5.358-9.179 9.571-14.117 13.645-7.887 6.506-15.336 12.652-19.17 23.321a5.003 5.003 0 0 1-4.706 3.311z" class="C"/><path d="M985.374 1775.43c0-12.522-3.743-178.456-13.369-268.429-148.631 55.168-126.327-120.919-231.159-128.311-1.226 115.39 19.782 354.786 14.441 380.305-2.183 10.429-13.848 34.571-20.927 48.133 27.71-8.22 67.42 17.676 91.362 42.259 35.68 36.635 51.794 119.254 53.134 145.864 20.229-4.858 39.116-9.003 51.779-13.995 31.348-43.826 54.739-193.304 54.739-205.826z" class="I"/><path d="M1163.123 1434.349c-23.142-30.22-72.514-45.832-111.148-54.043-36.466-7.75-86.956 14.483-102.754 22.099 6.07 19.832 12.123 41.182 13.998 60.341l.515 7.504c.094 2.529 2.773 43.686 3.106 56.349.534 20.321 1.831 40.479 12.526 60.533s34.59 39.651 64.149 51.12c14.5 5.626 41.525 8.224 57.764-7.022 27.573-25.887 42.704-148.495 61.845-196.88zm-107.179-236.259l-83.092 50.644c-17.959 10.545-43.693 26.675-45.264 45.373s6.177 52.532 8.629 62.804 47.582-2.555 47.582-2.555 71.733-88.215 76.798-98.085-4.652-58.182-4.652-58.182z" class="E"/><path d="M1002.62 1616.463a5.001 5.001 0 0 1-2.136-9.524l2.147-.942c5.175-2.188 11.615-4.912 15.985-19.105 2.865-9.304 4.218-17.583 5.527-25.59.921-5.638 1.792-10.964 3.14-16.54a4.997 4.997 0 0 1 6.035-3.685 5 5 0 0 1 3.685 6.035c-1.259 5.21-2.101 10.356-2.991 15.804-1.363 8.339-2.773 16.961-5.838 26.919-5.741 18.646-15.698 22.857-21.647 25.373l-1.778.776a4.98 4.98 0 0 1-2.129.479zm25.4 17.739a5 5 0 0 1-1.927-9.616c12.927-5.394 15.449-22.959 18.119-41.556.826-5.75 1.679-11.696 2.878-17.193a5 5 0 1 1 9.771 2.131c-1.122 5.144-1.913 10.652-2.75 16.483-2.812 19.584-5.999 41.783-24.167 49.363a4.977 4.977 0 0 1-1.923.387zm27.924 8.5a5 5 0 0 1-3.638-8.429c7.517-7.979 8.467-16.053 9.671-26.274.958-8.143 2.045-17.372 6.996-27.338a5 5 0 1 1 8.956 4.45c-4.178 8.411-5.115 16.365-6.021 24.058-1.249 10.608-2.54 21.578-12.324 31.963a4.986 4.986 0 0 1-3.64 1.571zm24.581 4.169a5 5 0 0 1-3.845-8.193c6.801-8.199 8.218-17.189 9.719-26.707.946-5.998 1.923-12.2 4.341-18.124a5 5 0 0 1 9.259 3.779c-1.979 4.849-2.826 10.218-3.722 15.902-1.568 9.947-3.346 21.221-11.901 31.534a4.99 4.99 0 0 1-3.851 1.808z" class="C"/><path d="M1135.325 1117.772c-9.082 11.223-79.489 82.879-89.69 88.902s-89.6 99.204-110.225 145.824c2.061 12.941 7.935 30.708 13.811 49.906 15.799-7.616 69.955-19.744 106.951-15.149 39.198 4.868 81.799 21.903 104.94 52.123 9.779-23.89 23.365-46.998 34.783-59.073 69.652-73.659 142.696-132.354 212.662-246.418-64.748-22.893-207.245 120.406-273.232-16.116z" class="I"/><path d="M1140.517 656.598c-60.871-2.9-132.692-8.978-199.491-3.951-66.86 5.542-139.339 22.871-169.259 31.461 3.37-19.72 7.11-38.65 11.24-56.53.01-.01.01-.02.01-.02 72.139-19.314 117.608-24.443 176.531-26.808 39.391-1.581 93.177 1.034 125.389 3.078 13.73 13.979 33.502 34.548 55.58 52.77zm-191.299 750.808a5.002 5.002 0 0 1-4.816-3.668l-13.811-49.906a5 5 0 0 1 9.637-2.667l13.811 49.906a5 5 0 0 1-4.821 6.335z" fill="#2199ce"/></svg></g><g transform="matrix(1.248516 0 0 1.245057 2138.75 348.75)"><svg width="244.29" height="233.925"><path d="M119.524 16.405C97.314 36.025 91.647 67.8 102.87 95.553c-26.156-14.561-58.388-12.859-80.598 6.761-28.737 25.385-29.806 71.125-2.388 102.162 47.538 53.814 194.59 17.415 194.59 17.415s62.348-132.287 6.727-195.252c-27.418-31.038-72.94-35.62-101.676-10.235z" fill="#ff5cf0"/></svg></g><g transform="matrix(1.249728 0 0 1.247453 1946.25 560)"><svg width="451.098" height="361.737"><g class="E"><use href="#C"/><use href="#B" x="-1305.006" y="-156.513"/><use href="#D"/></g><g class="C"><use href="#E"/><use href="#F"/></g><use href="#G" class="B"/><use href="#H" class="H"/></svg></g><g transform="matrix(1.248092 0 0 1.249985 322.5 83.75)"><svg width="312.477" height="329.004"><path d="M100.193 25.476a5 5 0 0 1-4.879-6.116C98.205 6.73 107.794-1.499 117.617.223a5 5 0 0 1-1.724 9.85c-4.35-.761-9.204 4.406-10.831 11.517a5.003 5.003 0 0 1-4.87 3.886zm42.01 8.81a5 5 0 0 1-4.931-5.863c2.359-13.471 12.299-22.607 22.638-20.796a5 5 0 1 1-1.725 9.85c-4.059-.711-9.601 4.319-11.063 12.671a5.001 5.001 0 0 1-4.919 4.138zm42.293 7.403a5 5 0 0 1-4.931-5.863c1.07-6.111 3.812-11.615 7.722-15.498 4.304-4.274 9.74-6.205 14.916-5.299a5 5 0 1 1-1.725 9.85c-2.649-.463-4.987 1.395-6.145 2.544-2.42 2.403-4.212 6.094-4.918 10.126a5.002 5.002 0 0 1-4.919 4.139zm42.05 9.104a5.001 5.001 0 0 1-4.976-5.556c.075-.666.17-1.336.289-2.01 1.069-6.108 3.812-11.612 7.721-15.495 4.304-4.274 9.74-6.204 14.916-5.299a5 5 0 1 1-1.725 9.85c-2.646-.464-4.987 1.395-6.145 2.544-2.42 2.403-4.212 6.094-4.918 10.126-.083.469-.149.933-.2 1.394a5.002 5.002 0 0 1-4.963 4.445zm42.195 8.45a5 5 0 0 1-4.992-5.363c.079-1.077.213-2.169.402-3.246 2.359-13.472 12.299-22.608 22.638-20.798a5 5 0 1 1-1.725 9.85c-4.064-.711-9.601 4.319-11.063 12.671a22.507 22.507 0 0 0-.279 2.248 5 5 0 0 1-4.981 4.637z" class="G"/><path d="M76.561 15.741L0 267.98l65.379 24.795 59.697-35.307-19.789-147.695c-.974-7.473-28.726-94.032-28.726-94.032z" fill="#b7b7b7"/><path d="M312.477 329.004 311.153 62.74 76.561 15.741 65.379 292.775z" class="F"/><ellipse cx="277.353" cy="146.968" rx="13.569" ry="15.255" transform="matrix(.801275 -.598297 .598297 .801275 -32.814 195.143)" class="D"/><ellipse cx="277.008" cy="189.355" rx="13.569" ry="15.255" transform="matrix(.801275 -.598297 .598297 .801275 -58.242 203.36)" class="F"/><g class="D"><ellipse cx="277.262" cy="231.505" rx="13.569" ry="15.255" transform="matrix(.801275 -.598297 .598297 .801275 -83.41 211.888)"/><ellipse cx="277.595" cy="274.582" rx="13.569" ry="15.255" transform="matrix(.801275 -.598297 .598297 .801275 -109.116 220.647)"/><ellipse cx="236.987" cy="138.989" rx="13.569" ry="15.255" transform="matrix(.801275 -.598297 .598297 .801275 -36.062 169.407)"/><ellipse cx="236.477" cy="182.317" rx="13.569" ry="15.255" transform="matrix(.801275 -.598297 .598297 .801275 -62.086 177.712)"/></g><ellipse cx="236.663" cy="224.855" rx="13.569" ry="15.255" transform="matrix(.801275 -.598297 .598297 .801275 -87.499 186.277)" class="F"/><g class="D"><ellipse cx="236.868" cy="268.502" rx="13.778" ry="15.491" transform="matrix(.801275 -.598297 .598297 .801275 -113.572 195.073)"/><ellipse cx="197.511" cy="132.849" rx="13.754" ry="15.463" transform="matrix(.801275 -.598297 .598297 .801275 -40.233 144.569)"/><ellipse cx="197.161" cy="175.816" rx="13.754" ry="15.463" transform="matrix(.801275 -.598297 .598297 .801275 -66.009 152.898)"/><ellipse cx="196.548" cy="217.376" rx="13.754" ry="15.463" transform="matrix(.801275 -.598297 .598297 .801275 -90.996 160.79)"/><ellipse cx="195.219" cy="262.145" rx="13.754" ry="15.463" transform="matrix(.801275 -.598297 .598297 .801275 -118.045 168.891)"/></g><ellipse cx="157.16" cy="124.854" rx="14.161" ry="15.921" transform="matrix(.801275 -.598297 .598297 .801275 -43.468 118.839)" class="F"/><g class="D"><ellipse cx="156.506" cy="168.699" rx="14.161" ry="15.921" transform="matrix(.801275 -.598297 .598297 .801275 -69.83 127.16)"/><ellipse cx="155.337" cy="211.411" rx="14.161" ry="15.921" transform="matrix(.801275 -.598297 .598297 .801275 -95.617 134.949)"/><ellipse cx="153.854" cy="255.877" rx="14.161" ry="15.921" transform="matrix(.801275 -.598297 .598297 .801275 -122.515 142.898)"/><ellipse cx="115.057" cy="117.484" rx="14.752" ry="16.586" transform="matrix(.801275 -.598297 .598297 .801275 -47.425 92.184)"/><ellipse cx="113.15" cy="161.642" rx="14.752" ry="16.586" transform="matrix(.801275 -.598297 .598297 .801275 -74.224 99.818)"/><ellipse cx="112.757" cy="204.813" rx="14.752" ry="16.586" transform="matrix(.801275 -.598297 .598297 .801275 -100.13 108.162)"/><ellipse cx="111.403" cy="249.35" rx="14.752" ry="16.586" transform="matrix(.801275 -.598297 .598297 .801275 -127.046 116.203)"/><path d="m193.015 102.286 84.495 15.463c6.425 1.176 12.577-3.108 13.703-9.542 1.108-6.329-3.068-12.376-9.379-13.581l-84.381-16.114c-6.45-1.232-12.66 3.057-13.792 9.525l-.114.652c-1.114 6.364 3.113 12.435 9.468 13.598z"/></g><g class="G"><path d="M169.938 141.837a4.987 4.987 0 0 1-3.721-1.658l-22.253-24.77a5 5 0 1 1 7.439-6.683l22.253 24.77a5 5 0 0 1-3.718 8.342z"/><path d="M146.631 139.339a5 5 0 0 1-3.285-8.771l22.188-19.32a5 5 0 0 1 6.566 7.541l-22.188 19.32a4.979 4.979 0 0 1-3.281 1.229zm101.586 100.467a4.987 4.987 0 0 1-3.721-1.658l-22.253-24.77a5 5 0 1 1 7.439-6.683l22.253 24.77a5 5 0 0 1-3.718 8.342z"/><path d="M224.91 237.308a5 5 0 0 1-3.285-8.771l22.188-19.32a5 5 0 0 1 6.566 7.541l-22.188 19.32a4.979 4.979 0 0 1-3.281 1.229zm63.297-30.973a4.987 4.987 0 0 1-3.721-1.658l-22.253-24.77a5 5 0 1 1 7.439-6.683l22.253 24.77a5 5 0 0 1-3.718 8.342z"/><path d="M264.9 203.837a5 5 0 0 1-3.285-8.771l22.188-19.32a5 5 0 0 1 6.566 7.541l-22.188 19.32a4.979 4.979 0 0 1-3.281 1.229zM111.824 48.498c-.867 0-1.741-.075-2.618-.228a5 5 0 1 1 1.725-9.85c4.058.708 9.601-4.319 11.063-12.671s-2.042-14.965-6.101-15.675a5 5 0 1 1 1.725-9.85c10.335 1.809 16.585 13.779 14.227 27.25-2.159 12.328-10.67 21.025-20.021 21.025zm42.293 7.403c-.867 0-1.741-.075-2.618-.228a5 5 0 1 1 1.725-9.85c4.058.707 9.601-4.319 11.063-12.671s-2.042-14.965-6.101-15.675a5 5 0 1 1 1.725-9.85c10.335 1.809 16.585 13.779 14.227 27.25-2.159 12.328-10.67 21.025-20.021 21.025zm42.204 7.394c-.846 0-1.691-.072-2.529-.219a5 5 0 1 1 1.725-9.85c2.646.463 4.987-1.395 6.145-2.544 2.42-2.403 4.212-6.094 4.918-10.126s.274-8.113-1.186-11.195c-.698-1.474-2.265-4.017-4.915-4.48a5 5 0 1 1 1.724-9.85c5.176.906 9.633 4.569 12.229 10.051 2.358 4.98 3.068 11.088 1.999 17.199s-3.812 11.615-7.722 15.497c-3.606 3.582-8.009 5.518-12.387 5.518zm42.293 7.403c-.846 0-1.691-.072-2.529-.219a5 5 0 1 1 1.725-9.85c2.643.463 4.987-1.395 6.145-2.544 2.42-2.403 4.212-6.094 4.918-10.126 1.462-8.353-2.042-14.965-6.101-15.676a5 5 0 1 1 1.725-9.85c10.335 1.809 16.585 13.779 14.227 27.25-1.07 6.111-3.812 11.615-7.722 15.498-3.606 3.582-8.009 5.518-12.386 5.518zm42.381 7.413c-.867 0-1.74-.075-2.617-.228a5 5 0 1 1 1.724-9.85c4.062.708 9.602-4.318 11.063-12.671s-2.042-14.965-6.101-15.675a5 5 0 1 1 1.725-9.85c10.335 1.809 16.585 13.779 14.227 27.25-2.159 12.328-10.67 21.025-20.021 21.025z"/></g></svg></g><g transform="matrix(1.29441 0 0 1.297775 2178.75 51.25)"><svg width="171.893" height="175.3"><circle cx="85.947" cy="86.522" fill="#f62" r="85.928"/><g fill="#c83400"><path d="M130.333 165.096a5 5 0 0 1-4.806-6.389c12.009-41.571 10.776-76.88-3.565-102.11-8.591-15.113-19.318-22.277-23.107-24.464-5.199 1.296-21.875 6.141-38.497 18.343-26.434 19.406-40.33 47.412-41.304 83.241-.075 2.761-2.364 4.952-5.134 4.862a4.999 4.999 0 0 1-4.862-5.134c1.329-48.877 25.6-76.619 45.728-91.283 21.718-15.824 42.929-20.058 43.821-20.23a5.008 5.008 0 0 1 3.054.374c.683.317 16.862 8.004 28.995 29.35 10.952 19.266 20.619 53.959 4.479 109.828a5.005 5.005 0 0 1-4.801 3.614z"/><path d="M66.848 175.301a5 5 0 0 1-4.879-6.113L94.68 25.73a5.002 5.002 0 0 1 2.008-2.985c23.708-16.596 53.307.071 54.555.788a5 5 0 0 1-4.978 8.674c-.347-.197-24.036-13.396-42.283-2.288L71.718 171.413a5.002 5.002 0 0 1-4.871 3.889z"/><path d="M99.55 31.841a5 5 0 0 1-4.983-4.655C93.758 15.49 67.485 10.729 58.345 9.984a5.003 5.003 0 0 1-4.579-5.388 4.996 4.996 0 0 1 5.383-4.58c4.483.36 43.85 4.167 45.394 26.479a5 5 0 0 1-4.993 5.345z"/></g></svg></g><g transform="matrix(1.248314 0 0 1.247839 2277.5 202.5)"><svg width="322.435" height="328.568"><path d="m304.004 263.441-181.399 65.127L0 30.481l14.12-13.394L194.422 6.59z" class="H"/><path d="m322.435 256.851-181.399 65.127L14.12 17.087 212.853 0z" class="B"/><path d="m202.09 28.189 88.886 208.905-135.822 44.574L56.016 44.383z" class="I"/><path d="M210.912 48.923l18.494 43.466-4.703-.542c-2 13.785-25.603 11.292-35.364 3.591-2.362 8.465-21.51 7.719-23.845-3.357-11.075-.642-19.369-17.513-5.513-21.243-4.523-6.445 7.717-17.965 20.258-8.972-1.765-18.38 18.895-19.261 30.673-12.943z" fill="#fff"/><g class="K"><path d="M110.086 117.073c8.516 18.458 39.324 14.354 31.212-6.947-8.084-21.227-14.137-30.584-29.25-29.769-15.491.835-11.701 15.609-1.962 36.717z"/><path d="m144.658 141.503-15.701 3.197-10.203-24.329 15.82-2.867z"/><path d="m230.119 257.067-74.964 24.602-24.17-57.851c-11.337-32.21-21.807-62.698-22.518-67.4-.822-5.454 6.976-11.934 27.452-15.565 19.794-3.511 31.11-2.484 36.172 2.633 3.781 3.824 40.138 77.234 58.029 113.581zm-28.425-109.142c8.036 17.369 34.873 12.791 27.088-7.324-7.759-20.048-13.361-28.826-26.56-27.684-13.51 1.169-9.719 15.145-.529 35.008z"/><path d="m232.721 170.412-13.643 3.379-9.702-22.923 13.751-3.085z"/><path d="M290.8 237.152l-64.078 21.029-25.17-72.823c-.901-5.161 5.699-11.483 23.496-15.376 17.232-3.77 27.194-3.037 31.798 1.73 2.306 2.393 18.48 34.343 33.953 65.44z"/></g></svg></g><g transform="matrix(.987555 0 0 .988486 85 362.5)"><svg width="688.569" height="604.46"><g fill="#8d949c"><path d="M274.762 580.62 60.785 377.096c-4.331-4.119 1.235-8.609 12.345-10.073l278.266-36.669c10.187-1.342 23.375.5 29.556 4.154l300.6 177.695c11.026 5.818 8.554 13.529-3.902 15.66l-362.01 61.763c-14.682 2.505-33.069-1.578-40.878-9.006z"/><path d="m59.31 374.225-.767 13.918c-.065 1.005.402 2.039 1.465 3.05l213.977 203.524c7.809 7.428 26.196 11.511 40.878 9.006l362.011-61.763c6.524-1.113 10.199-3.433 10.893-6.272l.736-16.312c.007 4.136-2.697 7.096-10.852 8.488L315.64 589.626c-14.682 2.505-33.069-1.578-40.878-9.006L60.785 377.096c-1-.951-1.473-1.923-1.471-2.872z"/></g><path d="M448.164 462.285c-4.089 0-8.473-1.168-11.188-3.095l-75.702-53.676c-2.427-1.721-3.487-4.269-2.839-6.817.431-1.691 1.979-4.626 7.512-5.283l80.085-9.501c3.527-.422 8.861.243 12.231 2.318l82.143 50.587c4.241 2.613 4.058 5.994 3.781 7.326-.285 1.381-1.538 4.677-6.984 5.466l-86.295 12.485a19.21 19.21 0 0 1-2.744.19zm-73.863-59.792 68.46 48.54.002.001c1.007.715 4.268 1.52 6.713 1.165l78.412-11.345-74.869-46.107c-.872-.538-3.698-1.149-5.811-.904z" class="K"/><path d="M283.426 562.775 93.919 385.177c-3.581-3.356-.897-6.781 5.951-7.684l159.502-21.019c6.642-.875 15.669.955 20.217 4.118L519 527.144c7.678 5.341 7.049 10.785-1.518 12.09L310.718 570.74c-8.921 1.36-21.183-2.24-27.292-7.965z" fill="#111"/><path d="M269.463 593.023 46.823 381.169c-4.54-4.32-8.141-17.435-8.097-29.395L0 21.741C.05 8.096.531-2.318 8.907.447l246.274 96.748c9.153 3.596 15.875 21.777 14.857 40.427l15.665 441.308c-.849 15.553-8.176 21.766-16.24 14.093z" fill="#8d949c"/><path d="M305.642 595.56c-9.598 0-17.318-2.789-25.075-8.784a4.999 4.999 0 0 1-.899-7.014 4.997 4.997 0 0 1 7.014-.898c7.137 5.515 14.026 8.237 28.118 5.833l362.01-61.763 1.682 9.857-362.01 61.763c-3.897.666-7.483 1.006-10.84 1.006z" class="K"/></svg></g><g transform="matrix(1.249 0 0 1.246218 357.5 466.25)"><svg width="261.209" height="261.792"><path d="M61.307 169.249s4.697-14.497 60.407-67.599c32.636-31.108 48.133-39.825 48.133-39.825s10.165 10.909 5.537 22.496-57.529 82.88-69.16 86.817-38.861 3.718-44.916-1.889z" class="L"/><g class="F"><path d="m259.726 172.027-89.153 88.236L13.666 126.216 126.925 14.122z"/><ellipse cx="215.15" cy="216.145" rx="62.718" ry="16.42" transform="matrix(.71075 -.703444 .703444 .71075 -89.814 213.865)"/></g><g class="L"><ellipse cx="80.11" cy="79.703" rx="87.213" ry="22.832" transform="matrix(.71075 -.703444 .703444 .71075 -32.895 79.407)"/><path d="M2.063 124.824 126.035 2.126l16.061 16.228L18.124 141.052z"/></g><ellipse cx="64.049" cy="63.475" rx="87.213" ry="22.832" transform="matrix(.71075 -.703444 .703444 .71075 -26.125 63.415)" class="D"/><path d="M21.9 112.046c-1.979 0-3.565-.687-4.886-2.021-4.099-4.142-1.931-10.791 7.732-23.715 7.14-9.549 17.563-21.231 29.347-32.894s23.574-21.964 33.195-29.005c13.024-9.53 19.695-11.628 23.794-7.487s1.931 10.792-7.732 23.715c-7.141 9.549-17.563 21.231-29.347 32.894S50.43 95.497 40.808 102.538c-8.829 6.461-14.74 9.507-18.908 9.507zm78.196-84.248c-7.578 4.654-21.213 15.154-38.968 32.726S32.733 91.623 28.002 99.152c7.578-4.654 21.214-15.154 38.968-32.726s28.395-31.098 33.126-38.628z" class="L"/><path d="M169.847 61.825l53.505 63.258c7.106 7.18-9.367 35.01-36.802 62.164s-55.435 43.338-62.541 36.158l-62.702-54.156c8.598 6.545 38.501-11.015 67.814-40.027s47.182-58.732 40.726-67.397z" class="D"/></svg></g><g transform="matrix(1.248751 0 0 1.247249 1955 152.5)"><svg width="269.269" height="248.547"><path d="M240.589 82.472s9.515-3.332 18.392 7.555 10.832 25.082 10.169 29.053c-1.457 8.732-8.03 10.15-8.03 10.15l-20.531-46.759zM135.172 18.237S130.158-.68 111.203.019s-32.635 7.607-34.254 15.91.684 14.31.684 14.31z" class="D"/><path d="M13.829 159.259c23.051 11.501 57.526-19.82 60.203-22.626 2.676-2.799 5.853-5.571 15.42.059s73.48 38.841 77.341 40.592c3.86 1.757 6.071 5.888 3.639 19.658-2.432 13.764-.326 41.271 15.088 48.793 15.407 7.515 50.605-12.478 65.311-45.808 14.713-33.329 27.969-89.142.196-112.434-3.699-3.1-11.098-8.252-20.487-14.429-21.333-14.042-52.892-33.376-74.443-45.983-.006-.007-.012-.007-.018-.014-10.474-6.124-18.582-10.656-22.004-12.224C108.499 3.15 43.063 28.859 17.619 81.045c-21.387 43.86-24.081 68.103-3.79 78.214z" class="F"/><g class="D"><path d="M154.85 65.351c-.301 9.268 7.195 16.079 10.363 18.285s38.601 22.536 43.069 25.16c4.462 2.625 8.179 3.989 10.778 2.394 3.166-1.943 10.197-4.638 14.312-14.947 4.77-11.948-2.53-22.778-2.833-23.18-21.333-14.042-52.892-33.376-74.443-45.983 4.048 2.45-.947 29.015-1.247 38.271z"/><ellipse cx="123.773" cy="38.275" rx="8.668" ry="9.453" transform="matrix(.995033 -.099546 .099546 .995033 -3.195 12.51)"/><ellipse cx="133.331" cy="64.953" rx="8.668" ry="9.453" transform="matrix(.995033 -.099546 .099546 .995033 -5.803 13.594)"/><ellipse cx="99.99" cy="46.771" rx="8.668" ry="9.453" transform="matrix(.995033 -.099546 .099546 .995033 -4.159 10.185)"/><ellipse cx="108.097" cy="72.781" rx="9.579" ry="10.447" transform="matrix(.995033 -.099546 .099546 .995033 -6.708 11.121)"/><ellipse cx="204.772" cy="151.829" rx="16.381" ry="15.724" transform="matrix(.166906 -.985973 .985973 .166906 20.895 328.387)"/><ellipse cx="145.91" cy="118.096" rx="16.789" ry="16.115" transform="matrix(.166906 -.985973 .985973 .166906 5.117 242.248)"/><path d="M249.349 129.175l4.401-3.732 2.641-9.554-9.839-4.541-3.233 8.958-.36 5.283zm-12.257 4.638l3.228-6-1.116-4.305-9.163-5.475c-.002.042-5.322 9.962-5.322 9.962l7.257 4.807 5.117 1.012zm10.153 4.341l2.517-5.302 4.361-.725 8.795 4.801-4.564 11.554-8.344-4.667zm-2.862.62l-4.665-2.128-4.752 2.074-6.159 12.785 9.595 4.456 6.105-11.647z"/></g><path d="M27.391 162.2a4.976 4.976 0 0 1-2.368-.6c-5.553-2.993-9.543-8.172-11.539-14.978-4.425-15.089.896-38.469 14.232-62.543 27.735-50.06 68.426-69.638 70.145-70.447a5 5 0 0 1 4.261 9.047c-.576.275-39.625 19.258-65.658 66.248-11.89 21.461-17.018 42.49-13.384 54.883 1.245 4.244 3.495 7.268 6.687 8.989a5 5 0 0 1-2.377 9.403zm52.723-25.089a4.996 4.996 0 0 1-4.287-2.408 4.983 4.983 0 0 1 1.646-6.836c.354-.218 8.834-5.324 22.582-5.146a5 5 0 0 1-.063 10h-.066c-10.679-.144-17.183 3.647-17.248 3.685a4.996 4.996 0 0 1-2.563.705zm112.67 111.436a4.98 4.98 0 0 1-3.267-1.217c-18.365-15.867-10.905-40.502-6.898-53.736.542-1.792 1.186-3.915 1.482-5.218-2.087-1.311-7.729-3.086-12.915-3.994a5 5 0 0 1 1.72-9.851c8.702 1.517 19.431 4.654 21.122 10.988.697 2.608-.203 5.58-1.837 10.974-3.584 11.838-9.584 31.651 3.865 43.271a5 5 0 0 1-3.271 8.783zm-8.05-59.678h.01z" fill="#b7b7b7"/></svg></g><g transform="matrix(1.240187 0 0 1.248933 70 555)"><svg width="114.902" height="96.082"><path d="m49.945 0 64.957 13.648s-8.563 68.526-40.696 82.435c0 0-56.989-24.148-74.206-36.67C28.174 53.934 46.815 25.387 49.945 0z" class="B"/></svg></g><g transform="matrix(1.249728 0 0 1.247453 1946.25 560)"><svg width="451.098" height="361.737"><g class="E"><use href="#C"/><use href="#B" x="-1305.006" y="-156.513"/><use href="#D"/></g><g class="C"><use href="#E"/><use href="#F"/></g><use href="#G" class="B"/><use href="#H" class="H"/></svg></g><defs ><path id="B" d="M1596.242 261.457a15.01 15.01 0 0 1-14.628-11.742c-1.801-8.086 3.294-16.102 11.38-17.903l73.884-16.459 41.36-51.785c5.169-6.473 14.608-7.53 21.082-2.36s7.529 14.609 2.359 21.082l-47.958 60.047-84.204 18.758a15.033 15.033 0 0 1-3.275.362z"/><path id="C" d="M313.338 114.504c-7.331 0-13.742-5.379-14.826-12.848-1.189-8.198 4.492-15.809 12.69-16.999l66.139-22.07a5.737 5.737 0 0 0 3.689-2.127l43.3-54.763c5.14-6.5 14.571-7.599 21.07-2.463s7.601 14.572 2.463 21.07l-40.005 57.159c-5.481 7.363-13.826 21.13-27.557 23.482l-43.324 7.987c-.73.106-22.922 1.573-23.639 1.573z"/><path id="D" d="M286.928 87.333c-7.602 0-14.119-5.756-14.905-13.482-.839-8.242 10.93-19.832 19.171-20.671l53.589-1.813 30.892-36.251c5.374-6.306 14.842-7.06 21.146-1.688s7.061 14.841 1.688 21.146l-38.704 45.419-71.339 7.262c-.517.053-1.029.078-1.537.078z"/><path id="E" d="M306.702 89.658a5 5 0 0 1-.265-9.992c22.463-1.212 47.714-3.158 51.578-4.347 3.946-2.245 18.649-21.194 25.739-30.331l8.98-11.346c5.327-6.251 4.666-11.847 2.997-13.905a5 5 0 0 1 7.769-6.297c4.745 5.854 5.186 16.901-3.154 26.688-1.83 2.147-5.009 6.245-8.69 10.989-16.931 21.821-25.305 31.849-30.169 33.584-6.152 2.196-43.277 4.343-54.509 4.949a5.037 5.037 0 0 1-.274.007z"/><path id="F" d="M317.592 106.028a5 5 0 0 1-.64-9.958c26.582-3.464 56.428-8.223 61.525-10.346 4.944-4.438 30.668-42.772 39.193-55.476l5.845-8.647c2.118-2.978.82-10.245-.668-11.478a5 5 0 0 1 6.107-7.919c6.228 4.798 7.671 18.219 2.709 25.193-.672.945-2.886 4.245-5.69 8.422-31.898 47.536-39.426 57.074-42.76 58.73-7.712 3.832-55.474 10.199-64.97 11.437a4.966 4.966 0 0 1-.652.042zM378.3 85.875z"/><path id="G" d="M2.281 238.394s5.38-20.184 15.652-26.348c11.265-6.759 15.652-6 15.652-6L205.498 51.763c12.522-10.435 23.084-11.576 66.482-7.848 27.783 2.387 44.906 6.025 53.254 8.112 13.043 14.609 10.177 52.555 11.743 60.903l-73.304 11.724S162.456 276.48 132.716 309.871s-45.522 45.913-69.966 51.661c-23.665 5.565-74.034-104.879-60.469-123.14z"/><path id="H" d="M44.543 243.396a5 5 0 0 1-4.727-6.631c3.453-10.012-5.961-23.102-9.879-27.3a5.003 5.003 0 0 1 .235-7.064 4.996 4.996 0 0 1 7.059.224c.745.793 18.17 19.622 12.04 37.401a5.003 5.003 0 0 1-4.727 3.372Z"/></defs></svg>