<svg xmlns="http://www.w3.org/2000/svg" width="3000" height="3000" xmlns:v="https://vecta.io/nano"><style><![CDATA[.B{fill:#e3e5e5}.C{fill:#f4bbab}.D{fill:#2471ed}.E{fill:#ea2688}.F{fill:#b7006d}.G{fill:#e09273}.H{fill:#004ebf}.I{fill:#5917c1}.J{fill:#b7b7b7}.K{fill:#c83400}.L{fill:#ffd215}]]></style><g transform="matrix(1.361905 0 0 1.363269 799.090909 503.181818)"><svg width="479.609" height="627.169"><g class="B"><path d="m442.156 576.477-310.57 45.233c-22.705 3.307-43.889-11.621-47.197-33.368L5.438 69.362c-3.34-21.958 12.769-41.053 35.859-42.635L357.07 5.093c21.156-1.449 40.734 14.303 43.834 35.169l73.29 493.307c3.072 20.676-11.226 39.877-32.039 42.908z"/><path d="M125.282 627.169c-22.641 0-42.467-15.923-45.837-38.074L.495 70.114c-1.777-11.681 1.243-23.102 8.502-32.159 7.672-9.571 19.022-15.33 31.958-16.217L356.728.104c23.62-1.617 45.652 16.067 49.122 39.423l73.29 493.308a42.39 42.39 0 0 1-7.959 31.739c-6.844 9.205-16.896 15.189-28.305 16.851l-310.571 45.233c-2.359.344-4.708.51-7.023.51zM359.771 10a34.53 34.53 0 0 0-2.359.081L41.64 31.715c-10.115.693-18.936 5.13-24.839 12.495-5.491 6.85-7.771 15.515-6.419 24.401l78.95 518.98c2.891 19 21.523 32.086 41.533 29.172l310.571-45.233.721 4.948-.721-4.948c8.76-1.276 16.474-5.865 21.721-12.922 5.215-7.014 7.379-15.645 6.092-24.303L395.958 40.996C393.353 23.46 377.391 10 359.771 10z"/></g><g class="J"><path d="M368.382 526.976 191.703 551.3c-27.89 3.84-53.959-14.87-58.044-41.826-4.088-26.969 15.417-51.692 43.385-55.185l177.163-22.127c26.514-3.311 51.018 15.127 54.897 41.151 3.878 26.012-14.28 50.023-40.722 53.663z"/><path d="M184.436 556.8c-27.472 0-51.625-19.559-55.72-46.576-2.129-14.045 1.448-28.052 10.071-39.441 9.035-11.933 22.401-19.552 37.638-21.455l177.164-22.126c29.076-3.631 56.191 16.725 60.462 45.375 2.061 13.821-1.411 27.58-9.774 38.743-8.491 11.334-20.996 18.653-35.211 20.61l-176.679 24.324a58.379 58.379 0 0 1-7.95.546zm175.895-120.019c-1.82 0-3.656.112-5.504.343L177.663 459.25c-12.537 1.566-23.512 7.805-30.905 17.569-6.98 9.22-9.877 20.551-8.156 31.906 3.671 24.219 27.189 41.096 52.419 37.622L367.7 522.023l.682 4.953-.682-4.953c11.548-1.59 21.695-7.521 28.572-16.7 6.749-9.009 9.55-20.115 7.887-31.272-3.206-21.508-22.275-37.27-43.828-37.27z"/></g><g fill="#fff"><path d="M222.214 147.448c-63.98 5.489-108.966 60.653-99.52 123.067 9.436 62.344 69.394 106.807 132.969 99.484 62.538-7.203 105.175-61.976 96.139-122.503-9.045-60.592-66.654-105.448-129.589-100.048zm28.381 188.832c-44.209 4.895-85.712-26.117-92.241-69.347-6.534-43.264 24.54-81.643 68.945-85.65 43.898-3.962 84.262 27.24 90.601 69.621 6.335 42.349-23.6 80.538-67.305 85.377z"/><path d="m263.035 127.399-9.917-11.028a5 5 0 0 0-5.154-1.446l-29.006 8.697-31.156-3.742a4.999 4.999 0 0 0-5.028 2.65l-6.531 12.506a5.002 5.002 0 0 0 2.539 6.942l42.643 17.443a4.999 4.999 0 0 0 4.67-.471l36-24.051a5.002 5.002 0 0 0 .941-7.5z"/></g><path d="M223.317 169.794c-1.954 0-3.863-.375-5.676-1.115l-42.644-17.444a5 5 0 0 1 3.786-9.256l42.641 17.443a5.05 5.05 0 0 0 4.671-.471l35.999-24.051a5 5 0 0 1 5.556 8.315l-35.999 24.05a14.952 14.952 0 0 1-8.335 2.529z" class="B"/><g fill="#55a2ff"><path d="m231.902 87.809-37 2.891-22.607 26.393 50.432 33.771 38.671-41.017z"/><path d="M222.725 155.864a4.983 4.983 0 0 1-2.78-.846l-50.433-33.771a5.002 5.002 0 0 1-1.015-7.407l22.607-26.393a4.999 4.999 0 0 1 3.408-1.732l37.001-2.892a5.009 5.009 0 0 1 3.382.979l29.495 22.038a5.002 5.002 0 0 1 .646 7.435l-38.67 41.017a4.996 4.996 0 0 1-3.64 1.57zm-42.971-39.793 42.238 28.284 31.921-33.858-23.497-17.557-33.063 2.584z"/></g><g class="D"><path d="M172.289 122.093a5 5 0 0 1-.4-9.984l89.103-7.246a5 5 0 1 1 .811 9.967l-89.103 7.246a5.173 5.173 0 0 1-.411.017z"/><path d="M222.728 155.864a4.988 4.988 0 0 1-3.644-1.575l-33.064-35.172a4.999 4.999 0 0 1-1.25-4.45l5.238-24.993a5 5 0 0 1 9.787 2.051l-4.704 22.442 31.279 33.272a5.002 5.002 0 0 1-3.642 8.425z"/><path d="M222.723 155.865a5 5 0 0 1-4.387-7.391l20.284-37.282-11.136-21.046a5 5 0 1 1 8.839-4.677l12.391 23.417a5.001 5.001 0 0 1-.027 4.728l-21.566 39.638a4.998 4.998 0 0 1-4.396 2.611z"/></g><path d="m224.639 163.587 15.666-25.305-17.89-13.558a5 5 0 0 0-6.863.79l-13.524 16.294z" fill="#fff"/><path d="M224.639 168.587a4.999 4.999 0 0 1-3.468-1.399l-20.937-20.167a5 5 0 0 1 6.938-7.203l16.477 15.871 11.083-17.902a5 5 0 0 1 8.503 5.263l-14.342 23.168a4.998 4.998 0 0 1-4.252 2.368z" class="B"/></svg></g><g transform="matrix(1.363175 0 0 1.363423 335.454545 166.363636)"><svg width="523.177" height="633.099"><clipPath id="A"><circle cx="241.891" cy="217.679" r="132.093"/></clipPath><path d="m490.136 547.534-305.558 79.077c-23.045 5.964-46.232-6.531-51.575-27.963L6.075 89.567C.73 68.129 15.856 48.284 39.64 45.271L354.994 5.313c20.489-2.596 40.928 11.242 45.824 30.887l116.266 466.504c4.895 19.64-7.095 39.691-26.948 44.829z" class="B"/><path d="M173.039 633.08c-8.807 0-17.467-2.285-24.906-6.71-10.125-6.022-17.221-15.438-19.982-26.513L1.223 90.777c-2.775-11.13-.795-22.384 5.574-31.689 6.999-10.226 18.741-17.069 32.215-18.777L354.365.353c22.805-2.89 45.824 12.649 51.304 34.638l116.266 466.504c5.548 22.26-8.155 45.084-30.547 50.879l-305.559 79.077a51.09 51.09 0 0 1-12.791 1.628zM359.971 10a34.57 34.57 0 0 0-4.349.273L40.269 50.231c-10.641 1.348-19.833 6.635-25.219 14.504-4.733 6.915-6.197 15.304-4.123 23.622l126.928 509.08c2.111 8.467 7.577 15.689 15.392 20.337 8.77 5.216 19.733 6.673 30.079 3.995l305.558-79.077 1.253 4.84-1.253-4.84c17.102-4.426 27.576-21.822 23.35-38.78L395.966 37.409C392.017 21.566 376.406 10 359.97 10z" fill="#297700"/><rect fill="#40b509" height="99.799" rx="49.9" transform="matrix(.970296 -.241922 .241922 .970296 -107.201 88.679)" width="279.104" x="167.962" y="430.981"/><g clip-path="url(#A)"><circle cx="241.891" cy="217.679" fill="#f62" r="132.093"/><g class="K"><path d="M368.201 277.668a5 5 0 0 1-4.739-6.598c11.443-33.947-9.274-71.907-59.914-109.775-39.751-29.726-92.264-45.765-130.668-39.913-18.222 2.777-32.299 10.391-40.709 22.018a5 5 0 1 1-8.102-5.861c10.016-13.847 26.374-22.853 47.306-26.043 41.518-6.327 95.753 10.076 138.163 41.79 68.772 51.428 72.438 94.174 63.402 120.978a5.001 5.001 0 0 1-4.737 3.404z"/><path d="M168.859 338.878a7.756 7.756 0 0 1-4.241-1.243 5 5 0 0 1 4.471-8.886 8.7 8.7 0 0 0 .803-.464c21.932-14.01 68.975-68.405 129.373-175.596 11.826-20.988 17.785-36.746 17.713-46.837a5 5 0 0 1 4.964-5.035c2.751.01 5.016 2.203 5.036 4.964.085 12.024-6.13 28.974-19.001 51.817-51.229 90.92-102.078 159.553-132.702 179.115-2.502 1.598-4.64 2.165-6.415 2.166zm-63.123-96.682a4.999 4.999 0 0 1-4.88-6.106c9.025-39.827 77.441-63.312 106.437-71.56 38.915-11.07 50.579-23.397 56.394-32.899 3.854-6.298 4.902-12.497 3.116-18.425-2.654-8.808-11.406-16.89-25.311-23.373-3.976-1.854-9.094-3.187-15.211-3.962a5 5 0 1 1 1.257-9.921c7.146.905 13.263 2.527 18.18 4.819 16.559 7.72 27.161 17.939 30.66 29.551 2.606 8.649 1.167 17.823-4.161 26.53-10.046 16.418-29.226 27.921-62.187 37.297-21.285 6.055-91.359 28.576-99.42 64.152a5.002 5.002 0 0 1-4.872 3.896zM288.594 352.3a5 5 0 0 1-1.865-9.641c27.407-11.004 36.292-54.255 35.468-91.063l-.211-9.098c-.886-37.622-1.07-45.451 7.856-63.839 5.66-11.659 13.612-18.531 22.392-19.35 6.048-.567 15.352 1.568 25.268 14.94a5 5 0 1 1-8.032 5.956c-3.942-5.317-9.97-11.534-16.307-10.94-5.088.475-10.31 5.49-14.325 13.76-7.868 16.208-7.733 21.941-6.854 59.237l.21 9.11c1.164 52.01-14.44 89.605-41.739 100.566a4.995 4.995 0 0 1-1.862.361z"/></g></g></svg></g><g transform="matrix(1.362885 0 0 1.362522 186.818182 1100.454545)"><svg width="624.344" height="686.561"><g class="B"><path d="M602.07 496.157 341.044 674.039c-19.299 13.152-44.42 8.624-55.982-10.201L10.486 216.758c-11.561-18.825-4.238-43.278 16.219-54.543L303.404 9.852c18.337-10.097 41.898-3.918 52.741 13.738l257.524 419.316c10.843 17.656 5.699 41.464-11.599 53.252z"/><path d="M317.102 686.549c-3.088 0-6.166-.318-9.184-.964-11.411-2.443-21.041-9.237-27.117-19.129L6.225 219.375c-6.075-9.893-7.779-21.554-4.798-32.836 3.167-11.984 11.501-22.446 22.866-28.704L300.992 5.472c20.557-11.321 47.211-4.367 59.414 15.501L617.93 440.289c12.202 19.868 6.35 46.784-13.044 60.001L343.86 678.172c-8.052 5.487-17.446 8.377-26.758 8.377zm5.256-676.538c-5.647 0-11.344 1.359-16.542 4.221L29.117 166.595c-8.981 4.946-15.55 13.146-18.021 22.499-2.276 8.612-.979 17.508 3.651 25.048l274.576 447.081c4.63 7.54 11.978 12.719 20.688 14.584 9.458 2.025 19.744-.124 28.217-5.899l261.026-177.882 2.816 4.132-2.816-4.132c15.049-10.255 19.604-31.117 10.154-46.504L351.885 26.206c-6.371-10.374-17.841-16.195-29.527-16.195z"/></g><g class="J"><path d="M516.895 482.529l-149.131 99.516c-23.704 15.818-54.658 9.894-68.941-13.363s-6.296-54.728 17.641-70.166l150.6-97.125c22.386-14.437 51.456-8.028 65.108 14.2s6.891 52.145-15.277 66.937z"/><path d="M339.164 595.923c-3.89 0-7.792-.419-11.658-1.266-13.859-3.038-25.559-11.333-32.943-23.358-15.672-25.518-7.062-60.053 19.192-76.985l150.6-97.125c12.08-7.79 26.29-10.362 40.017-7.24 13.432 3.055 24.818 11.232 32.062 23.026 15.018 24.454 7.496 57.522-16.762 73.713l-149.131 99.516c-9.598 6.405-20.434 9.718-31.375 9.718zm153.753-197.264c-8.069 0-16.051 2.36-23.143 6.934l-150.6 97.125c-21.721 14.008-28.939 42.426-16.09 63.347 5.95 9.688 15.383 16.372 26.563 18.823 12.062 2.644 24.613.157 35.342-7.002L514.12 478.37c19.845-13.242 26.032-40.231 13.792-60.162-5.824-9.482-14.971-16.055-25.757-18.508a41.644 41.644 0 0 0-9.237-1.04z"/></g><g class="E"><path d="m122.481 184.872 37.325 60.775m.004 5a4.997 4.997 0 0 1-4.266-2.384l-37.325-60.775a5 5 0 0 1 8.521-5.233l37.325 60.775a5 5 0 0 1-4.256 7.617z"/><path d="M258.617 230.67s-7.855 42.715-39.408 61.48c-17.625 10.481-37.086 7.687-50.925-6.282-13.015-13.137-14.174-35.509-8.477-40.22 39.151-32.376 98.811-14.977 98.811-14.977z"/><path d="M197.154 303.537c-11.762 0-23.147-4.788-32.423-14.151-10.439-10.538-13.6-25.229-13.135-34.608.208-4.2 1.249-9.863 5.023-12.984 40.725-33.677 100.857-16.665 103.397-15.924a5 5 0 0 1 3.518 5.704c-.337 1.835-8.647 45.175-41.77 64.873-7.989 4.751-16.392 7.09-24.61 7.09zm24.607-72.476c-18.571 0-41.061 3.796-58.769 18.439-.278.266-1.375 2.221-1.438 6.719-.101 7.165 2.532 18.307 10.281 26.129 12.365 12.482 29.539 14.59 44.817 5.504 23.293-13.853 32.961-42.364 35.949-53.497a149.47 149.47 0 0 0-30.841-3.294z"/></g><path d="M153.242 253.405a5 5 0 0 1-3.524-8.548l11.042-10.965a5 5 0 0 1 7.047 7.096l-11.042 10.965a4.988 4.988 0 0 1-3.523 1.452zm73.378 13.504a5 5 0 0 1-3.212-8.834 353.59 353.59 0 0 0 20.422-18.814c-13.944 4.28-23.012 9.78-23.132 9.853-2.351 1.443-5.43.71-6.876-1.64a5 5 0 0 1 1.631-6.874c.719-.444 17.903-10.917 42.367-14.866a5.001 5.001 0 0 1 4.615 8.165c-13.035 15.412-31.815 31.181-32.608 31.844a4.981 4.981 0 0 1-3.206 1.166z" class="F"/><g class="E"><path d="m280.565 95.638 36.243 59.013m.005 5.001a4.999 4.999 0 0 1-4.266-2.384l-36.243-59.013a5 5 0 0 1 8.521-5.233l36.243 59.013a5 5 0 0 1-4.256 7.617z"/><path d="M258.617 230.67s41.851 13.156 72.457-5.045c16.787-9.983 22.771-27.452 16.731-45.303-5.665-16.742-24.419-28.117-30.996-25.67-46.039 17.128-58.191 76.019-58.191 76.019z"/><path d="M291.469 240.303c-18.52 0-33.309-4.536-34.352-4.864a5 5 0 0 1-3.397-5.78c.519-2.515 13.265-61.807 61.345-79.694 4.34-1.615 9.608.12 13.262 1.859 8.31 3.955 19.638 13.371 24.214 26.895 6.942 20.518-.305 40.137-18.912 51.203-13.48 8.017-28.793 10.382-42.16 10.382zm-32.853-9.633h.01zm6.08-3.578c11.305 2.63 41.225 7.673 63.821-5.765 14.535-8.644 19.974-23.374 14.551-39.403-5.177-15.299-21.308-23.42-24.553-22.575-35.545 13.225-49.904 53.977-53.819 67.743z"/></g><g class="F"><path d="M307.695 159.47a5.002 5.002 0 0 1-1.301-9.828l14.38-3.885a5 5 0 1 1 2.608 9.654l-14.38 3.885a5.004 5.004 0 0 1-1.307.174zm-49.08 76.2a4.999 4.999 0 0 1-3.939-8.078c14.973-19.164 32.205-28.852 32.931-29.255a5 5 0 1 1 4.852 8.743c-.115.064-8.991 5.082-19.144 14.804 13.91-3.976 25.962-8.595 26.127-8.659a5 5 0 0 1 3.594 9.332c-.952.367-23.534 9.024-43.438 13.015a4.99 4.99 0 0 1-.984.098z"/><path d="M264.679 227.108c1.969 3.206.854 7.401-2.493 9.373s-7.672.972-9.645-2.241-.849-7.414 2.507-9.381 7.662-.956 9.631 2.249z"/><path d="M258.508 242.483c-4.057 0-8.003-2.004-10.229-5.627a11.502 11.502 0 0 1-1.362-8.88c.783-3.134 2.773-5.773 5.603-7.431 5.674-3.326 13.041-1.556 16.42 3.946a11.507 11.507 0 0 1 1.365 8.868c-.779 3.13-2.761 5.768-5.582 7.43a12.217 12.217 0 0 1-6.215 1.694zm.232-13.626c-.394 0-.799.102-1.164.316-.663.388-.884.937-.958 1.229-.075.3-.104.755.183 1.222.545.887 1.849 1.137 2.847.549.66-.389.88-.936.953-1.228a1.56 1.56 0 0 0-.183-1.22c-.344-.561-.994-.868-1.678-.868z"/></g><g class="E"><path d="m383.445 266.681-11.308-18.412-74.929 45.237-77.118 46.559 11.638 18.95s-2.134 48.259 6.902 62.972c64.397-45.993 115.542-3.724 115.542-3.724l14.146-8.972 14.07-8.923s-14.808-64.4 51.637-99.757c-8.705-14.174-50.579-33.931-50.579-33.931z"/><path d="M238.629 426.986a4.998 4.998 0 0 1-4.261-2.384c-8.922-14.527-8.039-54.8-7.697-64.267l-10.842-17.654a5.002 5.002 0 0 1 1.676-6.897l152.048-91.796a5 5 0 0 1 6.845 1.664l10.534 17.152c8.221 3.961 42.758 21.196 51.353 35.19a5 5 0 0 1-1.912 7.031c-26.211 13.947-42.43 34.073-48.205 59.818-4.305 19.189-.942 34.255-.907 34.404a5.001 5.001 0 0 1-2.195 5.343l-28.216 17.895a4.999 4.999 0 0 1-5.863-.368c-.114-.093-12.428-10.048-32.001-14.468-26.053-5.884-52.111.309-77.451 18.406a5 5 0 0 1-2.906.931zm-11.642-85.244 9.001 14.656c.522.851.778 1.84.734 2.837-.505 11.458-.572 40.893 4.039 55.24 32.744-21.361 61.873-20.872 80.914-16.469 16.071 3.716 27.577 10.651 32.709 14.201l22.499-14.269c-.892-6.101-2.033-19.417 1.526-35.284 4.207-18.749 15.992-44.541 47.994-63.496-10.303-10.264-35.188-23.28-45.093-27.955a5.005 5.005 0 0 1-2.127-1.905l-8.71-14.183-143.487 86.628z"/></g><path d="M227.336 366.691a5 5 0 0 1-2.605-9.272l160.257-97.531a5 5 0 0 1 5.2 8.543l-160.257 97.531a4.98 4.98 0 0 1-2.595.73z" class="F"/></svg></g><g transform="matrix(1.361412 0 0 1.361716 714.545455 178.636364)"><svg width="1535.505" height="1777.503"><clipPath id="B"><ellipse cx="940.422" cy="212.314" rx="21.252" ry="24.176" transform="matrix(.982977 -.183728 .183728 .982977 -22.999 176.393)"/></clipPath><clipPath id="C"><path d="M842.671 145.147c-6.89 23.225 2.49 44.255 5.431 58.215 1.56 7.404 3.34 15.168 4.055 23.686 1.525 18.169-3.417 29.54 2.515 50.639 7.402 26.328 41.184 43.74 81.23 40.621 35.207-2.742 72.39-30.426 88.53-64.623 15.315-32.45 10.604-80.756-20.329-110.078-55.149-52.279-145.825-51.07-161.433 1.541z"/></clipPath><clipPath id="D"><ellipse cx="860.644" cy="224.121" rx="19.241" ry="21.888" transform="matrix(.982977 -.183728 .183728 .982977 -26.526 161.937)"/></clipPath><path d="M1198.438 967.451c52.063-3.151 63.73-12.71 61.72-22.57-.636-3.12-5.264-10.383-7.578-14.303-13.622-23.073-16.402-58.517-13.977-86.247 6.332-72.405 20.509-232.055-197.993-232.055-148.865 0-196.157 55.173-199.036 75.074-22.619 156.388 268.598 285.442 356.864 280.101z" fill="#111"/><path d="M881.333 83.343c19.771-21.022 61.98-38.901 108.68-38.901 51.404 0 84.042 33.888 99.001 72.781 13.251 34.453 17.251 43.401 33.192 55.67 13.192 10.153 25.642 10.914 33.553 29.731 6.327 15.05.845 34.189-4.323 46.647-3.478 8.385-7.618 25.223 16.519 34.693 25.333 9.938 40.277 19.876 49.516 52.746 27.062 96.281-83.309 224.927-83.309 224.927s-54.323-99.608-149.069-105.569c-82.138-5.168-150.739-56.496-143.414-108.916 3.516-25.164 20.896-32.654 28.279-64.302 12.408-53.189-50.769-133.432 11.375-199.509z" class="E"/><g class="C"><path d="M575.646 582.408c-13.738 19.765-44.804 76.154-34.372 113.497 8.291 29.679 88.011 27.56 98.574-37.564 7.832-48.29-49.9-96.51-64.202-75.933z"/><path d="M790.139 466.609c-46.147 16.124-69.993 99.242-89.86 170.544-.128.461-3.63 13.808-8.026 30.577 0 0-13.808-7.054-66.229-30.627-25.686-11.551-90.413 6.257-86.335 50.82 1.231 13.45 9.869 26.476 20.648 38.928 57.491 66.41 139.544 102.33 187.547 95.588 38.919-5.466 69.835-22.328 86.039-70.846 16.262-48.69 41.105-157.107 44.714-197.039 8.68-96.039-63.028-96.844-88.498-87.945z"/></g><path d="M923.016 491.077l-44.54 148.59-16.91 56.64c-5.821-40.941-147.597-78.748-161.29-59.15 4.57-17.41 9.18-33.98 13.87-49.73 30.98-104.19 65.41-172.6 116.55-213.23 12.89-10.24 49.1-23.98 75.68-26.74 53.93-5.61 34.09 85.97 16.64 143.62z" fill="#f62"/><path d="M876.935 644.821l-15.37 51.486c-21.24-29.25-151.77-64.34-161.29-59.15 4.57-17.41 9.18-33.98 13.87-49.73 50.974-8.787 166.618 42.086 162.79 57.394z" class="L"/><path d="M714.277 500.219c-1.873-15.485-14.637-27.364-30.217-28.12l-63.44-3.08c-17.309-.84-30.917 14.612-27.896 31.676l31.755 179.341a23.278 23.278 0 0 0 19.509 18.924l58.45 8.641c18.927 2.798 35.329-13.176 33.031-32.17z" fill="#8f969e"/><path d="m676.997 482.254-59.515-2.889c-14.942-.725-26.679 12.629-24.042 27.354l31.039 173.318a23.278 23.278 0 0 0 19.509 18.924l54.939 8.122c15.196 2.246 28.363-10.583 26.512-25.832l-21.06-173.524c-1.703-14.028-13.268-24.787-27.382-25.472z" fill="#656c72"/><path d="m676.366 500.555-14.957-.726c-3.851-.187-6.877 3.255-6.197 7.051l7.932 44.293a9.001 9.001 0 0 0 7.543 7.317l12.838 1.898c3.917.579 7.311-2.728 6.834-6.658l-5.494-45.269a9 9 0 0 0-8.498-7.905z" fill="#111"/><g class="C"><path d="M575.646 582.408c7.811-13.142 39.948-34.102 48.869-34.294s44.597 7.429 56.232 11.142c16.039 5.118 12.814 30.078-8.201 26.729-21.082-3.36-42.16-8.127-42.16-8.127l-35.306 27.876-19.435-23.325z"/><path d="M587.905 607.632c8.464-12.835 36.766-34.506 44.317-34.896s42.401 10.243 51.233 13.978c17.091 7.227 10.523 31.103-8.549 25.349l-36.159-10.519-32.122 29.119-18.721-23.031z"/><path d="M594.121 630.364c9.988-9.246 37.494-21.163 43.684-19.722s29.695 6.573 38.56 9.426c15.332 4.934 13.427 28.504-8.139 23.684l-29.85-6.818-30.335 13.496-13.921-20.066z"/><path d="M602.33 653.044c6.541-6.449 29.026-21.752 38.56-19.221s21.084 9.663 28.555 13.85c13.516 7.574 2.271 27.858-11.491 20.702s-18.106-10.034-18.106-10.034-21.898 18.588-22.791 17.081-14.727-22.379-14.727-22.379z"/></g><path d="M590.808 607.173a5 5 0 0 1-3.273-8.782l6.403-5.638c12.938-11.485 26.317-23.36 37.578-24.969 12.277-1.754 46.949 11.585 53.775 14.277a5 5 0 0 1-3.668 9.303c-14.854-5.856-41.203-14.748-48.693-13.68-8.285 1.183-21.63 13.029-32.354 22.548a685.335 685.335 0 0 1-6.499 5.721 4.981 4.981 0 0 1-3.269 1.219zm3.316 28.191a5 5 0 0 1-3.047-8.967c5.49-4.211 27.197-18.085 37.472-19.515a5 5 0 0 1 1.379 9.904c-6.98.971-26.595 12.814-32.764 17.545a4.979 4.979 0 0 1-3.04 1.033zm8.209 22.68a5 5 0 0 1-3.126-8.905c20.458-16.366 35.067-23.097 43.419-20.005 9.098 3.367 18.243 7.881 18.628 8.072a5 5 0 1 1-4.436 8.962c-.09-.044-9.07-4.476-17.662-7.656-3.506-1.297-15.551 3.916-33.702 18.436a4.983 4.983 0 0 1-3.12 1.096zm-11.53 50.138a5.002 5.002 0 0 1-1.364-9.812c.82-.239 18.835-5.724 28.656-28.198a5.001 5.001 0 0 1 9.164 4.004c-11.812 27.032-34.162 33.555-35.107 33.82a5 5 0 0 1-1.349.186z" class="G"/><path d="M1191.574 739.497c-70.069-43.823-126.362-58.835-360.943-44.521-64.512 3.936-223.195-3.724-326.537 1.57-21.931 1.123-37.665 2.87-49.26 5.56-36.638 8.5-70.148 42.773-80.156 75.715-19.939 65.634 16.151 159.204 136.098 183.901 130.914 26.956 367.207 22.406 431.146 14.724 304.402-36.574 309.16-199.731 249.652-236.949z" class="D"/><path d="M903.812 781.982a5 5 0 0 1-3.081-8.941c.253-.198 25.385-20.044 31.516-41.52a5 5 0 0 1 9.615 2.744c-7.032 24.635-33.84 45.77-34.978 46.658a4.976 4.976 0 0 1-3.072 1.058zm-41.329-10.62a5 5 0 0 1-4.476-2.765c-10.199-20.398-38.213-37.285-59.404-41.826a5 5 0 0 1 2.096-9.778c23.177 4.967 54.273 23.173 66.253 47.132a5 5 0 0 1-4.468 7.237zm18.04-4.001a5 5 0 0 1-4.991-5.381c1.637-21.454-17.109-40.359-17.299-40.547-1.956-1.945-1.97-5.109-.028-7.068a5 5 0 0 1 7.063-.039c.908.898 22.228 22.291 20.236 48.415a5 5 0 0 1-4.98 4.62z" class="H"/><path d="M432.212 1320.981c-43.986-31.306-104.968-21.428-136.822 22.163l-65.106 89.097-59.026 82.149c-17.779 26.947 10.741 109.763 50.77 154.807 31.81 35.796 73.557 37.247 88.725 14.868 8.175-12.062 41.352-62.655 74.898-115.621l72.571-114.148c28.19-44.279 16.755-102.877-26.01-133.315z" class="C"/><path d="M209.969 1487.953c18.756 26.816 16.405 75.216.625 133.228l61.089 76.934c16.587 20.849 15.876 41.434 9.274 52.508-10.795 18.106-36.819 23.847-36.819 23.847L24.652 1448.521l-23.565 18.985s-8.792-78.563 85.175-59.503c58.934 11.954 104.553 52.564 123.707 79.95z" class="I"/><path d="M.742 1453.933c-.53 3.672-.932 8.151-.649 13.239 2.122 38.185 28.48 110.251 73.005 150.721 38.314 34.824 37.86 68.372 66.293 112.638 23.176 36.082 63.97 56.464 109.382 42.589 20.346-6.216 27.085-20.734 9.567-53.739-8.226-15.498-24.003-35.437-42.197-59.84-53.07-71.183-73.047-174.716-134.189-221.627-37.852-29.042-76.489-16.67-81.211 16.019z" class="B"/><g class="D"><path d="M1159.77 726.91c113.516 21.551 139.862 256-101.899 311.69-69.446 15.997-276.072 22.356-311.513 56.397-13.237 12.714-153.594 86.607-224.482-28.759-28.155-45.821-11.725-121.855 7.875-147.188 10.868-14.048 19.489-23.048 32.508-34.67 43.849-39.145 243.302-85.11 377.996-117.025 140.058-33.186 184.66-47.061 219.516-40.444z"/><path d="M529.751 919.05c-47.598 59.119-114.199 178.108-158.439 240.924-11.027 15.657-42.731 60.093-54.635 84.807-3.305 6.861-9.072 21.718-11.97 28.511-9.332 21.876-37.051 47.168-43.031 61.764-8.961 21.871 6.394 27.243-1.457 42.346 0 0 122.134 31.044 177.291 157.982 0 0 105.633 23.038 150.529-60.776 20.255-37.814 38.012-145.699 51.425-177.036 27.775-64.89 73.03-175.207 112.309-207.471 26.756-21.977 46.706-137.007-13.34-188.158-85.759-73.054-198.878 4.929-208.681 17.105z"/></g><g class="H"><path d="M591.709 871.397a5 5 0 0 1-2.153-9.516c69.599-33.135 222.168-69.245 323.127-93.14 8.945-2.117 56.24-9.73 107.772-5.385a5 5 0 1 1-.84 9.964c-50.225-4.234-95.992 3.108-104.629 5.152-100.547 23.797-252.493 59.76-321.132 92.438a4.988 4.988 0 0 1-2.146.487z"/><path d="M1042.975 824.775a4.998 4.998 0 0 1-4.28-2.408c-27.232-44.897-68.658-49.642-90.927-48.476a5 5 0 0 1-.524-9.986c24.497-1.284 70.07 3.93 100.001 53.276a5 5 0 0 1-4.27 7.594zm-604.408 694.889a5 5 0 0 1-.833-9.93c100.883-17.175 121.262-118.534 133.438-179.094 2.759-13.724 5.142-25.577 7.978-33.927 33.836-99.647 87.352-199.748 130.139-243.427 31.493-32.149 144.415-51.159 235.15-66.433l68.71-12.4c95.662-20.722 140.59-61.726 161.434-92.475 22.477-33.157 22.571-61.878 22.569-62.165a5.005 5.005 0 0 1 4.959-5.035h.042a4.995 4.995 0 0 1 4.999 4.942c.013 1.274.051 31.608-23.877 67.255-13.937 20.763-33.183 39.053-57.202 54.36-29.794 18.987-67.074 33.418-110.806 42.891-17.477 3.786-41.431 7.818-69.167 12.488-84.594 14.241-200.449 33.744-229.666 63.57-41.849 42.721-94.408 141.267-127.814 239.644-2.628 7.739-4.952 19.298-7.643 32.682-6.176 30.716-14.633 72.782-34.804 109.322-24.049 43.565-59.969 69.693-106.76 77.659a5.066 5.066 0 0 1-.845.072z"/><path d="M1159.493 913.169a4.982 4.982 0 0 1-3.219-1.176c-26.69-22.482-39.259-57.093-36.348-100.093 2.167-32.009 11.973-57.102 12.389-58.155a5 5 0 1 1 9.299 3.679c-.144.367-9.712 24.98-11.728 55.408-2.659 40.134 8.387 70.923 32.831 91.513a5 5 0 0 1-3.224 8.824z"/></g><path d="M372.595 1401.219c-25.075-16.042-65.606-31.691-112.376-23.816-17.327 22.121-35.029 47-29.9 54.862 62.771-11.587 114.27 24.81 132.729 50.327 37.346 51.623 22.603 85.852 22.603 85.852s8.35 5.687 51.859-33.059c0 0 15.104-82.973-64.915-134.166z" class="D"/><g class="H"><path d="M437.515 1540.386a5 5 0 0 1-4.925-5.896c.079-.453 3.49-20.543-2.499-46.282-8.031-34.512-28.282-62.362-60.191-82.777-15.412-9.86-56.87-31.85-108.851-23.097a5 5 0 0 1-1.66-9.861c55.409-9.33 99.512 14.05 115.901 24.535 42.758 27.355 58.754 63.701 64.643 89.375 6.383 27.824 2.658 49.011 2.496 49.899a5 5 0 0 1-4.913 4.105z"/><path d="M363.049 1487.593a5 5 0 0 1-1.87-9.639c.438-.196 15.316-7.136 44.003-47.09a5 5 0 1 1 8.123 5.833c-30.795 42.891-46.75 49.905-48.467 50.564a4.984 4.984 0 0 1-1.789.333zm23.582 51.091a5.002 5.002 0 0 1-1.517-9.765c.341-.113 21.322-7.346 46.417-41.983a5 5 0 1 1 8.098 5.867c-27.367 37.773-50.532 45.348-51.505 45.652a5.002 5.002 0 0 1-1.493.229zm-64.323-85.549a5 5 0 0 1-4.869-6.154c4.356-18.394 35.727-55.557 37.06-57.13a5 5 0 0 1 7.629 6.466c-8.652 10.21-31.799 39.629-34.958 52.968a5.002 5.002 0 0 1-4.861 3.849zm-55.819-17.909a5.003 5.003 0 0 1-4.964-4.451c-.445-4.007 1.043-11.559 16.637-34.577 8.275-12.214 16.814-23.239 16.9-23.349a5 5 0 0 1 7.901 6.129c-15.579 20.084-31.954 45.248-31.498 50.697a4.997 4.997 0 0 1-4.975 5.55z"/></g><path d="M789.939 1063.137l45.595 37.603c22.756 18.767 61.217 45.65 96.497 67.887 28.308 17.843 16.285 48.587 13.481 53.888-29.783 56.317-122.575 139.928-169.273 146.457-30.065 4.204-35.219-65.411-47.593-77.524l-71.169-69.669-42.32-41.428c-37.233-36.449-40.807-95.418-7.774-135.713l1.675-2.028c36.302-43.623 101.387-48.823 144.098-11.452l36.782 31.979z" class="C"/><path d="M1014.204 1218.964 912 1335.516l-208.735 149.168s-72.936-17.023 26.098-189.29c0 0 68.698-58.731 176.901.397 0 0 71.994-92.487 82.254-93.202 9.795-.683 21.383 10.846 25.686 16.375z" class="I"/><path d="M874.315 1351.127c-40.373 35.619-106.497 32.133-145.865 56.907-30.887 19.437-58.042 66.841-30.211 89.133s149.989-35.775 204.362-99.843 125.106-145.655 111.603-178.361c-8.442-20.449-88.535 86.857-139.889 132.163" class="B"/><path d="M454.835 702.106c-92.607 21.544-150.56 122.729-107.193 245.376 28.023 79.253 101.851 173.992 118.626 214.74 42.542 103.336 137.84 137.082 188.615 64.164l139.056-163.249c-1.19-38.18-27.221-53.325-53.4-80.107-34.325-35.116-51.867-59.3-113.816-91.51-14.777-51.15-88.167-77.42-197.572-76.022-54.841.701 25.684-113.392 25.684-113.392z" class="D"/><g class="H"><path d="M466.264 1167.223a5.003 5.003 0 0 1-4.855-3.821c-2.483-10.219-4.391-20.103-6.236-29.662-6.283-32.553-12.217-63.301-39.682-103.522a5 5 0 1 1 8.259-5.639c28.633 41.932 34.758 73.668 41.242 107.266 1.823 9.444 3.707 19.209 6.134 29.196a5 5 0 0 1-4.863 6.182zm92.576-50.703a5 5 0 0 1-4.963-4.448c-3.359-30.228-.139-59.902 0-61.151a5 5 0 0 1 9.939 1.104c-.033.295-3.232 29.853 0 58.943a5 5 0 0 1-4.975 5.553zm77.884-155.579a5 5 0 0 1-4.957-4.397c-.049-.401-4.924-40.323-9.936-63.988a5 5 0 1 1 9.783-2.071c5.104 24.098 9.879 63.201 10.08 64.854a5 5 0 0 1-4.97 5.604z"/><path d="M793.936 1068.137a5 5 0 0 1-4.995-4.844c-.888-28.505-16.559-43.167-36.399-61.729l-15.579-15.039-14.389-14.99c-25.769-27.11-46.122-48.523-98.158-75.579a4.997 4.997 0 0 1-2.497-3.048c-7.127-24.67-28.903-43.527-64.722-56.047a5 5 0 1 1 3.3-9.44c38.082 13.31 61.753 33.705 70.398 60.637 52.14 27.366 72.825 49.127 98.928 76.588l14.292 14.89c5.133 5.251 10.281 10.068 15.26 14.726 20.682 19.351 38.544 36.063 39.562 68.72a5 5 0 0 1-5.001 5.155zm-207.649 202.27c-3.131 0-6.295-.173-9.492-.523-46.252-5.055-90.375-45.579-115.15-105.759-6.367-15.467-21.526-39.482-39.079-67.29l-8.629-13.692a5 5 0 0 1 8.468-5.32l8.617 13.674c17.8 28.2 33.173 52.554 39.869 68.821 23.381 56.794 64.377 94.968 106.99 99.625 28.49 3.112 54.379-9.819 72.898-36.415a5 5 0 1 1 8.206 5.714c-18.657 26.794-44.203 41.164-72.699 41.164z"/></g><path d="M838.256 1099.687s1.609 3.086-1.771 2.683c-4.241-.506-10.829 1.301-13.461 2.425-17.718 7.562-48.026 25.471-75.278 65.833-13.802 20.442-24.375 40.548-32.057 57.191-7.832 16.969-12.144 28.984-13.395 37.585-.519 3.57-2.817 3.443-2.817 3.443-6.08-.93-44-43.07-44-43.07 12.43-50.21 31.17-87.68 56.42-117.29 3.66-4.3 45.7-48.31 82.04-45.35 0 0 39.46 29.4 44.32 36.55z" class="D"/><g class="H"><path d="M788.27 1130.96c-1.604 0-3.18-.77-4.146-2.199-3.817-5.643-31.117-28.218-47.428-41.122a5 5 0 1 1 6.204-7.842c4.442 3.514 43.572 34.588 49.507 43.361a5 5 0 0 1-4.137 7.802z"/><path d="M699.481 1273.85c-.251 0-.505-.019-.76-.058-2.18-.333-5.474-.835-27.128-23.36a1013.87 1013.87 0 0 1-19.832-21.308 5.003 5.003 0 0 1-1.137-4.546c12.188-49.241 30.986-88.277 57.467-119.337.431-.506 45.664-50.391 86.253-47.087a5.006 5.006 0 0 1 2.582.974c6.702 4.993 40.39 30.277 45.463 37.746a5 5 0 0 1-8.273 5.618c-3.111-4.58-26.889-23.174-41.977-34.459-31.003-1.376-68.655 34.566-76.438 43.695-24.992 29.313-42.907 66.196-54.725 112.68 16.212 17.899 35.365 37.481 39.685 39.583a5 5 0 0 1-1.18 9.858zm.748-9.944h.005-.005z"/><path d="M715.685 1232.819a4.978 4.978 0 0 1-1.958-.402c-15.2-6.477-45.226-42.874-48.599-47.003a5 5 0 0 1 7.743-6.327c8.737 10.691 33.813 39.459 44.776 44.131a5.001 5.001 0 0 1-1.962 9.601zm30.678-55.133a4.99 4.99 0 0 1-1.964-.404c-7.365-3.147-41.041-35.159-51.188-44.896a5 5 0 0 1 6.924-7.216c20.464 19.637 44.088 41.059 48.2 42.918a4.996 4.996 0 0 1 2.629 6.561 5.003 5.003 0 0 1-4.602 3.035z"/></g><path d="M1212.409 390.439c-23.372-59.76-86.364-65.826-117.412-62.597l-188.618 19.613c-12.205 1.269-75.679 26.74-70.59 68.381 5.05 41.323 5.538 49.321 5.745 78.19.344 48.009-15.257 77.178-5.71 105.524 0 0 1.307 9.391-6.416 31.748-4.048 11.719-10.173 19.805-6.891 33.495 3.135 13.076 12.193 21.43 39.045 31.516 36.17 13.585 160.697 35.161 217.35 27.536 19.612 10.749 42.762 9.15 58.432 3.962 128.896 32.332 46.088 118.569 108.466 198.321 4.02 5.139 13.459 14.331 14.345 18.755-.365-3.54-6.576-23.405-6.867-27.387-2.455-33.511 1.103-37.936 7.08-69.689 9.239-49.085 6.018-104.246 2.557-142.727-11.571-128.662-28.688-258.823-50.517-314.639z" fill="#f62"/><g class="K"><path d="M1089.984 730.41c-3.957 0-8.105-.539-12.424-1.752a5 5 0 0 1 2.705-9.627c27.521 7.733 44.009-18.829 44.697-19.963a5.006 5.006 0 0 1 6.862-1.692 4.995 4.995 0 0 1 1.705 6.85c-6.035 10.048-21.897 26.185-43.545 26.185zM860.3 636.964a4.976 4.976 0 0 1-3.296-1.243c-.792-.696-19.479-17.238-25.866-34.431a4.999 4.999 0 0 1 2.946-6.428 5 5 0 0 1 6.428 2.946c5.501 14.809 22.917 30.246 23.092 30.4a5.001 5.001 0 0 1-3.304 8.756z"/><path d="M861.562 701.31a4.977 4.977 0 0 1-1.757-.321c-27.385-10.286-38.414-19.452-42.149-35.03-2.894-12.069.662-20.591 4.1-28.831.998-2.392 2.03-4.866 2.927-7.462 6.272-18.156 6.289-27.232 6.205-29.119-5.553-17.076-2.726-34.29.541-54.185 1.987-12.098 4.239-25.81 4.909-41.412a5.007 5.007 0 0 1 5.21-4.781 5 5 0 0 1 4.781 5.21c-.696 16.201-3 30.228-5.032 42.604-3.217 19.586-5.757 35.056-.733 49.972.099.295.171.599.214.907.151 1.083 1.244 11.239-6.643 34.07-.999 2.893-2.093 5.513-3.15 8.048-3.206 7.683-5.738 13.752-3.604 22.649 2.478 10.335 8.939 17.859 35.941 28.001a5 5 0 0 1-1.758 9.682zm-22.747-254.578a5 5 0 0 1-4.959-4.416l-8.12-67.521a5 5 0 1 1 9.927-1.201l8.123 67.552a5 5 0 0 1-4.972 5.586zm273.221 290.117c-11.644 0-24.13-2.374-35.526-8.62a5 5 0 1 1 4.807-8.769c18.344 10.054 40.14 8.458 54.423 3.611 10.58-3.59 24.57-12.537 30.282-23.698a5 5 0 0 1 8.902 4.556c-8.022 15.673-26.385 25.359-35.97 28.611-7.53 2.555-16.913 4.308-26.916 4.308z"/></g><path d="M1201.958 685.926c2.463 11.316 59.592-3.462 82.321-13.981 58.648-27.143 122.577-73.465 114.248-86.266-23.859-36.671-96.882-22.606-132.951-.089-62.548 39.047-67.085 84.402-63.617 100.336z" fill="#111"/><g class="C"><path d="M1403.129 899.301l-22.264-223.651c-3.912-39.294-33.688-110.088-72.43-194.11-19.084-41.388-69.069-58.185-109.323-36.813-37.503 19.911-52.71 65.801-34.517 104.168l80.397 176.451 63.552 227.209c11.249 41.588 101.392 15.078 94.585-53.254z"/><path d="M1350.015 872.478c-36.695 6.672-48.672 41.249-42.811 65.421 6.579 27.135 41.923 45.406 57.665 65.702 41.659 53.709 97.175-46.944 83.812-56.979-10.166-7.633-24.461-19.623-37.185-33.713-4.523-5.009-8.19-11.525-9.167-21.626 0 0-15.62-25.477-52.315-18.806z"/><path d="M1364.87 947.536c17.763 28.655 1.895 58.289-3.416 52.054-11.888-13.956-17.639 11.443-15.609 17.063 4.51 12.487 9.082 19.999 16.851 39.292 7.643 18.979-20.303 28.516-27.219 11.551-4.294-10.534-21.255-43.31-25.119-55.534-6.039-19.105-6.926-58.317-6.698-77.29.247-20.571 37.75-24.983 61.211 12.864zm62.434-18.734l9.862 48.34 43.588 13.321 12.378 32.715c6.283 15.187 28.397 5.868 24.391-7.296-.626-2.057-5.533-19.835-8.946-32.225-2.089-7.584-7.666-13.581-14.869-16.742l-40.634-18.349c-10.409-5.485-25.77-19.764-25.77-19.764z"/><path d="m1438.961 963.877-18.623 22.991 92.399 70.144c15.471 11.744 30.301-7.947 18.513-19.216-7.764-7.422-92.288-73.92-92.288-73.92z"/><path d="M1425.272 976.192l-26.119 29.257 58.448 38.833 43.009 43.566c11.322 10.12 28.154-4.065 20.678-16.802-4.096-6.978-96.017-94.855-96.017-94.855z"/><path d="M1364.87 1003.601l80.298 103.057c12.696 15.701 34.538 1.217 24.098-16.564-4.478-7.629-65.796-100.922-65.796-100.922z"/></g><path d="M1427.936 1031.454a4.996 4.996 0 0 1-4.179-2.248l-21.665-32.86a5.001 5.001 0 0 1 8.349-5.505l21.665 32.86a5.001 5.001 0 0 1-4.17 7.753zm82.516 28.775a4.984 4.984 0 0 1-3.636-1.567l-35.695-37.792-49.024-35.132a5 5 0 0 1 5.825-8.129l49.416 35.413a5.1 5.1 0 0 1 .723.631l36.026 38.143a5 5 0 0 1-3.634 8.433zm10.074-26.459a4.985 4.985 0 0 1-3.419-1.352l-35.315-33.109-39.613-26.732a5 5 0 0 1 5.593-8.289l39.945 26.956c.22.149.429.315.623.497l35.606 33.382a4.999 4.999 0 0 1-3.421 8.647z" class="G"/><path d="M1201.958 685.926s-12.413-59.885-26.881-105.31c-11.236-35.277-27.996-50.347-26.553-119.504 1.958-93.809-57.124-132.896-57.124-132.896s42.198-6.302 90.985 5.235c65.128 15.401 102.286 74.012 125.843 121.252 10.211 15.506 28.034 35.254 54.477 75.921l35.82 55.055c-4.671-7.179-26.55-20.66-118.112 31.129-76.661 43.361-78.456 69.118-78.456 69.118z" fill="#f62"/><path d="M1201.958 685.926s-5.075-24.485-12.518-54.018l-1.73-6.787c9.271-24.52 56.162-56.183 90.332-72.724 75.233-36.419 86.844-18.422 86.844-18.422l33.64 51.704c-4.671-7.179-26.55-20.66-118.112 31.129-76.661 43.361-78.456 69.118-78.456 69.118z" class="L"/><path d="M1189.436 636.909a5.003 5.003 0 0 1-4.845-3.779c-4.938-19.596-9.743-36.753-14.279-50.996-2.798-8.786-6.016-16.451-9.128-23.865-9.221-21.967-18.757-44.682-17.659-97.261a5.006 5.006 0 0 1 5.103-4.895 5 5 0 0 1 4.895 5.103c-1.053 50.457 7.659 71.21 16.882 93.182 3.197 7.615 6.502 15.49 9.436 24.701 4.598 14.437 9.459 31.794 14.448 51.588a5 5 0 0 1-4.852 6.223zm118.798-177.206a4.994 4.994 0 0 1-4.101-2.134c-18.416-26.319-47.932-35.647-48.228-35.738a5.004 5.004 0 0 1-3.313-6.244 4.998 4.998 0 0 1 6.236-3.319c1.34.409 33.048 10.341 53.499 39.568a5 5 0 0 1-4.092 7.867zm-154.486-43.09a5 5 0 0 1-4.835-6.286c9.335-35.096 27.323-58.468 28.085-59.446a5 5 0 0 1 7.893 6.14c-.174.225-17.527 22.841-26.314 55.877a5.002 5.002 0 0 1-4.829 3.716z" class="K"/><g class="C"><path d="M994.965 408.43c-27.339-1.232-48.503-24.393-47.271-51.732l6.697-149.191c1.232-27.339 24.393-48.503 51.732-47.271s48.503 24.393 47.271 51.732l-6.697 149.191c-1.232 27.339-24.393 48.503-51.732 47.271z"/><path d="M911.655 346.906c2.653 34.398 20.065 64.693 52.384 70.145 84.494 14.253 111.765-64.398 118.355-87.899l-170.739 17.754zm-68.984-201.759c-6.89 23.225 2.49 44.255 5.431 58.215 1.56 7.404 3.34 15.168 4.055 23.686 1.525 18.169-3.417 29.54 2.515 50.639 7.402 26.328 41.184 43.74 81.23 40.621 35.207-2.742 72.39-30.426 88.53-64.623 15.315-32.45 10.604-80.756-20.329-110.078-55.149-52.279-145.825-51.07-161.433 1.541z"/></g><ellipse cx="940.422" cy="212.314" fill="#fff" rx="21.252" ry="24.176" transform="matrix(.982977 -.183728 .183728 .982977 -22.999 176.393)"/><g clip-path="url(#B)"><ellipse cx="938.11" cy="223.04" fill="#111" rx="13.842" ry="21.18" transform="matrix(.982977 -.183728 .183728 .982977 -25.009 176.151)"/></g><path d="M919.038 177.971c-10.713 3.068-17.865-11.156-8.559-16.04 10.657-5.593 38.887-5.454 54.138 8.591 7.08 6.52 1.86 11.103-3.476 8.842-11.382-4.821-25.404-6.176-42.104-1.393zm-51.29 9.751c10.615-.51 10.139-17.286 1.886-17.796-11.481-.709-24.314 7.015-28.067 14.868-3.47 7.262 1.53 14.254 6.227 9.958 3.364-3.077 11.892-6.642 19.954-7.03z" class="F"/><path d="M890.2 263.926a4.999 4.999 0 0 1-4.44-2.694c-3.332-6.406-2.376-13.146 2.437-17.17 5.087-4.254 14.558-5.196 24.25 2.288a4.999 4.999 0 1 1-6.112 7.914c-5.586-4.314-10.155-3.842-11.722-2.532-1.529 1.278-.644 3.609.02 4.884a5 5 0 0 1-4.431 7.308z" class="G"/><path d="M967.321 258.006c6.091-.374 9.835 20.948-3.5 31.331-15.684 12.212-33.469 3.32-35.251-3.613-2.11-8.213 8.839-6.615 18.942-12.04 10.77-5.783 11.495-15.166 19.809-15.678z" fill="#fff"/><path d="M947.639 321.504a5.002 5.002 0 0 1-1.122-9.872c22.063-5.103 41.309-18.854 51.963-30.021a5 5 0 0 1 7.235 6.903c-11.653 12.215-32.732 27.262-56.945 32.861-.379.088-.758.13-1.131.13z" class="G"/><g clip-path="url(#C)"><ellipse cx="860.644" cy="224.121" fill="#fff" rx="19.241" ry="21.888" transform="matrix(.982977 -.183728 .183728 .982977 -26.526 161.937)"/><g clip-path="url(#D)"><ellipse cx="860.02" cy="234.29" fill="#111" rx="12.708" ry="19.444" transform="matrix(.982977 -.183728 .183728 .982977 -28.405 161.995)"/></g></g><path d="M920.397 80.996c-9.072-3.191-35.126-2.262-57.567 9.807s-42.139 44.856-33.104 77.243c0 0 17.958-17.792 61.286-22.717 3.626-23.028 22.846-36.083 22.846-36.083s7.253 15.956 8.159 32.456c15.735-2.151 71.055-2.012 99.027 25.056-7.4-82.666-86.881-93.055-100.647-85.762zm98.446 11.613s25.09-2.584 36.264 16.636c12.706 21.855-.026 47.869 25.385 62.244 7.681 4.345 31.64 25.153 13.146 46.639 23.3 9.157 24.842 29.035 14.415 61.558-11.423 35.629 47.526 65.918-1.219 123.661-19.32 22.887-33.999 46.841-12.924 103.533 18.132 48.775-26.654 74.341-32.456 99.907-4.533-20.67 7.708-36.634 5.757-64.477-3.219-45.947-33.68-59.546-42.384-115.574-7.683-49.459 12.511-75.066 17.407-102.083 12.124-66.904-9.019-125.201-12.234-135.415-20.615-65.5-11.157-96.629-11.157-96.629z" class="E"/><path d="M1080.487 176.49a4.97 4.97 0 0 1-2.558-.708c-17.221-10.28-18.94-24.925-20.603-39.087-1.036-8.82-2.014-17.15-6.541-24.937-9.375-16.125-31.222-14.195-31.443-14.174-2.748.267-5.192-1.735-5.467-4.477s1.714-5.189 4.456-5.471c1.156-.119 28.448-2.664 41.099 19.097 5.572 9.583 6.77 19.791 7.828 28.797 1.569 13.36 2.808 23.912 15.797 31.667a5 5 0 0 1-2.568 9.294zm26.344 231.857a5 5 0 0 1-3.818-8.225c28.317-33.544 18.011-56.43 8.045-78.562-6.227-13.827-12.665-28.125-7.767-43.401 10.558-32.93 7.446-47.939-11.482-55.378a5 5 0 1 1 3.657-9.307c30.572 12.015 25.925 40.984 17.347 67.738-3.725 11.618 1.413 23.029 7.363 36.242 10.184 22.615 22.857 50.761-9.522 89.118a4.989 4.989 0 0 1-3.823 1.775zm-15.464-56.934a4.977 4.977 0 0 1-2.246-.536c-27.113-13.659-21.427-48.449-21.172-49.923a5 5 0 0 1 9.855 1.697c-.199 1.179-4.645 28.989 15.816 39.296a5 5 0 0 1-2.253 9.467zm-31.969 163.782a4.99 4.99 0 0 1-4.167-2.234c-.749-1.128-18.34-28.024-17.823-61.659.562-36.531 11.609-60.662 12.079-61.671a5 5 0 0 1 9.065 4.221c-.104.224-10.619 23.338-11.145 57.604-.468 30.448 15.992 55.728 16.159 55.98a5.002 5.002 0 0 1-4.168 7.759z" class="F"/><g class="I"><path d="M1044.137 128.103c-21.894-71.259-88.991-73.015-125.509-65.298-41.351 8.738-55.798 27.999-55.798 27.999s20.76-11.796 55.199-8.755c56.481 4.986 86.652 36.669 103.016 84.71 10.607 31.142 3.51 25.532 3.51 25.532l20.398-9.247s6.431-31.354-.816-54.94z"/><path d="M918.029 69.718s-5.522-22.482 20.308-35.357C967.53 19.81 973.15.001 973.15.001s12.647 34.541.272 53.852c-12.032 18.775-38.848 24.66-55.393 15.865z"/><path d="M918.029 69.718s4.703-21.668-18.177-36.06c-16.863-10.607-34.949-8.907-34.949-8.907s6.799 6.867 8.567 19.243c2.14 14.982 10.607 36.377 44.559 25.725z"/></g><g fill="#330096"><path d="M935.309 78.722c-7.002 0-13.797-1.49-19.627-4.589a5 5 0 1 1 4.694-8.83c12.26 6.516 31.008 3.459 42.681-6.961a5 5 0 0 1 6.66 7.46c-9.418 8.407-22.224 12.92-34.407 12.92z"/><path d="M901.487 77.574c-3.5 0-6.76-.424-9.767-1.274a5 5 0 0 1 2.719-9.623c5.787 1.635 13.22 1.053 22.092-1.731a5 5 0 0 1 2.994 9.541c-6.553 2.056-12.586 3.086-18.038 3.086zm144.211 98.915h-.092a5 5 0 0 1-4.909-5.09c.559-30.818-25.138-58.923-39.681-65.998a5 5 0 0 1 4.374-8.993c15.626 7.602 45.971 38.408 45.305 75.171a5 5 0 0 1-4.998 4.909z"/><path d="M922.254 75.127a26.73 26.73 0 0 1-5.198-.505c-8.248-1.636-12.816-6.072-17.651-10.767-3.5-3.399-7.468-7.252-13.771-11.066a5 5 0 0 1 5.179-8.555c7.275 4.403 11.868 8.863 15.559 12.447 4.385 4.258 7.282 7.072 12.631 8.133 6.827 1.354 20.684-.503 36.771-28.162a5 5 0 1 1 8.644 5.028c-16.141 27.752-31.93 33.448-42.163 33.448z"/></g><circle cx="918.029" cy="69.718" r="12.33" class="I"/><path d="M918.029 87.047c-9.556 0-17.33-7.774-17.33-17.33s7.774-17.33 17.33-17.33 17.33 7.774 17.33 17.33-7.774 17.33-17.33 17.33zm0-24.659c-4.042 0-7.33 3.288-7.33 7.33s3.288 7.33 7.33 7.33 7.33-3.288 7.33-7.33-3.288-7.33-7.33-7.33z" fill="#330096"/><path d="M1014.832 178.554c6.264-17.997 32.268-26.177 42.264-5.302 11.266 23.525-18.318 63.779-35.87 50.536-11.722-8.843-10.807-32.556-6.394-45.234z" class="C"/><g class="G"><path d="M1029.6 211.629a5.003 5.003 0 0 1-4.762-3.48c-4.133-12.936-.198-25.347 11.377-35.891a5 5 0 1 1 6.734 7.392c-8.593 7.828-11.481 16.392-8.586 25.456a5 5 0 0 1-4.764 6.523z"/><path d="M1042.083 198.028c-.496 0-1-.074-1.497-.23l-12.083-3.789a5 5 0 0 1 2.992-9.542l12.083 3.789a5 5 0 0 1-1.495 9.772z"/></g></svg></g><g transform="matrix(1.363248 0 0 1.362187 2154.545455 1843.636364)"><svg width="421.12" height="622.662"><g fill="#ff5cf0"><path d="M49.351 145.17 5 540.997l248.747-129.016L294.039 5z"/><path d="M5.001 545.997a4.999 4.999 0 0 1-4.97-5.557l44.351-395.827a4.998 4.998 0 0 1 2.484-3.782L291.554.661a5.002 5.002 0 0 1 7.461 4.832l-40.292 406.981a5 5 0 0 1-2.674 3.946L7.302 545.436a4.994 4.994 0 0 1-2.302.562zm49.036-397.75-43.025 384L249.038 408.79l39.07-394.63z"/><path d="m328.805 53.927 87.315 27.737-38.069 385.854L271.6 448.817l-17.853-36.836L294.039 5z"/><path d="M378.051 472.518c-.288 0-.577-.025-.865-.075l-106.451-18.7a5 5 0 0 1-3.634-2.744l-17.854-36.837a5 5 0 0 1-.476-2.673L289.063 4.507a5 5 0 0 1 9.051-2.404l33.797 47.564 85.721 27.231a5 5 0 0 1 3.462 5.256l-38.068 385.853a4.998 4.998 0 0 1-4.976 4.509zm-103.067-28.183 98.621 17.325 37.141-376.456-83.455-26.511a5.008 5.008 0 0 1-2.562-1.869l-27.03-38.04-38.837 392.287 16.123 33.266z"/></g><g fill="#5ac4ff"><path d="m87.436 157.285-8.268-49.428 29.189-23.351 21.613 7.506 26.757-30.024 22.518-5.837 35.861 23.351 13.343-65.05 78.394 42.533 53.375-38.363v60.046l22.706 22.013-211.492 121.153-43.552-51.684z"/><path d="M171.434 226.834a4.998 4.998 0 0 1-3.826-1.778l-42.621-50.579-39.066-12.427a5.001 5.001 0 0 1-3.416-3.94l-8.269-49.428a5 5 0 0 1 1.808-4.729l29.189-23.351a5 5 0 0 1 4.764-.819l18.461 6.411 24.537-27.532a4.991 4.991 0 0 1 2.478-1.513l22.517-5.838a5 5 0 0 1 3.983.65l29.71 19.346 11.869-57.859a4.998 4.998 0 0 1 7.283-3.39l75.637 41.037L357.3 14.562a5 5 0 0 1 7.918 4.06v57.93l21.186 20.54a5 5 0 0 1-.995 7.928L173.917 226.173a4.989 4.989 0 0 1-2.483.662zm-79.57-73.388 37.532 11.939c.9.286 1.7.821 2.308 1.543l40.864 48.493L374.673 99.645l-17.935-17.387a5.002 5.002 0 0 1-1.52-3.59V28.373l-45.456 32.672a5 5 0 0 1-5.303.335l-72.466-39.317-11.989 58.444a5 5 0 0 1-7.626 3.185l-34.013-22.148-18.914 4.904-25.748 28.891a5.002 5.002 0 0 1-5.373 1.397l-19.005-6.6-24.741 19.793 7.28 43.519z"/></g><g fill="#2199ce"><path d="M157.372 210.155a5 5 0 0 1-4.114-7.837l25.056-36.383-35.738-49.403a4.997 4.997 0 0 1 1.408-7.174l7.408-4.614-44.676-15.515a5 5 0 0 1 3.281-9.447l54.563 18.949a5 5 0 0 1 1.003 8.967l-11.745 7.315 34.666 47.921a5.001 5.001 0 0 1 .067 5.767l-27.058 39.289a4.999 4.999 0 0 1-4.122 2.165z"/><path d="M147.375 198.287a5 5 0 0 1-4.999-4.953l-.749-79.685a5 5 0 0 1 4.953-5.047c2.716-.042 5.021 2.191 5.047 4.953l.749 79.685a5 5 0 0 1-4.953 5.047h-.048zm86.815-7.406c-.914 0-1.838-.25-2.667-.774l-30.486-19.274a4.998 4.998 0 0 1-2.228-3.233l-10.749-53.004a5 5 0 0 1 3.427-5.772l49.297-15.197a5 5 0 0 1 5.722 2.143l11.49 18.533a5 5 0 0 1-.037 5.329l-17.636 27.576 27.364 16.712a5 5 0 1 1-5.212 8.534l-31.72-19.372a4.997 4.997 0 0 1-1.606-6.961l18.689-29.224-7.797-12.576-41.281 12.726 9.425 46.474 28.682 18.134a5 5 0 0 1-2.677 9.227z"/><path d="M219.622 110.383a5.003 5.003 0 0 1-4.862-3.851l-7.98-33.768a5 5 0 0 1 9.732-2.3l7.98 33.768a5 5 0 0 1-4.87 6.151zm34.122 11.555a5 5 0 0 1-3.88-8.151l53.097-65.432a5 5 0 0 1 7.765 6.301l-53.097 65.432a4.99 4.99 0 0 1-3.885 1.85zm61.983 22.24a5 5 0 0 1-4.947-5.773l10.304-65.977a4.998 4.998 0 0 1 5.458-4.202l39.073 4.066a5 5 0 0 1-1.035 9.947l-34.348-3.574-9.571 61.283a5 5 0 0 1-4.934 4.229z"/></g><g fill="#ff5cf0"><path d="m171.432 221.834-44.351 395.828 250.97-150.144L416.12 81.664z"/><path d="M127.081 622.662a4.998 4.998 0 0 1-4.969-5.557l44.351-395.827a4.998 4.998 0 0 1 2.484-3.782l244.688-140.17a5.002 5.002 0 0 1 7.461 4.829l-38.068 385.853a5.001 5.001 0 0 1-2.409 3.8L129.648 621.952a4.997 4.997 0 0 1-2.567.709zm49.037-397.75-42.945 383.279 240.15-143.67 36.869-373.698-234.073 134.089z"/><path d="m127.88 170.15 43.552 51.684-44.351 395.828-54.692-51.863L5 540.997 49.351 145.17z"/><path d="M127.081 622.662a5 5 0 0 1-3.441-1.372l-53.944-51.154L3.273 545.69a5 5 0 0 1-3.242-5.249l44.351-395.828a5 5 0 0 1 6.484-4.208l78.529 24.98c.9.286 1.7.821 2.308 1.543l43.552 51.684a5.003 5.003 0 0 1 1.146 3.779L132.05 618.219a5 5 0 0 1-4.969 4.443zM10.405 537.659l63.711 23.448c.637.235 1.22.597 1.713 1.064l47.401 44.949 42.993-383.707-41.236-48.936-71.346-22.695z"/></g><g fill="#cc2bc5"><path d="M297.287 311.259c-10.134 0-19.197-3.588-26.669-10.65-19.899-18.808-24.049-57.201-17.864-85.406a5 5 0 0 1 9.768 2.142c-5.447 24.836-2.053 59.912 14.965 75.997 8.058 7.616 18.323 9.753 30.509 6.351 12.605-3.519 22.447-12.148 29.253-25.649 16.345-32.42 10.825-81.935 1.949-105.191a5 5 0 0 1 9.342-3.566c9.793 25.658 15.535 77.759-2.362 113.259-8.125 16.116-20.067 26.472-35.494 30.779-4.632 1.293-9.111 1.935-13.398 1.935zm-125.853-84.425a4.988 4.988 0 0 1-3.826-1.778l-42.621-50.579-77.152-24.542a5 5 0 1 1 3.031-9.529l78.529 24.98c.9.286 1.7.821 2.308 1.543l43.552 51.684a4.999 4.999 0 0 1-3.821 8.222z"/><path d="M171.436 226.835a5 5 0 0 1-2.49-9.339l244.688-140.17a5 5 0 0 1 4.971 8.677l-244.688 140.17a4.977 4.977 0 0 1-2.481.662z"/><path d="M127.087 622.662a5 5 0 0 1-4.975-5.557l44.351-395.828a5 5 0 0 1 9.938 1.114L132.05 618.219a5.001 5.001 0 0 1-4.963 4.444zM72.396 570.8a5 5 0 0 1-4.958-5.695l55.49-395.649a5.001 5.001 0 0 1 9.903 1.389l-55.49 395.649a5.001 5.001 0 0 1-4.945 4.306z"/></g></svg></g><g transform="matrix(1.362682 0 0 1.361642 1810.909091 2168.181818)"><svg width="560.392" height="491.719"><g class="L"><path d="M536.024 355.535 333.031 486.719l21.498-267.312 200.863-100.728z"/><path d="M333.031 491.719a4.999 4.999 0 0 1-4.984-5.401l21.498-267.312a5 5 0 0 1 2.743-4.069l200.864-100.728a5.002 5.002 0 0 1 7.225 4.877l-19.368 236.856a5 5 0 0 1-2.27 3.792L335.746 490.918a4.998 4.998 0 0 1-2.714.801zm26.256-269.105-20.46 254.405 192.414-124.347 18.443-225.537zm176.737 132.921h.01z"/><path d="M230.862 5 25.558 103.525l328.971 115.882 200.863-100.728z"/><path d="M354.529 224.407c-.56 0-1.122-.094-1.661-.284L23.897 108.241a5.001 5.001 0 0 1-.503-9.224L228.698.492a4.999 4.999 0 0 1 3.816-.211L557.045 113.96a5 5 0 0 1 .589 9.188L356.77 223.876a5.007 5.007 0 0 1-2.242.531zM38.593 102.815l315.594 111.17 188.419-94.488L231.161 10.403z"/><path d="m5 359.145 328.031 127.574 21.498-267.312L25.558 103.525z"/><path d="M333.031 491.719a4.989 4.989 0 0 1-1.812-.34L3.188 363.805a5 5 0 0 1-3.172-5.061l20.558-255.62a4.998 4.998 0 0 1 6.645-4.315L356.19 214.691a5 5 0 0 1 3.323 5.117L338.015 487.12a5 5 0 0 1-4.985 4.599zM10.282 355.834l318.303 123.791 20.651-256.781L30.021 110.398z"/></g><g fill="#ce9800"><path d="M333.036 491.719a5 5 0 0 1-4.989-5.401l21.498-267.312a5 5 0 0 1 9.968.802L338.015 487.12a5 5 0 0 1-4.979 4.599z"/><path d="M354.529 224.409a5.003 5.003 0 0 1-1.661-.285L23.897 108.241a5 5 0 0 1 3.322-9.432L356.19 214.691a5 5 0 0 1-1.661 9.717z"/><path d="M354.533 224.408a5 5 0 0 1-2.245-9.471l200.864-100.728a5 5 0 0 1 4.483 8.939L356.771 223.876a4.974 4.974 0 0 1-2.237.532z"/></g><g class="B"><path d="m135.215 142.152 203.824-99.259 108.177 37.893-202.344 99.994z"/><path d="M244.872 185.78a4.992 4.992 0 0 1-1.661-.284l-109.657-38.627a5.002 5.002 0 0 1-.529-9.211l203.824-99.259a5.006 5.006 0 0 1 3.842-.224l108.177 37.893a5.001 5.001 0 0 1 .562 9.201l-202.344 99.994a4.997 4.997 0 0 1-2.215.518zm-96.714-44.369 96.388 33.953 189.792-93.791-94.984-33.272-191.195 93.109z"/><path d="m135.215 142.152-10.399 129.3 23.596-8.652 12.963 21.53 23.593-8.653 12.961 21.529 23.585-8.655 12.959 21.528 10.399-129.299z"/><path d="M234.473 315.079a4.999 4.999 0 0 1-4.283-2.422l-10.829-17.99-19.709 7.233a5 5 0 0 1-6.006-2.115l-10.831-17.992-19.717 7.231a5.001 5.001 0 0 1-6.005-2.115l-10.834-17.994-19.72 7.231a5.002 5.002 0 0 1-6.706-5.095l10.399-129.299a4.998 4.998 0 0 1 6.645-4.315l109.657 38.627a5 5 0 0 1 3.323 5.117L239.458 310.48a5 5 0 0 1-4.985 4.6zm-12.96-31.529a5 5 0 0 1 4.285 2.422l4.938 8.204 8.843-109.959-99.901-35.191-9.252 115.043 16.264-5.964a5 5 0 0 1 6.005 2.115l10.834 17.994 19.717-7.231a5 5 0 0 1 6.005 2.115l10.831 17.991 19.709-7.233a4.998 4.998 0 0 1 1.721-.307z"/></g><path d="M250.938 187.918a5.003 5.003 0 0 1-1.661-.285l-117.925-41.54a5 5 0 0 1 3.322-9.432l117.925 41.54a5 5 0 0 1-1.661 9.717z" class="J"/></svg></g></svg>