<svg xmlns="http://www.w3.org/2000/svg" width="2200" height="3000" xmlns:v="https://vecta.io/nano"><style><![CDATA[.B{fill:#f4bbab}.C{fill:#e09273}.D{fill:#e3e5e5}.E{fill:#2471ed}.F{fill:#ea2688}]]></style><g transform="matrix(1.333188 0 0 1.332028 61.333333 188)"><svg width="1387.151" height="2019.977"><path d="M1130.765 924.825c-48.179-18.635-80.191-29.868-126.461-43.18C805.2 824.361 973.7 526.201 973.7 526.201s-3.722 116.748 56.988 190.13c32.895 39.761 147.907 147.732 163.348 186.54 11.041 27.75-26.405 36.214-63.271 21.954zm-490.693 413.713-88.771-22.106-26.403 25.904 20.897 106.557 8.748 1.829a182.064 182.064 0 0 1 2.915 31.621c.171 36.342 3.202 97.324 21.071 139.501 40.216 94.926 138.797 127.48 138.797 127.48s54.165-22.425 74.032-95.502c9.509-34.976-151.285-315.284-151.285-315.284z" fill="#111"/><path d="M994.414 1355.067l-168.576 81.603a50.179 50.179 0 0 0-28.022 39.973l-8.026 77.298c-1.834 19.48-.765 84.229-55.808 99.241-79.038 21.556-128.776-50.812-138.667-108.224l-21.793-134.824c-14.264-96.202 21.468-133.907 76.623-163.673l233.949-113.271c87.009-41.426 185.081 185.848 110.319 221.878z" class="B"/><path d="M789.79 1553.94c-29.213 22.7-47.171 46.761-47.171 46.761-5.899-8.3-23.555-33.697-52.474-52.474-19.822-12.87-86.726-42.753-95.837-92.751l-8.753-56.343s12.126-28.147 15.272-60.497c5.189-53.375 23.556-74.78 49.319-92.177-3.339-.108-22.891.161-47.862 11.294-30.121 13.428-66.011 44.127-59.09 82.429l17.854 93.737c1.673 9.385 4.842 22.022 6.152 34.421 2.711 25.662 5.503 61.033 18.006 109.764 28.334 110.432 147.038 156.669 147.038 156.669s41.221-15.983 59.112-80.952c8.303-30.151 8.555-62.057 6.79-83.609-1.082-13.213-8.357-16.273-8.357-16.273z" class="E"/><g class="D"><path d="M1187.111 1050.949c37.958 83.048 37.964 207.247-53.97 272.619-66.144 47.034-95.121 77.457-284.975 197.987-57.729 36.65-117.981-26.485-147.614-97.297-21.405-51.151-58.59-199.214-13.809-225.148 149.425-86.54 214.252-120.073 294.664-160.864 78.617-39.88 180.869-41.631 205.703 12.704z"/><path d="M680.198 749.219l265.756 425.025c98.006 145.202 312.369 26.887 236.845-133.218-42.682-90.482-94.204-153.267-140.898-215.722 0 0 .574-5.665-5.574-14.114-6.604-9.078-16.219-14.033-16.219-14.033-11.381-20.223-59.145-72.273-59.145-72.273L680.197 749.22z"/></g><g fill="#b7b7b7"><path d="M888.858 1090.701a5.001 5.001 0 0 1-.688-9.952l155.395-21.811a4.999 4.999 0 1 1 1.389 9.902l-155.395 21.811a5.05 5.05 0 0 1-.701.049z"/><path d="M888.868 1090.702a5 5 0 0 1-2.226-9.48l107.379-53.293a5 5 0 1 1 4.445 8.958l-107.379 53.293a4.984 4.984 0 0 1-2.219.522zm44.396-281.759a5.004 5.004 0 0 1-4.638-3.122 4.996 4.996 0 0 1 2.746-6.507c1.434-.583 35.736-14.211 89.392-7.114a5 5 0 0 1-1.312 9.913c-50.84-6.725-83.989 6.333-84.317 6.466a5.002 5.002 0 0 1-1.871.365zm113.449 27.78a4.992 4.992 0 0 1-1.755-.32c-35.598-13.349-66.049-12.472-66.351-12.46a5.02 5.02 0 0 1-5.171-4.821 4.998 4.998 0 0 1 4.815-5.172c1.313-.048 32.648-.998 70.218 13.091a5 5 0 0 1-1.757 9.683z"/></g><path d="M875.461 1766.199c10.394 26.517 127.706-10.734 163.845-20.741s148.506-58.934 140.137-77.56-51.541-90.597-190.835-46.725C847.388 1665.652 875.46 1766.2 875.46 1766.2zm415.457 111.559s-12.627 88.72-159.962 53.971c-125.415-29.579-207.952-145.008-207.952-145.008l14.844 62.804 47.727 55.877 11.587-3.005c9.757 16.807 19.487 34.32 31.266 48.885 16.276 20.124 60.622 64.117 152.236 68.114 83.398 3.638 117.677-10.959 117.677-10.959s17.07-65.969-7.423-130.677z" fill="#111"/><path d="m1105.076 1544.153 35.258 105.026a377.119 377.119 0 0 0 57.879 105.486l44.484 59.139c33.298 44.268 18.543 107.869-30.844 132.955-56.878 28.891-126.098 15.648-168.294-32.198l-50.402-57.15a204.723 204.723 0 0 1-47.961-99.245 351.033 351.033 0 0 0-16.461-60.254l-29.348-78.977c-22.117-59.516 10.893-125.3 71.827-143.143 55.688-16.307 114.423 13.689 133.862 68.362z" class="B"/><path d="M1297.263 1904.844c-4.935-40.312-33.197-83.421-47.429-96.942-8.726-8.291-16.331-6.323-16.331-6.323-7.991 16.838-21.331 53.032-17.13 71.255-34.248-9.115-74.787-8.133-110.9-7.257-40.389.979-79.096 2.38-91.421-12.65l-30.238-36.876s-.512-35.732-9.563-67.424c-15.985-55.971-55.588-77.821-55.588-77.821s-9.235 52.867-8.943 85.687c.373 41.93 30.285 69.618 33.695 72.637 20.375 18.041 46.657 51.734 49.211 55.337 18.248 25.731 51.943 74.469 122.333 96.666 88.363 27.864 178.205 2.779 178.205 2.779s10.319-28.248 4.098-79.066z" class="E"/><g class="D"><path d="M611.277 755.381c-43.256 51.313-30.682 144.282-17.691 193.78 33.681 128.327 100.493 241.072 187.339 408.08 25.869 49.746 127.252 70.755 189.907 29.901 51.804-33.779 71.298-118.357 47.719-186.245-35.576-102.433-207.009-463.423-207.009-463.423l-200.266 17.907z"/><path d="M1018.552 1200.897c5.473 13.128 160.891 467.001 160.891 467.001s-8.025-24.556-84.22-14.693c-107.068 13.859-229.384 75.018-219.763 112.995-39.478-98.122-79.131-299.921-94.535-408.958-22.757-161.08 37.017-216.561 95.042-229.772 55.011-12.525 116.584 11.066 142.584 73.427z"/></g><g fill="#b7b7b7"><path d="M811.471 1534.739a5.002 5.002 0 0 1-4.891-3.989c-12.349-59.719-23.448-122.332-30.485-171.961l-42.862-81.502-42.042-80.085a5 5 0 1 1 8.886-4.588l41.996 79.997 43.289 82.323c.261.503.436 1.046.515 1.607 7.002 49.562 18.118 112.321 30.497 172.184a5 5 0 0 1-4.902 6.013zm263.574-166.066a5.003 5.003 0 0 1-4.728-3.375l-56.38-162.477a4.612 4.612 0 0 1-.108-.284c-20.906-60.193-88.886-210.011-142.233-325.093a5 5 0 1 1 9.072-4.206c53.404 115.204 121.468 265.22 142.563 325.89 2.228 5.524 20.733 58.845 56.542 162.916a5.001 5.001 0 0 1-4.728 6.628z"/><path d="M780.919 1362.242a5 5 0 0 1-4.937-4.25c-7.82-51.485 2.513-88.283 2.957-89.824a5.002 5.002 0 0 1 6.188-3.422 4.998 4.998 0 0 1 3.421 6.188c-.101.354-10.151 36.367-2.68 85.556a5 5 0 0 1-4.949 5.751z"/></g><path d="M917.015 223.75c-7.482 82.264 61.173 98.908 39.144 132.042S847.682 383.127 829.89 345.32c-38.819-82.49 87.125-121.57 87.125-121.57zm-167.186-88.407s-29.252 7.228-29.2 40.648c.012 7.559-.311 16.67-3.766 22.772-20.292 35.839-102.577 47.167-156.571 70.447-32.37 13.956-73.03 52.927-61.828 105.052 0 0 71.397 22.431 177.974-19.306 90.625-35.49 56.024-162.293 56.024-183.698s17.366-35.916 17.366-35.916z" class="F"/><path d="M1222.459 263.759c-38.178-14.826-43.763-55.598-41.366-70.61s54.99-2.857 74.787 4.009c54.202 18.798 99.273 45.845 97.791 58.818-2.023 17.702-58.708 35.941-131.212 7.784z" fill="#111"/><g class="B"><path d="M1192.67 526.2c45.305 7.249 81.139-14.524 88.124-62.27 9.988-68.28 20.606-190.832 29.833-262.812 9.642-75.226-73.963-97.698-96.86-17.802q-43.613 152.182-74.661 259.47c-14.895 51.472 38.007 80.925 53.565 83.414z"/><path d="M1213.766 183.316c6.703-50.237 26.942-101.021 46.055-124.115 14.118-17.058 104.657 41.269 93.941 72.854-7.801 22.996-27.013 71.101-50.92 72.213-17.841.83-89.076-20.953-89.076-20.953z"/></g><path d="M1301.202 209.26c-3.598 0-6.895-.516-9.219-.879-10.419-1.63-16.515-3.2-16.77-3.266a5 5 0 0 1 2.511-9.68c.058.015 5.925 1.521 15.805 3.066 5.026.786 10.715 1.454 14.616-.597a5 5 0 0 1 4.653 8.851c-3.673 1.931-7.802 2.505-11.597 2.505z" class="C"/><g class="B"><path d="M1252.8 81.327c-8.634-8.764-9.02-22.709-.872-31.927 16.408-18.565 38.798-43.169 45.338-46.735 18.22-9.933 43.109 10.079 34.058 24.259-6.421 10.06-28.544 35.631-44.295 53.465-8.985 10.172-24.703 10.606-34.229.938z"/><path d="M1213.766 183.316c-3.419-20.637-11.23-66.89-4.963-79.661s23.012-38.294 26.351-53.386c5.585-25.24 34.021-21.889 31.72 6.026-1.197 14.527-17.002 44.374-17.002 44.374 13.506 8.24 22.617 39.1 17.18 60.805-10.445 41.699-53.287 21.841-53.287 21.841z"/></g><path d="M1267.057 166.476a5 5 0 0 1-4.854-6.216c5.171-20.647-4.029-48.669-14.934-55.322a5 5 0 0 1-1.744-6.737c.136-.239 13.627-24.109 16.633-38.54a5 5 0 1 1 9.79 2.038c-2.586 12.417-11.514 29.955-15.634 37.627 13.204 12.163 20.947 41.972 15.589 63.363a5.002 5.002 0 0 1-4.846 3.786z" class="C"/><path d="M1371.751 84.665c-8.44 8.45-15.13 15.453-31.939 33.041-10.615 11.107 8.733 30.148 21.022 17.222 6.277-6.603 19.358-21.096 24.144-28.077 7.847-11.446-7.661-27.758-13.227-22.186z" class="B"/><path d="M1351.411 144.266c-6.798 0-13.05-4.081-16.484-9.204-4.662-6.956-4.163-15.125 1.271-20.811a5 5 0 0 1 7.229 6.909c-2.956 3.092-1.39 6.549-.193 8.334 2.181 3.255 6.674 5.863 10.703 4.287a5 5 0 0 1 3.643 9.313 16.877 16.877 0 0 1-6.168 1.171z" class="C"/><use href="#B" class="B"/><path d="M1327.966 127.921c-5.501 0-10.513-2.348-14.044-5.809-7.179-7.034-9.812-20.083-.551-30.413l20.336-22.649 16.42-18.28a5 5 0 0 1 7.442 6.68l-16.423 18.284-20.33 22.641c-5.408 6.033-3.737 12.831.104 16.594 3.421 3.352 9.284 4.87 15.479-.917 5.766-5.386 23.082-23.844 30.476-31.726a525.106 525.106 0 0 1 3.527-3.744 5 5 0 0 1 7.114 7.028c-.258.262-1.489 1.576-3.348 3.558l-30.943 32.192c-5 4.671-10.327 6.561-15.259 6.561z" class="C"/><path d="M1333.714 26.474c-3.821 3.699-17.157 20.486-39.212 46.856-11.257 13.459 10.181 33.988 24.847 18.994 5.923-6.055 27.893-30.53 38.859-42.783 9.143-10.215-13.547-33.665-24.495-23.068z" class="B"/><path d="M1308.037 102.558c-5.322 0-10.322-2.232-13.988-5.55-7.164-6.481-10.396-17.849-2.712-27.036a5 5 0 1 1 7.67 6.415c-3.801 4.545-1.757 10.031 1.75 13.205 3.66 3.311 9.526 4.849 15.018-.765 5.964-6.097 29.057-31.837 38.708-42.621a5 5 0 0 1 7.451 6.669l-39.011 42.945c-4.695 4.8-9.931 6.737-14.887 6.737z" class="C"/><path d="M1329.513 14.155c2.806 2.102 4.301 5.638 3.541 9.06a8.345 8.345 0 0 1-.172.653c-4.555 14.865-29.654 38.598-37.711 49.312-10.847 14.424-38.481-1.717-24.025-22.023 8.947-12.568 22.031-29.106 30.703-39.886a14.79 14.79 0 0 1 20.391-2.564z" class="B"/><path d="M1282.813 83.862c-5.053 0-9.884-1.793-13.493-4.715-7.652-6.197-11.315-18.151-2.247-30.889a5 5 0 1 1 8.146 5.799c-5.66 7.95-3.508 14.159.394 17.318 4.113 3.33 10.886 3.859 15.875-1.576l5.418-5.85c12.269-13.193 27.539-29.612 31.195-41.545.371-1.21.184-3.146-.211-4.318a5 5 0 0 1 9.476-3.193c.885 2.626 1.427 6.748.295 10.44-4.329 14.13-19.791 30.756-33.433 45.425l-5.375 5.803c-4.733 5.156-10.52 7.3-16.042 7.3z" class="C"/><g class="B"><path d="M179.546 808.021a43.49 43.49 0 0 1-14.599 14.257c-16.685 9.907-36.899 18.825-49.133 23.202-16.082 5.754 7.669 120.818 64.589 80.984 21.51-15.053 64.243-20.871 78.875-45.373 13.035-21.826-78.423-75.151-78.423-75.151z"/><path d="M259.277 881.091c-4.373 18.895-16.507 53.202-28.183 70.027-7.47 10.765-33.945 37.634-41.324 46.619-11.885 14.471-36.283-3.295-23.08-19.512 13.421-16.485 20.157-22.436 28.338-33.263 3.682-4.873 5.751-31.41-10.077-21.381-7.072 4.481-8.267-29.954 9.446-42.402 21.317-14.981 67.322-10.639 64.88-.087zm-131.333-40.262a95.45 95.45 0 0 1-24.781 7.612l-88.079 14.731c-13.764 2.89-11.229 27.287 5.468 25.441 14.91-1.649 92.206-13.707 92.206-13.707l22.162-37.312z"/><path d="M120.084 865.266L7.62 909.515c-14.918 7.435-6.396 31.147 12.261 24.361l111.43-40.529-11.227-28.08z"/><path d="M129.723 881.43S13.395 939.416 7.285 944.99c-11.152 10.174.99 29.115 15.105 22.66s116.583-56.105 116.583-56.105l-9.25-30.114z"/><path d="M147.082 900.699l-94.769 78.626c-15.572 14.202 1.371 34.95 18.516 23.462s109.573-76.323 109.573-76.323z"/></g><path d="M113.917 926.766a5 5 0 0 1-2.591-9.28l29.102-17.594a5.001 5.001 0 0 1 5.174 8.558L116.5 926.044a4.977 4.977 0 0 1-2.582.722zm-91.262 11.062a5.002 5.002 0 0 1-2.125-9.528l106.448-49.888a5 5 0 1 1 4.243 9.055L24.773 937.355a4.974 4.974 0 0 1-2.118.474zm55.176-56.148a5.002 5.002 0 0 1-1.213-9.851l34.999-8.784a5 5 0 1 1 2.434 9.699l-34.999 8.784a4.986 4.986 0 0 1-1.221.152z" class="C"/><g class="B"><path d="M174.325 816.323c-28.398 44.403 67.12 90.434 84.952 64.768 49.536-71.301 63.049-90.405 103.548-154.601 35.148-55.713-62.08-112.703-94.202-60.46l-94.299 150.293zm570.309-486.958l92.571 10.564 71.902 14.152c54.437 10.714 90.961 62.176 83.092 117.096l-16.206 110.441c-4.038 27.05-12.428 94.764-123.963 113.283-191.844 31.854-240.762-69.581-240.762-69.581l-24.904-183.154c-8.226-60.495 39.201-114.177 100.248-113.471l58.021.671z"/><rect height="206.593" rx="54.759" transform="matrix(.997965 .063766 -.063766 .997965 21.775 -49.844)" width="109.518" x="737.068" y="212.949"/></g><path d="M654.565 505.334c26.551-27.888 82.347-42.533 182.147 27.521 0 0 38.614-64.336 95.846-60.788 83.031 5.147 36.417 136.68 30.355 193.112-3.008 28.006 14.578 78.394 14.578 78.394-42.709 46.147-149.458 55.32-230.546 49.066-38.474-2.968-135.096-23.151-135.667-50.873-.483-23.437-.079-100.494-.079-100.494s-4.399-85.767 43.367-135.938z" fill="#ffd215"/><g fill="#ce9800"><path d="M743.502 661.996c-12.857 0-24.982-2.004-36.35-6.02-44.669-15.782-60.398-56.725-61.046-58.461a5 5 0 0 1 9.366-3.504c.162.428 14.919 38.444 55.149 52.584 35.617 12.518 80.062 3.253 132.1-27.538a5 5 0 0 1 4.53-.286c.772.333 77.974 32.932 123.171-6.295a5 5 0 1 1 6.554 7.552c-20.808 18.059-50.619 25.118-86.212 20.412-21.556-2.85-38.929-9.098-45.095-11.518-37.777 22.019-71.981 33.073-102.168 33.073z"/><path d="M939.397 774.605a5.003 5.003 0 0 1-4.893-3.996c-.891-4.344-21.694-106.724-9.794-136.799 6.134-15.501 10.103-43.753 10.111-71.975.01-34.712-5.872-65.743-16.564-87.376a5 5 0 0 1 8.965-4.431c26.25 53.111 18.252 138.484 6.787 167.461-8.972 22.676 4.387 102.331 10.291 131.11a5 5 0 0 1-4.903 6.006zm-163.072 24.561h-.001a5 5 0 0 1-4.999-5.002c0-1.057-.125-106.128-13.791-138.975-40.065-96.302-32.824-169.073-32.496-172.124a5 5 0 0 1 9.943 1.065c-.077.724-7.23 73.438 31.785 167.217 14.43 34.683 14.56 138.421 14.558 142.82a4.999 4.999 0 0 1-5 4.998zm84.703-4.038a5.001 5.001 0 0 1-4.972-4.53l-24.322-257.272a5 5 0 0 1 4.507-5.448 4.995 4.995 0 0 1 5.449 4.507l24.322 257.272a5 5 0 0 1-4.984 5.471z"/></g><path d="M854.56 389.871s1.948 7.515 11.889 8.882c11.903 1.637 12.711-10.887 10.003-12.26s-8.407-3.667-14.071-2.033-7.821 5.412-7.821 5.412z" class="D"/><path d="M828.141 404.734c-12.616 0-26.634-2.221-40.509-6.803-16.742-5.53-31.095-13.99-41.507-24.466-12.395-12.471-18.952-27.244-19.489-43.91a5 5 0 0 1 4.836-5.159 4.99 4.99 0 0 1 5.159 4.836c1.215 37.697 38.264 53.96 54.137 59.202 29.264 9.665 62.001 7.719 71.487-4.25 6.872-8.67 3.473-13.115-4.869-22.342-4.893-5.412-10.439-11.546-12.484-19.648a5 5 0 1 1 9.696-2.446c1.436 5.689 5.894 10.62 10.205 15.389 7.891 8.727 17.71 19.588 5.289 35.26-7.452 9.402-23.144 14.337-41.951 14.337z" fill="#8f969e"/><path d="M867.208 387.744c-3.336 3.336-3.271 5.053-.76 11.009 11.949 11.925 21.869 11.776 26.37 5.076 3.477-5.176 1.248-11.624-3.649-13.958-6.602-3.147-12.718-3.378-12.718-3.378s-5.907-2.085-9.243 1.251z" class="E"/><path d="M866.449 398.753c-1.085-2.898-5.812-8.572-11.889-8.882-1.598-3.378 5.49-8.882 8.97-8.882 4.211 0 8.327 1.908 12.921 5.503-3.309-.441-12.371 6.255-10.003 12.26z" class="D"/><g fill="#007a63"><path d="M962.024 535.079c8.617 89.66 15.29 144.556 66.162 197.931 45.035 47.25 124.819 108.973 165.85 169.86-20.46-50.602-59.649-106.49-129.711-190.432-57.948-69.429-64.429-211.82-70.702-287.193-3.055-36.708-29.876-67.037-65.925-74.606l-46.893-8.602c-4.963-.91-10.072.461-13.911 3.735s0 0 5.747 1.104c39.71 7.628 79.897 89.499 89.384 188.204z"/><path d="M923.327 349.838c64.55 10.663 143.819 30.963 209.966 44.72s174.764 48.302 169.089 79.204c-16.752 91.212-106.646 121.053-179.588 106.929-60.508 3.89-134.448-5.008-134.448-5.008-1.668-57.544-11.866-168.758-65.019-225.845z"/><path d="M1353.672 255.975s-24.809 68.719-51.289 217.787c-8.621 48.53-70.066 74.678-103.318 68.006-60.89-12.217-85.207-62.843-68.803-135.229l50.833-213.39c-2.529 10.436 27.924 28.077 50.076 38.073 49.502 22.337 121.187 32.591 122.502 24.753z"/></g><path d="M1010.881 583.046a5.002 5.002 0 0 1-4.93-4.203c-.252-1.56-6.128-38.517-1.594-64.635a5 5 0 0 1 9.853 1.71c-4.25 24.483 1.555 60.962 1.614 61.328a5 5 0 0 1-4.943 5.799zm117.8-160.029a5 5 0 0 1-4.911-5.967l4.618-23.459a5 5 0 0 1 9.812 1.932l-4.618 23.459a5.002 5.002 0 0 1-4.9 4.035zm-5.892 162.675a4.976 4.976 0 0 1-2.529-.691l-42.56-25.019a5 5 0 1 1 5.068-8.62l42.56 25.019a5 5 0 0 1-2.539 9.311zm185.789-141.919h-.085a5.001 5.001 0 0 1-4.916-5.083l1.329-79.2a5.001 5.001 0 0 1 9.999.168l-1.329 79.2a5 5 0 0 1-4.998 4.916z" fill="#005141"/><path d="M701.049 330.469c1.905-3.436-.42-7.678-4.341-7.931l-38.436-2.481c-45.7-3.032-95.26 4.861-143.704 41.813L342.655 492.44c-37.724 29.675-60.77 66.859-78.386 108.263l-27.101 64.573c-30.442 44.276-51.747 92.554-61.392 120.909-5.16 15.172 81.527 108.859 145.848 101.802l120.903-220.199c15.506-4.17 18.113-25.408 19.324-33.915 0 0 39.436-19.094 46.231-28.643-4.448 33.448-15.445 73.479-24.065 167.15-9.943 25.171-29.557 64.876-70.283 121.819-.764 1.068-1.992 3.197-1.534 6.375 13.301 106.303 147.615 242.556 203.446 174.922-2.036 2.466 85.532-214.785 86.176-253.668 2.049-123.669-13.863-226.068-17.651-284.307-6.672-102.579 8.267-191.518 16.879-207.052z" fill="#007a63"/><path d="M508.087 610.231a5 5 0 0 1-2.726-9.196l84.262-54.658a5 5 0 1 1 5.442 8.39l-84.262 54.658a4.98 4.98 0 0 1-2.716.806zm-46.236 28.642a5 5 0 0 1-5-5c0-26.759-7.353-51.695-7.427-51.944a5 5 0 0 1 9.582-2.862c.32 1.073 7.845 26.6 7.845 54.805a5 5 0 0 1-5 5zm-224.687 31.396a4.968 4.968 0 0 1-2.906-.935 4.995 4.995 0 0 1-1.161-6.962c.825-1.157 20.722-28.472 65.689-41.034a5.001 5.001 0 0 1 2.691 9.631c-41.373 11.558-60.062 36.964-60.246 37.219a5.004 5.004 0 0 1-4.067 2.081zm205.358 2.519a5.001 5.001 0 0 1-4.974-4.547c-1.625-17.828-7.567-22.333-7.627-22.376.115.083.18.115.18.115l5.136-8.581c1.685 1.009 10.197 7.192 12.27 29.934a5 5 0 0 1-4.985 5.454zm46.91 158.952a5.002 5.002 0 0 1-4.889-3.977c-4.893-23.395-5.502-54-5.526-55.291a4.999 4.999 0 0 1 4.908-5.09c2.714-.047 5.04 2.146 5.09 4.907.006.307.619 30.967 5.316 53.427a5 5 0 0 1-4.899 6.025z" fill="#005141"/><path d="M919.38 127.16c10.843 29.88 6.289 51.647 6.071 78.931s4.262 38.076.912 55.486c-5.233 27.195-46.759 53.668-67.74 52.018s-85.422-29.966-103.597-73.719-5.843-102.459 38.51-136.015c38.248-28.936 111.468-16.319 125.844 23.298z" class="B"/><ellipse cx="834.293" cy="201.959" fill="#fff" rx="22.666" ry="20.441" transform="matrix(.095081 -.99547 .99547 .095081 553.92 1013.268)"/><ellipse cx="832.609" cy="205.535" fill="#111" rx="18.065" ry="12.077" transform="matrix(.095081 -.99547 .99547 .095081 548.835 1014.828)"/><ellipse cx="903.291" cy="209.298" fill="#fff" rx="21.197" ry="19.117" transform="matrix(.095081 -.99547 .99547 .095081 609.05 1088.595)"/><ellipse cx="900.706" cy="213.196" fill="#111" rx="16.895" ry="11.295" transform="matrix(.095081 -.99547 .99547 .095081 602.831 1089.549)"/><path d="M880.266 251.244a4.999 4.999 0 0 1-4.958-5.695c.605-4.316-1.385-6.371-3.449-6.855-1.967-.461-4.754.445-6.112 4.524a5 5 0 0 1-9.488-3.158c3.244-9.748 11.543-12.588 17.883-11.102s12.504 7.746 11.069 17.98a5.001 5.001 0 0 1-4.945 4.306zm-31.369 65.506a4.99 4.99 0 0 1-1.233-.155c-22.156-5.623-45.953-18.921-53.932-25.963a5 5 0 1 1 6.618-7.497c7.395 6.526 29.908 18.725 49.775 23.768a5.001 5.001 0 0 1-1.227 9.847z" class="C"/><path d="M824.946 255.358c-4.139.264-4.848 17.336 11.569 25.843 16.002 8.292 32.936-2.554 32.025-6.784-.901-4.185-12.898-1.606-23.429-7.159s-15.938-12.169-20.165-11.9z" fill="#fff"/><path d="M748.518 217.089c-24.641-6.842-37.77-44.357-19.16-90.087 17.94-44.086 64.271-73.018 106.413-57.294 47.365-9.542 93.264 46.9 89.079 78.054-8.046-14.845-34.919-11.138-55.05-34.182 0 0-3.793 15.581-15.014 32.589-19.251 29.179-51.773 40.587-72.901 39.753-11.547 22.867-19.23 27.319-33.367 31.168z" class="F"/><path d="M869.794 118.58a5.001 5.001 0 0 1-4.938-4.255c-3.276-21.714-18.126-34.885-30.931-39.97a5 5 0 1 1 3.692-9.293c15.386 6.11 33.219 21.869 37.127 47.772a5 5 0 0 1-4.95 5.747z" fill="#b7006d"/><path d="M647.392 321.256c-34.366 28.17-159.643 91.6-79.582 217.531-4.157-67.552 41.924-69.762 92.377-103.506 108.482-72.556 69.192-160.958 106.609-216.246 18.665-27.581.002-117.192-18.636-100.926-12.117 10.575-16.988 28.832-18.454 47.022-4.708 58.44-31.431 113.044-76.138 150.975a474.074 474.074 0 0 1-6.177 5.151z" class="F"/><path d="M649.107 324.847a5 5 0 0 1-3.009-8.996c.331-.249 33.295-25.344 53.241-64.323a5 5 0 0 1 8.902 4.556c-21.033 41.104-54.712 66.692-56.135 67.761a4.979 4.979 0 0 1-2.999 1.003zm253.943-143.78c-10.481 3.204-10.997-10.022-2.204-13.381 10.566-4.037 22.426 3.354 25.761 10.904s.42 11.89-4.464 8.696-11.284-8.605-19.092-6.218zm-49.136-6.083c9.474 4.894 15.354-9.336 6.275-14.969-5.881-3.649-24.93-7.077-36.633-1.695-8.357 3.843-9.918 12.465-2.048 10.963 10.416-1.988 23.758 1.234 32.406 5.701z" fill="#b7006d"/><path d="M784.773 190.755c.78-15.111-21.314-31.654-34.104-12.445-11.448 17.193-2.705 40.642 16.127 40.724 10.238.045 17.423-17.55 17.976-28.279z" class="B"/><g class="C"><path d="M767.404 210.582a5 5 0 0 1-4.833-6.293c1.775-6.637 1.72-15.81-2.406-21.345a5 5 0 0 1 8.018-5.977c6.538 8.77 6.378 21.199 4.048 29.906a5.002 5.002 0 0 1-4.827 3.709z"/><path d="M768.67 199.599h-.021l-8.278-.035a5 5 0 0 1 .021-10h.021l8.278.035a5 5 0 0 1-.021 10z"/></g></svg></g><g transform="matrix(1.333292 0 0 1.330532 1609.333333 84)"><svg width="291.009" height="312.657"><path d="m291.009 282.831-8.922-8.242c8.282-21.047 3.142-40.395-6.415-48.404-2.899-2.429-7.167-5.113-13.073-8.827-18.875-11.87-54.008-33.963-93.36-80.938-17.366-20.729-38.552-49.682-57.245-75.226-20.718-28.312-32.693-44.542-37.905-48.909-9.266-7.765-20.837-10.33-32.583-7.222C25.185 9.381 10.955 24.028 3.441 44.242c-8.288 22.295-.438 42.928 11.155 51.022 2.334 1.629 7.418 3.985 17.781 8.735 28.051 12.857 80.266 36.791 105.121 63.877 25.013 27.258 42.776 69.611 55.747 100.536 9.211 21.963 14.26 33.626 19.45 37.976 4.86 4.073 12.838 6.269 22.209 6.269 2.766 0 5.652-.191 8.616-.582 20.473-2.697 38.666-13.783 47.489-29.244z" fill="#f7db9c"/><path d="M284.59 275.289a4.98 4.98 0 0 1-3.091-1.072c-.805-.634-81.031-63.971-124.241-110.23-36.145-38.696-66.973-81.247-77.784-96.61-10.575 14.156-39.234 46.73-69.197 30.916a5 5 0 0 1 4.668-8.844c28.846 15.224 60.018-33.005 60.33-33.494a5.003 5.003 0 0 1 8.359-.119c.361.533 36.616 53.882 80.932 101.325 42.687 45.699 122.323 108.571 123.122 109.201a5.001 5.001 0 0 1-3.097 8.928zM33.116 76.826c-4.007 0-7.522-1.6-10.037-4.611-3.777-4.52-4.782-11.68-2.622-18.686 6.279-20.373 27.084-28.341 27.967-28.67a5.001 5.001 0 0 1 5.755 1.695l8.681 11.634c1.439-3.504 2.479-7.086 2.994-10.591.929-6.331.395-14.596-7.428-18.013A5 5 0 1 1 62.428.42c10.465 4.571 15.32 15.006 13.32 28.63-3.015 20.539-21.074 45.285-40.731 47.662a15.8 15.8 0 0 1-1.9.116zM48.601 35.8c-5.216 2.777-15.099 9.352-18.588 20.674-1.306 4.238-.532 7.807.74 9.329.477.57 1.255 1.197 3.063.979 8.127-.983 17.351-8.799 23.873-18.803L48.602 35.8z" fill="#d8b571"/></svg></g><g transform="matrix(1.332987 0 0 1.336288 750.666667 210.666667)"><svg width="462.12" height="203.549"><g fill="#ffd215"><path d="M75.987 137.172a4.986 4.986 0 0 1-3.795-1.741 4.993 4.993 0 0 1 .521-7.036c.569-.491 14.184-12.063 36.079-14.889 14.46-1.866 23.489-.164 30.743 1.204 9.628 1.816 15.988 3.015 31.1-4.639 86.58-43.849 146.681-36.092 149.198-35.74a5 5 0 0 1-1.383 9.904c-.887-.118-59.965-7.446-143.297 34.757-18.144 9.189-27.101 7.5-37.471 5.544-6.902-1.302-14.724-2.777-27.61-1.114-18.785 2.425-30.717 12.448-30.835 12.549a4.996 4.996 0 0 1-3.25 1.199z"/><circle cx="75.98" cy="132.365" r="11.49"/><path d="M75.98 148.855c-9.093 0-16.49-7.398-16.49-16.49s7.398-16.49 16.49-16.49 16.49 7.398 16.49 16.49-7.397 16.49-16.49 16.49zm0-22.981c-3.579 0-6.49 2.911-6.49 6.49s2.912 6.49 6.49 6.49 6.49-2.911 6.49-6.49-2.912-6.49-6.49-6.49z"/><path d="M9.551 189.158a4.997 4.997 0 0 1-4.278-7.577 45.1 45.1 0 0 1 .438-.705 4.97 4.97 0 0 1-3.259-.647 4.996 4.996 0 0 1-1.759-6.839c1-1.694 25.061-41.54 74.84-46.005a5.001 5.001 0 0 1 2.047 9.717c-41.856 14.149-63.531 49.292-63.746 49.645a5.002 5.002 0 0 1-4.284 2.412z"/><path d="M28.355 199.208a5.003 5.003 0 0 1-4.99-5.28 5 5 0 0 1-5.924-6.856c.907-2.023 22.607-49.652 57.167-59.515a5 5 0 0 1 3.455 9.354c-17.146 7.855-38.448 45.603-45.209 59.485a5 5 0 0 1-4.499 2.812z"/><path d="M42.162 203.549a5 5 0 0 1-4.984-5.473c.189-1.99 4.984-48.973 36.01-69.859a5 5 0 0 1 5.585 8.295c-27.145 18.273-31.597 62.069-31.639 62.509a5.001 5.001 0 0 1-4.972 4.528z"/></g><path d="M95.645 131.724a5 5 0 0 1-4.668-3.207c-1.373-3.569-4.319-6.914-4.348-6.948-1.83-2.063-1.648-5.221.411-7.055s5.21-1.66 7.048.395c.426.475 4.214 4.795 6.222 10.018a5.001 5.001 0 0 1-4.666 6.797zm-31.154 22.724a4.99 4.99 0 0 1-3.666-1.598c-8.814-9.494-10.615-18.927-10.687-19.324a5 5 0 0 1 9.832-1.824c.039.19 1.523 7.17 8.184 14.345a5 5 0 0 1-3.663 8.402z" fill="#ce9800"/><g fill="#0a3ea5"><path d="M408.625 135.614c-27.707.324-34.986 8.605-34.986 8.605s-24.85-23.292-69.559-22.28c-57.665 1.306-101.587 36.873-101.587 36.873l-2.794-27.047s62.165-64.583 160.732-51.2c35.261 4.788 48.766 33.744 48.766 33.744l-.571 21.305z"/><path d="m139.851 92.646 63.401 51.545s61.815-55.748 133.052-51.064c49.766 3.272 68.552 35.032 68.552 35.032l57.264-21.357L371.003 0z"/></g><path d="M201.072 149.99a5 5 0 0 1-4.967-4.482l-1.38-13.225a5 5 0 0 1 1.371-3.986c.658-.683 16.436-16.906 44.701-31.588 26.063-13.538 68.091-28.188 120.306-21.099 37.534 5.096 52.026 35.302 52.625 36.585.328.703.488 1.472.467 2.247l-.448 16.727a5 5 0 0 1-9.996-.268l.415-15.458c-2.632-4.892-15.562-26.009-44.406-29.925-49.454-6.714-89.293 7.108-114.008 19.886-21.942 11.344-36.214 23.905-40.827 28.251l1.128 10.815a5 5 0 0 1-4.979 5.519z" fill="#002e77"/></svg></g><g transform="matrix(1.335488 0 0 1.338527 1669.333333 194.666667)"><svg width="180.708" height="182.29"><path d="M7.324 177.564c-3.419-20.637-11.23-66.89-4.963-79.661s23.012-38.294 26.351-53.386c5.585-25.24 34.021-21.889 31.72 6.026C59.235 65.07 43.43 94.917 43.43 94.917c13.506 8.24 22.617 39.1 17.18 60.805-10.445 41.699-53.287 21.841-53.287 21.841Z" class="B"/><path d="M60.614 160.725a5 5 0 0 1-4.854-6.216c5.172-20.646-4.029-48.669-14.934-55.322a5 5 0 0 1-1.744-6.737c.136-.24 13.628-24.109 16.633-38.54a5.001 5.001 0 0 1 9.79 2.038c-2.586 12.417-11.514 29.955-15.633 37.628 13.204 12.163 20.947 41.972 15.588 63.363a5.002 5.002 0 0 1-4.846 3.786Z" class="C"/><path d="M165.308 78.914c-8.44 8.45-15.13 15.453-31.939 33.041-10.615 11.107 8.733 30.148 21.022 17.222 6.277-6.603 19.358-21.096 24.144-28.077 7.847-11.446-7.661-27.758-13.227-22.186Z" class="B"/><path d="M144.968 138.515c-6.797 0-13.051-4.081-16.484-9.204-4.662-6.956-4.163-15.125 1.271-20.811a5 5 0 0 1 7.229 6.909c-2.956 3.093-1.39 6.549-.193 8.334 2.181 3.255 6.674 5.863 10.703 4.287a5 5 0 1 1 3.643 9.313 16.856 16.856 0 0 1-6.168 1.171Z" class="C"/><use href="#B" x="-1206.443" y="-5.751" class="B"/><path d="M121.523 122.17c-5.501 0-10.512-2.348-14.044-5.809-7.179-7.034-9.812-20.083-.551-30.413l20.34-22.654a45025.16 45025.16 0 0 0 16.416-18.276 5 5 0 0 1 7.442 6.68l-16.42 18.28a28107.56 28107.56 0 0 0-20.333 22.645c-5.408 6.033-3.738 12.831.104 16.595 3.421 3.352 9.284 4.87 15.479-.917 5.765-5.385 23.08-23.843 30.474-31.724a525.71 525.71 0 0 1 3.529-3.746 5.001 5.001 0 0 1 7.114 7.028c-.258.262-1.49 1.577-3.35 3.56l-30.941 32.19c-5 4.671-10.327 6.561-15.26 6.561z" class="C"/><path d="M127.272 20.723c-3.821 3.699-17.157 20.486-39.212 46.856-11.257 13.459 10.181 33.988 24.847 18.994 5.923-6.055 27.893-30.53 38.859-42.783 9.143-10.215-13.547-33.665-24.495-23.068Z" class="B"/><path d="M101.595 96.807c-5.322 0-10.322-2.232-13.988-5.55-7.164-6.481-10.396-17.849-2.713-27.036a5 5 0 0 1 7.671 6.415c-3.801 4.545-1.757 10.031 1.751 13.205 3.659 3.311 9.527 4.849 15.017-.765 5.96-6.093 29.055-31.836 38.708-42.621a5 5 0 0 1 7.06-.391 4.999 4.999 0 0 1 .391 7.06l-39.011 42.945c-4.695 4.8-9.931 6.737-14.887 6.737z" class="C"/><path d="M123.071 8.404c2.806 2.102 4.301 5.638 3.541 9.06a8.345 8.345 0 0 1-.172.653c-4.555 14.865-29.654 38.598-37.711 49.312-10.847 14.424-38.481-1.717-24.025-22.023C73.651 32.838 86.735 16.3 95.407 5.52a14.79 14.79 0 0 1 20.391-2.564l7.273 5.448z" class="B"/><path d="M76.37 78.11c-5.052 0-9.884-1.793-13.493-4.715-7.653-6.197-11.315-18.151-2.247-30.889a5 5 0 0 1 8.147 5.799c-5.66 7.95-3.508 14.159.394 17.318 4.112 3.33 10.886 3.858 15.875-1.576l5.417-5.849c12.27-13.193 27.541-29.613 31.197-41.547.371-1.21.184-3.145-.211-4.317a5 5 0 0 1 9.476-3.193c.885 2.626 1.427 6.747.296 10.44-4.33 14.131-19.793 30.758-33.435 45.427l-5.373 5.801c-4.734 5.156-10.52 7.3-16.042 7.3z" class="C"/></svg></g><defs ><path id="B" d="M1353.849 54.11l-36.755 40.927c-13.968 15.58 6.02 38.267 22.719 22.669 7.402-6.915 32.943-34.391 34.147-35.61 16.262-16.463-12.013-37.008-20.111-27.987z"/></defs></svg>