<svg xmlns="http://www.w3.org/2000/svg" width="3000" height="3000" xmlns:v="https://vecta.io/nano"><g transform="matrix(1.874154 0 0 1.874414 127.5 881.25)"><svg width="1311.592" height="1023.32"><path d="M1256.329 834.976c-67.75 107.16-180.92 145.71-320.55 140.34-108.99-4.18-234.09-35.13-366.28-81.08-.01 0-.02-.01-.04-.01-43.04-14.96-83.61-33.38-121.3-54.68-27.21-15.37-52.92-32.25-76.97-50.41-173.06-130.68-260.14-327.76-202.79-509.96 86.87-276.01 381.3-292.4 696.519-184.69 374.09 127.83 542.66 501.229 391.41 740.49zM108.201 255.1c-40.44 128.51-15.99 263.7 56.64 382.32-2.14-1.42-261.19-173.71-125.58-450.52C123.921 14.1 367.831.2 371.441 0c-123.7 32.73-218.42 112.7-263.24 255.1zm1195.681 601.163s-10.1 83.93-78.18 138.47c-67.67 54.21-185.02 14.76-186.45 14.27 113.08-11.86 204.84-58.16 264.63-152.74z" fill="#ffd215"/></svg></g><g transform="matrix(1.872325 0 0 1.87277 489.375 515.625)"><svg width="1226.75" height="1203.431"><path d="M993.981 567.776c1.148-5.248 54.783 6.522 92.087 17.217s71.068 23.748 69.447 30.886-76.229 25.983-95.273 13.461-68.087-53.217-66.261-61.565zm-279.81-109.224c41.756 15.663 82.23 26.28 127.23 97.837 47.739 75.913 99.36 135.504 139.304 179.217 41.478 45.391 129.542 154.57 99.716 198.546-43.525 64.174-134.88 51.83-197.237 22.932-64.174-29.739-171.718-102.517-204.588-172.951-18.382-39.39 35.574-325.581 35.574-325.581z" fill="#007a63"/><g fill="#ea2688"><path d="M468.879 78.215c-24.261-16.435-92.781-22.931-130.696 22.696-53.327 64.174-25.342 197.746-108.364 226.838-90.418 31.683-204.7 149.575-73.984 280.292 61.826 61.826 175.273-80.914 201.913-102.522 70.435-57.13 129.769-162 111.13-274.696-13.048-78.892 0-152.609 0-152.609z"/><path d="M586.531 14.563c-8.244.294-24.945-7.565-50.394.261-30.19 9.284-46.649 31.798-46.649 31.798s-66.186 12.712-83.925 93.581 3.055 153.394 24.447 183.703 69.428 33.439 80.105 29.265S731.458 63.472 731.458 63.472s-4.376-50.178-62.172-60.748c-55.558-10.16-68.145 11.316-82.754 11.837z"/><path d="M639.227 36.998c28.696-6.261 98.609 9.624 99.652 44.348 1.302 43.335 8.611 80.073 21.133 93.117s35.215 43.057 25.302 85.315c-8.464 36.078-2.087 58.438 16.696 63.134-45.913 7.304-74.087-27.652-83.478-37.565s-54.261-123.652-56.87-133.565-22.435-114.783-22.435-114.783z"/></g><g fill="#e09273"><path d="M502.538 312.257 464.19 451.561l163.558 22.654s19.565-94.696 21.913-118.174-147.123-43.784-147.123-43.784z"/><path d="M756.883 278.561c.31 50.87-26.54 101.82-104.12 103.32-85.3 1.65-123.62-42.27-151.8-64.97-28.17-22.7-64.95-92.35-47.74-163.57 17.22-71.21 208.49-168.71 244.57-55.95 10.85 33.9 20.72 57.4 29.16 75.95l11.67 25.12c11.27 24.51 18.03 43.16 18.26 80.1zM501.488 417.346l-106.209 11.012s3.515 133.377 140.858 141.336c162.046 9.391 186.307-108.783 186.307-108.783l-117.017-36.783-103.939-6.783z"/></g><path d="M582.357 85.259c7.043 48.522-23.073 166.696-94.84 176.769-69.508 21.231-48.9-139.204-43.943-143.117s75.391-60.261 98.87-64.957 39.913 31.304 39.913 31.304z" fill="#ea2688"/><path d="M491.536 263.46s-35.854-15.763-46.747 17.938c-9.232 28.565 35.875 70.664 76.643 28.537 34.155-35.294-29.896-46.475-29.896-46.475z" fill="#e09273"/><path d="M583.309 97.179c-.055-.536 2.626-8.542 11.179-.572 17.217 16.043 80.217 35.609 114.652 5.87s-55.509-75.913-59.45-75.913-85.333 7.826-85.333 7.826l-28.22 12.233 47.172 50.557z" fill="#ea2688"/><ellipse cx="611.191" cy="231.299" fill="#fff" rx="29.31" ry="33.925" transform="matrix(.951406 -.307938 .307938 .951406 -41.526 199.448)"/><ellipse cx="617.429" cy="225.133" fill="#111" rx="16.981" ry="25.432" transform="matrix(.951406 -.307938 .307938 .951406 -39.324 201.07)"/><path d="M719.383 230.471c-15.4 4.98-32.57-5.43-38.34-23.25-5.76-17.83 2.04-36.32 17.44-41.3 9.93-3.22 20.6-.03 28.47 7.42l11.67 25.12c1.02 14.56-6.52 27.89-19.24 32.01z" fill="#fff"/><ellipse cx="715.171" cy="192.027" fill="#111" rx="16.981" ry="25.432" transform="matrix(.951406 -.307938 .307938 .951406 -24.38 229.559)"/><g fill="#a85f36"><path d="M495.555 310.774a7.5 7.5 0 0 1-7.493-7.299c-.111-4.122-2.889-10.903-7.82-15.351-3.751-3.384-8.079-4.916-12.881-4.549a7.5 7.5 0 0 1-1.139-14.957c8.919-.682 17.245 2.213 24.068 8.368 7.397 6.673 12.528 17.157 12.768 26.088a7.5 7.5 0 0 1-7.502 7.7z"/><path d="M469.921 303.49a7.5 7.5 0 0 1-6.791-10.675c4.842-10.37 16.963-18.785 26.608-14.281a7.5 7.5 0 0 1-5.844 13.805c-1.427.258-5.234 2.671-7.172 6.822a7.502 7.502 0 0 1-6.801 4.329zm198.003-36.211a7.5 7.5 0 0 1-7.135-9.816c4.852-14.956 19.455-21.135 30.723-19.349 11.145 1.762 18.346 10.265 18.346 21.663a7.5 7.5 0 0 1-15 0c0-3.946-1.914-6.25-5.689-6.847-5.14-.813-11.828 2.123-14.111 9.161a7.504 7.504 0 0 1-7.133 5.188zm-20.578 70.479c-14.009 0-28.383-4.591-36.125-12.058a7.501 7.501 0 0 1 10.414-10.796c7.622 7.352 32.613 11.72 43.782 3.073a7.497 7.497 0 0 1 10.521 1.338 7.498 7.498 0 0 1-1.338 10.521c-7.102 5.5-17.083 7.922-27.255 7.922zm-1.65 51.652c-.162 0-.325-.005-.489-.016-26.728-1.72-55.24-4.964-84.119-23.666a7.5 7.5 0 0 1 8.153-12.591c25.849 16.739 52.177 19.694 76.93 21.288a7.5 7.5 0 0 1-.475 14.985z"/></g><g fill="#b7006d"><path d="M460.264 354.411a7.462 7.462 0 0 1-3.416-.828c-29.302-15.027-50.082-45.729-60.091-88.785-7.776-33.451-8.521-73.627-1.992-107.472 10.687-55.401 41.314-88.802 42.613-90.197a7.501 7.501 0 0 1 10.6-.378 7.499 7.499 0 0 1 .386 10.591c-.29.313-29.037 31.847-38.871 82.825-6.15 31.884-5.45 69.729 1.874 101.234 6.261 26.933 20.422 62.473 52.325 78.834a7.499 7.499 0 0 1 3.251 10.096 7.501 7.501 0 0 1-6.68 4.079zM586.369 97.456a7.503 7.503 0 0 1-7.153-5.256c-.676-2.11-16.797-49.815-83.925-38.85a7.5 7.5 0 1 1-2.419-14.803c41.64-6.803 66.754 6.73 80.49 19.281 15.043 13.745 19.972 29.254 20.174 29.907a7.499 7.499 0 0 1-7.167 9.721z"/><path d="M579.723 79.741a7.5 7.5 0 0 1-5.676-12.399c24.564-28.474 51.862-43.299 81.135-44.064 46.415-1.21 80.273 33.528 81.69 35.007a7.5 7.5 0 0 1-10.823 10.386c-.352-.364-30.917-31.479-70.598-30.395-24.827.689-48.394 13.765-70.047 38.864a7.484 7.484 0 0 1-5.682 2.601zM443.569 247.717a7.5 7.5 0 0 1-1.853-14.768c24.654-6.305 49.155-22.114 43.945-91.564-3.175-42.321 16.887-65.056 34.276-76.677 18.518-12.375 37.649-14.787 38.454-14.883a7.5 7.5 0 0 1 1.801 14.891c-2.689.336-64.575 8.867-59.573 75.546 2.501 33.335-1.233 58.154-11.414 75.876-9.13 15.893-23.448 26.145-43.772 31.342a7.542 7.542 0 0 1-1.864.236z"/><path d="M576.997 74.91a7.502 7.502 0 0 1-7.006-4.821c-11.663-30.471 2.827-50.659 12.118-57.076a7.501 7.501 0 0 1 8.58 12.304c-.804.584-16.9 12.731-6.689 39.41a7.5 7.5 0 0 1-7.003 10.184zM230.712 542.238a7.492 7.492 0 0 1-6.183-3.246c-6.464-9.384-21.871-34.73-25.311-67.35-3.919-37.158 8.876-69.998 38.029-97.605 41.896-39.675 64.155-100.951 59.543-163.914a7.5 7.5 0 0 1 6.932-8.028 7.494 7.494 0 0 1 8.028 6.932c2.272 31.023-1.65 62.777-11.342 91.829-11.012 33.006-28.792 61.292-52.847 84.072-63.909 60.521-20.108 131.866-10.679 145.553a7.5 7.5 0 0 1-6.169 11.755zm383.482-384.979c-7.781 1.325-22.837 4.253-36.532 16.435s-19.096 21.947-21.913 26.348c-3.832 5.987 3.536 12 12.522 4.565 6.612-5.471 43.576-21.848 54-24.823 8.609-2.457-1.183-23.699-8.076-22.525zm49.576-16.957c8.436-4.953 20.284-7.83 36.5-7.924 16.708-.097 25.699 9.012 27.652 10.532 3.535 2.752 2.802 9.214-4.957 7.304-14.688-3.615-42.454 6.328-48.892 8.532-6.495 2.224-16.63-14.73-10.304-18.445z"/></g><g fill="#007a63"><path d="M789.751 762.217c6.13 68.04-36.78 106.43-36.78 106.43s-18.79 104.48-11.74 158.48c5.58 42.79 25.9 104.74-.36 143.22-108.99-4.18-234.09-35.13-366.28-81.08-.01 0-.02-.01-.04-.01l-121.3-54.68-80.2-37.97 3.23-12.44 138.82-534.6s41.34-13.7 82.74-21.53c0 0 36.61 112.14 157.13 117.62s143.39-91.61 143.39-91.61 50.3 11.04 84.74 36.09c34.43 25.04-26.22 180.51-26.22 180.51s27.58 32.92 32.87 91.57z"/><path d="M397.843 428.041c-26.399 3.13-92.921 14.87-147.703 57.913S78.856 677.025 45.488 725.693c-31.207 45.516-21.522 69-21.522 69s-38.217 52.696-18.13 132.913c10.914 43.586 57.913 76.435 82.957 92.87s26.483 50.655 49.043 64.957c29.217 18.522 66.522 1.565 82.174-6.261s75.913-192.522 75.913-192.522-18.783-45.391-25.826-48.522c30.522-35.217 115.043-145.565 115.043-145.565zm600.152 536.246c31.39-13.893 69-7.981 85.232-34.071 26.872-43.193 27.749-97.788 50.087-123.391 20.484-23.478 50.609-75.391 2.609-132.408-39.462-46.875-146.572-41.154-154.435-41.331-22.435-.504-82.957 39.913-81.391 65.739s19.565 37.565 5.478 58.696 7.189 244.491 92.42 206.767z"/></g><g fill="#005141"><path d="M564.973 594.628c-2.42 0-4.846-.04-7.285-.118-44.825-1.45-89.879-16.288-126.864-41.78-39.868-27.48-67.667-64.985-80.389-108.46a7.5 7.5 0 0 1 14.397-4.213c23.17 79.18 102.675 136.528 193.341 139.461 79.9 2.567 143.397-39.203 169.837-111.783a7.499 7.499 0 0 1 9.614-4.479 7.5 7.5 0 0 1 4.479 9.614c-15.103 41.458-40.475 73.262-75.409 94.526-29.365 17.874-64.401 27.232-101.722 27.232zm191.906 283.088a7.5 7.5 0 0 1-6.001-11.991c41.496-55.516 46.151-110.128 14.233-166.958a7.5 7.5 0 0 1 13.078-7.346c34.646 61.687 29.5 123.353-15.296 183.284a7.49 7.49 0 0 1-6.013 3.01zm-486.788-32.087a7.5 7.5 0 0 1-5.864-12.171l90.7-113.971a7.5 7.5 0 0 1 11.737 9.341l-90.7 113.971a7.49 7.49 0 0 1-5.874 2.83z"/><path d="M281.046 889.455a7.5 7.5 0 0 1-7.476-7.001c-1.194-17.919-8.009-32.407-20.254-43.063-17.293-15.049-43.857-20.424-62.505-19.084a7.5 7.5 0 0 1-1.079-14.961c20.154-1.454 51.48 3.627 73.432 22.73 15.367 13.373 23.904 31.333 25.374 53.381a7.5 7.5 0 0 1-7.49 7.999zm-235.03-11.738a7.497 7.497 0 0 1-6.526-3.794c-15.657-27.535-22.66-76.125-22.95-78.179a7.5 7.5 0 0 1 6.375-8.475 7.499 7.499 0 0 1 8.477 6.375c.067.476 6.899 47.826 21.137 72.865a7.499 7.499 0 0 1-2.812 10.227 7.46 7.46 0 0 1-3.701.982zm829.039-69.457a7.502 7.502 0 0 1-6.977-4.745c-9.237-23.365 4.559-36.841 16.732-48.731l7.078-7.107c5.686-6.027 4.449-15.464.844-38.128l-.066-.417c-4.929-30.984 24.407-47.195 25.658-47.87a7.5 7.5 0 0 1 7.142 13.191c-.94.518-21.225 11.967-17.987 32.323l.066.417c3.883 24.411 6.228 39.146-4.746 50.778-2.526 2.678-5.059 5.152-7.508 7.544-12.72 12.425-18.597 18.996-13.264 32.486a7.5 7.5 0 0 1-6.972 10.259z"/></g><g fill="#e09273"><path d="M1155.551 495.085s24.789-10.116 36.783-34.435c14.023-28.435 16.11-102.261 16.11-102.261l-87.327-75.13c-1.565-1.043-56.348 13.043-56.348 13.043l11.478 177.902z"/><path d="M987.03 620.302l65.217-192.521 121.565 25.565-37.043 207.13zm83.478-326.608l33.391-83.014c2.609-8.29 33.012-35.538 45.391-49.364 14.609-16.317 49.211 1.679 27.832 28.422-20.155 25.213-34.162 39.753-34.162 39.753l-26.114 96.688-46.339-32.485z"/><path d="M1043.899 474.204l-25.043-57.902c-3.652-10.435-2.412-35.362 6.458-61.449s19.244-54.356 23.092-73.64c3.964-19.869 33.451-20.332 36.059 7.32s-4.044 53.682-4.044 53.682 19.304 39.652 18.261 63.13-6.783 56.348-7.826 57.913-46.957 10.946-46.957 10.946zm147.653-155.801c9.313-15.338 32.635 1.308 34.488 18.465 2.085 19.31.305 56.695-15.247 69.261-16.685 13.481-36.458 9.652-34.893-11.217s15.652-76.508 15.652-76.508z"/><path d="M1166.158 286.287c4.064-18.286 36.972-6.626 36.92 22.406-.046 25.613-11.852 74.348-27.179 86.217-8.504 6.586-32.348-6.261-28.174-27.13s15.302-67.406 18.433-81.493z"/><path d="M1158.16 243.607c20.217 6 19.826 27.652 15.652 52.174s-15.13 63.189-18.261 67.073-36 6.327-33.391-24.373-4.696-71.677-4.696-71.677l8.042-26.589s22.13.269 32.654 3.393z"/></g><g fill="#a85f36"><path d="M1098.52 416.023a7.5 7.5 0 0 1-7.318-9.175c2.975-12.99-3.623-41.538-16.903-60.299a7.5 7.5 0 0 1-.805-7.209c12.088-29.109 1.862-56.739 1.758-57.015a7.5 7.5 0 0 1 4.349-9.674 7.499 7.499 0 0 1 9.674 4.349c.495 1.303 11.557 31.207-.444 64.279 13.512 21.051 21.068 51.119 16.994 68.917a7.504 7.504 0 0 1-7.304 5.828zm47.823-37.4c-3.947 0-7.81-.953-11.279-2.925-7.121-4.048-13.258-13.324-9.127-27.213 7.144-24.017-1.177-68.464-1.262-68.911a7.5 7.5 0 0 1 5.966-8.77 7.497 7.497 0 0 1 8.77 5.966c.375 1.968 9.077 48.516.904 75.991-.823 2.769-1.637 7.736 2.163 9.897 3.387 1.925 9.378 1.095 14.278-4.218 10.979-11.91 13.708-48.619 11.598-77.687a7.5 7.5 0 1 1 14.961-1.085c.81 11.16 3.87 67.896-15.53 88.939-6.012 6.521-13.882 10.017-21.441 10.017z"/><path d="M1119.966 327.036a7.5 7.5 0 0 1-7.281-9.325l18.113-72.276a7.5 7.5 0 0 1 14.55 3.646l-18.113 72.276a7.504 7.504 0 0 1-7.269 5.679zm46.089 73.999c-5.57 0-11.02-1.294-15.518-4.295-4.919-3.281-12.569-11.281-8.538-27.989a7.5 7.5 0 1 1 14.581 3.519c-1.444 5.985-.677 10.02 2.28 11.992 4.853 3.237 15.073 1.945 21.442-2.709 18.398-13.442 17.318-52.148 15.35-65.927a7.5 7.5 0 0 1 14.849-2.121c.341 2.387 8.013 58.706-21.35 80.16-6.089 4.449-14.729 7.372-23.098 7.372z"/><path d="M1195.546 419.768c-4.668 0-13.084-.901-19.21-6.658-3.317-3.117-7.158-8.868-6.62-18.56a7.503 7.503 0 0 1 7.904-7.073 7.5 7.5 0 0 1 7.073 7.904c-.264 4.75 1.376 6.292 1.916 6.798 2.925 2.749 9.141 2.685 10.524 2.521a7.5 7.5 0 0 1 1.76 14.896 29.83 29.83 0 0 1-3.345.171z"/></g><path d="M993.981 567.776s22.106 27.921 80.87 40.696c60 13.043 80.664 7.408 80.664 7.408l-15.969 70.331s-18.261 24.522-89.217 0-83.006-45.489-83.006-45.489l26.658-72.945z" fill="#007a63"/><path d="M1097.145 696.591c-22.666 0-43.907-5.114-57.69-9.384-34.316-10.632-64.485-28.62-76.86-45.828a7.5 7.5 0 0 1 12.178-8.758c10.266 14.274 38.689 30.829 69.122 40.257 36.113 11.189 70.317 11.506 93.841.868a7.5 7.5 0 0 1 6.18 13.668c-14.953 6.761-31.199 9.176-46.771 9.176z" fill="#005141"/><path d="M282.879 1102.911c10.522 2.562 25.565-12.783 29.87-27.261s-45.783-38.739-46.957-37.565-13.696 21.522-10.957 25.435 14.643 36.129 28.043 39.391z" fill="#007a63"/><path d="m468.234 1125.503 96.812-226.338c4.65-10.872 16.891-16.327 28.085-12.517l9.668 3.291 30.688 73.145-26.609 217.043-138.645-54.625z" fill="#374047"/><path d="m707.621 972.667-85.61 216.85-138.65-54.62 101.38-237.02c3.55-8.28 13.74-11.33 21.25-6.35l43.47 28.84 12.87 8.54 39.85 26.43a14.421 14.421 0 0 1 5.44 17.33z" fill="#8f969e"/><path d="m582.999 954.602 14.531-35.179c2.078-5.03 8.218-6.929 12.773-3.951l25.906 16.938a8.68 8.68 0 0 1 3.272 10.58l-13.937 33.728c-2.011 4.866-7.856 6.836-12.402 4.179l-26.499-15.487A8.68 8.68 0 0 1 583 954.602z" fill="#374047"/><path d="M612.009 942.796c-2.275 5.105-7.577 7.364-11.922 5-4.434-2.413-6.179-8.702-3.814-13.998s7.867-7.43 12.21-4.824c4.255 2.553 5.799 8.719 3.525 13.822z" fill="#e3e5e5"/><path d="M631.859 954.146c-2.162 4.864-7.048 7.103-10.982 4.962-4.011-2.183-5.503-8.069-3.26-13.106s7.301-7.168 11.23-4.811c3.853 2.312 5.172 8.093 3.011 12.954z" fill="#b7b7b7"/><path d="M328.27 925.52c61.46 36.683 121.043 60.522 134.087 65.217s101.739 21.391 101.739 21.391 13.565 52.696 15.652 68.87-5.314 67.128-9.701 86.52-16.908 30.091-16.908 30.091-61.826-9.606-122.609-37.437c-25.826-11.825-47.478-20.739-47.478-20.739l-124.174-52.696s8.77-139.368 69.391-161.217z" fill="#e09273"/><path d="M209.314 1077.046c-4.048-2.267-18.261-36.221 9.13-109.004s62.609-86.087 62.609-86.087l74.821 42.087s-43.516 20.261-63.082 78.696c-20.139 60.148-9.913 100.174-9.913 100.174s-54-14.909-73.565-25.865z" fill="#007a63"/><g fill="#e09273"><path d="M457.14 992.433c15.652-15.783 31.304-45.913 38.348-51 5.675-4.098 27.391-14.87 48.522-28.957s47.348 2.739 25.826 25.826c-21.465 23.027-36.428 34.287-36.428 34.287l-10.529 38.104s25.325.172 39.652-1.305c25.304-2.609 136.972-26.995 152.87-28.435 18.717-1.695 32.087 30.392 1.565 40.566s-151.826 42.653-151.826 42.653l-108-71.74z"/><path d="M575.053 1055.954l86.913 20.487c25.652 4.295 11.956 48.056-3.696 49.1s-95.739-17.935-95.739-17.935l1.565-51.652z"/><path d="M572.367 1108.263s73.151 14.207 79.381 17.083c13.565 6.261 11.478 44.87-12 42.783s-80.348-14.087-80.348-14.087l12.966-45.779z"/><path d="M526.009 1192.65c33.391 7.239 85.565 13.043 98.609 9.913s19.966-29.206 10.244-34.951-59.809-20.353-59.809-20.353l-21.913 6.261s-48.23 34.556-27.13 39.13z"/></g><path d="M634.871 1175.114a7.53 7.53 0 0 1-1.304-.114l-60.776-10.656a7.5 7.5 0 0 1 2.591-14.775l60.776 10.656a7.5 7.5 0 0 1-1.286 14.889zm16.885-42.267c-.496 0-1-.049-1.505-.152l-71.637-14.591a7.5 7.5 0 0 1-5.852-8.846 7.498 7.498 0 0 1 8.846-5.852l71.637 14.591a7.5 7.5 0 0 1-1.489 14.85z" fill="#a85f36"/><path d="M209.311 1084.548a7.503 7.503 0 0 1-7.174-5.324c-.713-2.351-17.19-58.265 7.671-118.115 22.381-53.88 68.077-82.25 70.011-83.432a7.495 7.495 0 0 1 6.133-.762c16.379 5.085 48.306 21.959 68.006 43.55a7.5 7.5 0 0 1-11.081 10.111c-15.678-17.183-42.425-32.445-58.074-38.209-9.971 6.911-43.748 32.619-61.143 74.497-22.82 54.938-7.329 107.48-7.17 108.005a7.5 7.5 0 0 1-7.18 9.68z" fill="#005141"/></svg></g><g transform="matrix(1.874089 0 0 1.873945 1706.25 721.875)"><svg width="578.281" height="817.46"><g fill="#5ac4ff"><path d="M578.28 35.886c-.133 19.539-12.86 35.181-28.443 34.927-15.57-.266-28.08-16.332-27.935-35.871.133-19.563 12.86-35.206 28.443-34.939 15.57.254 28.08 16.32 27.934 35.883z"/><path d="m556.25 50.23-130.6 381.66a7.543 7.543 0 0 1-5.35 4.87c-2.5.6-5.13-.13-6.98-1.92L218.38 245.46l-205.51 572L0 808.92l208.2-579.489c.86-2.4 2.89-4.19 5.37-4.77 2.48-.57 5.09.15 6.92 1.93l194.8 189.25 126.77-370.47c1.34-3.92 5.6-6 9.52-4.66s6.01 5.6 4.67 9.52z"/></g></svg></g><g transform="matrix(1.874323 0 0 1.878895 2602.5 198.75)"><svg width="144.052" height="260.459"><g fill="#cc2bc5"><path d="M115.646 89.863c3.61-9.016 1.066-28.791-3.13-37.565-3.644-7.789-17.956-13.855-26.896-13.696l-27.505 5.76c14.5-.032 23.507 15.268 23.577 28.458.633 13.531-8.056 29.776-22.993 30.075 1.172-.082 28.727 11.143 29.045 10.837 7.766-.999 17.879-4.239 21.181-11.098l4.931-6.119c.321-.66 1.512-5.965 1.791-6.652z"/><path d="M83.624 258.475c-14.422-37.477-13.522-79.002-25.51-117.351-4.687-15.189 4.761-30.26 1.32-45.78-1.678-7.795-3.22-15.666-3.627-23.636-.339-10.461-5.316-13.808-1.988-23.715 0-.002 6.601-7.163 6.601-7.164C67.93 17.864 59.449.089 84.891.002L57.675.264a47.753 47.753 0 0 0-14.229 2.345C24.418 8.828 10.917 26.012 4.658 44.512l-.002.005C1.329 54.422-.296 64.933.044 75.391.45 83.36 1.993 91.231 3.671 99.027c3.44 15.513 7.892 30.792 12.577 45.975 12.18 38.946 26.143 77.406 40.83 115.457l27.216-.262-.669-1.721z"/></g><path d="M86.145.007c32.266.541 58.193 33.818 57.904 74.35-.288 40.514-56.782 178.574-59.756 185.84-2.869-7.364-57.385-147.287-57.097-187.801C27.485 31.864 53.872-.535 86.145.007zm-.73 102.625c12.872.216 23.393-12.712 23.508-28.865.115-16.171-10.22-29.449-23.092-29.665-12.879-.216-23.401 12.711-23.516 28.883s10.22 29.431 23.099 29.647" fill="#f157e3"/></svg></g></svg>