<svg xmlns="http://www.w3.org/2000/svg" height="1837.16" width="1669.054" xmlns:v="https://vecta.io/nano"><style><![CDATA[.B{fill:#e09273}.C{fill:#111}.D{fill:#ea2688}.E{fill:#2471ed}.F{fill:#004ebf}.G{fill:#b7006d}.H{fill:#a85f36}.I{fill:#ce9800}]]></style><clipPath id="A"><path d="M1242.863 196.444l2.396 23.359c.581 7.835-1.941 16.35-3.557 25.984s31.374 16.758 34.14-15.754c2.507-29.472-34-44.053-32.979-33.588z"/></clipPath><g class="C"><path d="m1225.08 355.149c-44.017 34.419-111.013 152.076-125.022 182.406-16.09 34.836 16.814 126.788 62.161 115.411 52.28-13.116 94.67-159.209 106.256-181.86s-43.395-115.957-43.395-115.957z"/><path d="m1162.219 652.966c-80.513 21.857-211.348-52.059-211.348-52.059 29.009-14.834 37.889-41.288 27.135-74.819 0 0 103.231 3.712 138.036 11.468 43.917 9.786 46.177 115.411 46.177 115.411z"/></g><path d="M1239.183 339.445c-41.125 11.376-106.67 114.923-132.956 167.496 67.319 4.112 109.634 68.931 108.992 104.505 0 0 53.181-116.045 63.455-151.307s-39.492-120.693-39.492-120.693z" fill="#f62"/><rect height="207.072" rx="45.356" transform="matrix(.993942 -.109908 .109908 .993942 -25.259 150.957)" width="90.712" x="1311.235" y="201.048" class="B"/><path d="m1313.991 332.8-50.134 3.664s-6.025 65.418 57.241 76.178 126.102-43.038 143.318-70.583l-59.008-8.676-3.195-28.892c-23.353 19.957-57.375 27.037-89.18 17.598z" class="C"/><g class="B"><path d="m912.629 580.984 38.242 19.922c47.596 17.262 74.731-57.557 27.135-74.819l-34.258-3.966c-16.825 14.804-27.138 34.47-31.119 58.862z"/><path d="m875.69 440.418c-15.05 23.199-5.82 74.377 1.751 90.848s23.772 40.696 35.188 49.719c5.112 4.041 35.634-23.652 33.389-47.511-3.787-40.242-58.176-111.789-70.328-93.056z"/></g><g class="E"><path d="m1172.994 622.123-5.047 9.76s-22.443 110.294 5.047 138.843c52.881 54.917 223.995 72.309 233.65 38.964s16.191-65.739 16.191-65.739c-54.07-90.016-181.063-155.989-249.841-121.827z"/><path d="m1167.947 631.883c-7.3-6.798-20.36-11.26-30.115-5.84 0 0-7.953-14.39-41.916-11.26s-264.097-39.029-339.101-20.241c-51.963 13.016-9.756 276.478 69.374 252.089s264.23 2.142 331.572-14.676c97.659-24.389 32.172-179.599 10.186-200.072z"/></g><path d="M1180.269 718.405c-.352 0-.709-.037-1.067-.115a5 5 0 0 1-3.823-5.948c4.116-18.934-4.268-58.566-12.09-78.645a5.001 5.001 0 1 1 9.319-3.63c8.313 21.336 17.296 62.537 12.543 84.398-.509 2.341-2.58 3.939-4.881 3.939zm-26.237 6.39a5.03 5.03 0 0 1-1.042-.11 5 5 0 0 1-3.854-5.928c4.884-23.025-3.001-68.544-15.623-90.196a5 5 0 0 1 8.639-5.036c13.842 23.744 22.146 71.942 16.768 97.307-.499 2.352-2.575 3.964-4.887 3.964z" class="F"/><path d="m387.619 1115.698c-25.947-5.289-128.217-196.455-127.574-240.388.645-44.087 79.539-.522 119.899 92.481 30.543 70.381 35.851 153.65 7.675 147.906z" class="C"/><path d="m343.678 1100.571 125.759-70.776c91.329-54.091-25.071-250.626-116.401-196.536l-105.872 49.719c-79.112 35.09 17.401 252.683 96.513 217.593z" class="B"/><path d="m266.604 873.849c10.991-5.161 43.853 26.249 24.768 36.792s-28.306 8.558-28.306 8.558 21.545 5.299 29.895 36.508-1.742 71.161 7.954 91.515c18.353 38.527 48.509 39.608 49.781 49.4 3.237 24.937-99.153 50.116-138.648 78.832 0 0-75.746-100.796-91.253-159.842s-51.293-188.47-82.307-232.009c0 0 53.826-21.77 97.814 25.05 25.497 27.138 29.353 58.057 63.221 70.975s67.082-5.778 67.082-5.778z" fill="#ffd215"/><path d="M263.072 924.199a4.99 4.99 0 0 1-.57-.032c-21.382-2.431-71.452-8.123-106.553-45.15-5.146-5.428-7.354-5.588-7.723-5.559-1.432.087-3.859 3.362-6.001 6.253l-2.29 3.039c-1.708 2.196-4.112 4.752-6.952 7.392a5 5 0 0 1-6.808-7.324c3.101-2.882 4.901-4.966 5.867-6.207.753-.968 1.464-1.928 2.149-2.853 3.61-4.874 7.345-9.913 13.43-10.281 4.844-.296 9.63 2.379 15.586 8.66 32.593 34.383 78.407 39.592 100.424 42.095a5 5 0 0 1-.559 9.968zm30.351 196.781a5 5 0 0 1-2.821-.872c-38.755-26.491-84.348-33.906-131.847-21.447-2.671.706-5.404-.896-6.104-3.567a5 5 0 0 1 3.567-6.104c49.537-12.999 97.173-5.573 137.935 21.455l17.784-6.101c-17.179-6.627-45.299-19.994-56.262-39.666-17.809-31.951-14.463-76.636-12.611-92.095-28.308-2.877-59.604-19.852-70.998-26.533-14.289 22.589-37.688 39.188-55.333 49.352a5 5 0 1 1-4.99-8.666c17.689-10.188 41.459-27.135 54.239-50.008.671-1.199 1.806-2.07 3.139-2.407a5 5 0 0 1 3.905.625c.425.269 42.809 26.919 75.888 28.021 1.439.048 2.788.715 3.701 1.828a5 5 0 0 1 1.065 3.988c-.092.554-8.942 55.73 10.729 91.027 13.916 24.971 63.788 39.596 64.29 39.74a5 5 0 0 1 .238 9.535l-33.893 11.626c-.528.182-1.076.271-1.622.271z" class="I"/><path d="m10.868 785.29 30.654-6.742c24.841 19.427 61.309 115.089 78.221 190.139 12.901 57.249 67.122 127.902 97.934 206.767l-28.698 14.156s-71.351-106.233-86.678-153.8-79.093-227.067-91.434-250.52z" class="D"/><path d="m10.868 785.29c18.31-4.027 69.236 106.233 80.335 181.812 7.102 48.364 32.768 95.134 48.624 117.86s65.631 94.761 49.153 104.647c-31.711 19.027-110.461-158.557-162.256-263.733-19.373-39.34-39.851-135.309-15.856-140.587z" class="G"/><path d="M238.631 927.603a5.04 5.04 0 0 1-.667-.045 5 5 0 0 1-4.295-5.617c3.404-25.535-1.76-35.791-3.523-36.418-2.762 0-4.968-2.233-4.968-4.995s2.271-4.995 5.033-4.995c2.111 0 5.224.682 8.065 3.927 6.146 7.02 8.08 22.985 5.305 43.804a5 5 0 0 1-4.95 4.34zm-32.779-5.757c-.691 0-1.395-.145-2.065-.449a5 5 0 0 1-2.483-6.62c7.091-15.606 8.132-28.676 6.761-32.011-2.292-.456-4.02-2.479-4.02-4.904a5 5 0 0 1 5-5c2.957 0 5.512 1.437 7.191 4.046 5.342 8.294.723 27.589-5.829 42.006a5 5 0 0 1-4.555 2.933zm3.192-38.984h.01zm-35.074 23.706c-1.223 0-2.446-.445-3.41-1.345a5 5 0 0 1-.244-7.067c6.694-7.172 12.938-18.8 11.799-25.844-.38-2.345-1.518-3.918-3.69-5.103a5 5 0 1 1 4.787-8.779c4.869 2.654 7.904 6.902 8.774 12.285 2.06 12.728-8.492 27.979-14.359 34.265-.984 1.055-2.319 1.588-3.656 1.588z" class="D"/><path d="m756.815 594.542c-102.634 26.777-321.751 158.466-377.631 183.77-58.486 7.437-127.164 37.153-119.14 96.999 0 0 36.43-11.807 60.097 17.924 19.047 23.927 13.104 39.776 43.228 54.825-3.71 33.817.395 65.079 15.815 85.401 20.274 26.718 26.04 74.546 8.435 82.238 35.436 19.383 87.51-11.043 116-65.804 0 0 39.383 3.302 89.595-58.607 111.815-47.051 156.469-125.869 232.975-144.656 60.457-14.846-9.138-267.805-69.374-252.089z" class="E"/><path d="M379.18 783.313c-2.327 0-4.411-1.633-4.895-4.001a5 5 0 0 1 3.899-5.899c9.489-1.937 18.41-3.521 26.28-4.919 19.044-3.382 34.085-6.053 45.223-11.38a5 5 0 1 1 4.314 9.022c-12.364 5.913-27.997 8.689-47.788 12.204l-26.029 4.871a5.01 5.01 0 0 1-1.005.102zm124.436 271.582a4.97 4.97 0 0 1-2.275-.551 5 5 0 0 1-2.171-6.729c7.867-15.361 25.432-29.042 26.175-29.616 2.186-1.689 5.324-1.285 7.014.898a5 5 0 0 1-.898 7.014c-.163.126-16.551 12.909-23.39 26.263a5 5 0 0 1-4.454 2.722zM363.368 953.06a5 5 0 0 1-4.999-4.962c-.163-21.312 5.744-42.979 5.995-43.891.734-2.662 3.479-4.227 6.148-3.49a5 5 0 0 1 3.492 6.147c-.058.21-5.788 21.271-5.636 41.157a5 5 0 0 1-4.962 5.038h-.039z" class="F"/><path d="m920.472 1452.969-40.147 143.27c-28.854 77.703-270.523-12.037-241.669-89.74l48.806-132.249c37.979-112.419 270.989-33.699 233.01 78.72z" class="B"/><path d="M736.041 1515.831c31.39-15.348 47.823 32.755 87.784 30.79s70.145-8.868 79.316-20.004-21.102 65.051-16.426 106.478c5.893 52.209-81.11 91.671-106.26 107.285-26.43 16.409-15.995 29.933-99.442 50.594-79.404 19.661-176.223 16.378-243.698-70.096 0 0-4.811-84.847 47.897-118.254 52.421-33.225 98.3-44.745 121.12-65.175 36.43-32.615 37.11-67.755 45.757-77.434s9.927 27.646 9.927 27.646 1.31-28.825 14.412-35.376 75.992 20.308 75.337 30.135-15.722 33.41-15.722 33.41z" fill="#ffd215"/><path d="M770.954 1752.309a5 5 0 0 1-4.741-3.416c-1.63-4.878-2.864-10.652-3.669-17.165-1.278-10.342-9.284-63.884-41.456-102.466-.886-1.062-1.291-2.442-1.122-3.814a5 5 0 0 1 2.016-3.428c11.258-8.214 40.867-32.66 42.653-46.945a5 5 0 0 1 3.584-4.187 5.01 5.01 0 0 1 5.257 1.652c14.146 17.404 72.254 8.864 100.961-10.05a5 5 0 0 1 5.649.101c1.681 1.197 2.455 3.303 1.948 5.304l-8.966 35.349c-.2.787-.589 1.515-1.133 2.118-17.38 19.281-30.048 59.445-21.165 93.284a5 5 0 0 1-3.566 6.105c-2.673.705-5.405-.896-6.105-3.566-9.959-37.937 4.09-80.288 22.574-101.575l5.807-22.894c-14.07 6.826-32.329 12.154-49.597 14.246-12.822 1.553-34.329 2.403-47.868-6.487-7.743 16.419-30.213 34.949-39.958 42.475 31.225 40.303 39.117 93.081 40.411 103.552.724 5.853 1.811 10.975 3.229 15.223a5 5 0 0 1-3.158 6.326 4.98 4.98 0 0 1-1.585.259zm-131.468-87.594c-1.552 0-3.08-.72-4.058-2.073-5.045-6.988-9.886-12.82-14.388-17.333-10.33-10.353-14.729-22.354-12.07-32.928 2.07-8.235 8.124-14.431 16.608-16.998 43.453-13.144 67.248-41.026 84.623-61.386 8.924-10.458 15.974-18.719 23.555-22.614a5 5 0 1 1 4.57 8.894c-5.826 2.994-12.635 10.973-20.519 20.211-18.178 21.301-43.073 50.474-89.334 64.467-5.039 1.524-8.613 5.12-9.807 9.864-1.781 7.083 1.664 15.621 9.451 23.427 4.876 4.887 10.063 11.125 15.417 18.542a5 5 0 0 1-1.127 6.98 4.98 4.98 0 0 1-2.923.946z" class="I"/><path d="M889.483 1633.987c5.139 0 2.255 38.953 2.255 38.953-24.167 46.346-63.437 50.828-100.082 79.38-24.97 19.456-9.861 26.131-34.02 44.867s-118.331 55.221-208.559 33.034-121.199-76.443-121.199-76.443c-3.474-5.252 2.373-59.415 6.41-56.207 0 0 48.617 60.011 123.172 74.47 78.81 15.284 144.124 2.338 187.059-22.072 22.024-12.521 15.191-19.158 42.162-28.539 43.357-15.081 93.381-60.015 102.804-87.444z" class="D"/><path d="M554.307 1582.028c-5.852 0-11.688-1.106-17.697-3.746a5 5 0 0 1-2.567-6.589c1.111-2.527 4.063-3.676 6.589-2.567 13.979 6.142 27.479 1.568 45.029-5.561 16.865-6.852 69.753-61.345 71.384-76.44a4.99 4.99 0 0 1 5.508-4.434 5 5 0 0 1 4.434 5.508c-1.387 12.839-21.196 35.253-32.881 47.471-14.798 15.474-34.353 32.965-44.681 37.161-12.62 5.127-23.894 9.197-35.117 9.197z" class="I"/><path d="M737.111 1535.12a4.99 4.99 0 0 1-3.687-1.621c-14.438-15.751-54.922-41.291-80.824-33.955a5 5 0 0 1-2.727-9.621c31.68-8.977 75.539 20.038 90.922 36.818a5 5 0 0 1-.307 7.064c-.96.88-2.171 1.314-3.378 1.314zm-29.249 35.388a5 5 0 0 1-4.372-2.566c-15.364-27.566-45.374-50.406-72.992-40.739a5 5 0 1 1-3.305-9.437c15.684-5.495 32.738-3.029 49.317 7.124 13.924 8.527 26.941 22.444 35.714 38.184a5 5 0 0 1-1.933 6.802c-.771.43-1.606.634-2.43.634zm-39.511 30.668c-2.078 0-4.019-1.305-4.73-3.38-9.811-28.633-42.164-49.296-65.301-41.714a5 5 0 0 1-6.309-3.195c-.859-2.625.571-5.449 3.195-6.309 28.398-9.295 66.239 14.017 77.875 47.976.895 2.612-.497 5.456-3.109 6.352-.537.184-1.084.271-1.621.271z" class="D"/><path d="M839.202 846.174c-59.802 68.032-119.334 197.171-131.085 300.319 0 0-39.429 28.798-37.472 104.988 1.174 45.684-34.232 65.367-44.393 112.288-10.179 47.002-8.081 94.577 18.155 113.578 26.634 22.225 59.806 19.831 99.356 22.213 48.364 2.912 108.51.156 137.096 22.196 14.363 11.075 16.315 38.876 16.315 38.876s46.745 9.824 65.031-37.818c13.051-34 2.216-98.984 2.216-98.984s35.801-15.067 36.282-54.047c.437-35.397-7.557-75.215 12.028-126.136s36.979-120.122 41.991-189.323c0 0 22.524-2.93 24.867-43.9S880.776 798.877 839.201 846.173z" class="E"/><path d="M839.916 1511.09a4.98 4.98 0 0 1-1.462-.219c-22.81-6.965-47.239-21.104-53.346-30.876a5 5 0 1 1 8.481-5.299c4.293 6.869 26.102 19.989 47.785 26.61a5 5 0 0 1 3.322 6.242c-.658 2.154-2.64 3.541-4.78 3.541zm-177.907-170.571c-2.555 0-4.734-1.948-4.974-4.543-.252-2.749 1.772-5.184 4.522-5.437 11.42-1.049 18.01-3.536 20.738-7.829 5.582-8.781-1.902-29.502-13.23-60.868l-3.127-8.671a5 5 0 0 1 3.016-6.396c2.598-.93 5.462.416 6.396 3.016l3.12 8.655c13.206 36.563 20.48 56.705 12.264 69.63-4.588 7.217-13.305 11.048-28.263 12.423-.155.014-.31.021-.463.021zm302.406 88.311a5 5 0 0 1-4.974-4.547c-2.543-27.948 8.165-62.492 8.622-63.949a5 5 0 1 1 9.542 2.993c-.106.339-10.564 34.117-8.205 60.051a5 5 0 0 1-4.526 5.433c-.154.014-.308.021-.459.021z" class="F"/><path d="m1406.644 809.689c-36.194 128.02-176.492 131.442-327.055 200.735-100.613 46.305-273.918-125.995-240.388-164.251 70.227-80.123 249.798-83.836 367.601-126.379 60.778-21.949 199.842 89.895 199.842 89.895z" class="E"/><g class="F"><path d="M839.199 851.173a4.98 4.98 0 0 1-3.148-1.118 5 5 0 0 1-.73-7.033c46.715-57.543 180.45-85.198 278.1-105.392 39.984-8.269 74.517-15.409 91.465-22.453a4.88 4.88 0 0 1 .754-.245c3.059-.733 75.227-17.883 103.53-12.782a5 5 0 1 1-1.776 9.841c-25.253-4.555-93.356 11.237-99.051 12.577-17.919 7.35-51.043 14.2-92.898 22.855-96.176 19.888-227.893 47.126-272.36 101.901a4.99 4.99 0 0 1-3.885 1.849z"/><path d="M1305.563 756.402a4.98 4.98 0 0 1-2.976-.985c-28.565-21.2-65.981-33.22-95.346-30.642a5.01 5.01 0 0 1-5.419-4.542 5 5 0 0 1 4.542-5.42c32.137-2.829 71.294 9.649 102.182 32.573a5 5 0 0 1 1.035 6.995 4.99 4.99 0 0 1-4.019 2.021zm75.478 55.062a5 5 0 0 1-4.502-2.817c-10.646-21.93-13.967-73.346-5.922-91.692a5 5 0 1 1 9.158 4.016c-6.769 15.436-3.377 64.488 5.76 83.31a5 5 0 0 1-2.314 6.682c-.703.341-1.447.503-2.18.503zM1199.267 711.19a5 5 0 0 1-4.869-6.155c4.335-18.285 28.565-52.711 37.519-61.664a5 5 0 0 1 7.07 7.071c-7.895 7.895-31.046 40.82-34.858 56.899-.545 2.299-2.597 3.848-4.861 3.848z"/><path d="M890.682 1539.985c-2.19 0-4.201-1.45-4.815-3.665a5 5 0 0 1 3.481-6.154c.286-.08 29.835-8.739 39.666-38.481 4.781-14.464.646-32.175-3.001-47.801-3.994-17.114-7.444-31.895.135-41.636 13.294-17.088 12.272-41.417 11.372-62.882-.584-13.915-1.136-27.059 2.034-37.554 5.446-18.036 16.509-42.766 28.22-68.947 8.744-19.55 17.787-39.765 25.466-59.245 8.144-20.658 10.303-46.571 12.392-71.631 2.55-30.598 4.959-59.498 17.528-79.824a5 5 0 0 1 4.026-2.365c23.373-1.063 26.15-14.891 29.668-32.399 1.901-9.466 3.868-19.255 9.877-26.446 14.96-17.903 70.234-31.462 128.755-45.817 43.917-10.773 89.329-21.913 115.273-34.582 59.04-28.83 83.302-117.186 90.992-153.836a5 5 0 1 1 9.787 2.053c-7.993 38.089-33.386 130.002-96.391 160.769-26.909 13.14-72.851 24.409-117.28 35.308-54.378 13.34-110.606 27.133-123.463 42.518-4.38 5.241-6.015 13.384-7.747 22.004-3.385 16.854-7.574 37.705-36.275 40.237-10.207 18.271-12.434 44.989-14.785 73.213-2.149 25.781-4.371 52.439-13.055 74.468-7.761 19.689-16.851 40.01-25.64 59.66-11.578 25.883-22.514 50.329-27.776 67.755-2.68 8.876-2.163 21.198-1.615 34.243.973 23.184 2.076 49.46-13.471 69.442-4.648 5.975-1.56 19.21 1.711 33.222 3.947 16.91 8.421 36.077 2.757 53.213-11.543 34.922-45.065 44.585-46.486 44.979-.447.124-.897.183-1.34.183z"/></g><path d="m1446.079 335.899c-21.543 32.024-76.834 68.45-118.698 59.807-36.248-7.483-47.641-49.53-43.03-63.609 1.269-3.875-38.977 5.319-45.17 7.349-3.535 1.159-21.931 76.618-21.931 76.618s-26.984 36.697-28.887 59.539 1.296 47.697-1.094 67.047c-1.831 14.823-29.326 40.355-29.505 53.299-.319 23.066 15.228 26.174 15.228 26.174s67.649-4.52 130.171 26.917c57.49 28.907 119.67 94.91 119.67 94.91s34.26 1.592 35.212-44.569-3.588-66.217 1.907-112.95c8.105-68.93 66.478-222.664 48.065-231.282-19.277-9.022-59.223-23.29-61.94-19.251z" fill="#f62"/><path d="M1186.064 552.237a4.99 4.99 0 0 1-1.708-.302 5 5 0 0 1-2.991-6.407c1.99-5.478 1.897-31.024 1.835-47.928l.171-22.239c.927-19.213 29.459-61.686 29.747-62.109a5 5 0 0 1 8.269 5.622c-8.524 12.54-27.417 44.295-28.028 56.969-.222 4.59-.192 12.529-.159 21.721.095 25.897-.024 44.742-2.437 51.379a5 5 0 0 1-4.699 3.294z" fill="#c83400"/><path d="m1417.34 477.648c6.867 14.907-4.659 115.048-16.548 119.575s-183.081-32.645-187.54-46.55c-1.366-4.261-6.45-51.731 0-71.52 9.367-28.739 12.75-43.409 20.368-47.363 25.183-13.072 173.023 22.642 183.719 45.859z" fill="#5917c1"/><g class="C"><path d="m1455.957 521.509c14.216 22.948 26.35 60.506 26.35 100.376 0 81.411 77.604 152.324 111.444 133.582 38.79-21.484 50.323-128.381 13.507-217.917-42.434-103.196-76.035-148.561-96.097-164.211s-55.204 148.17-55.204 148.17z"/><path d="m1503.362 627.604c-27.241-12.155-92.126-36.344-115.239-47.322 4.339 22.177-12.204 64.205-35.247 67.027 0 0 64.409 65.652 99.963 91.874 46.226 34.091 100.766 38.986 140.913 16.284 45.146-25.529-29.393-100.646-90.39-127.862z"/></g><path d="M1508.02 355.149c37.689 17.056 122.249 173.516 136.055 219.737-17.835 39.378-102.785 52.566-162.94 26.103 0 0-12.606-65.43-37.817-102.047s64.703-143.793 64.703-143.793z" fill="#f62"/><path d="m1164.555 575.715-215.774-39.746c-10.236-1.41-19.97-10.762-21.831-20.946l-34.111-132.059c-2.944-16.117 8.931-28.751 23.775-27.599l232.255 14.606c12.866.809 24.55 11.423 25.973 23.633l18.183 156.049c1.94 16.666-10.025 29.157-28.469 26.063z" fill="#8f969e"/><path d="m1164.555 575.715-224.14-30.873c-10.236-1.41-19.97-10.762-21.831-20.946l-25.745-140.933c-2.006-10.979 4.85-19.389 15.409-18.725l232.255 14.606c12.866.809 24.55 11.423 25.973 23.633l18.183 156.049c1.308 11.228-7.743 18.892-20.103 17.189z" fill="#656c72"/><path d="m1059.862 470.27c-2.058-14.19-15.658-26.855-30.208-28.183-14.38-1.312-24.125 8.984-21.929 22.896 2.181 13.816 15.366 26.22 29.611 27.807 14.41 1.605 24.569-8.43 22.526-22.52z" fill="#8f969e"/><g class="B"><path d="m875.69 440.418c6.961-11.711 35.597-30.388 43.547-30.56s39.74 6.62 50.108 9.928c14.293 4.561 11.419 26.803-7.308 23.818-18.786-2.994-37.568-7.242-37.568-7.242l-31.461 24.84z"/><path d="M886.614 462.895c7.542-11.437 32.762-30.748 39.491-31.096s37.783 9.128 45.654 12.456c15.229 6.44 9.377 27.716-7.618 22.589l-32.221-9.374-28.624 25.948z"/><path d="M892.153 483.151c8.9-8.239 33.411-18.858 38.927-17.575s26.461 5.857 34.361 8.4c13.663 4.397 11.965 25.399-7.252 21.105l-26.599-6.076-27.031 12.026-12.405-17.88z"/><path d="m899.468 503.361c5.829-5.746 25.865-19.383 34.361-17.127s18.788 8.611 25.445 12.342c12.044 6.749 2.023 24.824-10.24 18.448s-16.134-8.942-16.134-8.942-19.513 16.564-20.309 15.221-13.123-19.942-13.123-19.942z"/></g><path d="M889.2 463.03c-1.401 0-2.794-.585-3.783-1.729a5 5 0 0 1 .51-7.053l5.699-5.018c11.59-10.288 23.575-20.926 33.772-22.383 11.1-1.578 42.09 10.347 48.194 12.754a5 5 0 0 1 2.817 6.485c-1.012 2.568-3.914 3.833-6.485 2.817-14.16-5.583-36.903-13.049-43.112-12.158-7.222 1.031-19.047 11.528-28.548 19.962l-5.795 5.102a4.98 4.98 0 0 1-3.27 1.219zm2.958 25.121c-1.502 0-2.986-.674-3.971-1.957a5 5 0 0 1 .924-7.011c4.919-3.773 24.391-16.209 33.646-17.497a4.99 4.99 0 0 1 5.642 4.263 5 5 0 0 1-4.263 5.641c-6.139.854-23.477 11.336-28.939 15.527a4.98 4.98 0 0 1-3.039 1.033zm7.313 20.21a4.99 4.99 0 0 1-3.907-1.876 5 5 0 0 1 .781-7.028c27.711-22.168 36.375-18.965 39.219-17.912 8.134 3.01 16.308 7.045 16.652 7.215a5 5 0 0 1 2.263 6.699c-1.226 2.474-4.226 3.486-6.699 2.264-.08-.04-8.059-3.977-15.687-6.8-2.491-.923-12.41 2.669-29.502 16.343a4.98 4.98 0 0 1-3.12 1.096z" class="H"/><path d="M1467.173 552.82c-2.194 0-4.207-1.456-4.817-3.674-3.089-11.214-18.043-39.211-23.274-47.546a5 5 0 1 1 8.471-5.316c5.778 9.208 21.007 37.725 24.444 50.207a5 5 0 0 1-3.492 6.148c-.444.123-.892.181-1.331.181z" fill="#c83400"/><path d="m1384.769 102.874c-26.017-66.392 38.026-117.704 111.094-98.975 52.839 13.544 68.628 52.253 79.801 86.491 13.33 40.845 15.7 83.844 43.007 93.181 24.341 8.324 38.51-5.845 43.963-31.282 4.074 14.798 6.449 31.331 6.42 48.149-8.836 15.842-26.187 21.878-48.22 22.521 13.9 5.56 28.6 9.104 45.572 6.93-2.833 15.345-8.054 30.216-16.215 43.479-12.216 5.533-25.167 6.912-38.668 5.19 8.363 6.44 16.894 11.082 25.803 11.648-4.918 5.218-10.482 10.006-16.743 14.261 0 0-74.095 2.548-93.817-46.392-14.132-35.067-2.808-94.519-41.58-114.681-35.979-18.709-59.153-1.447-59.153-1.447l-41.262-39.075z" class="D"/><path d="M1613.276 228.583c-13.985 0-33.941-5.24-43.693-25.536-2.983-6.21-4.306-16.619-5.979-29.797-4.183-32.933-10.502-82.702-49.039-105.927-20.418-12.306-40.53-14.224-58.162-5.546-18.06 8.889-32.272 29.111-34.563 49.177a5 5 0 1 1-9.935-1.134c2.244-19.665 15.509-44.921 40.082-57.016 14.529-7.151 38.077-11.924 67.74 5.954 42.685 25.725 49.372 78.385 53.797 113.231 1.497 11.792 2.791 21.977 5.072 26.726 11.64 24.226 40.154 19.535 41.362 19.322 2.703-.475 5.309 1.334 5.791 4.049s-1.315 5.305-4.028 5.794c-2.376.429-5.257.701-8.445.702z" class="G"/><path d="m1378.861 100.9c-2.424-2.986-1.016-8.762 1.972-10.693 28.743 7.25 45.902 21.12 55.421 47.257 0 5.693-4.376 10.655-7.884 10.758-10.968-22.111-27.358-38.015-49.51-47.321z" class="C"/><path d="m1243.795 167.984c-4.069 14.037.09 33.303 1.463 51.818 1.162 15.671-10.09 34.06-1.672 58.676 9.167 26.808 45.245 37.854 72.532 35.001 29.572-3.092 61.749-25.026 74.871-54.901s10.168-89.527-12.001-110.571c-51.968-49.332-124.369-17.363-135.193 19.978z" class="B"/><g class="D"><path d="m1255.554 149.389c26.964-58.815 121.251-69.438 158.596-26.916 33.084 37.67 20.238 118.221-3.698 142.255-4.469 12.423 5.157 20.674 17.378 10.353 0 0-6.596 22.618-27.227 14.856l-4.402-39.809-4.735-27.581c-17.771-5.418-22.93-49.67-30.397-65.629 0 0-6.45-25.302-46.753-26.781s-58.762 19.251-58.762 19.251z"/><path d="m1313.769 115.657c-46.095-5.686-81.968 12.133-81.968 61.644 11.249-8.426 33.102-11.387 56.323-10.196 3.173-11.571 11.215-20.485 22.949-27.385 3.511 8.793 5.47 18.839 5.121 30.748 20.521 3.88 39.147 10.689 49.172 19.472 8.782-31.104 3.659-67.467-51.596-74.284z"/></g><path d="M1307.016 197.988c-10.548 1.55-12.999-15.377-2.436-16.397s29.096 4.896 35.997 14.04c3.898 5.165.84 8.357-1.968 6.746-7.39-4.24-22.873-5.671-31.592-4.389zm-43.563 1.581c10.354.462 8.789-16.266-.647-15.881-11.687.476-23.361 7.429-27.176 12.007-4.065 4.879-1.478 11.299 3.467 8.401s16.597-4.874 24.357-4.528z" class="G"/><path d="M1272.684 263.118c-2.304 0-4.376-1.602-4.883-3.946-1.533-7.103 2.021-11.373 5.858-12.999 5.977-2.535 14.955.042 18.472 5.301a5 5 0 0 1-8.315 5.558c-.305-.458-1.733-1.445-3.801-1.77-1.369-.214-2.265 0-2.538.155-.039.15-.119.639.099 1.644a5 5 0 0 1-3.832 5.942c-.355.077-.711.114-1.061.114z" class="H"/><path d="m1299.619 284.235c-2.574 3.501 10.961 17.948 25.172 11.608 15.497-6.913 13.178-24.312 9.013-25.321s-10.65 6.984-17.628 9.036-14.325 1.639-16.558 4.676z" fill="#fff"/><path d="m1384.916 214.096c4.307-20.795 33.407-19.639 34.29 1.986.875 21.416-11.754 33.528-23.564 33.277-11.082-.235-14.091-19.014-10.725-35.263z" class="B"/><g class="H"><path d="M1394.733 239.293a5 5 0 0 1-4.952-4.352c-1.866-14.27 7.349-26.867 16.787-29.248a5 5 0 1 1 2.445 9.696c-3.994 1.008-10.565 8.704-9.316 18.254a5 5 0 0 1-4.31 5.606c-.22.028-.438.042-.654.042z"/><path d="M1404.142 230.932c-.638 0-1.285-.123-1.911-.382l-7.982-3.305a5 5 0 0 1-2.707-6.532c1.058-2.552 3.983-3.761 6.533-2.707l7.982 3.305a5 5 0 0 1 2.707 6.532c-.798 1.926-2.66 3.089-4.622 3.089zm-92.884 87.984a5 5 0 0 1-.465-9.978c18.856-1.784 36.899-8.398 45.969-16.852a5 5 0 0 1 7.066.249c1.883 2.02 1.771 5.184-.248 7.067-12.842 11.97-35.202 17.917-51.846 19.492-.16.015-.319.022-.477.022z"/></g><path d="M1367.907 183.307a5.3 5.3 0 0 1-.485-.023 5 5 0 0 1-4.497-5.457c1.797-18.647-1.476-32.163-10.005-41.319-11.369-12.206-33.388-17.727-67.284-16.87-2.793.074-5.054-2.112-5.124-4.873a5 5 0 0 1 4.872-5.125c37.442-.939 61.232 5.429 74.854 20.051 10.594 11.373 14.729 27.432 12.641 49.094a5 5 0 0 1-4.971 4.521z" class="G"/><ellipse cx="1319.345" cy="227.885" fill="#fff" rx="17.81" ry="20.456" transform="matrix(.980948 -.194269 .194269 .980948 -19.135 260.656)"/><ellipse cx="1316.446" cy="231.832" rx="10.939" ry="15.296" transform="matrix(.980948 -.194269 .194269 .980948 -19.957 260.168)" class="C"/><g clip-path="url(#A)"><ellipse cx="1252.842" cy="225.803" fill="#fff" rx="15.97" ry="18.863" transform="matrix(.980948 -.194269 .194269 .980948 -19.998 247.697)"/><ellipse cx="1251.67" cy="230.032" rx="9.781" ry="14.066" transform="matrix(.980948 -.194269 .194269 .980948 -20.842 247.55)" class="C"/></g><g class="B"><path d="M1388.123 580.282c-19.199-8.377-63.698-69.004-75.17-80.293s-42.329 59.842-30.616 79.63 34.563 58.608 60.496 56.373l10.043 11.317c37.692 37.102 78.344-48.97 35.247-67.027z"/><path d="m1312.953 499.989c-10.854-8.361-34.375-24.867-44.478-28.883-7.514-2.986-40.965-7.299-49.378-7.485-14.842-.328-17.268 20.273-1.626 21.345s41.46 7.366 41.46 7.366l36.284 25.325 17.737-17.668z"/><path d="M1297.409 515.022c-7.506-8.286-29.602-14.629-36.968-13.357-5.935 1.024-16.516 30.198-9.187 33.257s26.563 12.109 33.923 15.353 18.672-14.252 6.129-20.653-21.184-8.562-21.184-8.562l18.957 7.449 8.33-13.488z"/><path d="M1296.133 535.377c-8.387-7.393-29.229-14.785-37.089-10.875-5.392 2.682-17.085 36.372-7.736 39.649 7.495 2.627 30.068 8.033 37.746 10.432s16.958-16.254 3.777-21.21-22.009-6.135-22.009-6.135l19.672 5.279z"/><path d="m1287.502 557.071c-8.387-7.393-27.361-10.075-34.538-7.987-5.783 1.683-10.073 33.049-3.665 37.982 4.68 3.602 10.35 7.859 17.249 12.12 11.396 7.04 23.315-9.256 12.126-17.807-8.033-6.139-12.178-10.202-12.178-10.202l13.376 8.261 7.63-22.368z"/></g><path d="M1252.483 540.446a4.97 4.97 0 0 1-2.243-.534 5 5 0 0 1-2.22-6.714l4.411-8.769c1.442-2.873 4.618-6.454 11.543-7.177 11.823-1.233 29.761 6.863 33.229 11.209a5 5 0 0 1-7.727 6.347c-2.518-2.353-17.411-8.835-25.174-7.514-2.318.395-2.767 1.289-2.936 1.625l-4.413 8.772a5 5 0 0 1-4.471 2.754zm36.901-5.748c.016.019.031.039.049.059-.017-.02-.032-.04-.049-.059zm-41.601 29.914c-.196 0-.396-.012-.596-.036-2.736-.326-4.694-2.798-4.376-5.536.221-1.894 1.643-11.491 8.031-14.483 12.005-5.622 32.42 4.049 39.272 8.251a5 5 0 1 1-5.227 8.525c-9.481-5.813-24.055-10.416-29.804-7.721-.822.567-2.007 3.848-2.342 6.596a5.01 5.01 0 0 1-4.96 4.403zm30.888 21.768a4.98 4.98 0 0 1-3.208-1.167l-12.178-10.202a5 5 0 0 1-.622-7.044c1.774-2.116 4.928-2.395 7.044-.622l12.178 10.202a5 5 0 0 1 .622 7.044 4.99 4.99 0 0 1-3.836 1.789z" class="H"/></svg>