<svg xmlns="http://www.w3.org/2000/svg" height="1246.587" width="1231.331" xmlns:v="https://vecta.io/nano"><clipPath id="A"><ellipse cx="562.47" cy="223.179" rx="36.866" ry="34.341" transform="matrix(.245646 -.96936 .96936 .245646 207.957 713.589)"/></clipPath><clipPath id="B"><path d="m630.681 225.178c-13.386 70.871 72.92 77.84 72.216 69.306-1.365-16.568-6.472-31.965 2.801-58.338 4.075-11.591 7.095-22.525 9.168-32.817-2.971-25.493-71.629-44.626-84.185 21.85z"/></clipPath><clipPath id="C"><ellipse cx="677.246" cy="242.598" rx="34.11" ry="31.773" transform="matrix(.245663 -.969355 .969355 .245663 275.714 839.497)"/></clipPath><path d="M637.506 42.541S579.308-33.973 475.84 18.228 373.303 204.121 359.321 219.304s-79.159 78.447-17.524 139.459 131.363-3.735 131.363-3.735z" fill="#a66036"/><g fill="#f2b9a9"><path d="m752.284 524.977c95.712 65.083 117.658 216.365 146.737 380.859 22.239 125.805 27.564 232.165-48.517 241.528-49.759 6.125-120.591-4.327-156.59-92.444-46.385-113.541-91.636-444.149-59.658-499.99 0 0 53.57-73.782 118.028-29.953z"/><path d="m802.97 952.628c88.193-66.049 255.944-163.947 301.363-196.835s121.808 61.02 77.866 124.431c-43.308 62.497-183.14 199.709-304.229 259.217-94.98 46.677-144.878-134.481-75-186.813z"/></g><path d="M631.507 34.462s101.431-17.999 118.163 98.825c20.663 144.274-7.638 164.419 75.368 196.699 0 0-39.966 63.023-67.634 63.023 0 0-32.494-16.195-33.908-28.213 0 0-6.363 36.054 7.776 50.193 0 0-226.149 64.675-330.869-58.801S426.284-46.298 631.507 34.462z" fill="#a66036"/><path d="M599.354 309.994L564.2 473.027c-10.053 46.625-56 76.272-102.624 66.219s-76.271-56-66.218-102.625l35.154-163.033c10.053-46.625 56-76.272 102.624-66.219s76.271 56 66.218 102.625z" fill="#f2b9a9"/><g fill="#e1e3e3"><path d="m770.748 511.749c-70.653-9.501-117.008 79.165-119.478 181.871l48.028 222.625c86.217 1.847 203.126-31.072 224.315-71.151-21.045-69.955-122.867-303.92-152.865-333.345z"/><path d="M595.223 447.067s-109.186 38.569-212.835-30.184c-59.465 0-157.364 18.001-196.447 38.763s4.886 377.395 31.755 437.241 505.007 71.691 517.851 34.198c11.895-34.718 25.731-67.805 29.395-100.782s-24.427-111.142-35.419-136.79 41.442-170.357-6.19-194.784-128.108-47.663-128.108-47.663h-.002z"/></g><path d="M571.474 439.286l-171.861-22.403h-17.225c31.649 78.46 116.345 122.218 179.593 115.428s33.243-85.245 33.243-85.245l-23.749-7.781h-.002z" fill="#f2b9a9"/><path d="m769.766 744.537c8.24 37.17 10.84 71.65 10.14 100.52-1.021 42.112-20.862 127.575 3.414 298.678-17.253 12.565-322.501 207.791-577.255 25.361-30.82-22.07-37.459-54.64-52.339-83.73 4.05-16.88 7.68-33.84 8.28-50.52 2.46-67.76 20.11-141.03 20.11-141.03 31.03 13.93 65.17 14.34 89.27 4.78 39.62-15.73 67.07-83.71 10.99-247.33-56.37-164.47-134.56-172.94-157.57-155.87 29.38-48.87 198.79-94.73 222.06-82.85 26.61 13.57 206.57 241.92 225.9 238.72 18.15-3.02 37.61-58.94 46.09-115.2 5.09-33.77 5.88-62.81 1.49-81.63-5.99-25.65 135.01 31.6 181.42 83.24 10.99 100.76-32 206.86-32 206.86z" fill="#e82786"/><path d="m119.224 504.266c19.445-24.19 64.447-64.496 121.258-11.126 84.358 79.249 39.311 324.716 42.311 491.734 2.294 127.735-9.079 233.619-85.687 230.97-50.104-1.731-118.431-23.13-140.208-115.793-28.06-119.397 22.009-545.629 62.325-595.782l.002-.002z" fill="#f2b9a9"/><path d="M154.923 481.516c127.75 2.162 166.771 120.385 158.419 295.827L297.299 926.34C171.675 946.564 38.17 895.929.001 845.068 15.164 802.06 92.36 520.165 129.344 489.125l25.579-7.61z" fill="#e1e3e3"/><path d="m583.922 713.682c-35.593-.005-85.891-57.194-162.963-149.708-51.019-61.242-103.775-124.571-137.225-139.777-4.354-1.98-6.28-7.115-4.3-11.471s7.121-6.28 11.471-4.3c37.055 16.845 88.694 78.833 143.367 144.458 54.555 65.485 122.48 146.963 151.438 143.363 6.185-.773 13.12-6.332 20.057-16.078 31.944-44.877 53.775-164.727 40.981-224.978-.994-4.679 1.994-9.279 6.674-10.274 4.686-.989 9.279 1.996 10.274 6.675 13.805 65.005-9.125 189.893-43.812 238.625-9.965 13.999-20.738 21.812-32.024 23.223-1.294.163-2.601.243-3.936.243l-.002-.002z" fill="#b5016d"/><path d="m663.324 71.007c-92.334-42.916-156.295-14.803-191.701 45.044-38.408 64.92-48.02 145.099-30.622 197.493 16.081 48.427 92.125 98.147 127.71 103.339 39.859 5.817 115.1-37.845 130.834-87.522 10.748-33.936-7.81-49.03 5.848-91.653 30.417-94.923.004-147.144-42.068-166.699v-.002z" fill="#f2b9a9"/><ellipse cx="562.47" cy="223.179" fill="#fff" rx="36.866" ry="34.341" transform="matrix(.245646 -.96936 .96936 .245646 207.957 713.589)"/><g clip-path="url(#A)"><ellipse cx="563.475" cy="233.858" fill="#111" rx="29.672" ry="21.054" transform="matrix(.245663 -.969355 .969355 .245663 198.363 722.619)"/></g><path d="M552.817 342.211c13.127 7.222 30.504 5.853 29.892 14.466s-19.627 18.423-42.229 6.12c-20.881-11.366-22.838-39.611-15.912-42.135 5.993-2.183 15.122 14.328 28.249 21.549z" fill="#fff"/><g clip-path="url(#B)"><ellipse cx="677.246" cy="242.598" fill="#fff" rx="34.11" ry="31.773" transform="matrix(.245663 -.969355 .969355 .245663 275.714 839.497)"/><g clip-path="url(#C)"><ellipse cx="677.246" cy="251.046" fill="#111" rx="26.786" ry="19.007" transform="matrix(.245663 -.969355 .969355 .245663 267.524 845.87)"/></g></g><path d="m173.249 457.723c97.093-46.215 195.721 174.858 200.969 289.763 3.155 69.084 5.712 140.586-38.415 154.765-21.448 6.89-32.187-34.546-31.863-37.556 5.341-49.655 16.112-103.503-21.561-213.429-56.367-164.47-134.56-172.937-157.575-155.875 7.893-13.127 25.891-26.038 48.446-37.67l-.002.002z" fill="#e82786"/><g fill="#f2b9a9"><path d="M174.165 1017.805c89.983-63.589 273.319-167.313 319.629-198.934s123.935 67.386 74.402 126.533-201.53 205.07-324.215 261.213c-96.232 44.038-141.111-138.429-69.815-188.812z"/><path d="M493.794 818.871c39.978-30.672 97.9-87.914 124.908-114.36s146.114 115.226 100.973 146.231c-50.446 34.649-92.063 104.236-151.478 94.662-27.301-4.399-74.402-126.533-74.402-126.533z"/><path d="m618.702 704.511c20.5-19.699 50.144-53.551 70.049-64.089 14.803-7.837 73.377-18.698 90.64-20.937 30.455-3.95 39.939 38.158 8.001 43.824s-74.381 18.944-74.381 18.944l-53.972 54.918-40.337-32.661z"/><path d="M653.952 732.202c15.454-17.32 61.102-30.731 76.348-28.154 12.284 2.076 34.419 62.702 19.287 69.141s-54.836 25.457-70.033 32.281-38.742-29.489-12.853-42.933 43.741-18.023 43.741-18.023L671.297 760.2l-17.345-27.997z"/><path d="M656.765 774.56c17.283-15.469 60.327-31.053 76.619-22.989 11.176 5.532 35.648 75.549 16.34 82.459-15.479 5.539-62.122 17.006-77.982 22.074s-35.215-33.673-7.993-44.114 45.47-12.98 45.47-12.98l-40.643 11.175-11.81-35.626z"/><path d="m674.803 819.637c17.283-15.469 56.504-21.232 71.367-16.952 11.975 3.448 21.118 68.699 7.907 79.027-9.649 7.543-21.34 16.457-35.573 25.393-23.511 14.762-48.303-19.045-25.233-36.951 16.562-12.855 25.101-21.351 25.101-21.351l-27.596 17.324-15.972-46.489z"/></g><g fill="#de8f74"><path d="M747.046 781.791c-2.74 0-5.381-1.507-6.7-4.12l-9.198-18.212c-.508-1.008-2.047-4.059-8.817-4.994-18.769-2.589-49.91 12.595-53.872 16.857a7.5 7.5 0 0 1-10.485 1.206c-3.257-2.559-3.822-7.274-1.264-10.531 6.642-8.452 42.936-24.891 66.111-22.576 13.075 1.306 19.027 7.943 21.719 13.281l9.195 18.208c1.867 3.698.384 8.208-3.313 10.076-1.084.547-2.238.807-3.375.807zm9.93 50.272c-3.744 0-6.98-2.799-7.438-6.609-.799-6.467-3.765-14.679-6.535-15.97-14.088-6.561-46.354 5.377-64.233 16.519a7.5 7.5 0 0 1-10.332-2.399c-2.19-3.515-1.116-8.141 2.398-10.332 13.78-8.587 54.747-28.452 78.501-17.385 11.863 5.527 14.656 24.114 15.096 27.784a7.5 7.5 0 0 1-6.556 8.338 7.64 7.64 0 0 1-.901.054zm-49.988 86.263c-9.621 0-18.867-4.99-24.521-12.273-8.506-10.96-9.968-28.078 5.943-41.612l25.101-21.351a7.5 7.5 0 0 1 9.718 11.426l-25.101 21.351c-10.929 9.296-6.307 17.775-3.812 20.989 4.41 5.684 12.869 9.061 19.857 4.124l32.972-23.368 8.684 12.231-32.999 23.387c-5.026 3.552-10.494 5.096-15.844 5.096z"/><path d="M666.056 905.177c-1.905 0-3.812-.721-5.273-2.167a7.5 7.5 0 0 1-.06-10.606l27.215-27.524a7.5 7.5 0 0 1 10.666 10.546l-27.215 27.524a7.48 7.48 0 0 1-5.333 2.227z"/></g><path d="M632.517 67.85C630.566 16.561 532.186.213 462.306 60.484c-45.681 39.4-94.379 123.58-10.068 140.765 70.796 14.43 182.532-74.256 180.28-133.398h-.002zM410.005 304.164c7.836 22.654.698 36.919 20.881 48.625 23.496 13.628 71.115 10.054 71.115 10.054-10.828 21.308-57.283 36.085-95.548 33.087-38.063-2.981-69.163-31.374-79.101-69.597" fill="#a66036"/><path d="M602.3 148.891c-21.82-15.458-57.623-14.615-69.758-9.771-16.01 6.391-14.484 22.71-1.061 21.716 27.894-2.068 44.268 5.364 63.087 12.072s20.855-14.722 7.733-24.019v.002z" fill="#773a12"/><path d="M802.964 960.13c-1.508 0-3.029-.454-4.351-1.396-3.371-2.406-4.153-7.09-1.747-10.462.954-1.336 23.729-32.776 55.542-36.671 4.091-.501 7.853 2.421 8.355 6.533a7.5 7.5 0 0 1-6.533 8.356c-25.334 3.102-44.96 30.224-45.155 30.498a7.49 7.49 0 0 1-6.111 3.144z" fill="#de8f74"/><path d="m1231.191 703.337c1.705 25.271-12.403 129.574-30.376 155.6s-53.113 62.777-75.45 74.844c-10.003 5.404-54.115-51.382-43.069-91.708 18.631-68.017 146.274-177.608 148.895-138.736z" fill="#f1b9a8"/><path d="M684.998 166.223c18.422-1.135 39.355 7.846 49.121 22.923 8.247 12.735-4.952 23.67-12.726 13.83s-20.819-13.631-38.793-11.18c-17.912 2.444-18.574-24.281 2.397-25.573zM451.904 367.606c-.208 0-.417-.009-.628-.026-35.305-2.926-45.659-28.938-46.202-42.284a7.5 7.5 0 0 1 7.189-7.798c4.126-.161 7.604 3.025 7.796 7.139.014.215.466 6.755 4.636 13.342 5.473 8.646 14.833 13.576 27.819 14.652a7.5 7.5 0 0 1 6.855 8.094c-.325 3.917-3.604 6.881-7.466 6.881z" fill="#773a12"/><path d="M634.77 318.051a7.48 7.48 0 0 1-1.578-.168 7.5 7.5 0 0 1-5.764-8.904c.313-1.591 1.576-9.911-5.502-11.904-8.943-2.52-16.209 7.546-16.281 7.648-2.385 3.366-7.052 4.19-10.432 1.827s-4.229-6.994-1.886-10.387c4.878-7.065 17.243-17.863 32.663-13.527 16.726 4.708 17.849 21.344 16.105 29.483-.754 3.521-3.865 5.931-7.326 5.931z" fill="#de8f74"/><path d="m456.946 207.481c5.169 16.389 7.23 55.546-17.15 60.413-21.55 4.302-53.103-27.664-47.705-64.647 6.056-41.48 55.419-25.69 64.857 4.236v-.002z" fill="#f2b9a9"/><path d="M632.56 84.479c-.519 0-1.044-.054-1.571-.166a7.5 7.5 0 0 1-5.771-8.899c8.798-41.276-15.465-48.739-16.502-49.036-4.008-1.047-6.367-5.133-5.32-9.141s5.188-6.395 9.192-5.351c1.071.28 10.693 3.017 18.786 12.908 7.228 8.833 14.571 25.327 8.514 53.747-.751 3.524-3.863 5.938-7.327 5.938z" fill="#773a12"/><g fill="#de8f74"><path d="M440.87 233.474a7.5 7.5 0 0 1-7.496-7.36c-.133-7.121-2.064-12.445-5.742-15.824-5.758-5.292-14.428-4.786-14.515-4.78-4.139.325-7.719-2.749-8.051-6.876s2.771-7.747 6.9-8.08c1.523-.12 15.197-.924 25.653 8.544 6.92 6.266 10.537 15.261 10.752 26.736.077 4.141-3.218 7.562-7.358 7.639l-.144.001z"/><path d="M414.676 233.474a7.47 7.47 0 0 1-5.237-2.133 7.5 7.5 0 0 1-.129-10.606l17.978-18.419a7.5 7.5 0 1 1 10.734 10.478l-17.978 18.419a7.48 7.48 0 0 1-5.368 2.261zm160.515 191.431c-.102 0-.203-.002-.305-.006-24.794-.993-66.599-26.878-68.366-27.979a7.5 7.5 0 1 1 7.933-12.731c11.112 6.919 43.74 25.03 61.033 25.722a7.5 7.5 0 0 1 7.194 7.794c-.162 4.036-3.485 7.2-7.489 7.2z"/></g><path d="M1198.094 558.765l11.025 12.619c-2.303-2.21-5.727-3.551-10.073-3.656l-277.153-6.745c-13.59-.331-29.381 9.057-35.18 20.971L721.407 921.529c-2.999 6.161-2.594 11.492.468 15.061l.007-.006-12.228-13.961c-2.79-3.562-3.073-8.744-.173-14.701l165.306-339.575c5.8-11.914 21.59-21.302 35.18-20.971l277.153 6.745c4.957.121 8.716 1.849 10.978 4.64l-.005.004z" fill="#8d949c"/><path d="m1027.528 920.062-290.734 21.154c-14.256 1.037-21.187-7.774-15.387-19.688l165.306-339.575c5.8-11.914 21.59-21.302 35.18-20.971l277.153 6.745c11.589.282 16.625 9.347 11.317 20.25l-151.273 310.748c-5.307 10.902-19.406 20.453-31.562 21.338z" fill="#656c72"/><path d="M933.532 592.69c3.137-6.444-.278-11.782-7.655-11.923-7.405-.142-15.991 5.004-19.15 11.495s.322 11.829 7.75 11.925c7.399.095 15.918-5.052 19.055-11.496z" fill="#111"/><path d="M216.556 996.389c-2.488 0-4.922-1.237-6.349-3.497a7.5 7.5 0 0 1 2.338-10.346l67.459-42.589c3.503-2.209 8.134-1.165 10.346 2.338a7.5 7.5 0 0 1-2.338 10.346l-67.459 42.589a7.47 7.47 0 0 1-3.997 1.159z" fill="#de8f74"/><g fill="#f1b9a8"><path d="M1231.331 705.169c-3.037-22.642-52.022-62.947-65.632-65.636s-70.29-.595-89.105 1.968c-25.936 3.532-27.698 42.622 5.384 43.134 33.186.513 66.745-1.129 66.745-1.129l46.585 52.166 36.023-30.502z"/><path d="M1205.786 740.505c-9.517-21.927-47.04-62.711-58.5-65.337s-67.682 4.305-82.211 7.653c-28.112 6.48-24.464 44.806 6.287 41.115l58.197-6.403 41.376 53.216 34.852-30.244z"/><path d="M1190.165 773.649c-12.813-16.841-51.738-42.474-61.603-41.929s-47.24 2.095-61.581 4.085c-24.805 3.441-28.213 40.046 6.106 38.454l47.542-2.429 42.832 28.811 26.705-26.992z"/><path d="M1171.506 806.178c-8.286-11.631-38.612-41.102-53.891-39.785s-34.881 9.138-47.447 13.545c-22.731 7.971-10.955 42.052 12.041 34.788s30.421-10.506 30.421-10.506 28.544 34.344 30.317 32.276 28.56-30.318 28.56-30.318z"/></g><path d="M1202.815 738.867a7.48 7.48 0 0 1-5.817-2.761l-8.416-10.505c-13.889-17.483-31.174-39.241-43.621-43.303-11.227-3.663-54.032 2.884-78.38 7.871-4.054.823-8.021-1.785-8.853-5.843a7.5 7.5 0 0 1 5.842-8.852c11.165-2.287 67.783-13.396 86.043-7.436 16.734 5.46 34.009 27.204 50.714 48.232l8.296 10.357a7.5 7.5 0 0 1-1.073 10.552c-1.392 1.135-3.068 1.688-4.734 1.688zm-12.648 42.282c-2.026 0-4.047-.816-5.525-2.427-8.19-8.917-35.112-32.364-45.582-35.739-3.942-1.271-6.108-5.497-4.838-9.439a7.5 7.5 0 0 1 9.439-4.837c15.305 4.933 44.763 31.959 52.027 39.869a7.5 7.5 0 0 1-.45 10.597c-1.44 1.323-3.259 1.976-5.071 1.976zm-18.658 32.529c-2.078 0-4.146-.859-5.629-2.54-23.969-27.188-41.131-38.431-46.916-37.368-14.026 2.566-28.981 6.945-29.131 6.989-3.967 1.167-8.142-1.104-9.312-5.079a7.5 7.5 0 0 1 5.078-9.311c.64-.188 15.843-4.643 30.665-7.354 13.526-2.475 33.998 11.726 60.867 42.203 2.739 3.107 2.44 7.847-.666 10.586a7.47 7.47 0 0 1-4.957 1.874zm-44.074 15.301c-2.113 0-4.214-.888-5.697-2.618l-14.802-17.26c-2.696-3.144-2.333-7.879.811-10.576a7.5 7.5 0 0 1 10.576.811l14.802 17.26c2.696 3.144 2.333 7.879-.811 10.576a7.47 7.47 0 0 1-4.879 1.807z" fill="#de8f74"/></svg>