<svg xmlns="http://www.w3.org/2000/svg" width="3000" height="2520" xmlns:v="https://vecta.io/nano"><style><![CDATA[.B{fill:#111}.C{fill:#a85f36}.D{fill:#ff5cf0}.E{fill:#773a11}.F{fill:#e09273}.G{fill:#4f2000}.H{fill:#e3e5e5}.I{fill:#5917c1}.J{fill:#330096}]]></style><g transform="matrix(1.203788 0 0 1.203455 165.6 494.4)"><svg width="2218.996" height="1459.797"><clipPath id="A"><ellipse cx="1627.055" cy="332.055" rx="31.665" ry="28.563" transform="matrix(.06603 -.997818 .997818 .06603 1188.284 1933.632)"/></clipPath><clipPath id="B"><path d="M1513.882 298.93c-.038 12.498.023 24.002-1.231 33.279-1.709 12.649-6.065 23.235-9.114 35.525-3.755 15.137 48.432 14.815 54.421-18.243 10.257-56.608-43.963-87.475-44.076-50.562z"/></clipPath><clipPath id="C"><ellipse cx="1524.561" cy="330.728" rx="29.505" ry="26.615" transform="matrix(.06603 -.997818 .997818 .06603 1093.883 1830.123)"/></clipPath><clipPath id="D"><ellipse cx="751.568" cy="304.861" rx="29.728" ry="25.764" transform="matrix(.223999 -.974589 .974589 .223999 286.106 969.045)"/></clipPath><clipPath id="E"><ellipse cx="638.552" cy="291.073" rx="31.97" ry="27.707" transform="matrix(.223999 -.974589 .974589 .223999 211.843 848.201)"/></clipPath><path d="M234.773 258.858C1.66 473.605 24.544 915.725 355.581 1127.886c284.315 182.217 947.735 232.336 1303.94 163.478 322.378-62.319 530.519-192.33 540.968-511.264 6.951-212.159-143.321-405.356-495.809-358.07-348.586 46.763-360.693 100.354-641.133-201.389C871.395 13.893 425.36 83.287 234.773 258.858zm-96.307-80.867C223.155 99.974 354.322 41.283 494.022 14.562 356.256-19.519 217.776 3.198 100.547 114.955 29.986 182.223-4.828 305.466.539 452.848c24.518-115.39 71.01-213.212 137.927-274.857zm1567.419 1175.081c-120.43 23.28-273.083 33.815-435.564 31.378 185.541 61.443 366.087 102.774 553.319 53.631 260.496-68.373 363.664-197.139 395.355-407.719-92.776 180.742-255.954 272.999-513.111 322.71z" fill="#5ac4ff"/><path d="M1865.462 236.065c26.221 15.678 22.938 46.047 21.027 60.143 19.934 1.911 33.204 29.448 13.381 61.956 48.608 27.019 24.443 117.828-45.845 105.653 4.515 43.68-43.969 70.973-104.9 44.205-57.654-25.328-59.321-97.439-27.368-179.864 33.144-85.496 118.272-107.301 143.706-92.094z" class="G"/><path d="M1478.506 547.133c-75.69 34.166-105.498 164.16-122.317 276.929-23.308 156.284-71.394 359.095-94.637 404.226s174.479 107.569 206.858 51.369 75.535-274.353 83.289-351.388c21.409-212.675-73.194-381.136-73.194-381.136z" class="D"/><path d="M1553.515 906.315c-51.533-33.646-138.548-66.685-198.435-74.902-7.029 46.047-16.104 95.79-25.991 144.143 72.295 11.42 152.136 62.558 198.375 97.881 11.912-58.19 21.055-113.56 24.237-145.168a624.309 624.309 0 0 0 1.815-21.954z" class="H"/><path d="M1557.11 529.571c-29.556 3.284-61.089 9.709-78.604 17.562s-26.484 132.408-37.431 164.153-30.494 91.226-28.461 129.171c3.284 61.301 30.744 110.937 43.787 157.632 9.442 33.804-9.852 120.413-18.609 152.159s287.822 76.14 392.985 60.207c108.372-16.42 138.914-33.354 138.914-33.354s17.118-49.888-6.264-137.793c-4.793-18.018-26.559-110.107-27.721-133.579-2.976-60.094 2.755-127.961 9.053-153.939 8.757-36.124 31.878-196.115 8.548-209.251s-79.837-23.913-79.837-23.913l-316.359 10.947z" class="D"/><path d="M1848.276 963.716c47.598-16.54 66.709-38.87 87.428-57.989-2.976-60.094 2.755-127.961 9.052-153.939 2.046-8.439 5.205-22.856 8.548-40.162-30.526 23.326-72.865 51.238-156.967 65.1-64.108 10.566-271.892 5.096-368.256-25.271-8.77 29.617-16.809 63.987-15.469 89.001 1.68 31.354 9.687 59.652 18.852 86.07 85.508 27.376 305.518 75.862 416.811 37.189z" class="H"/><g class="C"><rect height="241.906" rx="68.893" transform="matrix(.989806 -.142422 .142422 .989806 -48.637 245.494)" width="138.693" x="1621.32" y="341.566"/><path d="m1627.389 519.514-70.279 10.057s13.198 60.89 79.911 71.153c78.269 12.041 183.292-18.609 236.448-82.1l-104.727-13.098-141.353 13.987z"/></g><path d="M1437.798 1157.749a7.506 7.506 0 0 1-1.62-.178 7.5 7.5 0 0 1-5.711-8.938c.231-1.052 23.107-105.646 18.475-149.763-1.438-13.698-8.17-29.655-15.965-48.132-12.424-29.452-27.887-66.106-27.863-110.287.015-27.656 9.712-71.885 28.82-131.458a7.502 7.502 0 0 1 9.433-4.851 7.502 7.502 0 0 1 4.851 9.433c-18.372 57.274-28.09 101.15-28.104 126.884-.021 41.143 14.166 74.775 26.685 104.449 8.258 19.577 15.391 36.484 17.062 52.396 4.887 46.529-17.777 150.167-18.744 154.557a7.503 7.503 0 0 1-7.317 5.888z" fill="#cc2bc5"/><path d="M1553.274 193.857c-51.263 30.21-35.666 101.673-40.623 138.353-3.815 28.228-20.809 46.177-7.048 95.738 10.323 37.18 60.149 60.329 89.647 60.617 65.23.635 135.336-41.176 149.363-92.183s20.606-134.232-20.017-177.798c-44.927-48.182-114.394-58.275-171.322-24.727z" class="C"/><path d="M1767.933 339.926c-32.871 3.818-38.879-32.45-58.338-61.203-17.356-25.646-40.273-43.378-63.496-46.53-31.198-4.235-55.133-29.786-55.133-29.786s-31.466 27.529-64.731 30.688c-34.038 3.233-29.736-82.481 41.542-90.934 24.366-2.889 42.154-21.674 71.566-25.79 32.5-4.548 48.497 15.897 65.748 16.805s49.524 1.558 67.217 23.895c11.363 14.345 6.8 42.313 22.67 45.109 27.604 4.863 18.489 132.456-27.047 137.745z" class="G"/><path d="M1797.439 319.948a7.5 7.5 0 0 1-6.459-11.301c12.046-20.494 11.73-63.527 11.347-76.228a7.5 7.5 0 0 1 7.271-7.723c4.151-.137 7.598 3.13 7.723 7.27.531 17.579.287 60.981-13.408 84.281a7.497 7.497 0 0 1-6.473 3.701z" class="B"/><path d="M1739.416 326.802c15.3-28.025 57.127-35.155 64.451 0s-40.06 66.609-57.001 60.819c-21.762-7.438-17.358-42.671-7.45-60.819z" class="C"/><path d="M1599.11 280.407c-12.158 3.637-21.16-10.404-7.116-18.181 23.296-12.901 60.787 1.941 70.333 12.197s8.999 20.204-4.681 14.926-37.142-15.341-58.536-8.941zm-54.5 1.703c-6.776 2.581-27.914.285-39.316 7.71-5.361 3.491-10.912-2.722-4.205-11.257 9.035-11.496 31.755-18.818 43.521-16.465 10.645 2.129 8.941 16.606 0 20.012z" class="G"/><path d="M1547.309 393.504a7.502 7.502 0 0 1-7.287-5.751c-2.415-10.063.834-18.383 8.69-22.256 10.887-5.367 29.315-.383 37.924 10.252a7.5 7.5 0 1 1-11.658 9.437c-4.446-5.493-15.328-8.359-19.633-6.235-.491.242-1.797.886-.737 5.301a7.5 7.5 0 0 1-7.299 9.252z" class="E"/><path d="M1644.29 414.739c8.89-7.677 11.802-.911 8.579 8.564-5.102 14.999-12.361 23.373-28.202 28.524-11.731 3.816-28.187 1.381-37.711-8.482-5.904-6.115-5.091-10.868 2.593-11.184 10.779-.444 20.065-1.438 28.098-4.187s19.758-7.29 26.643-13.235z" fill="#fff"/><g class="E"><path d="M1747.287 368.547a7.5 7.5 0 0 1-7.453-8.428c2.128-17.097 23.675-36.937 34.531-41.182a7.5 7.5 0 1 1 5.463 13.969c-7.9 3.089-23.885 19.233-25.109 29.065a7.502 7.502 0 0 1-7.433 6.574z"/><path d="M1770.884 360.015a7.477 7.477 0 0 1-5.138-2.037l-12.456-11.717a7.5 7.5 0 1 1 10.278-10.926l12.456 11.717a7.5 7.5 0 0 1-5.14 12.963z"/></g><path d="M1758.97 426.121c-9.432 0-17.86-8.118-20.976-20.2-3.751-14.548 1.665-28.279 13.798-34.98a7.5 7.5 0 0 1 7.252 13.129c-9.325 5.151-7.071 15.986-6.525 18.105 1.485 5.76 4.757 8.945 6.451 8.945 1.336 0 3.037-.32 4.345-2.815 1.634-3.116 1.521-7.737-.252-10.299a7.501 7.501 0 0 1 12.336-8.534c4.932 7.129 5.426 17.737 1.201 25.797-3.614 6.896-10.041 10.851-17.63 10.851z" class="B"/><ellipse cx="1627.055" cy="332.055" fill="#fff" rx="31.665" ry="28.563" transform="matrix(.06603 -.997818 .997818 .06603 1188.284 1933.632)"/><g clip-path="url(#A)"><ellipse cx="1621.404" cy="340.204" rx="25.286" ry="18.799" transform="matrix(.06603 -.997818 .997818 .06603 1174.876 1935.605)" class="B"/></g><path d="M1621.396 496.065a7.5 7.5 0 0 1-.749-14.962c12.64-1.284 44.583-6.324 68.148-25.346a7.5 7.5 0 0 1 9.422 11.672c-26.697 21.549-62.081 27.177-76.055 28.597a7.65 7.65 0 0 1-.767.039z" class="E"/><g clip-path="url(#B)"><ellipse cx="1524.561" cy="330.728" fill="#fff" rx="29.505" ry="26.615" transform="matrix(.06603 -.997818 .997818 .06603 1093.883 1830.123)"/><g clip-path="url(#C)"><ellipse cx="1520.532" cy="337.939" rx="23.441" ry="17.427" transform="matrix(.06603 -.997818 .997818 .06603 1082.925 1832.837)" class="B"/></g></g><path d="M798.327 185.464c1.946-35.923 7.483-95.68-57.567-124.502-57.422-25.442-101.727-16.608-112.107-1.384 0 0-80.274-21.246-130.792 28.822s-48.26 110.443-65.05 128.266c-22.109 23.469-32.326 55.252-13.642 91.879 0 0 1.448-30.86 26.738-44.31 6.512 29.411 7.664 71.458-19.325 99.831 0 0 31.141-5.536 42.213-22.145 0 0 9.972 25.383-7.499 47.586 0 0 29.226 11.424 51.788-6.757s280.55-110.709 285.241-197.287z" fill="#f62"/><rect height="234.379" rx="75.288" transform="matrix(.974589 .223999 -.223999 .974589 99.584 -120.422)" width="150.576" x="505.282" y="261.534" class="F"/><g class="I"><path d="M813.331 1084.593c17.548-86.992 4.674-321-7.714-462.153-2.469-28.136 16.359-143.046-7.575-146.812-26.327-4.143-105.735-11.845-138.811-12.575l-197.818-22.451c-41.834-3.259-127.169-17.488-155.145-15.496-43.644 3.108-38.285 160.417-27.346 204.171 8.926 35.703-13.606 319.468 3.975 443.897 22.672 20.088 46.882 38.431 72.684 54.712 26.993 17.032 57.355 32.918 90.499 47.668 155.004 15.052 355.434-32.378 367.251-90.962z"/><path d="M461.413 440.602c8.11-15.441 20.487-61.666 28.794-64.482s31.205 46.789 91.337 50.608c42.647 2.709 73.941-6.591 85.828-13.277l-8.141 49.602s-18.819 11.293-87.325 7.74c-79.241-4.109-110.493-30.191-110.493-30.191zm336.629 35.026c38.298 7.409 131.855 27.432 150.212 106.946 23.79 103.041 13.697 127.008 27.394 163.118s62.259 144.44 49.807 220.396c-10.459 63.801 4.418 109.659-13.94 138.925-29.881 47.634-176.319 39.514-205.898 0-22.843-30.515-34.82-72.563-32.631-129.841s-10.262-229.479-9.017-312.906 34.073-186.637 34.073-186.637z"/></g><g class="F"><path d="M538.42 264.001c-13.304-37.012-72.87-32.482-63.027 17.066 6.477 32.603 27.984 52.438 48.691 45.961s21.111-44.179 14.336-63.027z"/><path d="M686.369 120.363c51.451.251 128.855 37.04 119.663 117.794-7.757 68.148-37.162 146.98-64.506 177.625-27.806 31.163-54.732 48.205-93.934 40.961-61.453-11.355-125.889-56.175-122.15-167.94s64.364-168.912 160.927-168.44z"/></g><g fill="#f62"><path d="M709.516 152.419c12.434 5.043 52.961 18.393 71.012 31.236 18.815 13.387 26.603 26.506 24.046 54.546-4.228 46.352 1.997 72.855 44.6 79.511-15.653-19.167-15.566-42.685-4.868-71.175 9.021-24.025 17.205-104.758-46.835-151.255-48.341-35.099-110.586 10.692-110.586 10.692 8.593 16.856 24.215 32.953 22.632 46.446z"/><path d="M686.884 105.973c-15.882-12.49-79.36-14.272-106.314 0-28.632 15.161-30.515 52.535-47.405 73.598-11.805 14.721-38.44 42.352-71.868 33.189 0 0 19.778 42.99 76.175 35.158 44.766-6.217 50.393-48.635 80.863-59.768s80.633-18.152 91.181-35.731-22.632-46.446-22.632-46.446z"/></g><path d="M738.981 258.171c-12.612 5.728-24.477-19.978-6.125-28.729 13.828-6.594 55.759 1.45 70.846 16.53 13.059 13.052 2.517 24.515-4.596 18.012-8.137-7.44-37.979-15.872-60.126-5.813zm-66.247-6.971c14.572 6.681 24.303-16.034 9.424-27.938s-71.47-4.289-84.672 9.573c-8.537 8.963-5.649 20.097 5.072 14.384 11.497-6.127 51.492-4.586 70.177 3.981z" fill="#c83400"/><g class="C"><path d="M708.955 361.643a7.5 7.5 0 0 1-7.282-9.321c1.06-4.237-.413-5.599-2.161-6.438-4.397-2.112-13.74-.843-18.966 6.022a7.5 7.5 0 0 1-11.936-9.084c8.734-11.477 25.508-16.168 37.396-10.459 8.877 4.264 12.792 13.306 10.22 23.598a7.504 7.504 0 0 1-7.271 5.683zm-68.045 48.294c-13.883 0-25.817-4.246-33.689-12.005-6.26-6.171-9.568-14.194-9.568-23.201a7.5 7.5 0 1 1 15 0c0 4.972 1.716 9.184 5.1 12.519 5.099 5.027 13.843 7.817 23.926 7.682h.109a7.5 7.5 0 0 1 .105 14.999l-.982.007zM519.243 311.73a7.5 7.5 0 0 1-7.313-9.192c2.203-9.524-.094-20.609-5.586-26.956-2.805-3.242-5.948-4.737-9.359-4.458a7.5 7.5 0 1 1-1.246-14.948c8.222-.685 16.005 2.722 21.948 9.591 8.697 10.051 12.174 25.812 8.856 40.152a7.502 7.502 0 0 1-7.3 5.811z"/><path d="M503.093 293.863a7.5 7.5 0 0 1-2.429-14.597l14.871-5.092a7.5 7.5 0 1 1 4.859 14.191l-14.871 5.092a7.51 7.51 0 0 1-2.431.406z"/></g><g fill="#c83400"><path d="M709.516 159.921a7.502 7.502 0 0 1-7.089-9.952c4.714-13.642-13.069-32.21-20.319-38.213-1.651-1.368-2.643-3.381-2.716-5.524s.771-4.219 2.327-5.696c23.677-22.493 63.191-30.81 100.674-21.187a7.5 7.5 0 0 1-3.731 14.528c-29.475-7.566-60.096-2.665-80.492 12.408 9.448 9.689 25.062 29.405 18.435 48.583a7.502 7.502 0 0 1-7.089 5.052z"/><path d="M493.54 250.181a7.484 7.484 0 0 1-2.54-.445c-24.272-8.736-35.981-32.722-36.469-33.739a7.502 7.502 0 0 1 9.12-10.358c27.768 9.185 53.776-18.457 63.667-30.765 5.162-6.424 8.879-15.535 12.814-25.18 7.361-18.044 15.706-38.497 36.78-50.269 40.804-22.793 95.373-7.968 112.958-.332a7.5 7.5 0 0 1-5.974 13.759c-14.634-6.354-64.359-20.057-99.669-.332-16.485 9.209-23.461 26.306-30.206 42.839-4.36 10.687-8.479 20.781-15.01 28.909-9.828 12.23-33.185 37.008-61.799 38.194 4.598 5.044 10.903 10.293 18.867 13.159a7.5 7.5 0 0 1-2.54 14.559z"/></g><path d="M570.969 427.116a7.476 7.476 0 0 1-5.451-2.348c-10.237-10.83-22.979-24.308-30.1-41.274a7.5 7.5 0 1 1 13.832-5.805c6.063 14.45 17.275 26.31 27.168 36.774a7.5 7.5 0 0 1-5.449 12.653z" class="C"/><ellipse cx="751.568" cy="304.861" fill="#fff" rx="29.728" ry="25.764" transform="matrix(.223999 -.974589 .974589 .223999 286.106 969.045)"/><g clip-path="url(#D)"><ellipse cx="749.293" cy="314.76" rx="24.868" ry="17.211" transform="matrix(.223999 -.974589 .974589 .223999 274.693 974.509)" class="B"/></g><ellipse cx="638.552" cy="291.073" fill="#fff" rx="31.97" ry="27.707" transform="matrix(.223999 -.974589 .974589 .223999 211.843 848.201)"/><g clip-path="url(#E)"><ellipse cx="638.552" cy="301.268" rx="25.55" ry="17.683" transform="matrix(.223999 -.974589 .974589 .223999 201.906 856.112)" class="B"/></g><path d="M805.62 1112.513a7.495 7.495 0 0 1-2.139-.313 7.5 7.5 0 0 1-5.054-9.325c23.269-78.339 12.951-234.19 4.661-359.42l-4.962-80.637a7.5 7.5 0 0 1 7.111-7.869 7.489 7.489 0 0 1 7.869 7.111l4.948 80.404c8.37 126.424 18.786 283.764-5.249 364.682a7.504 7.504 0 0 1-7.187 5.366z" class="J"/><path d="M1999.132 1167.997a314.472 314.472 0 0 0-5.716-.893l-1380.35-202.56c-36.609-5.372-84.498-3.74-107.309 3.665l-249.297 80.936c29.277 28.672 62.287 55.134 99.122 78.742 284.316 182.217 947.734 232.336 1303.94 163.478 135.427-26.179 250.69-64.309 339.611-123.367z" fill="#ffd215"/><path d="M306.268 425.106c-42.761 2.859-100.449 19.932-119.1 108.776-12.185 59.815-37.661 99.691-14.4 203.814-7.754 53.774-39.916 85.87-42.75 119.377-3.853 45.559 15.14 79.06 15.14 79.06-12.247 43.891 6.557 157.44 137.271 168.877 130.64 11.431 128.017-128.055 118.839-216.669s-14.717-249.943-14.717-249.943z" class="I"/><path d="M390.923 746.858a7.5 7.5 0 0 1-7.486-7.161l-4.381-101.015a7.5 7.5 0 0 1 7.211-7.778c4.133-.177 7.622 3.072 7.779 7.211l4.375 100.904a7.499 7.499 0 0 1-7.498 7.839z" class="J"/><path d="m267.263 842.522 178.328-235.877c37.117-55.757 154.095 33.415 119.318 94.403L414.1 1004.7c-36.784 63.808-191.716-97.738-146.837-162.178z" class="F"/><g class="I"><path d="M342.931 734.536c7.532 69.673 106.839 132.958 151.091 118.835-8.193 40.153-19.407 83.057-42.996 112.491-49.758-7.984-163.192-87.562-162.884-167.592 16.885-22.308 38.041-40.869 54.79-63.734z"/><path d="M288.142 798.27c-19.296-1.054-33.973-1.054-40.88 22.257 0 0-29.355-7.77-41.442 40.579 0 0-109.454 208.376 76.61 243.904 128.876 24.608 168.597-139.149 168.597-139.149L288.143 798.269z"/></g><g class="F"><path d="M445.592 606.645c27.491-45.192 105.996-144.872 125.236-156.204s75.687 138.744 61.075 152.207-37.513 76.969-57.222 91.81c-43.753 32.947-129.089-87.813-129.089-87.813z"/><path d="M570.828 450.441c20.238-11.168 98.385-27.659 112.047-26.446s64.614 80.344 71.224 94.326-21.557 48.086-48.929 14.972-37.714-51.634-37.714-51.634l-73.333 20.969-23.294-52.187z"/><path d="M585.316 494.433c21.165-18.035 74.738-40.903 85.916-30.216s35.88 53.486 33.936 69.076-28.317 38.938-38.714 47.609c-24.78 20.665-52.133-13.504-27.002-37.264l16.962-15.606-11.096-15.472-36.942 24.604-23.061-42.731z"/><path d="M599.728 529.714c14.428-12.218 55.966-30.538 67.681-25.084s35.422 58.156 30.526 68.401-27.176 22.509-37.753 29.592c-22.913 15.346-46.023-16.823-20.492-36.12 9.807-7.413 15.159-10.249 15.159-10.249l-3.175-7.501-30.629 19.14-21.318-38.179z"/><path d="M611.17 564.618c9.693-6.46 49.361-22.834 65.233-12.756s13.324 61.828 10.442 69.423-27.543 13.629-41.352 17.892c-24.425 7.539-33.141-28.674-7.334-38.133 9.031-3.31 14.159-3.629 14.159-3.629l-20.416 5.232-20.732-38.03z"/></g><path d="M707.033 532.688a7.503 7.503 0 0 1-7.198-5.408c-3.729-12.791-16.793-47.883-32.258-56.514-11.997-6.696-53.723 13.904-78.144 29.936a7.501 7.501 0 1 1-8.236-12.538c.674-.442 16.716-10.942 35.725-20.111 27.639-13.332 46.599-16.728 57.965-10.385 23.589 13.165 37.808 60.114 39.352 65.424a7.5 7.5 0 0 1-7.206 9.595zm-12.685 22.127a7.505 7.505 0 0 1-7.06-4.968c-4.936-13.723-15.375-34.729-23.129-38.457-10.146-4.882-41.942 11.333-60.039 24.404a7.5 7.5 0 1 1-8.784-12.16c4.843-3.498 17.586-11.843 31.152-18.391 19.981-9.645 34.43-12.055 44.17-7.372 16.003 7.694 28.421 40.425 30.748 46.908a7.501 7.501 0 0 1-7.059 10.036zm-5.899 37.546a7.501 7.501 0 0 1-7.412-6.423c-1.81-12.394-5.941-25.625-8.668-27.756-11.695-7.297-41.521 4.09-57.559 12.994a7.5 7.5 0 0 1-7.281-13.114c5.036-2.797 49.87-26.901 72.846-12.562 9.871 6.162 14.132 28.824 15.506 38.282a7.499 7.499 0 0 1-7.432 8.579zm-56.551 17.789a7.501 7.501 0 0 1-1.858-14.767l20.416-5.232a7.501 7.501 0 0 1 3.725 14.53l-20.416 5.232a7.52 7.52 0 0 1-1.867.237zm78.889-150.499a7.495 7.495 0 0 1-6.441-3.648c-5.483-9.135-16.6-23.297-23.039-24.673-9.632-2.063-71.967 12.944-87.764 18.364a7.502 7.502 0 0 1-9.527-4.661 7.5 7.5 0 0 1 4.66-9.528c10.672-3.661 79.994-22.213 95.766-18.844 15.096 3.226 29.949 26.919 32.773 31.636a7.5 7.5 0 0 1-6.428 11.354z" class="C"/><g class="J"><path d="M205.826 868.609a7.5 7.5 0 0 1-7.335-9.098c5.458-25.061 18.298-36.389 28.107-41.479 5.789-3.004 11.187-4.24 15.103-4.73 7.964-19.947 29.497-23.858 43.329-22.917l52.213-60.737a7.5 7.5 0 0 1 11.375 9.779l-54.789 63.733a7.505 7.505 0 0 1-6.865 2.518c-1.094-.167-27.453-3.938-32.411 16.61a7.51 7.51 0 0 1-7.857 5.719c-.991-.06-25.77-1.018-33.548 34.696a7.503 7.503 0 0 1-7.321 5.906zm-31.942 118.513a7.473 7.473 0 0 1-5.3-2.193c-11.823-11.808-18.239-22.871-30.061-45.299a7.5 7.5 0 0 1 13.27-6.994c12.156 23.063 17.521 31.822 27.391 41.68a7.5 7.5 0 0 1-5.3 12.806z"/><path d="M447.852 973.552c-21.646 0-59.095-18.471-91.708-45.641-26.835-22.354-72.325-68.873-75.491-129.249a7.499 7.499 0 0 1 7.097-7.882c4.12-.248 7.665 2.959 7.882 7.097 2.868 54.682 45.159 97.721 70.113 118.509 32.216 26.838 65.332 41.882 81.262 42.188 18.854-28.25 39.549-106.3 39.763-107.112a7.5 7.5 0 0 1 9.163-5.343 7.502 7.502 0 0 1 5.343 9.163c-.935 3.55-23.135 87.256-44.273 115.113a7.497 7.497 0 0 1-5.008 2.904c-1.305.17-2.688.253-4.142.253z"/><path d="M308.517 1115.548a86.952 86.952 0 0 1-15.698-1.404 7.5 7.5 0 1 1 2.705-14.753c59.296 10.872 131.314-54.767 148.163-135.068a7.5 7.5 0 0 1 14.68 3.08c-8.703 41.483-31.78 81.637-63.313 110.163-27.236 24.639-57.991 37.983-86.536 37.983z"/></g><path d="M1005.394 1303.693 431.3 1204.025c-15.038-2.611-18.384-7.563-7.64-11.051l226.223-73.445c8.933-2.9 27.688-3.539 42.025-1.435l540.577 79.327c17.797 2.612 26.219 7.658 18.648 11.283l-194.031 92.906c-9.328 4.466-32.57 5.405-51.708 2.083z" fill="#656c72"/><path d="M417.376 1197.929v17.245h.003c-.15 2.491 4.676 4.981 13.921 6.586l574.094 99.668c19.138 3.322 42.38 2.383 51.708-2.083l194.031-92.906c1.893-.906 2.786-1.901 2.783-2.925v-17.735c.003 1.024-.89 2.019-2.783 2.925l-194.031 92.906c-9.328 4.466-32.57 5.405-51.708 2.083L431.3 1204.025c-8.459-1.469-13.29-3.707-13.924-6.096z" fill="#374047"/><path d="m1010.862 1281.64-518.041-89.936c-9.754-1.693-13.428-4.401-8.325-6.057l93.07-30.216c4.693-1.524 16.432-1.616 26.333-.198l518.414 74.233c16.497 2.362 26.298 6.094 21.659 8.315l-93.241 44.645c-5.182 2.481-23.147 2.118-39.87-.786z" class="B"/><path d="m1004.478 1321.269-573.885-99.631c-14.654-2.544-27.009-18.665-27.7-36.069l-16.505-415.72c-.739-18.618 10.844-33.2 25.985-32.517l596.517 26.919c20.527.926 37.12 19.463 36.884 41.327l-5.23 485.357c-.218 20.2-16.437 33.743-36.066 30.335z" fill="#656c72"/><path d="M1953.305 542.538c26.932 16.571 41.051 33.684 45.634 46.362 37.246 103.048 11.639 208.14 12.881 290.565 1.407 93.369-14.454 181.131-115.962 247.746-56.556 37.115-229.451-159.168-190.039-204.975 11.948-13.886 29.148-19.439 45.178-16.017 11.587-29.739 28.388-99.739 27.914-174.304-.508-79.845 135.605-213.244 174.394-189.377z" class="D"/><path d="M1470.114 1246.659c-14.379.553-25.994-63.048-9.955-85.723s26.512 15.638 27.1 39.82c.766 31.524-17.145 45.903-17.145 45.903z" class="B"/><path d="m1406.632 1081.087 201.009-68.828c76.649-21.9 134.527 193.187 46.146 197.88l-255.758 17.989c-58.66 5.475-53.185-132.181 8.603-147.041z" class="C"/><path d="M1895.857 1127.211c-13.655 33.873-38.066 64.5-85.648 80.361s-107.001 24.319-126.46 20.09c-25.803 26.962-80.787 35.951-115.68 13.746-4.43-68.154-19.872-147.024-60.271-205.685 0-49.697 89.877-78.75 177.422-65.004-.854-19.073 11.01-38.056 20.597-48.483 35.45-38.555 231.395 102.385 190.039 204.975z" class="D"/><path d="M1771.797 860.535c-8.224 18.82-16.323 34.191-20.801 45.684-16.03-3.421-33.23 2.131-45.178 16.018-6.181 6.723-20.597 30.188-20.597 48.483 130.168-18.294 199.767 94.987 210.636 156.492 81.795-49.551 109.175-118.385 114.211-192.83-62.385-48.615-167.42-86.466-238.271-73.846z" class="H"/><path d="m1507.8 1035.723-65.746 25.473c15.174 11.93 24.662 41.105 33.59 97.527 10.008 63.242 4.705 78.031-5.531 87.936 0 0 77.293-14.325 97.957-5.251 20.671-17.995 7.904-84.932 1.795-109.556-9.907-39.933-33.196-82.228-62.066-96.129z" class="D"/><g class="C"><path d="M1406.632 1081.087c-39.632-9.568-98.403-62.288-121.637-71.802s-32.949 131.459 4.203 165.833 78.462 55.146 108.831 53.01 8.603-147.041 8.603-147.041z"/><path d="M1284.994 1009.285c-33.043-17.542-79.751-34.54-102.204-32.696s-90.175 30.03-105.817 37.087c-24.089 10.868-9.881 51.745 22.351 41.516 37.482-11.896 85.547-25.335 85.547-25.335l86.404 30.754 13.718-51.327z"/><path d="M1279.888 1055.384c-17.063-7.049-90.34-11.984-110.138-4.584s-75.238 43.661-86.549 51.694c-25.621 18.195-3.86 59.392 28.781 41.027l70.613-40.929 98.649 4.011-1.356-51.218z"/><path d="M1287.309 1096.703c-17.474-5.916-95.021-6.5-104.438-3.613s-47.839 27.14-63.939 38.669c-26.327 18.852-.582 56.892 26.448 41.935s53.151-26.989 53.151-26.989l83.716-2.217 5.061-47.785z"/><path d="M1288.31 1134.492c-10.689-4.039-61.775-3.85-70.167-2.637s-50.782 29.764-57.719 38.183c-22.295 27.062 10.407 51.595 33.472 33.582 21.849-17.064 40.143-25.408 40.143-25.408l62.522 3.482z"/></g><path d="M1111.853 1146.166a7.5 7.5 0 0 1-4.162-13.745c2.394-1.593 58.761-39.083 71.654-45.951 2.811-1.497 10.276-5.47 51.591-2.98 21.187 1.278 44.128 3.831 57.465 5.794a7.499 7.499 0 1 1-2.184 14.84c-12.599-1.854-35.554-4.417-56.185-5.661-36.055-2.172-42.966.89-43.635 1.246-12.254 6.527-69.816 44.814-70.396 45.201a7.466 7.466 0 0 1-4.148 1.257zm65.219 17.666a7.5 7.5 0 0 1-5.031-13.064c3.809-3.443 23.398-20.793 34.997-24.16 17.842-5.181 65.316-1.446 82.104.431a7.499 7.499 0 0 1 6.62 8.286 7.5 7.5 0 0 1-8.286 6.62c-23.14-2.585-63.378-4.67-76.257-.933-6.118 1.776-20.711 13.281-29.12 20.883a7.472 7.472 0 0 1-5.027 1.937z" class="E"/><g fill="#cc2bc5"><path d="M1568.064 1248.908a7.5 7.5 0 0 1-6.559-11.125c11.485-20.811 16.068-46.468 1.103-104.044-16.26-62.56-58.557-91.501-58.981-91.786a7.5 7.5 0 0 1-3.133-7.919c9.55-41.336 45.246-66.604 103.229-73.072 32.267-3.602 62.579-.49 75.845 1.313 9.748-36.519 27.763-51.984 41.555-58.522 10.736-5.09 20.577-5.666 26.273-5.419 19.244-30.088 21.9-108.307 23.2-146.635l.832-20.249a7.5 7.5 0 1 1 14.971.931c-.304 4.89-.539 11.812-.811 19.826-2.094 61.702-6.21 129.936-28.685 158.636a7.504 7.504 0 0 1-7.4 2.726c-1.665-.313-42.277-7.129-56.959 58.781a7.507 7.507 0 0 1-8.637 5.753c-1.459-.261-143.708-24.535-167.559 54.64 12.159 9.634 46.088 40.706 60.777 97.224 14.059 54.087 13.361 86.349-2.487 115.065a7.497 7.497 0 0 1-6.573 3.877z"/><path d="M1707.592 980.722c-9.089 0-17.051-.911-24.219-2.734a7.5 7.5 0 0 1-5.42-9.117c1.021-4.014 5.107-6.442 9.117-5.42 12.132 3.084 27.477 3.041 48.294-.146a7.501 7.501 0 0 1 2.268 14.828c-11.281 1.726-21.194 2.589-30.04 2.589zm-23.841 254.439a7.502 7.502 0 0 1-5.17-12.935c10.863-10.332 20.142-32.712 22.8-40.463a7.5 7.5 0 1 1 14.189 4.865c-.439 1.28-10.93 31.515-26.651 46.467a7.477 7.477 0 0 1-5.168 2.065zm119.394-17.82a7.5 7.5 0 0 1-7.288-5.758 7.499 7.499 0 0 1 5.55-9.038c56.943-13.614 80.131-59.111 87.457-78.041a7.499 7.499 0 0 1 3.211-3.77c25.655-14.984 46.363-37.277 71.459-68.39a7.5 7.5 0 1 1 11.676 9.418c-20.919 25.933-43.791 52.689-73.327 70.59-9.157 22.371-35.467 70.072-96.987 84.78a7.476 7.476 0 0 1-1.75.208zm-361.089-148.643a7.5 7.5 0 0 1-2.712-14.495l65.746-25.474a7.497 7.497 0 0 1 9.703 4.283 7.5 7.5 0 0 1-4.283 9.703l-65.746 25.474a7.469 7.469 0 0 1-2.708.509z"/></g></svg></g><g transform="matrix(1.199312 0 0 1.199871 1396.8 525.6)"><svg width="389.223" height="362.039"><g fill="#2471ed"><ellipse cx="194.611" cy="157.749" rx="196.455" ry="155.363" transform="matrix(.974284 -.225325 .225325 .974284 -30.54 47.908)"/><path d="M291.864 285.496c.758 18.578 3.821 52.545 19.349 76.542 0 0-78.565-20.918-96.881-49.885s77.532-26.657 77.532-26.657z"/></g></svg></g><g transform="matrix(1.217796 0 0 1.224873 1538.4 583.2)"><svg width="147.808" height="217.492"><path d="M73.904 0C33.088 0 0 29.952 0 66.901c0 16.82 6.224 32.701 18.173 43.936 13.094 12.311 28.828 33.761 31.154 53.414-.362 15.472 49.516 15.472 49.154 0 2.326-19.654 18.06-41.103 31.154-53.414 11.949-11.235 18.173-27.116 18.173-43.936C147.808 29.952 114.72 0 73.904 0z" fill="#ffd215"/><path d="M98.481 164.252c-3.135.871-12.289 4.027-24.577 4.027s-21.442-3.157-24.577-4.027c0 0-.47 9.957-.47 33.96 0 12.588 12.524 18.982 25.048 19.28 12.524-.299 25.048-6.693 25.048-19.28l-.47-33.96z" class="B"/></svg></g></svg>