<svg xmlns="http://www.w3.org/2000/svg" width="2470" height="3000" xmlns:v="https://vecta.io/nano"><style><![CDATA[.B{fill:#a85f36}.C{fill:#773a11}.D{fill:#007a63}.E{fill:#c83400}.F{fill:#4f2000}.G{fill:#005141}.H{fill:#e3e5e5}.I{fill:#5917c1}]]></style><g transform="matrix(1.766497 0 0 1.768779 421.764706 711.176471)"><svg width="1017.967" height="1139.37"><clipPath id="A"><path d="M412.943 95.186c-2.986 10.262-4.62 21.594-8.986 33.42-4.512 12.222-10.251 17.613-14.541 27.302-1.846 4.171 39.923 16.614 50.54-20.55 10.7-37.452-24.028-50.434-27.014-40.172z"/></clipPath><path d="M435.864 696.333l245.557-29.597c44.531-5.286 159.195-14.546 220.33-6.842 39.272 4.949 64.795 37.887 77.027 83.477 15.913 59.313.278 144.556-112.923 160.9-153.492 22.161-309.98 45.016-445.841 57.046-98.347 8.708-152.305-242.701 15.85-264.984z" class="D"/><path d="M497.891 881.993c15.528-7.321 69.982-18.89 125.291 103.881 23.802 52.834 13.658 96.202-5.511 101.748-2.583.747-6.611.877-9.425.089-23.245-6.511-34.357-24.237-74.811-87.475-48.371-75.614-44.562-113.99-35.543-118.242z" fill="#111"/><path d="M586.116 696.333c-71.873-10.572-215.3-25.11-245.557-29.597-92.618-13.735-242.913-22.811-295.52 24.087-73.289 65.336-19.725 183.387 111.086 213.448 130.292 29.942 333.158 54.542 416.506 50.374 150.116-7.506 144.14-239.094 13.485-258.312z" class="D"/><path d="M404.313 754.862a5 5 0 0 1-4.447-2.707c-12.023-23.277-32.605-48.941-32.811-49.198a5 5 0 0 1 7.789-6.272c.868 1.078 21.414 26.692 33.907 50.88a5 5 0 0 1-4.439 7.296zm-45.868-32.525a4.998 4.998 0 0 1-4.401-2.62c-20.491-37.83-64.078-54.31-64.516-54.472a4.999 4.999 0 0 1 3.458-9.383c1.93.711 47.525 17.876 69.85 59.092a5 5 0 0 1-4.392 7.382z" class="G"/><path d="M729.974 942.265c8.851 78.279-77.464 93.212-114.724 103.231-23.448 6.305-43.33 14.186-104.26 31.679-33.412 9.593-108.615-22.494-112.668-79.119-4.637-64.789 45.64-108.75 99.785-118.44l137.494-24.609c.642-.148 83.338-10.336 94.372 87.259z" class="B"/><path d="M489.871 1070.506l-24.028-19.459s32.116-23.613 23.199-63.609c-7.511-33.689-45.716-58.986-45.716-58.986s-3.336-17.931 1.668-31.691 27.271-27.3 27.271-27.3-11.316-13.417-33.109-12.73c-26.111.823-62.329 31.879-95.073 43.367-49.918 17.514-94.77 14.292-130.1 30.857-42.69 20.015-71.586 63.206-52.816 129.961 18.296 65.07 94.853 79.952 123.593 74.384 48.505-9.398 205.112-64.794 205.112-64.794z" class="H"/><path d="M510.99 1077.174l-25.486-14.85s32.116-23.613 23.199-63.609c-7.511-33.689-45.716-58.986-45.716-58.986s-3.336-17.931 1.668-31.691 27.271-27.3 27.271-27.3-11.316-13.417-33.109-12.73c-26.111.823-62.329 31.879-95.073 43.367-49.918 17.514-94.77 14.292-130.1 30.857-42.69 20.015-71.719 63.243-52.816 129.961 16.49 58.2 82.111 67.243 110.934 62.126 117.416-20.845 219.229-57.146 219.229-57.146z" fill="#f62"/><path d="M401.935 913.465c-5.212 0-10.065-1.471-14.382-5.054a5 5 0 0 1 6.387-7.695c9.118 7.569 26.51-2.349 43.33-11.939 15.078-8.597 30.667-17.487 44.17-16.47a5 5 0 1 1-.752 9.971c-10.453-.788-24.692 7.333-38.465 15.186-13.865 7.906-28.063 16-40.288 16z" class="E"/><g fill="#fff"><path d="M357.568 1093.025a4.999 4.999 0 0 1-3.962-1.951l-60.801-78.993a5 5 0 0 1 7.924-6.099l53.64 69.69 15.975-106.232a5.001 5.001 0 0 1 9.257-1.787l53.178 90.642 13.687-116.724a5 5 0 0 1 9.932 1.164l-15.423 131.528a5 5 0 0 1-9.279 1.948l-53.566-91.303-15.618 103.86a5.001 5.001 0 0 1-4.944 4.257z"/><path d="M329.687 1095.026a5 5 0 0 1-5-4.995l-.098-103.02a5 5 0 0 1 9.078-2.898l59.372 83.693 15.847-112.51a5 5 0 0 1 9.323-1.729l61.341 110.527a5 5 0 1 1-8.744 4.852l-54.099-97.478-15.519 110.184a5.001 5.001 0 0 1-9.03 2.196l-57.555-81.131.083 87.305a5 5 0 0 1-4.995 5.005h-.005z"/></g><path d="M338.117 1095.722c-10.668 0-21.157-3.013-30.315-8.814a56.583 56.583 0 0 1-24.459-33.31c-7.6-28.499 7.542-57.673 35.22-67.862l147.542-54.313a5 5 0 1 1 3.454 9.384L322.017 995.12c-22.8 8.393-35.273 32.425-29.013 55.901 5.506 20.647 24.503 34.684 45.261 34.686 2.747 0 5.521-.245 8.303-.754l147.607-26.991a5 5 0 0 1 1.799 9.837l-147.607 26.991a56.94 56.94 0 0 1-10.252.932z" class="E"/><path d="M863.117 657.463c-21.027 0-36.511 10.615-41.541 22.596-7.091 16.888 0 26.992 0 26.992-82.286 40.031-154.688 56.227-185.514 86.919-5.686 5.662-26.873 8.154-67.679 29.467-33.427 17.458-70.492 58.557-70.492 58.557s16.454-1.48 39.206 13.428c11.544 7.564 26.822 23.255 41.187 41.618 40.448 51.707 61.422 143.387 39.387 150.583 111.006-32.715 167.865-101.748 167.865-101.748 65.684-27.059 138.982-68.371 166.731-85.723 98.234-61.429 99.913-242.688-89.149-242.688z" class="D"/><g class="G"><path d="M785.54 990.875a5.001 5.001 0 0 1-2.846-9.115c56.493-39.012 75.692-64.081 75.879-64.33a5 5 0 1 1 7.987 6.017c-.805 1.068-20.371 26.618-78.184 66.542a4.975 4.975 0 0 1-2.837.886zm-244.167-86.817a4.99 4.99 0 0 1-3.7-1.635c-12.859-14.135-39.717-15.422-39.987-15.433-1.936-.081-3.653-1.274-4.403-3.06a5 5 0 0 1 .895-5.284c1.538-1.705 38.056-41.969 71.89-59.64 23.917-12.491 41.154-18.593 52.561-22.63 6.875-2.434 12.306-4.356 13.906-5.948 19.426-19.342 53.462-32.647 96.553-49.492 27.224-10.643 58.081-22.705 90.301-38.38a5 5 0 0 1 4.374 8.992c-32.58 15.85-63.635 27.99-91.035 38.701-42.007 16.422-75.187 29.392-93.138 47.265-3.195 3.181-8.626 5.104-17.625 8.289-11.141 3.944-27.978 9.903-51.268 22.067-23.941 12.504-50.24 37.925-62.332 50.337 10.481 1.825 26.574 6.354 36.704 17.488a5 5 0 0 1-3.697 8.365z"/><path d="M610.297 832.09a4.997 4.997 0 0 1-4.325-7.498c.305-.528 7.684-13.173 26.372-33.965a5 5 0 1 1 7.437 6.685c-17.892 19.907-25.082 32.165-25.152 32.287a5.002 5.002 0 0 1-4.332 2.492z"/></g><path d="M489.653 858.834l22.103 149.777c7.5 55.896-3.455 99.572-27.477 94.218-34.815-7.759-80.528-72.084-61.346-145.682 24.139-92.618 66.721-98.313 66.721-98.313z" fill="#111"/><path d="m532.109 1073.506 24.028-19.459s-32.116-23.613-23.199-63.609c7.511-33.689 45.716-58.986 45.716-58.986s3.336-17.931-1.668-31.691-27.271-27.3-27.271-27.3 11.316-13.417 33.109-12.73c26.111.823 62.329 31.879 95.073 43.367 49.918 17.514 94.77 14.292 130.1 30.857 42.69 20.015 71.586 63.206 52.816 129.961-18.296 65.07-94.853 79.952-123.593 74.384-48.505-9.398-205.112-64.794-205.112-64.794z" class="H"/><path d="M629.993 1010.282c23.146-78.388-62.357-109.197-98.622-126.147-22.823-10.667-41.718-22.301-100.822-51.152-32.411-15.821-115.032 3.415-129.374 60.542-16.41 65.364 27.041 119.34 80.618 138.996l136.053 49.916c.63.267 83.289 25.576 112.147-72.155z" class="B"/><path d="M517.845 1082.437l18.631-17.113s-32.116-23.613-23.199-63.609c7.511-33.689 45.716-58.986 45.716-58.986s3.336-17.931-1.668-31.691-27.271-27.3-27.271-27.3 11.316-13.417 33.109-12.73c26.111.823 62.329 31.879 95.073 43.367 49.918 17.514 94.77 14.292 130.1 30.857 42.69 20.015 71.719 63.243 52.816 129.961-16.49 58.2-82.111 67.243-110.934 62.126-117.416-20.845-212.374-54.882-212.374-54.882z" fill="#f62"/><path d="M620.045 916.465c-12.226.001-26.422-8.094-40.288-16-13.773-7.853-28.017-15.973-38.465-15.186a4.996 4.996 0 0 1-5.362-4.61 4.999 4.999 0 0 1 4.61-5.361c13.499-1.018 29.091 7.873 44.17 16.47 16.82 9.59 34.213 19.507 43.33 11.939a5 5 0 1 1 6.387 7.695c-4.316 3.583-9.171 5.054-14.382 5.054z" class="E"/><g fill="#fff"><path d="M664.413 1096.025a5 5 0 0 1-4.944-4.257l-15.618-103.86-53.566 91.303a4.999 4.999 0 0 1-9.279-1.948l-15.423-131.528a5 5 0 0 1 9.932-1.164l13.687 116.724 53.178-90.642a5 5 0 0 1 9.257 1.787l15.975 106.232 53.64-69.69a5 5 0 0 1 7.924 6.099l-60.801 78.993a5.003 5.003 0 0 1-3.962 1.951z"/><path d="M692.293 1098.026h-.005a5 5 0 0 1-4.995-5.005l.083-87.305-57.555 81.131a5.001 5.001 0 0 1-9.03-2.196l-15.519-110.184-54.099 97.478a5 5 0 0 1-8.744-4.852l61.341-110.527a5 5 0 0 1 9.323 1.729l15.847 112.51 59.373-83.693a5.001 5.001 0 0 1 9.078 2.898l-.098 103.02a5 5 0 0 1-5 4.995z"/></g><path d="M683.863 1098.721a56.95 56.95 0 0 1-10.252-.932l-147.607-26.991a5 5 0 1 1 1.799-9.837l147.607 26.991c23.802 4.352 47.33-10.552 53.564-33.932 6.26-23.475-6.213-47.508-29.013-55.901l-147.542-54.313a5 5 0 0 1 3.454-9.384l147.542 54.313c27.679 10.189 42.82 39.363 35.22 67.862a56.58 56.58 0 0 1-24.459 33.31 56.578 56.578 0 0 1-30.315 8.814z" class="E"/><path d="M135.663 659.158c34.56-2.649 60.6 33.728 115.025 54.425 98.629 37.507 138.561 52.769 201.955 81.777 14.907 7.694 37.01 63.474 37.01 63.474s-57.822 59.49-54.486 142.054c2.503 61.951 27.077 94.746 49.112 101.941-115.089-18.558-247.834-116.955-247.834-116.955-65.684-27.059-139.435-67.665-166.731-85.723-105.676-69.912-96.99-228.502 65.949-240.993z" class="D"/><path d="M462.909 900.807a5 5 0 0 1-4.302-7.541c11.164-18.927 20.938-30.702 25.215-35.494-8.751-21.214-24.529-53.451-33.434-57.949-13.077-6.605-98.531-43.69-201.428-81.548a5 5 0 1 1 3.453-9.385c103.275 37.997 189.281 75.339 202.483 82.006 15.397 7.776 35.519 56.406 39.397 66.076a5 5 0 0 1-1.088 5.379c-.115.116-11.988 12.264-25.985 35.994a4.997 4.997 0 0 1-4.311 2.46zM236.44 990.875c-.98 0-1.969-.287-2.837-.886-57.813-39.923-77.379-65.474-78.184-66.542a5 5 0 0 1 7.987-6.017c.185.244 19.64 25.494 75.879 64.33a5 5 0 0 1-2.846 9.115z" class="G"/><g class="B"><path d="M560.955 279.46l-100.749 4.969-100.239 28.722s-25.942 42.865-20.469 171.673l.959 21.361c4.117 87.177 74.833 156.392 162.075 158.733 91.451 2.453 168.016-69.229 171.1-160.661.377-11.181.508-22.603.326-34.152-1.654-104.664-19.398-158.598-19.398-158.598l-93.606-32.047z"/><rect height="186.935" rx="49.738" transform="matrix(.999979 .006493 -.006493 .999979 1.728 -3.312)" width="101.294" x="460.343" y="171.084"/></g><path d="M476.98 37.635c-9.953-8.295-32.784-12.364-40.187 1.226 0 0-19.553 5.771-20.609 19.948 0 0-15.524-5.11-22.675 8.881s-19.991 2.193-23.469 15.978c-3.765 14.924 16.857 19.891 3.105 28.568 11.338 1.181 18.383-5.486 10.251-17.451-3.01-4.429-.242-11.377 6.773-9.837 10.916 2.398 29.807.047 44.171-4.749 11.942-3.988 31.898-29.03 31.898-29.03l10.743-13.534z" class="F"/><path d="M430.044 68.189c-19.552 15.088-17.356 36.767-26.087 60.417-6.454 17.483-15.419 20.988-19.061 43.091-4.545 27.581 29.37 79.911 52.828 83.905 29.997 5.107 84.458-3.072 114.207-27.748 28.23-23.414 40.395-72.522 24.45-113.063-28.428-72.281-101.931-80.87-146.337-46.602z" class="B"/><g class="F"><path d="M553.353 44.402c0-21.167 23.138-41.04 33.01-24.397 0 0 18.447-16.178 27.17-6.588 5.459 6.001 3.342 17.276 3.342 17.276 11.43-5.674 32.713-.514 35.428 24.093 0 0 24.346 8.94 10.806 32.125 13.887 20.393 16.303 51.284-6.01 60.679 0 0-9.194 26.063-42.177 21.197-40.713-32.085-57.883-70.534-61.569-124.387z"/><path d="M466.237 51.169c6.804-19.731 34.311-24.422 58.537-16.396 7.74-6.72 21.358-8.846 32.588 4.209 12.289 1.05 19.972 9.938 22.852 24.887 26.163 2.694 31.698 15.922 35.735 50.612 9.744 5.938 11.778 24.898.474 38.432 11.837 13.245 7.415 42.247-7.65 49.27 0 0-.949 23.966-23.536 26.374-13.322 1.42-12.387 25.09 3.997 17.112-2.708 10.493-28.456 16.727-27.428-6.974l.14-19.548 16.491-30.391s-33.266-19.362-33.547-68.391c-.261-45.544-42.992-72.054-78.654-69.196z"/></g><path d="M567.158 175.633c9.01-7.67 36.284-16.67 35.782 12.691-.487 28.519-34.048 40.74-44.57 29.524-9.195-9.801 2.173-36.584 8.788-42.215z" class="B"/><path d="M541.75 98.127c6.306 17.056-8.484 33.78-8.396 47.658.12 18.982 27.098 37.145 2.383 41.528 11.032 4.689 23.115 1.494 20.174-17.328-3.852-24.661 14.339-22.812 6.676-45.194-2.74-8.004-20.838-26.664-20.838-26.664z" class="F"/><ellipse cx="493.824" cy="137.125" fill="#fff" rx="24.711" ry="21.722" transform="matrix(.249941 -.968261 .968261 .249941 237.623 581.001)"/><g fill="#111"><ellipse cx="488.77" cy="134.358" rx="17.929" ry="12.913" transform="matrix(.249941 -.968261 .968261 .249941 236.51 574.033)"/><path d="M483.248 100.494c-11.247 1.799-14.156-15.827-3.921-19.092 13.707-4.373 36.553 2.787 50.887 23.845 5.536 8.133-1.346 11.732-5.78 7.804-11.678-10.344-25.628-15.046-41.186-12.558zm-50.945-3.531c10.577 2.472 16.826-14.047 8.949-17.108-14.077-5.471-35.816 3.651-41.944 8.801-7.168 6.023-6.033 12.024 2.73 9.231s21.135-3.057 30.265-.923z"/></g><path d="M490.601 51.982c6.825 4.88 5.385 12.311.958 19.858-5.904 10.066 3.977 25.571 17.629 22.944-11.3-5.349-7.376-15.653-1.435-23.628 6.406-8.6 10.246-22.2-.68-26.755s-16.472 7.58-16.472 7.58z" class="F"/><g class="C"><path d="M452.597 169.216a5 5 0 0 1-4.449-2.711c-3.478-6.749-9.136-8.7-12.042-7.929-.679.18-2.485.658-2.34 4.073a5 5 0 1 1-9.991.423c-.299-7.06 3.445-12.486 9.77-14.162 7.339-1.945 17.766 1.901 23.493 13.015a5 5 0 0 1-4.44 7.291zm115.987 43.094a5 5 0 0 1-4.966-5.64c1.644-12.756 9.988-21.822 24.13-26.219a5 5 0 1 1 2.969 9.549c-10.278 3.195-16.058 9.234-17.181 17.948a5 5 0 0 1-4.953 4.361z"/><path d="M584.576 205.715a4.985 4.985 0 0 1-3.375-1.312l-8.756-8.015a5 5 0 1 1 6.752-7.376l8.756 8.015a5 5 0 0 1-3.378 8.688z"/></g><path d="M487.555 192.48c5.643 2.388 3.627 21.164-12.292 27.038-18.724 6.908-33.775-5.153-33.221-12.318s12.117.21 24.288-4.025 16.115-12.857 21.226-10.694z" fill="#fff"/><path d="M462.133 262.284a5 5 0 0 1-.15-9.998c14.458-.441 40.657-4.935 52.767-10.068a5 5 0 1 1 3.903 9.207c-13.294 5.635-40.722 10.379-56.365 10.856-.052.002-.104.002-.155.002z" class="C"/><path d="M622.987 174.389a5 5 0 0 1-4.937-5.828c.496-2.955-2.909-9.191-5.557-12.557a5 5 0 0 1 .307-6.539c4.441-4.667 6.698-11.684 6.037-18.77-.499-5.352-2.671-9.897-5.811-12.158a4.998 4.998 0 0 1-2.074-3.88c-.593-16.72-6.145-31.522-14.852-39.597-4.681-4.34-9.956-6.425-15.687-6.196a4.997 4.997 0 0 1-5.138-4.213c-3.136-19.783-16.457-20.638-17.965-20.67-2.761 0-4.974-2.238-4.974-5s2.264-5 5.026-5c7.521 0 22.177 5.355 26.975 25.023 6.757.692 13.106 3.662 18.563 8.723 10.199 9.458 16.826 25.903 17.938 44.314 4.418 4.132 7.278 10.445 7.957 17.725.787 8.438-1.462 16.89-6.091 23.369 2.652 4.103 6.23 10.992 5.209 17.08a5.001 5.001 0 0 1-4.925 4.173zM466.239 56.17a4.999 4.999 0 0 1-4.811-6.37c1.696-5.956 5.946-11.414 12.632-16.224a5 5 0 0 1 5.84 8.118c-4.811 3.461-7.79 7.11-8.854 10.845a5.003 5.003 0 0 1-4.806 3.632zm89.138 111.509a5 5 0 0 1-4.995-4.848c-.238-7.806 2.938-13.047 5.49-17.258 3.313-5.466 5.706-9.416 2.045-18.997a4.999 4.999 0 1 1 9.341-3.569c5.407 14.151.838 21.691-2.834 27.75-2.344 3.867-4.195 6.922-4.047 11.77a5 5 0 0 1-5.001 5.152z" fill="#111"/><g clip-path="url(#A)"><ellipse cx="413.947" cy="127.719" fill="#fff" rx="22.372" ry="19.666" transform="matrix(.249941 -.968261 .968261 .249941 186.818 496.605)"/><ellipse cx="411.366" cy="124.918" fill="#111" rx="16.46" ry="11.855" transform="matrix(.249941 -.968261 .968261 .249941 187.595 492.005)"/></g><g class="B"><path d="M129.789 344.174c48.892-7.725 39.848-56.051 39.848-56.051l-15.5-82.203s6.154-40.218-8.425-72.559C123.149 83.31 16.131 122.637 26.075 152.642c7.785 23.489 18.914 58.926 39.995 80.058l-1.123 68.937s.625 52.683 64.841 42.536z"/><path d="M135.419 111.682L87.234 7.838c-7.173-15.526-36.1-6.308-27.933 12.985l43.654 103.119 32.463-12.259zm-81.107 47.942l-17.221-47.69c-4.136-11.467-25.542-2.514-20.353 13.46 4.281 13.177 6.93 20.668 14.602 42.607 5.58 15.955 28.579 6.783 22.971-8.377z"/></g><path d="M42.351 181.101c-1.005 0-2.009-.089-3.001-.27-5.8-1.063-10.35-5.169-12.482-11.265a4.738 4.738 0 1 1 8.946-3.128c1.019 2.915 2.784 4.621 5.244 5.072 2.725.499 5.927-.699 7.788-2.913 1.182-1.407 2.32-3.82 1.022-7.327a4.739 4.739 0 0 1 8.888-3.288c2.212 5.98 1.244 12.071-2.655 16.712-3.411 4.059-8.577 6.409-13.75 6.409z" class="C"/><path d="M80.307 148.468l-21.34-53.827c-4.792-12.242-31.108-1.552-24.316 17.21l17.023 45.976c6.281 16.899 34.663 6.238 28.633-9.359z" class="B"/><path d="M64.362 171.153c-1.128 0-2.249-.088-3.349-.269-6.46-1.065-11.483-5.222-13.781-11.406l-18.791-49.524a4.738 4.738 0 0 1 8.844-3.404l18.83 49.627c1.128 3.036 3.295 4.839 6.44 5.357 4.294.708 9.538-1.228 12.2-4.502 1.725-2.121 2.095-4.364 1.132-6.855l-11.45-28.92-9.883-24.889a4.74 4.74 0 0 1 8.826-3.455l9.858 24.827 11.489 29.019c2.17 5.612 1.215 11.535-2.618 16.25-4.101 5.044-11.047 8.143-17.746 8.143z" class="C"/><path d="M86.36 83.537c-7.275-18.714-33.691-4.993-28.603 8.035l20.2 50.363c5.779 14.403 32.214 6.12 27.899-10.188L86.36 83.537z" class="B"/><path d="M89.873 154.065c-6.766 0-13.408-3.124-16.314-10.366a9240.317 9240.317 0 0 0-11.499-28.537L53.986 94.94a4.74 4.74 0 0 1 8.826-3.454l8.034 20.121 11.509 28.562c2.129 5.307 8.362 4.845 11.709 3.735 4.221-1.399 8.61-5.027 7.279-10.679L81.945 85.253a4.738 4.738 0 1 1 8.833-3.433l19.467 48.138c.077.188.141.381.193.577 2.996 11.324-4.842 19.532-13.392 22.366a22.911 22.911 0 0 1-7.172 1.164z" class="C"/><path d="M156.25 217.122c8.28-18.012 31.579-91.327 10.932-108.851-7.224-6.131-23.084-18.995-46.752-35.232-20.202-13.859-38.819 13.026-19.858 29.088l35.703 30.033c-27.336 12.416-32.768 44.369-21.582 66.164 14.169 27.61 41.557 18.798 41.557 18.798z" class="B"/><path d="M114.697 203.064a4.74 4.74 0 0 1-4.22-2.576c-6.741-13.135-7.846-29.359-2.956-43.398 3.813-10.948 10.788-19.747 20.361-25.784l-30.373-25.564c-12.006-10.169-11.578-24.279-4.95-32.961 5.938-7.778 18.031-12.238 30.551-3.65a4.739 4.739 0 0 1-5.361 7.815c-7.966-5.465-14.491-2.562-17.657 1.586-3.791 4.966-4.3 13.336 3.542 19.979l35.684 30.017a4.739 4.739 0 0 1-1.084 7.946c-13.252 6.019-19.15 16.228-21.764 23.733-4.054 11.639-3.143 25.08 2.438 35.954a4.738 4.738 0 0 1-4.212 6.903z" class="C"/><g class="I"><path d="M364.137 415.062c-38.641-56.988-92.444-40.887-120.513-25.248l-46.537 25.612c-62.294 37.721-17.847 181.214 47.307 166.082 16.684-3.875 62.616-19.973 91.631-42.669 45.278-35.416 48.739-93.354 28.111-123.777z"/><path d="M233.344 467.977c5.664-45.099-7.185-84.476-20.293-109.331-12.103-22.949 3.892-52.182-45.93-83.874-32.069-20.399-87.877-1.9-102.098 12.801-18.891 19.528-28.955 54.937-14.31 113.074 9.269 36.794 10.32 53.02 13.862 74.796 6.299 38.724 29.247 105.112 110.947 113.368 27.234 2.752 47.35-1.35 68.872-7.303 54.375-15.04-17.863-59.279-11.05-113.531z"/><path d="m159.315 233.376 10.323 54.748c-12.327 22.274-80.296 33.116-104.69 13.514l.947-58.134c21.781 10.604 80.345 6.898 93.42-10.128z"/></g><g fill="#330096"><path d="M233.346 472.978a5 5 0 0 1-4.777-6.484c5.258-16.938 3.651-41.269-4.408-66.753a5 5 0 1 1 9.535-3.015c8.66 27.383 10.272 53.893 4.424 72.733a5.001 5.001 0 0 1-4.774 3.519zm-154.502-30.03a4.976 4.976 0 0 1-3.352-1.292l-.297-.269c-7.695-6.958-20.573-18.603-29.089-38.797a5 5 0 0 1 9.214-3.886c7.654 18.151 19.045 28.45 26.582 35.266l.298.27a5 5 0 0 1-3.356 8.708zm3.434-108.155a5 5 0 0 1-4.955-4.381c-1.907-15.265 1.087-29.088 8.429-38.924a5 5 0 1 1 8.014 5.982c-5.789 7.755-8.105 19.013-6.52 31.702a5 5 0 0 1-4.968 5.62zm25.981-9.215a4.998 4.998 0 0 1-4.423-2.662c-3.031-5.726-5.994-21.526-.609-30.059a5 5 0 1 1 8.457 5.337c-2.81 4.453-1.058 16.174.99 20.044a5 5 0 0 1-4.415 7.34zm58.899-9.026a5 5 0 0 1-4.982-5.487c.698-7.135-4.092-16.05-11.917-22.183a5 5 0 1 1 6.169-7.871c10.571 8.285 16.734 20.463 15.701 31.027a5.001 5.001 0 0 1-4.97 4.514z"/><path d="M103.768 300.29c-18.35 0-34.125-3.635-41.745-9.885a5 5 0 0 1 6.342-7.732c13.732 11.263 73.907 12.022 95.054-11.263a5 5 0 0 1 7.403 6.723c-10.947 12.054-31.642 19.995-56.78 21.787-3.487.249-6.925.37-10.274.37z"/></g><g fill="#ff5cf0"><path d="m334.504 665.856 7.671-43.967 308.236-2.283 5.893 50.076s-25.017 19.264-143.998 29.211c-108.718 9.089-180.095-26.158-177.803-33.036z"/><path d="M801.357 421.21c-37.181-43.186-72.631-90.423-120.621-105.441l-62.777-21.592a7.49 7.49 0 0 0-8.484 2.939c-10.376 15.329-45.323 67.448-119.059 55.772-39.919-6.321-59.497-40.11-63.425-55.17-1.073-4.114-5.376-6.488-9.442-5.244l-74.12 21.152c-50.687 14.982-70.888 55.941-99.805 76.188 22.103 6.901 63.802 36.924 80.297 109.838-2.107 12.888-4.325 24.173-6.623 32.819-10.729 40.36-16.391 93.511 23.261 106.423 84.435 27.496 222.342 31.643 312.692 13.655 40.648-8.093 30.416-80.239 30.198-116.698 15.946 21.821 67.653 31.828 103.514 2.987 54.405-43.755 27.527-99.571 14.394-117.628z"/></g><g fill="#cc2bc5"><path d="M528.527 668.437c-69.107 0-139.774-8.59-189.516-24.789a5 5 0 1 1 3.096-9.508c80.423 26.189 216.664 32.121 310.168 13.505a5 5 0 1 1 1.953 9.807c-37.22 7.41-81.14 10.984-125.701 10.984zm-20.22-279.898c-1.727 0-3.467-.024-5.234-.074-48.546-1.364-76.068-25.582-90.608-45.658-15.686-21.658-19.864-42.8-20.034-43.689a5 5 0 0 1 9.82-1.887c.039.199 4.036 20.147 18.542 40.025 19.228 26.348 47.005 40.214 82.561 41.212 41.518 1.167 76.208-11.777 103.102-38.471 20.028-19.879 27.882-40.13 27.958-40.332a5 5 0 0 1 9.346 3.558c-.346.908-8.715 22.488-30.26 43.872-19.242 19.099-52.936 41.444-105.193 41.444z"/><path d="M372.59 652.765a5.02 5.02 0 0 1-1.265-.163c-23.382-6.099-26.258-35.002-26.369-36.229a5 5 0 0 1 9.958-.911c.024.256 2.393 23.149 18.935 27.464a5 5 0 0 1-1.259 9.839zM322.203 514.68a5.001 5.001 0 0 1-4.893-6.054c6.885-31.957-.812-48.308-.891-48.469a5 5 0 0 1 8.992-4.376c.383.786 9.28 19.654 1.675 54.951a5.001 5.001 0 0 1-4.883 3.948zm282.257-60.05a5.001 5.001 0 0 1-4.003-7.991c27.526-36.886 40.966-97.543 41.099-98.151a5 5 0 0 1 9.771 2.129c-.56 2.571-14.047 63.398-42.855 102.003a4.992 4.992 0 0 1-4.011 2.01zm25.643 82.176a5 5 0 0 1-3.916-8.105c12.106-15.286 37.129-56.599 37.38-57.015a5 5 0 1 1 8.556 5.176c-1.04 1.719-25.604 42.272-38.097 58.047a4.992 4.992 0 0 1-3.923 1.896z"/></g><path d="M880.246 522.196c-14.461-19.099-27.175-34.496-38.024-47.903-14.33-17.708-18.773-27.47-40.865-53.082-11.183 1.149-87.088 36.66-121.17 114.777 3.504 22.337 36.448 69.684 46.313 80.481 64.008 70.054 202.865-29.398 153.746-94.272z" class="I"/><path d="M683.908 555.78a4.998 4.998 0 0 1-4.992-4.799c-.011-.282-.274-7.002 0-15.113.922-27.42 7.683-65.194 10.176-73.14a5 5 0 0 1 9.541 2.993c-2.457 7.831-8.864 44.93-9.723 70.483-.26 7.725-.004 14.312 0 14.377a5 5 0 0 1-4.999 5.199z" fill="#cc2bc5"/><g class="B"><path d="M636.662 678.321c10.991 21.798-4.73 46.312-16.075 52.359-2.087 8.939-18.906 25.062-30.08 31.568-9.093 5.294-22.356 10.524-30.864 12.541-45.324 10.744-87.092-72.933-68.475-82.966l75.157-40.378s42.581-28.168 70.336 26.877z"/><path d="M491.169 691.822c-17.269 8.001-30.707 47.796-32.502 57.902-1.421 8 2.826 16.789 19.39 58.656 6.551 16.557 34.267 7.195 27.239-11.347l-14.3-37.729 25.065-49.317-24.891-18.166z"/><path d="M507.424 706.12s-23.635 41.761-24.955 48.273 1.329 13.796 14.834 62.311c4.264 15.316 32.498 8.842 28.162-8.284l-11.713-46.269 22.832-43.059-29.161-12.973z"/><path d="M517.125 718.537s-16.621 43.011-17.13 50.235 4.769 17.036 18.654 49.87c6.627 15.671 33.787 4.308 26.988-12.131l-14.826-35.845 14.67-38.97-28.355-13.158z"/><path d="M538.131 746.543s2.722-5.126-10.586 21.032c-5.601 11.008-.147 26.315 7.535 29.949 23.867 11.288-4.937-2.335 17.989 8.537 17.529 8.313 28.883-17.495 11.931-25.941-3.496-1.742-6.07-3.303-6.07-3.303l10.794-13.498-31.593-16.777z"/></g><path d="M541.893 807.005a4.98 4.98 0 0 1-1.996-.418c-19.948-8.7-23.24-28.197-20.629-38.442 3.568-14.003 8.94-32.831 8.994-33.019a5 5 0 0 1 9.616 2.746l-8.919 32.742c-1.518 5.959.135 20.351 14.936 26.807a5 5 0 0 1-2.001 9.584zm17.032-25.187a4.981 4.981 0 0 1-2.386-.609l-11.005-5.99a4.999 4.999 0 0 1-2.001-6.782 5 5 0 0 1 6.782-2.002l11.005 5.99a4.999 4.999 0 0 1 2.001 6.782 5 5 0 0 1-4.396 2.611zm-63.528 38.832a5.003 5.003 0 0 1-4.748-3.435l-13.391-41.403c-3.909-13.28-4.019-22.968-.345-30.489l16.577-33.935a5 5 0 1 1 8.985 4.389l-16.577 33.935c-2.511 5.141-2.209 12.537.952 23.276 2.156 7.323 13.183 40.758 13.294 41.094a5 5 0 0 1-4.749 6.568zm25.269 6.315a5.003 5.003 0 0 1-4.594-3.021l-17.66-40.941c-4-9.617-2.365-19.837-.945-23.906l12.734-36.49a5 5 0 0 1 9.441 3.295l-12.734 36.49c-.738 2.116-2.193 9.728.711 16.71l17.635 40.881a4.999 4.999 0 0 1-4.589 6.981z" class="C"/><g class="I"><path d="M881.702 654.265c-11.714 9.805-29.574 11.646-47.803 17.48-32.709 10.468-65.741 28.717-94.996 45.799-29.636 17.305-58.581 22.309-81.991-6.32-3.518-4.302-50.458-62-56.083-85.634-1.748-7.346 2.575-14.416 6.853-19.599 15.637-18.945 73.074-57.479 129.506-81.347 26.796-11.333 42.483-19.064 54.174-26.082 37.861-22.731 74.761 6.613 88.885 23.634 27.018 32.557 42.864 97.41 1.456 132.069z"/><path d="M603.074 626.432l-36.748 25.011c23.819 12.792 55.51 60.051 54.262 79.236l36.324-19.455c54.397-29.693 20.687-134.345-53.838-84.792z"/></g><g fill="#330096"><path d="M776.26 680.783a5 5 0 0 1-1.229-9.847c1.465-.372 36.254-9.113 68.679-8.331a5 5 0 1 1-.241 9.997c-31.02-.745-65.629 7.938-65.975 8.026a5.004 5.004 0 0 1-1.234.155zM668.054 564.9a4.998 4.998 0 0 1-2.341-9.421c2.443-1.292 60.523-31.391 119.801-9.197a5 5 0 1 1-3.507 9.365c-55.113-20.634-111.061 8.377-111.62 8.672a4.979 4.979 0 0 1-2.333.581zm-49.094 78.153a4.973 4.973 0 0 1-4.881-3.984c-.145-.714-3.353-17.613 13.447-29.176a5.001 5.001 0 0 1 5.67 8.238c-11.224 7.726-9.391 18.539-9.307 18.996.494 2.698-1.274 5.314-3.967 5.834a5.102 5.102 0 0 1-.962.092zm53.642 64.372c-7.829 0-15.646-1.859-20.711-5.344a5 5 0 0 1 5.669-8.238c5.653 3.89 18.01 4.771 25.926 1.847a5 5 0 0 1 3.465 9.381c-4.305 1.59-9.33 2.355-14.349 2.355z"/><path d="M656.905 716.225a5 5 0 0 1-4.962-4.438c-5.081-44.883-35.743-72.581-51.246-80.956a5.002 5.002 0 0 1 4.753-8.799c17.093 9.233 50.883 39.64 56.429 88.629a5 5 0 0 1-4.975 5.563zm182.459-213.224a5.004 5.004 0 0 1-4.816-3.666L822.89 457.26a5 5 0 0 1 9.637-2.671l11.658 42.075a5 5 0 0 1-4.821 6.337z"/></g></svg></g><g transform="matrix(1.760067 0 0 1.759096 250.588235 277.058824)"><svg width="236.622" height="201.641"><rect fill="#40b509" height="201.641" rx="41.853" width="201.641"/><path d="M97.956 153.282a11.37 11.37 0 0 1-8.067-3.342L31.222 91.273a11.41 11.41 0 0 1 16.134-16.135l50.6 50.6L217.146 6.55a11.41 11.41 0 0 1 16.134 0 11.41 11.41 0 0 1 0 16.135L106.023 149.942a11.372 11.372 0 0 1-8.067 3.342z" class="H"/></svg></g></svg>