<svg xmlns="http://www.w3.org/2000/svg" width="3000" height="2171" xmlns:v="https://vecta.io/nano"><style><![CDATA[.B{fill:#111}.C{fill:#de8f74}.D{fill:#f2b9a9}.E{fill:#5ac2fd}.F{stroke-linecap:round}.G{stroke-linejoin:round}.H{stroke-width:15}.I{fill:#fff}.J{fill:#e82786}.K{fill:#2197cc}.L{fill:#fd6622}.M{fill:#8d949c}.N{fill:#e1e3e3}.O{fill:#5917be}.P{stroke:#a66036}.Q{stroke:#330094}]]></style><g transform="matrix(-.992202 .017527 .017532 .992467 1756.962195 1331.863804)"><svg width="688.569" height="604.46"><g class="M"><path d="M274.762 580.62 60.785 377.096c-4.331-4.119 1.235-8.609 12.345-10.073l278.266-36.669c10.187-1.342 23.375.5 29.556 4.154l300.6 177.695c11.026 5.818 8.554 13.529-3.902 15.66l-362.01 61.763c-14.682 2.505-33.069-1.578-40.878-9.006z"/><path d="m59.31 374.225-.767 13.918c-.065 1.005.402 2.039 1.465 3.05l213.977 203.524c7.809 7.428 26.196 11.511 40.878 9.006l362.011-61.763c6.524-1.113 10.199-3.433 10.893-6.272l.736-16.312c.007 4.136-2.697 7.096-10.852 8.488L315.64 589.626c-14.682 2.505-33.069-1.578-40.878-9.006L60.785 377.096c-1-.951-1.473-1.923-1.471-2.872z"/></g><path d="M448.164 462.285c-4.089 0-8.473-1.168-11.188-3.095l-75.702-53.676c-2.427-1.721-3.487-4.269-2.839-6.817.431-1.691 1.979-4.626 7.512-5.283l80.085-9.501c3.527-.422 8.861.243 12.231 2.318l82.143 50.587c4.241 2.613 4.058 5.994 3.781 7.326-.285 1.381-1.538 4.677-6.984 5.466l-86.295 12.485a19.21 19.21 0 0 1-2.744.19zm-73.863-59.792 68.46 48.54.002.001c1.007.715 4.268 1.52 6.713 1.165l78.412-11.345-74.869-46.107c-.872-.538-3.698-1.149-5.811-.904z" fill="#656c72"/><path d="M283.426 562.775 93.919 385.177c-3.581-3.356-.897-6.781 5.951-7.684l159.502-21.019c6.642-.875 15.669.955 20.217 4.118L519 527.144c7.678 5.341 7.049 10.785-1.518 12.09L310.718 570.74c-8.921 1.36-21.183-2.24-27.292-7.965z" class="B"/><path d="M269.463 593.023 46.823 381.169c-4.54-4.32-8.141-17.435-8.097-29.395L0 21.741C.05 8.096.531-2.318 8.907.447l246.274 96.748c9.153 3.596 15.875 21.777 14.857 40.427l15.665 441.308c-.849 15.553-8.176 21.766-16.24 14.093z" class="M"/><path d="M305.642 595.56c-9.598 0-17.318-2.789-25.075-8.784a4.999 4.999 0 0 1-.899-7.014 4.997 4.997 0 0 1 7.014-.898c7.137 5.515 14.026 8.237 28.118 5.833l362.01-61.763 1.682 9.857-362.01 61.763c-3.897.666-7.483 1.006-10.84 1.006z" fill="#656c72"/></svg></g><g transform="matrix(.99133 0 0 .990919 1472.727273 388.760331)"><svg width="1424.582" height="988.814"><path d="M458.473 927.376l16.9 7.46c145.81 62.22 306.77 76.54 432.91 11.61 20.76-8.82 40.97-18.94 60.59-30.24l7.28-4.24c9.41-5.59 18.68-11.46 27.8-17.59.02-.02.03-.03.05-.04a599.173 599.173 0 0 0 31.42-22.59c.01-.01.02-.02.03-.02 33.26-25.52 64.16-54.52 92.22-86.24 108.05-122.14 173.96-284.55 170.18-443.59-20.43-238.26-235.72-342.05-438.9-228.55l-6.88 3.79-1.11.61a805.725 805.725 0 0 1-28.33 14.69c-22.36 10.99-43.12 19.75-62.63 26.73-7.74 2.78-15.29 5.28-22.67 7.52a444.06 444.06 0 0 1-21.39 5.94c-20.85 5.26-40.38 8.56-59.19 10.65l-10.46 1.06c-11.71 1.06-23.17 1.69-34.53 2.08-35.14 1.22-69.33.15-106.91 2.29-45.82 2.6-96.7 9.97-160.51 32.09-178.74 61.95-285.97 195.78-236.03 356.54 29.46 86.42 90.6 167.71 169.04 234.82 53.69 45.96 115.48 85.27 180.77 115.07zm773.124-133.351c100.258-154.256 148.165-356.142 118.972-543.311C1323.411 123.153 1255.375 37.105 1171.434 0c114.991 9.632 214.101 93.023 246.222 237.319 31.149 196.322-44.847 412.426-186.059 556.706zm-1047.718 3.566C108.149 731.427 36.95 645.427 8.2 561.091c-28.86-92.906 23.161-170.266 82.761-236.5-31.115 64.836-53.53 144.86-34.58 226.651 22.34 87.885 74.998 171.656 127.498 246.35z" fill="#fdd016"/></svg></g><g transform="matrix(.99104 0 0 .991034 76.363636 855.867769)"><svg width="1373.963" height="948.671"><g fill="#5917c1"><ellipse cx="688.919" cy="474.335" rx="434.898" ry="626.668" transform="matrix(.419405 -.907799 .907799 .419405 -30.619 900.795)"/><path d="M83.336 194.552c13.799-29.868 31.761-56.926 53.282-81.087C73.314 152.314 28.639 204.399 9.768 268.04c-35.775 120.646 28.823 257.028 159.104 372.9C58.253 496.726 20.071 331.489 83.336 194.552zm1105.607 88.24c125.866 149.837 172.504 326.427 105.56 471.326a326.855 326.855 0 0 1-29.901 51.705c48.889-36.358 83.559-82.085 99.593-136.158 37.224-125.531-34.217-268.1-175.251-386.874z"/></g></svg></g><g transform="matrix(.980201 0 0 .991016 691.239669 781.487603)"><svg width="156.824" height="321.233"><g class="N"><path d="M156.824.355s-7.563-1.212-27.823.841S94.879 7.21 94.879 7.21 15.95 42.419 27.669 167.164l57.231-1.548S78.876 24.601 156.824.355Z"/><ellipse cx="66.12" cy="236.943" rx="65.746" ry="78.211" transform="matrix(.986612 -.163085 .163085 .986612 -37.756 13.955)"/></g><g fill="#b5b5b5"><path d="M67.249 321.233a7.5 7.5 0 0 1-1.216-14.9c25.965-4.298 42.14-37.746 36.057-74.563-3.848-23.28-15.965-43.281-31.623-52.197-11.479-6.536-24.255-7.137-37.97-1.791a7.496 7.496 0 0 1-9.712-4.263 7.5 7.5 0 0 1 4.263-9.712c17.883-6.971 35.461-6.025 50.842 2.73 19.784 11.267 34.364 34.738 38.999 62.787 3.532 21.378.689 42.582-8.005 59.706-9.084 17.893-23.433 29.293-40.401 32.102a7.615 7.615 0 0 1-1.233.102Z"/><ellipse cx="52.685" cy="241.531" rx="37.246" ry="51.978" transform="matrix(.986612 -.163085 .163085 .986612 -38.684 11.825)"/></g></svg></g><g transform="matrix(.992339 0 0 .992185 1739.504132 240.991736)"><svg width="870.47" height="1147.48"><path d="M201.65 140.57c-2-35.92-7.49-95.68 57.56-124.5C316.64-9.37 360.94-.54 371.32 14.68c0 0 80.28-21.24 130.79 28.83s48.26 110.44 65 128.26c22.11 23.47 32.33 55.25 13.64 91.88 0 0-1.44-30.86-26.73-44.31-6.52 29.41-7.67 71.46 19.32 99.83 0 0-31.14-5.53-42.21-22.14 0 0-10 25.38 7.5 47.58 0 0-29.23 11.43-51.79-6.75s-280.5-110.71-285.19-197.29Z" class="L"/><rect x="344.12" y="216.64" width="150.58" height="234.38" rx="75.29" transform="matrix(-.974605 .223931 -.223931 -.974605 902.93 565.23)" class="C"/><g class="O"><path d="M340.74 418.16c-33.07.73-112.48 8.43-138.81 12.57-23.93 3.77-5.1 118.68-7.57 146.81-12.39 141.16-28.15 437.32 0 521.48 107.76 52.55 315.56 85.86 501-27.7 51.18-35 14.76-443.18 25.7-486.94s16.3-201.06-27.34-204.17c-28-2-113.31 12.24-155.15 15.5Z"/><path d="M538.56 395.71c-8.11-15.44-20.49-61.67-28.79-64.49s-31.21 46.78-91.34 50.61c-42.65 2.71-73.94-6.59-85.83-13.27l8.14 49.6s18.82 11.29 87.33 7.74c79.24-4.11 110.49-30.19 110.49-30.19Zm-336.63 35.02c-38.3 7.41-131.85 27.43-150.21 106.95-23.79 103-18.92 143.3-33 179.25C-7.86 784.63-.65 901 7.22 957.74c43.55 45.13 90.25 95 187.14 141.28 22.84-30.51 34.82-111.47 32.63-168.75s10.26-229.47 9-312.9-34.06-186.64-34.06-186.64Z"/></g><g class="C"><path d="M461.55 219.11c13.31-37 72.87-32.49 63 17.06-6.48 32.6-28 52.44-48.69 46s-21.08-44.17-14.31-63.06Z"/><path d="M313.61 75.47c-51.46.25-128.86 37-119.67 117.79 7.76 68.15 37.16 147 64.51 177.63 27.8 31.16 54.73 48.2 93.93 41 61.45-11.36 125.89-56.18 122.15-167.94S410.17 75 313.61 75.47Z"/></g><g class="L"><path d="M290.46 107.52c-12.44 5-53 18.4-71 31.24-18.82 13.39-26.61 26.51-24 54.55 4.23 46.35-2 72.85-44.6 79.51 15.65-19.17 15.57-42.69 4.87-71.18-9-24-17.21-104.76 46.83-151.25 48.34-35.1 110.59 10.69 110.59 10.69-8.65 16.85-24.28 32.92-22.69 46.44Z"/><path d="M313.09 61.08c15.88-12.49 79.36-14.27 106.31 0 28.64 15.16 30.52 52.53 47.41 73.6 11.8 14.72 38.44 42.35 71.87 33.18 0 0-19.78 43-76.18 35.16-44.76-6.21-50.39-48.63-80.86-59.77S301 125.1 290.46 107.52s22.63-46.44 22.63-46.44Z"/></g><path d="M261 213.28c12.61 5.72 24.48-20 6.13-28.73-13.83-6.6-55.76 1.45-70.85 16.53-13.06 13-2.52 24.51 4.6 18 8.12-7.43 37.97-15.86 60.12-5.8Zm66.24-6.98c-14.57 6.69-24.3-16-9.42-27.93s71.47-4.29 84.67 9.57c8.53 9 5.65 20.1-5.07 14.38-11.5-6.12-51.5-4.58-70.18 3.98Z" fill="#c63500"/><g fill="none" class="F G H"><path d="M291 309.25c-4.84-19.37 22.59-22.27 34.38-6.78m69.44 27.36c0 17.54-15.78 28-36.63 27.7m145.42-138.78c-16.42-1.36-27.44 20.84-22.87 40.58m16.14-17.86-14.87-5.1" class="P"/><path d="M219.45 41.72c38.22-9.81 73.8.51 93.64 19.36 0 0-30.11 24.8-22.63 46.44m22.63-46.44c18.31-7.95 69.29-20.68 106.31 0 29.74 16.61 31.54 53.85 47.41 73.6s42.94 42.75 71.87 33.18c0 0-10.59 22.13-32.25 29.92" stroke="#c63500"/><path d="M429 374.72c10.9-11.53 22.19-23.68 28.63-39" class="P"/></g><ellipse cx="248.41" cy="259.97" rx="25.76" ry="29.73" transform="matrix(.974605 -.223931 .223931 .974605 -51.92 62.25)" class="I"/><g clip-path="url(#clip-path)"><ellipse cx="241.65" cy="269.03" rx="17.21" ry="24.87" transform="matrix(.974605 -.223931 .223931 .974605 -54.12 60.97)" class="B"/></g><ellipse cx="361.42" cy="246.18" rx="27.71" ry="31.97" transform="matrix(.974605 -.223931 .223931 .974605 -45.96 87.21)" class="I"/><g clip-path="url(#clip-path-2)"><ellipse cx="354.68" cy="256.37" rx="17.68" ry="25.55" transform="matrix(.974605 -.223931 .223931 .974605 -48.41 85.96)" class="B"/></g><path d="M194.36 617.54c-6.38 126.08-29.21 383.14 0 481.48" fill="none" class="F G H Q"/><path d="M693.71 380.21c42.76 2.86 100.44 19.93 119.1 108.78 12.18 59.81 37.66 99.69 14.4 203.81 7.79 53.78 39.91 85.87 42.79 119.38 3.85 45.56-15.14 79.06-15.14 79.06 12.24 43.89-6.56 157.44-137.27 168.88s-128-128.06-118.84-216.67 14.71-250 14.71-250Z" class="O"/><path d="M613.42 593.5l-4.37 101" fill="none" class="F G H Q"/><path d="M732.71 797.63 554.38 561.75c-37.11-55.76-154.09 33.41-119.32 94.4L585.87 959.8c36.79 63.81 191.72-97.73 146.84-162.17Z" class="C"/><g class="O"><path d="M657 689.64c-7.49 69.67-106.8 132.96-151 118.84 8.2 40.15 19.41 83 43 112.49 49.76-8 163.19-87.57 162.88-167.6-16.88-22.3-38.09-40.86-54.88-63.73Z"/><path d="M711.83 753.37c19.3-1 34-1 40.88 22.26 0 0 29.36-7.77 41.44 40.58 0 0 109.46 208.38-76.6 243.91C588.67 1084.72 549 921 549 921Z"/></g><g class="C"><path d="M554.38 561.75c-27.49-45.19-106-144.87-125.23-156.2s-75.69 138.74-61.08 152.2 37.51 77 57.22 91.81c43.76 32.95 129.09-87.81 129.09-87.81Z"/><path d="M429.15 405.55c-20.24-11.17-98.39-27.66-112-26.45s-64.61 80.34-71.22 94.33 21.55 48.08 48.93 15 37.71-51.64 37.71-51.64l73.33 21Z"/><path d="M414.66 449.54c-21.17-18-74.74-40.91-85.92-30.22s-35.88 53.49-33.93 69.08 28.31 38.94 38.71 47.61c24.78 20.66 52.13-13.51 27-37.27l-17-15.6 11.09-15.48 37 24.61Z"/><path d="M400.25 484.82c-14.43-12.22-56-30.54-67.69-25.09s-35.42 58.16-30.56 68.41 27.18 22.5 37.75 29.59c22.91 15.34 46-16.82 20.49-36.12-9.8-7.42-15.16-10.25-15.16-10.25l3.18-7.5L378.93 523Z"/><path d="M388.8 519.72c-9.69-6.46-49.36-22.83-65.23-12.75s-13.32 61.82-10.44 69.42 27.54 13.63 41.35 17.89c24.43 7.54 33.14-28.67 7.33-38.13-9-3.31-14.15-3.63-14.15-3.63l20.41 5.23Z"/></g><g fill="none"><path d="M414.66 449.54s-64.34-42.26-85.92-30.22-35.8 61-35.8 61m107.31 4.5c-7.4-5.35-50.1-33.54-67.69-25.09-14 6.76-26.93 42.69-26.93 42.69m83.17 17.3s-45.34-25.17-65.23-12.72c-8 5-12.06 33-12.06 33m36.15 12.52l20.41 5.23m40.79-160.05c-13-4.47-79.09-21.31-91.76-18.6s-27.91 28.15-27.91 28.15" class="F G H P"/><g class="Q"><path d="m657 689.64 54.79 63.73s34.2-5.43 40.88 22.26c0 0 32.08-2.43 41.44 40.58m60.71 75.03c-12.07 22.89-17.93 32.7-28.73 43.49" class="F G H"/><path d="M506 808.48S528.47 894 549 921c35.79 4.65 157.86-71.89 162.88-167.6M549 921c17.5 83.44 92.89 152.63 156.85 140.9" class="F G H"/></g></g></svg></g><g transform="matrix(.981038 0 0 .978236 2198.677686 461.157025)"><svg width="52.567" height="70.966"><path d="M23.959 30.394c-1.166-.931-1.57-2.46-1.633-3.633-.125-2.288 3.868-9.672 5.203-11.621C32.339 8.116 36.909-.399 43.596.014c4.283.265 9.806 6.123 8.865 14.599-1.127 10.14-8.297 23.251-14.422 24.613l-1.736.657-12.344-9.489Z" class="N"/><path d="m3.16 69.281-.683-.525c-3.542-2.722-2.98-6.551-.24-10.071l21.722-28.291 12.344 9.489-21.769 27.956c-2.739 3.519-7.831 4.164-11.372 1.442l-.001-.001Z" class="M"/></svg></g><g transform="matrix(.991216 0 0 .990995 380.826446 781.487603)"><svg width="1031.54" height="1302.973"><clipPath id="A"><ellipse cx="618.566" cy="182.93" rx="24.149" ry="27.535" transform="matrix(.981003 -.193995 .193995 .981003 -23.737 123.478)"/></clipPath><clipPath id="B"><ellipse cx="525.202" cy="203.432" rx="27.108" ry="30.098" transform="matrix(.981003 -.193995 .193995 .981003 -29.488 105.755)"/></clipPath><path d="M438.612 7.919C341.879 38.022 327.606 113.805 306.76 202.086c-30.373 128.63-182.24 98.855-249.631 205.162s-84.476 280.004 0 373.023 415.61 22.705 453.912-73.086c55.79-139.528-54.313-239.19-4.007-339.802 32.359-64.718 9.311-383.654-68.422-359.464z" class="J"/><path d="M544.642 406.831c27.934 14.653 189.548 330.836 214.74 385.618s81.68 204.282 2.067 212.896c-68.549 7.417-157.111 7.266-207.759-119.87-60.297-151.358-110.011-223.04-129.401-296.651-28.547-108.376 54.022-216.788 120.353-181.994z" class="E"/><path d="M883.08 469.698c-5.164-18.134-183.584-26.952-188.992-12.199-5.161 14.079 199.839 50.293 188.992 12.199z" class="B"/><path d="m719.354 383.683-19.422 238.078c-13.383 124.261 175.603 111.341 162.777-13.729-.34-3.318-17.947-218.633-17.947-218.633-3.546-44.157-122.001-45.55-125.408-5.715z" class="D"/><g class="E"><path d="M651.873 994.739c72.43 16.598 98.107 18.496 138.391.202s93.183-69.32 97.454-126.384c0 0 33.345-34.781 29.066-69.663s-46.969-260.7-46.969-260.7-153.301-25.242-163.372-9.797c-27.454 42.103-28.888 65.439-25.584 114.346s-11.34 47.554-11.802 71.746c0 0-36.241 55.82-21.237 99.739-37.685 64.086-58.809 166.107 4.054 180.512z"/><path d="M694.034 539.246c-3.737-26.818-10.078-55.222.054-81.748 11.936 17.33 184.331 37.796 188.992 12.199 8.493 30.191 4.231 56.227.695 81.738 0 0-28.117 16.829-79.097 14.824-58.336-2.294-110.643-27.013-110.643-27.013z"/></g><g class="D"><path d="M719.354 383.683c1.635-24.713 15.448-55.804 63.686-66.742s65.943-31.65 65.943-31.65 117.894 37.968 104.288 54.698c-22.502 27.669-95.757 54.524-106.441 74.692-15.817 29.86-128.652-13.226-127.477-30.999z"/><path d="M953.271 339.99c20.514-26.808 42.612-64.029 51.387-87.236s19.795-70.917 25.129-87.831c9.86-31.264-24.505-49.24-37.525-10.599-14.249 42.291-22.707 80.239-22.707 80.239l-48.401 82.005z"/><path d="M934.295 324.179c13.244-18.274 41.208-67.505 46.137-83.053s-17.587-92.537-21.365-107.311c-7.286-28.485-43.373-23.983-35.431 10.095l19.584 86.55-41.919 77.25 32.994 16.468z"/><path d="M912.587 315.5c11.653-16.749 40.578-56.949 42.906-78.02s-42.591-71.029-51.186-81.212c-14.945-17.705-43.35 9.498-24.758 31.425s36.317 45.957 36.317 45.957l-36.146 62.797z"/><path d="M887.257 304.473c11.074-11.762 35.433-43.14 36.045-56.332.674-14.527-23.166-40.858-29.135-49.797-15.732-23.559-45.657 4.625-29.374 27.177 11.419 15.814 16.66 25.396 16.66 25.396l-32.47 34.375 38.274 19.182z"/></g><path d="M934.288 331.68a7.502 7.502 0 0 1-6.159-11.773c16.467-23.764 37.642-61.852 45.315-81.509 2.811-7.2-1.187-24.002-3.562-31.011a7.5 7.5 0 0 1 4.695-9.511 7.504 7.504 0 0 1 9.511 4.695c.925 2.729 8.876 27.07 3.328 41.281-8.015 20.532-29.958 60.063-46.958 84.598a7.493 7.493 0 0 1-6.172 3.229zm-21.707-8.679a7.501 7.501 0 0 1-6.17-11.755l5.313-7.453c11.297-15.653 34.804-48.226 36.294-66.909 1.045-13.099-13.723-32.557-19.5-38.949-2.776-3.071-2.541-7.813.528-10.591a7.5 7.5 0 0 1 10.587.52c2.572 2.836 25.081 28.345 23.338 50.213-1.684 21.1-21.057 49.516-39.083 74.495l-5.123 7.183a7.492 7.492 0 0 1-6.184 3.247zm-25.327-11.028a7.5 7.5 0 0 1-5.646-12.434c28.115-32.191 33.529-46.61 34.254-52.34.027-.217.54-5.512-10.953-22.529-7.114-10.535-14.683-19.491-16.319-21.313-6.506-7.239-10.205-8.263-10.241-8.272.458.118.704.092.703.091l.996-14.967c2.528.168 9.51 1.783 19.698 13.121.334.371 33.29 37.622 30.997 55.75-1.691 13.378-14.068 33.111-37.838 60.325a7.48 7.48 0 0 1-5.651 2.566z" class="C"/><g class="K"><path d="M647.813 821.73a7.503 7.503 0 0 1-7.279-5.72c-11.95-48.854 14.388-93.573 20.991-103.756.082-8.893 2.411-15.493 4.865-22.448 3.626-10.277 7.735-21.927 6.972-46.833a7.5 7.5 0 1 1 14.992-.461c.851 27.712-3.956 41.337-7.818 52.284-2.473 7.009-4.26 12.072-3.984 19.412a7.494 7.494 0 0 1-1.37 4.608c-.313.446-31.748 45.917-20.077 93.629a7.5 7.5 0 0 1-7.291 9.284zM815.2 574.136a153.22 153.22 0 0 1-11.067-.396c-17.337-1.261-43.048-5.83-68.777-12.224-42.484-10.558-46.031-15.832-47.545-18.085a7.502 7.502 0 0 1 11.912-9.074c7.663 5.418 68.543 21.736 105.498 24.422 34.854 2.542 64.901-9.354 65.202-9.474a7.502 7.502 0 0 1 9.755 4.163 7.499 7.499 0 0 1-4.163 9.755c-1.221.491-27.582 10.913-60.814 10.913zm-114.947-39.082l.005.008zm147.096 383.194a7.5 7.5 0 0 1-4.948-13.14c.228-.2 22.945-20.195 39.415-41.182a7.5 7.5 0 0 1 11.801 9.259c-17.353 22.111-40.358 42.352-41.329 43.202a7.474 7.474 0 0 1-4.939 1.859z"/><path d="M689.301 762.507a7.478 7.478 0 0 1-5.785-2.724c-2.118-2.565-20.731-25.62-21.944-44.822a7.501 7.501 0 0 1 7.013-7.958c4.135-.252 7.696 2.879 7.958 7.013.769 12.178 13.646 30.275 18.543 36.221a7.5 7.5 0 0 1-5.785 12.271z"/></g><rect height="229.577" rx="66.108" transform="matrix(.91292 .408139 -.408139 .91292 171.929 -144.372)" width="132.215" x="358.182" y="215.927" class="D"/><path d="M504.299 1029.34c33.273-1.384 56.597-7.738 61.952-20.542 9.983-23.874 10.175-87.035 21.947-147.757 14.903-76.87 35.011-135.557 20.042-186.79-18.254-62.477-37.977-49.26-66.578-152.316-9.322-33.588-25.114-125.395-49.703-130.192L304.012 366.16c-70.302-10.596-97.635 12.641-128.145 63.063-34.83 57.562-84.677 372.644-49.713 480.776a906.614 906.614 0 0 0 79.01 41.309c100.246 46.314 202.748 71.831 299.134 78.032z" class="B"/><path d="M304.012 358.923c28.151 5.643 174.055 24.285 184.537 26.418s12.665 142.239-17.704 145.447c-46.556 4.918-166.833-171.865-166.833-171.865z" class="D"/><path d="M595.173 862.545c14.378-78.695 35.846-139.13 20.877-190.363-18.254-62.477-45.787-47.191-74.388-150.247-9.322-33.588 21.66-98.409 2.981-115.104-24.044-21.49-70.465-25.731-70.465-25.731 6.748 43.892 11.602 95.388 21.414 149.788 14.5 80.388 51.531 128.093 51.721 161 .342 59.555-20.042 141.094-26.455 183.583l-25.122 153.265a722.775 722.775 0 0 0 55.828 2.098c6.205-1.234 11.738-3.212 15.791-6.252 19.24-14.43 20.431-121.604 27.819-162.037zm-178.146-417.64l7.263-37.341-80.22-59.389-15.473 20.916S220.191 343.053 184.702 381.1C121.414 448.949 40.101 728.829 33.548 847.241c50.755 39.516 108.319 74.822 171.617 104.066 67.151 31.024 135.314 52.711 201.975 65.517 15.901-38.738 40.428-238.306 35.473-314.641-5.332-82.153-25.586-257.279-25.586-257.279z" class="E"/><path d="M529.814 290.643c12.523 68.729 43.315 86.956 55.317 127.343 9.529 32.066 4.954 72.304-13.064 101.19 0 0-1.602-51.208-28.048-93.06-18.324-28.999-43.433-20.06-50.425-82.354-3.819-34.023 36.22-53.12 36.22-53.12z" class="J"/><path d="m348.938 320.453 75.351 87.111c-12.033 17.679-21.646 38.435-28.154 63.139-33.07-36.003-59.141-70.556-75.754-103.15l28.557-47.101z" class="E"/><path d="M396.137 478.204a7.498 7.498 0 0 1-5.424-2.319c-2.225-2.328-54.598-57.356-65.842-87.029a7.5 7.5 0 1 1 14.027-5.315c7.604 20.065 38.569 55.646 53.934 72.556 6.699-18.104 18.926-42.605 25.094-52.5a7.5 7.5 0 1 1 12.728 7.936c-7.292 11.698-24.118 46.446-27.186 60.745a7.5 7.5 0 0 1-7.332 5.927z" class="K"/><path d="M383.808 259.293c-17.229 38.537 32.701 95.722-9.651 126.048-34.106 24.422-65.052-27.042-84.819-30.396-19.607-3.327 37.311-128.18 94.469-95.652z" class="J"/><path d="M617.923 75.77c20.692 24.525 26.29 79.146 28.724 102.98s19.146 54.93 16.679 86.335c-2.731 34.759-38.374 76.767-84.002 84.271S468.76 328.27 424.565 281.54 367.028 90.433 449.116 55.963s138.04-16.661 168.808 19.807z" class="D"/><path d="M414.543 219.612c24.821-30.319 17.501-56.949 40.467-75.872s70.876-57.161 84.384-89.28c0 0 53.458-10.716 91.043 43.485 6.717-19.713-16.418-67.114-76.057-88.908C504.737-9.105 437.8 1.834 391.943 26.154c-53.499 28.372-82.995 119.527-24.192 195.792 19.125 24.804 46.792-2.334 46.792-2.334z" class="J"/><path d="M414.543 219.612c-25.056-42.958-88.369-24.37-65.152 23.77s49.579 42.927 66.323 37.561 9.31-43.362-1.172-61.331z" class="D"/><path d="M600.736 142.783c-12.716 11.63-28.06-5.09-12.178-17.904 14.118-11.39 34.356-13.762 48.845-8.486 10.346 3.768 11.247 14.349 3.989 14.228-11.133-.186-30.457 2.834-40.656 12.161zm-60.996 13.07c16.614 5.601 23.223-17.258 3.26-23.025-16.718-4.83-49.762 2.578-62.945 14.622-11.588 10.587-7.037 19.774 3.094 14.626 15.739-7.999 39.858-11.863 56.591-6.222z" fill="#b5016d"/><g class="C"><path d="M583.148 250.74a7.5 7.5 0 0 1-7.241-9.475c5.353-19.621 18.378-27.652 28.497-25.439 7.556 1.653 15.388 9.554 12.596 26.382a7.501 7.501 0 0 1-8.626 6.171 7.499 7.499 0 0 1-6.171-8.626c1.07-6.457-.505-9.165-1.005-9.274-1.347-.296-7.519 2.632-10.82 14.733a7.503 7.503 0 0 1-7.23 5.528zm-177.773 10.938a7.503 7.503 0 0 1-7.246-5.586c-4.823-18.252-20.396-27.842-29.433-26.707-4.094.523-7.864-2.385-8.386-6.494s2.386-7.864 6.495-8.386c16.746-2.13 39.161 12.534 45.825 37.754a7.499 7.499 0 0 1-7.256 9.418z"/><path d="M383.743 255.358a7.501 7.501 0 0 1-6.327-11.518l9.51-14.994a7.501 7.501 0 0 1 12.668 8.035l-9.51 14.994a7.498 7.498 0 0 1-6.341 3.484z"/></g><ellipse cx="618.566" cy="182.93" rx="24.149" ry="27.535" transform="matrix(.981003 -.193995 .193995 .981003 -23.737 123.478)" class="I"/><g clip-path="url(#A)"><ellipse cx="625.306" cy="178.498" rx="14.912" ry="21.853" transform="matrix(.981003 -.193995 .193995 .981003 -22.749 124.702)" class="B"/></g><ellipse cx="525.202" cy="203.432" rx="27.108" ry="30.098" transform="matrix(.981003 -.193995 .193995 .981003 -29.488 105.755)" class="I"/><g clip-path="url(#B)"><ellipse cx="534.21" cy="199.414" rx="17.063" ry="23.315" transform="matrix(.981003 -.193995 .193995 .981003 -28.537 107.426)" class="B"/></g><path d="M509.553 347.507a7.49 7.49 0 0 1-2.295-.361c-19.467-6.25-39.235-20.096-44.831-24.19a7.501 7.501 0 0 1 8.859-12.105c5.135 3.758 23.236 16.453 40.558 22.014a7.5 7.5 0 0 1-2.291 14.643zm-109.627-53.283c-5.114 0-10.696-1.116-16.515-4.226a7.5 7.5 0 0 1 7.072-13.229c6.292 3.365 12.396 3.289 21.058-.259a7.501 7.501 0 0 1 5.683 13.882c-4.581 1.875-10.529 3.831-17.299 3.831z" class="C"/><path d="M531.542 281.524c-7.92-6.032-10.031-.157-6.812 7.69 5.096 12.423 11.672 19.129 25.34 22.663 10.122 2.618 23.916-.297 31.46-9.136 4.677-5.48 3.741-9.458-2.775-9.326-9.141.185-17.048-.174-23.987-2.081s-17.092-5.139-23.226-9.811z" class="I"/><path d="M595.182 870.046a7.502 7.502 0 0 1-7.433-8.577c2.548-17.576 6.566-35.662 10.821-54.81 10.128-45.584 20.602-92.721 10.221-132.588-4.801-18.437-13.771-31.21-25.126-47.383-15.554-22.149-34.91-49.716-49.244-102.798a7.498 7.498 0 0 1 5.285-9.195c3.991-1.081 8.115 1.285 9.195 5.285 13.646 50.533 31.387 75.798 47.039 98.088 11.742 16.723 21.883 31.164 27.366 52.224 11.293 43.368.42 92.3-10.094 139.621-4.192 18.866-8.151 36.686-10.618 53.708a7.503 7.503 0 0 1-7.413 6.425z" class="K"/><path d="M723.6 1055.648c17.841-1.067 55.696-132.697 53.378-176.334s-56.256 23.922-67.25 88.511c-3.658 21.491-1.631 88.75 13.872 87.823z" class="B"/><path d="M139.492 457.599c4.832-103.496 151.079-161.214 201.023-48.262 42.989 97.221 76.236 344.037 79.361 401.203s-125.691 220.167-165.742 192.932c-50.038-34.026-74.783-93.61-84.791-207.696s-33.809-253.397-29.851-338.177z" class="E"/><path d="M641.815 830.074s157.311 45.971 208.569 64.778c51.779 18.998-9.295 150.261-85.804 142.292l-177.329-16.446c-79.369-6.435-26.682-218.517 54.563-190.624z" class="D"/><g class="E"><path d="M250.404 995.927c12.011 27.887 50.845 75.351 182.053 40.251 17.6 27.776 67.298 6.807 115.198.836 59.182-7.378 135.517 3.343 135.517 3.343-9.577-70.616 14.741-130.714 66.857-182.186 0 0-137.058-43.457-182.186-48.472s-47.369-15.966-72.252-21.729c-28.87-6.686-71.302 9.193-71.302 9.193-24.487-19.221-46.329-2.183-76.24 12.536-85.519 42.083-133.301 103.441-97.645 186.228z"/><path d="M725.619 838.684c14.097-3.197 85.166 18.72 73.761 36.265-27.437 2.078-50.468 18.31-67.168 60.354-16.278 40.982-20.469 110.192-8.611 120.345 0 0-73.441.011-83.755-5.424s-12.975-83.623 9.367-131.948c19.544-42.272 49.442-71.278 76.406-79.592z"/></g><g class="K"><path d="M710.15 853.041a7.495 7.495 0 0 1-2.857-.568c-12.459-5.14-111.153-29.951-140.805-35.397-16.723-3.071-29.495-7.707-41.848-12.19-9.999-3.63-19.443-7.058-30.7-9.6-23.614-5.329-66.854 8.853-67.289 8.996a7.499 7.499 0 0 1-5.65-.378c-21.332-10.409-32.18-5.077-50.146 3.757-5.872 2.887-12.528 6.158-20.143 9.05a7.501 7.501 0 0 1-5.324-14.024c6.954-2.641 13.001-5.613 18.85-8.488 18.364-9.026 34.308-16.866 60.58-5.069 10.747-3.302 48.387-13.905 72.426-8.475 12.181 2.75 22.519 6.502 32.516 10.13 11.773 4.273 23.948 8.692 39.439 11.537 29.263 5.376 128.989 30.169 143.815 36.284a7.501 7.501 0 0 1-2.864 14.436z"/><path d="M418.546 802.124a7.5 7.5 0 0 1-7.449-6.71c-11.909-112.256-28.521-210.611-50.787-300.685a7.501 7.501 0 0 1 14.562-3.6c22.43 90.744 39.158 189.759 51.141 302.702a7.498 7.498 0 0 1-7.467 8.292zm-164.419 208.849a7.472 7.472 0 0 1-3.868-1.079c-34.908-21.063-57.668-64.006-73.799-139.24-14.851-69.266-23.732-162.853-34.976-281.336l-7.519-78.408a7.501 7.501 0 0 1 6.735-8.194c4.125-.383 7.791 2.612 8.194 6.735l7.521 78.45c11.197 117.997 20.042 211.198 34.71 279.608 15.189 70.846 35.816 110.798 66.882 129.541a7.501 7.501 0 0 1-3.882 13.923zm381.97 32.349a7.5 7.5 0 0 1-7.417-6.458c-2.853-20.312-5.979-87.261 16.307-127.101 24.873-44.462 45.238-64.882 77.824-78.035 13.613-5.493 58.024 7.497 75.435 22.064 9.71 8.124 10.512 15.736 9.475 20.691a7.5 7.5 0 0 1-14.682-3.072c.192-.922-.884-2.984-3.724-5.516-15.119-13.475-54.34-22.428-60.933-20.242-29.293 11.825-47.045 29.854-70.304 71.433-18.767 33.546-17.903 93.777-14.545 117.691a7.5 7.5 0 0 1-7.437 8.544zm-203.647.358a7.502 7.502 0 0 1-1.657-14.816c14.497-3.297 50.627-13.096 66.157-19.214a7.5 7.5 0 1 1 5.499 13.957c-16.188 6.376-53.439 16.497-68.329 19.884a7.542 7.542 0 0 1-1.67.188z"/></g><g class="D"><path d="M850.384 894.851c39.233 14.51 109.643 155.373 126.255 198.985 12.612 33.111-137.392 83.724-155.738 49.137-20.287-38.247-44.752-62.012-50.752-88.845-8.955-40.05 54.626-168.748 80.235-159.276z"/><path d="M976.639 1093.836c13.214 37.943 26.081 115.141 20.232 131.516s-58.052 64.135-70.764 74.273c-16.051 12.801-46.347-13.708-27.653-35.667 17.895-21.019 46.984-51.416 46.984-51.416l-16.992-96.553z"/><path d="M945.439 1108.178c1.894 17.989 11.01 94.896 4.856 109.098s-62.457 70.56-69.588 78.582c-18.935 21.302-55.859-12.308-27.794-42.914 26.247-28.623 44.036-45.828 44.036-45.828l3.167-78.363z"/><path d="M913.636 1122.615c-1.213 15.132-1.213 74.305-10.207 88.98s-50.7 52.364-56.806 57.753c-19.786 17.462-51.825-16.028-25.089-36.451 18.264-13.952 36.492-32.468 36.492-32.468l6.586-63.156 49.024-14.659z"/><path d="M873.341 1134.664c-1.862 22.047-2.845 63.713-10.857 74.767s-54.538 19.339-66.296 22.128c-23.904 5.67-34.933-35.157-7.297-42.385s32.995-9.93 32.995-9.93l-.986-36.272 52.441-8.309z"/></g><path d="M834.089 1230.168a7.503 7.503 0 0 1-7.266-5.666 7.497 7.497 0 0 1 5.436-9.107c10.695-2.71 22.105-7.499 23.937-10.047 5.452-8.453 8.257-50.284 9.313-66.031l.352-5.176a7.5 7.5 0 1 1 14.963 1.047l-.349 5.132c-2.085 31.092-4.704 62.354-11.687 73.178-5.665 8.78-24.865 14.423-32.857 16.44a7.49 7.49 0 0 1-1.842.23zm8.812 49.312a7.502 7.502 0 0 1-5.167-12.938c17.571-16.692 52.688-50.634 59.824-59.613.626-.787 3.857-5.931 6.034-29.963 1.37-15.128 1.846-31.748 2.193-43.884l.358-10.817a7.477 7.477 0 0 1 7.843-7.142 7.501 7.501 0 0 1 7.142 7.843l-.349 10.546c-1.253 43.748-3.61 72.851-11.479 82.751-9.565 12.034-59.13 59.154-61.234 61.154a7.479 7.479 0 0 1-5.165 2.063zm49.654 11.426a7.501 7.501 0 0 1-5.26-12.846c19.471-19.153 51.903-53.356 56.047-63.597 2.305-5.696 3.342-27.752-4.805-100.473l-.557-5.007a7.502 7.502 0 0 1 6.651-8.263 7.503 7.503 0 0 1 8.263 6.651l.549 4.948c7.11 63.46 8.283 96.697 3.803 107.77-6.664 16.472-54.051 63.37-59.432 68.663a7.475 7.475 0 0 1-5.26 2.153z" class="C"/><path d="M486.221 354.161c20.813 13.222 58.042 89.736 49.16 118.569-5.033-16.884-25.536-30.912-39.789-31.959l-9.37 29.932-12.916-87.653 12.916-28.89z" class="E"/><path d="M535.376 480.231a7.5 7.5 0 0 1-7.292-5.768c-3.592-15.126-18.742-21.971-27.446-24.705l-7.259 23.187a7.5 7.5 0 0 1-14.314-4.48l9.37-29.933a7.496 7.496 0 0 1 8.313-5.17c1.002.156 16.435 2.703 29.39 12.679-2.325-13.99-7.398-32.086-18.278-50.37a7.5 7.5 0 0 1 12.89-7.67c25.446 42.762 22.253 83.655 22.104 85.375a7.501 7.501 0 0 1-7.478 6.856z" class="K"/><path d="M455.009 143.74c-14.836 38.238 14.555 106.379 24.158 148.428 10.229 44.789-6.394 80.057-12.929 102.08-6.978 23.518-1.284 62.403 12.762 76.842 0 0-48.296-41.589-45.904-87.748 1.242-23.957 14.578-36.569 9.797-79.948-2.649-24.04-10.146-48.65-28.352-83.781-14.995-28.936 8.501-101.391 40.467-75.872z" class="J"/></svg></g><g transform="matrix(.990354 0 0 .990646 1036.363636 267.768595)"><svg width="451.629" height="482.53"><clipPath id="C"><path d="M447.4 297.06c-21.33 92.21-128.77 147-244.7 127.65-21.23 33.58-112.28 57.82-112.28 57.82 17.99-27.81 21.54-67.17 22.42-88.7v-.01C32.559 349.76-13.91 270.67 3.72 194.45 26.13 97.56 143.62 41.98 266.13 70.32 388.65 98.65 469.81 200.17 447.4 297.06z"/></clipPath><path d="M447.91 296.06c-21.33 92.21-128.77 147-244.7 127.65-21.23 33.58-112.28 57.82-112.28 57.82 17.99-27.81 21.54-67.17 22.42-88.7v-.01C33.069 348.76-13.401 269.67 4.229 193.45c22.41-96.89 139.9-152.47 262.41-124.13 122.52 28.33 203.68 129.85 181.27 226.74z" fill="#2471eb"/><g clip-path="url(#C)"><path d="M242.999 451.947c-4.256 7.204-8.17 10.032-11.34 11.255-3.977 1.543-8.006-.726-9.231-4.01-1.166-3.108-1.4-7.647-1.235-12.261.23-6.412-3.675-10.886-8.448-11.829-3.596-.717-7.688.582-10.883 4.565-.201.252-.396.511-.585.776l-.007.006c-1.173 1.647-2.202 3.694-3.007 6.171-5.879 18.039-37.039 60.37-87.65 84.026-50.617 23.656-79.933 2.025-88.536-10.557-9.56-13.986 2.946-23.442 11.466-16.507s14.349 11.738 22.713 3.57c8.365-8.175-8.864-46.67-55.231-30.498-55.516 19.358-108.277 6.141-99.158-39.86 5.704-28.792 31.949-52.07 59.412-66.01 23.373-11.872 46.21-14.137 65.554-13.255 9.867.453 25.751-2.857 11.462-12.716-10.118-6.981 3.263-15.356 16.782-15.039 18.742.452 45.14 6.122 56.73 28.087 4.96 9.395 9.784 16.322 14.521 21.268 4.243 2.986 9.281 4.85 14.463 5.151 10.326.592 20.77-5.05 25.931-14.011.069-.126.143-.245.206-.371 3.177-5.701 4.212-12.029 4.257-18.623.139-18.765-2.674-46.821 8.106-62.025 5.032-7.094 10.552-11.662 19.004-13.698 16.478-3.966 31.724 7.248 46.271 16.066 8.061 4.879 17.663 10.023 20.793 18.872 18.882 53.384 3.606 97.51-22.358 141.458z" class="N"/></g><path d="M189.372 267.938l12.017-22.416 91.455 49.026-12.017 22.416c-4.046 7.548-31.587 1.238-54.297-10.882-23.061-12.307-41.232-30.544-37.158-38.144zm3.941-52.714l66.267-112.137s-122.967 54.025-105.46 83.345 39.192 28.792 39.192 28.792zm128.636 68.958l56.706-117.263s23.077 132.314-11.033 133.964-45.673-16.702-45.673-16.702z" class="L"/><path d="M334.901 273.478c-36.915 42.184-95.036 10.082-95.036 10.082s-58.901-30.629-44.205-84.724c12.539-46.159 92.892-128.164 116.198-151.234 8.712 12.209 21.491 23.521 37.341 32.018 15.843 8.493 32.328 12.877 47.318 13.374-6.309 32.191-30.119 144.497-61.616 180.484z" fill="#fdd016"/><g class="L"><path d="M396.518 92.994c-14.991-.497-31.475-4.881-47.318-13.374-15.85-8.497-28.629-19.808-37.341-32.018l6.326-6.191S361.35-8.87 391.135 1.378c25.022 19.132 7.042 82.914 7.042 82.914l-1.658 8.702z"/><circle cx="304.74" cy="162.54" r="40.915"/></g><g class="I"><circle cx="305.115" cy="161.849" r="27.757"/><path d="M344.88 33.176a3.139 3.139 0 0 1-1.714-5.533c14.62-12.224 32.408-20.454 33.158-20.798a3.139 3.139 0 0 1 2.621 5.706c-.176.081-17.792 8.238-31.751 19.909a3.131 3.131 0 0 1-2.313.717zm-14.616 15.217a3.14 3.14 0 0 1-1.815-5.445l5.324-4.856a3.14 3.14 0 0 1 4.231 4.639l-5.324 4.856a3.13 3.13 0 0 1-2.416.805z"/></g></svg></g></svg>