<svg xmlns="http://www.w3.org/2000/svg" width="3000" height="2812" xmlns:v="https://vecta.io/nano"><style><![CDATA[.B{fill:#5ac4ff}.C{fill:#111}.D{fill:#e09273}.E{fill:#a85f36}.F{fill:#2199ce}.G{fill:#ea2688}]]></style><g transform="matrix(1.873 0 0 1.871866 260.625 609.375)"><svg width="1250.334" height="916.532"><g fill="#ffd215"><ellipse cx="627.737" cy="458.266" rx="419.836" ry="575.263" transform="matrix(.466603 -.884467 .884467 .466603 -70.488 799.651)"/><path d="M66.839 219.683c10.596-30.113 25.102-57.693 42.979-82.623-54.528 41.666-91.523 95.314-104.64 158.896-24.867 120.535 41.386 251.003 165.41 357.696C62.519 518.023 18.258 357.742 66.839 219.683zm997.557 25.797c122.105 140.315 174.647 311.287 123.241 457.373-6.49 18.445-14.448 35.94-23.745 52.46 41.729-38.424 70.119-85.272 81.264-139.295 25.874-125.415-46.899-261.586-180.759-370.539z"/></g></svg></g><g transform="matrix(1.871315 0 0 1.871315 2004.375 277.5)"><svg width="357.703" height="357.703"><circle cx="178.852" cy="178.852" fill="#e3e5e5" r="146.34"/><circle cx="178.852" cy="178.852" r="16.863"/><path d="M178.852 71.204a7.5 7.5 0 0 1-7.5-7.5v-49.17a7.5 7.5 0 0 1 15 0v49.17a7.5 7.5 0 0 1-7.5 7.5zm0 281.571a7.5 7.5 0 0 1-7.5-7.5v-49.17a7.5 7.5 0 0 1 15 0v49.17a7.5 7.5 0 0 1-7.5 7.5zm116.199-167.421a7.5 7.5 0 0 1-.015-15l49.17-.099h.016a7.5 7.5 0 0 1 .015 15l-49.17.099zm-232.394.468c-.092 0-.185-.001-.278-.005l-52.17-1.901a7.5 7.5 0 0 1-7.222-7.768c.151-4.14 3.61-7.387 7.768-7.222l52.17 1.901a7.5 7.5 0 0 1-.268 14.995z" fill="#656c72"/><g class="G"><path d="M178.852.5C80.351.5.5 80.351.5 178.852s79.851 178.352 178.352 178.352 178.352-79.851 178.352-178.352S277.353.5 178.852.5zm0 324.691c-80.821 0-146.34-65.519-146.34-146.34S98.03 32.512 178.852 32.512s146.34 65.519 146.34 146.34-65.519 146.34-146.34 146.34z"/><path d="M178.852 357.703C80.232 357.703 0 277.471 0 178.852S80.232 0 178.852 0s178.852 80.233 178.852 178.852-80.233 178.852-178.852 178.852zm0-356.703C80.784 1 1 80.784 1 178.852s79.784 177.852 177.852 177.852 177.852-79.784 177.852-177.852S276.919 1 178.852 1zm0 324.691c-80.968 0-146.84-65.872-146.84-146.839s65.872-146.84 146.84-146.84 146.84 65.872 146.84 146.84-65.872 146.839-146.84 146.839zm0-292.68c-80.417 0-145.84 65.424-145.84 145.84S98.435 324.69 178.852 324.69s145.84-65.423 145.84-145.839-65.424-145.839-145.84-145.839z"/></g><path d="M101.087 263.711a7.5 7.5 0 0 1-5.327-12.779l75.591-76.264v-71.769a7.5 7.5 0 0 1 15 0v77.943l-79.938 80.649a7.477 7.477 0 0 1-5.327 2.22z" class="C"/></svg></g><g transform="matrix(1.876572 0 0 1.876354 594.375 316.875)"><svg width="1163.025" height="1180.148"><clipPath id="A"><ellipse cx="522.26" cy="192.778" rx="22.898" ry="26.108" transform="matrix(.983163 -.182733 .182733 .983163 -26.434 98.681)"/></clipPath><path d="m333.331 380.419 129.374-14.352 75.779 155.616-194.842 37.787z" class="D"/><path d="M373.99 472.151s74.223 59.133 90.564 3.474 150.074 293.207 150.074 293.207l-14.672 312.417s-255.239 13.856-338.293-38.29S373.99 472.15 373.99 472.15z" class="G"/><path d="M451.532 454.822l3.921-104.691s46.672 22.445 57.906 75.04-61.827 29.65-61.827 29.65z" class="B"/><path d="M359.443 53.894c-6.81-7.487-12.884-34.694-19.165-41.175C323.326-4.771 293.923.251 287.14 2.13c-72.665 20.125-74.192 105.247-77.038 163.325-.494 10.084-23.137 140.948-86.991 197.537-5.259 4.587-12.534 9.726-17.945 14.436C-51.944 514.195-5.898 669.473 68.655 682.023c99.427 43.095 234.63-257.429 255.319-344.17s20.828-286.737 20.828-286.737z" fill="#4f2000"/><g class="D"><path d="M384.934 220.812c35.155-1.442 71.682 24.225 71.311 57.808l-.99 89.556c-.371 33.583-37.5 62.366-72.656 63.808s-63.354-24.614-62.982-58.198l.99-89.556c.371-33.583 29.171-61.977 64.327-63.419z"/><path d="M522.816 91.171c19.352 23.478 24.065 75.326 26.114 97.95s17.556 52.289 14.874 82.038c-2.968 32.925-37.218 72.367-80.561 78.985s-104.599-21.195-145.992-65.981-52.473-181.818 25.731-213.608 131.06-14.295 159.835 20.616z"/></g><path d="M505.791 154.52c-12.182 10.888-26.549-5.131-11.351-17.107 13.51-10.646 32.724-12.674 46.403-7.514 9.768 3.685 10.508 13.727 3.627 13.533-10.553-.297-28.909 2.355-38.679 11.088zm-57.974 11.73c15.691 5.491 22.206-16.11 3.341-21.795-15.798-4.761-47.209 1.903-59.839 13.179-11.102 9.912-6.887 18.671 2.774 13.901 15.01-7.412 37.919-10.814 53.723-5.284z"/><path d="M514.429 254.715a7.113 7.113 0 0 1-8.302-8.238c1.086-6.11-.379-8.695-.852-8.804-1.283-.296-7.158 2.413-10.419 13.851a7.11 7.11 0 1 1-13.677-3.901c5.289-18.546 17.734-26.016 27.295-23.809 7.146 1.649 14.487 9.226 11.657 25.151a7.114 7.114 0 0 1-5.703 5.75zm-31.674 61.887c-19.305 3.588-38.597-3.468-47.129-17.713a7.111 7.111 0 0 1 2.447-9.755 7.114 7.114 0 0 1 9.756 2.447c5.799 9.684 21.521 14.181 35.773 10.243a7.112 7.112 0 0 1 3.789 13.708 55.676 55.676 0 0 1-4.636 1.07z" class="E"/><ellipse cx="522.26" cy="192.778" fill="#fff" rx="22.898" ry="26.108" transform="matrix(.983163 -.182733 .182733 .983163 -26.434 98.681)"/><g clip-path="url(#A)"><ellipse cx="518.77" cy="191.035" rx="14.139" ry="20.721" transform="matrix(.983163 -.182733 .182733 .983163 -26.174 98.014)" class="C"/></g><path d="M450.427 359.872a7.071 7.071 0 0 1-3.545-.249c-18.389-6.138-36.982-19.481-42.242-23.424a7.111 7.111 0 1 1 8.531-11.379c4.828 3.619 21.852 15.852 38.215 21.313a7.112 7.112 0 0 1-.958 13.74h-.001z" class="E"/><path d="M455.756 215.533a7.491 7.491 0 0 1-6.159-3.211c-4.951-7.102-10.317-10.931-15.949-11.382-9.262-.742-17.395 7.387-17.474 7.469a7.5 7.5 0 1 1-10.783-10.427c.526-.544 13.066-13.302 29.455-11.995 10.315.826 19.418 6.799 27.056 17.755a7.5 7.5 0 0 1-6.146 11.79z" class="C"/><path d="M348.969 26.333c-15.182-24.921-83.352-1.79-68.468 28.914 14.14 29.189 83.65-3.855 68.468-28.914z" class="G"/><path d="M318.646 210.004c11.61 1.239 22.326 26.573 32.001 23.682 9.675-3.029-1.786-32.356 3.126-50.668 3.572-13.493 43.164-57.001 49.565-74.212 0 0 73.528 8.261 118.479-12.529 0 0 8.17 5.859 11.296 12.743 3.87-13.08-7.575-57.766-68.6-75.527-63.556-18.587-122.051-10.739-171.318 17.761-50.607 29.327-75.315 75.038-54.625 163.432 16.373 69.806 81.715 92.799 81.715 92.799l.667-24.91-2.304-72.571z" fill="#4f2000"/><path d="M314.756 325.028a7.468 7.468 0 0 1-2.721-.514c-18.88-7.358-33.887-16.906-48.659-30.958-43.253-41.145-55.132-95.57-34.354-157.392 15.393-45.796 42.959-79.077 44.125-80.471a7.498 7.498 0 0 1 10.564-.942 7.5 7.5 0 0 1 .945 10.562c-.27.323-27.114 32.801-41.544 76.012-18.877 56.528-8.582 104.089 30.602 141.363 8.948 8.512 22.009 19.37 43.767 27.849a7.5 7.5 0 0 1-2.725 14.49z"/><path d="M333.614 221.113c-23.289-41.001-83.519-24.067-62.03 21.828s46.54 41.239 62.474 36.335 9.298-41.011-.444-58.163z" class="D"/><g class="E"><path d="M325.844 260.777a7.113 7.113 0 0 1-8.19-5.256c-4.373-17.357-19.031-26.632-27.614-25.64a7.113 7.113 0 0 1-1.632-14.13c15.905-1.837 36.994 12.309 43.038 36.294a7.112 7.112 0 0 1-5.603 8.731z"/><path d="M305.411 254.55a7.111 7.111 0 0 1-7.26-10.869l9.18-14.112a7.112 7.112 0 0 1 11.923 7.756l-9.18 14.112a7.095 7.095 0 0 1-4.663 3.115z"/></g><path d="M123.111 427.873s115.552-45.732 153.193-47.382l114.053 76.851s78.564 150.128 74.006 291.064-43.367 212.426-43.367 212.426-272.988-21.256-275.129-80.789l-22.756-452.17z" class="B"/><path d="M977.417 427.646c.306-18.778-146.699-73.558-156.081-60.954-8.954 12.028 155.437 100.399 156.081 60.954z" class="C"/><g class="D"><path d="M827.599 326.152 753.435 519.92c-49.515 98.085 99.758 132.942 127.961 26.069.748-2.835 52.982-185.437 52.982-185.437 10.765-37.428-91.633-66.118-106.78-34.401z"/><path d="M967.085 294.315s80.674 73.134 63.712 81.604c-28.05 14.008-96.459 8.973-112.324 21.256-23.49 18.185-98.257-57.214-90.874-71.023 10.265-19.203 32.596-39.101 75.197-30.382s64.289-1.455 64.289-1.455"/><path d="M1030.798 375.92c26.146-14.039 57.334-35.845 72.772-51.254s41.554-49.631 51.956-61.246c19.227-21.469-1.786-48.321-26.216-22.088-26.738 28.711-47.265 56.042-47.265 56.042l-68.485 48.146"/><path d="M1021.327 356.378c17.23-9.838 57.469-39.138 67.051-49.806s19.446-80.494 21.773-93.697c4.486-25.457-26.051-34.927-32.039-4.753l-15.676 76.422-61.57 46.686 20.46 25.147"/><path d="M1007.085 341.561c15.403-9.193 53.139-30.911 62.64-46.945s-8.375-72.327-11.571-83.599c-5.555-19.598-38.166-8.101-31.219 16.199s12.436 49.971 12.436 49.971l-51.709 37.201 19.422 27.172"/><path d="M990.791 323.549c13.133-5.408 44.015-21.714 49.286-32.06 5.804-11.392-3.75-41.121-5.292-50.444-4.064-24.571-38.247-12.84-33.377 11.124 3.416 16.805 4.142 26.379 4.142 26.379l-38.465 15.767 23.706 29.233"/></g><path d="M1032.098 352.806a.04.04 0 0 0 .024-.007c14.303-8.574 45.858-28.851 68.259-50.737 9.594-9.373 12.045-31.751 12.293-34.272a6.596 6.596 0 0 0-6.893-7.232c-3.315.148-5.914 2.896-6.257 6.196-.686 6.603-3.561 21.189-8.359 25.877-13.266 12.961-44.02 35.789-65.821 48.859a.045.045 0 0 0-.019.022l-.264.613c-2.172 5.054 1.535 10.682 7.036 10.682zm-23.408-5.6a6.534 6.534 0 0 0 3.31-.896l5.193-2.998c23.492-13.476 49.31-29.217 58.304-45.509 9.322-16.884.536-45.472-.497-48.677a6.594 6.594 0 0 0-12.551 4.045c2.163 6.714 7.083 28.153 1.503 38.259-7.964 14.427-38.599 31.999-53.321 40.444a676.49 676.49 0 0 0-5.206 3.006 6.574 6.574 0 0 0-2.605 2.826l-.047.098c-2.091 4.357 1.084 9.403 5.917 9.403zm-15.161-17.657c28.902-13.191 45.966-24.512 52.166-34.609 8.406-13.69-4.493-55.47-4.625-55.888-4.055-12.776-9.061-16.599-11.025-17.649 0 0-4.738.259-6.382 3.112s-.206 8.319-.369 8.188c.026.02 2.618 2.181 5.206 10.337.651 2.054 3.468 11.97 5.349 22.986 3.038 17.794.709 21.849.608 22.014-2.655 4.323-12.214 13.908-46.404 29.511a6.593 6.593 0 0 0-3.26 8.736s2.857 5.021 8.736 3.263z" class="E"/><g class="B"><path d="M452.104 454.822s15.079-65.906 41.517-61.82 79.79 17.362 116.944 69.447 68.91 150.054 86.272 149.033c0 0 9.127-34.787 31.442-57.764 12.968-13.352 13.427-33.602 20.758-38.163 0 0 1.584-59.676 25.195-90.383 26.427-34.369 173.14 85.457 173.14 85.457s-27.545 81.007-51.604 181.301c-12.247 51.055-55.458 131.712-128.187 145.502-38.306 7.263-84.835-8.665-139.266-47.154l43.292 270.559-107.492 9.22-14.05-280.03c14.05-79.408.376-116.973-20.814-183.579-18.194-57.188-55.044-110.846-60.358-123.574l-16.788-28.052z"/><path d="M774.232 416.461c4.16-26.685 17.964-49.769 46.92-69.31 6.363 19.891 144.475 103.678 156.265 80.495-.607 31.233-12.145 54.945-22.841 78.358 0 0-31.565 8.275-79.447-7.819-54.791-18.416-97.403-56.599-97.403-56.599l-3.492-25.125zm-448.215 99.094s-69.941-91.509-43.904-152.564l37.501-28.202s19.68 113.362 70.744 122.553l-64.34 58.213z"/></g><path d="M331.665 512.842a7.499 7.499 0 0 1-4.848-1.776c-.735-.623-18.181-15.541-33.364-41.347-20.225-34.375-26.68-71.837-18.667-108.336a7.5 7.5 0 0 1 14.652 3.216c-7.253 33.042-1.639 65.704 16.688 97.076 6.693 11.458 13.964 20.662 19.714 27.133 5.847-30.813 25.267-40.127 37.437-42.91a25.1 25.1 0 0 1 24.949 8.586l14.283 14.995a7.5 7.5 0 0 1-10.862 10.346l-14.503-15.226a7.481 7.481 0 0 1-.459-.53 10.022 10.022 0 0 0-10.063-3.549c-17.281 3.953-26.776 19.521-27.461 45.024a7.5 7.5 0 0 1-7.496 7.299zm126.574-45.547a7.52 7.52 0 0 1-1.85-.232c-4.007-1.019-6.436-5.079-5.427-9.088.278-1.105 7.049-27.188 27.704-36.376 8.645-3.846 18.172-4.171 28.432-.992-1.314-4.917-4.308-11.691-10.864-20.027a7.5 7.5 0 1 1 11.791-9.273c19.67 25.012 14.646 41.456 14.009 43.248a7.5 7.5 0 0 1-10.578 4.115c-10.352-5.485-19.316-6.626-26.642-3.388-13.974 6.172-19.259 26.171-19.311 26.372a7.516 7.516 0 0 1-7.265 5.643zm170.304 352.151a7.501 7.501 0 0 1-7.263-9.393c.244-.936 24.206-94.192 8.264-141.736-16.414-48.951-71.359-143.674-71.913-144.625a7.5 7.5 0 0 1 12.967-7.541c2.29 3.937 56.268 96.996 73.167 147.398 17.361 51.777-6.928 146.291-7.971 150.289a7.503 7.503 0 0 1-7.252 5.609zm76.442-159.242a7.501 7.501 0 0 1-7.359-6.1 190.323 190.323 0 0 0-17.028-50.127l-1.252-2.483a7.5 7.5 0 0 1 13.393-6.755l1.253 2.484a205.327 205.327 0 0 1 18.369 54.078 7.5 7.5 0 0 1-7.376 8.903zm54.967-108.271a7.499 7.499 0 0 1-6.63-3.983l-13.021-24.51a7.5 7.5 0 0 1 13.247-7.037l13.021 24.51a7.5 7.5 0 0 1-6.617 11.02zm176.639-37.045c-35.135 0-73.311-14.33-111.598-42.081-33.785-24.487-55.606-50.447-56.518-51.54a7.5 7.5 0 1 1 11.515-9.611c.319.381 21.81 25.871 54.076 49.203 29.277 21.17 73.751 44.905 119.345 37.737a7.5 7.5 0 0 1 2.329 14.819 123.327 123.327 0 0 1-19.149 1.474z" class="F"/><path d="M364.896 1109.089c-6.755 113.763 78.148-95.151 82.325-137.321-18.619-14.391-49.866 10.417-71.021 62.639-7.039 17.376-23.968 72.807-11.305 74.682z" class="C"/><g class="B"><path d="M36.229 796.406l16.085-174.638c3.721-54.352 9.738-93.239 20.197-131.293 23.6-85.866 152.384-109.201 171.102-6.045 16.112 88.789-4.11 301.219-12.479 349.638S63.301 895.006 36.229 865.343v-68.936z"/><path d="M36.229 862.278c3.144 18.311-.756 83.812 39.064 120.255 2.459 2.25 56.836 57.091 114.128 84.096 65.088 30.68 113.933 36.222 113.933 36.222 5.733-60.789 57.349-120.697 109.127-154.899 0 0-83.241-75.458-118.634-87.377s-36.927-16.037-55.871-25.12c-21.98-10.538-59.18-4.494-59.18-4.494-16.063-20.288-36.9-9.752-63.794-2.539-76.894 20.624-78.772 33.856-78.772 33.856z"/></g><g class="D"><use href="#C"/><use href="#D"/><use href="#E"/></g><path d="M447.727 1036.716c-3.129-.761-5.538-3.474-5.746-6.838-.256-4.128 2.904-7.671 7.056-7.913l47.612-4.636c4.148-.244 8.851 4.705 9.107 8.837s-2.904 7.671-7.056 7.913l-48.737 2.838a7.57 7.57 0 0 1-2.236-.2v-.002zm101.748 61.452l-67.8-16.484c-4.045-.983-6.53-5.037-5.553-9.054s5.046-6.477 7.965-7.292l64.911 15.781 73.083-38.429c3.622-2.025 8.218-.74 10.264 2.865a7.451 7.451 0 0 1-2.85 10.196l-74.544 41.674a7.566 7.566 0 0 1-5.476.744v-.002zm7.275 37.486l-.246-.065-73.178-20.414c-4.009-1.118-6.357-5.253-5.243-9.235s5.256-6.315 9.273-5.185l69.964 19.517 60.673-37.878a7.57 7.57 0 0 1 10.39 2.367 7.452 7.452 0 0 1-2.351 10.322l-63.493 39.64a7.557 7.557 0 0 1-5.788.929v.002zm-61.327 10.551c-3.726-1.849-5.249-6.347-3.402-10.046s6.369-5.2 10.096-3.351l39.005 19.352 37.691-8.964c4.038-.961 8.116 1.519 9.094 5.542s-1.505 8.064-5.547 9.024l-40.358 9.596a7.572 7.572 0 0 1-3.542-.009l-43.038-21.144z" class="E"/><use href="#F" class="B"/><g class="F"><path d="M371.453 920.305a7.491 7.491 0 0 1-6.037-3.042c-35.832-48.482-114.083-62.4-114.87-62.535a7.503 7.503 0 0 1-6.085-8.892c.95-4.658-.431-6.351-.884-6.908-2.587-3.173-9.073-3.896-11.14-3.898a7.525 7.525 0 0 1-7.022-4.84 7.492 7.492 0 0 1 2.009-8.266c1.533-1.363 9.417-11.85 14.09-84.687 2.513-39.165 2.794-76.871 2.797-77.248a7.5 7.5 0 0 1 7.499-7.449h.052a7.5 7.5 0 0 1 7.449 7.551c-.003.38-.286 38.46-2.824 78.046-3.118 48.635-7.675 72.033-12.265 83.942 3.831 1.35 7.862 3.586 10.912 7.285 2.078 2.521 4.23 6.409 4.595 11.915 20.795 4.591 84.342 21.866 117.75 67.067a7.499 7.499 0 0 1-6.026 11.958z"/><path d="M191.382 854.837a7.501 7.501 0 0 1-3.266-14.257l41.029-19.806a7.501 7.501 0 0 1 6.521 13.509l-41.029 19.806a7.477 7.477 0 0 1-3.255.748zm31.838 13.896a7.5 7.5 0 0 1-3.284-14.248l28.596-13.896a7.5 7.5 0 0 1 6.557 13.491l-28.596 13.896a7.473 7.473 0 0 1-3.273.756zm80.143 241.62a7.501 7.501 0 0 1-7.448-8.461c6.728-52.138 16.24-85.462 31.805-111.427 15.466-25.799 36.382-43.089 65.117-62.625a7.501 7.501 0 0 1 8.433 12.405c-52.873 35.945-77.41 62.28-90.479 163.566a7.502 7.502 0 0 1-7.429 6.541z"/></g><use href="#F" x="3.256" class="B"/><path d="M303.363 1110.353a7.501 7.501 0 0 1-7.448-8.461c6.728-52.138 16.24-85.462 31.805-111.427 15.466-25.799 36.382-43.089 65.117-62.625a7.501 7.501 0 0 1 8.433 12.405c-52.873 35.945-77.41 62.28-90.479 163.566a7.502 7.502 0 0 1-7.429 6.541z" class="F"/></svg></g><g transform="matrix(1.873041 0 0 1.870616 1230 1648.125)"><svg width="481.503" height="358.839"><path d="M84.053 45.349a7.812 7.812 0 0 1-9.632-7.524C74.234 17.585 85.82 1.603 101.371.657a7.812 7.812 0 0 1 .953 15.593c-6.886.421-12.388 10.033-12.281 21.429a7.815 7.815 0 0 1-5.991 7.671h.002zm96.402 1.627a7.81 7.81 0 0 1-9.62-7.121c-1.3-21.325 10.491-38.812 26.858-39.81a7.81 7.81 0 1 1 .951 15.593c-6.426.392-13.023 10.045-12.215 23.266a7.813 7.813 0 0 1-5.974 8.072zm101.113-.002a7.81 7.81 0 0 1-9.62-7.121c-.59-9.674 1.58-19.032 6.113-26.35 4.99-8.055 12.55-12.961 20.744-13.462a7.81 7.81 0 1 1 .951 15.593c-4.193.257-7.072 3.928-8.415 6.094-2.806 4.529-4.19 10.788-3.801 17.17a7.813 7.813 0 0 1-5.974 8.073v.002zm98.039 3.289a7.813 7.813 0 0 1-9.576-6.638 50.613 50.613 0 0 1-.29-3.159c-.591-9.669 1.581-19.027 6.113-26.345 4.99-8.055 12.55-12.96 20.744-13.462 4.306-.263 8.01 3.014 8.273 7.32s-3.006 8.009-7.322 8.273c-4.189.255-7.072 3.928-8.415 6.094-2.806 4.529-4.19 10.788-3.801 17.17.044.743.112 1.472.202 2.191a7.814 7.814 0 0 1-5.929 8.554h.002z" fill="#5322ba"/><path d="M435.007 347.062 8.239 352.868c-4.824-.286-8.505-4.517-8.223-9.45L33.692 48.062c.282-4.934 6.68-7.642 11.503-7.357l405.942 24.028c4.824.286 8.505 4.517 8.223 9.45l-15.109 264.462c-.282 4.934-4.421 8.702-9.244 8.416z" fill="#b7b7b7"/><path d="m474.047 358.839-429.74-.525c-4.647.161-8.539-3.54-8.693-8.266L33.691 48.062c-.153-4.726 3.489-8.687 8.137-8.848l429.968-.292c4.647-.161 8.539 3.54 8.693 8.266l1.008 303.55c.153 4.726-2.803 7.94-7.45 8.101z" fill="#e3e5e5"/><g fill="#b7b7b7"><path d="M116.224 171.332c-20.416.001-37.35-16.13-38.033-36.536-.339-10.102 3.308-19.729 10.269-27.11 6.949-7.369 16.373-11.614 26.533-11.955s19.846 3.264 27.273 10.151c7.439 6.897 11.723 16.26 12.061 26.362.698 20.837-15.811 38.361-36.802 39.065a37.76 37.76 0 0 1-1.301.022zm.078-65.622c-.324 0-.649.005-.975.016-7.507.251-14.465 3.384-19.593 8.821-5.117 5.426-7.798 12.498-7.55 19.914.514 15.327 13.536 27.374 29.005 26.854 15.48-.519 27.656-13.41 27.143-28.736-.249-7.417-3.397-14.293-8.866-19.364-5.242-4.861-12.015-7.506-19.165-7.506zm98.39 65.457c-20.413 0-37.348-16.13-38.032-36.535-.698-20.837 15.811-38.361 36.802-39.065 20.958-.728 38.636 15.676 39.334 36.513s-15.811 38.361-36.802 39.065a37.86 37.86 0 0 1-1.302.022zm.067-65.622c-.32 0-.64.005-.962.016-15.48.519-27.656 13.41-27.143 28.736s13.528 27.366 29.005 26.854c15.479-.519 27.654-13.411 27.143-28.736-.503-15.007-12.99-26.87-28.043-26.87zm98.841 65.566a37.95 37.95 0 0 1-25.956-10.174c-7.439-6.898-11.722-16.26-12.061-26.362-.698-20.837 15.811-38.361 36.801-39.065 20.962-.718 38.636 15.676 39.334 36.513.339 10.102-3.308 19.73-10.269 27.11-6.95 7.369-16.373 11.614-26.533 11.955a38.71 38.71 0 0 1-1.318.022zm.082-65.623c-.32 0-.64.005-.962.016-15.479.519-27.656 13.41-27.142 28.736.249 7.416 3.397 14.293 8.866 19.364 5.48 5.082 12.63 7.742 20.14 7.49s14.465-3.384 19.593-8.821c5.116-5.425 7.797-12.499 7.549-19.915-.503-15.007-12.99-26.87-28.043-26.87zm98.442 65.795c-9.678 0-18.851-3.585-25.957-10.174-7.439-6.898-11.722-16.26-12.061-26.362-.698-20.837 15.811-38.361 36.802-39.065 20.964-.725 38.636 15.676 39.334 36.513s-15.811 38.361-36.802 39.065a38.65 38.65 0 0 1-1.317.022zm.082-65.623c-.32 0-.64.005-.962.016-15.48.519-27.656 13.41-27.143 28.736.249 7.416 3.397 14.293 8.866 19.364 5.481 5.082 12.637 7.739 20.14 7.49 15.479-.519 27.654-13.411 27.143-28.736-.503-15.007-12.99-26.87-28.043-26.87zM116.384 254.437c-9.678 0-18.851-3.585-25.957-10.174-7.439-6.898-11.722-16.26-12.061-26.362-.698-20.837 15.811-38.361 36.802-39.065 20.959-.706 38.636 15.676 39.334 36.513s-15.811 38.361-36.802 39.065a38.65 38.65 0 0 1-1.317.022zm.082-65.623c-.32 0-.64.005-.962.016-15.48.519-27.656 13.41-27.143 28.736.249 7.416 3.397 14.293 8.866 19.364 5.48 5.082 12.64 7.74 20.14 7.49 15.48-.519 27.656-13.41 27.143-28.736-.503-15.007-12.99-26.87-28.043-26.87zm97.988 65.658c-9.678 0-18.851-3.585-25.957-10.174-7.439-6.898-11.722-16.26-12.061-26.362-.698-20.837 15.811-38.361 36.801-39.065a37.98 37.98 0 0 1 27.274 10.151c7.439 6.898 11.722 16.26 12.061 26.362.698 20.837-15.811 38.361-36.801 39.065a38.65 38.65 0 0 1-1.317.022zm.094-65.623c-.324 0-.649.005-.975.016-15.479.519-27.656 13.41-27.142 28.736.249 7.416 3.397 14.293 8.866 19.364 5.48 5.082 12.638 7.74 20.14 7.49 15.479-.519 27.656-13.41 27.142-28.736-.249-7.416-3.397-14.293-8.866-19.364-5.243-4.861-12.016-7.506-19.165-7.506z"/><ellipse cx="313.511" cy="216.527" rx="33.09" ry="32.81" transform="matrix(.999439 -.033504 .033504 .999439 -7.077 10.623)"/><ellipse cx="411.553" cy="216.701" rx="33.09" ry="32.81" transform="matrix(.999439 -.033504 .033504 .999439 -7.028 13.907)"/><ellipse cx="119.286" cy="298.69" rx="33.09" ry="32.81" transform="matrix(.999439 -.033504 .033504 .999439 -9.938 4.163)"/><ellipse cx="214.831" cy="298.488" rx="33.09" ry="32.81" transform="matrix(.999439 -.033504 .033504 .999439 -9.878 7.363)"/><ellipse cx="313.511" cy="298.841" rx="33.09" ry="32.81" transform="matrix(.999439 -.033504 .033504 .999439 -9.834 10.669)"/><ellipse cx="411.553" cy="298.895" rx="33.09" ry="32.81" transform="matrix(.999439 -.033504 .033504 .999439 -9.781 13.953)"/></g><path d="M110.076 76.114a23.855 23.855 0 0 1-4.061.603 7.81 7.81 0 1 1-.951-15.593c6.423-.396 13.023-10.045 12.215-23.266s-8.53-21.999-14.956-21.606a7.81 7.81 0 1 1-.951-15.593c16.361-.999 30.199 14.923 31.501 36.248 1.19 19.516-8.589 35.818-22.798 39.209v-.002zm96.322-.614a23.855 23.855 0 0 1-4.061.603c-4.306.263-8.01-3.014-8.273-7.32a7.81 7.81 0 0 1 7.322-8.273c6.423-.397 13.023-10.045 12.215-23.266s-8.53-21.999-14.956-21.606a7.81 7.81 0 0 1-8.273-7.32 7.808 7.808 0 0 1 7.322-8.273c16.361-.999 30.199 14.923 31.501 36.248 1.19 19.516-8.589 35.818-22.798 39.209V75.5zm100.975.017a22.79 22.79 0 0 1-3.922.584c-4.306.263-8.01-3.014-8.273-7.32a7.81 7.81 0 0 1 7.322-8.273c4.189-.256 7.072-3.928 8.415-6.094 2.806-4.529 4.19-10.788 3.801-17.17s-2.526-12.427-5.862-16.581c-1.595-1.987-4.899-5.283-9.093-5.025-4.306.263-8.011-3.014-8.273-7.32s3.016-8.01 7.32-8.273c8.194-.5 16.295 3.449 22.228 10.838 5.389 6.712 8.683 15.736 9.275 25.41s-1.58 19.032-6.114 26.349c-4.18 6.751-10.169 11.289-16.821 12.877h-.002zm97.791.615a22.79 22.79 0 0 1-3.922.584 7.81 7.81 0 1 1-.951-15.593c4.184-.255 7.072-3.928 8.415-6.094 2.806-4.529 4.19-10.788 3.801-17.17-.808-13.223-8.53-21.999-14.956-21.608-4.306.263-8.01-3.014-8.273-7.32A7.81 7.81 0 0 1 396.6.658c16.361-.999 30.199 14.923 31.501 36.248.59 9.674-1.58 19.032-6.113 26.35-4.18 6.751-10.169 11.289-16.82 12.877h-.003z" fill="#5322ba"/><path d="M117.193 159.923a7.503 7.503 0 0 1-5.744-2.678l-24.671-29.391a7.5 7.5 0 0 1 11.489-9.643l17.856 21.272 30.194-51.153a7.5 7.5 0 1 1 12.917 7.625l-35.583 60.282a7.501 7.501 0 0 1-6.46 3.687zm96.989 0a7.502 7.502 0 0 1-5.744-2.678l-24.671-29.391a7.5 7.5 0 0 1 11.489-9.643l17.856 21.272 30.194-51.153a7.5 7.5 0 1 1 12.917 7.625l-35.583 60.282a7.501 7.501 0 0 1-6.46 3.687zm99.766.114a7.503 7.503 0 0 1-5.744-2.678l-24.671-29.391a7.5 7.5 0 0 1 11.489-9.643l17.856 21.272 30.194-51.153a7.5 7.5 0 1 1 12.917 7.625l-35.583 60.282a7.501 7.501 0 0 1-6.46 3.687zm98.454-.114a7.502 7.502 0 0 1-5.744-2.678l-24.671-29.391a7.5 7.5 0 0 1 11.489-9.643l17.856 21.272 30.194-51.153a7.5 7.5 0 0 1 12.917 7.625l-35.583 60.282a7.5 7.5 0 0 1-6.459 3.687zm-295.19 83.389a7.502 7.502 0 0 1-5.744-2.678l-24.671-29.391a7.5 7.5 0 1 1 11.489-9.643l17.856 21.272 30.194-51.153a7.5 7.5 0 1 1 12.917 7.625l-35.583 60.282a7.501 7.501 0 0 1-6.46 3.687zm97.302 0a7.502 7.502 0 0 1-5.744-2.678l-24.671-29.391a7.5 7.5 0 1 1 11.489-9.643l17.856 21.272 30.194-51.153a7.5 7.5 0 0 1 12.917 7.625l-35.583 60.282a7.5 7.5 0 0 1-6.459 3.687z" class="G"/></svg></g><g transform="matrix(1.873673 0 0 1.87499 661.875 1098.75)"><svg width="600.425" height="764.004"><path d="M328.666 692.945c-6.755 113.763 78.148-95.151 82.325-137.321-18.619-14.391-49.866 10.417-71.021 62.639-7.039 17.376-23.968 72.807-11.305 74.682Z" class="C"/><g class="B"><path d="M0 380.262l16.085-174.638c3.721-54.352 9.738-93.239 20.197-131.293 23.6-85.866 152.384-109.201 171.102-6.045 16.112 88.789-4.11 301.219-12.479 349.638S27.072 478.862 0 449.199v-68.936z"/><path d="M0 446.134c3.144 18.311-.756 83.812 39.064 120.255 2.459 2.25 56.836 57.091 114.128 84.096 65.088 30.68 113.933 36.222 113.933 36.222 5.733-60.789 57.349-120.697 109.127-154.899 0 0-83.241-75.458-118.634-87.377s-36.927-16.037-55.871-25.12c-21.98-10.538-59.18-4.494-59.18-4.494-16.063-20.288-36.9-9.752-63.794-2.539C1.878 432.903 0 446.134 0 446.134z"/></g><g class="D"><use href="#C" x="-36.23" y="-416.144"/><use href="#D" x="-36.229" y="-416.144"/><use href="#E" x="-36.229" y="-416.144"/></g><path d="M411.497 620.572c-3.129-.761-5.538-3.474-5.746-6.838-.256-4.128 2.904-7.671 7.056-7.913l47.612-4.636c4.148-.244 8.851 4.705 9.107 8.837s-2.904 7.671-7.056 7.913l-48.737 2.838a7.57 7.57 0 0 1-2.236-.2v-.002zm101.749 61.452l-67.8-16.484c-4.045-.983-6.53-5.037-5.553-9.054s5.046-6.477 7.965-7.292l64.911 15.781 73.083-38.429c3.622-2.025 8.218-.74 10.264 2.865a7.451 7.451 0 0 1-2.85 10.196l-74.544 41.674a7.566 7.566 0 0 1-5.476.744v-.002zm7.275 37.486l-.246-.065-73.178-20.414c-4.009-1.118-6.357-5.253-5.243-9.235s5.256-6.315 9.273-5.185l69.964 19.517 60.673-37.878a7.57 7.57 0 0 1 10.39 2.367 7.452 7.452 0 0 1-2.351 10.322l-63.493 39.64a7.557 7.557 0 0 1-5.788.929v.002zm-61.327 10.55c-3.726-1.849-5.249-6.347-3.402-10.046s6.369-5.2 10.096-3.351l39.005 19.352 37.691-8.964c4.038-.961 8.116 1.519 9.094 5.542s-1.505 8.064-5.547 9.024l-40.358 9.596a7.572 7.572 0 0 1-3.542-.009l-43.038-21.144z" class="E"/><use href="#G" class="B"/><g class="F"><path d="M335.224 504.16a7.489 7.489 0 0 1-6.037-3.042c-35.832-48.481-114.083-62.4-114.87-62.535a7.503 7.503 0 0 1-6.084-8.892c.954-4.677-.443-6.373-.902-6.929-2.677-3.248-9.554-3.846-11.083-3.877-3.137.058-5.943-1.884-7.068-4.802a7.497 7.497 0 0 1 2.016-8.303c1.533-1.363 9.417-11.85 14.09-84.687 2.513-39.165 2.794-76.871 2.797-77.248a7.5 7.5 0 0 1 7.499-7.449h.052a7.5 7.5 0 0 1 7.449 7.551c-.003.38-.286 38.46-2.824 78.046-3.118 48.635-7.675 72.033-12.265 83.942 3.831 1.351 7.862 3.586 10.912 7.286 2.078 2.521 4.23 6.408 4.595 11.914 20.795 4.592 84.342 21.866 117.75 67.067a7.5 7.5 0 0 1-6.025 11.958Z"/><path d="M155.153 438.692a7.501 7.501 0 0 1-3.266-14.257l41.029-19.805a7.501 7.501 0 0 1 6.521 13.509l-41.029 19.805a7.477 7.477 0 0 1-3.255.748Zm31.838 13.897a7.501 7.501 0 0 1-3.284-14.247l28.596-13.897a7.5 7.5 0 0 1 6.557 13.491l-28.596 13.897a7.473 7.473 0 0 1-3.273.756Zm80.143 241.619a7.501 7.501 0 0 1-7.448-8.461c6.728-52.138 16.24-85.462 31.805-111.427 15.466-25.799 36.383-43.09 65.117-62.625a7.501 7.501 0 0 1 8.433 12.405c-52.873 35.945-77.41 62.28-90.479 163.566a7.502 7.502 0 0 1-7.429 6.541Z"/></g><use href="#G" x="3.255" class="B"/><path d="M267.134 694.208a7.501 7.501 0 0 1-7.448-8.461c6.728-52.138 16.24-85.462 31.805-111.427 15.466-25.799 36.383-43.09 65.117-62.625a7.501 7.501 0 0 1 8.433 12.405c-52.873 35.945-77.41 62.28-90.479 163.566a7.502 7.502 0 0 1-7.429 6.541Z" class="F"/></svg></g><defs ><path id="C" d="M530.875 993.261c18.479 1.466 25.896 25.187-2.149 33.73-5.285 1.61-77.431-2.585-86.091-2.968a6.522 6.522 0 0 1-1.258-.18l-52.065-12.658c-4.88-1.186-6.691-7.177-3.287-10.869l27.483-29.798a6.587 6.587 0 0 1 6.273-1.964l111.092 24.707z"/><path id="D" d="M618.894 1026.088c5.984 3.897 8.959 13.643 3.903 21.406-8.846 13.586-77.455 43.325-77.455 43.325l-171.1-35.697 5.385-61.242h.001l162.575 54.475s26.069-15.554 54.109-25.273c6.607-2.29 16.716-.816 22.582 3.005"/><path id="E" d="M468.784 1156c-25.91-11.808-110.953-41.137-110.953-41.137l17.482-71.905 190.519 31.993 51.834-27.525s31.961 6.983 12.953 33.047l-8.307 9.57s-4.343 2.306-.988 4.428c6.241 3.949 9.29 11.514 6.416 18.272-2.176 5.115-6.337 10.536-14.094 14.746-20.527 11.139-29.708 17.954-29.708 17.954s14.942 13.468-3.149 25.986-54.978 7.877-54.978 7.877"/><path id="F" d="M390.188 934.043c25.126 2.183 33.562 7.665 44.365 12.907 18.006 8.737 28.912 19.455 34.339 32.525-30.734 5.958-54.969 12.291-76.426 44.652-20.915 31.544-31.621 107.942-24.004 118.475 0 0-58.021-21.431-65.11-39.751-3.476-8.984-28.344-82.097-1.146-118.755 23.791-32.066 87.981-50.055 87.981-50.055z"/><path id="G" d="M353.959 517.899c25.126 2.183 33.562 7.665 44.365 12.907 18.006 8.737 28.912 19.455 34.339 32.525-30.734 5.958-54.969 12.291-76.426 44.652-20.915 31.544-31.621 107.942-24.004 118.475 0 0-58.021-21.431-65.11-39.751-3.476-8.984-28.344-82.097-1.146-118.755 23.791-32.066 87.981-50.055 87.981-50.055Z"/></defs></svg>