<svg xmlns="http://www.w3.org/2000/svg" width="3000" height="2347" xmlns:v="https://vecta.io/nano"><style><![CDATA[.B{fill:#111}.C{fill:#e09273}.D{fill:#ea2688}.E{fill:#b7006d}.F{fill:#ffd215}.G{fill:#a85f36}.H{fill:#5917c1}]]></style><g transform="matrix(1.302999 0 0 1.30283 153.913043 297.391304)"><svg width="2132.205" height="1460.7"><path d="M200.786 200.745c-305.797 265.875-250.099 886.081 84.233 1072.358 368.895 205.534 944.388 235.386 1409.137 122.7 379.397-140.816 447.135-300.382 437.139-708.932-1.681-68.692-52.769-218.393-159.762-280.092-325.811-187.883-317.972 217.26-734.28-200.717-314.09-315.35-778.739-229.399-1036.467-5.317Z" fill="#5ac4ff"/></svg></g><g transform="matrix(1.308386 0 0 1.30886 79.565217 121.304348)"><svg width="1444.528" height="1480.877"><clipPath id="A"><path d="M896.771 356.155l-9.446 47.68c-2.709 16.036.845 34.072 2.317 54.239s-67.895 28.484-67.322-39.056c.52-61.225 78.574-84.231 74.45-62.86v-.002z"/></clipPath><path d="M902.797 686.674c84.076 79.431 199.45 334.847 222.469 400.06 26.439 74.901-59.119 258.063-150.383 225.865-105.217-37.12-164.391-346.394-183.898-395.313s111.812-230.611 111.812-230.611z" class="B"/><path d="M876.761 651.587c81.769 31.08 182.915 257.388 227.624 371.92.613 1.571-.571 3.244-2.257 3.215-137.464-2.375-222.971 117.259-228.465 190.077 0 0-87.212-249.428-101.582-324.085s104.682-241.125 104.682-241.125z" class="H"/><rect height="187.773" rx="93.886" transform="matrix(.202087 -.979368 .979368 .202087 -33.741 1072.803)" width="428.637" x="427.195" y="463.222" class="C"/><path d="m723.866 623.457 102.618 17.226s-.206 135.988-132.672 145.956-251.589-113.034-281.755-173.125l123.288-6.495 12.16-58.929c44.279 45.637 113.031 66.794 180.402 53.478l-4.042 21.89z" class="B"/><path d="M451.038 604.355c38.22 70.158 145.145 155.9 233.093 146.165 76.15-8.428 107.713-86.886 100.926-116.792-1.868-8.231 79.336 12.483 91.708 17.861 7.062 3.071 30.415 162.14 30.415 162.14s48.532 80.839 48.046 128.283-11.875 98.052-10.683 138.393c.913 30.903 14.089 166.547 14.089 166.547-1.706.612-156.513 17.42-264.889 60.63-124.064 48.483-270.061 131.599-270.061 131.599s-74.391 7.313-67.446-88.007 20.172-135.779 17.865-233.155c-3.403-143.627-94.043-471.733-54.431-485.942 41.47-14.874 126.551-36.572 131.372-27.724z" class="H"/><g class="B"><path d="M394.863 984.987c-33.727 44.552-65.982 119.617-73.676 201.788-15.71 167.786-189.333 298.961-255.46 253.805-75.8-51.763-78.941-274.301 14.213-451.728C187.309 784.356 265.314 697.343 309.681 668.96s85.182 316.027 85.182 316.027z"/><path d="M276.69 1194.499c58.489-19.795 196.883-57.127 246.636-75.292-13.222 44.869 12.763 134.68 59.709 144.943 0 0-145.414 122.879-223.75 170.061-101.849 61.341-215.199 60.905-293.561 6.37-88.119-61.326 79.999-201.757 210.965-246.079v-.002z"/></g><path d="M319.664 632.077c-77.209 26.585-266.72 306.202-316.553 412.394-4.653 9.916-4.064 21.516 1.614 30.883 44.531 73.461 202.594 108.596 322.91 68.581 0 0 38.606-132.417 97.632-203.019s-105.604-308.84-105.604-308.84h.002z" class="H"/><path d="M1036.07 1367.359c167.8-40.816 331.144-305.536 331.144-305.536-67.411 2.09-109.94-36.997-123.945-108.53 0 0-183.44 109.868-238.79 158.702-69.841 61.619 31.592 255.366 31.592 255.366v-.002z" class="B"/><g class="C"><path d="m1411.339 982.631-14.451 31.752-29.676 47.438c-69.041 78.848-192.986-29.682-123.945-108.53l58.144-41.417c45.293 10.029 109.927 70.758 109.927 70.758z"/><path d="M1395.207 709.704c43.084 37.688 53.638 144.816 47.873 181.895s-44.899 120.826-45.473 121.114c-12.786 6.432-81.205-31.266-89.836-77.948-15.209-82.275 52.647-255.494 87.436-225.061z"/></g><path d="M1288.301 685.76s10.018-10.664 28.74-2.594 30.748 25.036 32.554 30.592c3.974 12.218-3.539 18.447-3.539 18.447l-57.756-46.447zm-178.75-12.082s-19.128-20.996-43.063-7.398-36.92 31.655-33.443 43.43 10.467 17.965 10.467 17.965z" class="D"/><path d="M1047.796 936.523c37.381-.635 60.785-64.053 62.352-69.459 1.57-5.396 3.804-11.093 19.892-10.254s120.621.783 126.765.451c6.147-.324 11.76 3.514 17.854 22.871 6.089 19.35 27.227 53.353 52.111 52.711 24.87-.646 56.793-49.964 53.399-102.726-3.384-52.766-23.706-133.502-75.065-144.885-6.839-1.513-19.816-3.19-36.042-4.853-36.871-3.788-90.454-7.538-126.645-9.333-.012-.005-.02 0-.033-.006-17.587-.868-31.062-1.271-36.518-.998-40.761 2.079-107.785 79.013-105.584 163.244 1.846 70.795 14.618 103.811 47.515 103.236z" fill="#e3e5e5"/><path d="M1166.447 721.153c5.821 12.134 20.034 15.881 25.591 16.599s64.793 3.156 72.304 3.541c7.503.391 13.202-.343 15.48-4.138 2.774-4.622 10.021-12.802 8.413-28.831-1.863-18.578-18.516-27.631-19.175-27.945-36.871-3.788-90.454-7.538-126.645-9.333 6.853.443 18.217 37.99 24.032 50.107h.001z" class="D"/><path d="M1287.664 860.157l.013-.007zm-223.872 73.431a7.463 7.463 0 0 1-3.866-1.079c-42.532-25.653-56.23-76.033-39.613-145.692 12.164-50.994 35.93-93.977 36.936-95.781a7.5 7.5 0 0 1 10.2-2.901 7.502 7.502 0 0 1 2.904 10.201c-.237.426-23.866 43.204-35.512 92.229-15.069 63.435-4.023 106.871 32.833 129.102a7.5 7.5 0 0 1-3.881 13.923zm50.594-66.305a7.454 7.454 0 0 1-3.371-.806c-3.688-1.865-5.179-6.352-3.326-10.045.392-.781 9.8-19.211 28.131-27.343a7.499 7.499 0 1 1 6.083 13.71c-13.327 5.912-20.744 20.233-20.817 20.378a7.517 7.517 0 0 1-6.701 4.104zm222.789 66.306a7.457 7.457 0 0 1-2.234-.344c-.53-.165-13.123-4.19-25.357-15.918-10.299-9.871-22.255-27.158-23.475-54.76h-23.182a7.5 7.5 0 1 1 0-15h30.62a7.499 7.499 0 0 1 7.497 7.708c-1.387 50.24 36.778 63.14 38.403 63.664 3.929 1.268 6.111 5.479 4.862 9.413a7.496 7.496 0 0 1-7.134 5.237z" fill="#b7b7b7"/><g class="C"><path d="M1404.367 719.309c-17.382-22.207-68.238-38.788-84.606-37.044s-79.843 24.078-100.257 33.605c-28.142 13.136-16.372 58.043 21.289 46.972 37.78-11.104 75.22-24.782 75.22-24.782l71.147 42.697 17.207-61.45z"/><path d="M1400.734 782.547c-18.502-21.491-75.377-54.484-89.285-53.423s-75.164 28.711-90.446 37.62c-29.567 17.241-11.938 59.378 21.601 44.367l63.679-27.748 65.615 45.721 28.834-46.538z"/><path d="M1394.707 825.596c-20.447-14.567-73.572-29.901-84.559-25.811s-52.782 19.007-68.33 26.313c-26.891 12.633-17.863 55.304 20.458 41.417l53.007-19.493 58.671 17.558 20.751-39.983h.002z"/><path d="M1385.022 869.02c-13.484-10.259-58.218-32.97-75.066-26.097s-36.302 22.637-48.984 32.054c-22.947 17.034 2.397 51.5 25.892 35.174s30.765-22.616 30.765-22.616 44.433 28.859 45.713 25.891 21.681-44.406 21.681-44.406z"/></g><path d="M868.106 952.445c-10.171-96.151-99.128-159.614-193.473-146.157-88.682 12.647-154.745 90.016-152.174 176.375 2.67 89.738 78.263 163.014 174.205 160.285 102.551-2.918 182.062-90.118 171.444-190.503z" class="F"/><path d="M657.779 926.487c.94 21.414-5.799 39.481-15.009 40.167-9.151.681-17.163-16.086-17.937-37.273-.768-20.989 5.861-38.594 14.848-39.502 9.044-.914 17.166 15.393 18.097 36.607h.002zm104.371-9.173c1.484 22.135-5.359 40.838-15.238 41.575-9.814.732-18.785-16.579-20.081-38.47-1.284-21.681 5.447-39.89 15.076-40.862 9.692-.979 18.773 15.838 20.242 37.758v-.002zm-129.552 156.449c-16.233-6.689-31.03-16.211-43.752-28.345a9.67 9.67 0 0 1-.324-13.667 9.67 9.67 0 0 1 13.667-.324c25.013 23.855 59.507 36.049 97.129 34.337 39.051-1.08 75.708-17.345 100.746-44.631a9.662 9.662 0 0 1 13.658-.587 9.67 9.67 0 0 1 .587 13.659c-28.553 31.118-70.208 49.662-114.285 50.88-23.918 1.09-46.83-2.834-67.429-11.322h.002z" class="B"/><path d="M633.836 115.004C610.443-30.737 442.707-32.166 332.097 78.038c-79.988 79.694-67.86 142.564-51.795 215.363 19.164 86.848 60.136 166.017 21.255 211.371-34.656 40.43-74.817 30.057-111.279-9.572 8.29 30.671 21.434 62.65 39.163 92.61 32.409 18.962 69.695 11.487 109.661-10.526-18.943 24.526-41.431 46.297-73.981 60.261 21.182 24.386 46.124 45.416 74.618 60.489 27.6-2.974 52.144-14.129 74.41-31.391-8.144 20.275-18.477 37.52-33.769 47.894a208.67 208.67 0 0 0 44.847 7.831s91.431-70.628 75.157-178.63c-11.66-77.388-77.624-206.292-29.677-283.001 44.493-71.182 57.912-50.047 57.912-50.047l105.21-95.687h.006z" class="D"/><path d="M343.04 582.779a7.5 7.5 0 0 1-4.279-13.666c30.183-20.919 46.83-45.698 49.48-73.65 1.947-20.53-4.611-34.873-4.677-35.016l-.212-.501-36.604-96.094c-.691-1.868-16.35-44.73-18.77-95.815-3.276-69.13 19.737-119.466 66.552-145.566 58.385-32.551 103.733-25.962 131.495-14.703 30.24 12.265 46.402 32.293 47.075 33.14a7.5 7.5 0 0 1-1.202 10.538 7.497 7.497 0 0 1-10.526-1.188c-.145-.181-14.81-18.168-41.642-28.854-35.797-14.255-75.463-9.488-117.895 14.168-42.018 23.427-61.831 67.642-58.889 131.418 2.252 48.822 17.691 91.172 17.847 91.594l36.499 95.817c1.103 2.494 8.075 19.357 5.883 42.477-2.123 22.385-13.538 55.226-55.869 84.563a7.467 7.467 0 0 1-4.266 1.337z" class="E"/><path d="M634.919 132.998c5.572-5.686 3.785-17.862-2.001-22.419-60.638 9.396-98.678 34.67-123.34 86.701-1.099 11.733 6.963 22.804 14.173 23.693 26.871-43.454 63.72-73.069 111.17-87.974l-.002-.002z" class="B"/><path d="M900.342 297.32c5.677 29.715-6.612 68.619-13.014 106.513-5.419 32.073 14.223 72.144-7.876 121.253-24.066 53.482-100.553 69.286-156.241 58.14-60.351-12.079-122.434-63.493-143.713-127.597s-3.68-186.475 46.07-225.569c116.624-91.644 259.672-11.786 274.775 67.262v-.002z" class="C"/><g class="D"><path d="M879.695 256.727C835.472 130.308 643.199 90.22 558.026 170.65c-75.454 71.253-64.523 239.746-19.829 293.898 6.813 26.466-14.618 41.614-37.814 17.984 0 0 9.23 47.888 53.248 35.872l16.754-81.196 15.081-55.93c37.671-7.737 56.843-97.944 75.312-129.394 0 0 18.176-50.902 101.525-46.173s117.392 51.015 117.392 51.015v.002z"/><path d="M766.225 175.973c96.098-2.824 166.593 40.823 157.039 142.864-21.558-19.536-66.025-29.856-114.113-31.882-4.307-24.46-19.161-44.383-42.013-60.868-8.933 17.445-14.909 37.771-16.488 62.383-43.042 4.037-94.458 18.884-116.814 35.051-12.097-65.799 17.192-144.162 132.387-147.55z"/></g><path d="M764.255 346.958c21.44 5.23 29.758-29.183 8.185-33.324s-60.911 4.476-76.898 21.99c-9.03 9.893-3.344 17.061 2.754 14.283 16.049-7.313 48.235-7.274 65.957-2.949zm89.478 11.665c-21.429-1.046-14.975-35.22 4.398-32.606 23.995 3.236 46.713 19.819 53.692 29.99 7.436 10.84.866 23.572-8.767 16.645s-33.266-13.248-49.326-14.032l.002.002z" class="E"/><path d="M762.858 526.139c4.629 7.712-26.054 34.875-54.119 19.067-30.605-17.238-22.468-52.649-13.689-53.925s20.602 16.449 34.587 22.025 29.207 6.142 33.223 12.832l-.002.002z" fill="#fff"/><path d="M600.597 365.124c-4.864-43.689-50.858-48.338-56.851-3.94-5.936 43.969 3.552 72.785 27.941 74.547 22.885 1.654 32.71-36.468 28.908-70.607z" class="C"/><g class="G"><path d="M575.502 415.16c5.099.477 9.88-2.888 11.046-8.014 6.599-29.05-9.962-56.79-28.954-63.519-5.383-1.905-11.304.911-13.21 6.3-1.91 5.389.911 11.304 6.3 13.212 8.037 2.848 20.095 19.977 15.678 39.419-1.264 5.574 2.225 11.119 7.801 12.386.448.1.895.171 1.34.213v.004z"/><path d="M557.724 396.113a10.321 10.321 0 0 0 4.012-.419l17.089-5.271c5.461-1.684 8.524-7.479 6.84-12.94a10.36 10.36 0 0 0-12.942-6.84l-17.089 5.271c-5.461 1.684-8.524 7.479-6.84 12.94a10.356 10.356 0 0 0 8.93 7.258z"/></g><ellipse cx="733.075" cy="406.211" fill="#fff" rx="42.344" ry="36.867" transform="matrix(.284869 -.958567 .958567 .284869 134.866 993.196)"/><ellipse cx="743.483" cy="410.143" rx="31.663" ry="22.644" transform="matrix(.07698 -.997033 .997033 .07698 277.319 1119.844)" class="B"/><g clip-path="url(#A)"><ellipse cx="870.539" cy="414.753" fill="#fff" rx="39.046" ry="33.058" transform="matrix(.284869 -.958567 .958567 .284869 224.982 1131.073)"/><ellipse cx="874.081" cy="417.94" rx="29.116" ry="20.247" transform="matrix(.133312 -.991074 .991074 .133312 343.345 1228.502)" class="B"/></g><g class="C"><path d="M523.326 1119.206c41.185-13.56 144.595-129.924 170.418-150.977s75.692 131.501 47.733 170.023-82.543 114.12-135.559 104.51l-22.882 21.386c-84.842 69.193-152.016-116.044-59.709-144.943z"/><path d="M693.744 968.23c23.983-15.137 75.645-44.617 97.242-50.944 16.062-4.704 85.836-7.138 103.211-5.898 30.652 2.188 31.677 45.114-.768 44.305s-86.869 7.181-86.869 7.181l-79.667 45.193-33.146-39.836h-.002z"/><path d="M722.879 1002.212c17.069-15.629 63.832-24.438 78.768-20.395 12.034 3.256 28.212 65.424 12.517 70.315s-57.082 19.831-72.877 25.096-35.732-32.976-8.646-43.748 45.312-13.558 45.312-13.558l-40.507 11.694-14.565-29.406v.002z"/><path d="M721.581 1044.409c18.712-13.618 63.093-24.831 78.538-15.256 10.595 6.568 28.193 78.259 8.293 83.208-15.954 3.968-63.52 10.754-79.807 14.216s-31.814-36.771-3.691-44.442 46.544-8.397 46.544-8.397l-41.562 7.084z"/><path d="M735.183 1090.785c18.712-13.618 58.334-15.485 72.723-9.796 11.594 4.585 14.383 70.057.224 78.987-10.341 6.521-22.848 14.2-37.889 21.651-24.845 12.31-46.265-23.575-21.555-39.04 17.74-11.102 27.067-18.676 27.067-18.676l-29.162 14.445-11.409-47.572v.002z"/></g><path d="M641.507 517.078a7.467 7.467 0 0 1-3.488-.865l-49.744-26.189c-11.553-6.083-17.838-19.274-15.284-32.078l5.779-28.974a7.5 7.5 0 1 1 14.71 2.933l-5.779 28.974c-1.264 6.336 1.846 12.862 7.562 15.871l49.744 26.189a7.5 7.5 0 0 1-3.501 14.139z" class="F"/><ellipse cx="641.514" cy="507.577" rx="13.986" ry="23.281" transform="matrix(.373214 -.927745 .927745 .373214 -68.812 913.301)" class="B"/><g class="F"><path d="M585.189 311.368c-3.114-22.05 11.495-108.057 76.167-135.958s101.016-27.403 134.599-19.577c12.47 4.231 40.216 23.485 40.216 29.602 0 0-101.855-12.36-148.95 25.58-45.406 36.579-54.512 87.635-59.165 109.414s-42.867-9.06-42.867-9.06v-.002z"/><ellipse cx="585.294" cy="373.077" rx="52.099" ry="74.582" transform="matrix(.992955 -.118491 .118491 .992955 -40.083 71.98)"/></g><ellipse cx="585.294" cy="373.077" fill="#ce9800" rx="25.986" ry="37.198" transform="matrix(.992955 -.118491 .118491 .992955 -40.083 71.98)"/><path d="M607.351 452.33a9.01 9.01 0 0 0 1.073-.038c33.076-3.13 56.503-42.474 52.225-87.702-2.018-21.339-10.225-44.486-22.354-58.769-12.9-15.191-26.815-21.349-43.458-19.778-4.92.465-10.463 7.025-9.998 11.946s4.825 8.522 9.752 8.065c10.649-1.009 21.473 4.277 30.479 14.883 9.779 11.513 16.087 27.615 17.763 45.338 3.293 34.806-13.235 66.038-36.094 68.202a8.95 8.95 0 0 0 .612 17.855z" class="F"/><path d="M366.762 1045.278a7.5 7.5 0 0 1-6.412-11.378l58.497-96.86a7.5 7.5 0 1 1 12.839 7.754l-58.497 96.86a7.496 7.496 0 0 1-6.427 3.624zm581.989 62.326a7.499 7.499 0 0 1-7.49-7.235l-2.556-74.541c-.881-26.383 3.559-53.696 6.497-71.77 1.283-7.894 2.392-14.711 2.37-17.471-.107-13.992-28.999-80.833-47.184-119.678a7.5 7.5 0 0 1 13.585-6.36c4.957 10.587 48.43 104.064 48.599 125.922.031 4.029-1.058 10.725-2.564 19.993-2.845 17.498-7.144 43.941-6.312 68.862l2.555 74.512a7.5 7.5 0 0 1-7.5 7.765z" fill="#330096"/><path d="M826.493 483.166a7.5 7.5 0 0 1-7.48-8.153c.537-6.138-.544-9.085-1.633-9.743-3.271-1.979-14.028 1.86-21.461 6.617-3.485 2.229-8.124 1.219-10.358-2.263a7.496 7.496 0 0 1 2.248-10.355c3.932-2.53 24.208-14.76 37.321-6.843 6.88 4.152 9.85 12.191 8.827 23.894a7.502 7.502 0 0 1-7.463 6.847z" class="G"/><path d="M414.147 674.143a7.5 7.5 0 0 1-5.591-12.497c.139-.155 14.041-15.886 25.992-41.025 10.886-22.899 22.365-58.604 15.229-98.666a7.5 7.5 0 1 1 14.767-2.631c6.227 34.96.464 72.371-16.666 108.191-12.887 26.945-27.525 43.441-28.142 44.13a7.48 7.48 0 0 1-5.59 2.498z" class="E"/><path d="M1402.765 786.459a7.463 7.463 0 0 1-4.179-1.278c-27.312-18.371-73.342-46.484-88.209-48.634-14.066-2.029-59.935 21.396-85.534 36.642a7.5 7.5 0 0 1-7.676-12.886c.709-.423 17.603-10.463 37.505-20.283 41.819-20.636 53.885-18.89 57.851-18.317 22.996 3.324 87.191 46.16 94.436 51.034a7.5 7.5 0 0 1-4.193 13.723zm-8.491 50.126a7.485 7.485 0 0 1-5.872-2.828c-11.285-14.172-54.487-24.481-70.182-27.258a7.5 7.5 0 0 1 2.613-14.771c6.347 1.123 62.497 11.58 79.303 32.686a7.5 7.5 0 0 1-5.862 12.172zm-.406 45.32a7.5 7.5 0 0 1-6.661-4.043c-1.129-2.172-9.419-8.558-32.712-17.18-17.442-6.455-34.274-10.883-39.718-11.597-5.771-.777-22.579 10.168-34.653 20.847a7.5 7.5 0 0 1-9.943-11.23c7.058-6.252 31.275-26.483 46.546-24.489 7.206.945 25.251 5.843 42.975 12.402 34.879 12.91 39.347 21.505 40.815 24.329a7.5 7.5 0 0 1-3.195 10.113 7.463 7.463 0 0 1-3.453.848zM742.87 1151.653a7.5 7.5 0 0 1-3.938-13.888l32.891-20.24a7.5 7.5 0 0 1 7.861 12.775l-32.891 20.24a7.467 7.467 0 0 1-3.923 1.113zm74.832-34.234a7.505 7.505 0 0 1-7.287-5.752c-.04-.161-4.517-17.961-17.499-29.981-6.447-5.968-33.082 3.218-53.91 15.55a7.5 7.5 0 0 1-7.649-12.903c.511-.303 12.675-7.482 26.931-13.02 21.571-8.379 36.231-8.584 44.819-.633 16.396 15.181 21.677 36.584 21.894 37.487a7.5 7.5 0 0 1-7.299 9.252zm-4.561-50.862a7.503 7.503 0 0 1-7.396-6.31c-.03-.181-3.483-20.118-17.247-31.514-7.419-6.146-38.777 3.173-63.413 15.725a7.5 7.5 0 0 1-6.814-13.362c.585-.299 14.516-7.373 30.717-12.868 24.031-8.15 40.083-8.495 49.076-1.048 18.184 15.055 22.323 39.645 22.49 40.685a7.5 7.5 0 0 1-7.414 8.693z" class="G"/><path d="M601.394 449.263a7.5 7.5 0 0 1-2.722-14.491c1.697-.679 42.201-17.521 35.398-72.67-6.83-55.367-53.647-60.418-54.12-60.463a7.5 7.5 0 0 1 1.409-14.934c.616.058 15.267 1.537 30.861 11.385 14.38 9.081 32.426 27.239 36.736 62.176 4.293 34.799-7.976 56.963-19.024 69.428-12.051 13.597-25.265 18.841-25.822 19.057a7.476 7.476 0 0 1-2.718.513z" fill="#ce9800"/><path d="M731.082 595.139a7.502 7.502 0 0 1-2.1-.301c-2.886-.84-71.03-20.946-100.371-53.103a7.501 7.501 0 0 1 11.081-10.111c26.493 29.036 92.816 48.616 93.483 48.811a7.502 7.502 0 0 1-2.094 14.703z" class="G"/></svg></g><g transform="matrix(1.304414 0 0 1.30622 567.391304 1593.913043)"><svg width="1772.91" height="484.305"><path d="M1569.712 0 211.926 135.974C181.917 160.09 16.593 295.584 0 298.672c27.369 14.829 96.016 44.315 110.398 49.767 383.335 145.316 895.759 194.399 1290.344 45.425 296.781-112.048 334.126-219.292 372.168-324.037L1569.712 0Z" fill="#e3e5e5"/></svg></g><g transform="matrix(1.30396 0 0 1.303313 884.347826 1724.347826)"><svg width="843.251" height="238.189"><path d="m827.164 140.212-684.087 97.597c-13.444 1.899-24.771-3.442-35.065-13.39L5.098 119.619c-7.52-7.267-6.931-35.063 3.175-41.276l693.786-59.92c2.508-.276 5.016.429 7.115 2l129.811 77.792c8.663 6.487 3.84 41.031-11.821 41.997z" fill="#2199ce"/><path d="m832.655 118.216-682.606 96.423c-13.444 1.899-26.92-2.67-37.214-12.618L6.138 98.908c-7.52-7.267-3.578-21.408 6.27-22.491L706.528.059c2.508-.276 5.016.429 7.115 2l123.91 92.788c8.663 6.487 5.43 21.909-4.898 23.368z" fill="#5ac4ff"/><g fill="#2199ce"><path d="M135.399 198.44a7.5 7.5 0 0 1-5.227-2.122l-96.273-93.583a7.498 7.498 0 0 1 4.388-12.831l280.152-31.562a7.518 7.518 0 0 1 6.323 2.336l24.029 25.751 179.166-20.18-17.156-17.36a7.499 7.499 0 0 1 4.495-12.725l190.117-21.419a7.517 7.517 0 0 1 5.357 1.466l101.828 76.83a7.499 7.499 0 0 1-3.502 13.418L136.414 198.37a7.391 7.391 0 0 1-1.016.069zm-79.672-95.406 82.278 79.979L789.042 94.06 704.12 29.986 532.333 49.34l17.156 17.36a7.499 7.499 0 0 1-4.495 12.725l-198.275 22.332a7.513 7.513 0 0 1-6.323-2.336L316.367 73.67z"/><path d="M222.064 180.006a7.476 7.476 0 0 1-5.285-2.179l-87.142-86.552a7.5 7.5 0 0 1-.036-10.606 7.498 7.498 0 0 1 10.606-.036l87.142 86.552a7.5 7.5 0 0 1-5.285 12.821zm89.307-13.044a7.476 7.476 0 0 1-5.285-2.179l-80.328-79.784a7.5 7.5 0 0 1 10.57-10.642l80.328 79.784a7.5 7.5 0 0 1-5.285 12.821zm92.286-7.274a7.476 7.476 0 0 1-5.285-2.179l-83.448-82.884a7.5 7.5 0 1 1 10.57-10.642l83.448 82.884a7.5 7.5 0 0 1-5.285 12.821zm196.849-29.314a7.477 7.477 0 0 1-5.143-2.042l-77.446-72.99a7.5 7.5 0 0 1 10.288-10.916l77.446 72.99a7.5 7.5 0 0 1-5.145 12.958zm105.727-13.239a7.466 7.466 0 0 1-4.857-1.789l-87.67-74.618a7.5 7.5 0 1 1 9.721-11.422l87.671 74.618a7.5 7.5 0 0 1-4.865 13.211zm-197.47 30.291a7.476 7.476 0 0 1-5.379-2.273l-51.769-53.275a7.5 7.5 0 1 1 10.757-10.453l51.769 53.275a7.5 7.5 0 0 1-5.378 12.726z"/><path d="M106.882 170.73a7.501 7.501 0 0 1-.998-14.932l660.561-89.532a7.5 7.5 0 0 1 8.439 6.424 7.497 7.497 0 0 1-6.424 8.439L107.899 170.66a7.459 7.459 0 0 1-1.017.069zm-34.496-33.534a7.5 7.5 0 0 1-.919-14.943l666.2-83.093a7.5 7.5 0 1 1 1.856 14.885l-666.2 83.093a7.633 7.633 0 0 1-.938.059zM344.233 61.22l7.29 10.104c1.11 1.539 2.817 2.344 4.562 2.152l138.342-15.214c4.462-.491 6.471-6.696 3.348-10.339l-8.059-9.401c-1.106-1.29-2.661-1.94-4.241-1.773L347.902 51.26c-4.266.45-6.383 6.198-3.669 9.96z"/></g></svg></g><g transform="matrix(1.302734 0 0 1.303275 1845.652174 853.043478)"><svg width="782.969" height="903.743"><path d="M684.397 581.554 32.676 763.253c-7.89 2.11-33.145-8.149-32.669-16.302L32.931 97.423c.341-5.852-.177-23.138 19.877-23.694L767.043.027c7.693-.817 16.773 17.018 15.791 24.691l-89.647 546.781a11.98 11.98 0 0 1-8.789 10.054z" fill="#374047"/><g fill="#656c72"><path d="M704.13 583.31 32.787 762.839c-7.89 2.11-15.532-4.119-15.057-12.273L55.739 98.917A11.982 11.982 0 0 1 66.435 87.7L769.72 13.04c7.693-.817 14.131 5.762 13.15 13.435l-69.951 546.781a11.98 11.98 0 0 1-8.789 10.054zM228.253 846.589l199.565 48.882a8.592 8.592 0 0 0 5.279-.226l173.669-56.943c7.734-2.87 5.197-16.532-2.708-18.887l-165.857-49.414a8.583 8.583 0 0 0-4.864-.012l-211.561 67.316c-8.301 2.428-1.859 6.979 6.478 9.284z"/><path d="M628.562 793.648a4.785 4.785 0 0 1-.114-.331L506.06 410.862c-.576-1.233-2.68-3.735-3.35-4.387-6.769-6.575-14.44-9.604-14.44-9.604a5.2 5.2 0 0 0-3.698-.746l-98.284 17.063c-4.675.812-5.913 6.946-1.919 9.507l11.318 9.722a5.184 5.184 0 0 1 2.308 3.433l.464 2.404c.341 1.768 59.838 349.061 63.89 414.439 0 0 .254 25.064-8.969 35.914-.953 1.121-8.941 7.306-11.284 8.584l2.236-.893c3.653-1.211 14.672-5.69 18.39-6.905 50.365-16.467 145.238-50.465 159.054-56.88 18.057-8.383 7.675-36.55 6.786-38.865z"/></g><g fill="#374047"><path d="M573.556 623.574a7.502 7.502 0 0 1-7.156-5.265l-61.536-196.923c-3.202-8.475-10.162-8.712-12.083-8.614l-109.844 20.925a7.5 7.5 0 0 1-2.807-14.735l110.252-21.003c.181-.035.363-.063.547-.084 7.059-.808 22.008 2.01 28.072 18.491.043.117.082.234.119.353l61.596 197.115a7.5 7.5 0 0 1-7.16 9.74z"/><path d="M423.576 903.749c-2.366 0-4.819-.18-7.359-.542-42.453-6.041-189.861-49.249-196.116-51.085a7.5 7.5 0 0 1 4.227-14.393c1.521.446 152.616 44.738 194.003 50.628 8.449 1.201 14.896-.365 19.706-4.791 9.877-9.085 11.136-28.851 10.784-36.168L384.44 439.491l-8.092-7.742a7.5 7.5 0 0 1 10.371-10.837l9.92 9.492a7.501 7.501 0 0 1 2.223 4.25l64.836 410.789c.037.234.063.472.078.709.08 1.316 1.78 32.428-15.54 48.414-6.618 6.108-14.89 9.184-24.659 9.184z"/></g></svg></g><g transform="matrix(1.311529 0 0 1.307153 2238.26087 760.434783)"><svg width="183.987" height="143.691"><g class="D"><path d="m85.957 129.266.207 6.714c-.881 4.42.74 8.344 5.189 7.626l76.384-8.616c2.71-.437 3.599-1.54 4.083-4.242l.981-14.697zm85.335-14.444-86.844 13.214-16.218-16.613 92.33-9.532z"/><path d="m150.62 115.319-53.985 5.504c-1.941.439-3.875-.297-4.92-1.872L63.15 59.396c-1.164-1.755-.917-3.908.202-5.507.915-1.307 2.414-2.244 4.201-2.288l61.274-1.503c1.562-.038 2.995.665 3.861 1.894l17.722 52.61c1.99 2.825 3.761 9.913.211 10.716z"/></g><path d="m120.061 95.169-76.974 9.394C18.582 106.748-5.84 86.284 1.243 61.331l1.25-5.585c7.083-24.953 25.414-45.445 49.919-47.63L141.629.157c24.505-2.186 44.592 18.652 41.728 46.785l-7.855 9.964c-7.083 24.953-30.937 36.077-55.442 38.262z" class="E"/><path d="M128.444 96.257l-82.875 8.861c-23.238 1.831-38.514-17.519-31.984-40.516s30.663-43.124 53.901-44.955l84.606-6.668c23.238-1.831 36.783 15.326 30.253 38.323s-30.663 43.124-53.901 44.955z" class="D"/><path d="M97.508 115.807a19.298 19.298 0 0 1-17.761-11.766L65.733 73.515c-2.146-4.818-1.807-10.302.874-14.745s7.373-7.302 12.551-7.645l43.175-2.867c7.235-.473 14.075 3.258 17.409 9.523.054.102.105.204.154.308l12.907 27.198c1.994 4.287 4.314 10.612 1.752 16.641-1.751 4.121-5.34 7.142-10.667 8.979a7.448 7.448 0 0 1-1.673.369l-42.085 4.353a19.4 19.4 0 0 1-2.623.179zm26.101-52.591a4.45 4.45 0 0 0-.282.009l-43.175 2.867c-.115.008-.462.03-.7.426s-.097.713-.05.816l14.029 30.56a7.15 7.15 0 0 1 .11.253 4.313 4.313 0 0 0 4.604 2.613c.103-.015.205-.027.308-.038l41.262-4.268c.477-.199.783-.372.968-.493-.048-.53-.298-1.81-1.454-4.296l-12.786-26.942c-.56-.957-1.598-1.507-2.833-1.507zm-37.685 72.095a7.502 7.502 0 0 1-.796-14.958l82.083-8.858a7.501 7.501 0 0 1 1.61 14.914l-82.083 8.858a7.708 7.708 0 0 1-.813.044z" class="E"/></svg></g></svg>