<svg xmlns="http://www.w3.org/2000/svg" width="3000" height="3000" xmlns:v="https://vecta.io/nano"><style><![CDATA[.B{fill:#a66036}.C{fill:#773a12}.D{fill:#5917be}.E{fill:#330094}.F{fill:#4f2000}]]></style><g transform="matrix(1.360124 0 0 1.360577 218.4 1146)"><svg width="2002.758" height="1156.274"><path d="M1318.593 1071.653c-12.11 6.23-24.47 12.35-37.1 18.34-197.13 93.61-384.37 75.14-557.2 23.85-86.37-25.63-169.15-59.45-247.76-91.58-230.7-94.27-558.02-310.93-389.95-663.48 235.44-493.83 1399.81-415.05 1635.16-139.95 153.66 179.63 80.04 604.48-403.15 852.82zm369.196-190.183c312.316-285.528 159.282-649.597 70.888-805.304 379.497 328.693 285.927 598.961-70.888 805.304zM.004 704.672c88.565 200.548 280.635 324.049 440.687 329.994C196.627 1083.681-1.064 941.438.004 704.672z" fill="#fdd016"/></svg></g><g transform="matrix(1.550206 0 0 1.536529 282 927.6)"><svg width="1532.7" height="1162.1"><path d="m443.5 538.2-76.4 41.3L347.2 712l47.3 169.3s59.3-22.1 75.7-28.5S613 782.7 613 782.7l35.2-201.8L528.9 531z" fill="#5223b7"/><g class="B"><path d="M971.9 468.6l-163.8.4-118.4 5s-85.6 110.8-76.8 319.1l1.5 34.3c6.7 141 120.9 253.1 262.1 256.9h.2c147.7 4 271.4-111.7 276.5-259.4.6-18.2.8-36.8.5-55.6-2.7-169.2-31.4-256.4-31.4-256.4z"/><path d="M890.7 588h-2.9c-44.4-.3-80.2-36.5-79.9-80.9l.9-141.4c.3-44.4 36.5-80.2 80.9-79.9h2.9c44.4.3 80.2 36.5 79.9 80.9l-.9 141.4c-.2 44.4-36.4 80.2-80.9 79.9z"/></g><path d="M835.3 70c-16.1-13.4-53-20-65 2 0 0-31.6 9.3-33.3 32.3 0 0-25.1-8.3-36.7 14.4s-32.3 3.5-37.9 25.8c-6.1 24.1 27.3 32.2 5 46.2 18.3 1.9 29.7-8.9 16.6-28.2-4.9-7.2-.4-18.4 11-15.9 17.6 3.9 48.2.1 71.4-7.7C785.7 132.5 818 92 818 92z" class="F"/><path d="M759.4 119.4c-31.6 24.4-28.1 59.4-42.2 97.7-10.4 28.3-24.9 33.9-30.8 69.7-7.3 44.6 47.5 129.2 85.4 135.7 48.5 8.3 136.6-5 184.6-44.9 45.6-37.9 65.3-117.3 39.5-182.8C950 77.9 831.2 64 759.4 119.4z" class="B"/><g class="F"><path d="M958.7 81c0-34.2 37.4-66.4 53.4-39.4 0 0 29.8-26.2 43.9-10.7 8.8 9.7 5.4 27.9 5.4 27.9 18.5-9.2 52.9-.8 57.3 39 0 0 39.4 14.5 17.5 51.9 22.5 33 26.4 82.9-9.7 98.1 0 0-14.9 42.1-68.2 34.3C992.5 230.2 964.7 168 958.7 81z"/><path d="M817.9 91.9c11-31.9 55.5-39.5 94.6-26.5 12.5-10.9 34.5-14.3 52.7 6.8 19.9 1.7 32.3 16.1 36.9 40.2 42.3 4.4 51.2 25.7 57.8 81.8 15.8 9.6 19 40.3.8 62.1 19.1 21.4 12 68.3-12.4 79.7 0 0-1.5 38.7-38.1 42.6-21.5 2.3-20 40.6 6.5 27.7-4.4 17-46 27-44.3-11.3l.2-31.6 26.7-49.1s-53.8-31.3-54.2-110.6c-.5-73.5-69.5-116.4-127.2-111.8z"/></g><path d="M981.1 293.1c14.6-12.4 58.7-27 57.9 20.5-.8 46.1-55 65.9-72.1 47.7-14.9-15.8 3.5-59.1 14.2-68.2z" class="B"/><path d="M940 167.8c10.2 27.6-13.7 54.6-13.6 77.1.2 30.7 43.8 60.1 3.9 67.1 17.8 7.6 37.4 2.4 32.6-28-6.2-39.9 23.2-36.9 10.8-73.1-4.5-12.9-33.7-43.1-33.7-43.1z" class="F"/><path d="M845.4 171.7c-18.2 2.9-22.9-25.6-6.3-30.9 22.2-7.1 59.1 4.5 82.3 38.6 9 13.1-2.2 19-9.3 12.6-19-16.8-41.5-24.4-66.7-20.3zM763 166c17.1 4 27.2-22.7 14.5-27.7-22.8-8.8-57.9 5.9-67.8 14.2-11.6 9.7-9.8 19.4 4.4 14.9s34.2-4.9 48.9-1.4z" fill="#111"/><path d="M857.3 93.2c11 7.9 8.7 19.9 1.5 32.1-9.5 16.3 6.4 41.3 28.5 37.1-18.3-8.6-11.9-25.3-2.3-38.2 10.4-13.9 16.6-35.9-1.1-43.3s-26.6 12.3-26.6 12.3z" class="F"/><g class="C"><path d="M795.8 281.3c-2.4 0-4.7-1.3-5.9-3.6-5.6-10.9-15.1-15.2-21.1-13.6-3.4.9-5 3.6-4.9 8 .2 3.7-2.7 6.8-6.4 6.9-3.7.2-6.8-2.7-6.9-6.4-.5-10.7 5.2-18.9 14.7-21.4 11.3-3 27.4 3 36.3 20.3 1.7 3.3.4 7.3-2.9 8.9-.8.7-1.8.9-2.9.9zM983.4 351c-.3 0-.6 0-.9-.1-3.6-.5-6.2-3.8-5.7-7.4 2.6-20 15.7-34.3 38-41.2 3.5-1.1 7.2.9 8.3 4.4s-.9 7.2-4.4 8.3c-17.2 5.3-26.9 15.5-28.8 30.2-.4 3.4-3.2 5.8-6.5 5.8z"/><path d="M1009.2 340.3c-1.6 0-3.2-.6-4.5-1.7l-14.2-13c-2.7-2.5-2.9-6.7-.4-9.4s6.7-2.9 9.4-.4l14.2 13c2.7 2.5 2.9 6.7.4 9.4-1.3 1.4-3.1 2.1-4.9 2.1z"/></g><path d="M852.4 320.4c9.1 3.9 5.9 34.2-19.9 43.7-30.3 11.2-54.6-8.3-53.7-19.9s19.6.3 39.3-6.5 26-20.8 34.3-17.3z" fill="#fff"/><path d="M811.3 431.8c-3.6 0-6.5-2.8-6.6-6.4a6.6 6.6 0 0 1 6.4-6.8c23.5-.7 66.1-8 85.8-16.4 3.4-1.4 7.3.1 8.7 3.5s-.1 7.3-3.5 8.7c-21.4 9-65.4 16.7-90.6 17.4h-.2z" class="C"/><path d="M1071.3 289.7c-.4 0-.7 0-1.1-.1-3.6-.6-6.1-4-5.5-7.6.9-5.4-4.9-15.8-9.3-21.4-2-2.6-1.9-6.3.4-8.7 7.5-7.8 11.3-19.6 10.2-31.5-.8-9.1-4.6-16.8-10-20.7-1.7-1.2-2.7-3.1-2.8-5.2-1-27.4-10.1-51.7-24.5-65-7.9-7.3-16.7-10.8-26.4-10.4-3.4.1-6.3-2.3-6.8-5.6-5.4-33.8-29.4-34.6-30.4-34.6-3.7 0-6.6-3-6.6-6.6 0-3.7 3-6.6 6.7-6.6 11.9 0 35.2 8.6 42.4 40.4 11 .9 21.3 5.6 30.2 13.8 16.3 15.1 26.9 41.6 28.6 71.3 7.1 6.4 11.7 16.5 12.8 28.1 1.3 13.7-2.5 27.3-10.2 37.6 4.1 6.2 10.4 17.7 8.8 27.4-.5 3.1-3.3 5.4-6.5 5.4zM817.9 98.6c-.6 0-1.2-.1-1.8-.3-3.5-1-5.6-4.7-4.6-8.2 2.7-9.3 9.3-17.9 19.9-25.5 3-2.1 7.1-1.5 9.3 1.5 2.1 3 1.5 7.1-1.5 9.3-8 5.8-13 12-14.9 18.3-.8 2.9-3.5 4.9-6.4 4.9zM962 278.8c-3.6 0-6.5-2.8-6.6-6.4-.4-12.2 4.4-20.1 8.7-27.1 5.4-8.8 9.6-15.8 3.4-32-1.3-3.4.4-7.3 3.8-8.6s7.3.4 8.6 3.8c8.5 22.2 1.6 33.6-4.5 43.6-3.8 6.2-7 11.6-6.8 19.8.1 3.7-2.8 6.7-6.4 6.8 0 .1-.1.1-.2.1zm-204.7-47.5c-2.4 0-4.7-1.3-5.9-3.6-3.3-6.4-9.4-10.9-16.6-12.4-9.4-2-19.8 1.1-29.4 8.7-2.9 2.3-7.1 1.8-9.3-1.1-2.3-2.9-1.8-7.1 1.1-9.3 12.8-10.1 27.1-14.1 40.4-11.3 11.1 2.4 20.5 9.4 25.6 19.3 1.7 3.3.4 7.3-2.8 9-1 .4-2.1.7-3.1.7zM885 247.9c-2.4 0-4.7-1.3-5.9-3.6-3.3-6.4-9.4-10.9-16.6-12.4-9.4-2-19.8 1.1-29.4 8.7-2.9 2.3-7.1 1.8-9.3-1.1-2.3-2.9-1.8-7.1 1.1-9.3 12.8-10.1 27.1-14.1 40.4-11.3 11.1 2.4 20.5 9.4 25.6 19.3 1.7 3.3.4 7.3-2.8 9-1 .4-2.1.7-3.1.7z" fill="#111"/><g class="B"><path d="M199 450.8c78.5-15.8 60.6-93.2 60.6-93.2L229 225.8s7.2-65.4-18.5-116.6c-39.8-79.3-210-8.6-192 39.2 14.2 37.4 34.5 93.9 70 126.6l2.8 111.4c.1 0 4.7 85.1 107.7 64.4z"/><path d="M64.7 157.7l-31-75.9c-7.5-18.2-41.4-2.3-32 23.1 7.8 21 12.6 32.9 26.5 67.8 10 25.5 46.5 9.2 36.5-15z"/></g><path d="M45.6 193.3c-1.2 0-2.5-.1-3.7-.3-9.4-1.3-17.1-7.7-20.9-17.4-1.6-3.9.4-8.4 4.3-9.9 3.9-1.6 8.4.4 9.9 4.3 1.8 4.6 4.8 7.3 8.8 7.8 4.4.6 9.5-1.5 12.4-5.2 1.8-2.4 3.5-6.3 1.2-11.9-1.6-3.9.2-8.4 4.1-10s8.4.2 10 4.1c4 9.5 2.8 19.4-3.2 27.2-5.4 7.1-14.1 11.3-22.9 11.3z" class="C"/><path d="M105.9 138L67.8 52.5C59.2 33 17.4 52 29.7 81.9L60.3 155c11.3 26.9 56.4 7.8 45.6-17z" class="B"/><path d="M80.2 175.6c-1.3 0-2.7-.1-4-.2-10.4-1.3-18.8-7.6-22.9-17.4L19.6 79.3c-1.6-3.8.1-8.2 3.9-9.9 3.8-1.6 8.2.1 9.9 3.9.2.5 20.2 46.5 33.8 78.9 2.1 4.9 5.7 7.7 10.9 8.3 7 .9 15.4-2.6 19.6-8.2 2.6-3.5 3.1-7.3 1.4-11.3L78.6 95 61 55.5c-1.7-3.8.1-8.2 3.8-9.9 3.8-1.7 8.2 0 9.9 3.8l17.6 39.4 20.5 46.1c3.9 8.9 2.7 18.4-3.1 26.3-6.6 8.8-18.2 14.4-29.5 14.4z" class="C"/><path d="M111.3 32.7C98.3 3 56.5 26.9 65.6 47.6l36 80c10.3 22.9 52.5 7.7 44.4-18.3 0-.1-28.9-63.5-34.7-76.6z" class="B"/><path d="M120.3 146.4c-10.4 0-20.6-4.7-25.6-15.7L74.2 85.4 59.8 53.3a7.71 7.71 0 0 1 3.9-10.1 7.71 7.71 0 0 1 10.1 3.9l14.3 32 20.5 45.4c3.8 8.4 13.8 7.3 19.2 5.2 6.7-2.5 13.6-8.7 11-17.7l-34.6-76.2a7.71 7.71 0 0 1 3.9-10.1 7.71 7.71 0 0 1 10.1 3.9l34.7 76.4c.1.3.3.6.4.9 5.6 18.1-6.5 31.9-20.1 37-4.1 1.7-8.5 2.5-12.9 2.5z" class="C"/><path d="M156.1 14c-13-29.7-54.8-5.8-45.7 14.9l36 80c10.3 22.9 52.5 7.7 44.4-18.3 0-.1-29-63.5-34.7-76.6z" class="B"/><path d="M165.1 126.7c-10.1 0-19.9-4.5-24.7-15.1l-20.5-45.3-14.4-32.1c-1.5-3.4 0-7.3 3.4-8.8s7.3 0 8.8 3.4l14.3 32 20.5 45.4c3.6 7.9 13.1 8.6 20.5 5.8 7.2-2.7 14.4-9.3 11.6-19L150 16.8c-1.5-3.4.1-7.3 3.4-8.7 3.4-1.5 7.3.1 8.7 3.4L196.8 88c.1.3.2.5.3.8 5.4 17.5-6.3 30.8-19.5 35.8-3.9 1.2-8.3 2.1-12.5 2.1z" class="C"/><path d="M234.5 258.4c12.2-29.7 33.8-150.7-.7-177.6-12.1-9.4-49.6-14.4-98.7-12.7-41.2 1.4-39.1 52.4-1.4 55.1 25.3 1.8 62.8-.6 62.8-.6-44.7 18.7-49.9 73.9-30.4 108.3 24.7 43.6 68.4 27.5 68.4 27.5z" class="B"/><path d="M155.8 193.7h-.5c-3.7-.3-6.4-3.4-6.1-7.1 1.6-22.2 16.6-39.9 29.1-51l-31.8.7c-2.9.2-25.4 1.6-37.9-11-6.3-6.3-9-14.8-8-25.1 1-11.1 5.4-19.7 12.9-25.5 13.6-10.5 32.4-7.5 33.2-7.4 3.6.6 6.1 4 5.5 7.6s-4 6.1-7.6 5.5c-.3 0-14.1-2.1-23 4.8-4.5 3.5-7.1 8.8-7.8 16.2-.6 6.3.8 11 4.2 14.5 8.6 8.6 27.4 7.1 27.6 7.1h.5l52.7-1.1c3 0 5.7 1.9 6.5 4.8s-.4 6-3 7.5c-.4.2-37.5 22.5-39.7 53.3-.4 3.5-3.3 6.2-6.8 6.2z" class="C"/><g class="D"><path d="M369.6 672.8c7.2-79.4-15.4-147-37.7-189.2-20.6-39 4-91.6-78.1-142.2-52.9-32.6-142.5 5.2-164.9 32.3-29.8 36-44.5 98.9-18.2 199.1 16.6 63.4 19.1 91.7 25.8 129.4 11.9 67.1 52 181 184.8 187.5 44.3 2.2 86.5 1.5 121.1-11 87.4-31.5-41.5-110.3-32.8-205.9z"/><path d="m239.3 269.8 19.1 94.7c-19 40.1-128.7 65.7-169.1 33.8l-1-101.7c35.8 16.4 130.5 4.2 151-26.8z"/></g><g class="E"><path d="M369.6 680.3c-.6 0-1.3-.1-1.9-.2-4-1-6.4-5.1-5.4-9.1 7.9-30.5 4.2-73.2-10.1-117.3-1.3-3.9.9-8.2 4.8-9.4 3.9-1.3 8.2.9 9.4 4.8 15.1 46.7 18.9 92.5 10.4 125.7-.8 3.3-3.9 5.5-7.2 5.5zm-251.7-37.5c-1.8 0-3.6-.6-5-1.9l-.5-.4c-13.6-12.1-34-30.4-48.6-64.7-1.6-3.8.1-8.2 4-9.8 3.8-1.6 8.2.1 9.8 4 13.3 31.2 32.3 48.2 44.8 59.4l.5.4c3.1 2.8 3.4 7.5.6 10.6-1.5 1.5-3.6 2.4-5.6 2.4zm.8-189.5c-3.7 0-6.9-2.7-7.4-6.4-3.7-26 .4-50 11.7-67.6 2.2-3.5 6.9-4.5 10.4-2.3s4.5 6.9 2.3 10.4c-9.3 14.5-12.6 34.9-9.4 57.4.6 4.1-2.3 7.9-6.4 8.5h-1.2zm41.7-18.6c-2.7 0-5.3-1.4-6.6-4-5-9.4-10.4-36-2.4-50.8 2-3.6 6.5-5 10.2-3 3.6 2 5 6.5 3 10.2-4.7 8.7-1.3 29.6 2.4 36.6 1.9 3.7.6 8.2-3.1 10.1-1.1.6-2.3.9-3.5.9zm95-21.5h-.5c-4.1-.3-7.3-3.8-7-8 .8-13-7.4-28.6-20.6-38.8-3.3-2.5-3.9-7.2-1.4-10.5s7.2-3.9 10.5-1.4c17.3 13.3 27.6 33.5 26.5 51.6-.3 4.1-3.6 7.1-7.5 7.1z"/><path d="M140.9 391.2c-24.8 0-45.7-4.8-56.5-13.5-3.2-2.6-3.7-7.3-1.1-10.5s7.3-3.7 10.5-1.1c10.8 8.7 39.2 12.4 69.1 8.9 38-4.4 69.8-18.7 84.9-38.1 2.5-3.3 7.3-3.9 10.5-1.3 3.3 2.5 3.9 7.3 1.3 10.5-25.3 32.5-74.9 41.5-95 43.8-8.1.9-16.1 1.3-23.7 1.3z"/></g><g class="D"><path d="M1124.6 1087.2c-10.7 5.5-21.7 10.9-32.9 16.2-174.6 82.9-340.4 66.5-493.4 21.1l19-109.9 498.3-3.7z"/><path d="M1359.7 690.2c-60.1-69.8-117.4-146.2-195-170.5l-101.5-34.9c-5.1-1.6-10.7.3-13.7 4.8-16.8 24.8-73.3 109-192.5 90.2-64.5-10.2-96.2-64.8-102.5-89.2-1.7-6.7-2.7-22-9.3-20l-123.7-6.4c-69.4-2-133.9 44.5-180.7 77.2 35.7 11.2 120.4 157.8 147.1 275.7-3.4 20.8-7 39.1-10.7 53.1-17.3 65.3-26.5 151.2 37.6 172.1 136.5 44.5 359.5 51.2 505.6 22.1 65.7-13.1 49.2-129.7 48.8-188.7 25.8 35.3 109.4 51.5 167.4 4.8 87.8-70.9 44.3-161.1 23.1-190.3z"/></g><g class="E"><path d="M918 1089.3c-18 0-36.1-.4-54.4-1.1-96.5-3.8-185.7-17.7-251.2-39-3.9-1.3-6.1-5.5-4.8-9.5 1.3-3.9 5.5-6.1 9.5-4.8 130.1 42.4 350.5 52 501.8 21.9 4.1-.8 8 1.8 8.8 5.9s-1.8 8-5.9 8.8c-58.6 11.7-129.4 17.8-203.8 17.8zm-32-452.5c-2.8 0-5.7 0-8.5-.1-62-1.7-113.9-30.5-149.9-83.2-27-39.4-35.6-77.9-35.9-79.5-.9-4 1.7-8 5.7-8.9s8 1.7 8.9 5.7c.1.4 8.4 37.6 33.9 74.6 33.7 49 80 74.6 137.7 76.3 67.1 1.9 123.1-18.9 166.7-61.9 32.7-32.2 45.7-65.5 45.8-65.9 1.5-3.9 5.8-5.8 9.7-4.3s5.8 5.8 4.3 9.7c-.6 1.5-14 36.2-48.8 70.7-20.4 20.3-44 36.2-70 47.4-30.1 12.8-63.6 19.4-99.6 19.4z"/><path d="M666.5 1064c-.6 0-1.3-.1-1.9-.2-37.4-9.8-42-56.1-42.2-58.1-.4-4.1 2.7-7.8 6.8-8.1 4.1-.4 7.8 2.7 8.1 6.8 0 .4 3.9 37.8 31 44.9 4 1 6.4 5.1 5.4 9.2-.8 3.2-3.9 5.5-7.2 5.5zm374.9-320.4c-1.6 0-3.1-.5-4.5-1.5-3.3-2.5-4-7.2-1.5-10.5 44.6-59.7 66.3-157.9 66.5-158.9.9-4 4.9-6.6 8.9-5.7s6.6 4.9 5.7 8.9c-.9 4.2-22.7 102.4-69.2 164.7-1.4 2-3.6 3-5.9 3zm41.4 132.9c-1.6 0-3.3-.5-4.7-1.6-3.2-2.6-3.8-7.3-1.2-10.5 19.6-24.7 60.1-91.6 60.5-92.2 2.1-3.5 6.8-4.7 10.3-2.5 3.5 2.1 4.7 6.8 2.5 10.3-1.7 2.8-41.4 68.3-61.6 93.8-1.4 1.7-3.6 2.7-5.8 2.7z"/></g><path d="M1517.6 899.7L1425.7 776c-23.2-28.6-30.4-44.4-66.1-85.8-18.1 1.9-140.8 59.3-195.9 185.6 5.7 36.1 58.9 112.7 74.9 130.1 103.6 113.2 358.4-1.3 279-106.2z" class="D"/><path d="M1169.8 907.2c-4 0-7.3-3.2-7.5-7.2 0-.5-.4-11.3 0-24.4 1.5-44.3 12.4-105.3 16.4-118.1 1.2-4 5.4-6.2 9.4-4.9 4 1.2 6.2 5.4 4.9 9.4-4 12.7-14.4 72.8-15.7 114.1-.4 12.5 0 23.2 0 23.3.2 4.1-3.1 7.6-7.2 7.8h-.3z" class="E"/><g class="B"><path d="M1053.9 978.2c-28.9 26.9-71 20-102.6 13.4-14.8.8-47.4-18.1-62.5-32.5-12.3-11.7-26.4-30-33.3-42.3-37-65.6 74.2-168 98.1-143.6l96.5 98.6s76.9 38.6 3.8 106.4z"/><path d="M953.6 773.1c-20.2-23.2-88-26.2-104.5-24.5-13.1 1.4-24.8 11.9-82.4 56.5-22.8 17.6 4.2 56.5 29.9 37.2l52.2-39.2 87.9 16.8z"/><path d="M938.7 804.8s-75.5-18-86.2-17.1-20.8 8.3-90.1 51c-21.9 13.5.9 54.4 25.5 40l66.6-39 77.1 16.1z"/><path d="M923.7 825.4s-74.3-6.5-85.7-4-24.3 15.1-69.1 51.4c-21.4 17.3 8.5 54.4 31 36.5l49-39.1 67.1 5.3z"/><path d="M889.7 870.6s9.2 1.9-37.4-7c-19.6-3.8-40.9 11.6-43.1 25.2-6.8 42.1 1.4-8.7-5.2 31.8-5 31 40.1 37 45.6 6.9 1.1-6.2 2.4-10.9 2.4-10.9l25.8 10.7z"/></g><g class="C"><path d="M805.7 904.9c-.3 0-.7 0-1-.1-4.1-.5-7-4.3-6.5-8.4 4.5-34.5 33-48.3 49.9-48.8l5.5-.2c18.2-.6 18.2-.6 41-.7h8.8c4.1 0 7.5 3.3 7.5 7.5 0 4.1-3.3 7.5-7.5 7.5h-8.8l-40.6.6-5.5.2c-10.1.3-32.1 9.5-35.5 35.7-.3 4-3.5 6.7-7.3 6.7zM852 924c-.5 0-1.1-.1-1.6-.2-4-.9-6.6-4.9-5.7-8.9l4.4-19.8c.9-4 4.9-6.6 8.9-5.7s6.6 4.9 5.7 8.9l-4.4 19.8c-.7 3.5-3.9 5.9-7.3 5.9zm-91.7-53.2c-1.9 0-3.7-.7-5.2-2.1-3-2.9-3.1-7.6-.3-10.6l48.8-50.6c15.8-15.6 29.5-23.1 42.8-23.6l61-2.2c4.1-.2 7.6 3.1 7.8 7.2s-3.1 7.6-7.2 7.8l-61 2.2c-9.4.3-19.8 6.5-32.9 19.3-8.8 8.7-48.1 49.9-48.5 50.3-1.3 1.5-3.3 2.3-5.3 2.3z"/><path d="M765.2 880.9c-2.2 0-4.3-.9-5.8-2.7-2.6-3.2-2.2-7.9 1-10.6l55.7-45.8c13-10.4 29.4-12.4 36.3-12.1l31 1.7 31.4 1.7c4.1.2 7.3 3.8 7.1 7.9s-3.8 7.3-7.9 7.1l-31.3-1.7h-.2l-30.9-1.7c-3.7-.2-16.3 1-26 8.7L770 879.2c-1.4 1.1-3.1 1.7-4.8 1.7z"/></g><g class="D"><path d="M1417.2 1153c-24.7 1-49.4-14.3-78.5-24.8-52.2-18.9-112.5-28.1-166.9-35.1-55-7.1-97-29.2-98.8-89-.3-9-3.4-129.2 12.7-165 5-11.1 17.5-15.9 28.1-18.3 38.7-8.8 150.3-1.5 246.1 23.6 45.5 11.9 73.2 17.5 95.1 20.1 70.9 8.3 89.2 82.3 90.5 118 2.7 68.3-41 167-128.3 170.5z"/><path d="M1087.9 842.4l-71.7-4.2c17.9 39.9 11.8 131.7-8.7 155l65.7 10.9c98.9 15.7 159-151.6 14.7-161.7z"/></g><g class="E"><path d="M1096.8 880.5c-1.1 0-2.2-.2-3.3-.8-3.7-1.8-5.2-6.3-3.4-10.1.5-1 12.9-25.5 45.5-23.8 4.1.2 7.3 3.8 7.1 7.9s-3.7 7.3-7.9 7.1c-22.4-1.2-30.9 14.8-31.2 15.5-1.4 2.7-4.1 4.2-6.8 4.2zm23.3 145.2c-.7 0-1.5-.1-2.2-.3-18-5.6-36.6-22.7-41.6-38.1-1.3-3.9.9-8.2 4.8-9.4 3.9-1.3 8.2.9 9.4 4.8 3.4 10.7 18.6 24.2 31.8 28.3 4 1.2 6.2 5.4 4.9 9.4-.9 3.2-3.9 5.3-7.1 5.3z"/><path d="M1073.2 1011.6c-.4 0-.8 0-1.2-.1l-60.5-10.1c-4.1-.7-6.8-4.5-6.2-8.6.7-4.1 4.5-6.8 8.6-6.2l55.4 9.2c34.8-61.4 23.1-124.9 11.8-150.4-.3-.8-.6-1.6-.6-2.4-.1-.9-.5-9.5 7-17.7 9.1-9.9 25.4-14.9 48.6-14.9h.1c25 0 59 8.2 91.9 16.2 34.9 8.4 70.9 17.1 95.4 16 45.8-2.1 60.3.9 80.4 5.1l5.9 1.2c4.1.8 6.7 4.8 5.9 8.8-.8 4.1-4.8 6.7-8.8 5.9l-6-1.2c-19-4-32.7-6.8-76.6-4.8-26.6 1.2-63.7-7.7-99.6-16.4-32-7.7-65.2-15.7-88.4-15.7h-.1c-22.9 0-32.9 5.2-37.2 9.6-2.4 2.4-3.2 4.8-3.4 6 12.5 29.7 24.4 100.3-15.9 166.9-1.5 2.3-4 3.6-6.5 3.6z"/><path d="M1082.8 847.2h-.5l-60.4-4.5c-3.7-.3-6.4-3.5-6.1-7.1.3-3.7 3.4-6.4 7.1-6.1l60.4 4.5c3.7.3 6.4 3.5 6.1 7.1-.2 3.4-3.1 6.1-6.6 6.1z"/></g><path d="M1074.9 1004.1s-5.7 52.6 49.7 75" fill="none" stroke="#330094" stroke-width="13.284" stroke-linecap="round" stroke-linejoin="round" stroke-miterlimit="10"/><path d="M972 451.9s-.4 13.5 18 22c18.4 8.6-31.7 9.3-31.7 9.3l-9.7-22.3z" class="B"/></svg></g><g transform="matrix(1.364827 0 0 1.366222 951.6 1816.8)"><svg width="548.641" height="427.749"><path d="M175.144 23.387 62.407 250.216l-36.141-17.963c-23.399-11.63-32.941-40.027-21.311-63.427L75.576 26.735c11.63-23.399 40.028-32.94 63.427-21.311z" fill="#55d6f5"/><path d="m170.932 26.496-1.574 3.168c-1.145 2.304-4.152 3.139-6.716 1.864l-38.108-18.94c-6.311-3.137-12.773-5.295-19.105-6.516-2.555-.493-3.036-3.821-.629-4.481 10.55-2.894 22.623-1.922 33.737 3.602l29.827 14.824c2.564 1.274 3.714 4.175 2.569 6.479zM62.408 250.216 175.145 23.387l312.63 155.382-112.737 226.829z" fill="#111"/><path d="m543.686 259.392-70.621 142.091c-11.63 23.399-40.027 32.941-63.427 21.311l-34.6-17.197 112.737-226.829 34.6 17.197c23.399 11.63 32.941 40.027 21.311 63.427z" fill="#e82786"/><path d="m144.781 49.179-37.289-18.533c-9.265-4.605-6.288-13.103-4.064-17.277.749-1.406 2.569-1.914 4.101-1.152l51.921 25.805c1.532.762 2.227 2.519 1.558 3.965-1.985 4.293-6.962 11.797-16.226 7.193zm378.058 187.9-37.289-18.533c-9.265-4.605-6.288-13.103-4.064-17.277.749-1.406 2.569-1.914 4.101-1.152l51.921 25.805c1.532.762 2.227 2.519 1.558 3.965-1.985 4.293-6.962 11.797-16.226 7.193zm-36.238-53.691-1.574 3.168c-1.145 2.304.005 5.205 2.569 6.479l38.108 18.94c6.311 3.137 11.933 6.984 16.73 11.295 1.935 1.739 4.879.112 3.952-2.204-4.064-10.157-12.128-19.194-23.242-24.718l-29.827-14.824c-2.564-1.274-5.571-.44-6.716 1.864z" fill="#111"/></svg></g><g transform="matrix(1.361455 0 0 1.359708 1440 2078.4)"><svg width="894.631" height="457.157"><g class="B"><path d="M339.212 259.709c-32.657 30.332-80.229 22.639-115.853 15.083-16.736.872-53.543-20.448-70.62-36.745-13.897-13.262-29.795-33.872-37.647-47.77C73.263 116.235 198.834.544 225.873 28.107l108.933 111.335s86.871 43.672 4.406 120.267z"/><path d="M225.873 28.107C203.084 1.878 126.473-1.508 107.839.469c-14.752 1.565-28.012 13.47-93.04 63.754-25.717 19.886 4.76 63.748 33.715 42.019l58.918-44.215 99.205 18.948 19.236-52.868Z"/><path d="M209.04 63.867s-85.229-20.273-97.319-19.284S88.2 53.91 9.961 102.201c-24.7 15.245.973 61.48 28.811 45.191l75.208-44.007 87.098 18.206 7.963-57.723z"/><path d="M192.183 87.179s-83.863-7.337-96.791-4.566-27.46 17.004-78.003 58.007c-24.123 19.57 9.579 61.442 34.963 41.18l55.348-44.181 75.787 5.964 8.697-56.404z"/><path d="M153.719 138.223s10.371 2.174-42.256-7.9c-22.147-4.239-46.227 13.088-48.704 28.404-7.693 47.583 1.592-9.844-5.85 35.879-5.69 34.959 45.331 41.784 51.546 7.77 1.282-7.014 2.715-12.32 2.715-12.32l29.147 12.086 13.401-63.918Z"/></g><g class="C"><path d="M58.941 175.96a7.5 7.5 0 0 1-7.446-8.471c5.011-38.397 36.638-53.658 55.396-54.258l6.2-.199q20.504-.663 46.299-.741l9.926-.031h.025a7.5 7.5 0 0 1 .025 15l-9.93.031q-25.575.078-45.86.733l-6.204.199C95.7 128.596 70.32 139.16 66.37 169.43a7.502 7.502 0 0 1-7.428 6.53zm52.237 21.597a7.5 7.5 0 0 1-7.332-9.116l4.923-22.339a7.5 7.5 0 0 1 14.648 3.228l-4.923 22.339a7.503 7.503 0 0 1-7.317 5.888zM7.632 137.398a7.5 7.5 0 0 1-5.428-12.675l55.114-57.145c17.712-17.417 32.875-25.78 47.716-26.319l68.906-2.501a7.51 7.51 0 0 1 7.767 7.223c.15 4.14-3.083 7.617-7.223 7.768l-68.905 2.501c-10.871.395-22.864 7.394-37.744 22.024-9.957 9.79-54.326 56.33-54.773 56.799a7.48 7.48 0 0 1-5.43 2.325z"/><path d="M13.162 148.845a7.5 7.5 0 0 1-4.771-13.29l62.847-51.736c14.437-11.571 32.69-13.828 40.323-13.413l34.884 1.896.146.008h.022l35.403 1.923a7.5 7.5 0 0 1 7.082 7.896c-.225 4.136-3.75 7.271-7.896 7.082l-34.549-1.877c-.183-.01-.361-.023-.536-.039-.102 0-.203-.003-.306-.007-.005 0-.026 0-.07-.004h-.018l-34.976-1.899c-4.249-.236-18.885 1.126-30.053 10.077l-62.771 51.674a7.47 7.47 0 0 1-4.762 1.71Z"/></g><g class="D"><path d="M749.437 457.105c-27.865 1.124-55.745-16.119-88.607-27.998-58.964-21.316-127.069-31.74-188.412-39.641-62.141-8.004-109.574-33.027-111.52-100.515-.292-10.141-3.868-145.89 14.336-186.334 5.658-12.571 19.79-17.977 31.752-20.704 43.726-9.969 154.783 29.868 265.195 32.278 53.104 1.159 96.659 9.702 120.144 17.076 76.92 24.154 100.739 92.882 102.195 133.235 2.786 77.191-46.576 188.631-145.082 192.603Z"/><path d="M377.542 106.336l-81.014-4.787c20.187 45.044 13.346 148.702-9.84 175.053l74.209 12.349c111.753 17.686 179.637-171.217 16.645-182.615z"/></g><g class="E"><path d="M387.566 148.43a7.51 7.51 0 0 1-3.317-.775c-3.718-1.825-5.24-6.345-3.414-10.063.566-1.154 14.287-28.24 50.411-26.296a7.5 7.5 0 0 1 7.086 7.893c-.223 4.136-3.734 7.288-7.893 7.086-25.959-1.394-35.761 17.188-36.166 17.979a7.459 7.459 0 0 1-6.708 4.176zm26.352 163.888a7.48 7.48 0 0 1-2.239-.343c-20.029-6.259-40.8-25.253-46.302-42.341a7.5 7.5 0 1 1 14.279-4.598c3.975 12.347 21.371 27.895 36.497 32.62a7.5 7.5 0 0 1 4.922 9.396 7.503 7.503 0 0 1-7.156 5.266z"/><path d="M360.899 296.451a7.46 7.46 0 0 1-1.233-.102l-68.303-11.367a7.5 7.5 0 0 1 2.463-14.797l63.219 10.521c39.897-69.82 26.581-142.271 13.646-171.32a7.511 7.511 0 0 1-.624-2.438c-.084-1.028-.583-10.3 7.702-19.298 10.063-10.927 28.287-16.474 54.168-16.487h.064c28.124 0 66.475 9.268 103.566 18.231 39.43 9.528 80.195 19.375 107.997 18.083 51.559-2.404 67.895.99 90.503 5.692l6.671 1.375a7.5 7.5 0 1 1-2.981 14.701l-6.745-1.391c-21.53-4.479-37.084-7.717-86.749-5.394-29.94 1.381-71.765-8.711-112.22-18.487-36.237-8.757-73.707-17.812-100.042-17.812h-.057c-26.804.014-38.255 6.342-43.142 11.648-2.727 2.961-3.492 5.761-3.705 7.095 14.073 33.168 27.686 112.731-17.784 187.925a7.5 7.5 0 0 1-6.416 3.619z"/><path d="M371.844 111.756a7.76 7.76 0 0 1-.568-.021l-68.214-5.111a7.5 7.5 0 0 1-6.918-8.04c.309-4.129 3.907-7.207 8.04-6.919l68.214 5.111a7.5 7.5 0 0 1-.553 14.979z"/></g></svg></g><g transform="matrix(1.360918 0 0 1.360425 750 404.4)"><svg width="393.264" height="433.1"><path d="M328.188 244.662c32.764-23.344 84.78-93.575 57.37-201.842-3.392-13.399-15.369-21.922-26.749-19.041l-41.55 10.519-1.461-7.129c-1.973-8.81-6.921-16.591-13.683-21.575-6.773-4.988-14.79-6.739-22.23-4.855L73.821 52.908c-7.44 1.884-13.657 7.239-17.242 14.848-3.58 7.603-4.226 16.795-1.768 25.487.349 1.241 1.51 4.945 2.107 6.965l-41.55 10.519C3.987 113.608-2.491 126.803.901 140.202 28.311 248.47 107.474 285.49 147.399 290.431c16.503 20.632 34.976 37.392 55.303 46.567-5.951 10.14-10.07 20.932-12.888 30.754-15.018 3.968-23.546 21.445-19.048 39.211 4.522 17.863 20.49 29.23 35.661 25.389l137.376-34.779c15.176-3.842 23.811-21.438 19.289-39.301-4.498-17.766-20.32-29.078-35.417-25.422-7.152-7.298-15.905-14.832-25.964-20.918 13.513-17.742 21.786-41.273 26.477-67.271zm-2.2-160.948l23.02-5.828c4.838 39.179-4.397 68.435-15.856 88.814-.733-29.935-3.71-59.004-7.164-82.986zM49.745 153.651l23.009-5.825c8.347 22.674 19.524 49.581 33.078 76.191-19.752-12.512-41.748-33.844-56.087-70.365z" fill="#fd6622"/><path d="M225.159 377.587c-27.607 0-45.405-6.8-46.465-7.216a7.5 7.5 0 0 1 5.459-13.972c.407.158 34.012 12.771 79.733 1.359 45.907-11.46 70.842-38.221 71.088-38.489 2.794-3.05 7.535-3.267 10.59-.479a7.493 7.493 0 0 1 .501 10.577c-1.12 1.232-27.999 30.326-78.547 42.944-15.669 3.911-30 5.275-42.36 5.275zm-22.766-264.906 18.101 28.223a3.686 3.686 0 0 0 4.037 1.576l32.435-8.494c3.455-.905 6.049 3.14 3.786 5.902l-21.248 25.937a3.685 3.685 0 0 0-.251 4.326l18.101 28.223c1.928 3.006-1.117 6.723-4.444 5.424l-31.233-12.193a3.685 3.685 0 0 0-4.192 1.098l-21.248 25.937c-2.263 2.763-6.739 1.015-6.532-2.55l1.945-33.472a3.687 3.687 0 0 0-2.34-3.648l-31.233-12.193c-3.327-1.299-3.048-6.096.407-7l32.435-8.494a3.686 3.686 0 0 0 2.746-3.352l1.945-33.472c.207-3.565 4.855-4.783 6.783-1.776z" fill="#c63500"/></svg></g><g transform="matrix(1.999976 .093468 -.093088 1.991832 1474.654645 409.09723)"><svg width="81.512" height="98.094"><use href="#B" fill="#5917c1"/></svg></g><g transform="matrix(1.328253 -.308292 .308348 1.328493 446.019431 631.512246)"><svg width="73.044" height="127.584"><use href="#C" fill="#f62"/></svg></g><g transform="matrix(2.088211 .097592 -.097085 2.077371 62.454642 819.333747)"><svg width="81.512" height="98.094"><use href="#B" fill="#ea2688"/></svg></g><g transform="matrix(.662317 -1.173075 1.171214 .661266 1777.89679 792.059549)"><svg width="73.044" height="127.584"><use href="#C" fill="#2471ed"/></svg></g><g transform="matrix(-1.1698 2.044471 -2.059879 -1.178617 2500.707267 1254.883168)"><svg width="81.512" height="98.094"><use href="#B" fill="#f62"/></svg></g><defs ><path id="B" d="M14.57 98.094 0 59.177C38.363 65.894 56.799 43.877 60.076 0l21.436 28.993C79.487 73.081 56.745 95.67 14.57 98.094z"/><path id="C" d="M64.219 127.585a7.5 7.5 0 0 1-7.301-9.246c3.846-16.083-2.739-29.907-11.836-39.413-6.396 8.832-15.38 15.101-24.195 15.828-8.45.695-15.259-3.843-18.211-12.146-5.832-16.402-1.104-24.589 3.888-28.569 7.457-5.945 19.57-5.285 32.343 1.54 2.054-15.811-9.544-30.425-32.832-41.28a7.5 7.5 0 0 1-3.629-9.966A7.497 7.497 0 0 1 12.411.702C28.571 8.235 40.245 17.57 47.11 28.449c6.075 9.627 8.271 20.393 6.351 31.133a43.667 43.667 0 0 1-1.31 5.333c13.926 12.532 25.149 32.69 19.356 56.913a7.502 7.502 0 0 1-7.288 5.757zM19.236 65.014c-1.618 0-2.759.305-3.322.753-.891.71-1.851 4.094.895 11.816.848 2.386 1.771 2.311 2.844 2.222 3.801-.313 9.436-4.138 13.671-10.166-5.999-3.476-10.943-4.625-14.088-4.625z"/></defs></svg>