<svg xmlns="http://www.w3.org/2000/svg" width="2750" height="3000" xmlns:v="https://vecta.io/nano"><style><![CDATA[.B{fill:#a85f36}.C{fill:#f4bbab}.D{fill:#ffd215}.E{fill:#111}.F{fill:#773a11}.G{fill:#656c72}.H{fill:#fff}.I{fill:#2199ce}.J{fill:#e09273}.K{fill:#5ac4ff}.L{fill:#ce9800}.M{fill:#8f969e}.N{fill:#0a3ea5}.O{fill:#e3e5e5}.P{fill:#002e77}.Q{fill:#b7b7b7}.R{fill:#54d8f7}.S{fill:#b7006d}]]></style><g transform="matrix(1.249266 0 0 1.249656 1012.5 55)"><svg width="1221.717" height="2157.593"><path d="m770.675 1675.116 208.85-17.024 22.404 274.845-208.85 17.024zm-367.561 22.411 207.527 28.992-38.154 273.105-207.527-28.992z" class="B"/><path d="M698.566 46.281c-7.958-.029-16.624 6.223-28.363 33.878s-18 52.699-14.087 57.003 24.261 2.407 31.304-10.34 13.304-34.014 14.478-46.663 5.145-33.847-3.332-33.878z" class="D"/><g class="B"><path d="M590.898 8.162s-29.801-12.261-42.783-.641c-4.666 4.176-17.478 33.772-16.826 41.598s2.739 22.72 6.391 21.795 20.87-12.358 21.652-24.25 31.565-38.501 31.565-38.501z"/><path d="M552.357 10.857s-15.789-8.696-24.067 0c-4.039 4.242-6.903 28.709-7.234 40.529s12.515 19.928 16.918 12.482 14.383-53.011 14.383-53.011z"/><path d="M529.072 15.205s-22.435-1.565-23.478 15.391 5.498 35.226 8.488 37.308 18.079-8.117 17.056-15.8-2.066-36.9-2.066-36.9zm171.652 44.882l-24.652-13.424s-8.971-16.287-38.348-23.762c-30.391-7.734-57.783-15.908-57.783-15.908l-18.844 112.184s51.975 12.115 67.815 9.767c9.999-1.482 17.03-4.696 17.03-4.696l20.739 7.043s17.217-19.412 22.304-30.445 11.739-40.76 11.739-40.76z"/></g><path d="m536.571 77.638-.114-.001a5 5 0 0 1-2.901-8.99c.378-1.26 1.147-5.333.188-16.099-1.942-21.815 8.259-41.918 8.694-42.763a5 5 0 0 1 8.892 4.575c-.143.281-9.301 18.489-7.626 37.302 1.513 17-.685 21.737-2.77 23.964-1.2 1.283-2.785 2.012-4.365 2.012zm-16.467-14.127a5.001 5.001 0 0 1-4.856-3.826c-4.837-20.004 5.835-45.378 6.292-46.448a5 5 0 0 1 9.2 3.922c-.119.28-9.819 23.436-5.771 40.176a5 5 0 0 1-4.864 6.176z" class="F"/><path d="M601.333 261.988s25.043-16.435 54.783-18.783 47.739 1.565 55.565 0 58.696-32.087 90-37.565 224.489-13.259 212.087 76.307c-7.043 50.867-36.061 71.635-86.87 89.867-46.018 16.513-92.004 31.043-116.437 33.391s-137.128 23.478-137.128 23.478l-72-166.696z" class="D"/><path d="M618.354 965.985c-123.68 26.49-228.22 28.02-233.49 3.41 0 0 0-.01-.01-.03-5.18-24.62 87.632-84.288 211.262-110.768 123.69-26.49 205.242-8.436 210.522 16.174 5.27 24.61-64.594 64.724-188.284 91.214zm-235.76-636.693s-40.696-13.696-41.87-21.13 11.217-43.043 16.957-46.957 52.304-19.174 84-25.826 72.72-2.59 84.522 2.993 22.696 33.789 19.174 44.746-72.391 41.87-83.739 41.478-79.043 4.696-79.043 4.696z" class="E"/><path d="m427.594 295.64-73.565 38.609s164.348 32.87 178.435 28.174 17.739-89.217 17.739-89.217l-54.783 9.913-67.826 12.522z" class="B"/><path d="M806.638 845.145l124.565 393.539c23.478 66.913 41.087 145.565 48.13 176.087s0 69.261 0 69.261l17.609 162c8.217 69.261 9.391 141.261 9.391 141.261l-257.087 2.111s-36.685-103.85-37.565-149.241c-.299-15.438 22.304-184.304 22.304-184.304s-13.501-16.395-15.783-22.826c-5.684-16.021 2.936-32.914 2.87-35.478l-102.13-346.696-62.217-180.783 249.914-24.93z" class="K"/><path d="M806.768 1784.859a5.002 5.002 0 0 1-4.694-3.277c-1.735-4.723-42.528-116.108-46.069-155.054-3.608-39.694 7.205-156.769 13.017-182.343 3.958-17.416-8.52-48.323-18.546-73.158-3.738-9.258-7.268-18.003-9.515-25.024-8.111-25.352-126.154-374.89-127.346-378.418a5 5 0 0 1 9.474-3.2l127.396 378.571c2.134 6.668 5.597 15.246 9.263 24.328 10.548 26.128 23.677 58.646 19.024 79.117-5.716 25.15-16.354 140.229-12.809 179.222 3.423 37.649 45.076 151.367 45.497 152.511a5 5 0 0 1-4.693 6.725z" class="I"/><path d="M651.637 948.727s8.217 311.087 0 475.435-33.283 424.415-33.283 424.415l-253.398-39.371.247-231.261c2.348-25.826 44.609-173.739 44.609-173.739l-7.655-482.478c-5.113-38.536 154.525-57 194.96-63.13s54.522 90.13 54.522 90.13z" class="K"/><path d="M533.246 272.162c5.294 3.154 13.345 24.522 12.803 33.391s13.806-41.478 13.806-41.478l-18-6.783z" class="E"/><path d="M673.333 993.88a5 5 0 0 1-5-5c0-27.305-10.856-109.232-19.74-131.011a5 5 0 0 1 9.26-3.777c9.424 23.107 20.48 106.114 20.48 134.788a5 5 0 0 1-5 5z" class="I"/><path d="M331.072 329.292c-18.261-19.043-27.652-48.681 1.565-75.267 24.385-22.189 105.376-35.926 152.237-34.037 51.763 2.087 85.676 11.942 94.135 41.438-16.696 11.478-31.289 15.655-31.289 15.655s-10.561-23.454-54.387-23.057-108.522 0-128.348 26.586c-11.524 15.454 6.807 35.782 6.807 35.782l-40.72 12.899z" class="D"/><path d="m403.072 211.64 12.418 143.722 121.147 16.452-22.956-160.174z" class="B"/><path d="M655.119 1178.471a5 5 0 0 1-4.998-4.938l-1.898-142.693a5 5 0 0 1 4.926-5.073c2.762-.029 5.032 2.165 5.073 4.926l1.898 142.715a5 5 0 0 1-4.938 5.062h-.063z" class="I"/><path d="M522.029 92.162c12.192 28.553 46.435 102.783 46.435 118.957 0 13.043-14.609 36-68.66 41.706-52.258 5.517-84.21-9.358-92.558-16.663s-36.522-81.913-36.522-105.913 8.348-57.913 41.217-65.217 93.391-11.971 110.087 27.13z" class="B"/><path d="M411.102 1792.293a5 5 0 0 1-4.977-4.582c-.086-1.019-8.579-102.742-8.967-172.565-.281-50.625 18.353-107.672 31.959-149.326 5.605-17.159 10.445-31.977 12.811-42.732 8.046-36.587 3.632-508.135 3.587-512.894a5 5 0 0 1 4.952-5.048c2.748-.054 5.021 2.19 5.048 4.952.186 19.477 4.468 477.452-3.82 515.137-2.472 11.24-7.384 26.278-13.071 43.689-13.394 41.004-31.737 97.162-31.465 146.166.386 69.428 8.846 170.767 8.932 171.783a5 5 0 0 1-4.988 5.419z" class="I"/><path d="M441.29 44.423c.783-1.174 18.783-25.826 54-14.478s36 77.275 36 77.275-53.242-2.605-66.913 6.855-23.087-69.652-23.087-69.652z" class="F"/><path d="M398.898 116.162v85.043c5.217 24-21.913 3.13-21.913 3.13s-32.87-20.002-30.261-47.28c1.714-17.924 10.825-51.537 19.826-54.459s32.348 13.565 32.348 13.565zm-15.13 187.565c8.348 23.739 35.739 32.87 49.565 37.043 8.798 2.656-56.087-5.478-56.087-5.478l-10.435-20.348z" class="E"/><path d="M403.072 187.118c-20.348-6.652-45.391-2.091-45.391 21.391 0 21.391 33.391 39.13 57.391 24.522s-12-45.913-12-45.913z" class="B"/><path d="M343.594 176.162c27.652-17.739 59.478-34.435 59.478-34.435s2.087-18.261 4.174-26.087l3.652 21.913s43.826-16.174 65.217-21.913-3.13-66.913-3.13-66.913-27.391-19.174-73.421-5.087c-54.83 16.78-75.275 58.609-55.971 132.522z" class="F"/><g class="D"><path d="M319.072 296.684s-12 10.435-10.435 32.609 18.488 28.831 37.94 33.59 177.539 25.106 192.147 16.758 27.13-48.063 33.391-61.597 12.111-40.603 6.894-56.617c-5.699-17.492-33.792 11.779-33.792 11.779s-4.145 70.957-13.928 78.783c-9.21 7.368-44.739-9.13-142.043-20.087-15.13-9.386-18.249-16.876-24.783-26.087s-45.391-9.13-45.391-9.13z"/><path d="m823.984 825.074-.846 26.428c-.163 5.094-4.846 8.79-9.854 7.844-31.018-5.858-103.859-6.075-214.02 17.517-123.63 26.48-219.59 67.88-214.41 92.5-.29-1.2-9.69-39.64-9.69-53.51-13.31-12.91-3.92-32.87-3.14-50.48.79-17.6-9.234-96.839-25.45-173.73-11.719-55.57-31.534-107.486-56.328-173.352-27.647-73.445-38.742-142.826-38.742-142.826l74.351-46.174 73.709 22.692 132.9 10.44 31.3-99.65s29.74-14.09 52.83-5.48c38.04 14.18 81.783 84.009 81.783 84.009s44.058 136.812 66.257 220.941a11738.956 11738.956 0 0 1 15.612 59.889c-3.03-9.184 18.195 34.278 26.522 58.028 9.261 26.414.148 47.459.148 47.459s24.663 22.407 27.067 41.744c3.698 29.754-9.999 55.71-9.999 55.71z"/><path d="M265.333 371.814c-30.065 0-55.046 32.128-66.783 46.435-17.87 21.783-120.783 141.13-138 163.043C33.302 615.973-2.006 659.968.089 704.84c3.309 70.863 49.766 96.887 86.287 109.408s92.348 63.13 134.609 74.087 61.043 13.565 91.826-7.304 32.87-37.565 30.261-50.609-7.826-37.565-2.087-50.087 2.609-32.87-7.304-46.435-68.348-24-68.348-24 2.609-26.609-31.826-30.783c21.391-10.957 29.739-17.217 31.826-38.087 19.826-25.043 58.957-77.739 105.913-92.87S265.333 371.812 265.333 371.812z"/></g><path d="M334.463 886.901c1.565 0 38.348 8.804 50.184 4.696 18.043-6.263 54.294-35.217 61.729-43.435 5.251-5.803-38.739-93.913-38.739-93.913l-22.99 6.261-24.749-21.522-10.174 33.652z" class="B"/><path d="M347.768 657.01s-6.837 42.1-6.174 54.997c1.87 36.372 35.522 53.59 44.913 52.416s50.87-60.261 50.87-60.261z" class="D"/><path d="M485.992 808.554a5 5 0 0 1-4.964-5.656c.119-.902 11.921-90.548 11.921-120.65a5 5 0 0 1 2.717-4.448c58.276-29.906 139.582-38.583 203.905-42.801a4.997 4.997 0 0 1 3.63 1.236c31.488 27.713 58.435 72.178 80.092 132.16l1.605 4.364a5 5 0 1 1-9.304 3.664c-.405-1.029-.951-2.54-1.706-4.633-20.719-57.385-46.197-99.989-75.751-126.675-62.021 4.139-139.386 12.56-195.221 40.228-.686 33.132-11.498 115.273-11.973 118.865a5.002 5.002 0 0 1-4.951 4.345z" class="L"/><g class="B"><path d="M397.902 756.9s55.909-28.477 60.213-29.26 46.591 21.974 52.043 26.187c8.63 6.669 0 24.682-10.957 20.769s-35.217-16.043-35.217-16.043l-55.174 24.261-10.909-25.914z"/><path d="M402.159 778.51l59.87-26.217 50.87 21.522c11.739 4.109 6.261 26.217-7.043 21.13s-44.609-12.13-44.609-12.13l-46.174 20.739-12.913-25.043z"/><path d="M408.029 799.249l54-21.326s46.565 15.065 53.217 18.196 4.092 22.304-9 19.212c-12.111-2.861-43.371-6.69-43.371-6.69l-36.846 19.304z"/><path d="M422.47 823.311l40.939-17.41 46.355 21.913c5.873 2.739 3.134 19.401-7.04 17.331s-36.783-10.287-36.783-10.287l-28.565 21.124-14.907-32.67z"/></g><path d="M330.159 771.466s28.616-3.13 32.308 0 22.18 32.087 15.431 73.679c-3.606 22.224-10.676 36.219-15.257 43.37a11.183 11.183 0 0 1-10.676 5.1l-55.85-6.323 34.043-115.826z" class="D"/><ellipse cx="540.762" cy="119.177" rx="27.285" ry="30.359" transform="matrix(.950489 -.310759 .310759 .950489 -10.262 173.947)" class="G"/><use href="#B" class="M"/><g class="F"><path d="M403.074 217.548a5.003 5.003 0 0 1-4.633-3.115c-3.681-9.038-16.55-12.465-20.995-11.876a5 5 0 1 1-1.319-9.912c8.254-1.098 25.859 3.985 31.575 18.016a5 5 0 0 1-4.629 6.888z"/><path d="M383.429 217.101a5 5 0 0 1-4.28-7.578c3.226-5.365 9.34-11.34 15.145-11.782a5 5 0 0 1 .76 9.971c-1.149.147-4.795 2.74-7.334 6.963a4.998 4.998 0 0 1-4.29 2.424zm101.553 40.933c-9.901 0-21.035-.868-32.634-3.415a5 5 0 0 1 2.144-9.767c25.146 5.521 47.292 2.879 63.777-.04a5 5 0 0 1 1.743 9.847c-6.307 1.117-19.063 3.375-35.031 3.375zm24.044-82.61a5 5 0 0 1-4.655-6.823c3.592-9.182 12.537-14.929 20.821-13.367 5.316 1.003 10.997 5.519 10.997 15.189a5 5 0 0 1-10 0c0-3.201-.959-5.005-2.85-5.362-2.67-.501-7.514 1.712-9.654 7.183a5.003 5.003 0 0 1-4.658 3.18zm-.605 40.689c-11.008 0-23.243-3.521-30.696-11.055a5 5 0 0 1 7.11-7.032c7.967 8.054 25.029 10.029 34.393 6.352a5 5 0 1 1 3.654 9.308c-4.074 1.6-9.124 2.428-14.461 2.428zm-89.432 586.963a4.999 4.999 0 0 1-2.124-9.529l43.043-20.152a4.998 4.998 0 0 1 3.722-.208l50.788 17.172a5 5 0 1 1-3.203 9.473l-48.885-16.529-41.225 19.301a4.983 4.983 0 0 1-2.117.473zm-7.878-23.484a5.001 5.001 0 0 1-2.009-9.582l50.92-22.299a5.004 5.004 0 0 1 3.965-.02l44.864 19.111a5 5 0 1 1-3.919 9.201l-42.877-18.265-48.942 21.432a4.98 4.98 0 0 1-2.003.421zm18.375 47.997a5.001 5.001 0 0 1-2.211-9.487l33.927-16.687a4.997 4.997 0 0 1 4.346-.032l8.139 3.854a5 5 0 1 1-4.28 9.038l-5.958-2.821-31.761 15.621a4.993 4.993 0 0 1-2.203.515z"/></g><g class="L"><path d="M505.393 386.116c-15.952 0-37.208-2.04-64.695-5.316-47.838-5.701-105.342-15.692-122.69-23.757-9.85-4.579-12.293-16.772-12.393-17.289a5 5 0 0 1 9.816-1.908c.432 2.14 2.495 8.131 6.792 10.129 14.239 6.62 65.681 16.462 119.658 22.895 45.756 5.453 74.714 7.544 87.322 2.093a5.002 5.002 0 0 1 6.574 2.605 4.998 4.998 0 0 1-2.605 6.573c-6.408 2.77-15.531 3.974-27.779 3.974zm61.98-36.432a5 5 0 0 1-4.362-7.436c.108-.195 10.886-19.609 13.108-30.88 6.921-35.099-1.421-51.387-1.506-51.548-1.286-2.424-.388-5.451 2.025-6.759s5.418-.444 6.747 1.957c.422.764 10.26 19.161 2.546 58.284-2.529 12.825-13.712 32.966-14.187 33.817a5 5 0 0 1-4.371 2.565zm21.128 112.704a5.025 5.025 0 0 1-3.335-1.26c-.625-.552-15.383-13.995-22.716-56.64-6.053-35.201-14.497-52.732-14.581-52.905a5.003 5.003 0 0 1 2.287-6.688 4.999 4.999 0 0 1 6.687 2.275c.37.751 9.133 18.812 15.463 55.624 6.637 38.599 19.393 50.757 19.521 50.875 2.07 1.827 2.246 4.968.419 7.039a4.974 4.974 0 0 1-3.744 1.681z"/><path d="M531.192 468.119a5 5 0 0 1-4.997-5.278c1.98-35.647-16.667-91.941-16.856-92.505a5 5 0 0 1 9.484-3.17c.795 2.377 19.443 58.663 17.356 96.23a5 5 0 0 1-4.988 4.723zM365.829 332.791c-38.087 0-54.099-28.077-54.78-29.305a5 5 0 0 1 8.739-4.861c.612 1.085 14.824 25.523 48.904 24.107a5.01 5.01 0 0 1 5.202 4.789 5 5 0 0 1-4.789 5.202 79.024 79.024 0 0 1-3.275.068zm33.206 426.036a5 5 0 0 1-3.673-8.391c8.652-9.374 31.775-36.285 34.829-48.087a5 5 0 0 1 9.681 2.505c-4.233 16.358-33.805 48.728-37.163 52.365a4.989 4.989 0 0 1-3.675 1.608zm-53.354-303.229a5.002 5.002 0 0 1-4.699-3.291c-12.034-33.042-30.243-56.569-52.658-68.037-16.823-8.607-30.329-7.491-30.464-7.479-2.74.248-5.181-1.762-5.442-4.503a4.991 4.991 0 0 1 4.47-5.45c.645-.065 16.041-1.468 35.34 8.2 17.441 8.737 41.687 28.641 58.15 73.847a5 5 0 0 1-4.697 6.712zM315.42 591.171a4.999 4.999 0 0 1-3.761-8.292c1.051-1.202 26.034-29.557 50.728-40.83a5 5 0 1 1 4.153 9.097c-22.722 10.373-47.112 38.041-47.356 38.319a4.99 4.99 0 0 1-3.764 1.706zm-81.917 92.948a4.98 4.98 0 0 1-2.787-.852c-.193-.129-17.198-11.29-46.069-13.247-29.877-2.025-47.96-.041-48.14-.021a5 5 0 0 1-1.133-9.936c.764-.087 19.068-2.115 49.95-.021 31.763 2.154 50.215 14.413 50.985 14.934a5 5 0 0 1-2.806 9.142zm-5.213 30.783a5.003 5.003 0 0 1-4.683-3.246 4.999 4.999 0 0 1 2.926-6.437c22.616-8.48 40.238-.177 40.977.181a5 5 0 0 1-4.338 9.01c-.64-.302-14.715-6.733-33.128.172a4.992 4.992 0 0 1-1.755.32zm77.222 175.826a5.001 5.001 0 0 1-2.838-9.12c.163-.112 16.482-11.379 28.27-23.06 9.754-9.667 6.577-36.924 3.161-51.506-3.293-14.056 2.373-37.193 2.616-38.171a5.001 5.001 0 0 1 9.706 2.409c-1.491 6.02-4.861 23.77-2.585 33.482 2.457 10.488 9.294 45.873-5.858 60.889-12.436 12.324-28.947 23.718-29.644 24.197a4.976 4.976 0 0 1-2.828.88zm69.652 30.126a5 5 0 0 1-3.457-8.612c21.558-20.628 134.929-71.304 239.739-89.226 119.335-20.405 204.23-4.702 213.518-2.844a5 5 0 0 1-1.961 9.806c-9.102-1.821-92.316-17.206-209.871 2.896-101.3 17.322-214.259 67.215-234.512 86.594a4.982 4.982 0 0 1-3.456 1.387zm347.814-496.278a5.001 5.001 0 0 1-4.774-3.522l-14.918-47.813a5 5 0 0 1 9.533-3.018l14.937 47.873a5.001 5.001 0 0 1-4.777 6.481zM664.034 300.5a4.998 4.998 0 0 1-4.297-2.436c-15.434-25.828-48.555-37.364-48.888-37.477a5.002 5.002 0 0 1-3.122-6.343 4.998 4.998 0 0 1 6.337-3.126c1.499.508 36.904 12.778 54.256 41.817a5 5 0 0 1-4.287 7.566z"/></g><g class="D"><path d="M696.616 46.663c-5.202 2.028-8.804 33.684-20.152 56.847-9.168 18.713-20.348 30.522-20.348 33.652s9.13 15.522 37.565 26.609c16.435-19.957 22.304-28.143 29.348-44.593s14.087-60.668 14.087-60.668-32.674-14.897-40.5-11.847z"/><path d="M726.55 58.51s42.261-20.045 58.957-16.153 44.348 40.338 44.348 40.338 45.913 11.483 98.609 44.128 104.98 98.791 81.707 174.239-190.229-13.159-204.838-26.508-23.478-47.261-31.304-49.87-60.658-2.477-71.988-13.043c-15.664-14.609-15.968-50.469-8.99-72.382s33.5-80.749 33.5-80.749z"/></g><path d="M693.685 168.771a5 5 0 0 1-2.916-9.065c26.975-19.32 40.32-77.196 36.718-98.796a5 5 0 0 1 9.864-1.645c4.153 24.907-9.86 86.44-40.759 108.571-.882.632-1.9.936-2.907.936zm170.105 127.02c-13.759 0-41.789-2.698-61.43-17.217-17.884-13.219-24.787-33.401-28.496-44.243-.671-1.961-1.488-4.351-1.956-5.315-2.085-1.074-9.829-1.775-16.763-1.487a5 5 0 0 1-.421-9.991c9.185-.388 20.961.171 24.906 5.042 1.355 1.674 2.236 4.249 3.696 8.515 3.355 9.811 9.603 28.073 24.978 39.438 20.998 15.521 55.095 15.663 60.939 15.048a5 5 0 1 1 1.047 9.945c-1.424.15-3.659.265-6.501.265zm-22.51-168.972h-.059a5 5 0 0 1-4.942-5.057c.245-21.292-10.338-35.949-10.445-36.095-1.631-2.221-1.163-5.349 1.054-6.987s5.335-1.179 6.98 1.032c.519.698 12.696 17.367 12.411 42.165a5 5 0 0 1-4.999 4.942z" class="L"/><path d="M735.854 1770.865c3.392-4.388 22.16 14.8 118.957 8.87 119.217-7.304 151.304-28.174 156-29.739s11.478 69.391 8.348 75.652-55.551 29.217-141.254 32.87-125.355-3.13-130.051-4.696-18.192-74.945-12-82.957zm-381.543 10.875c4.235-3.581 18.116 22.552 114.465 33.571s153.85 4.118 158.769 3.57-3.3 70.257-7.671 75.724-59.749 12.054-145.005 2.577c-88.718-9.861-121.923-29.298-126.188-31.811s-2.103-77.093 5.629-83.631z" class="K"/><g class="I"><path d="M822.609 1786.027c-50.827 0-76.897-8.514-78.281-8.979a5 5 0 0 1 3.18-9.481c.419.141 42.914 13.888 124.584 5.956 82.247-7.989 128.777-24.548 129.237-24.714a5 5 0 0 1 3.403 9.402c-1.922.696-48.035 17.141-131.674 25.264-18.894 1.835-35.717 2.551-50.45 2.551zm-226.779 39.117c-25.042 0-70.585-.485-114.594-3.46-65.775-4.447-111.797-26.846-113.724-27.797a5 5 0 0 1 4.427-8.967c.577.283 46.366 22.486 109.972 26.786 64.571 4.366 132.529 3.337 133.208 3.325 2.753-.052 5.036 2.158 5.08 4.919a5 5 0 0 1-4.919 5.08l-19.45.114z"/><path d="M786.93 1863.404a4.988 4.988 0 0 1-4.32-2.482c-.804-1.38-19.602-34.373-12.348-83.511a4.997 4.997 0 0 1 5.676-4.216 4.999 4.999 0 0 1 4.216 5.676c-6.716 45.501 10.923 76.717 11.102 77.027a5.005 5.005 0 0 1-4.326 7.506zm-412.833 14.354a5.001 5.001 0 0 1-4.971-4.518c-3.993-41.169 9.381-78.073 9.952-79.625a5 5 0 0 1 9.384 3.454c-.132.359-13.149 36.382-9.384 75.205a4.998 4.998 0 0 1-4.983 5.483zm605.794-392.202a5.003 5.003 0 0 1-4.728-3.375l-14.907-43.349a5 5 0 0 1 9.456-3.252l14.907 43.349a5 5 0 0 1-4.728 6.627z"/></g><path d="M783.53 1881.979c14.673 3.372 81.543 24.945 97.977 23.434s83.739-21.86 92.348-18.729c-3.913-19.565 7.621-34.737 21.419-35.369s23.972 20.499 42.755 36.151 44.31 30.462 93.913 43.435c50.87 13.304 82.954 30.913 86.87 56.739s-5.087 48.913-5.087 48.913c-102.913 24.065-220.25 22.178-435.547-27.236 0 0-1.019-23.504-.236-45.156s2.94-42.261 2.94-42.261-4.377-1.043-6.658-10.174c-1.581-6.327-5.412-33.13 9.307-29.748zm-390.371 27.4c7.11 34.194 33.804 69.916 70.435 62.609 43.014-8.58 61.043-22.214 61.043-22.214s4.352-16.746 32.087-26.308 44.609 1.565 52.435 14.087 30.522 50.87 61.043 61.826 56.348 34.435 58.696 56.348 0 53.217 0 53.217-111.13 23.478-129.913 18.783-157.304-66.522-165.13-71.217-81.103-46.435-81.103-46.435 3.897-65.725 9.444-92.561c2.76-13.352-3.993-34.256 7.485-33.961 8.371.216 20.386 10.957 23.478 25.826z" class="N"/><path d="M778.368 2002.649c-3.913-1.465-8.031 1.578-7.794 5.75.346 6.071 1.076 14.563 2.617 23.369 2.135 12.199 4.149 16.733 7.359 19.826 4.56 4.394 56.087 13.785 115.565 12.742 30.782-.54 49.043-5.217 95.478 0s89.003 12.569 138.261 13.565c49.565 1.002 83.216-11.609 86.868-13.174 2.647-1.134 4.283-20.297 4.984-30.764.21-3.139-2.805-5.499-5.798-4.531-10.114 3.267-31.99 9.299-61.01 11.408-72 5.235-128.512-13.942-199.826-17.722-71.942-3.813-124.836-1.048-176.704-20.469zm-48.269 87.742c2.184-1.4 5.054.13 5.143 2.723.397 11.69-.4 33.346-6.147 38.135-7.043 5.87-67.891 32.478-119.152 25.043-51.119-7.414-120.13-32.478-153.783-55.957s-100.043-58.396-106.592-61.826c-5.593-2.93-.903-33.928.585-42.918a1.792 1.792 0 0 1 2.6-1.296c9.997 5.222 53.45 28.57 81.494 48.909 35.609 25.826 112.696 61.043 154.174 68.087 39.399 6.69 109.69-.388 141.679-20.901z" class="O"/><path d="M640.47 2032.815a4.91 4.91 0 0 1-.451-.021c-1.469-.131-36.294-3.474-63.782-26.16-10.983-9.065-21.975-21.339-31.671-32.168-7.297-8.149-16.326-18.232-19.601-19.702a5.001 5.001 0 0 1-1.6-9.825c6.373-1.68 12.981 5.357 28.651 22.856 9.461 10.565 20.185 22.541 30.587 31.126 25.037 20.663 57.981 23.883 58.311 23.913a5 5 0 0 1-.444 9.981zm451.298-78.156c-25.274 0-67.108-30.063-79.487-41.013-8.515-7.533-26.242-23.195-37.908-21.989a4.996 4.996 0 0 1-5.491-4.455 5 5 0 0 1 4.455-5.491c14.808-1.54 31.286 11.81 45.57 24.445 12.809 11.331 51.966 38.503 72.861 38.503a5 5 0 0 1 0 10z" class="P"/><path d="M592.282 124.818c-17.248-2.033-31.184-5.641-41.296-11.526-7.359-4.282-8.581-10.383-9.259-12.445s3.893-12.389 17.346-7.012c11.478 4.588 51.913 3.544 51.913 3.544s-9.13 1.043 1.043-.522-11.248 28.962-19.747 27.961z" class="B"/><use href="#C" class="G"/><ellipse cx="594.82" cy="46.663" rx="42.322" ry="47.09" transform="matrix(.950489 -.310759 .310759 .950489 14.949 187.156)" class="M"/><use href="#D" class="G"/><use href="#E" class="N"/><use href="#F" class="H"/><ellipse cx="461.314" cy="145.152" rx="27.285" ry="30.359" transform="matrix(.950489 -.310759 .310759 .950489 -22.267 150.544)" class="G"/><use href="#B" x="-79.447" y="25.975" class="M"/><use href="#C" x="-79.448" y="25.975" class="G"/><ellipse cx="515.372" cy="72.638" rx="42.322" ry="47.09" transform="matrix(.950489 -.310759 .310759 .950489 2.944 163.753)" class="M"/><use href="#D" x="-79.448" y="25.975" class="G"/><use href="#E" x="-79.448" y="25.975" class="N"/><use href="#F" x="-79.447" y="25.975" class="H"/><path d="M806.921 732.621a4.995 4.995 0 0 1-4.098-2.129l-16.771-24.101a5 5 0 0 1 8.3-5.579c3.067 4.563 16.521 23.744 16.657 23.937a5 5 0 0 1-4.089 7.872z" class="L"/></svg></g><g transform="matrix(1.2491 0 0 1.249616 246.25 1287.5)"><svg width="1143.824" height="1324.407"><path d="M862.628 998.588s3.13 29.739 6.652 43.043c-17.609 19.565-30.522 43.043-20.348 63.783s80.609 23.087 101.739 15.652 39.913-18.391 42.652-28.565 1.565-78.261 1.565-78.261-9.783-63-10.174-70.043-9.783-41.478-9.783-41.478l-98.73 28.174-23.748 18 10.174 49.696z" class="O"/><path d="M861.841 1026.285a5 5 0 0 1-4.389-7.387c7.285-13.419 18.769-20.223 34.133-20.223a5 5 0 0 1 0 10c-11.738 0-19.792 4.764-25.345 14.994a4.999 4.999 0 0 1-4.398 2.615z" class="Q"/><path d="M642.302 725.698c-194.359 10.732-341.723 35.413-350.163 153.284-10.228 142.835 206.353 185.937 343.142 191.998 78.282 3.468 204.261 2.348 204.261 2.348 33.12-55.365 44.617-111.814 33.463-169.4L642.302 725.699z" class="R"/><path d="M1012.567 866.376c8.716 3.615 13.241 18.644 14.451 34.284s-2.487 68.996-3.373 75.692-16.287 17.547-17.932 20.617 7.376 23.845 11.14 31.11-3.235 64.369-8.268 80.465c-6.056 19.369-50.838 28.928-90 28.957-46.957.034-61.411-.11-74.348-13.696-6.897-7.243-10.814-30.49-2.739-36.391 4.575-3.343 17.772 6.908 39.913 18 18.746 9.391 69.129 5.403 86.087-1.957 20.739-9 26.216-46.436 21.893-60.478s-15.704-54.098-18.715-92.155c-1.091-13.783-3.156-50.056-3.156-50.056l45.048-34.392z" class="P"/><g class="C"><path d="M177.506 659.409c4.871-13.433 24.479-42.94 43.613-61.115 10.49-9.965 72.203-2.209 84.37 8.031s33.341 77.747 13.175 92.467c-30.868 22.531-141.158-39.382-141.158-39.382z"/><path d="m335.689 596.838 216.344 69.596-12.696 124.512-248.642-100.444z"/></g><path d="M629.193 599.926c-3.25 7.227-20.132 6.678-37.706-1.227s-29.185-20.17-25.935-27.397 21.359-14.6 38.933-6.696 27.958 28.093 24.708 35.32z" class="E"/><path d="m463.041 542.747-39.156 133.756 134.525 31.213 46.8-155.376z" class="C"/><g fill="#ea2688"><path d="M562.664 314.766c-24.906 10.389-44.726 19.213-63.722 64.663s-35.481 105.329-35.481 105.329-23.7 19.706-31.467 36.225 20.114 41.477 24.168 45.261c15.349-14.14 66.082-12.736 88.196-8.92 24.418 4.213 78.65 13.665 84.835 42.603 29.408 18.574 41.952-21.783 41.952-21.783L562.663 314.767z"/><path d="M591.879 310.449s71.126-31.667 99.253-36.19 78.285-17.205 107.802-21.308c30.218-4.201 56.32-2.944 56.32-2.944l145.702 297.431c24.704 51.555 41.047 80.57 43.556 95.805s-30.756 92.203-30.756 92.203l-361.489-68.094-7.925-83.269s-22.864-15.802-42.246-47.686c-12.849-21.137-55.544-205.178-55.544-205.178l45.326-20.77z"/></g><path d="M503.97 67.566s-28.112 4.188-39.854 16.998c-20.006 21.826-26.519 46.857-18.14 79.33s24.642 95.484-19.115 127.579c22.914 10.936 58.477 23.945 58.477 23.945s11.287-16.271 12.807-24.58c5.279 14.966 6.004 28.679 6.004 28.679s22.724 10.4 55.478 7.646c62.809-5.281 90.609-27.911 90.609-27.911zm156.957 137.467l-15.22-28.457 41.727-22.756 22.634 39.415-8.805 33.568-15.128 7.854z" class="B"/><ellipse cx="974.642" cy="477.365" rx="61.919" ry="29.42" transform="matrix(.490813 -.871265 .871265 .490813 80.367 1092.244)" class="E"/><path d="M997.628 656.718c21.444 29.514 47.928 74.171 38.092 154.107-10.072 81.853-70.339 157.364-198.417 158.719-97.821 1.035-317.434-314.489-317.434-314.489s264.468 22.831 313.412 8.967c73.676-20.87 164.348-7.304 164.348-7.304z" class="R"/><path d="M998.82 345.559c66.894 45.446 147.86 113.82 144.927 171.41-2.592 50.9-94.308 96.799-148.977 122.105l-146.65 65.171S728.807 726.14 723.314 724.77s-53.226-82.261-53.226-82.261 47.551-11.46 69.423-14.822 49.353 4.956 49.353 4.956l186.1-124.846-65.02-44.97 88.876-117.269z" class="C"/><path d="M639.578 618.938a5 5 0 0 1-4.955-4.38l-3.259-26.075c-5.816-4.563-24.086-20.411-38.449-49.415-15.859-32.026-15.126-74.733-15.087-76.536.06-2.76 2.368-4.948 5.105-4.89a5.002 5.002 0 0 1 4.893 5.104c-.009.417-.703 42.089 14.051 71.884 15.743 31.791 36.846 46.89 37.058 47.039a5.019 5.019 0 0 1 2.09 3.473l3.521 28.176a5.001 5.001 0 0 1-4.967 5.621z" class="S"/><g class="C"><path d="M682.734 170.188s-10.321 32.165-19.915 48.354c-9.595 16.18-25.64 68.474-85.01 82.054-40.593 9.303-74.725-12.755-87.074-46.073l-6.92-18.074-.75-1.89-.493-1.25-.236-.611-7.704-19.342-1.331-3.317-.83-2.097-.661-1.664-.627-1.565a3143.692 3143.692 0 0 1-7.299-18.518c-14.834-38.137.997-67.322 15.308-83.231 13.929-15.472 35.888-25.659 35.888-25.659s77.435 17.185 109.968 29.581c32.512 12.378 57.685 63.3 57.685 63.3z"/><path d="M599.384 280.107l58.76 79.731c9.507 10.857 27.457 14.114 52.016-15.16 24.733-29.481 27.799-59.376 24.768-64.879-3.287-5.968-73.455-98.441-73.455-98.441z"/></g><path d="M492.915 82.243c17.642 37.207 41.1 57.009 76.637 67.277 32.236 9.314 84.533-2.903 92.512-6.068s27.199 34.238 31.984 50.63-2.814 57.938-28.519 68.31c55.398-10.234 83.944-35.378 82.835-71.182s-29.434-53.609-47.64-70.962c-23.855-22.738-29.196-48.221-71.383-67.934C586.568 32.328 531.644 27.7 511.43 38.173c-21.219 10.994-22.506 35.648-18.513 44.069z" class="B"/><path d="M638.374 156.461s14.334-34.892 36.356-23.866c20.528 10.278 14.595 53.695-1.422 61.489-16.966 8.255-38.426-22.155-34.934-37.622z" class="C"/><path d="M580.41 43.408c10.927-.839 48.043-22.917 23.044-43.408 36.782 8.896 27.058 49.771-1.447 51.67s-25.015-8-21.597-8.262z" class="B"/><path d="M512.075 143.806c4.101-3.596 13.991-13.553 27.336-16.582 12.351-2.803 20.066-1.202 23.663-.889 4.894.426 5.079 6.995-2.78 8.78-5.783 1.314-31.904 17.186-37.928 21.639-4.974 3.677-15.207-8.638-10.292-12.948zm-27.248 16.483c-6.268 2.53-12.838 7.804-19.726 16.642-7.097 9.106-5.901 17.869-5.892 19.579.016 3.096 3.863 5.419 6.089.366 4.213-9.565 21.362-20.575 25.283-23.17 3.956-2.618-1.053-15.315-5.754-13.418z" class="F"/><path d="M565.203 254.767c13.084-14.407 18.917-26.496 22.318-32.829 2.604-4.848 11.772-2.973 14.434 6.59 2.903 10.426.487 28.971-13.99 36.79-13.051 7.049-29.307-3.346-22.763-10.552z" class="H"/><g class="J"><path d="M665.834 177.6a4.979 4.979 0 0 1-3.222-1.178c-12.853-10.843-12.107-25.569-7.472-32.562a5 5 0 1 1 8.335 5.524c-1.955 2.95-3.263 11.93 5.585 19.394a5 5 0 0 1-3.226 8.822zM609.06 293.081a5.001 5.001 0 0 1-2.274-9.456c4.401-2.244 23.169-21.685 28.958-31.448a5 5 0 0 1 8.602 5.1c-5.668 9.561-25.693 31.522-33.018 35.257a4.978 4.978 0 0 1-2.267.546z"/><path d="M658.489 166.288a5 5 0 0 1-4.823-6.331c2.351-8.524 12.776-11.646 21.394-10.262a5 5 0 0 1-1.589 9.873c-5.025-.81-9.592.974-10.164 3.048a5.003 5.003 0 0 1-4.817 3.672zm-134.71 73.334a4.987 4.987 0 0 1-3.808-1.757c-5.001-5.869-5.318-13.209-.809-18.698 4.29-5.222 13.254-8.407 22.8-3.063a5 5 0 1 1-4.886 8.725c-4.327-2.422-8.4-1.489-10.188.686-1.746 2.125-.586 4.362.693 5.864a5 5 0 0 1-3.803 8.243z"/></g><path d="M798.934 252.95c31.352-5.472 70.307-12.474 100.505 5.405 23.333 13.814 115.29 72.664 115.29 72.664s27.129-.287 34.632 18.417-2.385 31.478-2.385 31.478-28.587.046-56.982 28.632c-30.697 30.904-46.836 59.981-52.921 83.004-5.652 21.383.179 30.449.179 30.449l-68.287-62.082c-7.897-6.699-110.261-200.944-70.031-207.966z" fill="#ea2688"/><path d="M171.248 603l11.196-20.634 147.893 80.25c5.693 3.089 7.808 10.22 4.718 15.914s-10.221 7.809-15.915 4.72z" fill="#004ebf"/><path d="M128.671 490.556c51.541 27.967 79.682 75.786 62.846 106.813a39.434 39.434 0 0 1-7.57 9.841c5.691-30.407-21.556-70.46-66.971-95.102C71.57 487.47 23.13 486.455.748 507.805a39.467 39.467 0 0 1 4.124-11.71c16.835-31.027 72.265-33.501 123.798-5.539z" fill="#2471ed"/><path d="M184.632 601.357a43.961 43.961 0 0 1-.684 5.852c-22.391 21.345-70.822 20.335-116.237-4.307C22.305 578.265-4.95 538.207.749 507.805c3.531-3.363 7.693-6.167 12.395-8.418-1.509 29.536 25.1 66.171 67.65 89.259 38.26 20.76 78.672 24.746 103.838 12.711z" fill="#004ebf"/><path d="M116.977 512.107c42.558 23.093 69.155 59.71 67.655 89.25-25.166 12.035-65.578 8.049-103.838-12.711-42.55-23.088-69.159-59.723-67.65-89.259 25.175-12.03 65.581-8.035 103.833 12.72z" class="K"/><path d="M73.342 574.007c-.774 0-1.56-.18-2.295-.561-19.187-9.934-43.298-38.3-46.908-55.185a5.001 5.001 0 0 1 9.779-2.091c3.009 14.078 25.237 39.858 41.726 48.395a5 5 0 0 1-2.303 9.441z" class="H"/><g class="C"><path d="M363.389 615.205s-8.655-22.366-25.546-29.047-59.588-18.891-63.454-18.285-21.11 4.388-39.317 4.47c-15.715.07-40.648-.691-45.066-.065-9.395 1.332-10.672 22.518 4.303 27.447 11.238 3.7 29.838 8.067 40.193 8.425s27.017-1.012 27.017-1.012 35.006 34.84 67.318 35.268c17.572.233 34.552-27.201 34.552-27.201zm-183.988 41.511c3.456-3.436 35.592-26.4 43.636-30.6 18.794-9.812 27.969 8.29 23.575 14.865-8.674 12.977-37.693 34.879-49.698 41.25-13.037 6.919-26.673-16.406-17.512-25.514z"/><path d="M206.147 672.824c3.456-3.436 37.745-28.291 45.789-32.491 18.794-9.812 28.042 8.242 23.647 14.817-8.674 12.977-34.59 31.456-44.059 37.449-16.737 10.593-34.539-10.667-25.378-19.775z"/><path d="M234.032 682.362c3.456-3.436 35.256-23.59 43.3-27.789 18.794-9.812 26.653 7.344 22.259 13.919-8.674 12.977-36.439 31.319-45.821 37.446-13.834 9.034-28.899-14.467-19.738-23.575z"/></g><path d="M933.348 525.651a4.984 4.984 0 0 1-3.524-1.453l-64.588-64.177a5 5 0 0 1 7.049-7.094l64.588 64.177a5 5 0 0 1-3.525 8.547z" class="S"/><path d="M255.18 693.692c3.456-3.436 36.303-23.44 44.347-27.639 18.794-9.812 27.747 10.219 22.003 15.654-11.037 10.444-30.738 25.002-40.748 31.473-17.383 11.236-34.763-10.379-25.602-19.488z" class="C"/><path d="M294.915 708.317a5 5 0 0 1-3.223-8.825l27.817-23.417a5 5 0 1 1 6.44 7.65l-27.817 23.417a4.984 4.984 0 0 1-3.218 1.175zm-41.447.947a5.001 5.001 0 0 1-3.557-8.515c.417-.422 10.297-10.409 17.028-16.367 6.086-5.388 30.254-22.452 31.28-23.175a5 5 0 0 1 5.765 8.171c-.247.174-24.74 17.467-30.416 22.492-6.479 5.736-16.445 15.808-16.544 15.909a4.987 4.987 0 0 1-3.556 1.485z" class="J"/><path d="M741.535 1040.004s35.291 85.296 36.023 130.547-78.355 76.521-78.355 76.521-96.793 41.124-129.926 50.915-96.012 2.631-108.414-2.889-70.187-67.956-70.187-67.956 19.1-63.814 118.487-84.554c35.866-27.869 48.454-59.973 48.454-59.973l183.919-42.61z" class="O"/><path d="M571.103 1156.979a4.983 4.983 0 0 1-3.06-1.048c-4.626-3.586-32.531-16.63-51.839-13.493a5 5 0 0 1-1.606-9.87c24.225-3.941 54.837 11.79 59.571 15.459a5 5 0 0 1-3.067 8.952z" class="Q"/><path d="M235.537 692.724c.084-.13.113-.197.113-.197l-8.818-4.716c.573-1.071 3.346-5.258 14.971-14.16 11.607-8.889 30.696-22.443 30.887-22.579a5 5 0 0 1 5.787 8.155l-30.594 22.363c-10.082 7.72-12.257 10.997-12.345 11.133zm-31.851-9.552a5.001 5.001 0 0 1-4.54-7.09c2.526-5.495 9.18-11.808 22.248-21.111 9.741-6.934 19.497-14.461 19.594-14.536a5 5 0 0 1 6.113 7.914c-.099.076-10.008 7.722-19.906 14.768-4.074 2.9-16.471 11.726-18.961 17.142a5.001 5.001 0 0 1-4.546 2.913zm-9.069-32.987a5 5 0 0 1-2.853-9.11l19.854-13.765a5 5 0 0 1 5.698 8.218l-19.854 13.765a4.978 4.978 0 0 1-2.844.891zm88.752-15.457a4.976 4.976 0 0 1-2.387-.611c-.562-.306-12.931-7.168-21.843-21.184-11.965 2.042-34.891-1.016-39.925-1.735a5 5 0 1 1 1.413-9.9c13.146 1.875 33.886 3.512 38.837 1.281a4.998 4.998 0 0 1 6.44 2.157c7.47 13.644 19.755 20.541 19.878 20.608a5.006 5.006 0 0 1 1.971 6.786 4.997 4.997 0 0 1-4.385 2.597z" class="J"/><path d="M900.157 729.182s-101.963-79.833-185.833-121.084c-52.143-25.646-165.251-101.783-245.673-68.201-77.976 32.56-88.507 116.865-77.976 205.517 11.819 99.488 42.033 359.065 53.258 369.391 14.044 12.92 121.696 37.174 177.443 27.576 73.121-12.589 108.261-57.665 123.014-74.888 11.974-13.979 15.898-53.312 15.898-53.312l139.87-284.999z" class="R"/><path d="M770.385 1149.14c5.155 1.155 11.876 13.009 19.168 40.17s4.113 51.175 1.2 56.753 2.22 19.992-35.125 28.098-65.926 13.536-70.382 13.44-11.919-10.946-20.929-12.301-25.188 15.215-26.931 19.575-18.309 13.47-38.751 18.22c-29.893 6.947-62.615 17.114-119.876 7.144s-70.03-26.325-79.043-47.348-17.166-49.071-2.739-51.652 38.396 15.343 48.669 34.621 14.06 30.363 26.462 33.074 44.777 11.477 75.625 4.932c44.989-9.546 79.961-28.153 96.042-40.266 30.057-22.641 94.638-111.626 126.611-104.462z" class="P"/><path d="M974.968 512.798a5 5 0 0 1-2.807-9.141l19.581-13.251a5 5 0 0 1 5.605 8.281l-19.581 13.251a4.976 4.976 0 0 1-2.798.86z" class="J"/><path d="M499.627 498.202c-18.123 0-37.297-8.474-38.208-8.881a5 5 0 1 1 4.084-9.128c.362.16 22.877 10.056 39.75 7.634a5 5 0 1 1 1.421 9.899c-2.301.33-4.667.477-7.048.477zm478.73-147.426a5 5 0 0 1-4.49-7.195c5.312-10.883 31.984-16.142 40.033-17.494a5 5 0 0 1 1.658 9.861c-14.123 2.38-30.634 7.777-32.704 12.019a5 5 0 0 1-4.498 2.808z" class="S"/><path d="M756.074 1050.815a5 5 0 0 1-4.974-5.561c1.4-12.402-15.721-49.726-38.088-62.048a5 5 0 0 1-1.655-7.287c6.438-9.009 4.303-17.604 3.006-18.777-3.861-3.266-23.051-21.87-23.867-22.66a4.996 4.996 0 0 1-1.379-2.416c-.389-1.61-39.458-161.744-87.893-225.732a5 5 0 0 1 7.973-6.035c47.792 63.139 85.081 210.871 89.295 228.006l22.332 21.205c5.618 4.752 7.094 16.565 1.438 27.67 23.494 16.096 40.59 53.117 38.775 69.195a5.001 5.001 0 0 1-4.962 4.44z" fill="#309eb7"/><ellipse cx="558.324" cy="176.032" rx="19.957" ry="25.043" transform="matrix(.915698 -.401868 .401868 .915698 -23.674 239.208)" class="H"/><ellipse cx="553.51" cy="181.423" rx="11.745" ry="17.837" transform="matrix(.915698 -.401868 .401868 .915698 -26.246 237.727)" class="E"/><path d="M502.349 237.788c-6.2 2.725-13.379 1.246-19.283-3.228l-.493-1.25-.236-.611c3.843-6.208 4.09-15.422-7.704-19.342l-1.331-3.317-.83-2.097-.661-1.664c1.147-6.494 4.782-11.893 10.413-14.363 10.092-4.42 22.785 2.249 28.335 14.916 5.56 12.666 1.882 26.524-8.21 30.954z" class="H"/><path d="M494.641 236.582c-3.705 1.628-8.229.208-12.069-3.273l-.236-.611-7.704-19.342c.403-4.431 2.365-7.987 5.676-9.448 5.935-2.603 13.962 2.593 17.917 11.614 3.965 9.021 2.361 18.447-3.584 21.06z" class="E"/><path d="M426.292 1038.215a5.002 5.002 0 0 1-4.956-4.384l-33.047-265.955a5 5 0 0 1 9.924-1.233l33.047 265.955a5 5 0 0 1-4.968 5.617zM900.16 734.182a4.99 4.99 0 0 1-3.913-1.884c-7.595-9.528-34.362-26.708-44.035-32.523a5 5 0 0 1 5.152-8.571c1.483.892 36.439 21.986 46.702 34.861a5 5 0 0 1-3.906 8.116zM876.204 971.63h-.104c-2.516-.052-62.195-1.432-112.335-16.379-38.75-11.552-76.803-40.63-78.404-41.862a5 5 0 0 1 6.098-7.925c.378.291 38.216 29.19 75.162 40.204 48.815 14.552 109.08 15.952 109.683 15.965a5 5 0 0 1-.101 9.999z" fill="#309eb7"/><path d="M868.567 1043.704a5 5 0 0 1-3.867-8.166c8.292-10.134 26.224-14.728 39.157-10.028a5 5 0 1 1-3.414 9.399c-8.839-3.21-22.448.172-28.004 6.962a4.99 4.99 0 0 1-3.873 1.834zm-325.315 127.362a4.979 4.979 0 0 1-3.332-1.274c-5.966-5.338-35.21-12.811-57.29-11.26a5 5 0 1 1-.7-9.976c22.195-1.554 55.431 5.528 64.658 13.784a5 5 0 0 1-3.336 8.726z" class="Q"/><g class="C"><path d="M877.139 691.552c-8.379 8.862-42.685 18.644-59.511 16.164-18.895-2.786-53.652-19.322-70.547-33.911-5.923-5.115 16.895-101.945 16.895-101.945l67.152 32.489 27.866-18.753z"/><path d="M798.65 588.636s-54.196-31.812-66.915-31.81c-14.265.002-49.382 22.267-55.161 26.537-9.147 6.757 0 25.012 11.613 21.046s37.327-16.258 37.327-16.258l58.479 24.585z"/><path d="M791.044 603.12l-63.456-26.567-53.917 21.809c-12.442 4.164-6.636 26.567 7.465 21.412s47.281-12.292 47.281-12.292l48.94 21.016z"/><path d="m784.823 624.135-57.235-21.611s-49.355 15.266-56.406 18.438-4.337 22.602 9.539 19.468c12.837-2.899 45.969-6.78 45.969-6.78l39.054 19.562 19.078-29.078z"/><path d="M769.516 648.519l-43.391-17.642-49.133 22.205c-6.226 2.775-3.322 19.659 7.462 17.562s38.986-10.425 38.986-10.425l36.201 21.405 9.875-33.106z"/></g><path d="M773.207 627.947a4.984 4.984 0 0 1-2.04-.438l-43.869-19.636-52.002 16.81a5 5 0 1 1-3.076-9.515l53.83-17.401a4.998 4.998 0 0 1 3.581.194l45.622 20.421a5 5 0 0 1-2.045 9.564zm8.349-23.797a4.98 4.98 0 0 1-2.03-.433l-46.689-20.783a5.754 5.754 0 0 0-4.421-.12l-46.597 17.777a5 5 0 0 1-3.565-9.343l46.597-17.777a15.69 15.69 0 0 1 12.052.328l46.689 20.783a5 5 0 0 1-2.036 9.569zm-19.475 48.637a4.968 4.968 0 0 1-2.124-.477l-33.872-15.927-6.525 2.954a5 5 0 1 1-4.124-9.11l8.627-3.905a4.997 4.997 0 0 1 4.189.03l35.959 16.909a5 5 0 0 1-2.131 9.526z" class="J"/><path d="M694.351 222.704a5 5 0 0 1-4.956-5.709c.462-3.225 1.714-14.826-1.559-28.684a5 5 0 1 1 9.732-2.298c3.576 15.142 2.398 27.702 1.726 32.399a5.001 5.001 0 0 1-4.943 4.292z" class="F"/></svg></g><g transform="matrix(1.25012 0 0 1.251599 203.75 2735)"><svg width="300.971" height="154.802"><path d="M181.391 148.957c-27.349-6.488-35.192-26.228-5.467-21.485 30.162 4.813 31.825 1.004 41.574-2.815 12.977-5.083 48.96 8.357 35.892 23.173-7.455 8.452-35.934 9.683-71.999 1.127zm-29.068-35.109c6.692 4.94 5.856 9.74-1.978 10.655-7.854.918-19.588-2.436-26.1-7.423-6.415-4.913-5.311-9.551 2.364-10.421 7.655-.868 19.121 2.322 25.714 7.19zm39.207-6.152c5 4.97 1.964 9.164-6.854 9.298s-19.886-3.847-24.649-8.823c-4.692-4.902-1.483-8.926 7.101-9.054s19.477 3.683 24.402 8.579zm50.077 5.559c2.396 4.92-3.623 8.156-13.448 7.164-9.794-.989-19.456-5.787-21.579-10.654-2.092-4.796 3.934-7.876 13.459-6.939 9.554.939 19.208 5.581 21.568 10.429zm-7.712-33.068c-25.143-5.267-33.659-21.391-6.409-17.522 27.613 3.92 28.871.805 37.45-2.325 11.434-4.172 44.807 6.81 33.861 18.894-6.224 6.871-31.818 7.884-64.902.954zm-28.753-28.678c6.421 4.051 6.006 7.986-1.023 8.739-7.045.755-17.92-1.985-24.196-6.072-6.192-4.032-5.545-7.845 1.356-8.565 6.885-.718 17.528 1.901 23.864 5.898zm35.143-5.077c4.87 4.084 2.396 7.529-5.588 7.643s-18.298-3.149-22.972-7.237c-4.611-4.033-1.985-7.351 5.806-7.461s17.95 3.027 22.754 7.055zm45.788 4.546c2.47 4.037-2.787 6.694-11.748 5.885-8.936-.806-18.002-4.738-20.245-8.736-2.213-3.945 3.059-6.485 11.77-5.718 8.735.769 17.786 4.585 20.223 8.569zM45.519 35.301c-21.823-4.528-25.285-18.451-1.078-15.115 24.507 3.377 26.546.685 35.382-2.024 11.786-3.614 39.609 5.869 26.027 16.294-7.706 5.915-31.658 6.796-60.331.846zM26.795 10.537c4.843 3.508 3.37 6.913-3.358 7.567-6.743.656-16.08-1.711-20.789-5.247-4.649-3.491-3.008-6.8 3.601-7.427s15.764 1.644 20.546 5.107zm34.051-4.416c3.379 3.54.118 6.527-7.325 6.629s-16.112-2.722-19.322-6.266c-3.168-3.499.192-6.383 7.467-6.481s15.844 2.623 19.18 6.119zm41.244 3.926c1.143 3.497-4.489 5.799-12.575 5.102-8.064-.695-15.372-4.097-16.329-7.563-.946-3.423 4.669-5.63 12.549-4.967 7.901.665 15.226 3.974 16.355 7.428z" fill="#374047"/></svg></g><defs ><path id="B" d="m614.502 91.602-63.133-65.471-28.356 79.881a22.29 22.29 0 0 0-1.136 3.201l-.01.027.002.002c-1.172 4.321-1.121 9.155.43 13.898 3.888 11.89 15.702 18.697 26.388 15.203a18.468 18.468 0 0 0 5.299-2.75l.002.002 60.515-43.993z"/><path id="C" d="M628.245 41.032c5.712 17.472 5.048 31.328-5.663 42.99-4.443 4.837-13.417 12.791-19.93 14.92-22.217 7.264-46.778-6.887-54.86-31.607-6.846-20.939-.003-44.131 15.854-54.726 2.863-1.913 6.341-2.073 9.739-3.184 22.217-7.264 46.778 6.887 54.86 31.607z"/><path id="D" d="M625.959 63.868c.81-5.854.32-12.087-1.689-18.233-6.435-19.683-25.998-30.945-43.686-25.162-9.041 2.956-15.847 9.796-19.486 18.411 1.798-12.886 9.907-23.879 22.07-27.855 17.689-5.783 37.251 5.479 43.686 25.162 3.141 9.608 2.566 19.457-.894 27.678z"/><path id="E" d="M624.27 45.635c2.01 6.147 2.499 12.379 1.689 18.233 0 0 .003.009-.004.02-3.639 8.614-10.445 15.455-19.486 18.411-17.689 5.783-37.241-5.483-43.676-25.165-2.01-6.147-2.499-12.379-1.699-18.231.007-.012.004-.02.004-.02 3.639-8.614 10.445-15.455 19.486-18.411 17.689-5.783 37.251 5.479 43.686 25.162z"/><path id="F" d="M616.01 59.368a5.001 5.001 0 0 1-4.903-4.05c-1.617-8.346-9.77-19.85-16.628-20.879a5 5 0 0 1 1.484-9.89c12.846 1.927 22.914 18.292 24.962 28.867a5.001 5.001 0 0 1-4.914 5.952z"/></defs></svg>