<svg xmlns="http://www.w3.org/2000/svg" height="1372.089" width="1439.434" xmlns:v="https://vecta.io/nano"><style><![CDATA[.B{fill:#e09273}.C{fill:#a85f36}.D{fill:#111}.E{fill:#007a63}.F{fill:#005141}.G{fill:#ffd215}.H{fill:#ce9800}]]></style><clipPath id="A"><path d="m1057.26 1326.911c3.031-63.432-5.213-163.871-134.022-153.239-70.063 5.783-96.555 116.209-36.86 180.191 56.646-7.21 113.72-16.257 170.882-26.951z"/></clipPath><g class="B"><path d="M951.523 220.01c43.581-4.04 82.244 28.063 86.284 71.645l11.814 127.45c4.04 43.581-28.063 82.244-71.645 86.284s-82.244-28.063-86.284-71.645l-11.814-127.45c-4.04-43.581 28.063-82.243 71.644-86.283z"/><path d="m798.284 126.368c-4.695 28.7-35.519 219.058-18.504 243.506 22.913 32.923 138.776 39.367 206.415-6.529 62.758-42.584 54.28-160.079 42.176-196.831-46.909-142.43-219.122-107.169-230.087-40.146z"/></g><path d="M1021.286 237.544c-19.162-12.62-40.591-67.759-38.264-94.321-20.042 6.726-59.332-10.824-63.307-30.846-8.414 16.774-56.722 17.229-60.586-3.157 0 0-42.797 51.506-90.033 22.662-34.539-21.09-27.454-71.354-9.828-86.775 25.819-22.59 58.531-12.938 69.966-6.436 4.944-31.852 49.408-45.076 67.517-14.317C924.967-20.302 1009.08.523 1011.855 53.816c22.265-15.913 44.238 7.373 29.646 27.27 43.393-11.539 82.28 56.068 52.304 89.237 19.661 4.939 32.176 61.003 2.881 73.153 15.043 35.294-9.002 83.846-55.963 79.636l-2.916-31.457-16.521-54.112z" fill="#773a11"/><ellipse cx="924.339" cy="226.318" fill="#fff" rx="30.826" ry="36.275" transform="matrix(.999811 -.019459 .019459 .999811 -4.23 18.036)"/><ellipse cx="914.119" cy="224.164" rx="18.636" ry="26.584" transform="matrix(.999811 -.019459 .019459 .999811 -4.19 17.836)" class="D"/><ellipse cx="814.833" cy="234.452" fill="#fff" rx="27.055" ry="34.06" transform="matrix(.999811 -.019459 .019459 .999811 -4.409 15.906)"/><ellipse cx="807.892" cy="233.252" rx="17.475" ry="25.347" transform="matrix(.999811 -.019459 .019459 .999811 -4.387 15.77)" class="D"/><path d="M898.948 179.443c-13.951 4.168-20.682-18.498-6.767-23.889 19.418-7.524 47.818 2.394 62.191 10.642 15.144 8.691 4.336 24.435-4.249 19.537s-33.124-11.683-51.175-6.29zm-65.469-21.298c14.727 5.9 12.692 26.804-4.453 25.888-14.098-.753-34.289 3.076-42.799 10.64-5.873 5.22-12.127-7.788-6.904-16.064 7.525-11.924 40.925-25.765 54.155-20.464z" fill="#4f2000"/><path d="M845.517 293.929c-2.932 0-5.716-1.73-6.92-4.603-9.301-22.193.107-30.279 4.584-32.725 8.822-4.819 21.918-.7 28.6 8.995a7.5 7.5 0 0 1-1.92 10.431c-3.409 2.352-8.081 1.491-10.432-1.919-2.688-3.899-7.552-5.167-9.055-4.343-.774.423-1.77 4.632 2.057 13.764a7.5 7.5 0 0 1-4.019 9.816 7.47 7.47 0 0 1-2.896.585z" class="C"/><path d="m926.887 316.056c6.162 28.231-27.469 40.372-55.654 20.443 21.59-3.875 53.538-30.137 55.654-20.443z" fill="#fff"/><path d="m1018.09 235.776c13.269-45.57 56.197-23.069 54.923 17.093-1.193 37.621-31.754 51.783-47.42 44.649s-12.413-44.88-7.503-61.742z" class="B"/><g class="C"><path d="M1035.821 283.226c-3.324 0-6.362-2.227-7.248-5.593-3.516-13.36-1.427-29.428 5.197-39.984 4.201-6.696 10.024-10.938 16.84-12.268a7.5 7.5 0 0 1 8.798 5.925c.793 4.065-1.859 8.004-5.925 8.798-2.681.523-5.038 2.379-7.008 5.519-4.415 7.036-5.844 18.894-3.396 28.194a7.5 7.5 0 0 1-5.345 9.162c-.64.168-1.281.249-1.913.249z"/><path d="M1050.082 263.99a7.47 7.47 0 0 1-3.122-.685l-13.72-6.293a7.5 7.5 0 1 1 6.254-13.634l13.72 6.293a7.5 7.5 0 0 1 3.69 9.944c-1.263 2.752-3.98 4.375-6.822 4.375z"/></g><path d="M859.121 116.72c-1.495 0-3.005-.446-4.32-1.375-3.383-2.39-4.188-7.069-1.799-10.453 5.737-8.124 3.71-15.966 3.621-16.296l7.212-2.058 7.186-2.15c.18.602 4.296 14.909-5.767 29.157a7.49 7.49 0 0 1-6.133 3.174z" fill="#4f2000"/><path d="M884.903 401.088c-.303 0-.601 0-.901-.003a7.5 7.5 0 0 1-7.451-7.548c.026-4.125 3.38-7.452 7.499-7.452h.05l.778.002c31.271 0 78.739-11.965 96.206-28.231 3.032-2.822 7.779-2.653 10.6.377a7.5 7.5 0 0 1-.377 10.6c-20.834 19.402-71.57 32.254-106.403 32.254z" class="C"/><path d="m890.733 423.395-49.882 15.195s-17.934 122.64 90.308 131.559 181.73-150.633 181.73-150.633l-63.8-6.141z" class="B"/><path d="M1279.283 1244.869c-12.029-43.004-35.576-97.362-46.45-121.11 0 0-464.477 35.661-473.112 52.971s-8.108 143.755-8.108 181.423c11.641 2.756 25.595 4.712 41.356 5.936 87.038-7.951 175.558-20.577 264.292-37.178 86.136-16.115 160.226-44.812 222.023-82.042z" fill="#0a3ea5"/><g clip-path="url(#A)"><path d="M954.26 1366.382c-3.165 0-6.107-2.02-7.134-5.194-8.325-25.745-19.926-122.92-21.714-139.729-.438-4.118 2.546-7.813 6.665-8.251 4.124-.427 7.813 2.547 8.251 6.665 3.338 31.375 14.141 115.271 21.069 136.7a7.5 7.5 0 0 1-7.138 9.809z" fill="#002e77"/></g><path d="m764.987 1132.076c-11.048-1.23-13.381 43.769-5.267 44.654 117.008 22.862 289.22-2.864 473.112-52.971 5.884-2.612-7.825-47.212-17.006-47.212-176.058 39.333-342.896 71.217-450.839 55.529z" fill="#656c72"/><path d="M913.653 1195.24c-13.451 0-16.902-1.895-19.019-3.728-8.106-7.022-20.429-43.229-10.567-61.658 1.489-2.782 5.444-10.174 40.311-13.188 15.448-1.336 34.506-1.445 42.263 1.316 4.789 1.707 8.462 6.673 11.91 16.103 4.256 11.641 9.943 37.269 4.493 46.628-1.95 3.348-5.869 7.225-27.833 10.878-10.775 1.792-23.759 3.104-34.729 3.512a184.1 184.1 0 0 1-6.828.137zm-9.125-14.998h.01zm-.5-.604c3.688.79 15.842 1.042 33.508-.811 17.609-1.849 29.001-4.622 32.613-6.31.441-2.986.096-10.584-2.116-20.688-2.583-11.802-5.699-18.173-7.102-19.916-3.948-.988-16.198-1.761-32.862-.498-18.524 1.401-28.617 4.353-31.036 6.032-5.039 10.729 2.918 36.593 6.995 42.189zm66.981-7.6z" class="D"/><path d="M1069.82 418.106c26.848.754 96.216 14.418 125.661 25.586s7.107 175.65 17.26 250.783 42.643 321.855 15.23 368.56-141.923 34.521-178.077 52.796-82.859 24.368-116.364 18.276c0 0-128.565 17.514-168.542-2.031s-33.023-363.094-34.038-430.105 4.061-232.507 30.459-242.66 115.261-37.07 128.834-41.205c0 0 5.537 13.435 12.644 24.604 3.164 4.971 15.86 26.376 15.912 44.863.064 23.045 10.525 38.673 10.525 38.673s30.895-28.41 34.877-38.127-10.166-39.365-10.166-39.365l115.785-30.647z" class="G"/><path d="M920.53 1142.606c-1.974 0-3.944-.774-5.418-2.313-21.359-22.304-14.714-57.295-7.857-81.675 5.559-19.764 2.688-92.661-.352-169.84l-3.511-102.661c-2.743-117.267 6.8-181.776 16.903-250.073l1.608-10.891c.603-4.098 4.419-6.932 8.512-6.329a7.5 7.5 0 0 1 6.328 8.511l-1.609 10.903c-10.008 67.646-19.46 131.54-16.746 247.526l3.503 102.423c3.222 81.8 6.003 152.445-.197 174.49-9.313 33.119-7.963 54.484 4.252 67.239 2.864 2.992 2.762 7.739-.229 10.604-1.453 1.392-3.321 2.083-5.187 2.083z" class="H"/><g class="E"><path d="M1319.41 1218.279c-19.056-48.968-44.086-124.259-53.342-176.944-12.531-71.327-46.473-602.344-58.797-605.318-22.267-5.373-62.493-16.097-62.493-16.097-9.634-13.587-46.467-19.109-68.214-18.892-116.991 188.103-85.574 447.093-53.594 621.973 15.438 84.42 70.302 218.516 100.475 288.429 76.567-21.635 141.974-53.87 195.964-93.151zM817.302 436.223c-29.057 6.657-93.854 26.608-113.193 35.794-31.644 15.031-8.215 183.17-8.589 273.681-.148 35.831 7.215 227.053 4.735 288.58-2.281 56.575-23.274 289.326-28.019 337.811 46.575-1.87 93.767-5.228 141.372-9.967l18.351-347.37c-4.557-185.098 4.879-462.48 37.009-596.646-4.584 0-32.708 1.814-51.667 18.118z"/><path d="M704.11 472.017c-47.313 23.221-166.404 191.503-191.828 230.251 0 0-33.867-5.361-36.406 31.377s18.465 231.775 71.018 216.169c60.159-17.864 194.51-136.232 239.189-240.201s-24.395-265.855-81.974-237.595z"/></g><path d="m214.167 797.577c51.107 52.269 136.656-143.442 97.242-175.344s-128.164 143.719-97.242 175.344z" class="D"/><path d="M294.749 608.74l156.074 126.41c60.367 40.743-35.665 188.08-79.654 132.853L198.114 698.41c-30.559-33.385 61.439-123.415 96.635-89.67z" class="B"/><path d="m311.409 622.233c81.282 64.271 174.984 109.565 230.713 160.578 43.303 39.638 59.703 148.501 4.773 167.003-113.471 38.221-250.151-69.579-332.728-152.237 32.276 17.979 88.037-67.923 97.242-175.344z" class="E"/><g class="B"><path d="M294.749 608.74c-34.366-30.381-117.543-77.926-144.802-92.637-17.638-9.519-73.243 109.255-50.875 122.661s78.595 40.489 99.043 59.645 96.635-89.67 96.635-89.67z"/><path d="M149.947 516.103c-18.77-10.355-56.933-34.759-56.933-34.759l-32.57-37.643c-18.364-20.574-44.085-.938-30.78 20.656s33.622 42.968 43.006 48.98l58.924 38.241zm134.339 83.998c-4.788-24.06-6.854-60.865-14.3-68.865s-57.853-52.917-66.848-63.29c-19.03-21.947-42.705-2.185-27.377 22.219 15.035 23.937 35.513 48.793 35.513 48.793-10.556 61.324 17.227 84.556 73.012 61.144z"/><path d="M134.53 545.903c-9.706-6.648-54.711-35.287-59.918-41.589s-29.432-39.24-37.027-51.174c-15.385-24.175-48.946-7.084-33.709 19.545 14.157 24.741 37.21 57.74 44.944 63.449s65.335 42.452 65.335 42.452z"/></g><path d="M134.523 553.403c-1.476 0-2.966-.434-4.27-1.339l-59.917-41.589a7.49 7.49 0 0 1-2.084-2.187c-15.734-25.18-36.631-53.839-43.092-57.029a7.5 7.5 0 0 1-6.368-7.817c.221-4.137 3.761-7.323 7.89-7.088 5.047.27 12.25 3.111 33.966 33.592 9.017 12.656 16.961 25.073 19.496 29.079l58.662 40.718a7.5 7.5 0 0 1 1.885 10.438 7.49 7.49 0 0 1-6.168 3.224z" class="C"/><path d="m121.056 572.565c-12.712-6.723-63.889-36.132-63.889-36.132s-12.947-28.19-18.537-42.448c-8.806-22.461-43.83-24.55-34.235 10.892 7.515 27.76 20.761 59.299 26.523 64.461 7.287 6.528 74.247 38.592 74.247 38.592l15.89-35.365z" class="B"/><path d="M121.049 580.066a7.46 7.46 0 0 1-3.685-.973l-63.89-36.132c-1.373-.776-2.466-1.965-3.124-3.398-.58-1.261-14.238-31.027-18.736-42.925-1.927-5.095-7.244-9.999-12.368-11.405-3.868-1.06-5.671.377-6.264.85a7.5 7.5 0 0 1-10.54-1.186 7.5 7.5 0 0 1 1.186-10.54c5.392-4.302 12.349-5.577 19.589-3.589 9.779 2.685 18.792 10.95 22.427 20.565 3.633 9.608 14.043 32.563 17.331 39.769l61.772 34.935a7.5 7.5 0 0 1 2.836 10.22c-1.379 2.439-3.92 3.81-6.535 3.81z" class="C"/><path d="M112.603 598.586c-18.033-9.838-28.165-15.929-28.165-15.929l-14.032-35.376c-12.105-30.865-46.887-26.26-37.44 7.986 5.538 20.075 15.404 38.19 18.543 45.779 4.626 11.187 47.563 37.718 47.563 37.718l13.532-40.178z" class="B"/><path d="M112.596 606.088a7.46 7.46 0 0 1-3.685-.973l-28.165-15.929a7.5 7.5 0 0 1-3.18-3.523c-.262-.599-6.502-14.909-14.198-35.787-4.765-12.928-13.288-17.965-18.889-16.145-5.376 1.749-7.103 9.583-4.297 19.494 2.724 9.623 6.282 18.732 6.318 18.823 1.511 3.856-.389 8.208-4.245 9.72a7.5 7.5 0 0 1-9.719-4.243c-.156-.397-3.855-9.86-6.786-20.213-5.957-21.038 2.784-34.167 14.089-37.844 12.562-4.09 29.511 3.265 37.604 25.221 5.792 15.713 10.84 27.853 12.892 32.688l25.961 14.682a7.5 7.5 0 0 1 2.836 10.22c-1.379 2.439-3.92 3.81-6.535 3.81zm115.049 5.967c-1.572 0-3.156-.492-4.508-1.511-23.231-17.511-21.885-42.561-21.08-57.528l.147-2.89c.186-4.138 3.676-7.35 7.829-7.157 4.138.186 7.342 3.69 7.157 7.829l-.154 3.023c-.727 13.522-1.722 32.042 15.13 44.745a7.5 7.5 0 0 1 1.475 10.503c-1.474 1.956-3.721 2.986-5.995 2.986z" class="C"/><path d="M542.128 790.311c-2.273 0-4.521-1.029-5.994-2.984-12.478-16.548-34.103-29.333-51.479-39.605l-12.813-7.753a7.5 7.5 0 1 1 8.066-12.646c3.6 2.296 7.864 4.817 12.38 7.487 18.515 10.946 41.557 24.569 55.821 43.487a7.5 7.5 0 0 1-1.473 10.503c-1.353 1.02-2.938 1.512-4.51 1.512zm16.018-76.814c-.596 0-1.199-.071-1.804-.221-.227-.056-23.309-5.646-43.276-3.549-4.117.432-7.809-2.557-8.242-6.675a7.5 7.5 0 0 1 6.676-8.243c22.618-2.377 47.396 3.647 48.438 3.905a7.5 7.5 0 0 1 5.483 9.079c-.844 3.417-3.906 5.704-7.275 5.705z" class="F"/><path d="m954.035 448.753s90.108-70.104 96.052-70.287 37.69 34.263 39.849 36.75-54.999 96.834-60.459 99.564-75.442-66.026-75.442-66.026z" class="G"/><path d="M1022.969 1030.501a7.5 7.5 0 0 1-7.495-7.341c-3.799-178.412 37.199-344.431 125.304-507.304l-24.774-19.347c-1.947-1.521-3.021-3.904-2.87-6.371a7.5 7.5 0 0 1 3.628-5.972l38.858-23.315c-3.338-8.051-9.87-23.171-17.458-37.404a7.5 7.5 0 1 1 13.236-7.056c11.407 21.396 20.203 43.924 20.572 44.873a7.5 7.5 0 0 1-3.132 9.149l-34.994 20.997 21.177 16.538c2.896 2.262 3.728 6.291 1.962 9.515-88.915 162.305-130.298 327.617-126.513 505.38a7.5 7.5 0 0 1-7.338 7.657l-.163.002z" class="F"/><path d="M888.785 402.375l14.102 40.335-43.411 63.334s-9.083-66.876-4.113-77.269 33.422-26.4 33.422-26.4z" class="G"/><path d="M831.956 1022.253c-3.288 0-6.305-2.179-7.225-5.502-46.159-166.831-70.423-342.455-68.32-494.522.026-1.922.79-3.761 2.133-5.136l31.637-32.403-12.41-8.944a7.5 7.5 0 0 1-3.08-5.36c-.208-2.147.518-4.279 1.992-5.853.653-.697 16.22-17.264 35.736-34.004a7.5 7.5 0 0 1 9.765 11.386c-11.838 10.154-22.361 20.44-28.6 26.738l12.432 8.959a7.5 7.5 0 0 1 .982 11.324l-35.627 36.489c-1.727 149.998 22.328 322.917 67.817 487.325 1.104 3.992-1.236 8.124-5.229 9.229a7.51 7.51 0 0 1-2.004.273zm-137.59-211.545c-.074 0-.148 0-.223-.003a7.5 7.5 0 0 1-7.278-7.716l1.092-45.866c1.406-64.521 3.331-152.886 8.741-187.763.635-4.093 4.465-6.894 8.561-6.262a7.5 7.5 0 0 1 6.262 8.561c-5.258 33.897-7.17 121.688-8.566 185.791l-1.095 45.977c-.119 4.065-3.452 7.281-7.493 7.281z" class="F"/><path d="m936.172 1069.931-276.994 8.969c-10.859.352-21.783-7.309-24.401-17.112l-96.46-361.212c-2.648-9.915 4.06-18.245 14.983-18.604l278.633-9.154c10.93-.359 21.9 7.394 24.501 17.314l94.756 361.404c2.572 9.809-4.153 18.044-15.019 18.395z" fill="#5917c1"/><path d="m760.382 694.074-125.647 4.125-9.957-37.49 125.718-4.132z" class="D"/><path d="M1029.475 522.281c-.956 0-1.928-.184-2.866-.573-21.275-8.81-50.43-39.119-73.855-63.473l-4.117-4.277c-2.875-2.982-2.788-7.73.193-10.605s7.73-2.787 10.605.194l4.129 4.29c21.272 22.115 50.406 52.403 68.783 60.013 3.827 1.584 5.645 5.972 4.061 9.799-1.196 2.888-3.989 4.632-6.933 4.632z" class="H"/><path d="M1207.272 436.017c44.188 12.736 123.806 45.511 154.55 151.66s92.808 326.712 74.195 410.041c-17.968 80.439-190.223 79.925-208.232-28.28s-22.413-226.055-51.533-294.724-10.51-250.667 31.021-238.697z" class="E"/><path d="m1035.473 1080.932c62.797 5.796 60.872-198.178 24.818-197.247s-69.501 193.123-24.818 197.247z" class="D"/><path d="M1018.514 883.401l221.982 15.183c30.655 3.834 38.72 179.137.818 172.001s-184.604-46.377-263.026-81.602c-46.696-20.975 5.471-107.959 40.226-105.582z" class="B"/><path d="m1436.016 997.718c-34.119 177.059-295.858 89.599-400.543 83.214 35.196-3.275 50.343-118.463 24.818-197.247 115.78 3.869 213.084-29.156 256.711 15.792 36.713 37.824 126.604 58.853 119.014 98.241z" class="E"/><g class="B"><path d="M1018.514 883.401c-21.449-24.313-80.347-90.025-103.025-97.054s-60.884 126.043-39.793 141.449 74.007 70.374 102.592 61.187 40.226-105.582 40.226-105.582z"/><path d="M915.489 786.347c-31.636-6.715-89.693-19.469-108.932-17.415s-70.376 27.956-88.899 39.393-8.679 46.987 23.38 32.557l67.261-30.361 77.969 16.351 29.221-40.526z"/><path d="M890.645 815.916c-25.645 1.442-85.01 6.037-95.545 12.969s-51 51.045-61.946 63.725 10.577 47.507 33.14 25.151c23.547-23.332 41.444-46.332 41.444-46.332l75.86-16.219 7.048-39.294z"/><path d="M890.139 848.106c-25.645 1.442-73.871 6.362-84.406 13.294s-45.511 40.672-57.363 52.51 7.042 48.158 31.193 27.529c25.205-21.53 38.807-37.494 38.807-37.494l63.371-10.842z"/><path d="m886.377 880.372c-25.645 1.442-62.847 2.318-73.382 9.251s-30.461 30.931-41.957 43.115c-15.427 16.351 16.819 47.918 36.609 23.075 14.03-17.612 22.798-23.792 22.798-23.792l47.533-6.654 8.398-44.997z"/></g><path d="M847.683 826.283c-3.914 0-7.211-3.037-7.476-7.001a7.5 7.5 0 0 1 6.984-7.982l42.955-2.866c4.135-.291 7.706 2.851 7.982 6.984a7.5 7.5 0 0 1-6.984 7.982l-42.955 2.866c-.17.012-.339.017-.507.017zM744.742 931.294h-.135a7.5 7.5 0 0 1-7.367-7.631c.102-5.766 3.852-14.507 30.371-39.217 14.631-13.632 29.919-26.189 33.542-28.983 2.116-1.633 6.057-4.674 44.236-9.865 19.416-2.641 38.834-4.612 44.249-4.975a7.51 7.51 0 0 1 7.983 6.983 7.5 7.5 0 0 1-6.983 7.983c-15.356 1.026-72.784 7.944-80.529 11.909-3.257 2.542-17.322 14.087-31.037 26.775-23.789 22.009-26.542 28.871-26.844 29.931-.215 3.966-3.499 7.09-7.486 7.09zm7.496-7.368v.005zm58.077-56.587zm-42.842 87.644c-3.39 0-6.463-2.314-7.288-5.755-2.192-9.141 4.236-21.497 20.229-38.888 10.64-11.57 22.838-22.392 27.801-26.496 11.171-9.239 66.92-12.045 78.855-10.939a7.5 7.5 0 0 1 6.774 8.161 7.51 7.51 0 0 1-8.161 6.774c-14.963-1.392-61.521 3.262-67.962 7.606-3.796 3.146-15.712 13.598-26.094 24.858-17.841 19.354-16.868 25.371-16.856 25.43a7.5 7.5 0 0 1-5.545 9.04c-.587.141-1.175.208-1.754.208z" class="C"/><g class="F"><path d="M1317.009 906.978c-2.438 0-4.827-1.187-6.269-3.373-17.626-26.74-83.845-21.229-147.886-15.897-36.107 3.007-73.443 6.117-103.232 3.448a7.5 7.5 0 0 1-6.801-8.139 7.51 7.51 0 0 1 8.139-6.801c28.496 2.547 65.178-.504 100.65-3.457 71.548-5.954 139.129-11.581 161.653 22.59a7.5 7.5 0 0 1-2.134 10.39c-1.271.838-2.704 1.239-4.121 1.239z"/><path d="M1214.083 877.528c-3.899 0-7.191-3.017-7.474-6.967-2.093-29.374-16.116-147.444-37.16-192.684a7.501 7.501 0 1 1 13.602-6.326c23.518 50.559 37.016 176.816 38.521 197.944.294 4.132-2.816 7.72-6.948 8.015a7.58 7.58 0 0 1-.541.019zm40.124 236.991c-53.731 0-124.748-11.403-175.206-19.505l-44.347-6.627a7.5 7.5 0 0 1-6.637-8.273c.451-4.118 4.161-7.085 8.273-6.637 10.089 1.107 25.534 3.587 45.088 6.727 58.563 9.403 156.583 25.145 207.509 17.044 4.091-.651 7.935 2.14 8.585 6.229s-2.139 7.935-6.229 8.585c-10.809 1.719-23.365 2.457-37.036 2.457z"/></g><path d="M860.277 513.985c-2.822 0-5.434-1.391-7.023-3.755-4.865-7.231-5.391-27.126-5.391-35.345a7.5 7.5 0 0 1 7.499-7.5 7.5 7.5 0 0 1 7.5 7.498c.002 5.943.346 12.11.883 17.097 7.063-10.176 17.272-27.443 23.004-37.137l9.951-16.374a7.5 7.5 0 1 1 12.373 8.481c-1.682 2.453-5.264 8.512-9.412 15.528-26.528 44.868-32.183 51.301-39.135 51.504l-.25.003z" class="H"/></svg>