<svg xmlns="http://www.w3.org/2000/svg" width="3000" height="3000" xmlns:v="https://vecta.io/nano"><style><![CDATA[.B{fill:#f2b9a9}.C{fill:#111}.D{fill:#de8f74}.E{fill:#656c72}.F{fill:#374047}.G{fill:#e1e3e3}.H{fill:#41b30a}.I{fill:#2471eb}.J{fill:#004ebd}]]></style><g transform="matrix(1.198331 0 0 1.19773 1518 625.2)"><svg width="580.808" height="478.906"><path d="M543.556 274.892c-5.653 12.068-11.427 17.145-16.267 19.565-6.07 3.05-12.803.065-15.243-4.955-2.32-4.75-3.38-11.91-3.82-19.25-.61-10.2-7.48-16.7-15.19-17.47-5.81-.59-12.1 2.09-16.56 8.89a29.07 29.07 0 0 0-.81 1.32l-.01.01c-1.61 2.79-2.93 6.19-3.83 10.24-6.58 29.49-49.55 101.33-126.19 146.52-76.65 45.19-126.41 15.35-141.96-3.29-17.28-20.72 1.11-37.61 15.67-27.91s24.53 16.43 36.55 2.21c12.02-14.23-21.14-72.64-92.19-39.96-85.07 39.12-170.72 26.181-163.25-48.13 4.67-46.51 42.74-87.4 84.16-113.67 35.25-22.37 71.11-29.43 101.91-30.97 15.71-.78 40.39-8.44 16.24-21.9-17.1-9.53 2.84-24.84 24.32-26.39 29.78-2.13 72.49 2.85 94.2 35.91 9.29 14.14 17.99 24.39 26.25 31.51 7.18 4.09 15.45 6.28 23.71 5.97 16.46-.63 32.16-11.16 38.98-26.15.09-.21.19-.41.27-.62 4.17-9.52 4.85-19.71 3.92-30.17-2.63-29.77-11.35-73.82 3.43-99.56 6.9-12.01 14.956-20.091 28.046-24.601 38.964-13.426 209.023 35.141 97.664 272.851zm-55.702 57.801s-6.852 50.35-29.912 67.759c-23.512 17.75-64.096 46.393-36.016 70.811s90.345-13.43 95.229-60.433-29.301-78.136-29.301-78.136zM388.607 40.961s-11.199 25.721-7.208 39.091c4.069 13.632 11.638 36.203-5.725 41.881s-30.649-26.015-19.62-49.699 32.554-31.274 32.554-31.274z" class="G"/></svg></g><g transform="matrix(1.198096 0 0 1.199336 598.8 291.6)"><svg width="1031.637" height="2201.218"><clipPath id="A"><path d="M498.245 111.373c-.445 16.152-1.867 37.734-3.609 58.438-2.532 30.085-37.7-3.587-37.241-25.805.708-34.285 41.171-44.231 40.851-32.633z"/></clipPath><clipPath id="B"><ellipse cx="495.804" cy="142.65" rx="19.979" ry="18.838" transform="matrix(.121176 -.992631 .992631 .121176 294.13 617.516)"/></clipPath><clipPath id="C"><ellipse cx="418.984" cy="129.251" rx="23.775" ry="22.418" transform="matrix(.121176 -.992631 .992631 .121176 239.918 529.487)"/></clipPath><path d="M408.809 462.177s17.709 278.69 84.592 308.667c63.138 28.298 148.445-4.967 148.445-4.967l-71.392-310.046s-22.51-109.104-82.782-103.752-85.475 57.202-78.862 110.098z" class="B"/><path d="M507.317 304.546s67.274 19.332 79.526 76.968c14.12 66.422 38.997 162.661 38.997 162.661l-131.709 22.008z" class="H"/><path d="M592.143 549.775s33.394-12.126 33.697-5.6c.522 11.259-29.772 22.894-29.772 22.894l-3.925-17.295z" fill="#1d1d1b"/><path d="M188.308 693.038s-12.757-18.877-16.155-15.437 6.171 29.27 6.171 29.27l9.985-13.834z" class="C"/><path d="M432.33 718.529c17.433 34.473 27.348 90.79 30.143 121.082-52.5 95.594-108.744 153.658-171.689 153.417-62.983-.241-146.68-84.311-226.114-152.231 9.596-42.738 22.794-86.882 39.501-132.395 23.08-63.866 300.521-40.116 328.158 10.127z" class="I"/><path d="M712.915 1920.231c-6.044-62.004-35.93-289.801-35.93-289.801-6.528-69.563-227.15-49.664-220.622 19.898l44.062 305.563c9.822 86.16 221.921 61.092 212.49-35.66z" class="B"/><g class="I"><path d="M462.473 839.612c26.655 124.055 146.808 402.967 165.349 481.941 20.466 87.174-200.415 135.782-229.557 54.947L265.964 994.554"/><path d="M627.823 1321.553c22.587 80.219 79.305 426.54 72.858 513.198s-216.708 32.786-233.238 4.999c-18.18-30.56-41.595-66.726-26.319-189.583 0 0-24.24-85.223-27.394-124.241s7.645-81.727-15.464-149.425c-25.335-74.217 217.24-98.694 229.557-54.948z"/><path d="M710.29 1786.935c12.351 7.614 18.792 73.23 5.071 84.952-17.745 15.16-144.614 34.345-196.903 36.095-36.351 1.217-64.771-8.623-68.978-14.143-5.648-7.411-12.311-72.717-4.835-77.547s43.889 9.918 63.229 9.102c136.892-5.783 194.204-43.521 202.417-38.458z"/></g><path d="M779.562 2105.969c-51.594-3.636-112.088-17.921-151.613-24.244s-128.504 8.015-138.957-16.703c-9.833-23.25 5.246-70.522 6.781-84.73 2.623-24.287-15.145-36.939-7.118-50.985 7.397-12.945 24.656 6.235 35.958 16.333 10.462 9.347 36.338 9.883 75.61 10.411s79.559-26.277 79.559-26.277c-11.063-24.472 21.193-36.267 29.745-34.581s9.207 20.798 28.268 40.432c11.212 11.549 42.715 26.38 79.021 37.776 26.638 8.362 57.251 12.397 77.323 24.431 38.261 22.939 30.166 77.963 28.923 99.402" class="E"/><path d="M930.889 2082.134c-31.382 10.831-85.05 14.977-135.179 12.554-54.348-2.627-131.375-24.094-161.676-25.285s-114.385 5.939-154.243-18.024c-6.557-3.942-10.248 38.437-5.524 41.191 31.616 18.43 96.622 13.034 151.49 16.243 31.809 1.861 139.874 21.345 167.207 22.361s123.043 2.033 139.434-11.602" class="G"/><path d="M813.817 1991.606c-20.74 0-48.093-9.604-68.486-19.659-11.827-5.832-20.479-15.109-28.11-23.295-13.338-14.305-20.965-21.436-35.226-14.394a4.999 4.999 0 1 1-4.429-8.965c21.601-10.669 34.496 3.162 46.969 16.539 7.392 7.927 15.034 16.124 25.219 21.146 25.578 12.611 60.412 23.208 76.452 16.673a5.004 5.004 0 0 1 6.518 2.744 5.003 5.003 0 0 1-2.744 6.518c-4.595 1.871-10.097 2.692-16.161 2.693z" class="F"/><g class="J"><path d="M520.329 1829.769a5.004 5.004 0 0 1-4.757-3.463l-32.216-102.657c-8.525-28.16-6.407-50.366-4.165-73.877 1.67-17.509 3.397-35.613 1.535-58.917-3.747-46.904-14.416-108.495-35.675-205.946-21.194-97.148-138.91-373.722-154.153-400.267a5 5 0 1 1 8.672-4.98c15.352 26.734 133.907 305.276 155.251 403.115 21.36 97.913 32.089 159.904 35.874 207.28 1.931 24.178.082 43.562-1.549 60.664-2.239 23.479-4.174 43.755 3.78 70.03l32.161 102.478a5 5 0 0 1-4.759 6.539zm-1.872 83.213a4.977 4.977 0 0 1-3.415-1.349c-11.337-10.607-15.682-51.067-15.396-69.365.229-14.648 2.754-18.72 4.928-20.631a5 5 0 0 1 6.791 7.336c-1.672 2.742-2.722 16.905-.374 36.859 2.586 21.979 7.329 35.173 10.884 38.498a4.999 4.999 0 0 1-3.417 8.651zm-7.28-83.835l-.002.002z"/><path d="M441.13 1655.168a5 5 0 0 1-4.943-5.794c5.081-31.608 10.865-102.861 10.924-103.577.223-2.752 2.65-4.813 5.386-4.581a4.999 4.999 0 0 1 4.581 5.386c-.058.72-5.875 72.366-11.018 104.36a5.002 5.002 0 0 1-4.931 4.207zm70.455 175.32c-1.487 0-2.824-.034-4.005-.104-27.67-1.63-56.312-9.834-57.518-10.183a5 5 0 0 1 2.776-9.607c.285.082 28.801 8.244 55.329 9.808 30.55 1.781 164.438-20.937 189.342-36.493a5.001 5.001 0 0 1 5.299 8.481c-17.763 11.097-73.652 22.072-96.857 26.276-39.565 7.168-77.01 11.822-94.366 11.822z"/></g><path d="M239.254 1975.509c.943-62.291 7.39-249.081 7.39-249.081 1.309-69.856-220.154-74.808-221.462-4.952l-1.076 265.655c.104 86.717 213.677 85.577 215.148-11.622z" class="B"/><g class="I"><path d="M64.67 840.798c-8.459 71.426-33.653 438.711-35.607 539.83s234.25 160.49 243.701 32.276-1.239-311.454 29.008-469.33"/><path d="M29.063 1380.628c2.917 153.279-32.981 265.79-19.552 331.72-11.503 65.881-5.335 134.934 17.93 167.531 0 0 186.189 39.58 208.604 7.495 22.091-31.622 49.186-48.317 15.797-196.663-.608-102.421 17.272-178.191 20.922-277.808 1.851-50.523-244.775-88.737-243.701-32.276z"/><path d="M259.572 1870.287c7.967 8.954 6.599 71.669-4.418 76.8s-124.318 11.689-176.604-.796c-39.709-9.482-62.051-16.182-67.528-21.321s-17.424-62.105-4.341-71.574 31.583 11.029 85.625 21.762c66.551 13.217 160.43-12.554 167.267-4.871z"/></g><path d="M251.844 1695.712a5.001 5.001 0 0 1-4.675-3.225c-11.17-29.393-20.322-100.898-22.22-122.234a5 5 0 0 1 4.538-5.423c2.74-.259 5.179 1.787 5.423 4.538 1.865 20.982 10.807 91.147 21.606 119.566a5 5 0 0 1-4.672 6.777zm-122.702 186.746c-15.425 0-27.992-.788-37.644-2.365-41.729-6.82-74.887-23.711-76.277-24.427a5 5 0 0 1 4.573-8.893c.327.169 33.209 16.896 73.317 23.451 18.454 3.016 59.706 4.425 151.422-5.996l.488-.056c2.753-.324 5.221 1.662 5.532 4.403a4.998 4.998 0 0 1-4.403 5.532l-.488.056c-48.62 5.524-87.594 8.295-116.521 8.295zm157.483-821.488a5 5 0 0 1-4.989-5.404c1.83-22.614 10.899-88.54 15.214-112.866a5 5 0 0 1 9.846 1.746c-4.282 24.146-13.279 89.528-15.093 111.927a5 5 0 0 1-4.978 4.597z" class="J"/><path d="M243.902 1979.7c6.646 22.533 40.441 59.081 64.993 69.941 26.162 11.572 67.142 31.094 54.729 91.123-11.498 55.602-144.846 23.015-181.749 11.825s-54.65-15.992-86.53-48.673-69.389-28.76-84.578-64.213c-5.151-14.577 11.486-46.27 10.739-59.086s-12.754-18.533-7.432-23.478 17.722 1.416 20.596 16.39 45.716 37.346 81.929 38.256c34.934.878 27.097-20.552 57.633-22.668-2.101-29.674 66.727-41.465 69.67-9.416z" class="E"/><path d="M273.485 2201.107c59.077 1.893 92.951-21.045 97.067-27.071 5.956-8.72 4.382-29.857-1.453-33.942-4.679-3.275-29.94 31.003-93.921 24.993-65.1-6.114-117.23-22.087-143.544-37.7-20.01-11.872-37.936-33.8-53.734-44.016-16.832-10.885-47.936-25.477-64.432-40.98-3.265-3.068-5.723-11.88-8.381-8.398-3.264 4.275-6.725 32.816-4.241 36.236 15.71 21.622 46.06 30.743 61.657 42.338 21.204 15.763 31.239 22.839 47.716 39.955 26.076 27.088 106.204 46.755 163.266 48.583" class="G"/><path d="M269.025 2056.454c-9.708 0-20.263-2.563-27.809-7.675-7.924-5.366-18.856-15.107-30.432-25.422-13.439-11.975-31.845-28.374-37.387-29.312a4.998 4.998 0 0 1 1.667-9.86c7.815 1.321 21.222 12.859 42.372 31.705 10.822 9.643 22.013 19.614 29.387 24.608 11.958 8.099 32.727 7.141 37.092 2.02 1.006-1.181-.565-3.325-2.062-4.916a5 5 0 0 1 7.287-6.849c8.73 9.288 4.032 16.318 2.385 18.252-4.236 4.971-12.959 7.448-22.501 7.448z" class="F"/><path d="M309.87 902.801a5 5 0 0 1-4.819-6.349c4.002-14.303 12.723-53.173 15.857-79.717a5.001 5.001 0 0 1 9.932 1.173c-3.196 27.058-12.082 66.667-16.158 81.239a5.003 5.003 0 0 1-4.813 3.654z" class="J"/><path d="M377.564 277.521c25.633 3.058 127.939 20.891 140.638 32.466 15.391 14.029-15.816 381.981-58.228 416.224s-101.528 22.111-127.58 17.099c-29.803 4.595-79.366-9.008-123.99-21.895 0 0-101.451 5.513-106.879-18.312-12.491-54.829 17.821-173.515 31.101-278.756 6.715-53.214-5.365-139.864 22.841-146.99 72.557-18.331 222.094.164 222.097.164z" class="H"/><g class="B"><rect height="203.247" rx="57.029" transform="matrix(-.979575 -.201078 .201078 -.979575 689.79 553.766)" width="114.058" x="315.99" y="140.227"/><path d="M497.452 87.316c4.106 16.172-6.341 132.51-10.43 147.832-5.825 21.828-82.63 19.51-133.114-19.42-28.854-22.251-29.26-101.621-.163-142.377 36.12-50.591 132.094-31.775 143.706 13.965z"/></g><path d="M346.595 138.887c2.698 7.219 11.016 10.648 12.607-.764s-5.126-31.011 8.488-41.843c14.778-11.758 27.648-40.986 42.993-43.531 44.78-7.426 83.555 19.07 86.768 34.567 8.014 5.741 33.367-30.261 16.392-54.712 0 0-6.037 16.846-19.1 16.586 0 0 8.24-27.226-4.116-49.189 0 0-4.161 11.196-11.993 14.455 1.681-8.325-13.633-11.784-27.034 3.188 1.882-7.399-4.883-19.71-18.344-.29 0 0-20.45-7.415-34.204 12.305 0 0-43.24 8.256-56.376 25.483 0 0 5.514-14.79 1.097-16.352s-30.453 74.969-24.053 94.541 26.875 5.557 26.875 5.557zm140.38-32.463c-9.76-2.483-7.548-18.074.805-15.791 5.251 1.435 22.374 8.364 26.661 16.782 2.78 5.458 2.781 11.878-4.373 8.31s-13.733-6.92-23.093-9.301z" class="C"/><path d="M349.293 146.106c-5.978-22.949-31.646-33.873-41.927-10.667s8.98 42.111 23.695 41.041 22.023-15.816 18.232-30.374z" class="B"/><g class="D"><path d="M335.11 164.149a5 5 0 0 1-4.849-6.234c1.192-4.686 1.055-11.091-10.694-19.095a5 5 0 0 1-1.316-6.947 4.996 4.996 0 0 1 6.947-1.317c12.813 8.73 17.641 18.486 14.755 29.825a5.002 5.002 0 0 1-4.842 3.768z"/><path d="M324.856 156.773a5 5 0 0 1-3.348-8.716l7.354-6.623a5 5 0 1 1 6.692 7.431l-7.354 6.623a4.977 4.977 0 0 1-3.344 1.285zm116.879 53.803a5.06 5.06 0 0 1-1.086-.119c-4.472-.99-19.692-5.284-27.821-18.961a5 5 0 1 1 8.596-5.109c4.83 8.126 14.215 12.719 21.388 14.307a5.001 5.001 0 0 1-1.076 9.883z"/></g><path d="M442.105 95.055c9.331 5.63 18.089-8.18 7.816-13.178-13.047-6.347-36.981-8.661-47.345-1.685s-8.323 12.451-.433 11.122 27.461-3.801 39.962 3.741z" class="C"/><path d="M428.094 253.961a5.03 5.03 0 0 1-.788-.063c-22.111-3.504-54.304-17.805-70.297-31.228a5 5 0 1 1 6.428-7.66c14.587 12.242 45.163 25.798 65.434 29.011a5 5 0 0 1-.777 9.939z" class="D"/><g clip-path="url(#A)"><ellipse cx="495.804" cy="142.65" fill="#fff" rx="19.979" ry="18.838" transform="matrix(.121176 -.992631 .992631 .121176 294.13 617.516)"/><g clip-path="url(#B)"><ellipse cx="495.804" cy="140.058" rx="17.589" ry="10.769" transform="matrix(.121176 -.992631 .992631 .121176 296.702 615.238)" class="C"/></g></g><ellipse cx="418.984" cy="129.251" fill="#fff" rx="23.775" ry="22.418" transform="matrix(.121176 -.992631 .992631 .121176 239.918 529.487)"/><g clip-path="url(#C)"><ellipse cx="429.56" cy="126.646" rx="19.648" ry="12.891" transform="matrix(.121176 -.992631 .992631 .121176 251.799 537.696)" class="C"/></g><path d="M457.709 157.536c13.707-11.176 23.86 1.151 11.212 15.71" class="B"/><path d="M468.919 178.246a5 5 0 0 1-3.772-8.279c4.989-5.745 5.052-10.202 3.977-11.311-.895-.924-4.048-.676-8.255 2.754a5 5 0 1 1-6.318-7.75c9.127-7.443 17.502-6.35 21.754-1.965 4.714 4.864 5.427 14.428-3.608 24.829a4.987 4.987 0 0 1-3.776 1.721z" class="D"/><path d="M431.408 286.354c.956 11.707-9.835 53.534-52.577 55.536-48.555 2.274-74.7-32.946-104.487-72.132l34.388 1.653 110.752 12.811 11.923 2.131zm319.559 382.217-197.096-25.054c-33.318 1.269 32.931 133.497 68.072 128.706l137.514-35.903c26.301-8.675 22.544-59.964-8.489-67.749z" class="B"/><path d="M454.398 730.664s-.745 27.594 2.582 43.019-54.634 17.998-115.613 16.413c-74.863-1.946-193.332-28.308-251.269-42.646l11.428-44.346s192.279 32.108 242.034 34.278c77.211 3.367 110.839-6.718 110.839-6.718z" fill="#fdd016"/><path d="M343.279 799.551c-1.771 0-3.432-.03-4.928-.076-12.976-.395-29.367-2.494-36.457-7.203-4.651-3.088-6.679-12.105-6.028-26.799.289-6.522 1.907-28.168 10.599-32.891 7.783-4.228 34.156-3.1 37.136-2.958 13.972.667 31.707 2.68 36.862 8.479 9.026 10.156 3.577 46.105-6.078 54.895-6.003 5.463-20.503 6.553-31.105 6.553zm-35.618-15.458c10.172 6.325 53.443 7.468 59.992 1.509 2.38-2.166 5.497-9.988 6.85-20.745 1.473-11.702-.132-18.517-1.499-20.093-1.643-1.546-11.321-4.31-30.388-5.176-16.778-.763-28.88.518-31.315 1.748-1.035.877-3.521 6.104-4.83 17.047-1.638 13.7-.149 23.673 1.19 25.709zm65.354-39.319h.01z" class="C"/><path d="M494.502 563.907a5 5 0 0 1-4.998-5.251l5.018-99.564a5 5 0 1 1 9.988.503l-5.018 99.564a5.001 5.001 0 0 1-4.99 4.749z" fill="#2a7700"/><path d="M894.947 626.636v.01l-.048.013-94.843 27.617-82.179 23.92a84.29 84.29 0 0 1-7.65 1.374l-.914.118c-3.328.415-6.682.63-10.039.657l-285.692 2.1-1.434-9.691a.686.686 0 0 1-.021-.149l-.019-.119h.02l282.832-4.469a101.048 101.048 0 0 0 20.834-2.481 72.913 72.913 0 0 0 2.582-.611l174.803-50.212z" class="F"/><path d="m893.179 614.713-177.385 50.822-1.07.309a70.728 70.728 0 0 1-11.78 1.937 74.676 74.676 0 0 1-4.207.199l-285.793 5.376a.785.785 0 0 1-.817-.752c-.003-.04-.006-.08.001-.121a.774.774 0 0 1 .629-.718l198.058-45.802a65.695 65.695 0 0 1 12.372-1.65l99.968-3.558 170.024-6.043z" class="E"/><path d="m576.981 658.837 119.683-31.182a35.902 35.902 0 0 1 8.274-1.151l104.627-2.257c.014 0 .018.02.004.024l-105.909 35.36a25.169 25.169 0 0 1-7.876 1.295l-118.475.431c-1.506.005-1.785-2.141-.328-2.52z" class="F"/><g class="E"><path d="m1030.531 355.633-19.079 39.924-82.337 172.3-21.738 45.494a30.196 30.196 0 0 1-12.431 13.286l-1.768-11.923-170.024 6.043 99.522-231.597a51.473 51.473 0 0 1 39.746-30.602l152.736-22.592c11.02-1.631 19.619 9.369 15.371 19.667z"/><path d="M894.947 626.636a.076.076 0 0 1-.048.024 29.377 29.377 0 0 1-6.568 2.728l-88.275 24.889-89.523 25.231a3.257 3.257 0 0 1-.306.063 7.337 7.337 0 0 1-.914.118c-5.252.305-9.288-5.104-7.105-10.187l.736-1.719.095-.207 3.879-9.039 13.917-32.375 2.321-5.405 170.024-6.043 1.768 11.923z"/></g><g class="B"><path d="M866.932 672.298c-8.747 17.97-82.692 57.432-107.475 64.023-21.064 5.602-76.249-11.152-64.347-34.831s66.653-34.822 66.653-34.822 120.611-26.093 105.169 5.63zM49.052 463.217S4.253 680.319 67.146 714.936c61.451 33.823 125.551 19.934 125.551 19.934l16.552-260.214s11.23-107.32-52.848-109.844S54.3 412.197 49.052 463.217z"/><path d="m439.036 606.356-254.99-13.917c-32.673 1.9-33.352 145.635-.679 143.734l258.147-36.05c26.134-5.031 28.151-87.061-2.478-93.767z"/><path d="M412.22 651.924a56.49 56.49 0 0 1 25.779-54.614c16.362-10.394 33.609-22.936 41.65-28.829 13.443-9.851 57.571 81.632 39.766 96.3-15.31 12.613-24.067 24.706-41.374 31.967-12.901 5.413-34.254 8.371-46.751 5.629-10.676-2.343-16.219-27.414-19.07-50.454z"/><path d="M479.649 568.482c10.729-11.313 49.069-37.424 57.333-36.439s49.204 23.278 56.167 27.643c13.13 8.23-1.667 29.851-17.968 21.673l-33.246-16.837-44.462 28.459-17.824-24.5z"/><path d="M487.685 595.981c10.101-8.031 43.446-32.541 51.401-35.215s58.776 16.837 67.164 20.025c18.611 7.074 9.724 36.996-12.655 29.79l-44.559-14.719-46.658 28.502-14.692-28.382z"/><path d="M490.877 616.328c7.265-7.13 42.421-25.592 53.369-24.56s46.814 11.543 57.811 14.814c15.129 4.5 11.845 33.459-9.352 28.441l-41.826-9.73-45.409 21.56z"/><path d="M498.404 643.248c5.149-5.169 30.751-21.675 37.84-22.072s32.884 10.891 40.873 14.685c13.661 6.487 5.084 26.809-17.667 20.829-12.31-3.236-21.191-5.224-21.191-5.224l-18.844 13.316z"/></g><path d="M505.003 643.026a5 5 0 0 1-2.795-9.149c9.179-6.171 31.617-20.125 41.652-16.467a13955.92 13955.92 0 0 1 23.075 8.458l-3.449 9.386-23.054-8.449c-3.532-1.125-18.785 6.057-32.646 15.372a4.974 4.974 0 0 1-2.784.85zm-8.652-22.259a5 5 0 0 1-2.936-9.05c8.899-6.441 38.921-27.268 51.753-24.862 11.76 2.208 50.024 12.533 51.647 12.972a5 5 0 1 1-2.608 9.654c-.395-.106-39.508-10.662-50.886-12.798-5.904-1.102-27.469 11.143-44.045 23.135a4.977 4.977 0 0 1-2.927.949zm-6.961-21.122a5 5 0 0 1-2.9-9.076c1.702-1.209 41.781-29.675 50.233-34.209 3.513-1.884 10.305-2.698 34.034 5.535 12.453 4.32 23.682 9.104 24.153 9.306a5 5 0 0 1-3.928 9.197c-20.103-8.583-44.763-16.708-49.619-15.178-6.738 3.658-37.679 25.398-49.081 33.501a4.977 4.977 0 0 1-2.893.925zM473.504 703.44a5.001 5.001 0 0 1-2.348-9.418c5.738-3.044 21.598-11.835 26.019-15.897a5 5 0 1 1 6.765 7.363c-6.16 5.661-25.87 16.187-28.098 17.368a4.976 4.976 0 0 1-2.339.584z" class="D"/><g class="B"><path d="M810.597 683.204c13.376.93 52.147-5.211 56.334-10.906s13.954-45.423 15.254-52.559c2.451-13.455-19.79-18.717-24.119-3.361l-8.73 31.424-43.814 8.325 5.074 27.076z"/><path d="M786.666 696.695c10.72-2.801 44.683-13.086 50.526-17.186s17.109-49.289 18.992-56.73c4.177-16.511-21.532-25.909-27.48-6.729l-11.578 38.381-43.397 17.399 12.938 24.866z"/><path d="M767.447 693.698a15.97 15.97 0 0 0 21.308 2.892c10.832-7.47 23.876-18.51 25.964-24.445 3.101-8.818 7.586-40.4 8.923-50.102 1.839-13.346-22.393-21.756-25.994-3.543l-7.242 35.875-20.709 16.609c-6.984 5.601-8 15.85-2.25 22.713z"/><path d="M748.293 683.201c3.226 7.395 12.24 10.261 19.127 6.058 7.795-4.756 16.071-10.625 17.736-13.719 2.857-5.308 3.113-29.43 2.956-37.013-.269-12.968-19.522-14.04-22.914 5.734l-3.435 18.287-10.796 6.022c-6.514 3.075-5.555 8.028-2.674 14.63z"/></g><path d="M798.274 704.414a5 5 0 0 1-3.542-8.529c6.445-6.47 17.243-19.036 18.778-25.214 2.368-9.533 7.976-43.597 8.032-43.94a4.998 4.998 0 0 1 5.744-4.123 5 5 0 0 1 4.123 5.745c-.232 1.417-5.729 34.809-8.194 44.73-2.701 10.87-19.494 27.95-21.4 29.862a4.988 4.988 0 0 1-3.541 1.47zm18.356 2.075a4.999 4.999 0 0 1-3.381-8.685l22.09-20.258c3.804-6.802 11.405-36.177 15.412-53.579a5 5 0 0 1 9.745 2.243c-1.129 4.902-11.195 48.159-17.042 57.24a5.01 5.01 0 0 1-.824.979l-22.621 20.746a4.985 4.985 0 0 1-3.379 1.315zm-121.523.002a5.004 5.004 0 0 1-4.625-6.898c9.847-24.011 55.17-34.069 57.095-34.486a5 5 0 1 1 2.115 9.773c-11.688 2.54-43.438 12.61-49.958 28.506a5 5 0 0 1-4.628 3.104zm70.238-.002a5 5 0 0 1-3.553-8.518c4.234-4.278 15.851-16.976 18.71-24.258 3.391-8.631 2.666-19.522 2.658-19.631a5.003 5.003 0 0 1 4.628-5.343 4.99 4.99 0 0 1 5.346 4.618c.039.535.913 13.226-3.323 24.012-4.127 10.508-19.207 25.917-20.913 27.64a4.986 4.986 0 0 1-3.553 1.481z" class="D"/><path d="M308.733 271.411s.393 59.958 66.502 62.107c66.672 2.167 47.208-48.82 47.208-48.82l20.223 3.827-.935 60.433-75.918 35.065-82.528-38.607-16.315-75.873 41.764 1.868zm-96.641 279.977S93.313 584.293 20.85 542.246c0 0-7.013-3.035-4.255-16.549s60.138-232.095 138.872-248.341c106.223-21.918 56.624 274.033 56.625 274.031z" class="H"/><path d="M184.094 598.207a5 5 0 0 1-1.554-9.754c9.611-3.144 29.278-1.92 31.488-1.772a5 5 0 0 1 4.65 5.326 4.993 4.993 0 0 1-5.325 4.652c-5.473-.369-21.119-.854-27.704 1.298a5.001 5.001 0 0 1-1.556.25z" class="D"/><path d="M207.427 555.318a5.001 5.001 0 0 1-4.963-5.658c.084-.634 8.406-63.827 8.406-98.907a5 5 0 1 1 10 0c0 35.743-8.146 97.605-8.492 100.222a5.002 5.002 0 0 1-4.951 4.343z" fill="#2a7700"/></svg></g><g transform="matrix(1.197536 0 0 1.197749 1940.4 67.2)"><svg width="382.786" height="524.985"><path d="M71.997 454.318l15.646-37.362 152.431 63.831-15.646 37.362c-5.268 12.58-49.888 6.76-87.73-9.005-38.427-16.008-70.005-42.159-64.701-54.826zm-1.758-84.165l88.023-187.837S-28.474 286.639 3.734 330.461s66.505 39.691 66.505 39.691zm214.401 89.782l72.087-194.51s56.68 206.254 2.856 214.051-74.943-19.541-74.943-19.541z" fill="#fd6622"/><path d="M303.547 440.998c-52.115 72.481-149.13 30.416-149.13 30.416s-98.028-39.611-82.946-127.6c12.868-75.081 127.798-217.287 161.24-257.4 15.665 18.033 37.643 34.024 64.06 45.087 26.407 11.058 53.205 15.505 77.045 14.015-5.112 51.99-25.802 233.646-70.269 295.481z" fill="#fdd016"/><g fill="#fd6622"><path d="M373.817 145.517c-23.84 1.489-50.639-2.957-77.045-14.015-26.417-11.062-48.395-27.054-64.06-45.087l9.088-10.776s60.793-86.266 109.568-74.544c42.573 26.53 23.757 130.374 23.757 130.374l-1.307 14.048z"/><circle cx="238.884" cy="269.708" r="65.16"/></g><g fill="#fff"><circle cx="239.373" cy="268.555" r="44.206"/><path d="M282.87 58.53a5.001 5.001 0 0 1-3.559-8.513c21.321-21.599 48.271-37.348 49.407-38.007a5 5 0 0 1 5.02 8.647c-.267.155-26.954 15.763-47.311 36.385a4.987 4.987 0 0 1-3.559 1.487zm-20.86 26.344a5.001 5.001 0 0 1-3.704-8.357l7.703-8.506a5 5 0 0 1 7.413 6.713l-7.703 8.506a4.99 4.99 0 0 1-3.708 1.644z"/></g></svg></g></svg>