<svg xmlns="http://www.w3.org/2000/svg" width="3000" height="2222" xmlns:v="https://vecta.io/nano"><style><![CDATA[.B{fill:#111}.C{fill:#f4bbab}.D{fill:#a85f36}.E{fill:#e09273}.F{fill:#ea2688}.G{fill:#656c72}.H{fill:#e3e5e5}.I{fill:#fff}.J{fill:#5ac4ff}.K{fill:#2199ce}.L{fill:#0a3ea5}.M{fill:#8f969e}.N{fill:#002e77}.O{fill:#773a11}.P{fill:#b7006d}.Q{fill:#4f2000}]]></style><g transform="matrix(1.106094 0 0 1.106588 190 963.333333)"><svg width="153.694" height="882.593"><path d="m53.147 823.996-29.84-3.653 74.76-610.668L131.706 0l21.988 2.692L53.147 823.996z" class="F"/><g class="G"><rect x="30.227" y="688.152" width="43.321" height="43.321" rx="6.162" transform="matrix(.992589 .121523 -.121523 .992589 86.638 -1.045)"/><path d="M44.074 866.988l-22.102-2.706a13.27 13.27 0 0 1-11.434-15.588l5.169-27.893a13.27 13.27 0 0 1 14.659-10.753l18.355 2.247a13.27 13.27 0 0 1 11.64 13.835l-1.422 28.352c-.386 7.693-7.219 13.442-14.865 12.506z"/><rect x=".745" y="851.974" width="65.4" height="27.426" rx="5.957" transform="matrix(.992589 .121523 -.121523 .992589 105.442 2.351)"/></g></svg></g><g transform="matrix(1.11058 0 0 1.110036 267.777778 92.222222)"><svg width="1324.633" height="1757.7"><path d="m588.661 864.285-493.258 145.46-93.63-591.927c-12.582-79.545 43.189-153.71 123.102-163.7l409.429-51.182z" class="J"/><path d="m565.66 1696.3-13.166.848c-3.986.257-7.459-2.782-7.838-6.859l-53.365-573.658c-.395-4.248 2.711-7.981 6.865-8.248l42.923-2.763c4.139-.266 7.69 3.012 7.865 7.26l23.608 575.574c.168 4.106-2.891 7.59-6.892 7.847zm-430.723-29.75-13.107-1.503c-3.968-.455-6.831-4.199-6.46-8.45l52.084-598.269c.386-4.431 4.122-7.701 8.258-7.226l42.732 4.899c4.12.472 7.017 4.477 6.905 12.984l-81.71 594.872c-1.074.126-4.719 3.149-8.702 2.693z" class="G"/><path d="m379.66 1582.723-13.178-.636a7.385 7.385 0 0 1-7.027-7.516l10.72-561.969a7.384 7.384 0 0 1 7.739-7.235l42.962 2.075a7.384 7.384 0 0 1 7.009 7.908l-40.505 560.531a7.383 7.383 0 0 1-7.721 6.843z" class="M"/><path d="M710.897 438.4c29.656 41.824 138.166 220.058 148.652 235.077s-32.29 63.838-85.696 74.239c-21.088 4.107-120.46-110.639-120.46-110.639s-39.796-88.7-52.097-107.177 109.6-91.499 109.6-91.499h.001z" class="D"/><path d="M1174.511 1498.061c3.17.915 12.246 5.766 12.608 14.628 35.375 9.521 119.107 54.997 123.705 116.425-39.245 49.121-105.411 62.977-128.391 62.872s-222.013-40.538-222.013-40.538-56.56-106.302-49.07-127.495 263.163-25.893 263.163-25.893h-.002z" fill="#00ba96"/><path d="M1312.259 1620.038c2.995-.122 5.414 6.921 9.659 24.567 4.003 16.638 2.366 21.656 2.47 24.197s-30.913 32.182-64.37 42.356c-64.482 19.609-115.694 19.459-152.685 21.492s-204.545-47.518-204.545-47.518l7.542-32.683 4.947-10.123s113.847 29.291 190.82 34.502 132.458-1.303 159.334-15.366c43.839-22.939 43.957-41.307 46.827-41.424z" class="H"/><path d="M1092.808 1528.089c39.928 18.734 79.165 26.922 111.346 57.329 23.47 22.176 37.859 92.706 38.072 97.919s-78.971 48.133-96.195 48.314-108.591-12.274-121.73-14.348-226.714-56.533-226.714-56.533-10.965-72.395-6.092-120.373c3.248-31.981 301.314-12.308 301.314-12.308z" fill="#00ba96"/><g fill="#007a63"><path d="M1079.575 1592.636a5 5 0 0 1-3.641-1.574c-5.377-5.716-29.585-19.682-38.458-24.581a5.001 5.001 0 0 1 4.833-8.755c2.884 1.592 24.905 13.827 36.086 22.327 17.316-25.986 51.912-40.34 63.733-40.409a5 5 0 1 1 .058 10c-8.062.047-42.728 13.399-58.274 40.481a5.004 5.004 0 0 1-4.336 2.511z"/><path d="M1159.089 1552.887a5.002 5.002 0 0 1-2.945-.959c-7.249-5.284-23.894-3.512-5.727-8.558 13.349-17.234 45.635-29.33 66.442-24.805a5 5 0 0 1-2.126 9.772c-18.589-4.043-41.165 5.702-51.396 22.188a4.998 4.998 0 0 1-4.249 2.364v-.002z"/><path d="M1241.152 1680.328a6.41 6.41 0 0 1-.553-.025c-2.268-.214-4.166-1.664-4.954-3.785-32.272-86.987-91.815-144.945-163.361-159.017l1.93-9.813c38.193 7.512 72.912 26.618 103.193 56.788 28.37 28.266 51.75 65.806 67.613 108.561a4.159 4.159 0 0 0-3.485-2.69c-1.375-.137-2.721.469-3.563 1.546l8.53 5.163-.247.408c-1.074 1.778-3.036 2.864-5.104 2.864z"/></g><path d="m155.122 1081.36 448.335 53.46 164.241-139.326L85.09 944.545l14.589 104.583c3.293 31.173 24.097 32.243 55.443 32.232z" class="K"/><g class="L"><path d="M662.239 673.477l342.585 149.862c26.971 11.435 62.019 48.995 89.677 85.113 15.052 19.655 42.535 72.489 47.8 95.382 16.126 70.122 40.17 333.298 39.78 345.223-.793 24.23-8.584 43.402-2.325 64.06 10.674 35.227 14.56 82.186 7.362 99.572-16.641-18.821-78.155-20.678-150.978 31.955-39.708-111.329-101.293-473.882-101.293-473.882L476.261 736.948l185.979-63.47h-.001z"/><path d="M521.927 733.694s446.409 300.552 460.566 334.065 70.581 152.949 72.585 170.067-9.544 53.248-9.544 53.248 39.121 119.609 40.623 140.686-5.571 58.877-5.571 58.877 24.406 7.256 29.59 13.948 3.534 25.881 3.534 25.881-14.689-6.256-75.419 44.362-167.345 73.906-258.44-4.34c-5.059-82.022-13.472-123.006-29.636-151.669s-24.468-57.101-21.339-90.277 1.776-51.4 1.776-51.4-16.167-17.678-22.688-32.121 3.689-47.338 3.689-47.338-223.428-127.659-283.058-171.721-103.931-93.211-110.875-130.116 48.501-134.161 101.166-154.812 103.043-7.342 103.043-7.342z"/></g><g class="N"><path d="M1031.135 1362.838a4.999 4.999 0 0 1-4.342-7.471c10.306-18.132 31.987-58.662 32.205-59.069a5 5 0 0 1 8.818 4.716l-32.33 59.295a4.996 4.996 0 0 1-4.351 2.53zm-268.436-47.671a4.98 4.98 0 0 1-3.588-1.518l-32.049-33.023a5 5 0 0 1 7.175-6.965l32.049 33.023a5 5 0 0 1-3.587 8.482zm401.818 95.967a5 5 0 0 1-4.508-7.157c.878-1.837 8.707-18.114 13.042-23.751a5.001 5.001 0 0 1 7.927 6.097c-3.131 4.07-9.685 17.237-11.946 21.967a5 5 0 0 1-4.515 2.844z"/><path d="M1113.705 1535.468a5 5 0 0 1-4.312-7.524c5.858-10.026-5.617-30.38-10.099-36.719a5.005 5.005 0 0 1-.811-3.91c11.306-54.072-39.546-185.553-40.061-186.874a4.998 4.998 0 0 1-.298-2.472c.053-.399 5.283-40.044 5.283-50.822 0-4.712-5.087-17.929-10.472-31.921-5.822-15.125-13.067-33.948-17.713-51.599-9.747-37.029-42.259-122.341-67.085-146.607-25.574-24.997-170.495-102.043-171.956-102.817a5 5 0 0 1 4.688-8.834c6.017 3.193 147.661 78.504 174.258 104.501 28.344 27.705 61.392 119.398 69.766 151.213 4.505 17.117 11.342 34.88 17.375 50.552 7.114 18.484 11.14 29.247 11.14 35.513 0 10.423-4.281 43.796-5.203 50.865 5.441 14.16 50.351 133.518 40.475 189.234 4.614 7.017 18.381 30.279 9.348 45.742a5 5 0 0 1-4.322 2.479z"/></g><path d="M294.442 753.018c1.117 26.875.846 45.862-.127 49.299-9.61 33.965-6.447 93.041 23.402 93.53 15.259-53.21 53.561-87.994 104.841-115.933-35.131-26.902-83.121-33.04-128.116-26.896z" fill="#ff5cf0"/><path d="m1099.4 798.945-274.156-20.632a8.732 8.732 0 0 0-4.168.072l-477.781 84.552c-14.972 2.498-12.755 53.889 5.891 59.644l233.272 53.118a140.13 140.13 0 0 0 66.933-1.158l445.813-117.88c24.563-5.71 24.077-57.618 4.197-57.716z" class="B"/><path d="m1096.454 771.13-271.209-46.851a8.732 8.732 0 0 0-4.168.072L342.579 835.252c-8.816 2.331-7.162 30.16 1.73 32.185l269.666 61.405a8.732 8.732 0 0 0 4.168-.072l477.061-126.143c8.816-2.331 10.142-29.473 1.251-31.497z" fill="#ce9800"/><path d="m1094.91 769.775-261.804-59.844a8.732 8.732 0 0 0-4.168.072L344.015 834.584c-8.816 2.331-8.598 14.918.293 16.943l269.666 61.405a8.732 8.732 0 0 0 4.168-.072l477.061-126.143c8.816-2.331 8.598-14.918-.293-16.943z" fill="#ffd215"/><path d="M644.445 335.295c16.696 6.746 35.5 35.744 62.258 66.267s72.431 98.929 80.533 109.859c-24.498 53.006-101.615 85.961-155.626 84.055s-31.442-198.877-29.509-201.107 42.343-59.074 42.343-59.074z" class="H"/><path d="M187.199 622.905c-1.843 9.801-25.009 13.672-51.744 8.645s-46.913-17.047-45.07-26.848 31.743-28.241 58.477-23.214 40.179 31.616 38.336 41.417z" class="B"/><path d="M529.01 476.992c-52.567 14.723-138.488-34.856-144.899-36.755s-89.138-116.83-89.138-116.83c11.691-5.745 34.451-12.891 60.432-18.301 19.274-4.01 41.997-1.567 61.586-2.411 8.836-.379 15.685-5.811 23.641-5.165 12.806 1.033 25.651 10.325 37.142 11.892 15.763 2.155 29.481-3.255 41.55-.877 24.911 4.902 42.236 6.854 42.236 6.854s20.015 146.861-32.551 161.594h.001z" class="H"/><path d="m393.93 178.347 120.854 13.75-14.755 129.687c-1.692 14.873-15.141 25.574-30.014 23.882l-66.959-7.618c-14.873-1.692-25.574-15.141-23.882-30.014l14.755-129.687z" class="D"/><path d="M562.503 236.61c-2.026 6.683-.639 44.506 26.944 38.879-25.187 17.225-50.926 1.013-48.538-13.787 1.916-11.872 21.594-25.092 21.594-25.092z" class="Q"/><path d="M556.437 69.14c19.475 16.396 24.126 38.557 24.819 69.368.469 20.877-5.875 31.802-3.317 48.881s7.919 45.073-16.22 73.338c-25.594 29.969-40.065 38.895-78.736 25.486-67.575-23.431-74.297-59.043-83.96-69.862s-40.76-102.231 11.176-136.792S522.925 40.926 556.437 69.14z" class="D"/><path d="M691.564 666.263c-12.264-17.956-39.466-62.048-39.466-62.048s10.377-30.554 11.869-60.998-16.177-69.282-28.124-86.394c4.251-21.053 15.086-72.734 13.255-124.125 0 0-22.618-14.626-63.505-21.367-32.922-5.428-55.255-6.524-55.033-3.402s1.835 27.592-6.504 67.023c-8.992 42.518-29.884 71.958-36.539 74.001s-36.49-22.115-68.49-52.788-85.816-85.836-90.313-87.455-14.274-2.121-46.987 8.578-54.991 24.891-78.456 50.689c14.385 7.151 13.737 10.233 20.958 15.681 33.162 25.022 30.509 128.442 48.4 198.686 13.801 54.187 19.883 124.222 21.815 170.672 44.996-6.144 92.985-.006 128.116 26.896 31.794-17.322 68.574-32.016 107.956-46.833 102.9-38.715 156.078 2.303 140.041-31.323-.674-1.413 33.273-17.539 21.009-35.496v.003z" fill="#ff5cf0"/><path d="M519.324 308.544c-.587 11.18-5.84 48.046-49.19 56.058-66 12.201-105.493-44.415-114.729-59.497 19.274-4.01 40.309-7.073 59.899-7.917l21.039.646 40.875 3.684a731.076 731.076 0 0 1 42.106 7.025z" class="D"/><path d="M512.358 30.435s-26.76-23.2-75.534-2.987c-47.008 19.481-88.428 69.068-90.296 116.276s16.033 76.598 45.096 79.823c14.163-37.623 13.315-41.617 22.464-67.376s39.564-68.725 55.959-80.877 54.909-29.542 54.909-29.542l-12.599-15.317h.001z" class="Q"/><path d="M400.224 152.452c-10.834-12.566-35.479-13.426-39.479 11.182s23.401 53.136 39.332 38.14 5.157-43.511.147-49.322z" class="D"/><g class="O"><path d="M402.534 194.871a5 5 0 0 1-4.466-7.241c.738-1.471.785-4.974-1.508-10.003-3.165-6.939-8.906-12.688-13.963-13.981a5 5 0 0 1 2.478-9.688c9.76 2.496 17.188 12.075 20.583 19.52 3.284 7.2 3.764 13.818 1.351 18.633a5 5 0 0 1-4.474 2.761h-.001z"/><path d="M384.501 181.39a5 5 0 0 1-2.282-9.452c9.316-4.768 17.962-8.534 21.393-2.353a5 5 0 0 1-6.613 6.896c-1.183.274-4.061 1.205-10.224 4.359a4.98 4.98 0 0 1-2.274.55z"/></g><g class="Q"><path d="M530.343 62.63s40.323 13.342 49.946 57.64c6.03-28.152 3.321-51.497-13.664-69.64s-43.709-33.5-60.215-22.909c12.187 31.562 23.933 34.909 23.933 34.909z"/><path d="M532.765 63.565s-43.365 3.671-59.12 42.037c-17.55 42.738-30.531 49.941-45.259 73.088-16.354 25.705-20.951 74.983 4.934 107.922-50.261-12.718-54.761-66.596-46.41-100.783 6-24.565 24.17-42.521 25.287-56.2s13.526-56.895 46.848-76.6c35.134-20.777 57.362-17.13 65.577-11.961s8.142 22.496 8.142 22.496h.001zm-74.401-31.113c-8.923-34.671-53.28-39.356-79.154-24.436-36.263 20.91-44.749 69.356-13.567 99.564 28.957 28.052 92.721-75.127 92.721-75.127z"/><path d="M363.025 92.858s-25.893 14.66-37.541-16.679c-9.077 37.784 22.364 55.444 35.195 38.814 9.693-12.563 2.346-22.136 2.346-22.136z"/></g><path d="M503.563 295.791a5.05 5.05 0 0 1-.732-.054c-28.888-4.239-47.97-12.744-63.805-28.439a5 5 0 0 1 7.04-7.102c14.388 14.261 31.254 21.692 58.217 25.648a5 5 0 0 1-.719 9.948h-.001zm27.393-77.01a5 5 0 0 1-4.925-5.892c.617-3.407-2.89-4.585-3.979-4.865-2.709-.697-7.802-.344-9.723 5.381a5 5 0 0 1-9.481-3.181c3.539-10.552 13.59-13.966 21.69-11.887 8.039 2.064 12.699 8.78 11.332 16.332a5 5 0 0 1-4.914 4.11z" class="O"/><path d="M532.76 68.566a5 5 0 0 1-4.896-4.015c-2.981-14.825-11.583-26.603-23.599-32.314a5 5 0 1 1 4.293-9.031c14.891 7.078 25.501 21.429 29.11 39.375a5.001 5.001 0 0 1-4.907 5.987v-.002zm-129.965 87.681a5 5 0 0 1-3.379-8.686c.477-.449 9.952-9.678 8.467-30.512-1.044-14.649 3.568-30.499 12.653-43.485 9.6-13.722 22.956-22.761 37.606-25.451a5 5 0 0 1 1.806 9.836c-24.32 4.466-43.989 31.751-42.091 58.39 1.858 26.075-11.163 38.124-11.718 38.624a4.983 4.983 0 0 1-3.345 1.285h.001zm-52.361-30.115a4.95 4.95 0 0 1-1.006-.103 4.991 4.991 0 0 1-3.899-5.873c.206-1.022 5.388-25.43 36.616-60.907 28.818-32.739 68.21-43.143 69.873-43.569a5 5 0 0 1 2.491 9.685c-.378.098-38.137 10.135-64.858 40.492-29.232 33.21-34.274 56.062-34.322 56.289a5.014 5.014 0 0 1-4.895 3.986z" class="B"/><path d="m974.411 770.963-243.764-53.956-266.162 54.732-.044 10.45a7.965 7.965 0 0 0 6.243 7.81l278.685 65.31a34.857 34.857 0 0 0 16.106-.247l209.039-77.357c3.54-.898 3.462-5.953-.103-6.742z" class="G"/><path d="m1023.95 769.296-287.753-65.283a23.932 23.932 0 0 0-11.059.169l-258.785 65.65c-2.626.666-2.569 4.417.077 5.003l298.271 65.361c.392.087.799.081 1.188-.018l258.139-65.879c2.626-.666 2.569-4.417-.077-5.003z" class="M"/><path d="M625.442 648.378c21.053-1.759 47.669-5.563 57.482-5.477s47.126 27.849 54.633 34.104-4.172 27.979-14.598 24.799-48.915-25.505-48.915-25.505l-88.628.43z" class="D"/><path d="m793.764 727.309-192.925 58.032c-4.438 1.335-4.186 7.703.344 8.683L716.15 818.89a29.507 29.507 0 0 0 14.855-.619l206.634-63.086-134.961-28.257a18.08 18.08 0 0 0-8.913.383v-.002z" class="B"/><path d="m544.177 1127.752-398.949-37.633c-23.433 0-43.087-17.687-45.549-40.99L68.594 840.258c48.982 17.225 145.439 5.002 240.669 5.096 95.896.095 148.012 5.997 197.147-11.282 0 71.779 37.767 221.902 37.767 293.681z" class="J"/><path d="M525.121 864.247H69.509c-20.869 0-37.787-20.745-37.787-46.335s16.918-64.895 37.787-64.895h455.612c20.869 0 37.787 39.305 37.787 64.895s-16.918 46.336-37.787 46.336z" class="K"/><path d="M169.33 453.972c-19.748 53.19-54.955 186.726-66.899 250.344s15.591 119.716 70.791 123.629c43.183 3.061 110.271-6.028 187.432-25.649l147.904-39.67c8.362 7.25 26.929 14.558 79.789 7.653s60.796-24.009 60.796-24.009l-25.018-97.861s-120.775 11.744-152.892 12.463-151.076-2.01-174.439.439c8.464-26.424 14.903-55.118 14.903-55.118L169.33 453.971z" class="D"/><path d="M204.698 366.626c16.939 1.106 34.529 14.891 61.621 50.098s60.572 108.666 60.231 140.597c-.145 13.574-20.154 75.023-27.45 93.753 0 0-16.172-33.151-93.687-48.551s-108.372-6.881-115.028 2.179c8.781-37.98 85.285-212.249 114.313-238.076z" class="H"/><g class="D"><path d="M599.301 667.894c-.39.028 80.991-8.517 85.786-7.289s56.813 34.108 64.674 39.824 2.308 30.332-17.43 23.108-52.654-28.746-52.654-28.746l-86.432 9.234 6.056-36.13z"/><path d="M601.526 699.119s73.604-13.09 77.981-12.225 49.148 29.143 56.979 34.385c11.123 7.446 2.002 28.103-16.258 19.577-15.226-7.108-43.809-17.497-43.809-17.497l-62.157 5.844-12.735-30.084z"/><path d="M601.011 757.025c13.335-2.756 56.654-2.277 56.654-2.277l26.789 18.098c11.987 8.561 26.18-6.965 18.291-14.977-7.254-7.366-27.692-29.985-31.316-31.296s-66.839-6.489-66.839-6.489l-3.578 36.94h-.001z"/></g><g class="O"><path d="M249.35 668.17a5 5 0 0 1-.832-9.93c20.691-3.516 47.442-1.986 48.57-1.919a5 5 0 0 1-.591 9.982c-.265-.015-26.754-1.527-46.304 1.796a5.043 5.043 0 0 1-.844.071zm406.133 62.158c-.173 0-.347-.009-.523-.027l-40.034-4.166a5 5 0 0 1 1.035-9.947l40.034 4.166a5 5 0 0 1-.511 9.974zm83.332-1.968a4.978 4.978 0 0 1-2.614-.741l-57.903-35.598-58.446 5.174a5 5 0 0 1-.881-9.961l60.095-5.32a4.995 4.995 0 0 1 3.06.721l59.313 36.465a5 5 0 0 1-2.623 9.26zm3.565-38.625l-8.368-5.475-.067.107c1.083-1.886-.469-3.21-.979-3.645-5.513-4.703-42.191-30.308-50.055-33.268-.44-.166-1.828-.559-5.199-.634a5 5 0 0 1-4.888-5.109c.061-2.76 2.347-4.932 5.109-4.888 3.66.081 6.441.497 8.5 1.272 9.654 3.634 47.455 30.269 53.023 35.019 7.004 5.975 4.975 13.484 2.924 16.62z"/><path d="M754.943 717.423a5 5 0 0 1-4.925-5.899c.423-2.341.592-5.246.419-6.625-7.326-4.625-60.223-35.815-67.595-39.824-4.761-1.532-33.479 1.487-57.52 5.187a5.001 5.001 0 0 1-1.522-9.884c.136-.021 13.735-2.108 27.971-3.726 30.163-3.43 33.759-1.49 35.69-.448 3.985 2.15 66.555 38.739 69.807 41.249 3.189 2.462 4.06 7.801 2.588 15.867a5.002 5.002 0 0 1-4.913 4.103zm-72.23-52.418.012.007-.012-.007z"/></g><path d="M788.628 1636.423c3.879-3.087 18.313 20.712 48.575 29.791 62.609 18.783 81.62 11.464 141.913 25.043 57.913 13.043 89.739 38.087 173.739 24 71.633-12.013 85.603-47.431 88.667-49.122s5.667 10.949 8.451 24.719c1.963 9.711 2.58 19.366.708 24.664s-30.663 37.784-96.304 41.51-118.227-8.486-169.186-25.595c-47.898-16.081-116.496-20.637-137.232-23.114-29.779-3.557-51.345-15.396-54.079-18.417s-8.16-51.166-5.252-53.48z" class="H"/><path d="M491.482 488.863c-3.028 0-10.661-2.411-41.356-26.187-20.38-15.786-42.834-34.917-58.599-49.929-32.882-31.31-97.615-95.885-98.265-96.533a5 5 0 0 1 7.063-7.079l98.097 96.37c32.439 30.888 83.392 70.201 92.902 73.215 5.945-3.199 31.675-32.827 45.729-79.919 12.274-41.127 11.637-88.821 11.629-89.298a5.001 5.001 0 0 1 9.999-.165c.033 2.01.666 49.729-12.046 92.323-6.471 21.684-16.582 43.417-28.469 61.196-3.856 5.768-17.102 24.683-25.618 25.914-.298.043-.635.092-1.066.092zm.385-10.002" fill="#cc2bc5"/><path d="M913.499 571.223 749.177 834.314c-6.743 10.918 3.209 24.5 15.651 21.359l248.912-64.036a43.958 43.958 0 0 0 26.692-19.602l143.559-230.673c6.256-10.177-1.998-23.081-13.86-21.668l-224.43 30.978a43.953 43.953 0 0 0-32.203 20.552z" class="G"/><path d="M512.453 266.044c-13.029 0-25.662-6.735-31.879-17.874a5 5 0 0 1 8.732-4.874c4.881 8.744 17.715 15.5 30.745 11.666a5.001 5.001 0 0 1 2.822 9.594 36.93 36.93 0 0 1-10.419 1.489h-.001z" class="O"/><ellipse cx="473.269" cy="183.498" rx="25.767" ry="21.324" transform="matrix(.041736 -.999129 .999129 .041736 270.178 648.697)" class="I"/><ellipse cx="480.118" cy="187.435" fill="#231f20" rx="19.509" ry="12.436" transform="matrix(.041736 -.999129 .999129 .041736 272.807 659.312)"/><ellipse cx="553.583" cy="182.167" rx="25.767" ry="21.324" transform="matrix(.041736 -.999129 .999129 .041736 348.471 727.665)" class="I"/><g fill="#231f20"><ellipse cx="560.399" cy="186.775" rx="19.509" ry="12.436" transform="matrix(.041736 -.999129 .999129 .041736 350.398 738.891)"/><path d="M445.447 144.777c4.358-5.209 13.904-12.71 32.437-15.058s27.403-.172 28.526 4.623c1.249 5.334 1.795 14.429-15.862 12.522-21.8-2.354-36.93 3.288-41.878 4.383s-6.716-2.296-3.223-6.47zm87.318-13.566c7.051-2.909 23.857-3.652 32.914 0s15.311 10.354 17.535 13.826c2.422 3.783 0 8.739-4.361 6.209-4.794-2.781-14.141-4.719-25.826-5.688-7.856-.651-18.834-.722-21-2.087-4.696-2.959-2.739-10.826.738-12.261z"/></g></svg></g><g transform="matrix(1.110367 0 0 1.11069 1675.555556 621.111111)"><svg width="1145.767" height="1283.487"><clipPath id="A"><path d="M475.502 117.969c-3.95 17.533-8.336 41.188-12.136 63.985-5.522 33.125 41.624 6.474 47.222-17.604 8.639-37.152-32.251-58.972-35.086-46.381z"/></clipPath><clipPath id="B"><ellipse cx="469.556" cy="152.354" rx="22.223" ry="20.954" transform="matrix(.127324 -.991861 .991861 .127324 258.656 598.69)"/></clipPath><clipPath id="C"><ellipse cx="556.04" cy="158.979" rx="26.445" ry="24.936" transform="matrix(.127324 -.991861 .991861 .127324 327.557 690.252)"/></clipPath><path d="M55.256 293.185c4.016-12.681 114.396-29.345 130.585-22.017-75.372 53.877-130.585 22.017-130.585 22.017z" class="B"/><path d="M490.583 784.828l276.385-33.313c50.122-5.95 179.181-16.372 247.991-7.701 44.202 5.57 72.93 42.643 86.697 93.957 17.911 66.759.313 162.704-127.1 181.1-172.762 24.943-348.896 50.667-501.813 64.208-110.694 9.801-171.426-273.17 17.84-298.251z" class="J"/><path d="M560.397 993.797c17.477-8.24 78.768-21.262 141.02 116.922 26.79 59.467 15.373 108.279-6.203 114.522-2.907.841-7.441.987-10.608.1-26.163-7.328-38.67-27.28-84.203-98.457-54.444-85.107-50.156-128.301-40.005-133.086h-.001z" class="B"/><path d="M659.699 784.828c-80.896-11.899-242.329-28.262-276.385-33.313-104.246-15.459-273.409-25.675-332.62 27.111-82.49 73.538-22.201 206.41 125.032 240.245 146.649 33.701 374.984 61.389 468.795 56.698 168.962-8.448 162.236-269.111 15.178-290.741z" class="J"/><path d="M455.071 850.705a5.628 5.628 0 0 1-5.005-3.047c-13.532-26.199-36.698-55.085-36.93-55.374a5.629 5.629 0 0 1 8.767-7.06c.977 1.213 24.102 30.043 38.164 57.268a5.628 5.628 0 0 1-4.997 8.212h.001z" fill="#005141"/><path d="M821.617 1061.635c9.962 88.106-87.189 104.914-129.127 116.191-26.392 7.097-48.77 15.967-117.349 35.656-37.607 10.797-122.251-25.318-126.813-89.052-5.219-72.923 51.37-122.403 112.312-133.309l154.755-27.698c.723-.167 93.801-11.634 106.22 98.214h.001z" class="D"/><path d="M553.668 1201.38l-27.045-21.902s36.148-26.577 26.111-71.595c-8.454-37.918-51.455-66.391-51.455-66.391s-3.755-20.182 1.877-35.67 30.695-30.727 30.695-30.727-12.737-15.101-37.266-14.328c-29.389.926-70.154 35.881-107.009 48.811-56.185 19.713-106.668 16.086-146.433 34.731-48.049 22.528-80.573 71.141-59.447 146.277 20.593 73.239 106.761 89.989 139.109 83.722 54.594-10.578 230.862-72.928 230.862-72.928h-.001z" class="H"/><path d="M577.439 1208.885l-28.686-16.714s36.148-26.577 26.111-71.595c-8.454-37.918-51.455-66.391-51.455-66.391s-3.755-20.182 1.877-35.67 30.695-30.727 30.695-30.727-12.737-15.101-37.266-14.328c-29.389.926-70.154 35.881-107.009 48.811-56.185 19.713-106.668 16.086-146.433 34.731-48.049 22.528-80.723 71.183-59.447 146.277 18.56 65.507 92.419 75.685 124.861 69.925 132.157-23.462 246.752-64.32 246.752-64.32h-.001z" class="L"/><path d="M452.395 1029.22c-5.866 0-11.329-1.656-16.188-5.689a5.629 5.629 0 0 1 7.189-8.661c10.263 8.519 29.838-2.644 48.77-13.438 16.971-9.676 34.517-19.682 49.715-18.538a5.627 5.627 0 1 1-.846 11.223c-11.765-.887-27.792 8.254-43.294 17.092-15.606 8.899-31.586 18.009-45.346 18.009z" fill="#c83400"/><g class="I"><path d="M404.756 1226.726a5.624 5.624 0 0 1-4.459-2.196l-68.434-88.91a5.627 5.627 0 1 1 8.918-6.864l60.374 78.439 17.981-119.569a5.63 5.63 0 0 1 4.499-4.689 5.625 5.625 0 0 1 5.92 2.678l59.854 102.021 15.405-131.378a5.627 5.627 0 0 1 11.179 1.31l-17.359 148.04a5.625 5.625 0 0 1-4.434 4.852 5.626 5.626 0 0 1-6.01-2.66l-60.291-102.765-17.579 116.899a5.628 5.628 0 0 1-5.564 4.791z"/><path d="M373.375 1228.979a5.628 5.628 0 0 1-5.628-5.622l-.11-115.953a5.63 5.63 0 0 1 10.218-3.262l66.826 94.2 17.836-126.635c.338-2.395 2.168-4.307 4.547-4.749s4.773.688 5.946 2.803l69.042 124.403a5.627 5.627 0 1 1-9.841 5.461l-60.891-109.716-17.467 124.017a5.627 5.627 0 0 1-10.163 2.471l-64.781-91.316.093 98.266a5.627 5.627 0 0 1-5.622 5.633h-.006.001z"/></g><path d="M382.863 1229.762c-12.007 0-23.813-3.391-34.121-9.92a63.687 63.687 0 0 1-27.53-37.492c-8.554-32.077 8.489-64.913 39.642-76.382l166.065-61.132a5.628 5.628 0 0 1 3.888 10.562l-166.065 61.132c-25.662 9.447-39.701 36.496-32.655 62.919 6.197 23.239 27.579 39.038 50.943 39.041 3.092 0 6.214-.276 9.345-.849l166.138-30.379a5.628 5.628 0 0 1 2.024 11.072l-166.138 30.379a64.122 64.122 0 0 1-11.539 1.049h.002z" class="N"/><path d="M971.475 741.078c-23.667 0-41.095 11.948-46.756 25.433-7.981 19.008 0 30.381 0 30.381-92.616 45.057-174.108 63.286-208.804 97.831-6.4 6.373-30.247 9.178-76.176 33.166-37.624 19.65-79.342 65.908-79.342 65.908s18.52-1.666 44.128 15.114c12.993 8.514 30.189 26.175 46.358 46.843 45.526 58.198 69.133 161.388 44.332 169.488 124.942-36.822 188.939-114.522 188.939-114.522 73.93-30.456 156.43-76.955 187.663-96.485 110.567-69.141 112.456-273.156-100.341-273.156h-.001z" class="J"/><g class="K"><path d="M884.159 1116.348a5.629 5.629 0 0 1-3.203-10.259c63.585-43.91 85.195-72.126 85.405-72.406a5.628 5.628 0 0 1 8.99 6.772c-.906 1.202-22.928 29.96-87.999 74.896a5.601 5.601 0 0 1-3.193.997h.001zm-274.821-97.716c-1.53 0-3.054-.62-4.165-1.84-14.473-15.91-44.703-17.358-45.007-17.37-2.179-.091-4.112-1.434-4.956-3.444s-.454-4.328 1.007-5.947c1.731-1.919 42.834-47.238 80.915-67.127 26.92-14.059 46.321-20.927 59.16-25.471 7.738-2.74 13.851-4.903 15.652-6.695 21.865-21.77 60.174-36.746 108.675-55.705 30.642-11.979 65.373-25.555 101.638-43.198a5.627 5.627 0 1 1 4.923 10.121c-36.67 17.84-71.624 31.504-102.464 43.56-47.281 18.484-84.626 33.082-104.831 53.199-3.596 3.58-9.709 5.745-19.838 9.33-12.54 4.439-31.49 11.146-57.704 24.837-26.947 14.074-56.547 42.686-70.157 56.656 11.797 2.054 29.91 7.152 41.312 19.683a5.627 5.627 0 0 1-4.161 9.415v-.002z"/><path d="M686.915 937.629a5.625 5.625 0 0 1-4.868-8.439c.343-.594 8.649-14.827 29.683-38.229a5.626 5.626 0 1 1 8.37 7.524c-20.138 22.406-28.231 36.203-28.31 36.34a5.628 5.628 0 0 1-4.876 2.805z"/></g><path d="M551.125 967.73l24.878 168.58c8.442 62.913-3.889 112.073-30.927 106.046-39.186-8.733-90.638-81.134-69.048-163.971 27.169-104.246 75.097-110.655 75.097-110.655h-.001z" class="B"/><path d="M598.911 1209.353l27.045-21.902s-36.148-26.577-26.111-71.595c8.454-37.918 51.455-66.391 51.455-66.391s3.755-20.182-1.877-35.67-30.695-30.727-30.695-30.727 12.737-15.101 37.266-14.328c29.389.926 70.154 35.881 107.009 48.811 56.185 19.713 106.668 16.086 146.433 34.731 48.049 22.528 80.573 71.141 59.447 146.277-20.593 73.239-106.761 89.989-139.109 83.722-54.594-10.578-230.862-72.928-230.862-72.928h.001z" class="H"/><path d="M709.084 1138.191c26.052-88.229-70.185-122.906-111.003-141.984-25.688-12.006-46.955-25.101-113.479-57.574-36.48-17.807-129.473 3.844-145.616 68.143-18.47 73.57 30.436 134.322 90.739 156.446l153.133 56.183c.709.3 93.745 28.787 126.226-81.214z" class="C"/><path d="M582.857 1219.405l20.97-19.261s-36.148-26.577-26.111-71.595c8.454-37.918 51.455-66.391 51.455-66.391s3.755-20.182-1.877-35.67-30.695-30.727-30.695-30.727 12.737-15.101 37.266-14.328c29.389.926 70.154 35.881 107.009 48.811 56.185 19.713 106.668 16.086 146.433 34.731 48.049 22.528 80.723 71.183 59.447 146.277-18.56 65.507-92.419 75.685-124.861 69.925-132.157-23.462-239.036-61.772-239.036-61.772h.001z" class="L"/><path d="M697.887 1032.596c-13.761.001-29.739-9.11-45.346-18.009-15.502-8.839-31.534-17.978-43.294-17.092a5.623 5.623 0 0 1-6.035-5.189 5.626 5.626 0 0 1 5.189-6.034c15.194-1.146 32.743 8.861 49.715 18.538 18.932 10.794 38.508 21.956 48.77 13.438a5.628 5.628 0 1 1 7.189 8.661c-4.858 4.033-10.322 5.689-16.188 5.689z" class="N"/><g class="I"><path d="M747.825 1234.699a5.628 5.628 0 0 1-5.564-4.791l-17.579-116.899-60.291 102.765a5.629 5.629 0 0 1-10.444-2.192l-17.359-148.04a5.628 5.628 0 0 1 11.178-1.31l15.405 131.378 59.854-102.021a5.629 5.629 0 0 1 10.419 2.011l17.981 119.569 60.374-78.439a5.628 5.628 0 1 1 8.918 6.864l-68.434 88.91a5.631 5.631 0 0 1-4.459 2.196z"/><path d="M779.205 1236.951h-.006a5.627 5.627 0 0 1-5.622-5.633l.093-98.266-64.781 91.316a5.63 5.63 0 0 1-10.163-2.471l-17.467-124.017-60.891 109.716a5.627 5.627 0 1 1-9.841-5.461l69.042-124.403a5.628 5.628 0 0 1 10.493 1.946l17.836 126.635 66.827-94.2a5.63 5.63 0 0 1 10.218 3.262l-.11 115.953a5.627 5.627 0 0 1-5.628 5.622z"/></g><path d="M769.717 1237.733c-3.84 0-7.7-.347-11.539-1.049l-166.138-30.379a5.628 5.628 0 0 1 2.024-11.072l166.138 30.379c26.79 4.898 53.272-11.877 60.289-38.192 7.046-26.422-6.993-53.472-32.655-62.919l-166.065-61.132a5.628 5.628 0 0 1 3.888-10.562l166.065 61.132c31.154 11.468 48.196 44.305 39.642 76.382a63.682 63.682 0 0 1-27.53 37.492c-10.307 6.529-22.115 9.919-34.121 9.92z" class="N"/><path d="M152.694 742.986c38.899-2.982 68.208 37.962 129.466 61.258 111.011 42.216 155.956 59.394 227.309 92.043 16.778 8.66 49.576 80.063 49.576 80.063s-73.001 58.338-69.246 151.268c2.817 69.728 30.476 106.641 55.278 114.739-129.538-20.888-278.948-131.638-278.948-131.638-73.93-30.456-156.94-76.16-187.663-96.485C-40.477 935.545-30.7 757.045 152.694 742.986z" class="J"/><path d="M266.123 1116.348a5.603 5.603 0 0 1-3.193-.997c-65.071-44.935-87.093-73.694-87.999-74.896a5.627 5.627 0 1 1 8.99-6.772c.208.275 22.106 28.695 85.405 72.406a5.629 5.629 0 0 1-3.203 10.259h.001z" class="K"/><g class="C"><path d="M143.083 388.458c55.03-8.695 44.851-63.088 44.851-63.088l-17.446-92.523s6.927-45.267-9.483-81.668c-25.396-56.335-145.849-12.07-134.657 21.702 8.762 26.438 21.289 66.324 45.016 90.109L70.1 340.582s.703 59.297 72.981 47.876h.001z"/><path d="M149.42 126.779L95.185 9.898c-8.074-17.475-40.632-7.1-31.44 14.615l49.134 116.065 36.539-13.798h.001zm-91.29 53.96l-19.383-53.677c-4.655-12.907-28.749-2.83-22.908 15.15 4.818 14.831 7.8 23.263 16.435 47.956 6.281 17.958 32.167 7.635 25.855-9.429z"/></g><path d="M44.668 204.913c-1.131 0-2.261-.1-3.378-.304-6.528-1.196-11.649-5.818-14.049-12.679a5.334 5.334 0 0 1 10.069-3.521c1.147 3.281 3.134 5.201 5.902 5.709 3.067.562 6.671-.787 8.766-3.279 1.33-1.584 2.611-4.3 1.15-8.247a5.333 5.333 0 1 1 10.004-3.7c2.49 6.731 1.4 13.586-2.988 18.81-3.839 4.569-9.654 7.214-15.476 7.214v-.002z" class="E"/><path d="M87.389 168.183L63.37 107.598c-5.394-13.779-35.013-1.747-27.369 19.371l19.16 51.748c7.07 19.021 39.015 7.021 32.228-10.534z" class="C"/><path d="M69.442 193.716c-1.27 0-2.531-.099-3.769-.303-7.271-1.199-12.925-5.878-15.511-12.838l-21.15-55.741a5.334 5.334 0 0 1 9.954-3.832l21.194 55.857c1.27 3.417 3.709 5.447 7.248 6.03 4.833.797 10.735-1.382 13.732-5.067 1.942-2.387 2.358-4.912 1.274-7.716l-12.887-32.551-11.124-28.014a5.334 5.334 0 0 1 9.934-3.889l11.096 27.944 12.931 32.662c2.442 6.317 1.368 12.983-2.947 18.29-4.616 5.677-12.434 9.165-19.974 9.165h-.001z" class="E"/><path d="M94.202 95.1c-8.188-21.063-37.921-5.62-32.194 9.044l22.736 56.686c6.505 16.211 36.258 6.888 31.402-11.467L94.202 95.101z" class="C"/><path d="M98.156 174.482c-7.615 0-15.091-3.516-18.362-11.667a10392.32 10392.32 0 0 0-12.943-32.12l-9.088-22.761a5.334 5.334 0 0 1 9.934-3.888l9.043 22.647 12.954 32.148c2.396 5.973 9.412 5.453 13.179 4.204 4.751-1.575 9.691-5.658 8.193-12.02L89.233 97.03a5.333 5.333 0 1 1 9.942-3.864l21.911 54.181a5.2 5.2 0 0 1 .217.649c3.372 12.746-5.45 21.984-15.073 25.174a25.772 25.772 0 0 1-8.072 1.31h-.001z" class="E"/><path d="M172.866 245.456c9.319-20.273 35.544-102.792 12.304-122.516-8.131-6.901-25.982-21.38-52.621-39.655-22.738-15.599-43.692 14.661-22.351 32.74l40.185 33.803c-30.768 13.975-36.882 49.939-24.291 74.47 15.948 31.076 46.774 21.158 46.774 21.158z" class="C"/><path d="M126.096 229.633a5.336 5.336 0 0 1-4.75-2.899c-7.587-14.784-8.831-33.045-3.327-48.846 4.292-12.322 12.142-22.226 22.917-29.021l-34.186-28.773c-13.513-11.446-13.032-27.327-5.571-37.099 6.683-8.754 20.295-13.774 34.386-4.108a5.333 5.333 0 0 1-6.034 8.796c-8.966-6.151-16.31-2.884-19.874 1.785-4.267 5.589-4.84 15.01 3.987 22.487l40.164 33.785a5.331 5.331 0 0 1-1.22 8.943c-14.916 6.775-21.554 18.265-24.496 26.713-4.563 13.1-3.538 28.229 2.744 40.468a5.333 5.333 0 0 1-4.741 7.77h.001z" class="E"/><g class="F"><path d="M439.785 362.772c-43.492-64.142-133.983 59.453-165.576 77.056l-52.379 28.827c-70.115 42.457-20.088 203.964 53.246 186.932 18.779-4.361 70.477-22.48 103.135-48.026 50.962-39.862 54.858-105.074 31.64-139.316l29.935-105.473z"/><path d="M262.638 527.804c6.375-50.761-8.087-95.081-22.841-123.057-13.622-25.83 4.381-58.733-51.696-94.404-36.095-22.96-98.909-2.139-114.916 14.408-21.263 21.98-32.59 61.834-16.107 127.27 10.433 41.413 11.616 59.676 15.602 84.186 7.09 43.586 32.919 118.308 124.876 127.601 30.653 3.098 53.294-1.519 77.518-8.22 61.201-16.928-20.106-66.721-12.437-127.784z"/></g><path d="M262.641 533.433a5.628 5.628 0 0 1-5.376-7.298c5.918-19.064 4.109-46.45-4.961-75.133a5.628 5.628 0 1 1 10.732-3.394c9.747 30.821 11.562 60.659 4.979 81.864a5.63 5.63 0 0 1-5.373 3.961zm-173.899-33.8a5.6 5.6 0 0 1-3.773-1.454l-.334-.303c-8.661-7.832-23.156-20.938-32.741-43.668a5.628 5.628 0 0 1 10.37-4.374c8.615 20.43 21.436 32.022 29.919 39.693l.335.304a5.627 5.627 0 0 1-3.778 9.802z" class="P"/><path d="M566.318 181.237c34.432-6.467 67.587 16.203 74.053 50.635l18.312 97.502c6.467 34.432-16.203 67.587-50.635 74.053s-67.587-16.203-74.053-50.635l-18.312-97.502c-6.467-34.432 16.203-67.587 50.635-74.053z" class="C"/><path d="M526.685 313.877c-22.351 2.146-107.126 33.556-110.045 54.92s-30.268 349.918 10.6 388.84 96.943 29.404 124.249 26.436c24.071 12.827 80.713 14.815 123.339 2.177 0 0 111.329-1.859 118.947-25.985 17.528-55.521-12.304-140.875-17.105-250.597-2.427-55.48-10.704-151.711-34.057-169.27s-83.93-11.019-83.93-11.019l-131.999-15.502z" fill="#5917c1"/><path d="M525.59 308.042c-6.564 13.606-17.915 57.011 25.9 63.923 38.09 6.01 93.287-23.747 107.194-42.586-14.252-21.336-133.094-21.336-133.094-21.336zM482.956 92.253c-8.861 16.307-29.506 144.582-29.302 162.219.293 25.128 83.723 43.694 148.819 15.574 37.207-16.072 59.412-101.52 39.224-153.434-25.061-64.442-133.679-70.481-158.741-24.36z" class="C"/><path d="M631.431 189.22c-4.889 7.042-14.796 8.457-13.38-4.281s14.031-32.022 2.326-47.435c-12.705-16.728-18.562-51.765-34.407-58.717-46.234-20.286-95.3-2.359-103.014 13.465-10.213 3.991-27.669-41.772-2.665-63.473 0 0 1.888 19.815 16.041 23.117 0 0-1.415-31.61 17.927-51.896 0 0 1.415 13.21 8.964 18.872.472-9.436 17.927-8.964 28.267 10.851 0-8.491 10.669-19.907 19.855 4.718 0 0 24.078-2.384 33.496 22.646 0 0 44.347 20.758 53.783 42.932 0 0-1.888-17.456 3.302-17.927s12.267 89.167 0 108.51-30.495-1.38-30.495-1.38z" class="B"/><path d="M659.785 173.768v9.956s13.272 11.064 11.617 31.489c0 0-9.648 10.739-19.524 14.22s-2.172 11.652 7.907 7.737 21.026-18.714 21.707-29.607-3.404-30.444-21.707-33.795z" class="L"/><path d="M489.009 115.725c11.202 0 13.093-17.413 3.463-17.242-6.053.107-26.413 2.88-33.343 10.778-4.494 5.121-6.256 12.041 2.435 10.158s16.701-3.693 27.444-3.693h.001z" class="B"/><g class="G"><path d="M553.052 205.479c-24.355 0-44.169-19.814-44.169-44.168s19.814-44.169 44.169-44.169 44.168 19.814 44.168 44.169-19.814 44.168-44.168 44.168zm0-77.214c-18.222 0-33.046 14.824-33.046 33.046s14.824 33.045 33.046 33.045 33.045-14.824 33.045-33.045-14.824-33.046-33.045-33.046zm-88.404 68.63c-22.514 0-40.831-18.316-40.831-40.831s18.316-40.831 40.831-40.831 40.831 18.316 40.831 40.831-18.316 40.831-40.831 40.831zm0-70.539c-16.381 0-29.708 13.327-29.708 29.708s13.327 29.708 29.708 29.708 29.708-13.327 29.708-29.708-13.327-29.708-29.708-29.708z"/><path d="M514.439 166.872a5.564 5.564 0 0 1-5.454-4.496c-.461-.289-1.504-.691-2.781-.641-.893.038-1.61.296-1.92.689a5.562 5.562 0 0 1-8.735-6.887c3.98-5.047 10.822-5.736 15.828-4.181 5.028 1.559 8.328 5.235 8.616 9.59a5.561 5.561 0 0 1-5.554 5.927v-.002zm-5.544-5.196v.003zm145.936 21.006a5.54 5.54 0 0 1-3.398-1.161c-7.744-5.988-39.576-13.069-60.204-14.665a5.563 5.563 0 0 1-5.117-5.974 5.56 5.56 0 0 1 5.974-5.116c16.6 1.285 54.277 7.774 66.151 16.955a5.563 5.563 0 0 1-3.407 9.962h.001z"/></g><path d="M626.542 196.261c12.738-23.099 43.404-27.835 48.122 0s-21.23 42.932-36.799 37.742-19.403-23.089-11.322-37.742z" class="C"/><g class="E"><path d="M638.258 219.774a5.562 5.562 0 0 1-5.562-5.562c0-13.014 7.879-22.206 24.085-28.104a5.562 5.562 0 0 1 3.804 10.453c-14.861 5.407-16.766 12.273-16.766 17.651a5.562 5.562 0 0 1-5.562 5.562z"/><path d="M651.338 214.636a5.56 5.56 0 0 1-4.632-2.475l-6.111-9.155a5.563 5.563 0 0 1 9.253-6.176l6.111 9.155a5.563 5.563 0 0 1-4.621 8.651z"/></g><path d="M540.496 115.776c-11.603 3.509-17.256-13.778-4.811-16.349 15.805-3.265 42.24.806 51.498 11.168s5.558 15.705-2.584 12.108-28.56-11.629-44.104-6.927z" class="B"/><path d="M531.206 289.894c-3.754 0-7.33-.147-10.662-.454-3.059-.281-5.309-2.99-5.028-6.049s2.977-5.302 6.049-5.028c22.729 2.096 59.411-4.131 78.492-13.327a5.562 5.562 0 0 1 4.83 10.02c-18.111 8.728-49.491 14.837-73.681 14.837z" class="E"/><g clip-path="url(#A)"><ellipse cx="469.556" cy="152.354" rx="22.223" ry="20.954" transform="matrix(.127324 -.991861 .991861 .127324 258.656 598.69)" class="I"/><g clip-path="url(#B)"><ellipse cx="470.434" cy="147.738" rx="19.565" ry="11.979" transform="matrix(.127324 -.991861 .991861 .127324 264.001 595.533)" class="B"/></g></g><ellipse cx="556.04" cy="158.979" rx="26.445" ry="24.936" transform="matrix(.127324 -.991861 .991861 .127324 327.557 690.252)" class="I"/><g clip-path="url(#C)"><ellipse cx="545.57" cy="156.065" rx="21.855" ry="14.339" transform="matrix(.127324 -.991861 .991861 .127324 321.312 677.324)" class="B"/></g><path d="M506.539 178.849c-11.71-15.807-26.036-5.304-16.396 13.861" class="C"/><path d="M490.148 198.271a5.562 5.562 0 0 1-4.973-3.063c-6.886-13.69-3.496-23.804 2.921-27.754 5.782-3.562 15.112-2.445 22.912 8.084a5.562 5.562 0 1 1-8.938 6.622c-3.597-4.855-6.929-5.98-8.142-5.233-1.463.901-2.618 5.723 1.185 13.283a5.562 5.562 0 0 1-4.964 8.062z" class="E"/><g class="F"><path d="M526.685 313.877c-21.419-1.329-71.605 14.303-110.044 24.44-6.26 1.651-31.361 11.182-32.844 13.116-13.526 17.648 13.071 102.164 3.918 150.746-5.747 30.502-4.531 103.648-16.35 172.615-7.403 43.198-24.578 69.265-12.531 73.358 15.892 5.398 68.183 109.305 97.76 118.75 19.561-73.642 20.446-295.602 70.092-440.506v-112.52.001zm129.087 0s88.567 3.027 141.476 23.007c32.801 12.386-7.545 207.848 12.745 286.474 15.178 58.814 17.075 97.706-.709 131.666-38.645-19.233-171.654 118.827-186.858-5.485s-26.575-258.521-19.113-332.751c32.951-35.783 39.487-57.541 52.459-102.91z"/><path d="m526.685 313.877-4.677-24.905-58.803 51.426-3.914 49.061 23.553-22.95 43.842 59.887c-6.332-40.507-6.37-78.032 0-112.52h-.001z"/></g><path d="M526.69 431.959a5.554 5.554 0 0 1-4.492-2.277l-40.06-54.72-18.967 18.481a5.56 5.56 0 0 1-9.425-4.426l3.915-49.061a5.569 5.569 0 0 1 1.882-3.744l33.393-29.204a5.562 5.562 0 1 1 7.324 8.372l-31.691 27.716-2.557 32.049 12.951-12.619a5.554 5.554 0 0 1 4.344-1.559 5.567 5.567 0 0 1 4.024 2.257l43.842 59.887a5.562 5.562 0 0 1-4.482 8.848z" class="P"/><path d="m649.327 279.562 57.031 39.893-14.414 75.586-50.237-26.097-38.395 47.844c25.294-48.92 42.265-95.182 46.014-137.225h.001z" class="F"/><path d="M603.309 422.348a5.562 5.562 0 0 1-4.335-9.043l38.396-47.844a5.564 5.564 0 0 1 6.901-1.455l43.609 22.655 13.015-68.249a5.56 5.56 0 1 1 10.926 2.084l-14.414 75.586a5.56 5.56 0 0 1-8.026 3.893l-46.19-23.995-35.541 44.287a5.552 5.552 0 0 1-4.34 2.081h-.002z" class="P"/><path d="M546.403 992.895a5 5 0 0 1-3.815-8.229c.918-1.086 1.563-1.622 2.146-2.079l.171-.137c.081-.077.57-.607 2.25-3.423l1.186-1.958c4.173-6.847 4.375-7.964 1.965-10.873-61.479-74.205-277.743-160.487-279.92-161.35a5.001 5.001 0 0 1-2.807-6.49 5.003 5.003 0 0 1 6.49-2.807c.55.218 55.646 22.126 117.725 53.059 83.713 41.713 139.635 79.129 166.213 111.209 7.236 8.734 2.793 16.024-1.127 22.456l-1.138 1.879c-2.537 4.253-3.463 5.226-4.838 6.304-.244.192-.346.271-.681.667a4.984 4.984 0 0 1-3.82 1.771z" class="K"/><path d="M976.476 588.83c-16.276-21.497-63.25-126.808-92.343-168.019-27.333-38.718-55.911-76.68-101.671-89.018-120.022-32.362-22.567 150.566-25.672 244.336-1.09 32.918 8.681 65.295 27.091 92.606 8.054 11.948 15.514 21.789 19.547 26.203 72.044 78.849 236.44-10.635 181.155-83.653z" class="F"/><g class="C"><path d="M702.312 764.555c12.371 24.535-5.324 52.126-18.093 58.932-2.349 10.061-21.28 28.208-33.856 35.531-10.235 5.959-25.163 11.845-34.739 14.115-51.014 12.093-98.026-82.089-77.072-93.382l84.592-45.447s47.927-31.704 79.166 30.251h.001z"/><path d="M538.553 779.751c-19.437 9.005-34.562 53.796-36.582 65.171-1.599 9.004 3.181 18.897 21.824 66.02 7.373 18.636 38.569 8.098 30.659-12.772l-16.095-42.466 28.212-55.508-28.016-20.447h-.001z"/><path d="M556.849 795.844s-26.602 47.004-28.088 54.333 1.496 15.528 16.696 70.134c4.799 17.239 36.578 9.952 31.698-9.324l-13.183-52.078 25.698-48.465-32.822-14.602h.001z"/><path d="M567.768 809.82s-18.708 48.411-19.281 56.542 5.368 19.175 20.996 56.131c7.459 17.638 38.029 4.849 30.376-13.654l-16.687-40.345 16.512-43.862-31.915-14.81h-.001z"/><path d="M591.411 841.342s3.064-5.77-11.915 23.672c-6.304 12.39-.165 29.619 8.481 33.709 26.863 12.705-5.557-2.628 20.247 9.609 19.73 9.357 32.509-19.691 13.429-29.198a104.445 104.445 0 0 1-6.832-3.718l12.149-15.193-35.559-18.883z"/></g><path d="M595.645 909.394a5.602 5.602 0 0 1-2.247-.471c-22.452-9.792-26.158-31.737-23.219-43.268 4.016-15.761 10.062-36.953 10.123-37.164a5.629 5.629 0 0 1 10.823 3.091l-10.039 36.853c-1.709 6.707.152 22.906 16.811 30.172a5.627 5.627 0 0 1-2.253 10.787h-.001zm19.171-28.349a5.62 5.62 0 0 1-2.686-.685l-12.387-6.742a5.625 5.625 0 0 1-2.252-7.633 5.626 5.626 0 0 1 7.633-2.253l12.387 6.742a5.625 5.625 0 0 1 2.252 7.633 5.628 5.628 0 0 1-4.948 2.939zm-71.504 43.707a5.63 5.63 0 0 1-5.344-3.866l-15.072-46.601c-4.4-14.947-4.524-25.851-.388-34.317l18.658-38.195a5.629 5.629 0 0 1 10.114 4.941l-18.658 38.195c-2.826 5.786-2.486 14.111 1.072 26.198 2.427 8.242 14.838 45.875 14.963 46.253a5.628 5.628 0 0 1-5.345 7.393h.002zm28.442 7.108a5.632 5.632 0 0 1-5.171-3.4l-19.877-46.081c-4.502-10.824-2.662-22.327-1.064-26.907l14.333-41.071a5.628 5.628 0 0 1 10.626 3.708l-14.333 41.071c-.831 2.382-2.468 10.949.8 18.808l19.849 46.013a5.626 5.626 0 0 1-5.165 7.857h.001z" class="E"/><g class="F"><path d="M945.93 755.549c-20.195 8.036-50.463 16.863-78.249 26.919-22.422 8.115-22.554 10.037-50.292 26.234-33.357 19.478-65.935 25.11-92.284-7.113-3.96-4.842-56.793-69.784-63.124-96.385-1.967-8.268 2.898-16.226 7.713-22.059 17.6-21.323 82.248-64.695 145.765-91.56 30.16-12.756 47.817-21.457 60.975-29.356 42.614-25.585 74.823-7.549 90.72 11.609 15.205 18.322 41.347 72.665 28.588 116.404s-42.724 62.487-49.812 65.308zM180.405 269.536c3.919-.01 3.456-.207 5.795 1.042 3.54 1.891 6.618 4.295 8.964 8.071 7.884 12.689 12.519 34.702 11.045 40.957-1.046 4.439-17.057 14.861-53.625 25.295-33.622 9.593-86.021 7.387-92.272 4.261-13.572-6.786-8.935-51.168-5.057-56.016 15.014 9.383 52.862 4.727 85.823-3.513 15.359-3.84 26.72-11.36 26.72-11.36 3.311-2.013 9.053-8.728 12.607-8.737z"/><path d="M697.652 694.079c-2.271-11.635-39.875 5.577-42.242 19.789-10.485 25.204 27.133 88.833 29.661 92.757 15.781 24.492 23.554 30.673 31.504 31.138 8.641.506 50.903-7.149 62.99-29.685.709-6.161-22.397-15.222-47.686-44.906-21.367-25.079-31.934-57.344-34.228-69.095z"/></g><g class="P"><path d="M104.754 357.725c-28.438 0-49.578-4.315-50.514-4.51a5 5 0 0 1-3.88-5.909 5.006 5.006 0 0 1 5.91-3.883c.927.193 93.32 18.686 147.115-23.244a4.997 4.997 0 0 1 7.017.87 4.998 4.998 0 0 1-.87 7.017c-30.174 23.519-70.872 29.085-99.699 29.612a272.52 272.52 0 0 1-5.079.047zm273.451 254.838a4.999 4.999 0 0 1-4.143-7.792c17.094-25.408 17.58-62.918 17.583-63.294a5 5 0 0 1 4.999-4.961h.04a5 5 0 0 1 4.961 5.039c-.013 1.657-.531 40.92-19.286 68.798a4.995 4.995 0 0 1-4.153 2.21zm276.623 114.339a4.964 4.964 0 0 1-2.378-.606 4.988 4.988 0 0 1-2.02-6.744c.523-.976 13.089-23.646 48.513-27.631 6.949-4.97 43.858-31.214 58.784-38.786 10.694-5.426 28.825-11.271 46.414-15.749-14.344-19.68-57.595-81.499-61.898-117.067a5 5 0 0 1 9.927-1.201c4.245 35.092 52.238 101.779 62.524 115.73 9.153-2.067 17.688-3.638 24.363-4.432 3.088-.374 5.289 1.854 5.646 4.213.267 1.771-.045 4.892-5.13 5.902l-3.112.601-9.345 1.746-13.441 2.476c-19.027 4.482-40.126 10.968-51.425 16.699-15.479 7.854-58.124 38.455-58.553 38.764a5.006 5.006 0 0 1-2.433.916c-30.893 3.01-41.6 21.779-42.04 22.577a5.023 5.023 0 0 1-4.397 2.593z"/><path d="M764.077 826.424a4.99 4.99 0 0 1-3.893-1.858c-25.015-30.974-60.731-119.885-62.24-123.654a5.002 5.002 0 0 1 2.785-6.5 5.002 5.002 0 0 1 6.5 2.785c.363.909 36.663 91.28 60.734 121.086a5 5 0 0 1-3.887 8.141z"/></g><g class="L"><path d="M645.577 209.086c-2.547-1.067-16.169-34.86 14.208-35.318.973-.015 4.16 5.373 3.913 5.365-7.104-.159-12.502 1.837-14.371 6.27-3.431 8.138 5.81 18.721 5.638 19.092-.798 1.906-8.746 4.859-9.388 4.591z"/><path d="M642.548 217.837c-.626-2.448-.079-5.045 1.313-7.154 2.896-4.387 9.263-12.735 16.821-14.618 5.606-1.397 7.949 4.375 6.874 8.43-1.239 4.675-11.623 9.893-15.28 13.057-3.166 2.739-8.308 5.835-9.728.285z"/></g><path d="M544.228 214.999c-2.634-1.015-12.686 7.738-24.999 11.679s-26.891 3.07-27.041 6.092c-.298 6.045 19.286 15.968 35.733 9.22 16.833-6.908 21.576-24.963 16.307-26.991" class="I"/></svg></g><g transform="matrix(1.109846 0 0 1.110467 80 481.111111)"><svg width="380.433" height="1344.78"><path d="m197.458 469.908 29.421 6.177-169.985 809.787-29.421-6.176z" class="F"/><path d="M315.678 8.406c-43.884-17.444-85.535 52.761-57.837 91.009l64.811 97.002 57.781-144.118z" class="G"/><g class="M"><path d="m191.176 479.815 25.03-119.237 37.477 7.867-25.03 119.237zM343.995 33.333 216.204 360.577l37.477 7.867L380.433 52.299l-28.919-15.052z"/><path d="M238.287 315.273s-18.395 16.977-43.282 3.13-69.711-12.543-69.711-12.543-47.519 20.988-6.829 49.649c0 0 11.309 14.589 26.153 5.49 0 0 7.324 13.034 23.544 4.224 0 0 12.445 14.828 24.257 3.655 0 0 30.479 12.865 30.122 21.413s15.747-75.017 15.747-75.017z"/></g><g class="G"><path d="M130.84 337.629c-2.912 13.874-15.004 30.865-25.077 28.75s-14.312-22.534-11.4-36.407 16.328-37.171 26.401-35.057 12.988 28.84 10.076 42.713z"/><rect height="43.321" rx="6.162" transform="matrix(.978671 .205436 -.205436 .978671 242.16 11.573)" width="43.321" x="43.687" y="1150.334"/><path d="M44.205 1327.937l-21.792-4.574c-7.485-1.571-12.096-9.129-10.068-16.503l7.52-27.353a13.27 13.27 0 0 1 15.52-9.468l18.098 3.799a13.27 13.27 0 0 1 10.422 14.774l-3.826 28.128c-1.038 7.632-8.335 12.78-15.874 11.197z"/><rect height="27.426" rx="5.957" transform="matrix(.978671 .205436 -.205436 .978671 273.07 21.348)" width="65.4" x="1.024" y="1312.024"/></g><path d="M285.943 3.363c-43.884-17.444-91.807 36.788-64.109 75.036l68.632 94.774 53.529-139.84-58.053-29.97zm-30.444 65.002c-11.661-2.448-19.129-13.884-16.681-25.545s13.885-19.129 25.545-16.681 19.129 13.884 16.681 25.545-13.885 19.129-25.545 16.681z" class="M"/></svg></g></svg>