<svg xmlns="http://www.w3.org/2000/svg" width="3000" height="1885" xmlns:v="https://vecta.io/nano"><style><![CDATA[.B{fill:#ea2688}.C{fill:#111}.D{fill:#f4bbab}.E{fill:#a85f36}.F{fill:#e09273}.G{fill:#b7006d}.H{fill:#773a11}.I{fill:#4f2000}.J{fill:#ff5cf0}.K{fill:#cc2bc5}]]></style><g transform="matrix(.857614 0 0 .85806 278.571429 468)"><svg width="2893.408" height="1256.656"><path d="M1398.399 962.184c-397.728 72.7-926.355 256.741-1121.501-79.219-131.061-225.634-78.016-520.45 386.935-791.789 460.722-268.871 956.81 136.017 1446.405 202.708 358.036 48.771 954.846 280.104 519.686 671.905-328.823 296.06-961.276-53.003-1231.524-3.605zM231.971 300.641C-6.25 465.986-43.037 675.244 40.78 823.937c23.224 41.199 56.378 73.1 97.471 97.547-102.409-180.743-100.933-399.801 93.72-620.843zm2575.806 731.602c-261.536 235.477-689.052 118.29-1032.383 40.538 185.048 87.085 388.894 206.537 701.149 180.15 195.277-16.502 367.791-144.317 416.864-309.384-23.472 28.725-51.863 58.292-85.63 88.695z" fill="#ffd215"/></svg></g><g transform="matrix(.856742 0 0 .85686 1500 84.857143)"><svg width="1589.743" height="1531.506"><clipPath id="A"><path d="M676.336 318.429c-7.42 23.945-16.121 56.354-23.912 87.633-11.321 45.451 57.164 13.578 67.596-19.283 16.099-50.708-38.357-85.544-43.685-68.35z"/></clipPath><clipPath id="B"><ellipse cx="664.287" cy="365.586" rx="30.997" ry="29.226" transform="matrix(.205128 -.978735 .978735 .205128 170.209 940.752)"/></clipPath><clipPath id="C"><ellipse cx="783.81" cy="384.308" rx="36.886" ry="34.78" transform="matrix(.205128 -.978735 .978735 .205128 246.889 1072.616)"/></clipPath><g class="D"><path d="M1132.718 1321.128c-16.87-3.887-24.447-41.579-33.923-45.761s-42.21-9.495-53.458-18.448c-19.835-15.788-44.215 10.621-22.419 29.275 15.647 13.391 36.785 25.433 36.785 25.433s-.792 65.042 47.502 61.989 25.513-52.488 25.513-52.488z"/><rect height="315.327" rx="88.478" transform="matrix(.994312 -.106507 .106507 .994312 -56.428 89.798)" width="176.956" x="723.969" y="415.498"/></g><path d="M1045.338 1256.921c-21.858-103.065-453.274-125.694-506.453-54.373-34.136 49.261-61.375 133.693-72.127 179.648-15.815 35.731-23.539 66.603-24.952 93.324 215.037 48.157 450.059 89.881 634.902 15.189a156.48 156.48 0 0 0 1.118-21.912c-5.638-67.723-16.512-138.373-32.488-211.876z" fill="#2471ed"/><path d="M688.863 1511.639a7.501 7.501 0 0 1-7.422-6.492c-3.158-23.256-8.371-86.001-7.515-128.247.084-4.142 3.545-7.414 7.65-7.347a7.5 7.5 0 0 1 7.346 7.65c-.84 41.469 4.28 103.083 7.382 125.925a7.5 7.5 0 0 1-7.442 8.51z" fill="#004ebf"/><path d="M538.884 1202.547s-20.992 33.178-29.3 54.399 86.096 65.742 173.389 77.575c107.167 14.527 295.944 16.948 376.592-5.271l-14.228-72.329s-280.86-.158-352.288-8.564c-110.843-13.044-154.166-45.809-154.166-45.809z" fill="#e3e5e5"/><path d="M712.599 1350.774c-9.121 0-18.894-.777-27.531-1.91-15.012-1.968-41.477-6.879-50.05-17.664-8.538-10.74-8.403-33.974-8.159-40.839.322-9.059 2.159-31.013 12.223-39.209 7.037-5.73 25.447-6.95 54.714-3.629 4.291.487 42.217 4.985 52.394 12.857 11.414 8.829 8.713 40.186 7.613 49.586-2.48 21.203-7.51 33.663-14.948 37.034-6.032 2.734-15.708 3.774-26.255 3.774zm-64.083-87.959c-2.439 2.059-6.097 12.073-6.667 28.08-.555 15.58 2.051 27.374 4.911 30.972 2.442 3.073 15.18 8.838 40.257 12.125 21.976 2.881 39.164 1.952 45.223-.474 1.906-2.216 5.75-12.887 7.179-30.493 1.542-18.992-1.047-29.044-2.513-30.859-3.224-2.297-20.061-6.864-43.95-9.641-27.22-3.165-41.676-1.507-44.439.29zm88.338 9.291z" class="C"/><path d="M725.959 596.458c-31.313.526-156.291-5.146-162.7 24.238s-76.92 523.236-24.375 581.851 131.56 51.546 169.854 50.422c32.059 20.484 110.597 29.476 171.258 16.591 0 0 155.003 9.658 168.246-23.05 30.478-75.272-1.616-197.233 3.776-350.323 2.726-77.409 1.801-212.123-28.74-239.107s-115.489-24.551-115.489-24.551l-181.832-36.071z" fill="#5917c1"/><path d="M557.195 570.999c-44.137-4.012-78.915 11.872-129.844 11.169s-70.46-8.323-106.675-12.896-69.974 8.585-126.226 33.134-106.088 206.15-40.587 233.896c50.942 21.579 79.958-4.801 114.944 1.291s82.357 6.514 130.876.682c26.84 10.99 77.738 26.099 126.756 8.917s30.755-276.193 30.755-276.193z" class="B"/><path d="M9.98 368.502c7.762-19.121 159.954-23.314 184.097-10.001 41.61 22.946-196.859 41.442-184.097 10.001z" class="C"/><path d="M203.801 309.578c11.198 63.904 23.451 191.847 32.68 256.051 9.405 65.425-185.736 108.968-185.837 44.328l-1.907-293.506c-.245-49.051 145.328-62.44 155.065-6.872z" class="D"/><g class="B"><path d="M153.864 836.302c-71.492-27.895-126.118-66.84-110.392-198.778 0 0-28.588-36.013-25.275-77.481 2.502-31.321 21.782-107.559 22.201-128.145s183.051-46.177 184.832-26.314c4.66 51.975 37.2 68.16 9.141 110.385 32.984 14.08 43.133 55.774 13.09 140.106-32.86 92.238-93.598 180.228-93.598 180.228z"/><path d="M216.156 350.536c18.182.479 28.061 64.864 24.056 77.354-2.16 6.737-28.199 20.898-86.032 32.562-53.174 10.724-133.945.902-143.231-4.697-20.16-12.155-7.56-80.231-.97-87.253 22.074 16.349 81.18 13.777 133.165 5.065s58.709-23.408 73.012-23.031z"/></g><g class="D"><path d="M203.801 309.578c-2.764-31.576-1.675-85.386 13.394-125.741s-139.899-23.291-149.532 8.402-32.676 92.849-18.927 124.211 155.065-6.872 155.065-6.872z"/><path d="M67.663 192.239c2.956-17.111 4.921-53.904 4.921-53.904S59.82 116.21 52.24 104.539C40.203 86.006 67.373 66.805 83.128 89.941c10.118 14.857 21.961 29.066 24.065 39.886s-.314 53.255-.314 53.255l-39.215 9.157z"/><path d="M141.489 177.85c1.704-15.974 8.296-59.84 5.754-72.753s-28.715-51.058-34.232-58.218C96.213 25.078 70.399 49.284 87.193 75.8c14.981 23.653 24.319 45.264 24.319 45.264l-7.728 61.774 37.704-4.988z"/><path d="M176.091 174.858c3.001-12.133 12.314-62.09 8.445-76.532-4.448-16.6-25.033-63.694-30.001-75.002C142.143-4.882 104.898 3.8 117.156 39.865s24.537 62.712 24.537 62.712l-5.918 74.82 40.316-2.54z"/><path d="M217.195 183.837c8.5-19.813 7.126-81.817 3.489-94.486-4.207-14.653-19.836-52.456-31.008-75.83s-49.652-15.764-39.859 17.562 28.984 69.751 28.984 69.751l-8.861 72.679 47.255 10.323z"/></g><path d="M169.95 181.015a7.5 7.5 0 0 1-7.455-8.409l8.586-70.415c-2.567-5.108-9.374-18.923-15.889-34.454-15.294-36.463-14.994-48.824-13.439-54.949a7.5 7.5 0 0 1 14.539 3.691c-.56 2.203-1.297 11.987 12.699 45.376 7.841 18.704 16.396 35.384 16.48 35.55a7.494 7.494 0 0 1 .775 4.337l-8.861 72.679a7.502 7.502 0 0 1-7.436 6.593zm-34.167 3.883a7.5 7.5 0 0 1-7.485-8.092l5.778-73.056-18.192-44.975a7.5 7.5 0 0 1 4.141-9.765 7.499 7.499 0 0 1 9.766 4.14l18.855 46.615a7.501 7.501 0 0 1 .523 3.404l-5.918 74.82a7.501 7.501 0 0 1-7.469 6.909zm-28.902 5.684-.145-.001a7.499 7.499 0 0 1-7.357-7.64l.902-47.881c.078-4.141 3.478-7.445 7.641-7.357a7.499 7.499 0 0 1 7.357 7.64l-.902 47.881a7.5 7.5 0 0 1-7.496 7.359z" class="F"/><path d="M196.509 235.763c-13.051-44.739-34.811-77.495-43.059-93.148-14.689-27.879-57.016-14.38-37.182 28.718l25.609 57.226c-27.696 13.879-30.345 46.347-29.015 69.908" class="D"/><path d="M112.856 305.968a7.5 7.5 0 0 1-7.481-7.077c-2.004-35.495 7.057-60.156 26.947-73.44l-22.866-50.982c-12.007-26.09-3.802-44.464 9.656-51.101 12.749-6.285 31.562-2.114 40.975 15.751 1.527 2.9 3.595 6.51 5.988 10.69 10.043 17.535 26.85 46.884 37.635 83.854a7.5 7.5 0 1 1-14.401 4.2c-10.285-35.26-25.911-62.545-36.251-80.6l-6.243-11.152c-5.346-10.146-14.842-12.36-21.069-9.291-8.468 4.176-9.514 16.492-2.663 31.377l25.668 57.357a7.499 7.499 0 0 1-3.512 9.709c-18.605 9.324-26.746 29.859-24.888 62.78a7.5 7.5 0 0 1-7.495 7.923z" class="F"/><path d="M399.68 845.775a7.472 7.472 0 0 1-4.825-1.761c-13.895-11.692-27.18-27.567-38.9-41.574-11.829-14.136-23.002-27.488-30.394-31.146a7.5 7.5 0 0 1 6.653-13.444c10.219 5.056 21.816 18.916 35.245 34.964 11.326 13.535 24.163 28.876 37.055 39.723a7.5 7.5 0 0 1-4.833 13.238zM252.427 648.883a7.5 7.5 0 0 1-7.08-9.978c8.043-22.998 10.463-42.193 12.791-64.898a7.51 7.51 0 0 1 8.226-6.696 7.499 7.499 0 0 1 6.696 8.226c-2.43 23.699-4.971 43.778-13.555 68.32a7.502 7.502 0 0 1-7.079 5.026zM99.714 469.971c-30.561 0-60.67-.973-62.779-1.042a7.5 7.5 0 0 1-7.249-7.743 7.52 7.52 0 0 1 7.743-7.249c.866.028 86.993 2.811 115.786-.922 27.474-3.563 52.383-13.696 75.209-24.114a7.5 7.5 0 0 1 6.229 13.645c-22.749 10.384-49.985 21.515-79.508 25.344-12.361 1.604-34.009 2.082-55.431 2.082z" class="G"/><path d="M725.077 588.225c-10.623 18.196-31.179 77.3 28.983 91.73 52.302 12.545 132.322-22.76 153.731-47.426-17.471-31.234-182.714-44.304-182.714-44.304zm-35.55-304.733c-14.114 21.699-56.928 197.789-58.582 222.335-2.357 34.971 111.607 69.962 205.213 38.021 53.501-18.256 93.774-134.625 71.412-209.028-27.759-92.36-178.123-112.701-218.043-51.328z" class="D"/><path d="M885.311 434.648c-7.572 9.253-21.503 10.132-18.134-7.424s23.031-42.983 8.45-65.699c-15.826-24.657-20.118-74.017-41.384-85.426-62.056-33.292-132.25-13.76-144.717 7.393-14.64 4.426-33.878-61.124 3.275-88.55 0 0 .445 27.759 19.761 33.907 0 0 1.508-44.107 30.635-70.187 0 0 .515 18.524 10.388 27.225 1.694-13.068 25.913-10.492 38.111 18.196.934-11.807 17.025-26.507 27.088 8.744 0 0 33.742-.667 44.085 35.171 0 0 59.38 33.741 70.061 65.61 0 0-.704-24.479 6.563-24.564s7.25 125.331-11.933 150.877-42.25-5.273-42.25-5.273zM695.363 316.794c15.576 1.232 20.121-22.772 6.711-23.594-8.429-.517-37.042 1.099-47.547 11.319-6.812 6.627-10.023 16.055 2.269 14.391s23.629-3.298 38.567-2.117z" class="C"/><g fill="#656c72"><path d="M779.498 448.574a62.46 62.46 0 0 1-4.938-.195c-16.335-1.292-31.19-8.868-41.828-21.333s-15.784-28.326-14.492-44.662 8.868-31.191 21.333-41.829 28.336-15.786 44.661-14.492c33.723 2.667 58.988 32.272 56.321 65.995-1.292 16.336-8.868 31.19-21.333 41.828-11.204 9.562-25.154 14.688-39.725 14.688zm-.175-107.705c-11.009 0-21.548 3.872-30.013 11.097a46.04 46.04 0 0 0-5.168 65.343c8.036 9.417 19.26 15.141 31.602 16.117s24.324-2.912 33.741-10.949a46.04 46.04 0 0 0 5.168-65.343 46.04 46.04 0 0 0-31.601-16.117 47.153 47.153 0 0 0-3.729-.147zm53.756 50.598h.01zm-175.984 35.434a57.1 57.1 0 0 1-4.512-.179c-31.163-2.464-54.511-29.823-52.047-60.987s29.814-54.515 60.987-52.047c31.163 2.465 54.511 29.824 52.047 60.987-2.346 29.649-27.226 52.226-56.476 52.226zm-.072-98.391c-21.513 0-39.808 16.602-41.533 38.408-1.813 22.918 15.358 43.039 38.276 44.851 22.93 1.815 43.036-15.36 44.852-38.276s-15.358-43.038-38.277-44.851a42.053 42.053 0 0 0-3.317-.131zm49.071 45.574h.01z"/><path d="M725.718 390.475h-.1a7.503 7.503 0 0 1-7.366-6.755c-.587-.472-2.047-1.219-3.929-1.313-1.352-.067-2.504.239-3.044.823a7.5 7.5 0 1 1-11.012-10.186c6.005-6.491 15.469-6.69 22.185-4.01s10.841 8.061 10.763 14.04a7.501 7.501 0 0 1-7.497 7.402zm-7.501-7.598v.003zm200.966 45.021a7.47 7.47 0 0 1-5.039-1.947c-10.14-9.205-53.691-22.581-82.232-27.075a7.5 7.5 0 1 1 2.334-14.817c22.913 3.608 74.521 16.752 89.98 30.786a7.5 7.5 0 0 1-5.043 13.053z"/></g><path d="M877.74 443.901c20.252-30.718 63.412-33.93 66.911 5.292s-34.241 57.36-55.318 48.432-24.439-34.239-11.593-53.724z" class="D"/><g class="F"><path d="M892.064 477.649a7.5 7.5 0 0 1-7.485-8.092c1.422-17.976 13.325-29.817 36.392-36.201a7.501 7.501 0 0 1 4.001 14.457c-21.41 5.925-24.843 15.365-25.44 22.927a7.501 7.501 0 0 1-7.469 6.909z"/><path d="M910.807 471.943a7.498 7.498 0 0 1-6.554-3.843l-7.489-13.402a7.5 7.5 0 1 1 13.094-7.317l7.489 13.402a7.5 7.5 0 0 1-6.54 11.16zm-191.611 20.952c-3.382 0-6.079-.217-7.771-.404a7.5 7.5 0 0 1-6.63-8.279 7.496 7.496 0 0 1 8.278-6.63c11.38 1.257 27.54-.808 38.76-10.381a7.5 7.5 0 0 1 9.736 11.41c-14.2 12.119-31.696 14.285-42.373 14.285z"/></g><path d="M766.947 322.527c-16.519 3.604-22.478-21.056-4.891-23.261 22.335-2.801 58.644 5.767 70.378 21.192s6.001 22.447-4.924 16.551-38.432-19.31-60.563-14.482z" class="C"/><path d="M753.707 564.054c-12.154 0-23.693-.803-33.555-2.504a7.5 7.5 0 1 1 2.551-14.781c31.416 5.42 83.162.789 110.742-9.912a7.5 7.5 0 0 1 5.426 13.984c-21.464 8.328-55.182 13.213-85.164 13.213z" class="F"/><path d="M712.795 406.492c-14.545-23.267-35.618-10.238-24.321 17.469" class="D"/><path d="M688.477 431.463a7.503 7.503 0 0 1-6.948-4.67c-8.009-19.642-2.259-33.21 6.993-37.943 8.33-4.262 21.033-1.69 30.633 13.667a7.499 7.499 0 1 1-12.719 7.951c-4.555-7.284-9.225-9.217-11.082-8.265-2.554 1.306-4.299 8.225.065 18.927a7.5 7.5 0 0 1-6.942 10.333z" class="F"/><g clip-path="url(#A)"><ellipse cx="664.287" cy="365.586" fill="#fff" rx="30.997" ry="29.226" transform="matrix(.205128 -.978735 .978735 .205128 170.209 940.752)"/><g clip-path="url(#B)"><ellipse cx="666.015" cy="359.264" rx="27.288" ry="16.707" transform="matrix(.205128 -.978735 .978735 .205128 177.77 937.419)" class="C"/></g></g><ellipse cx="783.81" cy="384.308" fill="#fff" rx="36.886" ry="34.78" transform="matrix(.205128 -.978735 .978735 .205128 246.889 1072.616)"/><g clip-path="url(#C)"><ellipse cx="779.331" cy="377.246" rx="30.483" ry="20" transform="matrix(.205128 -.978735 .978735 .205128 250.242 1062.618)" class="C"/></g><path d="M512.018 842.999c-20.05 73.838-40.358 150.935-22.683 286.785 0 0-30.969 59.857-39.806 88.672s-6.8 168.893-28.133 217.489l-14.389 31.703 87.856 19.484c27.929-43.712 57.829-97.948 77.946-155.08 35.298-100.245 103.081-363.502 140.774-579.141-25.174-122.316 12.374-156.452 12.374-156.452-34.462-4.887-132.702-25.328-168.764-25.458S532.066 769.162 512.016 843z" class="B"/><path d="M502.877 885.072a7.5 7.5 0 0 1-7.322-9.155c9.806-43.377 18.934-101.627 21.704-138.504a7.491 7.491 0 0 1 8.04-6.917 7.5 7.5 0 0 1 6.917 8.041c-2.863 38.123-11.923 95.976-22.03 140.688a7.504 7.504 0 0 1-7.309 5.848zm-13.548 252.212a7.501 7.501 0 0 1-6.403-11.396c.219-.36 22.156-36.664 45.367-91.973a7.501 7.501 0 0 1 13.832 5.805c-23.678 56.42-45.466 92.454-46.382 93.96a7.494 7.494 0 0 1-6.415 3.604z" class="G"/><path d="M1109.427 653.207c-48.104-8.81-203.98-42.553-203.98-42.553-23.026 61.656-34.508 91.19-84.26 137.322-18.538 102.392-15.366 373.175-7.897 547.696 3.399 79.442 18.977 165.545 34.941 235.79 92.178-.92 179.94-15.844 257.589-53.7-9.718-103.373-10.357-180.918-35.438-236.834 28.462-45.264 30.101-99.551 15.466-182.998-19.566-111.557 71.683-395.914 23.579-404.724z" class="B"/><path d="M1070.38 1248.43a7.503 7.503 0 0 1-7.132-5.188c-16.892-52.07-15.243-105.7-14.039-144.859.457-14.854.852-27.681.189-37.68a7.498 7.498 0 0 1 6.987-7.979 7.492 7.492 0 0 1 7.979 6.988c.71 10.724.306 23.889-.163 39.132-1.17 38.058-2.773 90.181 13.313 139.769a7.5 7.5 0 0 1-7.135 9.816z" class="G"/><path d="M708.733 1260.469a7.5 7.5 0 0 1-.352-14.992c26.776-1.282 55.227-14.654 55.511-14.789a7.5 7.5 0 0 1 9.991 3.555 7.499 7.499 0 0 1-3.548 9.991c-1.268.604-31.395 14.798-61.237 16.226a7.4 7.4 0 0 1-.364.009z" fill="#330096"/><path d="m725.959 596.458-3.765-35.143-87.418 65.038-10.838 67.787 35.273-29.321 54.374 88.092c-4.351-57.02-.276-109.2 12.374-156.452z" class="B"/><path d="M713.591 760.411a7.495 7.495 0 0 1-6.389-3.562l-49.839-80.743-28.633 23.8a7.5 7.5 0 0 1-12.2-6.952l10.839-67.787a7.5 7.5 0 0 1 2.93-4.833l49.645-36.935a7.5 7.5 0 1 1 8.953 12.035L641.7 630.548l-7.205 45.062 19.922-16.559a7.497 7.497 0 0 1 11.176 1.828l54.374 88.091a7.5 7.5 0 0 1-6.375 11.441z" class="G"/><path d="m900.26 562.231 74.912 61.741-28.355 103.513-66.981-41.811-58.648 62.302c40.55-65.239 69.234-127.698 79.072-185.745z" class="B"/><path d="M821.187 755.476a7.5 7.5 0 0 1-5.46-12.641l58.647-62.302a7.5 7.5 0 0 1 9.433-1.222l58.438 36.478 25.693-93.799a7.496 7.496 0 0 1 9.215-5.252 7.5 7.5 0 0 1 5.252 9.215l-28.354 103.513a7.499 7.499 0 0 1-11.205 4.381l-61.764-38.555-54.433 57.824a7.478 7.478 0 0 1-5.462 2.359z" class="G"/><path d="M1109.428 653.207c58.204 4.604 123.13 90.468 226.97 129.007 19.469 7.226 48.597 34.069 71.97 74.387 54.989 57.473 123.416 118.756 147.077 155.433 30.786 47.722-118.469 119.213-209.9 89.732s-154.889-71.051-180.774-125.542c0 0-76.863-47.805-113.195-63.189s57.852-259.827 57.852-259.827z" class="B"/><path d="m1138.052 1321.745 186.155-137.042c35.75-26.612 140.704 109.066 104.954 135.678l-248.062 148.307c-31.795 17.49-68.828-112.82-43.047-146.943z" class="D"/><g class="B"><path d="M1555.445 1012.033c32.652 42.602 56.862 166.255.759 231.965-40.363 47.275-98.186 72.937-129.385 94.401 6.005 34.546-44.493 51.812-92.278 70.656-43.726 17.243-140.63-108.062-132.918-137.175 11.64-43.937 60.579-81.942 94.699-96.443 0 0-6.274-73.567 63.387-97.367l195.735-66.036z"/><path d="M1212.073 1247.39c-4.353-17.869-61.399 11.498-64.05 33.692s14.365 80.549 56.932 129.964c34.37 39.9 58.412 59 71.841 59.166s69.284-35.918 70.386-52.008c.657-9.599-35.8-21.988-77.117-66.181-34.909-37.339-53.595-86.586-57.991-104.634z"/></g><g class="D"><path d="M1138.052 1321.745c-25.512-.835-50.601-4.007-72.118-11.906s-39.709 134.521-11.753 148.604c42.698 21.51 91.481 30.748 126.919 10.245 24.386-14.109-43.047-146.943-43.047-146.943z"/><path d="M1065.933 1309.838c-18.585-10.974-79.141-30.818-89.488-26.148s-54.484 51.361-61.756 60.078c-13.713 16.436 14.38 39.713 32.239 22.067a7702.101 7702.101 0 0 0 36.36-36.203l69.481 20.55 13.165-40.343z"/><path d="M1066.729 1350.288c-16.426-6.787-69.829-26.483-81.272-26.889s-69.572 46.511-79.178 54.211c-21.316 17.085 2.485 53.979 28.65 35.193l51.943-37.906 72.355 19.721z"/><path d="M1070.901 1379.104c-12.368-6.713-65.653-17.495-79.472-11.678s-56.176 34.519-69.144 43.385c-17.839 12.196-1.72 50.05 23.8 34.702a7370.752 7370.752 0 0 1 50.429-30.053l67.891 10.833 6.496-47.19z"/><path d="M1072.121 1418.563c-8.812-4.914-48.869-16.907-58.254-14.583s-38.322 28.013-47.162 36.371c-15.118 14.293 4.353 38.324 31.503 21.047 14.69-9.348 25.43-15.624 25.43-15.624l30.542 12.668 17.942-39.879z"/></g><path d="M980.872 1435.148a7.5 7.5 0 0 1-4.624-13.409c2.635-2.06 25.979-20.246 34.216-24.441 4.028-2.052 10.788-3.067 32.77 3.36 11.849 3.464 24.468 8.059 31.675 10.942a7.5 7.5 0 1 1-5.572 13.927c-22.136-8.855-46.872-15.808-52.338-14.72-5.549 2.957-21.786 15.146-31.512 22.749a7.474 7.474 0 0 1-4.614 1.592zm35.961-24.305zm-100.299 14.309a7.5 7.5 0 0 1-7.382-8.878c.882-4.727 4.379-10.983 35.869-30.6 16.234-10.113 34.569-20.376 42.844-24.846 13.001-7.024 40.766-.481 70.496 7.456 6.053 1.616 11.279 3.011 13.758 3.419a7.5 7.5 0 0 1-2.435 14.801c-3.203-.527-8.493-1.939-15.191-3.728-15.16-4.047-50.662-13.525-59.497-8.751-31.189 16.849-66.968 39.084-71.278 45.755a7.505 7.505 0 0 1-7.183 5.371zm1.818-49.655a7.5 7.5 0 0 1-4.383-13.591c5.776-4.15 56.774-40.687 68.696-45.467 10.235-4.108 33.096 4.086 74.431 21.696l12.365 5.169a7.5 7.5 0 0 1-5.465 13.97c-3.043-1.19-7.555-3.113-12.779-5.339-10.494-4.471-24.867-10.594-37.628-15.169-19.604-7.03-24.719-6.501-25.457-6.357-7.951 3.295-44.27 28.489-65.409 43.679a7.467 7.467 0 0 1-4.371 1.41zm177.616-50.304a7.52 7.52 0 0 1-1.446-.141l-3.102-.575c-10.831-1.968-30.991-5.629-41.521-14.317a7.502 7.502 0 0 1-1.012-10.558 7.502 7.502 0 0 1 10.559-1.012c7.513 6.199 26.533 9.654 34.655 11.129a277.3 277.3 0 0 1 3.298.612 7.501 7.501 0 0 1-1.431 14.862z" class="F"/><path d="M1095.541 942.91a7.468 7.468 0 0 1-3.546-.896c-22.377-12.035-43.441-22.112-43.651-22.212a7.5 7.5 0 0 1 6.465-13.535c.214.102 21.603 10.333 44.292 22.538a7.501 7.501 0 0 1-3.559 14.107zm342.401-23.52a7.497 7.497 0 0 1-6.632-3.986l-29.545-55.247a7.5 7.5 0 0 1 3.045-10.16 7.498 7.498 0 0 1 10.16 3.045l29.59 55.331a7.5 7.5 0 0 1-6.618 11.016zm-141.615 263.548a7.501 7.501 0 0 1-6.859-4.46 7.499 7.499 0 0 1 3.813-9.897c26.615-11.809 54.479-25.508 54.757-25.645a7.5 7.5 0 1 1 6.623 13.458c-.28.138-28.411 13.969-55.296 25.897a7.485 7.485 0 0 1-3.038.646zm31.725-79.589a7.5 7.5 0 0 1-4.113-13.777c19.31-12.634 50.488-24.465 73.243-32.166a7.5 7.5 0 0 1 4.809 14.208c-21.931 7.422-51.85 18.74-69.839 30.51a7.464 7.464 0 0 1-4.1 1.225zm6.486 313.205a7.476 7.476 0 0 1-4.824-1.76c-.38-.32-38.328-32.271-64.804-57.323-26.735-25.296-57.616-84.894-60.292-109.263a7.5 7.5 0 0 1 6.637-8.274 7.493 7.493 0 0 1 8.273 6.636c2.13 19.391 30.453 76.125 55.69 100.005 26.161 24.753 63.774 56.422 64.151 56.739a7.499 7.499 0 0 1 .911 10.567 7.48 7.48 0 0 1-5.743 2.672z" class="G"/></svg></g><g transform="matrix(.857616 0 0 .857734 136.285714 91.714286)"><svg width="1548.145" height="1990.628"><clipPath id="D"><path d="M725.987 1507.24c-53.773-10.088-103.447-27.226-147.487-53.501-50.623-30.202 18.987-189.037 120.718-141.539 88.875 41.496 74.885 154.616 26.769 195.039z"/></clipPath><clipPath id="E"><ellipse cx="896.427" cy="583.335" rx="28.296" ry="32.244" transform="matrix(.87384 -.486213 .486213 .87384 -170.532 509.448)"/></clipPath><clipPath id="F"><path d="M981.527 499.672c5.987 15.817 9.338 30.801 14.377 42.519 5.028 11.692 13.831 20.113 21.833 29.667 9.979 11.914-29.912 26.265-46.579 8.967-45.093-46.804-.628-110.206 10.369-81.153z"/></clipPath><clipPath id="G"><ellipse cx="986.523" cy="539.307" rx="24.577" ry="28.007" transform="matrix(.87384 -.486213 .486213 .87384 -137.759 547.699)"/></clipPath><g fill="#007a63"><path d="M1024.994 1508.199l-36.998-190.084c-21.505-107.988-310.322-8.399-318.591 35.4-7.199 24.474-14.629 72.328-21.403 132.814 107.71 38.765 238.716 38.793 376.992 21.87z"/><path d="M670.293 1493.712c1.809-69.327 1.761-122.127-.887-140.198 5.886-40.511-54.357-74.15-95.659-10.797-7.629 11.701-16.893 43.916-27.136 89.6 36.783 27.69 78.376 47.658 123.683 61.395z"/></g><g clip-path="url(#D)"><path d="M647.99 1493.832a7.5 7.5 0 0 1-7.464-8.326c6.728-60.755 14.009-105.825 21.641-133.955a7.502 7.502 0 0 1 9.202-5.274 7.499 7.499 0 0 1 5.274 9.202c-7.43 27.386-14.565 71.689-21.208 131.679a7.501 7.501 0 0 1-7.445 6.675z" fill="#005141"/></g><rect height="284.443" rx="74.909" transform="matrix(.982356 .187021 -.187021 .982356 157.975 -143.744)" width="149.819" x="765.904" y="623.158" class="E"/><g class="I"><path d="M714.512 439.997c-28.525-22.928-112.488-24.058-119.264 51.101-5.752 63.798 50.968 85.786 89.611 72.129 49.296-17.421 73.054-88.346 29.653-123.23z"/><path d="M654.655 566.774c-6.227 7.984-27.13 16.405-50.379 9.696 11.714 22.117 38.846 25.226 60.964 14.413 30.258-14.792-10.585-24.11-10.585-24.11z"/></g><path d="M895.052 419.155c85.847 30.27 86.557 89.793 100.852 123.036 11.297 26.272 41.657 36.027 39.16 79.238-2.129 36.844-9.809 82.215-30.316 96.498s-143.438 33.557-207.75-14.28c-59.887-44.546-88.335-93.699-81.873-170.294 7.158-84.845 116.814-136.452 179.927-114.198z" class="E"/><path d="M868.762 431.385c-12.466-28.605-77.302-34.985-132.188-11.133-87.279 37.927-87.329 111.718-72.696 194.321s52.349 91.023 121.715 70.08c-3.531-32.362 24.923-66.781 29.046-101.343 8.027-67.292-23.413-111.137 54.123-151.924z" class="I"/><path d="M791.288 655.222c-23.027-34.165-92.37-16.39-59.954 33.685 19.291 29.799 46.815 26.633 65.664 14.74 13.376-8.439 3.319-35.029-5.71-48.425z" class="E"/><g class="I"><path d="M802.097 405.655c20.556-11.452 103.367-36.434 141.619.382 29.244 28.146 23.6 65.314 23.6 65.314s-21.359-32.274-52.198-41.818c-21.724-6.723-46.355 1.851-46.355 1.851-9.755-17.977-31.323-25.936-66.665-25.73z"/><path d="M803.247 469.859c-11.055 56.032 10.214 71.202 2.588 118.283-5.928 36.595-18.326 45.015-8.522 95.949 10.231 53.157 55.727 71.189 55.727 71.189-15.343-12.676-31.402-50.354-33.258-75.513-2.414-32.706 18.843-70.662 30.837-96.892 26.982-59.009.191-102.974 18.144-151.489"/></g><path d="M955.621 500.1c-14.203 16.333-36.288.473-24.81-12.755s34.661-19.193 44.423-14.56 11.417 14.463 1.432 15.317-15.879 6.057-21.046 11.999zm-57.714 29.674c19.726-3.797 8.233-27.488-3.061-26.316s-47.729 14.848-56.621 28.504-2.95 34.118 8.318 22.399 32.496-20.955 51.364-24.586z" class="C"/><g class="H"><path d="M959.668 610.216a7.5 7.5 0 0 1-7.382-8.87c3.738-20.132 17.901-30.817 28.89-29.172 7.408 1.11 14.691 7.826 12.917 23.347-.47 4.115-4.187 7.061-8.304 6.6a7.501 7.501 0 0 1-6.6-8.304c.465-4.062-.119-6.148-.483-6.821-2.457.074-9.517 5.484-11.672 17.088a7.502 7.502 0 0 1-7.366 6.132zM781.532 685.62c-1.848 0-3.7-.679-5.149-2.048-9.354-8.838-25.757-13.295-33.545-12.993a7.5 7.5 0 1 1-.578-14.99c12.443-.48 32.464 5.777 44.425 17.079a7.5 7.5 0 0 1-5.152 12.952z"/><path d="M759.987 694.036a7.498 7.498 0 0 1-7.448-8.454c.461-3.593 2.276-15.783 6.283-21.813a7.5 7.5 0 0 1 12.494 8.3c-1.416 2.13-3.159 9.696-3.899 15.425a7.504 7.504 0 0 1-7.429 6.541zm146.154 48.125c-13.867 0-27.529-1.427-41.377-4.307a7.498 7.498 0 0 1-5.816-8.869 7.5 7.5 0 0 1 8.869-5.816c18.456 3.836 35.807 4.884 54.606 3.297a7.5 7.5 0 1 1 1.261 14.947 208.41 208.41 0 0 1-17.543.748z"/></g><path d="M868.768 438.885a7.487 7.487 0 0 1-6.067-3.083c-15.052-20.65-42.33-21.842-60.38-22.63l-.552-.024a7.5 7.5 0 0 1-7.165-7.821 7.51 7.51 0 0 1 7.821-7.165l.551.024c19.651.858 52.542 2.295 71.847 28.781a7.5 7.5 0 0 1-6.055 11.918zM660.339 600.069a7.5 7.5 0 0 1-7.356-6.084c-7.24-37.616-5.359-73.622 5.438-104.126 9.683-27.355 26.032-48.854 46.035-60.538a7.5 7.5 0 0 1 7.566 12.952c-31.59 18.451-58.931 72.909-44.309 148.876a7.5 7.5 0 0 1-7.373 8.919zm133.401 54.722a7.5 7.5 0 0 1-7.489-8.021c1.552-22.313 4.607-31.194 7.303-39.03 1.951-5.672 3.636-10.57 4.835-20.497 2.742-22.707-.044-38.329-2.738-53.437-3.241-18.176-6.593-36.97.304-65.699a7.5 7.5 0 0 1 14.586 3.502c-6.166 25.68-3.365 41.382-.123 59.563 2.753 15.438 5.873 32.937 2.863 57.868-1.389 11.505-3.5 17.643-5.542 23.579-2.511 7.301-5.108 14.85-6.523 35.192a7.5 7.5 0 0 1-7.474 6.98z" class="C"/><ellipse cx="896.427" cy="583.335" fill="#fff" rx="28.296" ry="32.244" transform="matrix(.87384 -.486213 .486213 .87384 -170.532 509.448)"/><g clip-path="url(#E)"><ellipse cx="900.704" cy="574.212" rx="15.734" ry="26.302" transform="matrix(.87384 -.486213 .486213 .87384 -165.557 510.376)" class="C"/></g><g clip-path="url(#F)"><ellipse cx="986.523" cy="539.307" fill="#fff" rx="24.577" ry="28.007" transform="matrix(.87384 -.486213 .486213 .87384 -137.759 547.699)"/><g clip-path="url(#G)"><ellipse cx="985.215" cy="531.983" rx="14.322" ry="23.84" transform="matrix(.87384 -.486213 .486213 .87384 -134.363 546.139)" class="C"/></g></g><path d="M908.681 655.689c-8.46 8.221 4.534 30.59 32.455 32.969 25.441 2.168 46.475-18.981 39.699-26.679-7.309-8.303-20.409 1.28-36.013-.464-20.516-2.292-28.714-13.043-36.141-5.826z" fill="#fff"/><path d="M1322.561 514.052c16.57-56.701 51.453-182.772 56.576-221.788s146.595-10.327 138.763 27.281c-8.721 41.877-25.691 184.054-39.834 241.923-15.891 65.019-170.041 2.326-155.505-47.417z" class="E"/><g class="J"><path d="M1005.403 781.242c37.214-21.417 157.627-80.042 207.1-125.468 20.537-18.857 32.988-20.708 45.474-23.526 46.476-10.488 165.805 157.136 131.025 190.699-46.523 44.895-110.426 75.75-157.476 91.082-38.731 55.262-122.186 80.715-194.007 102.808-60.496 18.609-32.116-235.595-32.116-235.595z"/><path d="M1257.977 632.248c29.874-29.166 87.312-235.921 108.878-304.188 59.819 3.147 164.64 31.876 181.29 73.795 0 0-6.538 46.909-28.517 83.098 0 0-24.73 153.235-48.969 214.059-27.386 68.719-36.895 79.508-81.657 123.935-40.364 40.062-144.959-177.096-131.025-190.699z"/></g><path d="M1153.713 974.652c1.977-12.933 2.63-26.678 1.798-40.72-2.076-35.014-12.942-67.44-29.809-88.964-6.297-8.036-13.362-15.263-20.195-22.254-12.41-12.695-24.131-24.687-28.873-39.144-4.374-13.338-2.497-27.884 1.938-41.815l-35.26 18.936c-.735 10.698.261 21.64 3.839 32.549 6.991 21.316 21.823 36.491 36.168 51.165 6.536 6.688 12.71 13.004 17.96 19.702 23.158 29.553 29.761 86.533 17.19 125.748 12.083-4.668 23.918-9.692 35.245-15.202zm107.647-71.621c-9.532-51.1-25.838-85.24-50.065-105.622-33.356-28.065-67.197-74.206-62.426-95.544l-.54-.121c-9.606 5.918-19.528 11.791-29.497 17.532 10.191 48.911 71.759 101.264 72.487 101.876 19.141 16.104 32.498 46.658 40.469 92.79 9.291-3.035 19.238-6.681 29.572-10.911zm63.499-142.452c-11.443-6.662-23.429-11.406-35.021-15.993-10.089-3.992-19.619-7.763-28.423-12.593-30.399-16.674-49.594-47.464-48.474-76.614l-.437.394c-7.866 7.223-17.531 14.78-28.365 22.468 6.99 32.436 29.829 63.117 62.352 80.956 10.506 5.762 21.396 10.072 31.929 14.24 11.007 4.357 21.405 8.472 30.831 13.959 22.719 13.224 39.683 34.342 53.832 57.871 8.315-6.437 16.329-13.246 23.909-20.42-15.911-25.569-35.407-48.712-62.133-64.268zm30.256-96.893c-6.225-.433-12.342-.47-18.257-.505-9.978-.058-19.404-.114-28.037-2.036-18.233-4.06-33.391-16.101-48.134-31.94-.926 1.158-1.831 2.184-2.711 3.043-8.358 1.886-16.704 3.347-27.466 9.757 20.257 23.281 42.153 42.877 71.566 49.427 11.874 2.645 23.426 2.714 34.599 2.779 5.682.033 11.048.065 16.29.429 28.05 1.95 70.022 29.908 94.499 56.776 4.489-8.495 8.997-18.209 14.007-29.995-27.231-26.457-69.448-55.171-106.356-57.734zm115.224-71.194c-10.095-21.016-20.532-42.747-48.096-45.257-17.796-1.615-34.232 2.582-50.127 6.644-13.302 3.4-25.869 6.604-37.851 5.966-13.731-.74-25.964-6.488-36.141-13.75l-11.129 29.801c14.6 8.96 30.05 14.094 45.6 14.932 16.745.903 32.226-3.057 47.206-6.888 13.963-3.571 27.156-6.942 39.627-5.804 9.21.838 13.378 7.88 22.941 27.79 8.361 17.409 18.731 38.955 39.862 57.78 3.122-11.055 6.181-23.024 9.123-35.356-9.391-11.668-15.383-24.133-21.015-35.859zm-4.682-142.077c-17.063-1.127-30.788 7.021-42.897 14.196-3.992 2.367-7.765 4.601-11.427 6.379-27.033 13.129-64.553 2.151-80.968-22.956a3759.642 3759.642 0 0 1-10.856 34.466c10.188 9.13 22.577 16.249 36.197 20.536 23.394 7.362 48.607 5.854 69.179-4.132 4.819-2.339 9.331-5.013 13.693-7.598 9.43-5.588 17.537-10.406 25.061-9.928 7.885.514 16.639 6.962 25.908 13.789 7.575 5.579 16.117 11.848 25.695 15.48l4.384-25.693a148.99 148.99 0 0 0 2.896-5.01c-4.094-2.164-8.848-5.544-14.574-9.761-11.878-8.748-25.34-18.664-42.292-19.767z" class="B"/><g class="E"><path d="M1379.137 292.265c.174-35.532-13.368-91.652-10.145-118.889 2.369-20.018 113.525-17.902 123.167 17.537 7.521 27.646 33.944 94.785 25.742 128.633-10.949 45.183-138.882-3.017-138.763-27.281z"/><path d="M1440.454 170.275c-1.319-12.613-8.127-65.272-5.356-77.827s13.947-40.354 20.449-56.136c9.929-24.1 38.143-8.48 29.312 16.206s-16.393 43.58-16.393 43.58l6.223 79.982-34.236-5.804z"/><path d="M1461.651 173.869c-.368-8.824-1.199-52.822 2.808-65.297s19.455-29.95 26.298-39.113c10.496-14.054 32.054 6.833 21.01 25.02l-18.304 30.668-1.305 65.766zm-55.103-5.508c-1.325-10.045-5.077-67.683-4.316-76.385s4.497-55.166 4.981-69.644c.882-26.386 34.685-31.649 35.085-3.498.417 29.401-2.139 64.392-2.365 72.134s6.296 77.667 6.296 77.667l-39.682-.274z"/><path d="M1368.992 173.376l-.023-79.296c.539-21.63 3.96-44.512 5.405-67.875 1.419-22.949 33.927-30.321 34.81 1.091.83 29.517-.679 69.874-.679 69.874l5.351 69.116z"/></g><path d="M1413.847 173.786a7.5 7.5 0 0 1-7.469-6.921l-2.091-24.835-3.278-45.104c.229-7.017.67-69.056.675-69.682a7.5 7.5 0 0 1 7.499-7.447h.054a7.5 7.5 0 0 1 7.447 7.553l-.683 70.066c-.145 4.417 1.727 25.986 3.23 43.317l2.103 24.974a7.5 7.5 0 0 1-7.485 8.08zm32.389 2.349a7.5 7.5 0 0 1-7.498-7.846c.79-17.093-6.181-75.841-6.251-76.433a7.472 7.472 0 0 1-.017-1.617l1.941-19.854a7.493 7.493 0 0 1 8.194-6.734 7.5 7.5 0 0 1 6.734 8.194l-1.862 19.047c.887 7.536 7.048 60.711 6.245 78.09a7.5 7.5 0 0 1-7.486 7.154zm28.445 7.444a7.5 7.5 0 0 1-7.469-6.918l-6.223-79.982 14.955-1.164 6.223 79.982a7.501 7.501 0 0 1-7.486 8.083z" class="H"/><path d="M1489.527 297.971c2.765-26.158-27.172-68.872-47.708-79.319l-11.584-34.017s12.292-20.673 14.874-27.038c11.084-27.324-21.101-43.33-34.75-18.326-1.762 3.228-18.09 31.067-21.812 42.361-4.566 13.852.069 64.05 2.427 74.858 3.901 17.885 10.106 29.872 10.106 29.872" class="E"/><path d="M1489.536 305.471a7.499 7.499 0 0 1-7.467-8.289c2.309-21.841-24.449-62.079-43.649-71.847a7.499 7.499 0 0 1-3.699-4.267l-11.583-34.017a7.499 7.499 0 0 1 .653-6.25c4.825-8.115 12.633-21.743 14.37-26.024 4.027-9.927.452-16.918-4.878-19.444-4.48-2.124-11.449-1.426-16.339 7.531l-1.663 2.938c-4.121 7.229-16.661 29.229-19.61 38.177-3.708 11.252.04 59.028 2.631 70.912 3.618 16.584 9.386 27.92 9.444 28.032a7.505 7.505 0 0 1-3.23 10.099 7.495 7.495 0 0 1-10.096-3.213c-.272-.525-6.707-13.082-10.773-31.721-2.172-9.959-7.634-62.385-2.222-78.805 3.031-9.195 12.721-26.693 20.825-40.909l1.528-2.698c9.214-16.88 25.083-19.037 35.928-13.898 11.682 5.536 19.677 20.585 12.355 38.638-2.188 5.392-9.984 18.879-13.613 25.063l9.55 28.045c21.711 13.259 52.084 55.949 48.989 85.235a7.5 7.5 0 0 1-7.449 6.712z" class="H"/><path d="M1231.523 921.529a7.5 7.5 0 0 1-5.56-12.531l24.797-26.672c21.696-23.091 48.696-51.829 56.521-64.125a7.499 7.499 0 0 1 10.354-2.301 7.5 7.5 0 0 1 2.301 10.354c-8.582 13.487-34.966 41.568-58.244 66.344l-24.604 26.462a7.48 7.48 0 0 1-5.565 2.469zm44.652-279.997c-6.454 0-12.813-.729-19.49-1.896a7.5 7.5 0 0 1-6.095-8.68 7.498 7.498 0 0 1 8.68-6.095c16.912 2.958 32.16 3.96 61.207-11.914a7.5 7.5 0 0 1 7.194 13.162c-21.024 11.491-36.506 15.424-51.495 15.424zm191.711-70.604a7.465 7.465 0 0 1-4.717-1.673 7.5 7.5 0 0 1-1.106-10.549c11.815-14.584 37.667-53.15 50.994-77.369a7.5 7.5 0 0 1 13.142 7.232c-14.064 25.56-40.21 64.435-52.48 79.58a7.487 7.487 0 0 1-5.832 2.779z" class="K"/><path d="M615.815 854.83c31.983-16.323 119.986-40.656 143.244-48.83s153.89-18.989 153.89-18.989 54.425-2.618 64.744-1.831 32.283 202.688-56.964 228.184-304.914-158.535-304.914-158.535z" class="E"/><path d="M908.159 976.266c50.234-9.103 61.547-133.986 46.969-193.267-.982-7.093 42.302-3.9 50.275-1.758 14.444 3.881 16.072 134.018 23.101 157.373s33.737 104.956 35.524 131.907c3.993 60.214-42.232 103.159-38.656 131.613s16.652 57.694 11.172 74.508c-7.539 23.133-24.044 37.478-64.974 45.356-23.818 25.939-90.84 55.1-128.747 34.376-61.669 18.749-162.873 11.125-201.196-16.191 0 0-46.184 13.371-73.229 2.486-20.671-8.319-23.1-52.149-12.886-84.898s39.465-138.235 31.356-176.466-43.999-193.497-24.091-207.089 64.839-39.546 81.89-36.41c35.143 6.464 195.329 150.81 263.491 138.458z" class="J"/><path d="M601.748 1131.847c14.219 3.733 29.844 10.522 44.954 17.086 24.684 10.724 48.209 20.945 69.964 20.945 3.948 0 7.838-.336 11.665-1.068 39.97-7.631 61.713-24.269 84.733-41.885 14.786-11.313 30.074-23.013 52.484-34.63 14.61-7.575 38.545-1.344 61.691 4.685 24.872 6.479 50.587 13.172 72.253 5.121 27.078-10.072 42.21-28.517 54.37-43.338l6.877-8.18c-2.209-10.077-5.319-21.974-8.766-34.274-8.671 6.415-15.61 14.861-22.102 22.773-10.803 13.169-21.975 26.785-41.198 33.935-12.484 4.65-33.394-.798-53.614-6.065-28.814-7.503-58.605-15.263-83.793-2.204-24.825 12.871-41.95 25.975-57.06 37.536-21.752 16.645-38.935 29.793-71.697 36.048-15.518 2.96-39.883-7.621-63.443-17.857-16.184-7.032-32.92-14.302-49.44-18.639zm442.563 5.157c-4.826.762-10.128.917-15.742 1.079-11.272.329-24.047.701-36.318 6.383-7.174 3.321-12.999 7.945-18.139 12.025-3.345 2.656-6.506 5.165-9.597 6.975-14.357 8.415-32.596 6.032-53.708 3.273-19.505-2.545-39.676-5.18-59.799.623-18.593 5.36-32.935 16.71-46.806 27.685-5.574 4.41-10.837 8.575-16.252 12.259-41.929 28.518-102.727 28.414-144.562-.258l-17.542 25.596c26.482 18.148 58.251 27.226 90.025 27.226 31.574 0 63.152-8.968 89.53-26.908 6.339-4.312 12.296-9.024 18.055-13.583 12.046-9.531 23.423-18.534 36.148-22.204 13.921-4.01 30.078-1.901 47.183.332 23.385 3.053 49.892 6.516 73.418-7.271 4.98-2.918 9.347-6.385 13.199-9.444 4.148-3.294 8.066-6.404 11.881-8.171 6.498-3.007 15.09-3.257 24.185-3.523l5.139-.17c4.918-10.225 11.001-21.539 16.388-34.005-2.147.989-4.445 1.726-6.688 2.079zm-15.747 82.768c-21.119 17.539-44.673 34.863-71.333 38.751-11.801 1.723-24.485.886-37.912-.002-23.338-1.538-47.478-3.133-70.241 8.604-9.986 5.148-17.978 12.601-25.031 19.178-6.688 6.235-13.004 12.124-19.826 15.081-58.264 25.25-110.759 7.175-157.071-8.774-34.691-11.945-64.656-22.263-92.27-13.354l9.524 29.532c17.777-5.736 43.203 3.023 72.642 13.16 31.093 10.707 66.991 23.073 106.75 23.07 23.023 0 47.345-4.148 72.764-15.165 11.731-5.085 20.719-13.465 28.647-20.857 6.127-5.713 11.913-11.109 18.09-14.293 15.102-7.788 33.982-6.542 53.98-5.221 14.446.953 29.385 1.939 44.434-.256 28.905-4.217 53.56-19.548 74.671-35.92-1.874-10.183-5.17-21.688-7.818-33.536z" class="B"/><path d="M875.977 1370.884a7.501 7.501 0 0 1-3.181-14.296c.579-.282 15.392-7.675 21.994-28.382 2.148-6.737 1.345-19.467.417-34.206-1.447-22.963-3.248-51.542 2.909-83.962 2.178-11.47 7.26-24.911 12.64-39.141 8.455-22.362 18.037-47.707 19.111-72.111.69-15.68-9.663-51.074-17.981-79.514-5.078-17.36-9.463-32.354-11.112-41.704a7.5 7.5 0 0 1 14.772-2.604c1.505 8.537 5.989 23.867 10.736 40.098 9.079 31.04 19.369 66.221 18.569 84.385-1.18 26.802-11.213 53.341-20.065 76.756-5.143 13.602-10 26.449-11.934 36.635-5.804 30.564-4.069 58.097-2.675 80.219 1.066 16.919 1.909 30.282-1.096 39.706-8.675 27.21-29.068 37.01-29.932 37.414a7.472 7.472 0 0 1-3.171.708zm174.978-350.687a7.503 7.503 0 0 1-7.185-5.362l-22.43-74.002a7.5 7.5 0 1 1 14.329-4.437l22.477 74.16a7.5 7.5 0 0 1-7.191 9.642zm-79.381 309.302a7.5 7.5 0 0 1-4.87-13.206c14.928-12.731 21.745-18.95 26.887-32.938a7.5 7.5 0 1 1 14.079 5.175c-6.714 18.266-16.468 26.584-31.232 39.176a7.471 7.471 0 0 1-4.863 1.793z" class="K"/><g class="E"><path d="M199.625 1697.888c-50.951 56.12 99.896 128.037 124.292 90.289 58.139-89.961 97.774-143.221 143.726-225.716 46.099-82.759-111.804-142.229-152.867-64.176-48.713 92.596-72.329 152.437-115.151 199.603z"/><path d="M199.625 1697.888c-25.148 18.081-60.848 34.002-82.765 45.091s34.831 139.32 62.291 124.3 124.545-43.39 144.766-79.103c21.279-37.58-105.656-103.688-124.292-90.289z"/><path d="M323.916 1788.177c-5.659 27.311-28.229 85.619-38.188 101.616s-47.55 55.237-57.86 68.399c-16.606 21.201-52.274-3.529-33.831-27.285 18.746-24.147 39.634-48.766 39.634-48.766s19.181-34.859-3.47-36.468c-26.464-1.88 99.5-85.422 93.714-57.497zM116.86 1742.98c-13.226 5.585-60.439 28.151-70.549 35.152s-32.015 39.374-39.242 50.163c-11.256 16.804 12.616 36.026 27.938 17.348 13.682-16.679 28.164-36.095 28.164-36.095l60.632-30.493z"/><path d="M123.271 1770.059c-15.609 4.689-67.834 29.231-78.081 37.268s-37.239 61.583-43.453 76.095c-9.436 22.034 21.994 40.112 36.114 15.298 15.008-26.376 31.221-51.172 31.221-51.172l70.154-40.123-15.953-37.366z"/><path d="M144.527 1791.093c-20.914 10.388-88.413 49.877-96.665 59.457s-32.471 75.184-34.597 86.885c-3.882 21.359 26.52 32.432 37.033 12.742s27.759-62.952 27.759-62.952l83.001-53.952z"/><path d="M163.266 1820.102c-21.573 11.923-86.044 43.203-98.559 58.933s-33.644 66.958-39.407 78.613c-13.433 27.169 20.116 46.102 37.075 21.746s42.456-70.686 42.456-70.686l74.319-41.428z"/></g><path d="M25.295 1965.15a7.5 7.5 0 0 1-6.766-10.726c1.312-2.755 32.209-67.607 39.882-79.464 5.629-8.699 33.428-25.688 95.951-58.638l5.387-2.844a7.5 7.5 0 1 1 7.034 13.248l-5.427 2.866c-73.245 38.602-88.05 50.103-90.355 53.523-5.928 9.161-30.111 59.236-38.928 77.757a7.501 7.501 0 0 1-6.777 4.278zm-3.336-47.527a7.5 7.5 0 0 1-6.945-10.326c2.107-5.184 20.753-50.927 26.375-60.535 1.577-2.696 4.514-7.714 48.517-33.535 22.803-13.381 45.771-25.944 51.12-28.768a7.5 7.5 0 1 1 7.002 13.266c-24.973 13.182-87.656 49.086-93.778 56.76-4.415 7.686-19.763 44.74-25.341 58.46a7.502 7.502 0 0 1-6.95 4.677zm32.376-63.286l-.003.006.003-.006zm-38.232 7.108a7.456 7.456 0 0 1-3.728-.998 7.5 7.5 0 0 1-2.769-10.239c.887-1.544 21.813-37.938 29.79-47.644 10.136-12.333 80.702-39.34 81.389-39.582a7.5 7.5 0 1 1 4.974 14.151c-12.551 4.412-68.864 28.104-74.78 34.962-5.958 7.25-22.496 35.362-28.364 45.582a7.498 7.498 0 0 1-6.511 3.767z" class="H"/><g class="J"><path d="M562.778 874.218c-54.969 46.412-166.285 398.058-185.056 452.039s155.817 166.461 180.77 135.149 54.639-76.789 62.398-126 23.144-194.8 61.276-233.146c45.444-45.699-90.559-252.384-119.388-228.042z"/><path d="M377.722 1326.256c-18.198 53.895-126.192 287.126-163.214 336.313 24.971 56.372 136.276 149.973 177.661 129.892 0 0 84.718-100.428 100.473-156.591l40.662-139.545 25.187-34.92c52.067-71.338-162.238-190.034-180.769-135.149z"/></g><path d="M652.795 1058.645c-7.938-15.469-16.146-31.465-27.953-45.378-28.068-33.073-69.046-46.855-112.461-54.381a1264.904 1264.904 0 0 0-12.857 29.298c41.165 6.329 78.038 17.326 101.66 45.161 9.492 11.186 16.542 24.923 24.005 39.467 10.433 20.331 21.215 41.269 39.689 56.741 5.016-11.105 10.563-20.281 16.705-26.674-11.928-11.426-20.164-27.428-28.787-44.233zm-84.51 40.764c-33.022-20.59-69.045-30.289-101.936-27.927a3526.539 3526.539 0 0 0-12.312 33.097c29.692-6.853 65.155.785 97.83 21.159 31.891 19.886 58.329 48.777 83.898 76.716l5.642 6.166c2.621-12.47 5.511-24.766 8.709-36.421-24.384-26.482-50.061-52.981-81.831-72.79zm57.484 202.23c-21.881 1.345-56.893-3.673-68.984-11.43-10.037-6.439-19.134-14.578-28.764-23.194-7.325-6.554-14.901-13.333-23.14-19.525-25.919-19.483-56.699-31.724-88.705-35.645a7496.027 7496.027 0 0 0-10.225 30.127c28.944 2.288 56.976 12.799 80.285 30.321 7.182 5.397 13.939 11.443 21.095 17.845 10.115 9.051 20.575 18.41 32.699 26.187 15.174 9.736 48.316 16.543 76.7 16.543a167.55 167.55 0 0 0 4.564-.067l4.475-31.162zm-117.788 121.506c-7.382-5.879-13.675-13.684-20.339-21.949-4.542-5.636-9.241-11.462-14.548-16.996-26.844-27.985-63.498-42.366-97.244-52.635-2.742 7.527-6.656 17.376-11.471 28.94 31.489 9.416 63.802 21.696 86.322 45.174 4.383 4.57 8.463 9.631 12.786 14.992 7.425 9.212 15.105 18.736 25.164 26.747 9.241 7.357 27.261 16.951 43.825 23.331 5.544 2.136 10.713 3.833 15.545 5.126l10.467-14.467.002-.003a447.453 447.453 0 0 0 10.344-13.498c-10.026.998-45.286-12.367-60.854-24.763zm.686 156.807l-.559-.625c-19.226-21.493-43.153-48.242-61.979-57.604-10.106-5.024-20.479-8.478-30.511-11.818-6.668-2.22-12.968-4.316-19.039-6.803-28.471-11.662-53.109-33.219-68.702-59.793a3994.44 3994.44 0 0 1-15.249 32.869c18.65 24.424 43.875 44.041 72.191 55.638 7.038 2.883 14.136 5.245 20.999 7.53 9.431 3.139 18.34 6.104 26.496 10.16 13.489 6.707 37.065 33.065 52.666 50.505l13.582 14.963a7834.417 7834.417 0 0 1 10.104-35.024zm-90.202 90.589c-18.875-16.611-41.872-32.65-63.093-44.003-30.54-16.339-64.428-49.23-76.229-80.857a2582.463 2582.463 0 0 1-17.281 34.27c19.155 31.046 50.533 58.785 78.872 73.946 34.991 18.719 76.863 52.249 94.535 83.026 6.334-8.75 12.839-18.048 19.124-27.53-11.067-15.491-24.771-29.033-35.929-38.852z" class="B"/><path d="M533.312 1503.827a7.5 7.5 0 0 1-7.363-8.972l16.489-77.914a7.5 7.5 0 0 1 14.653 3.207l-16.434 77.648a7.504 7.504 0 0 1-7.347 6.031zm85.977-154.793a7.5 7.5 0 0 1-7.434-8.561c14.672-102.758 30.634-198.647 64.352-242.767a7.5 7.5 0 0 1 11.918 9.108c-31.522 41.246-47.041 135.064-61.42 235.779a7.502 7.502 0 0 1-7.416 6.441z" class="K"/></svg></g></svg>