<svg xmlns="http://www.w3.org/2000/svg" width="2400" height="3000" xmlns:v="https://vecta.io/nano"><style><![CDATA[.B{fill:#111}.C{fill:#a85f36}.D{fill:#e09273}.E{fill:#773a11}.F{fill:#2471ed}.G{fill:#ea2688}.H{fill:#004ebf}.I{fill:#656c72}.J{fill:#374047}.K{fill:#5ac4ff}.L{fill:#b7006d}]]></style><g transform="matrix(1.199772 0 0 1.199572 954 164.4)"><svg width="1077.205" height="2229.796"><clipPath id="A"><path d="M486.984 123.861l1.517 51.86c1.494 29.969 48.08 20.39 42.746-30.238-4.709-44.692-44.41-29.073-44.263-21.622z"/></clipPath><path d="m655.75 1793.367-9.621 197.4c-3.062 31.248-237.691 8.26-234.629-22.987l22.195-194.996c5.974-67.26 227.772-53.241 222.055 20.583z" class="C"/><path d="M648.904 1940.368c8.07-3.761 6.96 73.892 0 90.801s-103.4-1.879-122.814 6.262-36.322 21.292-54.483 21.918-256.758 1.879-256.132-11.272 12.525-82.037 41.332-90.178 100.198-20.666 123.369-38.827 47.562-38.862 54.835-47.246c9.204-10.61 37.399 6.605 52.252 19.066 44.232 37.108 76.781 65.653 161.64 49.477z" fill="#007a63"/><path d="M651.109 2022.909c6.302 3.77 3.438 52.68.772 57.344s-118.009 5.396-125.005-.201-6.023-25.293-13.993-25.255c-22.672.11-29.054 26.549-39.782 28.415s-228.24 6.31-259.449-11.811c-6.99-4.059-5.31-33.557 1.822-31.996 60.597 13.264 230.068 11.861 256.363 4.664 11.877-3.251 34.05-19.464 45.244-21.16s126.726-4.368 134.028 0z" class="B"/><path d="M535.821 2026.793a5.002 5.002 0 0 1-4.923-4.159c-5.28-30.903-33.265-44.109-55.812-49.746-16.575-4.142-56.305 5.787-85.315 13.039-31.363 7.84-42.81 10.324-48.083 7.448-2.279-1.243-5.309-4.085-12.468-22.195-3.972-10.048-7.872-21.5-9.975-28.393a5 5 0 1 1 9.564-2.918c5.226 17.127 14.227 40.444 17.763 44.667 4.834.673 24.707-4.295 40.773-8.312 31.707-7.925 71.165-17.789 90.167-13.038 36.476 9.119 58.345 29.093 63.244 57.762a5 5 0 0 1-4.934 5.843zm-188.937-41.919z" fill="#005141"/><path d="M411.474 1913.57a5.001 5.001 0 0 1-4.533-2.883c-1.931-4.128-5.706-6.365-8.022-5.867a4.997 4.997 0 0 1-5.94-3.835 4.998 4.998 0 0 1 3.835-5.94c7.294-1.572 15.361 3.226 19.186 11.406a5 5 0 0 1-4.526 7.119zm-23.204 17.128a5.001 5.001 0 0 1-4.533-2.883c-1.487-3.181-4.073-6.714-6.449-6.201a4.996 4.996 0 0 1-5.94-3.835 4.998 4.998 0 0 1 3.835-5.94c6.899-1.488 13.48 2.903 17.613 11.74a5 5 0 0 1-4.526 7.119zm-27.791 12.645a5.003 5.003 0 0 1-4.733-3.391c-2.427-7.132-3.635-7.006-4.218-6.949a4.997 4.997 0 0 1-5.486-4.461 5 5 0 0 1 4.461-5.486c9.725-.991 13.089 8.912 14.71 13.675a5 5 0 0 1-4.734 6.612z" class="B"/><g fill="#e3e5e5"><path d="M457.888 761.825c-2.684 70.033-29.664 426.476-34.976 544.84-3.633 80.944 247.444 131.709 253.633 20.655s11.568-458.48 5.788-542.188c-2.256-32.67-224.445-23.307-224.445-23.307z"/><path d="M422.912 1306.666c-6.929 119.842-20.076 567.083-20.076 567.083 57.831 48.123 170.314 54.291 266.12 48.123l7.589-594.551c1.423-96.343-253.633-20.655-253.633-20.655z"/></g><path d="m931.668 1759.777 31.654 214.096c7.658 60.169-228.641 75.484-236.845 13.782l-22.307-208.617c-8.797-66.949 217.022-92.561 227.498-19.26z" class="C"/><path d="m951.015 2120.83-125.592-12.761.729-22.35 125.475 10.687z" class="B"/><path d="M961.84 1963.85c9.615 18.234 12.603 82.79 8.887 100.106-1.799 8.381-37.16 26.218-43.052 40.228s-4.923 44.471-15.638 60.169c-19.188 28.112-104.23 46.612-202.074 39.779-76.179-5.32-82.556-31.757-82.832-45.307s-2.115-69.306 28.493-94.803c18.644-15.531 28.718-10.936 43.015-29.267 10.67-13.681 24.896-53.995 30.416-70.757 4.978-15.117 39.97-23.509 37.478-7.986l46.534.794c4.847-15.091 30.497-18.382 85.171 18.393 31.278 21.038 59.164 9.927 63.603-11.35z" fill="#007a63"/><path d="M971.912 2054.247c6.982-9.343 3.481 38.304 2.628 46.745-.623 6.168-23.525 19.837-23.525 19.837l.612-24.424s-22.372 6.735-24.762 43.88-2.136 45.257-12.316 54.771c-28.698 26.818-133.346 39.117-206.048 33.34-75.378-5.989-84.336-33.889-84.545-40.095s-1.367-45.584 2.061-41.92c4.228 4.519 21.971 31.603 84.269 34.623s147.22 5.254 192.109-24.918c20.986-14.106 9.955-37.533 17-52.465 9.295-19.701 47.236-42.309 52.517-49.376z" class="B"/><path d="m867.576 2094.237-.267-.003c-5.306-.13-8.554-4.799-12.665-10.709-5.377-7.73-13.503-19.412-30.045-27.731-9.565-4.811-22.225-7.413-32.396-9.503-12.417-2.552-18.65-3.833-20.487-8.593-1.98-5.13 2.264-15.268 23.898-57.09 5.555-10.738 10.802-20.881 12.842-25.736a5.001 5.001 0 0 1 9.219 3.875c-2.195 5.222-7.285 15.062-13.179 26.456-7.977 15.421-20.919 40.441-22.966 48.284 2.66.949 8.129 2.073 12.687 3.009 10.75 2.209 24.128 4.959 34.876 10.365 18.809 9.46 27.807 22.395 33.761 30.955 1.748 2.513 3.897 5.604 4.998 6.399 2.213-.381 7.06-5.168 10.988-9.049 7.295-7.206 16.374-16.175 29.221-22.168 11.755-5.483 26.411-5.093 35.641.951 6.519 4.268 9.996 11.13 9.791 19.321a4.976 4.976 0 0 1-5.124 4.873 5 5 0 0 1-4.873-5.124c.121-4.801-1.604-8.303-5.271-10.704-6.283-4.113-17.432-4.222-25.936-.254-11.278 5.262-19.675 13.555-26.421 20.22-6.752 6.67-12.107 11.959-18.291 11.959zm-86.321-59.18zm-88.458 11.221a4.999 4.999 0 0 1-2.745-9.182c10.328-6.767 22.811-6.093 31.922-5.605 2.539.137 5.914.317 7.353.091 5.57-7.053 27.071-60.377 32.445-77.098a5 5 0 1 1 9.52 3.06c-2.425 7.543-9.571 26.498-17.333 45.16-14.607 35.122-17.722 36.699-19.782 37.743-3.061 1.55-7.123 1.331-12.741 1.03-8.165-.439-18.321-.985-25.905 3.983a4.974 4.974 0 0 1-2.735.818zm36.175-14.289z" fill="#005141"/><path d="M812.706 1984.896a4.988 4.988 0 0 1-3.618-1.548c-4.424-4.637-15.794-8.552-28.293-9.744-13.287-1.267-25.172.779-31.024 5.337a4.999 4.999 0 0 1-7.017-.873 5 5 0 0 1 .873-7.017c17.101-13.321 59.797-8.126 72.696 5.393a4.998 4.998 0 0 1-.166 7.069 4.981 4.981 0 0 1-3.451 1.383zm-10.681 22.017a4.984 4.984 0 0 1-3.383-1.319c-9.464-8.702-45.508-13.032-57.635-4.796a5 5 0 1 1-5.617-8.273c16.2-10.999 57.362-5.931 70.021 5.708a5 5 0 0 1-3.386 8.681zm-8.269 25.006a4.984 4.984 0 0 1-3.576-1.505c-9.731-9.957-47.706-13.055-59.755-4.873a5 5 0 1 1-5.617-8.273c16.065-10.909 59.444-7.227 72.524 6.157a5 5 0 0 1-3.575 8.494z" class="B"/><g fill="#e3e5e5"><path d="M566.776 782.076c8.552 155.466 39.453 460.638 52.771 578.369 9.108 80.512 266.358 109.331 255.052-1.32l-68.466-598.543c-3.089-32.601-239.358 21.493-239.358 21.493z"/><path d="M619.547 1360.445c7.806 111.514 43.105 383.713 72.607 600.22 46.85 46.884 184.197 12.333 261.628-54.835l-79.183-546.704c-10.738-91.097-255.052 1.32-255.052 1.32z"/></g><path d="M770.384 1984.628a5 5 0 0 1-4.943-4.293l-78.373-605.077-60.033-594.185a4.999 4.999 0 0 1 4.489-5.463 5.002 5.002 0 0 1 5.463 4.489l60.025 594.103c23.189 218.188 77.779 600.878 78.328 604.718a5 5 0 0 1-4.956 5.708zm-99.906-180.623a5 5 0 0 1-4.959-4.412l-50.943-438.611-39.197-396.401a5 5 0 1 1 9.955-.955l39.185 396.283 50.932 438.508a5 5 0 0 1-4.972 5.589z" fill="#b7b7b7"/><path d="M455.932 313.099c-40.361 16.061-70.02 137.881-90.688 179.105-15.544 31.003-30.301 43.106-26.321 76.508 0 0-21.327 28.001-19.53 47.084 5.621 59.701 113.297 149.274 156.388 108.26 49.331-46.954 78.051-215.347 85.874-267.398s-105.723-143.56-105.723-143.56z" class="F"/><path d="M235.028 925.53c-22.802 17.193-111.757-112.865-77.834-146.175 35.811-35.164 116.194 117.25 77.834 146.175z" class="B"/><g class="C"><path d="M157.174 775.634c-14.486 9.093-70.675 58.861-80.244 75.389s57.07 87.147 77.658 72.361 66.796-39.532 77.724-59.756c17.52-32.42-54.668-101.016-75.138-87.994z"/><path d="M154.005 777.788c-21.477 6.452-53.428 11.267-68.457 23.312-9.881 7.919-13.298 26.786-25.971 39.102-11.171 10.856 2.891 27.05 17.903 15.509 9.268-7.125 25.727-25.929 25.727-25.929s42.039 20.916 57.413 0-6.615-51.994-6.615-51.994z"/><path d="M76.93 851.023c-5.749 6.991-37.818 38.432-44.909 46.447L5.06 928.219c-12.906 15.806 1.199 33.082 16.318 19.966 6.259-5.429 21.852-24.547 30.333-32.002s36.879-38.001 36.879-38.001z"/><path d="M88.59 878.183c-7.767 6.827-44.277 45.208-49.901 51.458s6.85 25.769 16.223 17.467l51.994-45.9z"/><path d="M54.912 947.108c-6.341 4.573-23.136 5.543-23.852-8.993-.285-5.791 6.251-11.651 11.252-17.183 13.953-15.436 27.521 1.586 20.291 14.321-4.304 7.581-7.69 11.854-7.69 11.854zm51.994-45.9L59.41 943.13c-6.429 6.721 4.803 22.955 15.755 16.374s50.779-42.749 50.779-42.749l-19.037-15.547z"/><path d="M75.165 959.503c-11.486 8.653-26.866-5.754-15.755-16.374 3.802-3.634 4.144-5.445 8.854-9.55 11.002-9.59 24.771 4.259 16.78 16.273-2.825 4.247-9.879 9.651-9.879 9.651zm79.423-36.119c-11.689 8.438-47.63 41.107-53.939 46.167-13.878 11.132-29.02-3.071-15.991-15.143l41.286-37.653z"/><path d="M99.427 971.162c-9.821 9.66-27.284-3.333-16.581-15.543 1.948-2.223 3.486-4.208 6.09-6.57 10.808-9.807 25.033 4.479 16.053 15.773-3.44 4.326-5.561 6.34-5.561 6.34z"/></g><g class="E"><path d="M72.094 863.746a5 5 0 0 1-1.478-9.777c6.715-2.081 21.155-17.85 28.679-27.301a5.002 5.002 0 0 1 5.955-1.449c20.408 9.136 33.743 10.651 47.563 5.402a5 5 0 1 1 3.55 9.348c-15.743 5.978-30.474 4.869-51.672-4.088-6.343 7.652-21.221 24.574-31.114 27.64a4.994 4.994 0 0 1-1.481.226zm-16.531 86.422a5.001 5.001 0 0 1-4.047-7.932l6.97-9.821c.072-.104.148-.206.228-.304 4.297-5.317 1.511-8.934.114-10.242-2.51-2.35-6.664-3.242-9.747-.396a5 5 0 0 1-6.784-7.346l.018-.016 42.884-39.602a5 5 0 0 1 6.784 7.346L60.3 911.112a18.175 18.175 0 0 1 5.361 3.456c5.66 5.299 8.128 14.656.953 23.674l-6.997 9.856a4.994 4.994 0 0 1-4.055 2.069z"/><path d="M85.043 954.852a5 5 0 0 1-3.641-8.426c3.006-3.196 2.029-7.239-.152-9.642-3.154-3.476-7.99-3.268-12.937.554a5 5 0 0 1-6.322-7.744l40.237-34.692a5 5 0 0 1 6.53 7.574l-26.71 23.029a17.578 17.578 0 0 1 6.607 4.559c6.12 6.745 6.133 16.724.03 23.213a4.986 4.986 0 0 1-3.643 1.574z"/><path d="M106.913 963.027a5 5 0 0 1-4.953-5.731c.147-.995-1.005-4.291-3.806-5.889-2.756-1.574-6.108-.788-9.964 2.332a5 5 0 0 1-6.444-7.644l37.694-33.098a5 5 0 1 1 6.598 7.514L101.6 941.969c.593.256 1.099.517 1.511.752 5.746 3.279 9.586 10.322 8.742 16.035a5.001 5.001 0 0 1-4.94 4.27zm-75.848-19.912a5 5 0 0 1-4.995-5.316c.707-11.152 14.907-22.651 16.524-23.925a5 5 0 0 1 6.194 7.852c-5.105 4.039-12.433 11.892-12.737 16.706a5 5 0 0 1-4.985 4.684z"/><path d="M78.596 963.027a5 5 0 0 1-3.923-8.096l6.445-8.174a5 5 0 0 1 7.853 6.191l-6.445 8.174a4.991 4.991 0 0 1-3.93 1.904z"/></g><path d="M475.78 724.056c-49.153 58-240.752 201.473-240.752 201.473 17.527-29.02-19.435-142.462-77.854-149.896 4.989-7.07 119.594-108.27 127.719-122.065s15.96-31.519 34.5-37.772c12.818-4.323 187.131 71.984 156.388 108.26z" class="F"/><path d="M319.393 620.798a5 5 0 0 1-1.734-9.692c17.058-6.306 35.849-7.092 36.64-7.123 2.78-.119 5.083 2.045 5.188 4.804a5 5 0 0 1-4.804 5.188c-.176.007-18.028.77-33.556 6.51a5.002 5.002 0 0 1-1.733.312zm23.423-27.864a4.974 4.974 0 0 1-4.445-2.729c-.16-.316-3.929-7.896-4.444-21.301a5 5 0 0 1 4.804-5.188c2.752-.138 5.082 2.044 5.188 4.804.424 11.03 3.357 17.134 3.387 17.194 1.209 2.468.207 5.464-2.252 6.69a5.016 5.016 0 0 1-2.237.529z" class="H"/><rect height="224.159" rx="52.923" transform="matrix(.9907 -.136061 .136061 .9907 -25.27 85.241)" width="105.847" x="558.049" y="115.412" class="C"/><path d="m565.177 283.013-4.127-30.051c25.765 5.328 74.058-2.289 103.272-25.982l5.927 43.156s78.45 21.083 123.623 37.753c25.57 9.436 7.374 365.537 7.448 409.748.053 31.47-340.682 85.902-343.431-3.5-2.157-70.151-24.858-386.426 8.082-399.095s99.206-32.028 99.206-32.028z" class="B"/><path d="M568.771 908.962a5 5 0 0 1-4.987-4.708l-.818-13.34c-1.936-30.861-4.345-69.269-1.162-99.578a5 5 0 0 1 9.946 1.044c-3.095 29.476-.715 67.419 1.197 97.908l.821 13.383a5 5 0 0 1-4.996 5.291z" fill="#b7b7b7"/><path d="M457.888 714.136v47.689c73.154 44.019 213.968 36.23 348.245-1.243l-4.814-42.946c-137.703 38.327-267.099 34.827-343.431-3.5z" class="I"/><path d="M574.06 799.857c-7.138 0-13.912-.695-17.516-1.26-14.415-2.26-17.825-6.157-19.137-8.893-4.09-8.534-8.442-41.988 1.646-50.739 6.262-5.43 21.728-4.937 30.392-4.16 5.283.474 23.008 2.49 29.249 8.515 9.208 8.891 7.304 42.304-.84 50.906-4.166 4.401-14.301 5.63-23.794 5.63zm-27.73-14.681c1.594 1.505 9.478 3.935 21.934 4.566 13.929.705 21.182-1.363 22.352-2.414 1.528-1.616 3.868-8.502 4.213-18.683.362-10.693-1.697-16.796-3.08-18.131-1.739-1.679-10.086-4.573-23.197-5.75-13.078-1.174-21.292.32-22.945 1.755-1.287 1.116-3.053 6.806-2.643 17.907.332 8.985 1.985 17.636 3.367 20.749zm.095.206h.01z" class="B"/><path d="M676.968 266.026c-7.505 53.077-59.368 317.727-59.221 386.72.13 61.113 17.48 252.799 23.493 279.603s11.846 78.503 75.127 73.769c61.771-4.621 111.053-11.086 150.796-41.587 0 0-35.84-175.437-39.537-262.317s41.901-371.219-1.578-388.78-149.079-47.409-149.079-47.409zM556.067 279.72c-61.159 80.196-51.593 241.71-33.59 367.035 2.595 18.065-6.47 249.549-11.091 285.594s-12.94 61.001-35.122 61.001-42.516-19.409-42.516-19.409 13.864-210.73 8.318-303.155S427.387 322.851 455.93 313.1l100.136-33.379z" class="F"/><path d="M667.8 252.307c9.765 4.85 40.509 15.755 46.621 23.007 3.713 4.406 5.891 27.219 5.891 27.219l-36.183 18.519 26.647 15.96c-49.756 91.784-69.986 202.026-93.031 315.734-3.609-258.724 61.111-347.654 50.054-400.44zm-105.517 9.635c-20.827 5.97-54.248 40.753-60.241 49.742l11.387 5.993-23.695 25.631c-5.129 115.203-1.087 216.149 32.744 303.447-8.643-130.575-6.297-296.547 42.699-363.742z" class="H"/><path d="m1073.154 871.811 4.049 221.845c.148 8.108-6.23 15.88-14.271 17.364l-334.662 61.764c-9.32 1.72-17.021-3.993-17.169-12.767l-4.05-240.041c-.148-8.757 7.313-16.828 16.632-18.023l334.663-42.931c8.042-1.032 14.659 4.696 14.807 12.789z" fill="#ffd215"/><path d="M736.885 969.325c2.245 2.946 4.233 128.697 2.245 132.217s-39.224 9.448-41.467 7.056-4.758-129.818-2.244-133.359 39.221-8.86 41.466-5.914z" class="B"/><path d="M826.047 313.435c66.299 27.272 141.574 236.708 170.659 339.312 23.341 82.339-157.795 74.537-170.093 67.963s-22.679-21.545-20.411-38.554l-79.377-179.165c-57.869-133.604 99.222-189.556 99.222-189.556z" class="F"/><g class="C"><path d="M834.401 1006.422c6.752-25.958 117.257-31.582 121.834 0 0 0 14.378 83.817 14.378 104.248s-116.244 43.163-125.904 24.595c-10.506-20.194-17.825-95.886-10.307-128.844z"/><path d="M840.445 1110.864s49.417-30.371 38.607-70.523-47.182-14.985-47.182-14.985c-9.442 19.103-29.717 60.266-29.738 73.154 0 16.133 29.186 19.821 38.312 12.354zm130.168-.194c1.501 19.057 2.252 29.572-1.503 38.209s-10.976 15.707-25.409 14.652c-10.866-.794-25.551-8.315-31.305-11.658-16.757-9.735-7.259-33.77 9.249-27.516 6.669 2.527 17.43 9.627 17.288 6.274-.141-3.331-1.655-15.056-1.655-15.056l33.336-4.906z"/><path d="M943.627 1114.642c1.501 19.057 3.687 33.308 2.378 42.635-1.221 8.7-10.706 16.263-25.018 16.158-10.895-.08-36.204-13.683-41.959-17.026-16.757-9.735-7.259-33.77 9.249-27.516 6.669 2.527 23.221 12.036 23.079 8.683-.141-3.331-2.55-17.004-2.55-17.004l34.821-5.931z"/><path d="M911.918 1120.573c1.501 19.057 3.687 33.308 2.378 42.635-1.221 8.7-10.706 16.263-25.018 16.158-10.895-.08-40.386-16.06-46.14-19.403-16.757-9.735-7.259-33.77 9.249-27.516 6.669 2.527 27.403 14.413 27.261 11.06-.141-3.331-2.55-17.004-2.55-17.004l34.821-5.931z"/><path d="M884.902 1122.84c1.501 19.057.908 36.007-.401 45.333-1.221 8.7-10.706 16.263-25.018 16.158-7.499-.055-20.657-5.434-31.712-11.729-5.638-3.21-5.609-24.412-5.614-26.486-.041-19.74 24.749-20.919 26.411-7.601l1.285 9.958c-.141-3.331-2.946-20.624-2.946-20.624l37.996-5.009z"/><path d="M802.133 1098.509c-.024 14.592 11.534 46.141 10.333 63.643-1.753 25.54 28.9 22.179 30.9 1.418 1.607-16.682-.347-39.838-2.921-52.707-5.056-12.705-36.199-24.373-38.312-12.354z"/></g><path d="M943.701 1168.531a5 5 0 0 1-3.66-8.408c2.161-4.085 1.047-26.366-1.372-44.832a5 5 0 0 1 4.308-5.607 4.996 4.996 0 0 1 5.607 4.308c.059.451 1.458 11.186 2.182 22.775 1.398 22.354-.915 27.816-3.622 30.389a4.984 4.984 0 0 1-3.443 1.375zm-3.445-8.625l-.003.002.003-.002zm-29.714 16.27a5 5 0 0 1-2.824-9.129c-.012 0 3.177-3.295 1.79-23.803-.759-11.229-2.503-21.741-2.521-21.846a5 5 0 0 1 4.107-5.756 4.996 4.996 0 0 1 5.756 4.106c.078.465 1.915 11.531 2.683 23.544 1.507 23.606-2.508 29.508-6.174 32.013a4.982 4.982 0 0 1-2.816.872zm-32.942 6.378a5 5 0 0 1-3.425-8.644c5.515-5.182 4.17-26.868 3.28-41.218l-.547-9.624a5.001 5.001 0 0 1 4.766-5.224c2.743-.134 5.097 2.007 5.224 4.766l.539 9.462c1.242 20.022 2.525 40.726-6.414 49.125a4.981 4.981 0 0 1-3.423 1.356zm-37.372-1.401l-3.942-9.189s-.051.018-.141.064c.159-.081 3.902-2.068 5.312-9.4 1.321-6.868-2.934-34.832-5.925-50.845a5 5 0 1 1 9.83-1.836c.828 4.43 8.026 43.593 5.916 54.57-2.423 12.604-10.172 16.262-11.048 16.638z" class="E"/><path d="M814.702 705.012c-5.572 16.231 2.468 24.456 6.169 30.074 0 0-2.563 26.313 6.408 41.05l-21.145 240.284c60.872 47.416 166.597 33.96 184.538-14.097 0 0 25.753-285.942 6.034-349.577s-182.004 52.265-182.004 52.265z" class="F"/><path d="M500.232 59.704c-11.67 15.247-15.054 26.46-13.757 47.214s-.261 122.724 13.757 133.087c21.485 15.882 93.019 11.129 131.01-20.322 23.529-19.478 24.446-100.195-.04-144.828-26.948-49.119-104.162-50.174-130.97-15.151z" class="C"/><path d="M651.159 169.899c14.906-19.582 37.559-75.857-1.929-122.62-29.893-35.4-99.723-49.349-120.282-7.139 39.648-8.644 66.727 5.996 75.597 20.743 11.404 18.961-4.092 45.725 25.427 77.875l21.186 31.141z" class="B"/><path d="M528.948 40.141c6.6 37.74 60.397 77.709 73.577 82.103 7.204 0 18.056-3.743 30.696-7.191-1.764-10.026-5.868-18.519-9.683-26.098 9.366 5.125 20.23 15.031 23.394 21.788 17.935-6.138 31.116-11.785 36.891-19.901 0 0-2.28-75.085-54.268-87.533-48.971-11.725-95.106 9.404-100.608 36.832z" class="E"/><path d="M634.031 141.494c8.509-31.085 46.434-31.303 43.873-1.859-1.754 20.166-17.09 33.648-30.688 29.519s-15.432-19.451-13.185-27.66z" class="C"/><path d="M551.711 13.27c-53.06-8.031-101.715 32.901-65.235 93.647.507-47.326 27.868-49.438 42.472-66.777 0-14.992 22.763-26.87 22.763-26.87z" class="E"/><ellipse cx="565.169" cy="138.784" fill="#fff" rx="20.064" ry="22.096" transform="matrix(.9907 -.136061 .136061 .9907 -13.627 78.185)"/><ellipse cx="559.967" cy="139.499" rx="11.637" ry="16.476" transform="matrix(.9907 -.136061 .136061 .9907 -13.773 77.483)" class="B"/><path d="M518.18 184.575a5.002 5.002 0 0 1-4.87-3.889c-2.221-9.735 2.604-15.13 7.861-16.934 7.882-2.705 17.608 1.585 21.239 9.367a5 5 0 0 1-9.062 4.23c-1.56-3.343-6.216-5.071-8.933-4.138-.586.201-2.37.813-1.357 5.25a5 5 0 0 1-4.879 6.113z" class="E"/><path d="M585.282 195.597c4.708 1.009 5.113 16.581-9.097 22.941-12.964 5.802-29.626 1.428-29.626-3.913s11.097-4.855 19.922-8.345c9.052-3.58 14.128-11.684 18.801-10.682z" fill="#fff"/><g class="E"><path d="M649.189 157.654a5.002 5.002 0 0 1-4.863-3.857c-1.652-7.028-.234-13.835 3.992-19.169 3.906-4.931 9.813-7.994 15.416-7.994a5 5 0 0 1 0 10c-2.114 0-5.277 1.3-7.577 4.204-1.62 2.044-3.298 5.555-2.095 10.672a5.001 5.001 0 0 1-4.872 6.144z"/><path d="M658.277 149.316a4.978 4.978 0 0 1-3.061-1.049l-6.919-5.366a5 5 0 1 1 6.128-7.902l6.919 5.366a5 5 0 0 1-3.068 8.951z"/></g><path d="M542.018 109.728c-8.509 4.791-16.274-8.595-5.532-15.132 12.127-7.381 34.185-2.606 44.3 3.416 6.482 3.859 4.747 10.989-3.264 8.907s-25.811-2.648-35.504 2.81zm-37.574-7.897c7.504-.004 10.461 10.757 2.956 13.939-4.929 2.09-18.159.918-29.643 8.097-3.896 2.435-5.557-2.142-2.852-6.14 4.863-7.188 17.004-15.89 29.539-15.897z" class="B"/><path d="M559.96 252.539a5 5 0 0 1-.534-9.971c17.397-1.891 43.915-9.326 58.791-19.38a5 5 0 1 1 5.599 8.285c-18.311 12.375-47.893 19.361-63.309 21.037-.184.02-.366.03-.547.03z" class="E"/><path d="M528.942 45.141a5 5 0 0 1-4.964-4.457c-1.404-12.839 12.199-24.863 25.397-31.835a5.001 5.001 0 0 1 4.671 8.843c-10.255 5.417-20.928 14.582-20.128 21.905a5 5 0 0 1-4.977 5.544z" class="B"/><g clip-path="url(#A)"><ellipse cx="495.827" cy="147.835" fill="#fff" rx="17.255" ry="20.064" transform="matrix(.9907 -.136061 .136061 .9907 -15.503 68.834)"/><ellipse cx="493.311" cy="148.523" rx="10.241" ry="15.31" transform="matrix(.9907 -.136061 .136061 .9907 -15.62 68.498)" class="B"/></g><g class="B"><ellipse cx="505.999" cy="680.598" rx="7.944" ry="17.332"/><ellipse cx="500.555" cy="817.194" rx="17.295" ry="7.927" transform="matrix(.060195 -.998187 .998187 .060195 -345.284 1267.657)"/></g><g class="H"><path d="M675.071 805.44c1.424-2.177 104.222-22.817 107.171-20.968s6.365 27.197 5.048 29.511-105.616 24.744-108.336 22.521-5.307-28.887-3.883-31.064zm57.296-415.483a5 5 0 0 1-4.522-7.128c14.339-30.517 69.759-67.307 96.967-74.24a5 5 0 0 1 2.469 9.691c-24.809 6.322-77.787 41.99-90.385 68.802a5.002 5.002 0 0 1-4.529 2.875zm84.902 504.992a5 5 0 0 1-4.986-5.439l9.918-112.7c-1.584-4.463-7.011-21.21-6.424-39.727-9.691-10.193-9.522-22.208-7.281-29.874-10.605-8.107-11.128-26.931-11.048-32.36l-64.503-145.294a5.001 5.001 0 0 1 2.564-6.59 5.002 5.002 0 0 1 6.59 2.564l64.945 146.288c.314.706.46 1.474.428 2.246-.235 5.824.919 23.167 9.024 26.281a5.002 5.002 0 0 1 2.642 6.975c-.258.512-6.522 13.348 5.123 24.092a5.002 5.002 0 0 1 1.601 3.969c-1.168 19.857 6.009 38.768 6.081 38.956a5.01 5.01 0 0 1 .316 2.239l-10.016 113.812a5 5 0 0 1-4.975 4.562z"/><path d="M820.877 740.087a5 5 0 0 1-4.982-5.486c2.128-21.829 20.472-52.387 21.252-53.677a5 5 0 0 1 8.558 5.172c-.179.297-17.95 29.912-19.857 49.476a5.001 5.001 0 0 1-4.971 4.515zm-377.215 21.467a5 5 0 0 1-4.997-4.907l-3.318-107.765c-2.657-75.113-5.669-160.249-3.891-206.667a4.991 4.991 0 0 1 5.188-4.805 5 5 0 0 1 4.805 5.188c-1.764 46.05 1.241 130.989 3.893 205.93l3.322 107.932a5 5 0 0 1-4.906 5.092h-.095z"/></g></svg></g><g transform="matrix(1.198569 0 0 1.198176 153.6 320.4)"><svg width="868.035" height="2007.05"><clipPath id="B"><ellipse cx="490.599" cy="119.315" rx="21.313" ry="24.077" transform="matrix(.996622 -.08213 .08213 .996622 -8.141 40.692)"/></clipPath><clipPath id="C"><path d="M562.413 85.957c1.369 9.019 1.91 18.616 2.51 29.415.61 10.984 2.898 17.913 5.485 23.923 3.406 7.909-39.136 24.083-42.513-19.979-3.732-48.7 32.662-45.588 34.518-33.358z"/></clipPath><clipPath id="D"><ellipse cx="557.199" cy="113.362" rx="18.298" ry="21.901" transform="matrix(.996622 -.08213 .08213 .996622 -7.427 46.142)"/></clipPath><g class="D"><path d="M447.453 610.027c-.561 31.298 10.222 106.194 35.793 183.344s62.464 157.48 62.464 157.48l88.017-18.888s-48.236-279.022-43.679-318.648c5.263-45.759-141.8-47.652-142.595-3.288z"/><path d="M633.726 931.963c7.852 24.685 27.27 84.02 27.969 104.711.677 20.023-84.068 22.558-93.51-3.484-7.281-20.08-24.373-53.861-22.476-82.339 2.062-30.962 88.017-18.888 88.017-18.888z"/><path d="M595.337 1043.697c1.949 8.749 4.374 28.812 2.107 34.769s-13.788 19.743-17.826 24.951c-9.074 11.704-29.052-4.105-19.513-15.592 8.199-9.874 14.066-19.249 14.066-19.249l-5.986-35.387z"/><path d="M618.714 1044.4c1.92 7.777 4.398 37.414 4.028 42.823s-11.932 28.4-16.36 35.281c-8.575 13.326-28.683-.491-21.142-15.081s12.554-23.187 12.554-23.187l-2.457-40.538 23.377.703z"/><path d="M641.197 1041.249c2.13 11.793 4.695 42.166 3.413 49.112s-6.203 32.805-7.938 39.175c-3.793 13.923-27.738 11.782-24.809-5.545s7.807-36.928 7.807-36.928l-3.72-42.276 25.248-3.539z"/><path d="M661.695 1036.673c1.315 24.043 1.992 42.235 1.889 48.258-.17 9.995-3.455 30.067-6.384 43.353-3.414 15.488-27.924 10.933-25.398-8.593s5.357-34.176 5.357-34.176l-1.242-43.088 25.776-5.755z"/></g><path d="M634.27 1136.512a4.976 4.976 0 0 1-3.462-1.394c-2.798-2.687-5-8.098-2.185-29.314 1.263-9.518 3.039-18.38 3.524-20.732l-1.226-42.5a5 5 0 0 1 4.854-5.142c2.725-.095 5.063 2.094 5.142 4.854l1.242 43.088a5.03 5.03 0 0 1-.106 1.18c-4.019 18.973-5.873 37.877-4.095 41.583a4.999 4.999 0 0 1-3.688 8.377zm3.463-8.606l.002.002-.002-.002zm-23.332-12.377a5 5 0 0 1-4.883-6.098l5.103-22.705-3.653-41.5a5 5 0 0 1 4.542-5.419c2.752-.231 5.178 1.792 5.419 4.542l3.721 42.276a5.01 5.01 0 0 1-.103 1.535l-5.273 23.464a5.002 5.002 0 0 1-4.874 3.905zm-16.962-32.063a5 5 0 0 1-4.986-4.697L590.346 1044a5 5 0 0 1 9.981-.605l2.107 34.769a5 5 0 0 1-4.996 5.302z" class="C"/><path d="M647.397 996.977c1.413 16.013 2.952 39.867 3.307 52.748.626 22.767-25.272 23.903-27.497 2.092l-4.813-46.203s-24.849-7.325-33.618-37.27" class="D"/><path d="M637.334 1072.509c-8.638 0-17.73-6.744-19.102-20.184a12504.248 12504.248 0 0 0-4.396-42.264c-9.964-2.03-24.849-9.955-29.924-30.255a4.999 4.999 0 1 1 9.701-2.425c5.564 22.255 24.774 23.229 24.967 23.237a5 5 0 0 1 4.785 4.468l4.814 46.224c.827 8.102 5.413 11.453 9.572 11.185 4.125-.267 8.183-4.276 7.954-12.633-.334-12.153-1.81-35.68-3.29-52.446a5 5 0 0 1 9.961-.879c1.494 16.932 2.986 40.729 3.325 53.05.411 14.929-8.682 22.329-17.304 22.887-.353.023-.709.034-1.064.035z" class="C"/><path d="M320.483 1561.241l-18.562 257.866c.475 53.325 306.015 87.142 312.479 18.9 3.69-38.959-77.056-29.219-87.658-59.088-15.126-42.61-8.939-216.329-8.939-216.329l-197.319-1.349z" class="D"/><path d="M295.583 1789.309c52.644 24.342 212.266 41.075 250.462 31.931 7.242-1.734-22.261-11.636-22.261-11.636s.878-33.094 15.294-33.281c8.99-.117 18.097 18.344 39.609 21.621 14.771 2.25 71.46.529 94.227 24.308 18.85 19.688 20.314 73.157 20.314 73.157s-32.077 18.83-102.853 23.376-110.949 6.493-128.848-3.247-37.378-27.921-65.299-22.726-94.294 8.656-103.256-12.057 2.611-91.445 2.611-91.445z" class="I"/><path d="M695.034 1883.827c4.321-1.727 7.349 28 1.955 31.276-8.452 5.133-52.53 17.682-121.601 22.357-65.929 4.462-106.245 4.071-118.387-6.047s-33.764-31.873-52.55-27.32c0 0 3.516 27.802-.792 33.677-2.845 3.879-104.209 4.215-107.319 1.377-5.444-4.968-8.429-56.428-3.369-58.393 8.117-3.152 96.086-.439 114.627.067s42.107 12.939 57.498 21.755c21.302 12.202 58.582 8.776 109.786 5.783 72.551-4.24 104.3-18.196 120.152-24.531z" class="J"/><g class="K"><path d="M359.351 699.716l-24.995 591.713c0 70.169 228.292 85.187 233.266 8.827 5.97-91.665 11.81-445.666 9.316-599.331-.324-19.971-217.588-1.209-217.588-1.209z"/><path d="M567.622 1300.257c-4.765 118.491-24.968 401.008-31.567 483.672-33.895 19.738-156.253 27.261-236.604-14.309l34.906-478.19c7.743-103.254 237.283-91.075 233.266 8.827z"/></g><path d="M122.351 1543.115c-50.431 141.619-64.001 197.592-71.393 220.13-26.622 81.165 175.966 187.005 207.694 64.522 6.785-26.194 49.755-219.954 49.755-219.954l-186.055-64.698z" class="D"/><path d="m77.863 1911.719 70.421-12.004 3.601-14.804-71.077 9.161z" class="B"/><path d="M288.169 1858.18c19.848 12.377 76.424 14.295 85.221 43.435s7.148 64.878 3.299 69.826-67.077 20.893-116.01 14.295-116.01-24.742-126.457-42.336-13.745-52.782-50.583-65.977-67.386-48.835-65.977-66.527c1.784-22.414 41.766-85.735 41.766-85.735 4.155-4.414 30.371 44.848 59.937 70.532 35.417 30.767 77.812 59.462 102.827 67.435 15.319 4.882 0-21.992 0-21.992s17.487-27.655 44.528-19.444c9.046 2.747 4.001 25.608 21.449 36.488z" class="I"/><path d="M17.615 1803.667C9.443 1806.088-2.961 1840.498.64 1847.7s71.221 60.418 77.223 64.019c0 0 6.523-26.477 18.806-16.405 20.006 16.405 21.206 56.417 28.809 64.819s56.68 39.818 125.22 45.8c62.036 5.415 120.547-10.188 130.499-18.622 5.631-4.772 4.529-33.654 0-31.18-16.805 9.181-67.343 27.394-130.882 18.406-50.912-7.202-106.432-28.809-110.433-40.812s-7.213-37.285-41.612-57.217c-38.812-22.489-75.223-58.017-80.655-72.842z" class="J"/><g class="K"><path d="M273.073 709.076l-69.463 542.652c-13.426 57.063 206.978 146.013 219.292 70.489s58.105-452.586 69.082-595.875c1.526-19.915-218.911-17.266-218.911-17.266z"/><path d="M422.902 1322.217c-11.458 79.686-89.078 427.679-109.009 500.76-83.84 20.449-190.173-20.449-256.583-118.833 55.834-154.892 130.181-348.739 146.3-452.417 15.907-102.315 232.119-18.713 219.292 70.489z"/></g><path d="M324.183 1787.312a5 5 0 0 1-4.887-6.082l98.69-459.924c16.033-86.568 56.478-463.451 56.885-467.248a5.01 5.01 0 0 1 5.504-4.439 5 5 0 0 1 4.439 5.504l-56.995 468.003c-16.083 86.84-97.935 456.541-98.759 460.265a5.003 5.003 0 0 1-4.877 3.92z" fill="#2199ce"/><path d="M356.541 54.493c-26.226-6.605-68.038 19.146-76.842 69.338s4.645 86.243-2.599 105.518c-26.345 70.104 0 103.187 52.241 114.844-11.11-24.61-22.883-53.105-1.041-82.179 14.015-18.657 37.74-27.764 47.238-86.202 6.586-40.518 12.089-113.492-18.997-121.32z" fill="#f62"/><path d="M539.231 278.547c71.643 16.958 58.473 266.891 55.237 337.916-1.129 24.781-157.969 38.858-157.552-3.326.766-77.483-9.593-361.078 102.315-334.589z" class="G"/><g class="D"><rect height="218.529" rx="54.073" transform="matrix(.998725 .050488 -.050488 .998725 12.087 -21.996)" width="108.145" x="387.31" y="118.954"/><path d="M493.221 273.774h14.638s53.669 111.709 14.633 123.352c-63.608 18.971-188.593-109.362-188.593-109.362l50.693-7.155z"/></g><path d="m277.837 665.712-4.764 43.364c39.84 35.703 217.526 33.689 303.865-8.15l1.016-45.996c-83.472 43.622-249.316 50.611-300.118 10.782z" class="K"/><path d="M491.997 812.913a5 5 0 0 1-4.899-6.026c3.975-18.961 6.381-96.771 5.505-119.704a5.002 5.002 0 0 1 4.806-5.188 5 5 0 0 1 5.188 4.806c.914 23.923-1.524 102.166-5.711 122.138a5.002 5.002 0 0 1-4.889 3.975z" fill="#2199ce"/><g class="G"><path d="M278.591 316.21c16.043-11.697 93.639-49.943 93.639-49.943l22.914-17.822 41.691 33.098s19.573 51.328 26.097 62.651 59.56 52.932 59.56 52.932l5.59-27.307c-20.223-25.625-10.863-76.436-20.223-96.045 0 0 16.052-.703 31.372 4.773s8.018 39.507 13.495 57.86 50.219 95.902 55.676 121.947c7.522 35.898-8.652 134.8-5.02 167.941 3.138 28.635-9.564 36.925-28.087 43.006-57.073 18.74-232.102 40.67-297.458 7.59-24.988-12.648-39.089-51.509-31.787-75.697s21.905-125.043 18.254-166.116-3.816-105.671 14.287-118.87z"/><path d="M385.533 226.485c-2.76 0-22.215 29.598-26.034 44.874 10.572 20.363 38.668 53.255 72.244 68.743l5.092-58.559s-48.542-55.058-51.302-55.058zm109.437 12.699c9.109 3.943 31.986 27.378 31.986 27.378l12.275 49.101-18.441-11.28s-.008 27.99.028 36.947 10.829 23.132 12.275 28.456-10.601 27.34-10.601 27.34 2.435-18.814.558-25.666-14.189-21.139-15.191-27.265c-3.729-22.799-9.261-49.389-15.26-58.124l2.37-46.886z"/></g><g class="L"><path d="M522.496 402.126a5.001 5.001 0 0 1-2.768-9.168c11.811-7.833 10.839-15.574 8.674-21.442-1.042-2.826-2.729-6.279-4.514-9.935-2.84-5.817-6.06-12.411-7.884-18.898-3.002-10.678-.485-35.97-.188-38.819.01-.096.023-.191.038-.286l6.166-37.821a4.996 4.996 0 0 1 5.74-4.13 5 5 0 0 1 4.13 5.74l-6.142 37.676c-.755 7.336-2.21 27.488-.117 34.933 1.58 5.618 4.588 11.781 7.243 17.218 1.899 3.889 3.692 7.562 4.909 10.861 4.834 13.102.502 24.595-12.528 33.238-.85.564-1.81.833-2.759.833z"/><path d="M523.74 686.369a5 5 0 0 1-1.763-9.68c26.241-9.881 21.681-34.533 9.771-84.904l-6.589-28.903c-5.316-25.02-18.609-134.114-19.343-143.653-.646-8.402 4.145-14.267 8.371-19.441 1.5-1.837 2.918-3.573 4.128-5.411a5 5 0 1 1 8.352 5.5c-1.492 2.267-3.141 4.285-4.736 6.237-4.02 4.921-6.467 8.151-6.145 12.348.728 9.462 13.894 117.587 19.153 142.342l6.54 28.681c5.575 23.578 10.389 43.941 9.688 59.947-.808 18.439-9.204 30.416-25.667 36.616a4.982 4.982 0 0 1-1.761.322z"/></g><g fill="#330096"><path d="M503.696 799.48a5 5 0 0 1-4.989-5.398c6.55-82.034-4.368-186.301-29.205-278.914-12.843-47.889-28.438-89.352-46.351-123.238-19.212-36.343-40.12-61.999-62.143-76.255-25.05-16.215-51.235-17.046-77.827-2.466-25.315 13.879-73.296 91.699-125.219 203.092-47.385 101.658-81.778 196.458-81.778 225.412a5 5 0 0 1-10 0c0-34.26 41.61-141.455 82.714-229.637 20.072-43.062 88.729-185.297 129.475-207.636 30.065-16.483 59.695-15.526 88.068 2.84 44.994 29.125 85.024 102.035 112.718 205.297 25.117 93.657 36.151 199.189 29.516 282.3a5.002 5.002 0 0 1-4.979 4.603z"/><path d="m429.872 1072.666-346.103-59.253c-17.338-2.539-29.599-19.962-27.449-38.917l16.895-250.68c3.282-29.198 20.299-40.492 47.507-37.464l358.401 38.699c18.886 2.039 32.525 19.712 30.391 39.474l-29.192 270.335c-2.981 26.277-23.602 41.866-50.449 37.807z"/></g><path d="m429.872 1072.666-358.399-52.481c-17.338-2.539-29.599-19.962-27.449-38.917l29.191-257.452c2.134-18.824 17.87-32.565 35.211-30.692l358.401 38.699c18.886 2.039 32.525 19.712 30.391 39.474l-29.192 270.335c-2.15 19.907-19.264 33.801-38.153 31.035z" fill="#5917c1"/><g fill="#330096"><path d="M442.307 808.527a4.98 4.98 0 0 1-.583-.034L115.17 770.529a5 5 0 0 1-4.389-5.544 4.997 4.997 0 0 1 5.544-4.389l326.553 37.964a5 5 0 0 1-.571 9.967z"/><path d="M362.076 819.285c-4.611-.549-7.913-4.945-7.378-9.818l6.824-62.189c5.186-47.262-26.868-89.343-71.043-93.816-43.738-4.429-83.218 29.714-88.404 76.119l-6.824 61.06c-.535 4.784-4.567 8.235-9.003 7.707s-7.586-4.827-7.052-9.602l6.824-60.947c6.25-55.828 53.718-96.981 106.388-91.753 53.306 5.291 92.072 56.014 85.822 113.086l-6.823 62.307c-.535 4.882-4.714 8.395-9.33 7.845z"/></g><path d="M278.591 316.21c-30.523 26.074-50.808 98.759-21.11 177.954 8.024 21.397 19.954 62.888 26.583 86.973 21.607 78.504 61.372 125.977 74.05 142.934 17.126 22.907 163.246-74.084 150.047-108.732s-61.665-145.099-72.852-187.171S310.02 289.362 278.591 316.21z" class="G"/><path d="M371.516 726.779c10.696 24.461 75.763 50.949 156.982 54.017a38867.36 38867.36 0 0 1 158.954 6.367c55.145 1.364 68.953-97.089 27.509-102.284 0 0-173.06-35.547-208.58-53.693-41.018-20.956-152.642 54.94-134.865 95.593z" class="D"/><path d="M495.937 559.732C480.673 603.98 384.999 684.86 325.993 690.267c-5.063 9.643 21.406 55.204 33.507 57.077 49.149 7.605 155.357-85.273 160.766-117.095 2.65-15.591-24.328-70.516-24.328-70.516z" class="G"/><g class="D"><path d="M719.234 685.954c16.499-5.099 36.536-14.428 52.801-13.472 21.328 1.254 45.452 14.66 55.12 15.206 21.529 1.217 19.844 19.699.398 21.668-20.015 2.027-50.68-6.05-50.68-6.05-1.384 23.772-40.045 58.156-62.949 32.887-17.47-19.274 5.309-50.239 5.309-50.239z"/><path d="M714.961 684.88c18.889 3.992 76.922 24.197 101.931 40.171 25.545 16.316-25.757 113.376-51.21 104.026-29.275-10.754-39.778-32.101-78.229-41.913-25.965-6.626 27.509-102.284 27.509-102.284z"/><path d="M782.533 800.458c9.252 3.588 19.466 10.465 28.371 16.376 8.881 5.895-8.035 23.238-24.794 19.135-10.747-2.631-20.429-6.893-20.429-6.893l16.853-28.618z"/><path d="M793.678 778.609c7.829 4.199 26.021 13.683 34.18 19.477 11.918 8.464-6.23 30.841-21.768 22.623s-26.98-13.54-26.98-13.54l14.568-28.561z"/><path d="M803.905 750.914c8.284 4.565 34.628 21.584 43.521 31.062s-4.608 32.165-19.466 24.161l-36.931-20.354z"/><path d="M816.891 725.05c18.381 7.712 42.584 25.969 49.339 41.182s-6.766 30.259-18.842 21.072c-12.033-9.155-27.662-19.675-42.703-24.557-9.402-3.052 12.206-37.697 12.206-37.697z"/></g><path d="M855.402 789.254l-9.995-.311s-.007.066 0 .189c-.003-.071-.111-1.777-1.91-4.064-6.487-8.247-36.352-26.44-47.313-32.755a4.999 4.999 0 1 1 4.992-8.665c4.204 2.422 41.331 23.986 50.181 35.237 4 5.084 4.072 9.529 4.046 10.369zm-23.84 23.25a5 5 0 0 1-4.996-5.3c.051-1.193-.288-4.07-1.676-5.093-2.844-2.097-25.144-15.387-39.439-23.809a5.001 5.001 0 0 1 5.076-8.616l40.298 24.376c6.095 4.494 5.779 12.809 5.724 13.742a5 5 0 0 1-4.986 4.7zm-23.381 10.603c-.003-.063-.092-1.516-1.193-3.148-2.54-2.276-18.493-11.381-32.101-18.665a4.999 4.999 0 1 1 4.72-8.816c21.505 11.512 33.4 18.723 35.354 21.434 3.052 4.236 3.216 8.287 3.218 9.056l-10 .024zm-1.082-3.045h.01z" class="C"/><g class="L"><path d="M333.898 694.133a5 5 0 0 1-4.021-2.03c-31.721-42.965-46.072-92.275-64.241-154.705l-8.978-30.576a5 5 0 0 1 9.582-2.862l8.997 30.643c17.553 60.314 31.485 108.19 60.965 149.2 19.483-3.046 49.632-19.223 81.562-43.874 30.356-23.435 56.369-50.08 67.14-68.655l-54.263-141.315a5 5 0 1 1 9.335-3.585l55.103 143.501a4.998 4.998 0 0 1-.263 4.159c-22.896 42.614-114.548 115.709-160.444 120.075a5.048 5.048 0 0 1-.475.022z"/><path d="M522.425 637.749a5 5 0 0 1-4.965-5.643c1.06-8.176-11.216-38.273-21.48-60.562l-1.03 2.225a5.001 5.001 0 0 1-9.076-4.2l5.524-11.937a5.001 5.001 0 0 1 4.495-2.9c1.926.031 3.702 1.083 4.543 2.822 4.843 10.008 28.902 60.696 26.939 75.837a5 5 0 0 1-4.952 4.358z"/></g><path d="M550.067 50.9c12.357 20.26 13.442 39.031 14.856 64.472s11.826 29.132 14.118 50.01c3.026 27.568-28.403 65.108-43.814 67.841-16.289 2.888-88.334 2.827-114.481-43.814s-29.662-126.42 12.032-151.86 97.044-19.844 117.29 13.352z" class="D"/><path d="M388.335 206.57c6.605-16.375 10.394-37.629 10.83-58.145s18.77-20.466 18.77-20.466 19.207-78.623 89.923-91.719c0 0-16.588-24.445-44.961-31.866S380.952-8.668 348.965 55.01c-32.302 64.306 8.377 145.013 39.37 151.561z" fill="#f62"/><path d="M417.177 126.94c-21.925-21.006-50.274-5.198-40.439 23.331 8.283 24.025 32.644 25.335 40.439 19.489s11.481-31.819 0-42.819z" class="D"/><path d="M475.604 9.083c12.175-7.33 81.853-7.209 80.355 53.238 0 0-16.728-35.101-48.1-26.083-9.088-10.778-19.641-20.036-32.255-27.156zm32.255 27.156c-17.26 26.083-57.844 29.972-67.349 83.077-4.384 24.494-8.408 59.859-.731 105.557-15.308-21.569-28.563-56.594-23.757-107.621 3.631-38.55 16.943-71.236 34.425-88.374s57.412 7.361 57.412 7.361z" fill="#f62"/><g class="C"><path d="M406.528 160.681a5 5 0 0 1-5-5c0-4.932-2.14-9.796-5.872-13.346-2.518-2.396-5.478-3.813-7.733-3.701a4.99 4.99 0 0 1-5.243-4.744 5 5 0 0 1 4.744-5.243c5.05-.248 10.555 2.097 15.125 6.443 5.707 5.429 8.979 12.934 8.979 20.592a5 5 0 0 1-5 5z"/><path d="M394.172 153.723a5 5 0 0 1-4.294-7.555l5.424-9.129a5 5 0 0 1 8.597 5.107l-5.424 9.129a4.998 4.998 0 0 1-4.303 2.447zm131.723 7.948a5.002 5.002 0 0 1-4.699-6.71c3.382-9.302 13.633-15.513 21.939-13.293 5.05 1.35 9.844 6.228 8.152 15.866a5 5 0 0 1-9.85-1.728c.214-1.218.555-4.091-.886-4.477-2.646-.711-8.121 1.999-9.958 7.049a5.004 5.004 0 0 1-4.7 3.293zm-14.226 37.346c-16.997 0-25.229-8.856-29.205-17.036a5 5 0 1 1 8.994-4.372c4.74 9.749 14.213 13.207 28.962 10.568a4.998 4.998 0 0 1 5.802 4.042 5 5 0 0 1-4.042 5.802c-3.831.685-7.325.996-10.511.996z"/></g><path d="M542.831 81.119c5.33-1.358 17.851-2.012 23.992 1.058s9.21-2.729 3.411-9.21-22.742-10.885-32.782-5.493c-9.971 5.355-2.778 15.723 5.379 13.645zM507.6 83.98c9.693 2.546 11.075-12.878 1.169-15.648-13.856-3.874-32.128 1.422-41.879 11.64-5.449 5.71-1.579 10.132 3.951 6.879s21.692-6.828 36.76-2.871z" fill="#c83400"/><path d="M495.315 237.461c-.3 0-.604-.027-.911-.083-24.346-4.48-40.601-9.877-48.311-16.043a5 5 0 1 1 6.245-7.81c3.606 2.884 14.103 8.54 43.875 14.019a5 5 0 0 1-.899 9.918z" class="C"/><path d="M371.132 201.335a4.982 4.982 0 0 1-3.405-1.339c-35.216-32.765-47.047-108.64-23.017-147.611a5 5 0 1 1 8.512 5.248c-21.516 34.894-10.359 105.57 21.317 135.042a5 5 0 0 1-3.407 8.66zM507.864 41.239a4.996 4.996 0 0 1-4.208-2.292c-7.289-11.307-17.929-20.271-29.961-25.243a5 5 0 0 1 3.818-9.242c13.897 5.742 26.167 16.065 34.548 29.067a5 5 0 0 1-4.198 7.71zm-92.843 89.197a5 5 0 0 1-5-5c0-51.02 14.148-84.409 44.525-105.08a5 5 0 0 1 5.626 8.268c-27.393 18.64-40.151 49.402-40.151 96.812a5 5 0 0 1-5 5z" fill="#c83400"/><ellipse cx="490.599" cy="119.315" fill="#fff" rx="21.313" ry="24.077" transform="matrix(.996622 -.08213 .08213 .996622 -8.141 40.692)"/><g clip-path="url(#B)"><ellipse cx="495.911" cy="115.186" rx="11.884" ry="19.025" transform="matrix(.996622 -.08213 .08213 .996622 -7.784 41.115)" class="B"/></g><g clip-path="url(#C)"><ellipse cx="557.199" cy="113.362" fill="#fff" rx="18.298" ry="21.901" transform="matrix(.996622 -.08213 .08213 .996622 -7.427 46.142)"/><g clip-path="url(#D)"><ellipse cx="559.303" cy="108.447" rx="10.445" ry="17.715" transform="matrix(.996622 -.08213 .08213 .996622 -7.017 46.298)" class="B"/></g></g><path d="M594.633 428.198a4.999 4.999 0 0 1-4.48-2.774l-36.437-73.579a5 5 0 0 1 9-4.36l36.39 73.484a5 5 0 0 1-4.473 7.228zm-162.89-83.096a4.99 4.99 0 0 1-2.318-.57c-2.29-1.198-56.29-29.814-74.502-71.157a5 5 0 0 1 9.151-4.031c13.202 29.968 48.587 53.646 63.365 62.532l4.414-50.766a5 5 0 1 1 9.963.866l-5.092 58.559a5 5 0 0 1-4.981 4.567zm107.487-24.439a4.993 4.993 0 0 1-2.608-.735l-18.441-11.28a5 5 0 1 1 5.218-8.53l8.018 4.904-9.312-37.247a4.999 4.999 0 0 1 3.638-6.063 4.996 4.996 0 0 1 6.063 3.638l12.275 49.101a4.999 4.999 0 0 1-4.851 6.213z" class="L"/><path d="M352.829 1885.672a4.969 4.969 0 0 1-2.522-.687c-6.573-3.849-19.217-7.406-31.445-10.846-13.28-3.736-25.823-7.265-33.241-11.657a5 5 0 1 1 5.096-8.604c6.291 3.726 18.777 7.238 30.853 10.636 13.427 3.777 26.109 7.345 33.791 11.843a5 5 0 0 1-2.531 9.315z" class="J"/></svg></g><g transform="matrix(1.196493 0 0 1.195486 985.2 1098)"><svg width="160.469" height="196.74"><path d="M28.852 169.319c-6.341 4.573-23.136 5.543-23.852-8.993-.285-5.791 6.251-11.651 11.252-17.183 13.953-15.436 27.521 1.586 20.291 14.321-4.304 7.581-7.69 11.854-7.69 11.854Zm20.253 12.396c-11.486 8.653-26.866-5.754-15.755-16.374 3.802-3.634 4.144-5.445 8.854-9.55 11.002-9.59 24.771 4.259 16.78 16.273-2.825 4.247-9.879 9.651-9.879 9.651Zm24.262 11.659c-9.821 9.66-27.284-3.333-16.581-15.543 1.948-2.223 3.486-4.208 6.09-6.57 10.808-9.807 25.033 4.479 16.053 15.773-3.44 4.326-5.561 6.34-5.561 6.34ZM127.944 0c-21.477 6.452-53.428 11.267-68.457 23.312-9.881 7.919-13.298 26.786-25.971 39.102-11.171 10.856 2.891 27.05 17.903 15.509 9.268-7.125 25.727-25.929 25.727-25.929s51.477 26.005 73.552 2.958C182.044 22.225 127.944 0 127.944 0Z" class="C"/><path d="M110.231 66.25c-11.248 0-21.874-4.046-35.044-9.656a5 5 0 1 1 3.918-9.201c18.758 7.989 29.109 11.282 42.917 6.975a5 5 0 1 1 2.979 9.546c-5.19 1.619-10.035 2.336-14.77 2.336zM52.537 186.253a5.001 5.001 0 0 1-3.86-8.176l8.827-10.736a5 5 0 1 1 7.725 6.351l-8.827 10.736a4.987 4.987 0 0 1-3.865 1.825zm-22.296-12.404a5 5 0 0 1-3.909-8.114l8.308-10.437a5 5 0 0 1 7.824 6.228l-8.308 10.437a4.99 4.99 0 0 1-3.915 1.886zm-25.235-8.522a5 5 0 0 1-4.978-5.523c.447-4.262 2.479-8.597 6.391-13.643a5 5 0 1 1 7.903 6.128c-2.685 3.462-4.106 6.262-4.348 8.56a5 5 0 0 1-4.967 4.478z" class="E"/></svg></g></svg>