<svg xmlns="http://www.w3.org/2000/svg" height="627.169" width="479.609" xmlns:v="https://vecta.io/nano"><g fill="#e3e5e5"><path d="M442.156 576.477l-310.57 45.233c-22.705 3.307-43.889-11.621-47.197-33.368L5.438 69.362c-3.34-21.958 12.769-41.053 35.859-42.635L357.07 5.093c21.156-1.449 40.734 14.303 43.834 35.169l73.29 493.307c3.072 20.676-11.226 39.877-32.039 42.908z"/><path d="M125.282 627.169c-22.641 0-42.467-15.923-45.837-38.074L.495 70.114c-1.777-11.681 1.243-23.102 8.502-32.159 7.672-9.571 19.022-15.33 31.958-16.217L356.728.104c23.62-1.617 45.652 16.067 49.122 39.423l73.29 493.308a42.39 42.39 0 0 1-7.959 31.739c-6.844 9.205-16.896 15.189-28.305 16.851l-310.571 45.233c-2.359.344-4.708.51-7.023.51zM359.771 10a34.53 34.53 0 0 0-2.359.081L41.64 31.715c-10.115.693-18.936 5.13-24.839 12.495-5.491 6.85-7.771 15.515-6.419 24.401l78.95 518.98c2.891 19 21.523 32.086 41.533 29.172l310.571-45.233.721 4.948-.721-4.948c8.76-1.276 16.474-5.865 21.721-12.922 5.215-7.014 7.379-15.645 6.092-24.303L395.958 40.996C393.353 23.46 377.391 10 359.771 10z"/></g><g fill="#b7b7b7"><path d="M368.382 526.976L191.703 551.3c-27.89 3.84-53.959-14.87-58.044-41.826-4.088-26.969 15.417-51.692 43.385-55.185l177.163-22.127c26.514-3.311 51.018 15.127 54.897 41.151 3.878 26.012-14.28 50.023-40.722 53.663z"/><path d="M184.436 556.8c-27.472 0-51.625-19.559-55.72-46.576-2.129-14.045 1.448-28.052 10.071-39.441 9.035-11.933 22.401-19.552 37.638-21.455l177.164-22.126c29.076-3.631 56.191 16.725 60.462 45.375 2.061 13.821-1.411 27.58-9.774 38.743-8.491 11.334-20.996 18.653-35.211 20.61l-176.679 24.324a58.38 58.38 0 0 1-7.95.546zm175.895-120.019c-1.82 0-3.656.112-5.504.343L177.663 459.25c-12.537 1.566-23.512 7.805-30.905 17.569-6.98 9.22-9.877 20.551-8.156 31.906 3.671 24.219 27.189 41.096 52.419 37.622L367.7 522.023l.682 4.953-.682-4.953c11.548-1.59 21.695-7.521 28.572-16.7 6.749-9.009 9.55-20.115 7.887-31.272-3.206-21.508-22.275-37.27-43.828-37.27z"/></g><g fill="#fff"><path d="m222.214 147.448c-63.98 5.489-108.966 60.653-99.52 123.067 9.436 62.344 69.394 106.807 132.969 99.484 62.538-7.203 105.175-61.976 96.139-122.503-9.045-60.592-66.654-105.448-129.589-100.048zm28.381 188.832c-44.209 4.895-85.712-26.117-92.241-69.347-6.534-43.264 24.54-81.643 68.945-85.65 43.898-3.962 84.262 27.24 90.601 69.621 6.335 42.349-23.6 80.538-67.305 85.377z"/><path d="M263.035 127.399l-9.917-11.028a5 5 0 0 0-5.154-1.446l-29.006 8.697-31.156-3.742a5 5 0 0 0-5.028 2.65l-6.531 12.506a5 5 0 0 0-.264 4.032c.483 1.321 1.5 2.378 2.803 2.91l42.643 17.443a4.99 4.99 0 0 0 1.892.372h0a5 5 0 0 0 2.778-.843l36-24.051c1.206-.806 2.003-2.096 2.184-3.535a5 5 0 0 0-1.243-3.965z"/></g><path d="M223.317 169.794c-1.954 0-3.863-.375-5.676-1.115l-42.644-17.444a5 5 0 1 1 3.786-9.256l42.641 17.443a5.05 5.05 0 0 0 4.671-.471l35.999-24.051a5 5 0 0 1 5.556 8.315l-35.999 24.05a14.95 14.95 0 0 1-8.335 2.529z" fill="#e3e5e5"/><g fill="#55a2ff"><path d="m231.902 87.809-37 2.891-22.607 26.393 50.432 33.771 38.671-41.017z"/><path d="M222.725 155.864c-.962 0-1.931-.277-2.78-.846l-50.433-33.771c-1.187-.795-1.978-2.06-2.171-3.475a5 5 0 0 1 1.156-3.932l22.607-26.393a5 5 0 0 1 3.408-1.732l37.001-2.892a5.01 5.01 0 0 1 3.382.979l29.495 22.038a5 5 0 0 1 1.989 3.573c.123 1.42-.366 2.825-1.343 3.862l-38.67 41.017c-.975 1.034-2.302 1.57-3.64 1.57zm-42.971-39.793l42.238 28.284 31.921-33.858-23.497-17.557-33.063 2.584z"/></g><g fill="#2471ed"><path d="M172.289 122.093a5 5 0 0 1-.4-9.984l89.103-7.246a5 5 0 1 1 .811 9.967l-89.103 7.246-.411.017z"/><path d="M222.728 155.864c-1.332 0-2.66-.529-3.644-1.575l-33.064-35.172a5 5 0 0 1-1.25-4.45l5.238-24.993a5 5 0 1 1 9.787 2.051l-4.704 22.442 31.279 33.272c1.891 2.012 1.793 5.176-.218 7.068-.965.907-2.196 1.357-3.424 1.357z"/><path d="M222.723 155.865c-.808 0-1.626-.196-2.385-.609a5 5 0 0 1-2.002-6.782l20.284-37.282-11.136-21.046a5 5 0 1 1 8.839-4.677l12.391 23.417a5 5 0 0 1-.027 4.728l-21.566 39.638c-.907 1.667-2.624 2.611-4.396 2.611z"/></g><path d="M224.639 163.587l15.666-25.305-17.89-13.558a5 5 0 0 0-6.863.79l-13.524 16.294z" fill="#fff"/><path d="M224.639 168.587a5 5 0 0 1-3.468-1.399l-20.937-20.167a5 5 0 1 1 6.938-7.203l16.477 15.871 11.083-17.902a5 5 0 1 1 8.503 5.263l-14.342 23.168a5 5 0 0 1-3.628 2.329c-.208.026-.416.039-.624.039z" fill="#e3e5e5"/></svg>