<svg xmlns="http://www.w3.org/2000/svg" width="2347" height="3000" xmlns:v="https://vecta.io/nano"><style><![CDATA[.B{fill:#a85f36}.C{fill:#111}.D{fill:#e09273}.E{fill:#773a11}.F{fill:#e3e5e5}.G{fill:#5ac4ff}.H{fill:#656c72}.I{fill:#8f969e}.J{fill:#5917c1}.K{fill:#330096}.L{fill:#4f2000}]]></style><g transform="matrix(1.305331 0 0 1.304386 169.565217 135.652174)"><svg width="768.421" height="2140.937"><clipPath id="A"><ellipse cx="603.001" cy="161.366" rx="22.758" ry="20.186" transform="matrix(.131495 -.991317 .991317 .131495 363.746 737.913)"/></clipPath><clipPath id="B"><ellipse cx="526.089" cy="152.836" rx="24.733" ry="21.938" transform="matrix(.131495 -.991317 .991317 .131495 305.404 654.26)"/></clipPath><g class="G"><path d="m632.287 751.825 2.396 99.374s-142.445 91.89-197.861 91.89-213.852-96.972-213.852-96.972l12.747-103.532c152.675 42.722 311.388 51.522 396.57 9.239z"/><path d="M634.683 851.199l6.918 435.438c-2.331 49.558-217.971 104.731-221.656 8.59s-4.37-390.185-4.37-390.185c0-74.798 217.355-126.545 219.107-53.843z"/></g><path d="M422.002 1605.664l-8.568 325.535c2.856 37.13 203.501 15.443 207.785-60.469s4.998-220.015 4.284-265.066-201.96-62.004-203.501 0z" class="D"/><path d="M641.601 1286.638c-1.154 46.331-4.749 330.136 0 368.683s15.261 75.516-2.707 95.783c-25.051 28.256-198.288 30.052-235.507-6.253-26.41-25.761-9.345-55.656 0-79.018s17.87-323.109 16.557-370.606 223.014-63.09 221.656-8.59z" class="G"/><path d="M410.985 1862.03c-5.389 22.535-12.596 80.787-8.55 90.216 18.486 43.081 66.137 33.313 97 46.541 32.236 13.815 65.374 63.617 149.564 67.116 60.113 2.499 104.694-17.147 108.613-30.374s-.98-73.981-28.414-88.185-51.529-25.797-75.93-56.705c-24.393-30.898-7.353-75.026-42.136-68.682s-50.461 28.39-32.334 54.845c-26.944-13.717-43.106 21.592-84.262 16.791-42.621-4.972-62.976-42.341-83.552-31.563z" fill="#ffd215"/><path d="M402.435 1952.247c-2.939 12.248-6.441 26.481-2.711 31.844 20.396 29.331 64.551 19.722 94.925 34.909s71.966 61.494 151.268 66.01c70.083 3.992 101.549-12.299 114.783-31.933 5.315-7.885 1.213-33.921-1.9-28.325-9.712 17.456-58.51 38.022-113.862 33.313-57.543-4.896-109.417-55.926-150.4-67.117-26.46-7.225-74.016-10.046-92.101-38.702zm264.673-4.796c-7.694 0-16.382-1.744-25.688-5.797-13.447-5.856-25.544-19.911-37.243-33.504-9.713-11.285-18.889-21.945-27.836-26.993a5 5 0 1 1 4.915-8.709c10.471 5.907 20.2 17.211 30.501 29.179 10.966 12.741 22.305 25.915 33.657 30.859 21.091 9.187 38.741 4.491 43.619-5.356a4.998 4.998 0 0 1 6.7-2.261 5.001 5.001 0 0 1 2.261 6.7c-4.543 9.17-15.798 15.882-30.886 15.882z" fill="#ce9800"/><path d="M638.894 1751.104c11.865-3.011 8.711 62.171 0 67.239-36.235 21.08-96.319 18.987-157.038 14.581-51.787-3.758-75.079-15.609-82.811-26.2-5.212-7.14-7.427-61.873 4.343-61.873 7.822 0 43.619 10.67 75.308 14.339 41.653 4.822 121.649 1.697 160.198-8.086z" class="G"/><g fill="#2199ce"><path d="M439.517 1764.862a4.994 4.994 0 0 1-4.237-2.34c-16.303-25.927-9.862-53.002-1.709-87.28l1.076-4.529c21.544-91.035-6.561-649.019-6.847-654.645a4.998 4.998 0 0 1 4.739-5.247c2.768-.161 5.107 1.981 5.247 4.739 1.173 23.027 28.462 565.041 6.591 657.455l-1.078 4.541c-7.908 33.248-13.622 57.27.445 79.644a4.999 4.999 0 0 1-1.571 6.894 4.965 4.965 0 0 1-2.656.769z"/><path d="M532.853 1776.542c-21.228 0-41.464-1.242-57.355-2.616-40.009-3.459-58.938-14.209-74.897-24.923a5 5 0 0 1 5.574-8.302c11.707 7.859 29.398 19.736 70.184 23.263 76.383 6.604 134.587.421 159.688-16.969a5 5 0 1 1 5.695 8.221c-24.245 16.796-68.362 21.327-108.889 21.327z"/></g><path d="M444.668 895.526c-5.02 78.747-37.021 353.724-43.765 402.877s-238.7 39.992-228.051-36.762c13.222-95.3 50.118-415.523 50.118-415.523 6.675-74.499 226.44-23.16 221.698 49.409z" class="G"/><path d="M168.359 1779.417c.692-3.484 12.245-18.563 17.045-22.319 6.768-5.297 69.854 1.088 73.38 5.566 4.042 5.133 9.391 19.869 8.761 23.555-5.236 30.605-103.939 17.15-99.185-6.801z" class="H"/><path d="M106.274 1818.551c2.257-35.541 208.054-20.41 208.046 14.003-.013 51.365-211.518 40.682-208.046-14.003z" class="I"/><path d="m200.634 1619.469-18.078 163.357c12.977 10.761 51.869 12.596 72.537 4.93l23.712-161.244c-18.283 10.521-62.439 5.269-78.171-7.042z" class="H"/><path d="M174.098 1354.528c-7.925 41.092-18.152 128.781-21.019 157.658-3.464 34.882 1.922 90.426 12.964 104.801 25.276 32.904 125.223 41.533 159.018 21.416 12.603-7.502 33.379-66.433 39.438-98.748s18.035-134.845 21.543-164.064c-32.002-46.777-95.886 14.033-141.186 9-34.422-3.825-46.939-62.245-70.758-30.062z" class="I"/><path d="m168.359 1779.417-4.378 42.54c14.747 11.125 77.537 15.789 101.232 6.311l2.332-42.05c-23.037 15.932-85.488 9.222-99.185-6.801zm-62.085 39.134-7.167 98.184c35.542 50.209 150.628 50.209 213.813 6.77l1.4-90.951c-34.413 32.721-209.965 10.802-208.046-14.003z" class="H"/><path d="M226.54 1800.082c-21.871 0-46.088-4.956-61.246-16.713a5 5 0 0 1 6.129-7.903c25.318 19.64 79.792 17.057 93.063 6.796a5 5 0 1 1 6.116 7.912c-8.032 6.209-25.172 9.907-44.062 9.907zm2.522-24.451c-17.357 0-36.535-4.809-47.113-14.919a5 5 0 0 1 6.91-7.228c15.69 14.997 57.494 14.915 66.317 5.719a5 5 0 0 1 7.217 6.922c-5.991 6.246-19.045 9.507-33.331 9.507z" fill="#374047"/><g class="G"><path d="M400.903 1298.403c-6.342 49.607 4.332 94.414-11.616 122.878 0 0 14.518 47.508-10.614 65.46s-195.12-1.588-228.192-32.726c-16.568-15.599-22.546-43.12-15.763-72.353 4.083-17.596 27.008-60.977 29.428-76.236s8.707-43.785 8.707-43.785"/><path d="M150.479 1454.015c-12.829 12.459-21.377 60.239-8.281 70.716s88.219 33.078 155.665 35.697c58.761 2.282 82.686-4.266 86.615-16.053s11.096-52.251 4.807-60.109-29.862 3.929-90.105-1.31c-64.332-5.594-142.094-35.36-148.702-28.942z"/></g><path d="M101.714 1847.98c-2.366 12.916-7.557 52.49-24.348 75.739-14.982 20.744-85.245 67.809-71.038 145.95 4.237 23.302 48.944 48.782 100.07 54.247 57.612 6.159 115.263-10.614 140.812-44.56 31.594-41.977 8.837-51.96 24.982-71.979s44.576-32.587 50.125-60.031c3.505-17.336-1.28-85.143-6.577-86.306-4.123-.905-9.913 18.843-27.845 14.245-18.662-4.786-51.664-14.207-67.809 16.145 0 0 15.547-49.736-45.809-59.627-57.237-9.227-56.227 43.482-56.227 43.482-.758-15.741-5.44-29.843-16.338-27.304z" fill="#ffd215"/><path d="M150.917 1983.76c-20.229 0-43.192-5.477-55.332-15.063-10.321-8.15-9.516-16.743-8.117-21.139 2.906-9.134 7.039-17.34 11.036-25.276 7.233-14.361 14.064-27.926 14.55-47.125.07-2.76 2.407-4.922 5.125-4.871a4.999 4.999 0 0 1 4.872 5.125c-.542 21.44-8.205 36.655-15.615 51.369-3.997 7.937-7.773 15.434-10.438 23.81-.408 1.281-1.648 5.18 4.785 10.26 16.014 12.646 59.348 17.262 74.785 7.968 11.101-6.685 23.083-38.067 32.711-63.284l6.16-15.943a5.004 5.004 0 0 1 6.489-2.81 5.001 5.001 0 0 1 2.809 6.489l-6.115 15.831c-11.229 29.409-22.841 59.82-36.896 68.283-7.229 4.354-18.516 6.377-30.809 6.377zM4.444 2057.417c-6.338 2.095-4.991 32.255-1.558 36.375s45.573 53.682 139.521 46.42c91.514-7.074 120.417-52.01 126.98-81.481 3.313-14.879-.913-24.267 8.281-40.73 8.795-15.749 40.295-24.554 45.347-36.162 3.339-7.671 2.629-34.684-.696-34.493-6.577 22.765-47.278 46.204-54.442 57.098-10.6 16.119-.327 26.149-4.614 39.316-13.42 41.216-52.731 60.474-122.924 66.534-70.615 6.096-118.57-28.25-135.896-52.877z" fill="#ce9800"/><path d="M417.305 1167.19a5 5 0 0 1-4.977-5.541l27.361-266.594a4.992 4.992 0 0 1 5.448-4.507 5 5 0 0 1 4.507 5.448l-27.375 266.734a5 5 0 0 1-4.965 4.459zm-105.504 326.552a323.92 323.92 0 0 1-12.783-.25c-37.456-1.475-124.961-20.565-150.979-35.112a5 5 0 1 1 4.88-8.729c22.721 12.704 107.604 32.317 146.493 33.849 46.694 1.848 83.979-7.618 84.35-7.715a5 5 0 0 1 2.498 9.684c-1.431.369-32.601 8.273-74.458 8.273zm-151.737-169.947a5 5 0 0 1-4.179-7.738c11.645-17.798 21.834-48.988 21.936-49.301a5 5 0 1 1 9.511 3.086c-.432 1.33-10.71 32.785-23.079 51.689a4.995 4.995 0 0 1-4.189 2.264z" fill="#2199ce"/><rect height="188.813" rx="54.541" transform="matrix(.962512 .271239 -.271239 .962512 83.056 -121.492)" width="109.082" x="426.508" y="145.317" class="D"/><g class="J"><path d="M638.912 316.785c66.168 25.151 108.25 248.336 125.259 319.792 29.251 122.884-100.272 188.077-150.383 81.269-40.906-87.187-67.871-196.907-77.798-243.953s43.215-179.804 102.922-157.108z"/><path d="M408.556 271.176c-32.398 1.794-110.458 12.536-130.278 19.429-32.462 11.29-23.8 135.936-24.015 174.094-.848 150.092-36.463 234.89-18.546 277.887 23.581 56.589 394.526 77.401 396.57 9.239s-7.447-245.898-5.721-276.959 35.643-148.581 12.347-158.081c-34.682-14.144-108.062-26.935-108.062-26.935l-122.294-18.673z"/><path d="M419.282 235.05c26.887 25.027 86.93 36.493 116.708 27.618-.814 10.483-1.503 18.512-5.14 27.181-32.623 19.885-79.04 10.951-122.294-18.673 3.057-9.341 6.021-24.835 10.726-36.127z"/></g><path d="M344.056 702.801s-90.22-41.072-132.068-77.477c-54.201-47.15-179.788 88.371-82.403 141.01 48.386 26.153 139.484 38.43 187.956 45.04s26.515-108.573 26.515-108.573z" class="D"/><g class="J"><path d="M278.278 290.605c-81.197 29.763-175.023 201.791-205.315 345.972C50.226 744.8 211.44 738.114 246.438 622.845c21.298-2.366 17.204-27.865 21.89-42.596 22.502-70.741 49.466-97.323 64.029-131.589 17.933-42.196 3.159-179.036-54.078-158.055z"/><path d="M72.963 636.577c-8.15 43.063-.459 65.544 5.457 81.517-8.994 53.527 28.57 55.394 45.436 53.968 14.935-1.263 18.277 49.854 53.773 20.89 1.519-75.471 49.226-130.38 72.95-144.668 0 0 6.208-27.399-19.896-34.314-66.656-17.656-157.72 22.606-157.72 22.606z"/><path d="m250.579 648.285 27.699 17.236c-45.505 15.724-64.657 65.639-64.032 130.595l-36.617-3.163c-6.413-61.37 24.664-132.816 72.95-144.668z"/></g><g class="K"><path d="M278.273 670.521a4.983 4.983 0 0 1-2.637-.755l-27.699-17.236a5.001 5.001 0 0 1-2.166-5.621c2.862-10-3.6-21.452-3.666-21.566a5.003 5.003 0 0 1 3.908-7.479c9.933-.844 12.233-10.837 15.444-28.427l1.98-10.237c4.567-21.268 29.373-76.413 45.762-101.733a5 5 0 1 1 8.394 5.434c-15.607 24.112-40.079 78.37-44.379 98.399-.711 3.31-1.325 6.677-1.92 9.933-2.713 14.864-5.507 30.166-17.789 35.08 1.84 4.855 3.743 12.097 2.679 19.573l24.732 15.39a5 5 0 0 1-2.646 9.246z"/><path d="M177.624 797.953a5 5 0 0 1-4.969-4.501c-3.551-35.355 2.333-68.769 17.017-96.627 14.085-26.726 35.182-45.657 59.402-53.308a5 5 0 0 1 3.012 9.536c-21.693 6.852-40.718 24.053-53.567 48.434-13.568 25.742-19.219 58.048-15.913 90.966a5 5 0 0 1-4.981 5.5zm-99.198-74.858a5 5 0 0 1-4.955-5.717c3.15-21.77 20.144-42.858 20.866-43.745a5 5 0 1 1 7.756 6.312c-.157.194-15.975 19.864-18.725 38.866a5 5 0 0 1-4.942 4.284z"/></g><path d="M632.287 91.734c15.971-6.679 28.11-35.249 4.712-50.833s-61.457-15.498-74.523-7.378 52.45 65.471 69.812 58.211z" class="C"/><path d="M629.691 78.988c10.164 27.836-11.809 136.691-26.442 173.771-10.917 27.663-128.131 6.633-145.683-28.053-24.509-48.436-4.293-117.403 12.123-148.092 33.742-63.077 139.31-54.295 160.001 2.373z" class="D"/><path d="M457.238 147.259c2.034 5.697 5.718 21.544 13.881 16.589s4.453-36.123 12.615-50.964 39.701-40.815 80.887-35.249 52.443 3.085 62.075-5.428c10.65-9.413 24.007-54.68-22.744-64.699-43.574-9.337-117.432-20.036-157.784 35.991-52.597 13.358-47.22 105.654-15.86 175.202l7.638-27.105 19.292-44.336z" class="C"/><path d="M459.272 152.956c-7.247-28.136-43.414-26.625-39.728 9.456 2.597 25.422 24.384 34.87 32.056 31.035s11.552-25.427 7.672-40.49z" class="D"/><path d="M597.638 127.227c-11.451 6.097-16.526-13.298-3.877-17.44s34.489 2.519 41.232 8.853c5.77 5.42 5.177 12.626-1.836 9.388s-26.81-5.438-35.519-.801zm-46.306-3.277c8.225 4.884 19.256-9.019 9.969-15.913-11.465-8.511-45.609-3.941-54.582 2.991-7.308 5.646-5.285 11.146 2.492 8.686 12.603-3.988 33.117-1.109 42.12 4.237z" class="C"/><g class="B"><path d="M575.202 204.533a5.002 5.002 0 0 1-4.897-6.039c.444-2.094-1.104-3.063-2.482-3.509-1.781-.575-5.593-.657-7.274 3.155a5 5 0 0 1-9.149-4.038c3.788-8.579 12.675-10.836 19.496-8.632 6.83 2.206 10.61 8.415 9.192 15.1a5.001 5.001 0 0 1-4.887 3.963zm-31.438 38.248c-13.865 0-30.01-8.32-32.676-20.812a5.001 5.001 0 0 1 9.78-2.088c1.654 7.75 16.152 14.558 26.738 12.563a4.999 4.999 0 0 1 5.84 3.987 5 5 0 0 1-3.986 5.84c-1.823.344-3.737.51-5.695.51zm-91.656-59.332a5 5 0 0 1-5-5c0-8.235-4.782-21.128-15.047-22.648a5.002 5.002 0 0 1-4.214-5.679 5.004 5.004 0 0 1 5.679-4.214c17.18 2.544 23.582 21.31 23.582 32.541a5 5 0 0 1-5 5z"/><path d="M437.538 172.284a5 5 0 0 1-3.254-8.798l8.781-7.52a4.997 4.997 0 0 1 7.05.546 5 5 0 0 1-.546 7.05l-8.781 7.52a4.98 4.98 0 0 1-3.25 1.202z"/></g><ellipse cx="603.001" cy="161.366" fill="#fff" rx="22.758" ry="20.186" transform="matrix(.131495 -.991317 .991317 .131495 363.746 737.913)"/><g clip-path="url(#A)"><ellipse cx="601.349" cy="167.284" rx="17.797" ry="13.056" transform="matrix(.131495 -.991317 .991317 .131495 356.444 741.415)" class="C"/></g><ellipse cx="526.089" cy="152.836" fill="#fff" rx="24.733" ry="21.938" transform="matrix(.131495 -.991317 .991317 .131495 305.404 654.26)"/><g clip-path="url(#B)"><ellipse cx="525.236" cy="159.539" rx="19.341" ry="14.189" transform="matrix(.131495 -.991317 .991317 .131495 298.018 659.236)" class="C"/></g><path d="M524.226 265.128a5.15 5.15 0 0 1-.509-.026c-13.056-1.321-37.355-9.569-51.351-19.293a5 5 0 1 1 5.707-8.212c12.375 8.599 34.835 16.36 46.649 17.556a5 5 0 0 1-.497 9.975z" class="B"/><path d="M632.291 756.826a5 5 0 0 1-4.845-6.252c5.275-20.418-.145-140.093-3.383-211.597l-2.498-64.094a5 5 0 0 1 4.982-5.018h.018a5 5 0 0 1 5 4.982c.033 9.46 1.116 33.386 2.488 63.676 4.598 101.538 8.293 194.352 3.074 214.551a5 5 0 0 1-4.837 3.75z" class="K"/><g class="D"><path d="M722.132 611.238c-15.917-76.277-34.099-150.375-55.047-221.813-13.338-37.069-98.569 4.388-91.693 52.199 8.603 70.405 6.705 123.817 16.514 206.661 7.701 55.559 141.87 6.506 130.226-37.046z"/><path d="M613.548 306.323c-4.01-18.191-11.021-42.272-7.671-60.762 3.312-18.278 27.148-18.698 29.026 3.554 1.864 22.082 18.224 47.857 20.662 59.318 1.927 9.055 11.216 60.846 11.519 80.992 0 0-76.91-7.102-53.537-83.102zm-23.373-22.565c-19.318-13.975-48.683-22.477-60.833-23.815-14.175-1.56-53.163 5.969-62.287 9.321-16.353 6.007-11.268 32.496 6.015 28.598 22.66-5.11 52.726-8.288 52.726-8.288l41.247 20.926 23.133-26.743z"/><path d="M566.496 301.291c-8.869-5.321-40.676-15.877-49.335-12.997s-22.135 36.162-13.81 44.272c6.996 6.816 28.802 16.145 37.248 19.511 15.667 6.244 28.192-18.591 13.48-26.961-9.944-5.657-25.671-10.642-25.671-10.642l25.671 10.642 12.416-23.826z"/><path d="M553.324 333.382c-9.023-5.056-41.129-14.664-49.699-11.529s-21.053 36.802-12.491 44.662c7.195 6.606 24.249 14.428 32.792 17.543 15.845 5.777 27.21-19.475 12.257-27.405-10.107-5.36-20.538-8.965-20.538-8.965l25.975 9.877z"/><path d="M542.444 361.313c-8.91-5.252-29.455-14.353-38.092-11.406s-23.674 26.029-17.341 35.775c5.903 9.083 20.442 19.475 28.831 22.981 13.998 5.85 27.768-13.003 13.872-22.667-6.955-4.837-17.845-7.237-17.845-7.237l17.845 7.237 12.729-24.684z"/><path d="M667.085 389.425c-9.756-29.271-43.971-78.501-76.91-105.667-29.347-24.203-81.837 83.272-65.954 97.692 29.104 26.423 24.312 53.256 51.171 60.173 22.393 5.767 91.693-52.199 91.693-52.199z"/></g><path d="M629.533 330.365a4.993 4.993 0 0 1-3.952-1.932c-5.144-6.618-10.436-12.925-15.73-18.745a5 5 0 0 1 7.396-6.73c5.469 6.01 10.929 12.516 16.23 19.338a5 5 0 0 1-3.944 8.068zm-63.041-24.073a4.979 4.979 0 0 1-2.184-.505c-.113-.055-11.504-5.57-23.563-9.397-16.711-5.302-22.877-3.603-23.801-1.962a5 5 0 1 1-8.713-4.91c4.491-7.967 16.147-8.829 35.632-2.63 12.741 4.052 24.334 9.67 24.821 9.907a5 5 0 0 1-2.192 9.497zm-13.528 32.803c-.71 0-1.431-.152-2.116-.473-15.043-7.041-39.396-15.369-46.44-11.842a5 5 0 0 1-4.479-8.941c13.858-6.939 48.381 8.551 55.16 11.727a5 5 0 0 1-2.125 9.529zm-62.204 29.927a5 5 0 0 1-4.208-7.693c2.15-3.364 9.698-14.48 16.54-16.261 11.415-2.968 36.655 9.29 41.6 11.778a5 5 0 0 1-4.495 8.933c-10.902-5.482-28.843-12.531-34.585-11.034-1.908.556-6.979 6.262-10.635 11.971a5.002 5.002 0 0 1-4.217 2.305zm38.953 21.976a4.978 4.978 0 0 1-1.877-.368l-17.846-7.237a5 5 0 1 1 3.758-9.266l17.846 7.237a5 5 0 0 1-1.881 9.635z" class="B"/><g class="J"><path d="M743.389 654.791c4.065-25.705-4.978-35.419-15.546-45.268 0 0 13.92-34.906 2.539-48.727s-19.789-33.897-19.789-33.897c-18.251 34.671-70.473 53.56-132.684 46.827 0 0-12.775 24.45 4.297 47.213 0 0-11.261 36.607 13.526 66.474 0 0 12.927 91.709 93.084 84.198 80.879-7.58 54.573-116.819 54.573-116.819z"/><path d="m710.592 526.898-12.735-41.81c-6.262 42.873-60.991 58.859-121.207 47.434l1.257 41.203c63.693 9.153 119.018-.743 132.684-46.827z"/></g><g class="K"><path d="M743.394 659.792a5 5 0 0 1-4.888-6.076c5.688-25.83-12.789-39.56-13.579-40.131-1.948-1.412-2.633-4.024-1.604-6.2 6.067-12.828 10.795-35.56 3.47-43.105-10.787-11.113-20.424-34.498-20.829-35.487a4.915 4.915 0 0 1-.155-.436l-12.734-41.81a5 5 0 1 1 9.566-2.914l12.663 41.576c.95 2.273 9.711 22.881 18.665 32.106 11.895 12.252 4.836 38.512-.067 50.784 6.461 6.026 20.006 22.174 14.37 47.769a5.002 5.002 0 0 1-4.878 3.926zm-110.912 87.795a4.97 4.97 0 0 1-2.164-.496c-28.551-13.74-37.587-49.661-39.227-57.383-20.354-23.706-15.797-58.669-14.186-67.716-15.32-23.922-6.897-44.022-4.037-49.497l-1.216-39.82a5 5 0 0 1 4.846-5.15c2.74-.103 5.065 2.085 5.15 4.845l1.258 41.203a5.003 5.003 0 0 1-.771 2.824c-.457.742-11.364 18.995 4.195 41.716a5 5 0 0 1 .755 3.916c-.085.383-8.352 39.111 12.356 62.031a5.008 5.008 0 0 1 1.213 2.475c.068.38 7.259 38.676 33.999 51.545a5.001 5.001 0 0 1-2.172 9.507z"/><path d="M619.066 582.912c-13.254 0-27.388-1.423-42.109-4.278a4.999 4.999 0 1 1 1.904-9.817c64.915 12.588 112.403-3.726 127.037-43.64a5 5 0 1 1 9.389 3.443c-8.499 23.181-26.744 39.824-52.765 48.129-12.86 4.105-27.522 6.164-43.456 6.164z"/></g><path d="M354.616 705.906c14.559-6.362 46.527-28.905 72.478-25.255s56.405 13.332 69.158 17.137c17.9 5.341 14.176 29.657-7.214 25.805l-48.968-8.898s-23.924 37.726-55.957 31.644-29.496-40.433-29.496-40.433z" class="D"/><path d="M638.629 911.229 447.24 861.491c-6.799-1.621-12.473-9.148-12.69-16.842l-13.758-286.05c-.61-11.227 11.841-21.844 22.456-20.491l213.18 38.173c7.953 1.424 14.206 10.06 13.946 19.249l-8.415 297.814c-.717 11.316-14.575 20.367-23.33 17.886z" class="I"/><path d="m638.629 911.229-197.033-46.982c-6.799-1.621-12.473-9.148-12.69-16.842l-8.114-288.806c-.25-8.883 5.478-15.049 12.812-13.736l213.18 38.173c7.953 1.424 14.206 10.06 13.946 19.249l-8.415 297.814c-.223 7.909-6.359 12.878-13.687 11.13z" class="H"/><path d="M452.861 577.357c-.111-5.358-3.807-10.371-8.249-11.182-4.434-.81-7.918 2.878-7.787 8.224.13 5.333 3.809 10.312 8.224 11.134s7.923-2.831 7.812-8.176z" class="C"/><g class="D"><path d="M344.056 702.801c16.52 6.105 57.53 15.913 88.737 14.762s7.12 111.727-17.219 112.682-84.204-13.842-98.034-18.871c-32.758-11.911-.596-117.258 26.515-108.573z"/><path d="M415.575 830.245c14.821 1.257 45.106 3.241 56.952.425 9.6-2.282 29.488-11.121 40.368-16.98 13.757-7.408 5.023-29.906-11.625-24.239s-36.472 11.667-36.472 11.667l-44.853-2.019z"/><path d="M415.575 807.416c8.986.562 54.178 6.178 64.288 3.931s46.024-11.945 54.565-15.445c17.13-7.021 6.459-32.856-13.143-26.959-15.641 4.706-45.353 12.075-45.353 12.075l-54.74-5.897-5.616 32.294z"/><path d="M419.945 782.289c7.376.805 49.674 3.985 60.828 2.73s45.656-9.079 57.465-12.326c16.788-4.616 8.115-32.896-11.338-29.445s-49.091 7.886-49.091 7.886l-50.621-2.675-7.243 33.831z"/><path d="M426.391 752.179c7.536.773 43.913 2.862 52.9 2.3s40.875-4.609 51.024-6.301c16.845-2.808 15.445-30.331-5.336-30.331h-40.573l-51.613-.283z"/></g><path d="M423.276 721.889c-.056 0-.112 0-.169-.003-10.511-.349-18.645-.797-24.176-1.332a5 5 0 0 1 .962-9.954c5.322.515 13.244.949 23.546 1.292a5 5 0 0 1-.163 9.997zm50.413 37.771c-14.246 0-41.554-2.027-47.68-2.496a5.001 5.001 0 0 1 .763-9.971c19.472 1.49 44.788 2.991 52.05 2.307l5.109-.432c36.347-2.967 47.073-5.639 49.566-7.389a5 5 0 0 1 8.249 5.63c-3.016 4.936-12.659 8.105-57.002 11.725l-4.987.421c-1.508.142-3.591.203-6.069.203zm59.528-17.567l-.003.005zm.418-.514zm-62.764 48.97c-18.075 0-47.407-2.881-51.426-3.285a5 5 0 0 1 1-9.951c13.228 1.329 49.702 4.415 59.502 2.773 12.323-2.064 56.733-12.169 57.181-12.271a5 5 0 1 1 2.22 9.75l-57.749 12.383c-2.539.426-6.297.599-10.729.599zm-.427 26.474c-18.744 0-51.083-4.078-55.508-4.647a5 5 0 1 1 1.278-9.918c20.031 2.579 54.702 5.953 62.448 4.037 11.35-2.809 39.426-10.558 39.708-10.636a5 5 0 0 1 2.662 9.639l-39.968 10.703c-2.355.583-6.092.821-10.62.821zm80.085-547.114a4.98 4.98 0 0 1-1.674-.29c-6.587-2.34-15.44-3.938-24.93-4.5-14.311-.847-33.005 3.646-33.192 3.692a5 5 0 1 1-2.359-9.718c.823-.2 20.362-4.893 36.142-3.957 10.404.615 20.237 2.412 27.688 5.059a5.002 5.002 0 0 1-1.674 9.713z" class="B"/></svg></g><g transform="matrix(1.299525 0 0 1.301783 1112.608696 289.565217)"><svg width="808.991" height="1941.819"><clipPath id="C"><ellipse cx="261.867" cy="125.765" rx="20.996" ry="22.54" transform="matrix(.996027 -.089051 .089051 .996027 -10.16 23.821)"/></clipPath><clipPath id="D"><path d="M171.595 100.236c.255 6.414 1.019 13.307 2.357 20.699 3.045 16.819-1.529 25.619-3.957 35.489-1.251 5.084 51.525 9.233 50.306-34.847-1.144-41.346-44.444-36.443-48.706-21.341z"/></clipPath><clipPath id="E"><ellipse cx="190.504" cy="127.583" rx="19.426" ry="20.855" transform="matrix(.996027 -.089051 .089051 .996027 -10.605 17.473)"/></clipPath><rect height="195.961" rx="49.848" transform="matrix(.977534 -.210779 .210779 .977534 -38.324 69.123)" width="99.695" x="255.253" y="116.36" class="B"/><path d="M520.137 284.806c10.19 11.679 4.81 59.318-33.667 89.55s-75.502 7.804-48.554-40.538c25.918-46.495 61.837-72.372 82.221-49.012z" class="C"/><g class="B"><path d="M172.411 293.149c-68.29 6.358-60.219 302.581-58.363 361.983s128.938 62.146 131.23 3.713 5.468-199.066 4.54-248.967-17.055-122.348-77.407-116.729z"/><path d="M114.048 655.132c-1.269 68.762-37.412 208.391-46.016 248.583s75.917 84.586 93.946 23.88c25.338-85.318 80.049-202.647 83.3-268.75s-130.123-63.689-131.23-3.713z"/><path d="M68.033 903.715c-7.165 26.249-24.956 89.368-24.788 111.114.163 21.043 89.213 20.009 97.987-7.733 6.765-21.391 23.979-49.694 20.747-79.5-3.514-32.405-93.946-23.88-93.946-23.88z"/><path d="M113.194 1019.308c-1.664 9.267-3.334 30.429-.696 36.582s15.332 20.119 19.796 25.409c10.033 11.887 30.311-5.575 19.8-17.214-9.036-10.006-15.602-19.589-15.602-19.589l4.74-37.4z"/><path d="M88.691 1021.065c-1.676 8.246-2.984 39.458-2.36 45.119s13.761 29.286 18.708 36.314c9.581 13.611 30.082-1.766 21.531-16.75s-14.186-23.788-14.186-23.788l.811-42.652z"/><path d="M64.957 1018.738c-1.721 12.47-3.089 44.458-1.44 51.692s7.94 34.158 10.039 40.768c4.587 14.447 29.625 11.156 25.796-6.901s-9.803-38.415-9.803-38.415l2.061-44.531-26.652-2.613z"/><path d="M43.245 1014.829c-.332 25.29-.249 44.412.121 50.729.614 10.483 4.937 31.405 8.59 45.221 4.258 16.106 29.783 10.257 26.28-10.125s-7.113-35.635-7.113-35.635l-.575-45.275-27.303-4.916z"/></g><path d="M76.161 1118.167a5 5 0 0 1-3.796-8.254c1.956-4.243-1.545-25.896-6.086-43.653a5.02 5.02 0 0 1-.156-1.176l-.575-45.275a5.001 5.001 0 0 1 4.937-5.063 4.985 4.985 0 0 1 5.063 4.937l.567 44.687c.6 2.401 2.859 11.65 4.605 21.616 3.86 22.033 1.825 27.749-.949 30.643a4.985 4.985 0 0 1-3.61 1.54zm-3.608-8.46-.002.002zm23.549-14.428a5.003 5.003 0 0 1-4.826-3.703l-6.557-24.396a5.022 5.022 0 0 1-.166-1.529l2.062-44.531c.129-2.758 2.456-4.864 5.227-4.764a5.002 5.002 0 0 1 4.764 5.227l-2.026 43.754 6.355 23.644a5.001 5.001 0 0 1-4.832 6.299zm16.399-34.389h-.097a5 5 0 0 1-4.904-5.094l.695-36.582a5 5 0 0 1 4.997-4.905h.097a5 5 0 0 1 4.904 5.094l-.695 36.582a5 5 0 0 1-4.997 4.905z" class="E"/><path d="M56.519 972.544c-.785 16.867-1.36 41.969-1.171 55.503.335 23.922 27.565 23.985 28.95.997l3.037-48.7s25.76-8.771 33.658-40.581" class="B"/><path d="M69.653 1051.139a17.08 17.08 0 0 1-.392-.005c-8.956-.206-18.694-7.497-18.913-23.017-.181-12.933.347-37.967 1.177-55.806a4.99 4.99 0 0 1 5.227-4.762 5 5 0 0 1 4.762 5.227c-.821 17.672-1.344 42.436-1.165 55.2.125 8.948 4.683 13.057 9.145 13.16l.167.002c4.319 0 9.133-3.848 9.647-12.396l3.038-48.721a5 5 0 0 1 3.378-4.412c.93-.325 23.315-8.453 30.417-37.053a4.997 4.997 0 0 1 6.058-3.647 4.999 4.999 0 0 1 3.647 6.058c-6.852 27.595-26.054 39.167-33.719 42.778l-2.837 45.599c-.866 14.382-10.466 21.793-19.637 21.794z" class="E"/><g class="F"><path d="M136.93 311.911c-14.676 19.31-53.297 161.435-59.476 203.145 15.448 21.121 84.966 30.162 134.053 21.909l8.844-131.157c-9.985-58.452-43.862-105.222-83.421-93.897z"/><path d="M248.611 256.913s-46.451 13.412-73.944 27.511 2.772 97.625-3.573 112.429-22.559 59.922-20.444 78.955 10.101 38.132 16.967 58.171c7.414 21.641 283.394 14.804 298.903-19.739s40.888-240.391 18.329-252.375-79.066-22.374-113.389-22.374c-59.826 39.684-122.848 17.422-122.848 17.422z"/></g><path d="M262.319 252.422l-13.708 4.491s-17.32 45.284 19.188 49.203 85.393-21.338 103.661-66.625h-9.942l-99.198 12.931z" class="B"/><path d="M101.041 1869.279c5.971-4.611 11.571 2.489 5.833 6.341s-8.037-4.639-5.833-6.341zm359.628-37.424c-2.159-3.272-11.338 1.795-8.04 4.793s9.857-2.039 8.04-4.793z" class="F"/><path d="M258.909 1758.563c-22.042 7.745-83.655 18.712-106.041 27.404-30.38 11.795-47.819 39.542-47.659 92.935.1 33.185 122.722 42.297 166.211 25.021s75.659-26.212 116.765-26.808 74.487-19.659 72.392-33.957-9.413-79.15-19.541-92.852c-12.161 24.321-76.817 44.311-130.918 16.703 9.015-21.745-36.365-34.203-51.209-8.446z" fill="#00ba96"/><path d="M101.041 1869.279c-3.464 2.326-3.095 39.371 0 43.211 17.077 21.186 62.361 34.966 130.238 27.083 50.277-5.839 55.117-19.749 86.338-27.083 31.96-7.507 116.907-14.94 144.515-38.654 1.806-3.373.517-39.838-1.463-41.98-38.179 38.44-112.641 39.132-145.728 45.617-32.003 6.273-45.002 20.785-86.767 23.616-38.745 2.627-100.874 1.416-127.133-31.81z" class="F"/><path d="M232.228 1802.465a5 5 0 0 1-4.035-2.047c-8.894-12.154-24.386-19.223-41.424-19.008h-.076a4.999 4.999 0 1 1-.072-9.999l1.023-.008c18.574 0 35.606 7.499 46.429 20.323 57.31-16.62 69.706-24.425 71.967-27.612a5.002 5.002 0 0 1 8.157 5.787c-5.642 7.95-30.176 17.841-79.551 32.069l-1.031.297a4.968 4.968 0 0 1-1.386.196z" fill="#007a63"/><path d="M785.183 1671.718c-4.552-.143-8.797 9.267-3.141 10.441s5.064-10.381 3.141-10.441zm-292.618 200.19c4.962-4.467 25.327-14.248 19.439-.761s-22.223 3.267-19.439.761z" class="F"/><path d="M575.491 1734.26c-1.991 15.433 4.978 40.822-16.926 52.769s-68.493 28.847-59.739 96.08c4.978 38.232 169.768 39.588 214.065-5.974 34.848-35.843 23.398-60.237 39.826-87.619 15.779-26.3 48.787-60.235 39.328-100.559l-40.822-70.691s-63.435 107.032-106.142 112.508c-16.821-34.35-72.577-32.856-69.59 3.485z" fill="#00ba96"/><path d="M492.565 1871.908c-2.433 1.277-2.562 40.582 0 44.516 22.442 27.593 116.336 31.119 168.258 16.376 54.513-15.479 84.294-40.925 98.431-100.944 14.797-62.827 54.01-72.487 49.356-125.211-.721-6.308-19.571-34.929-23.427-34.927 8.536 63.42-29.844 77.807-42.536 114.88-15.416 45.029-21.222 94.526-85.983 106.599-50.152 9.349-131.129 15.336-164.099-21.289z" class="F"/><path d="M619.557 1811.455a5.002 5.002 0 0 1-2.338-.58c-.406-.215-40.848-21.378-64.203-15.453-2.671.686-5.396-.938-6.076-3.615a4.998 4.998 0 0 1 3.615-6.076c23.622-6.004 58.963 10.156 68.785 15.008 4.183-2.6 13.228-8.498 19.969-14.857 6.049-5.706 4.956-32.179.857-54.19a5 5 0 0 1 9.83-1.83c2.219 11.909 8.497 51.67-3.826 63.294-9.862 9.305-23.523 17.288-24.101 17.623a4.996 4.996 0 0 1-2.513.678z" fill="#007a63"/><g fill="#0a3ea5"><path d="M183.335 731.857c1.168 18.554 1.651 47.367 1.869 62.641s106.625 51.189 149.299 46.697 177.096-47.231 172.941-74.117c-4.602-29.779-9.868-54.971-13.651-70.789-5.149-21.529-316.883-66.522-310.458 35.568z"/><path d="M185.205 794.498l-10.509 401.705c.014 93.964 209.537 114.253 201.241 0-8.816-121.41-2.049-301.967-5.308-392.783-2.834-78.982-183.689-93.153-185.423-8.922z"/><path d="M174.695 1196.204c-.207 96.16-.267 234.73 21 287.921 0 0-16.788 118.98-12.458 152.574s23.927 81.186 23.927 81.186c-3.746 22.667-8.302 29.77-4.712 54.842 0 0 48.361-13.73 108.139 15.146 41.869 20.225 120.536 15.397 149.931-13.998 0 0 2.341-89.389-23.722-153.728 0 0 11.139-58.876-2.873-91.231-16.435-37.952-36.394-93.784-39.193-132.978s-15.604-133.674-18.797-199.736-201.07-79.331-201.241 0z"/></g><path d="M237.806 1770.785a5 5 0 0 1-4.916-4.123c-3.052-17.104 1.193-25.852 5.688-35.112 3.328-6.859 6.769-13.949 8.158-26.021-.108-4.374-2.963-11.45-6.259-19.619-4.981-12.352-11.183-27.724-12.954-45.34-1.568-15.595 2.292-34.952 6.378-55.445 4.834-24.238 10.312-51.71 7.093-76.177-1.938-14.725-5.321-31.353-8.904-48.957-5.098-25.049-10.369-50.949-12.869-77.195-3.604-37.852-2.691-70.762-1.032-130.507l1.012-37.632c2.05-80.941 2.537-458.854 2.541-525.024a5 5 0 0 1 10 0l-2.545 525.277-1.012 37.655c-1.647 59.35-2.556 92.041.991 129.281 2.449 25.719 7.667 51.355 12.713 76.149 3.619 17.78 7.037 34.575 9.02 49.646 3.436 26.105-2.215 54.438-7.199 79.437-3.937 19.739-7.654 38.384-6.236 52.49 1.63 16.197 7.534 30.837 12.279 42.6 3.904 9.678 6.987 17.322 6.987 23.614 0 .186-.01.37-.031.554-1.557 13.965-5.582 22.26-9.133 29.578-4.25 8.759-7.321 15.086-4.841 28.991a4.999 4.999 0 0 1-4.928 5.879zm-42.107-281.659a4.999 4.999 0 0 1-4.866-6.166c4.501-18.786 6.88-34.352 9.259-53.375a4.997 4.997 0 0 1 5.581-4.341 4.999 4.999 0 0 1 4.341 5.581c-2.421 19.364-4.848 35.229-9.456 54.465a5.002 5.002 0 0 1-4.858 3.836zm226.71 183.88a5 5 0 0 1-4.64-6.858c5.294-13.234 9.926-28.646 14.157-47.116a5.005 5.005 0 0 1 5.991-3.757 5.002 5.002 0 0 1 3.757 5.991c-4.35 18.979-9.132 34.875-14.62 48.597a5.004 5.004 0 0 1-4.645 3.144zm-215.243 49.88a5 5 0 0 1-4.801-6.401c5.106-17.507 5.183-35.335 5.183-35.513a5.001 5.001 0 0 1 5-4.997h.002a5 5 0 0 1 4.998 4.999c0 .783-.063 19.388-5.583 38.312a5.001 5.001 0 0 1-4.798 3.601z" fill="#002e77"/><g fill="#0a3ea5"><path d="M507.444 767.078c15.992 102.584 43.748 294.667 74.635 427.976 18.493 79.817-179.726 141.401-208.309 38.204-31.357-113.212-64.602-342.665-73.761-429.144-8.782-82.923 199.038-90.901 207.435-37.036z"/><path d="M373.77 1233.258c13.786 62.612 14.273 94.686 47.855 167.953s35.417 132.886 51.699 159.344 40.704 37.652 40.704 37.652 20.784 56.183 20.307 89.056c-.519 35.845 27.061 51.1 27.061 51.1s-11.587 25.396 1.642 45.748c37.892-20.157 79.703 5.406 126.597-17.102 46.497-22.317 68.329-92.797 71.052-133.193-4.247-24.639-9.667-53.866-31.389-73.234 0 0-6.219-67.396-23.96-104.841-15.199-32.08-41.693-45.587-60.039-82.426 0 0-50.768-117.664-63.22-178.261s-222.889-28.012-208.309 38.204z"/></g><path d="M587.889 1779.086a5 5 0 0 1-4.744-3.427c-4.971-14.98-2.867-25.393 3.389-41.73 1.089-2.844.003-5.656-2.778-12.308-4.854-11.61-12.979-31.041-13.813-73.05-.835-41.99-15.997-61.855-35.193-87.005-5.249-6.876-10.676-13.986-16.249-22.074-13.277-19.268-18.725-45.461-25.031-75.791-4.842-23.284-9.849-47.361-19.04-71.511-57.235-150.374-124.378-576.116-124.378-704.008a5 5 0 1 1 10 0c0 127.269 66.789 550.868 123.724 700.452 9.475 24.892 14.793 50.467 19.484 73.031 6.087 29.27 11.343 54.548 23.476 72.153 5.436 7.888 10.787 14.899 15.964 21.681 19.501 25.549 36.343 47.613 37.242 92.873.798 40.106 8.462 58.438 13.042 69.392 3.166 7.573 5.454 13.045 2.89 19.741-6.245 16.313-6.941 23.837-3.235 35.006a5 5 0 0 1-4.747 6.575zm-44.544-153.938a4.982 4.982 0 0 1-3.424-1.356c-.133-.124-13.41-12.539-28.407-21.263a5 5 0 1 1 5.027-8.645c16.015 9.315 29.657 22.084 30.23 22.623a5 5 0 0 1-3.427 8.64zm188.457-16.21a5 5 0 0 1-4.981-5.503c.021-.207 2.045-21.192-2.409-41.796a4.998 4.998 0 0 1 3.83-5.943 4.995 4.995 0 0 1 5.943 3.83c4.799 22.195 2.678 43.997 2.585 44.915a5 5 0 0 1-4.969 4.497zm-346.988-315.724a5.003 5.003 0 0 1-4.77-3.502l-19.994-65.746c-18.224-67.526-51.991-235.035-65.026-397.06a5 5 0 0 1 4.583-5.385c2.759-.235 5.164 1.83 5.386 4.582 12.29 152.772 45.24 323.104 64.712 395.257 3.93 14.562 19.722 64.848 19.881 65.354a5.003 5.003 0 0 1-4.771 6.5zm-91.539-516.967a5.001 5.001 0 0 1-4.786-3.561c-6.31-20.968-7.34-64.948-5.501-80.793.318-2.743 2.808-4.699 5.543-4.39a5 5 0 0 1 4.391 5.543c-1.711 14.739-.716 57.288 5.144 76.759a5 5 0 0 1-4.79 6.442z" fill="#002e77"/><path d="M261.577 374.777c11.152 1.845 115.029-129.954 130.386-137.791 13.433-6.855 111.216 19.614 128.175 47.82-13.284-9.848-58.417-4.961-90.952 89.971-32.367 94.443-16.525 133.681 6.345 142.758 13.91 5.521 33.617 5.279 51.527-2.76 0 0 10.186 42.291 11.604 81.405.921 25.406 14.007 51.908 11.535 75.802-1.714 16.565-16.402 24.306-16.402 24.306s-93.689-9.03-145.504 5.774-84.597-1.586-113.149 0-45.46-1.93-51.805 29.794c-23.289-20.739-18.22-29.41-20.843-78.469-4.988-93.294-19.964-145.379-20.48-166.754-.402-16.664 1.098-36.568 5.852-58.022 0 0-24.815-61.238-18.47-119.398 26.788-29.807 108.172-62.853 104.716-48.045-2.535 10.862-2.076 27.623.859 47.113 4.893 32.484 16.134 64.763 26.608 66.495z" fill="#ff5cf0"/><path d="M506.918 288.229c26.538 27.034 76.667 270.029 65.476 340.003-8.685 54.306-48.642 69.713-78.601 72.978-45.807 4.993-57.621-55.42-62.272-129.025-6.081-96.241-44.67-235.448 2.169-284.869 31.544-33.282 60.427-12.127 73.227.912z" class="B"/><path d="M502.753 276.792c21.347 17.916 80.669 185.019 89.421 209.843-22.031 29.357-99.09 58.583-171.6 46.91l-9.26-86.001c-4.821-101.265 17.702-169.503 91.439-170.751z" class="F"/><path d="M255.134 410.804c-.771 0-1.525-.046-2.272-.14-6.514-.814-12.732-5.324-18.484-13.404-20.021-28.128-33.256-100.213-25.288-137.734a5 5 0 1 1 9.782 2.077c-7.385 34.777 5.216 103.954 23.654 129.857 4.004 5.625 8.007 8.834 11.577 9.28 16.715 2.078 55.921-44.951 87.41-82.749 31.557-37.879 61.363-73.658 82.751-83.381a5 5 0 0 1 4.139 9.103c-19.307 8.777-49.758 45.33-79.206 80.679-44.486 53.399-73.518 86.408-94.062 86.411z" fill="#cc2bc5"/><g class="B"><path d="M468.395 576.691c-69.676-3.801-203.017 2.284-238.507.919s-44.261 77.711 2.149 92.726 176.953 42.047 261.757 30.874c66.518-8.764 29.807-121.508-25.398-124.52z"/><path d="M229.888 577.61c-31.763-2.984-82.056-14.161-105.424-19.241s-40.243 110.77-5.588 112.198c38.728 1.595 84.358 24.858 113.161-.231 13.235-11.528-2.149-92.726-2.149-92.726z"/><path d="M124.464 558.369c-17.613-3.655-44.872-11.814-59.107-10.766-10.586.779-45.755 14.647-55.799 19.25-17.719 8.119-8.777 33.844 10.313 26.145s46.378-14.853 46.378-14.853l47.389 11.26 10.826-31.035z"/><path d="M114.719 585.035c-14.101-4.078-43.159 4.082-50.51 10.584-5.923 5.239 2.384 45.126 12.682 43.488s38.025-4.799 48.486-6.254 11.025-28.802-7.403-27.299-29.57 5.051-29.57 5.051l26.315-4.757z"/><path d="M127.337 608.652c-14.469-2.473-42.85 3.65-48.933 13.44-4.173 6.716 6.009 52.416 18.713 49.626 10.184-2.236 39.129-11.771 49.361-14.388s7.73-29.856-10.414-26.298-28.818 8.331-28.818 8.331l25.616-7.675-5.526-23.037z"/><path d="M132.662 638.841c-14.469-2.473-37.514 7.622-44.09 14.906-5.299 5.869 11.549 43.867 22.109 44.956 7.713.795 16.983 1.638 27.63 1.639 17.587.002 19.659-26.424 1.26-28.257-13.208-1.316-20.642-2.994-20.642-2.994h20.642z"/></g><g class="E"><path d="M78.624 643.841a5.003 5.003 0 0 1-4.976-4.565l-1.123-12.839c-.336-3.817.664-9.453 7.34-14.605 11.751-9.07 36.929-12.475 43.366-10.168a5 5 0 0 1-3.315 9.434c-3.604-.918-25.435 1.471-34.492 9.095-2.845 2.395-3.038 4.212-2.937 5.37l1.124 12.842a5.001 5.001 0 0 1-4.987 5.437zm11.421 30.247a4.992 4.992 0 0 1-4.527-2.879c-.998-2.135-5.746-13.144-1.129-20.2 9.151-13.982 37.938-17.134 48.258-17.168h.017a5 5 0 0 1 .017 10c-13.297.044-34.569 4.463-39.924 12.645-1 1.529.159 6.898 1.824 10.496a5.005 5.005 0 0 1-4.535 7.107zm49.032 31.275c-.343 0-.688-.009-1.038-.028l-25.574-1.43.564-9.984 25.555 1.429c5.291.296 8.648-4.287 9.093-8.741.245-2.458-.125-8.313-8.822-9.575l-20.642-2.994a5 5 0 0 1-4.23-5.666 4.995 4.995 0 0 1 5.666-4.23l20.642 2.994c13.193 1.914 18.214 11.656 17.337 20.463-.886 8.902-8.022 17.763-18.55 17.763z"/><path d="M163.415 682.673a5.01 5.01 0 0 1-1.145-.133l-23.839-5.587a5 5 0 1 1 2.281-9.736l23.839 5.587a5.002 5.002 0 0 1-1.136 9.869zm-9.535-112.981c-.354 0-.712-.038-1.072-.116l-40.987-8.954a5 5 0 1 1 2.135-9.77l40.987 8.954a5 5 0 0 1-1.063 9.886z"/></g><g class="L"><path d="M327.378 22.196c5.141-27.172 47.55-29.437 66.366 4.877 17.409 31.747 8.39 60.195-24.609 63.063-28.926 2.514-48.561-31.978-41.757-67.94z"/><path d="M379.897 86.413c16.759-.794 29.052-8.814 31.782-19.401 0 0 3.26 37.841-26.736 36.192-15.278-.84-5.046-16.791-5.046-16.791zM172.6 80.23c-17.83-52.932 38.869-82.756 83.255-74.619 55.848 10.238-83.255 74.62-83.255 74.62z"/></g><path d="M215.129 29.23c-27.864 7.663-51.453 34.955-41.177 91.705 4.614 25.482-8.262 32.557-4.667 52.835 5.263 29.684 45.732 65.113 70.98 65.112 22.541 0 76.453-26.282 90.809-52.601 15.532-28.475 16.826-75.07-1.121-115.35-16.544-37.132-53.671-58.519-114.823-41.702z" class="B"/><path d="M222.124 27.298c5.145-18.709 39.156-28.972 73.299-23.359s88.866 49.385 91.673 110.519-30.834 68.453-37.073 71.727l-9.185-42.883s-22.325-11.675-33.636-43.013-32.693-67.378-85.078-72.99z" class="L"/><path d="M334.696 128.161c7.884-16.306 37.394-21.211 37.396 2.985.001 21.573-20.684 37.201-32.634 32.948-13.519-4.811-9.079-27.004-4.761-35.934z" class="B"/><g class="E"><path d="M342.03 153.392a5 5 0 0 1-4.919-5.931c2.012-10.618 16.313-23.746 23.891-26.049a5 5 0 0 1 2.908 9.567c-4.269 1.298-15.709 11.671-16.973 18.343a5.002 5.002 0 0 1-4.907 4.07z"/><path d="M355.115 147.129c-.995 0-2-.296-2.875-.912l-6.867-4.835a5 5 0 0 1 5.758-8.177l6.867 4.835a5 5 0 0 1-2.883 9.089z"/></g><path d="M222.124 27.298c45.836 27.299 54.189 40.994 64.662 66.227 16.177 38.976 31.566 46.185 35.345 71.27 3.833 25.442 3.895 42.287-9.013 63.848 0 0 32.014-28.211 29.952-61.664-2.159-35.024-13.722-45.859-19.334-77.196-4-22.333-25.948-55.448-42.028-62.62-25.853-11.532-59.584.135-59.584.135z" class="L"/><path d="M246.914 93.845c-10.118 1.903-19.339-15.611-3.366-18.69s38.548 4.208 46.486 11.749 1.191 10.716-4.763 7.938-29.266-2.707-38.357-.997zm-44.252-17.723c-13.852-.016-27.671 8.652-33.18 14.009s-5.324 13.211 2.117 10.104 23.09-6.605 31.063-5.698c11.41 1.298 12.071-18.401 0-18.416z" class="C"/><ellipse cx="261.867" cy="125.765" fill="#fff" rx="20.996" ry="22.54" transform="matrix(.996027 -.089051 .089051 .996027 -10.16 23.821)"/><g clip-path="url(#C)"><ellipse cx="258.501" cy="131.862" rx="12.56" ry="17.701" transform="matrix(.996027 -.089051 .089051 .996027 -10.716 23.546)" class="C"/></g><path d="M210.68 166.343a5.001 5.001 0 0 1-4.778-3.537c-2.557-8.345 1.835-13.85 7.32-15.603 7.738-2.473 18.66 1.685 21.966 11.607a5 5 0 1 1-9.486 3.161c-1.495-4.487-6.665-6.126-9.435-5.244-.718.229-1.611.515-.804 3.149a5 5 0 0 1-4.783 6.466z" class="E"/><path d="M280.944 182.571c4.266 2.299.312 20.487-14.35 25.899-15.871 5.858-27.309-2.328-26.89-7.989s11.593-3.121 20.818-6.573 16.731-13.326 20.422-11.337z" fill="#fff"/><path d="M385.19 103.76a5 5 0 0 1-4.959-4.413c-4.179-35.292-36.341-70.187-56.646-78.705a5 5 0 0 1 3.869-9.222c23.04 9.666 58.042 47.344 62.707 86.75a5 5 0 0 1-4.971 5.588zm-50.495 29.403a5.003 5.003 0 0 1-4.756-3.461l-2.875-8.466c-3.387-9.734-6.888-19.799-9.861-37.23-3.4-19.932-21.204-38.694-31.515-48.104a5 5 0 1 1 6.742-7.385c11.258 10.275 30.728 30.929 34.63 53.808 2.834 16.612 6.047 25.848 9.449 35.626l2.943 8.672a5 5 0 0 1-4.758 6.542zM222.122 32.299a5 5 0 0 1-4.616-6.919C223.237 11.577 237.119 1.625 252.87.025a5.006 5.006 0 0 1 5.479 4.47 5.001 5.001 0 0 1-4.47 5.479c-12.145 1.233-22.797 8.785-27.138 19.241a5.003 5.003 0 0 1-4.62 3.084z" class="C"/><path d="M258.653 240.435a5.001 5.001 0 0 1-1.318-9.824c10.462-2.867 32.195-13.028 42.645-20.801a5 5 0 0 1 5.969 8.023c-11.585 8.617-34.621 19.312-45.971 22.422a5.012 5.012 0 0 1-1.324.179z" class="E"/><g clip-path="url(#D)"><ellipse cx="190.504" cy="127.583" fill="#fff" rx="19.426" ry="20.855" transform="matrix(.996027 -.089051 .089051 .996027 -10.605 17.473)"/><g clip-path="url(#E)"><ellipse cx="188.431" cy="133.367" rx="11.621" ry="16.377" transform="matrix(.996027 -.089051 .089051 .996027 -11.129 17.311)" class="C"/></g></g><path d="M468.4 581.691a4.62 4.62 0 0 1-.332-.011c-12.778-.839-23.834-1.035-36.636-1.261a5 5 0 0 1-4.91-5.087c.049-2.761 2.37-4.955 5.088-4.911 12.392.219 24.096.426 37.112 1.281a5 5 0 0 1-.322 9.989z" class="E"/><path d="M492.174 263.063c13.019 6.714 23.407 14.166 27.963 21.743-13.284-9.848-58.417-4.961-90.952 89.971-21.745 63.449-15.528 94.53-12.445 123.191.187 1.737-6.011 25.654-18.391 21.677-25.47-8.184-23.994-49.455-22.173-89.33 3.029-66.323 59.957-193.926 115.999-167.251z" fill="#ff5cf0"/></svg></g></svg>