<svg xmlns="http://www.w3.org/2000/svg" width="2375" height="3000" xmlns:v="https://vecta.io/nano"><style><![CDATA[.B{fill:#a85f36}.C{fill:#002e77}.D{fill:#111}.E{fill:#773a11}.F{fill:#0a3ea5}.G{fill:#4f2000}.H{fill:#ea2688}.I{fill:#ffd215}.J{fill:#ce9800}.K{fill:#ff5cf0}.L{fill:#007a63}]]></style><g transform="matrix(1.231021 0 0 1.226567 1931.25 1965)"><svg width="226.438" height="204.84"><path d="M210.51 70.272 85.494 3.55C70.833-4.274 52.605 1.267 44.781 15.928L3.55 93.182c-7.824 14.661-2.283 32.889 12.378 40.713l33.582 17.923 8.867 53.022 48.985-22.146 33.582 17.923c14.661 7.824 32.889 2.283 40.713-12.378l41.231-77.254c7.824-14.661 2.283-32.889-12.378-40.713Z" class="I"/><g class="J"><path d="M76.222 117.337a5.002 5.002 0 0 1-4.408-7.356l23.085-43.254a5 5 0 1 1 8.823 4.709L80.637 114.69a4.998 4.998 0 0 1-4.415 2.646Z"/><path d="M109.391 107.253a4.971 4.971 0 0 1-2.351-.59L63.787 83.578a5.001 5.001 0 0 1 4.709-8.823l43.253 23.085a5.002 5.002 0 0 1-2.358 9.412zm31.166 59.727a5.002 5.002 0 0 1-4.408-7.356l29.75-55.742-23.866 13.049a4.996 4.996 0 0 1-6.785-1.988 4.998 4.998 0 0 1 1.988-6.785l38.563-21.085a5 5 0 0 1 6.81 6.741l-37.637 70.52a4.998 4.998 0 0 1-4.415 2.646z"/></g></svg></g><g transform="matrix(1.247264 0 0 1.247549 511.25 223.75)"><svg width="1304.856" height="1852.633"><path d="m978.585 1850.044-955.49-381.046c-15.795-6.299-25.818-26.55-22.441-45.254L252.684 28.113C256.062 9.41 271.967-2.915 288.266.597l985.932 212.471c20.337 4.383 33.813 24.976 30.02 45.979L1021.202 1826.27c-3.793 21.003-22.907 31.633-42.616 23.773z" fill="#e3e5e5"/><path d="M.655 1423.744c-3.377 18.703 6.645 38.955 22.441 45.254l955.489 381.046c19.709 7.86 38.823-2.77 42.616-23.773l67.32-372.791L60.554 1092.046zM1274.197 213.069 288.265.598c-16.299-3.513-32.204 8.812-35.582 27.516l-26.917 149.055 1048.224 249.26 30.226-167.381c3.793-21.003-9.683-41.596-30.02-45.979z" fill="#55a2ff"/><path d="M863.253 1643.753c12.72-6.612 21.592-17.605 24.229-32.207 6.338-35.095-25.596-77.239-70.917-93.981-44.875-16.577-85.976-1.952-92.201 32.52s24.694 76.234 69.456 93.431c14.381 5.525 28.449 7.837 41.166 7.303l30.23 32.707-1.962-39.772zM418.097 128.42c7.287-40.35-15.645-79.354-50.959-87.061-35.028-7.645-69.037 18.436-76.218 58.198s15.102 78.618 50.024 86.849c35.207 8.298 69.865-17.636 77.152-57.986z" fill="#e3e5e5"/><path d="M618.404 203.136a4.99 4.99 0 0 1-2.132-.479c-7.526-3.553-12.885-11.01-16.756-18.564-4.241 7.01-9.675 10.458-15.28 9.309-6.861-1.406-11.291-8.972-13.049-21.648-5.44 11.172-11.791 16.501-19.093 16.196-2.307-.099-5.737-1.083-8.985-5.216-2.414-3.071-4.342-7.416-5.689-12.031-4.254 4.957-9.818 8.136-16.262 9.066-9.185 1.327-18.574-2.277-24.731-9.053-6.717 1.416-14.486 1.231-22.827-.685a5 5 0 0 1 2.238-9.746c5.417 1.243 10.527 1.602 15.063 1.137-2.728-7.895-3.879-22.72 13.277-41.174a5.001 5.001 0 0 1 7.867.699c9.071 14.102 10.182 28.014 3.048 38.167-2.167 3.084-4.942 5.625-8.214 7.593 3.689 2.592 8.308 3.819 12.851 3.164 7.988-1.153 13.778-7.907 15.885-18.53a5 5 0 0 1 9.809 1.945c-.537 2.709 0 .005-.002.007-1.519 7.686 3.763 23.99 7.117 24.667l.104.002c3.79 0 11.953-8.499 18.954-40.541a5 5 0 0 1 9.855 1.61c-3.841 35.227 3.238 44.256 4.791 44.574.886.173 5.15-2.581 8.466-13.464a5.001 5.001 0 0 1 9.453-.331c1.857 4.852 7.51 19.615 16.379 23.803a5.001 5.001 0 0 1-2.137 9.522zm-111.428-70.674c-7.094 9.521-9.393 18.794-6.425 26.276 2.632-1.343 4.793-3.144 6.36-5.374 3.757-5.347 3.726-12.751.065-20.903zm235.101 100.435c-11.883 0-21.37-8.766-27.218-24.974-3.161 7.373-7.115 14.397-14.104 14.157-12.216-.371-17.545-11.977-20.46-22.948l-.561 1.401c-2.774 6.964-6.972 17.486-21.405 11.845a5 5 0 0 1 3.641-9.314c4.938 1.931 5.337 1.643 8.475-6.233 1.793-4.5 4.024-10.1 8.656-14.514a5.003 5.003 0 0 1 8.354 2.645l.359 1.829c1.817 9.304 4.852 24.835 13.081 25.286 1.917-1.02 4.877-8.287 6.312-11.809 1.538-3.779 2.992-7.348 4.723-9.86a5 5 0 0 1 9.023 1.869c2.002 10.147 8.381 33.408 24.273 30.296a5 5 0 0 1 1.924 9.813 26.415 26.415 0 0 1-5.072.508zM378.256 89.728c2.169-12.013-4.63-23.643-15.163-25.97-10.508-2.322-20.758 5.497-22.918 17.457s4.581 23.577 15.079 25.951c10.524 2.38 20.833-5.425 23.002-17.439zm-27.109 40.185c-22.024-5.041-43.044-1.372-58.086 8.406 7.13 23.692 24.718 42.626 47.884 48.087 23.291 5.49 46.342-4.017 61.404-22.796-10.71-15.866-29.065-28.63-51.202-33.697z" fill="#2471ed"/></svg></g><g transform="matrix(1.248543 0 0 1.249095 448.75 588.75)"><svg width="1066.243" height="1824.321"><clipPath id="A"><path d="M664.85 177.23c-2.986 10.262-4.62 21.594-8.986 33.42-4.512 12.222-10.251 17.613-14.541 27.302-1.846 4.171 39.923 16.614 50.54-20.55 10.7-37.452-24.028-50.434-27.014-40.172z"/></clipPath><rect height="186.935" rx="49.738" transform="matrix(.999979 .006493 -.006493 .999979 2.266 -4.945)" width="101.294" x="712.25" y="253.127" class="B"/><g class="K"><path d="M659.211 338.284c-36.317-9.075-48.851 7.894-77.626 1.494-21.375-4.754-34.869.963-34.869.963s-44.596-11.177-51.853-11.532c-25.868-1.265-133.151 124.208-74.252 155.909 37.45 20.157 181.998 25.412 232.34 18.781s6.26-165.615 6.26-165.615z"/><path d="M494.863 329.209c-12.843-24.424-24.879-37.988-46.15-56.35-19.64-16.954-22.58-59.694-58.701-57.388-37.93 2.422-89.421 33.54-97.3 52.415-10.467 25.073-13.697 54.748 16.124 90.724 24.215 29.213 31.522 58.438 48.5 75.481 20.517 20.596 28.787 30.701 63.276 51.027 35.642 21.006 74.252-155.909 74.252-155.909z"/></g><g class="B"><path d="M357.261 174.144s-43.684-73.704-55.852-90.316-103.743 29.722-90.118 58.635 31.338 60.638 56.11 58.068l6.57 17.116c18.945 49.09 108.84-.924 83.291-43.503z"/><use href="#C"/><path d="M188.429 107.651c-1.131 13.714 5.126 32.469 13.426 47.254 10.576 18.84 37.964 2.167 27.83-13.901-7.82-12.398-12.911-31.496-12.911-31.496l-28.344-1.857z"/><use href="#C" x="10.661" y="-20.641"/><path d="M199.09 87.01c-1.544 15.77 8.613 39.093 16.913 53.878 10.576 18.84 37.964 2.167 27.83-13.901-7.82-12.398-16.399-38.12-16.399-38.12zm68.547.562c-3.258-7.478-11.458-22.213-20.29-32.181-5.157-5.822-25.483 3.108-25.551 15.695-.064 11.742 17.134 28.681 19.37 32.312z"/><path d="M221.797 71.086c-1.544 15.77 8.613 39.093 16.913 53.878 10.576 18.84 37.964 2.167 27.83-13.901-7.82-12.398-16.399-38.12-16.399-38.12zm79.612 12.742c-11.111-20.527-24.474-44.824-31.731-51.513s-47.23-27.843-57.822-31.259c-20.467-6.6-28.436 19.495-10.017 29.493a5539.329 5539.329 0 0 1 41.634 22.864l25.489 43.423z"/></g><g class="E"><path d="M268.967 101.838a4.996 4.996 0 0 1-4.317-2.47l-25.489-43.423a5 5 0 0 1 1.781-6.843 4.999 4.999 0 0 1 6.843 1.781l25.489 43.423a5 5 0 0 1-4.307 7.532zm-15.188 36.426c-4.864 0-11.955-1.807-18.899-10.086-13.554-16.157-18.025-49.158-18.083-57.055a5 5 0 0 1 4.963-5.037h.038a5 5 0 0 1 4.999 4.963c.048 6.557 4.283 37.038 15.744 50.701 4.1 4.888 8.505 7.096 12.733 6.393 3.643-.607 6.017-3.098 6.478-4.296a5 5 0 1 1 9.332 3.592c-1.626 4.223-6.752 9.331-14.166 10.567-.89.148-1.948.257-3.139.257z"/><path d="M230.218 154.541c-6.08 0-12.731-2.857-18.303-10.775-5.282-7.505-12.103-19.926-18.015-49.611a5 5 0 0 1 9.807-1.953c5.546 27.847 11.669 39.108 16.385 45.808 6.206 8.816 12.511 6.855 15.715 4.903 4.435-2.702 6.308-7.297 5.596-8.662a5.001 5.001 0 0 1 8.866-4.628c3.96 7.587-1.722 17.238-9.258 21.83-3.036 1.849-6.791 3.088-10.793 3.088z"/><path d="M221.413 167.478a4.999 4.999 0 0 1-.566-9.967c1.976-.229 5.257-5.464 6.657-9.646a5 5 0 1 1 9.483 3.173c-.853 2.549-5.585 15.321-14.994 16.407a5.168 5.168 0 0 1-.58.034z"/></g><path d="M326.315 131.094c-9.136-10.321-21.744-29.01-31.441-33.89s-45.897-14.308-58.202-17.037c-17.043-3.779-26.561 24.507-5.303 31.599s42.59 15.527 42.59 15.527c-3.902 20.246 18.095 56.408 44.9 48.876 20.493-5.759 7.456-45.076 7.456-45.076z" class="B"/><path d="M311.622 182.18c-8.649 0-17.214-3.605-24.772-10.556-11.606-10.675-18.973-27.593-18.297-41.083-6.972-2.717-23.145-8.909-38.984-14.186-13.928-4.64-17.452-16.951-14.833-26.425 2.569-9.292 11.222-17.362 22.784-14.802 10.23 2.264 48.812 12.179 59.602 17.608 7.93 3.99 16.431 14.652 24.652 24.962 2.974 3.73 5.784 7.254 8.286 10.08a5 5 0 1 1-7.488 6.628c-2.672-3.019-5.559-6.64-8.616-10.474-6.841-8.581-15.356-19.259-21.329-22.264-8.91-4.483-44.591-13.972-57.268-16.777-5.733-1.269-9.713 3.104-10.985 7.703-1.406 5.086.051 11.506 8.356 14.273 21.154 7.047 42.865 15.694 43.082 15.781a5 5 0 0 1 3.057 5.59c-2.027 10.519 4.59 26.679 14.75 36.024 5.246 4.823 13.646 9.971 23.888 7.092a5 5 0 1 1 2.705 9.627 31.67 31.67 0 0 1-8.59 1.197z" class="E"/><path d="m357.261 174.144 26.3 41.977c-8.636 28.822-42.084 49.715-90.85 51.765l-18.741-50.239c36.96-.73 77.752-19.894 83.291-43.503z" class="K"/><g fill="#cc2bc5"><path d="M561.467 357.019a4.974 4.974 0 0 1-3.032-1.028l-14.755-11.277a5.001 5.001 0 0 1 6.072-7.946l14.755 11.277a5.001 5.001 0 0 1-3.04 8.973zm-52.28 13.441a5.002 5.002 0 0 1-4.932-4.215c-1.367-8.591-5.625-19.29-13.808-34.689a5.002 5.002 0 0 1 2.069-6.762 5.003 5.003 0 0 1 6.762 2.069c8.842 16.64 13.284 27.948 14.853 37.81a5 5 0 0 1-4.944 5.787zm-152.239 28.515a4.995 4.995 0 0 1-1.663-.286c-13.18-4.646-23.164-11.827-41.12-25.173a5.001 5.001 0 0 1 5.965-8.027c17.159 12.753 26.663 19.603 38.48 23.769a5 5 0 0 1-1.662 9.717zm-32.765-93.073a4.989 4.989 0 0 1-3.448-1.379c-8.907-8.484-10.095-29.287-7.026-40.466a5 5 0 1 1 9.644 2.648c-2.519 9.173-.896 25.648 4.28 30.578a5 5 0 0 1-3.45 8.62zm20.818-18.053a4.981 4.981 0 0 1-3.259-1.21c-4.744-4.083-12.93-17.486-11.011-27.489a5 5 0 0 1 9.821 1.885c-.949 4.944 4.191 14.994 7.713 18.025a4.999 4.999 0 0 1-3.264 8.789zm51.549-29.884a5.004 5.004 0 0 1-4.809-3.639c-1.889-6.671-9.129-12.635-18.896-15.564a5 5 0 0 1 2.873-9.579c13.205 3.96 22.791 12.341 25.645 22.417a5 5 0 0 1-4.814 6.363zm-89.198 13.756a5.003 5.003 0 0 1-4.713-3.332l-17.866-50.424a5 5 0 0 1 9.426-3.34l17.866 50.424a5 5 0 0 1-4.713 6.672z"/><path d="M339.967 263.466a5 5 0 0 1-4.648-3.156l-20.073-50.555a5 5 0 1 1 9.294-3.69l20.073 50.555a5 5 0 0 1-4.646 6.846zm32.199-24.155a4.998 4.998 0 0 1-4.389-2.598l-23.949-43.688a5 5 0 1 1 8.769-4.807l23.949 43.688a5 5 0 0 1-4.38 7.405z"/><path d="M293.416 272.888c-.246 0-.488 0-.733-.002a5 5 0 0 1 .029-10h.029l.628.002c33.07 0 73.726-15.092 85.477-48.428a5 5 0 0 1 9.432 3.324c-6.022 17.083-19.056 31.38-37.692 41.345-16.612 8.883-36.889 13.759-57.169 13.759z"/></g><path d="M712.171 358.709l97.549 22.122 85.928 36.703-46.005 364.385c-14.21 76.6-269.929-10.246-263.307-101.684 6.215-85.831-15.634-145.274-7.195-179.524 9.841-39.943 88.904-154.533 88.904-154.533l44.127 12.531z" class="B"/><path d="M686.186 347.071c-10.276 126.232 69.916 208.278 201.825 226.775 3.91.548-18.335 58.777-23.692 110.766-5.224 50.703-2.876 90.878-7.851 90.472C718.19 763.787 556.64 572.625 587.799 477.955c12.336-37.479 58.134-143.032 71.412-139.67 9.705 2.457 27.395 3.632 26.975 8.787z" class="K"/><path d="M836.335 387.982c8.19-5.901 62.516 22.133 81.448 34.657-3.612 36.813-20.394 145.405-29.772 151.207-30.72 19.005-224.397 112.134-301.676 106.389-15.211-1.131 2.05-80.881-10.298-116.183-9.515-27.202-17.688-69.163 3.591-89.602 35.519-34.118 204.936-49.167 256.707-86.468z" class="L"/><path d="M577.056 697.844s-11.719-15.395-22.468-10.403c0 0-4.405-29.693-25.576-29.069 0 0-104.107-130.773-192.44-184.368-44.166-26.797-103.965-29.576-149.153-11.192-45.82 18.641-43.699 96.173-16.856 147.305 50.958 97.071 198.565 317.891 303.235 331.234 99.697 12.709 118.857-51.539 132.218-81.366 31.333-69.948-28.961-162.141-28.961-162.141z" class="F"/><path d="M531.624 824.001a5.001 5.001 0 0 1-4.533-7.105c10.292-22.195 26.135-99.678 22.534-128.843a5 5 0 0 1 4.35-5.575c2.74-.328 5.237 1.609 5.575 4.35 3.844 31.138-12.415 110.615-23.387 134.275a5.002 5.002 0 0 1-4.54 2.897z" class="C"/><g class="D"><path d="M480.638 952.523c4.6 22.1 14.245 51.789 13.737 58.024s-40.707 61.654-45.226 61.654c-3.767 0-15.264-29.327-15.264-29.327l46.752-90.351z"/><path d="M449.149 1072.202l-111.274-40.722-10.267-22.041 106.277 33.435zm-39.036-6.537c-1.982 11.181-6.395 45.264-22.251 60.103-15.188 14.215-103.127 57.663-142.999 65.677-13.484 2.71-34.443-8.367-34.443-8.367s143.303-44.691 162.389-70.955 37.304-46.458 37.304-46.458z"/></g><path d="M426.093 832.707c21.182 37.211 53.681 97.039 54.545 119.816s-34.083 82.574-56.314 99.25c-25.174 18.884-24.697 40.25-41.459 60.419-19.281 23.199-114.497 63.944-146.617 71.436-36.708 8.562-39.684-13.671-35.796-44.369 5.706-45.05 45.782-94.308 58.918-131.157 10.566-29.642-6.708-84.525-6.708-84.525 67.437-.305 128.315-38.812 173.431-90.87z" fill="#f62"/><path d="M391.977 1057.352c-21.74 0-45.094-3.653-51.371-27.631-2.457-9.386-4.112-18.734-5.713-27.776-3.755-21.212-6.999-39.531-18.861-51.038-11.875-11.517-27.087-11.582-36.507-8.133-8.115 2.969-13.365 8.819-14.043 15.647a5 5 0 1 1-9.951-.989c1.067-10.74 8.752-19.73 20.558-24.051 15.985-5.847 34.396-1.788 46.906 10.347 14.183 13.758 17.856 34.506 21.745 56.473 1.566 8.846 3.186 17.992 5.54 26.986 5.287 20.192 27.513 20.922 56.027 19.787 6.657-.267 12.946-.515 18.318-.192a5 5 0 0 1 4.688 5.294c-.167 2.756-2.552 4.843-5.293 4.688-4.873-.295-10.916-.054-17.315.201l-14.729.386zm41.903-9.476a5.002 5.002 0 0 1-4.898-4.023c-13.876-69.637-25.443-112.078-53.647-164.928a5 5 0 0 1 8.822-4.709c28.796 53.96 40.56 97.063 54.632 167.682a4.999 4.999 0 0 1-4.909 5.979z" fill="#c83400"/><path d="M187.42 462.812c-42.481 17.698-90.732 64.518-86.926 134.44 3.844 70.634 39.791 129.559 51.517 300.523 0 0 22.715 82.552 56.956 81.581 33.949-.963 177.721-50.713 217.126-146.648l-74.656-167.959s-6.111-53.265-36.403-66.178c0 0 3.017-25.398-18.782-37.62-10.276-39.201-84.338-108.343-108.833-98.138z" class="F"/><path d="M426.096 837.709a5 5 0 0 1-4.572-2.971l-74.656-167.959a5.006 5.006 0 0 1-.427-1.822c-1.85-44.239-33.464-61.815-33.783-61.987a5 5 0 0 1-2.553-5.24c3.381-19.834-15.683-32.026-16.496-32.535a5.007 5.007 0 0 1-1.597-6.884 4.994 4.994 0 0 1 6.869-1.613c1.002.62 23.512 14.855 21.51 39.313 8.807 5.895 33.895 26.224 35.995 67.566l74.273 167.099a5 5 0 0 1-4.566 7.033zm-217.13 146.646a5 5 0 0 1-5-4.974c-.275-51.891-14.133-128.597-27.536-202.777-12.099-66.968-23.527-130.223-25.355-175.243-1.87-46.044 5.199-82.731 21.009-109.044 14.342-23.868 35.507-38.956 62.909-44.844a5 5 0 0 1 2.101 9.776c-53.092 11.409-79.382 61.102-76.027 143.706 1.8 44.328 13.168 107.251 25.204 173.87 13.478 74.601 27.416 151.741 27.695 204.502a4.999 4.999 0 0 1-4.974 5.026h-.027z" class="C"/><path d="M586.218 684.043c47.324 32.616 149.132 100.881 263.425 97.876 9.266-.244 12.305 120.978-32.69 182.871-17.708 24.359-215.322-25.599-251.15-73.073-34.508-45.724-20.373-106.514-7.935-139.34 10.263-27.087 22.698-72.228 28.35-68.333z" class="F"/><path d="M559.029 810.426a5 5 0 0 1-4.38-7.404c13.992-25.542 18.872-88.622 17.428-104.732a5 5 0 1 1 9.96-.892c1.698 18.947-3.879 83.522-18.618 110.429a5 5 0 0 1-4.39 2.599z" class="C"/><g class="D"><path d="M362.189 1678.321c-7.434 21.621-12.47 52.268-14.349 55.729s-39.135 24.91-46.903 24.875l2.945-36.176 58.308-44.428z"/><path d="M300.936 1758.926l-113.93-49.807 1.376-29.233 115.498 42.863c.978 12.585.172 24.691-2.945 36.176zm-46.188-6.583c-8.04 18.142-24.171 53.069-49.917 62.65s-149.673 23.251-198.828-25.85l-3.489-11.224c41.024 24.033 145.402 39.768 186.926 19.385 38.711-19.003 65.309-44.961 65.309-44.961z"/></g><path d="M200.724 1496.674c-13.901 42.865-41.623 93.512-74.072 118.309-26.753 20.445-54.436 31.84-85.948 69.114-35.548 42.049-46.185 78.385-38.19 93.822 16.717 32.278 153.054 49.009 195.404 26.013 39.865-21.647 42.693-45.526 69.235-60.51 27.321-15.424 82.978-44.469 95.036-65.101 8.766-15 26.927-107.485 31.536-134.812 7.062-41.867-177.32-95.193-193.002-46.836z" fill="#f62"/><path d="M296.119 1732.216a4.997 4.997 0 0 1-1.689-.295c-22.535-8.091-35.866-22.541-40.757-44.178-4.282-18.939-1.938-41.789.543-65.98l2.829-32.376c1.757-30.296-14.066-46.387-29.46-51.344-18.101-5.829-36.927 1.644-47.958 19.04a5 5 0 0 1-8.445-5.355c13.339-21.036 37.236-30.36 59.468-23.203 18.955 6.104 38.465 25.449 36.378 61.44-.652 11.252-1.777 22.216-2.864 32.817-4.844 47.229-8.67 84.534 33.646 99.727a5.001 5.001 0 0 1-1.689 9.708z" fill="#c83400"/><path d="M609.255 820.209c-46.873 22.131-213.267 110.803-268.002 216.775-41.366 80.087 167.041 154.565 225.25 117.404 75.786-48.382 190.215-107.681 250.451-189.598 40.902-55.624-207.698-144.58-207.698-144.58z" class="F"/><g class="C"><path d="M465.057 911.604a5.002 5.002 0 0 1-3.072-8.949c31.125-24.186 140.23-84.281 144.859-86.828a5.001 5.001 0 0 1 4.82 8.762c-1.127.62-113.039 62.259-143.543 85.962a4.976 4.976 0 0 1-3.064 1.052z"/><path d="M601.206 829.665a5 5 0 0 1-3.854-8.183c17.598-21.324 40.479-19.958 79.206-9.582a5 5 0 0 1-2.588 9.66c-40.476-10.844-55.93-9.433-68.905 6.288a4.99 4.99 0 0 1-3.859 1.817z"/><path d="M702.043 857.383c-1.159 0-2.324-.4-3.269-1.219-23.284-20.139-75.288-26.71-102.337-23.552a5 5 0 1 1-1.159-9.933c29.575-3.451 84.271 3.634 110.039 25.922a5.001 5.001 0 0 1-3.273 8.782z"/></g><path d="M341.252 1036.984c-38.121 79.892-140.529 459.69-140.529 459.69s-.321 82.842 48.189 101.555c57.632 22.232 189.972-1.616 225.216-46.173l16.445-135.458c42.619-107.593 50.536-192.263 75.928-262.21 35.896-98.881-200.279-169.737-225.25-117.404z" class="F"/><path d="M490.58 1421.598a4.999 4.999 0 0 1-4.979-5.514c7.174-69.292 27.537-176.958 27.742-178.038a5 5 0 0 1 9.824 1.866c-.204 1.075-20.489 108.332-27.619 177.202a5.001 5.001 0 0 1-4.968 4.485zm75.928-262.21a5 5 0 0 1-4.942-5.798c3.948-24.412 29.219-42.783 30.293-43.554a5 5 0 0 1 5.828 8.127c-.226.162-22.971 16.751-26.249 37.022a5.002 5.002 0 0 1-4.93 4.203zm-317.591 443.841a4.999 4.999 0 0 1-4.87-6.15c.995-4.214 100.048-422.764 150.608-546.735 30.698-75.27 134.221-141.063 196.074-180.372 15.336-9.747 28.581-18.164 37.409-24.614a5 5 0 0 1 5.9 8.074c-9.09 6.642-22.462 15.14-37.945 24.979-60.847 38.671-162.685 103.393-192.178 175.709-50.269 123.256-149.143 541.051-150.136 545.256a5.002 5.002 0 0 1-4.862 3.853zm590.065-693.073a4.988 4.988 0 0 1-2.041-.438c-39.394-17.641-49.773-68.841-46.352-110.874a5 5 0 0 1 9.967.811c-.976 11.991-1.497 35.525 5.983 58.418 6.875 21.043 18.479 35.348 34.488 42.517a5 5 0 0 1-2.046 9.564z" class="C"/><path d="M648.125 742.208c1.415-4.623-1.006-9.742-5.393-11.483s-9.156.526-10.667 5.112c-1.529 4.641.852 9.887 5.336 11.665s9.292-.615 10.724-5.294z" class="D"/><path d="M586.436 836.581a5 5 0 0 1-4.818-6.348c7.858-28.107 23.356-63.307 43.288-77.805a4.998 4.998 0 1 1 5.881 8.087c-17.877 13.003-32.473 47.134-39.539 72.41a5.003 5.003 0 0 1-4.813 3.655z" class="C"/><path d="M728.887 119.678c-9.953-8.295-32.784-12.364-40.187 1.226 0 0-19.553 5.771-20.609 19.948 0 0-15.524-5.11-22.675 8.881s-19.991 2.193-23.469 15.978c-3.765 14.924 16.857 19.891 3.105 28.568 11.338 1.181 18.383-5.486 10.251-17.451-3.01-4.429-.242-11.377 6.773-9.837 10.916 2.398 29.807.047 44.171-4.749 11.942-3.988 31.898-29.03 31.898-29.03l10.743-13.534z" class="G"/><path d="M681.951 150.232c-19.552 15.088-17.356 36.767-26.087 60.417-6.454 17.483-15.419 20.988-19.061 43.091-4.545 27.581 29.37 79.911 52.828 83.905 29.997 5.107 84.458-3.072 114.207-27.748 28.23-23.414 40.395-72.522 24.45-113.063-28.428-72.281-101.931-80.87-146.337-46.602z" class="B"/><g class="G"><path d="M805.261 126.445c0-21.167 23.138-41.04 33.01-24.397 0 0 18.447-16.178 27.17-6.588 5.459 6.001 3.342 17.276 3.342 17.276 11.43-5.674 32.713-.514 35.428 24.093 0 0 24.346 8.94 10.806 32.125 13.887 20.393 16.303 51.284-6.01 60.679 0 0-9.194 26.063-42.177 21.197-40.713-32.085-57.883-70.534-61.569-124.387z"/><path d="M718.144 133.212c6.804-19.731 34.311-24.422 58.537-16.396 7.74-6.72 21.358-8.846 32.588 4.209 12.289 1.05 19.972 9.938 22.852 24.887 26.163 2.694 31.698 15.922 35.735 50.612 9.744 5.938 11.778 24.898.474 38.432 11.837 13.245 7.415 42.247-7.65 49.27 0 0-.949 23.966-23.536 26.374-13.322 1.42-12.387 25.09 3.997 17.112-2.708 10.493-28.456 16.727-27.428-6.974l.14-19.548 16.491-30.391s-33.266-19.362-33.547-68.391c-.261-45.544-42.992-72.054-78.654-69.196z"/></g><path d="M819.065 257.676c9.01-7.67 36.284-16.67 35.782 12.691-.487 28.519-34.048 40.74-44.57 29.524-9.195-9.801 2.173-36.584 8.788-42.215z" class="B"/><path d="M793.657 180.171c6.306 17.056-8.484 33.78-8.396 47.658.12 18.982 27.098 37.145 2.383 41.528 11.032 4.689 23.115 1.494 20.174-17.328-3.852-24.661 14.339-22.812 6.676-45.194-2.74-8.004-20.838-26.664-20.838-26.664z" class="G"/><ellipse cx="745.732" cy="219.168" fill="#fff" rx="24.711" ry="21.722" transform="matrix(.249941 -.968261 .968261 .249941 347.128 886.45)"/><g class="D"><ellipse cx="740.678" cy="216.402" rx="17.929" ry="12.913" transform="matrix(.249941 -.968261 .968261 .249941 346.015 879.482)"/><path d="M735.156 182.538c-11.247 1.799-14.156-15.827-3.921-19.092 13.707-4.373 36.553 2.787 50.887 23.845 5.536 8.133-1.346 11.732-5.78 7.804-11.678-10.344-25.628-15.046-41.186-12.558zm-50.946-3.532c10.577 2.472 16.826-14.047 8.949-17.108-14.077-5.471-35.816 3.651-41.944 8.801-7.168 6.023-6.033 12.024 2.73 9.231s21.135-3.057 30.265-.923z"/></g><path d="M742.508 134.025c6.825 4.88 5.385 12.311.958 19.858-5.904 10.066 3.977 25.571 17.629 22.944-11.3-5.349-7.376-15.653-1.435-23.628 6.406-8.6 10.246-22.2-.68-26.755s-16.472 7.58-16.472 7.58z" class="G"/><g class="E"><path d="M704.504 251.259a5 5 0 0 1-4.449-2.711c-3.477-6.748-9.134-8.701-12.042-7.929-.679.18-2.484.658-2.34 4.073a5 5 0 1 1-9.991.423c-.298-7.06 3.445-12.486 9.77-14.162 7.339-1.947 17.765 1.901 23.493 13.016a5 5 0 0 1-4.441 7.291zm115.988 43.094a5 5 0 0 1-4.966-5.64c1.644-12.755 9.988-21.822 24.13-26.219a5 5 0 1 1 2.969 9.549c-10.277 3.196-16.058 9.234-17.181 17.949a5.001 5.001 0 0 1-4.953 4.361z"/><path d="M836.483 287.759a4.985 4.985 0 0 1-3.375-1.312l-8.756-8.015a5 5 0 1 1 6.752-7.376l8.756 8.015a5 5 0 0 1-3.377 8.688z"/></g><path d="M739.463 274.523c5.643 2.388 3.627 21.164-12.292 27.038-18.724 6.908-33.775-5.153-33.221-12.318s12.117.21 24.288-4.025 16.115-12.857 21.226-10.694z" fill="#fff"/><path d="M714.04 344.327a5 5 0 0 1-.15-9.998c14.457-.441 40.656-4.934 52.767-10.067a5 5 0 0 1 3.903 9.207c-13.295 5.635-40.723 10.379-56.364 10.855l-.155.002z" class="E"/><path d="M874.894 256.433a5 5 0 0 1-4.937-5.828c.514-3.063-3.015-9.307-5.562-12.563a5.009 5.009 0 0 1 .312-6.533c4.441-4.667 6.698-11.684 6.037-18.77-.499-5.352-2.671-9.897-5.811-12.158a5 5 0 0 1-2.075-3.88c-.592-16.72-6.145-31.522-14.852-39.597-4.681-4.341-9.953-6.425-15.687-6.196a5.012 5.012 0 0 1-5.138-4.213c-3.135-19.784-16.457-20.638-17.965-20.67-2.762 0-4.975-2.238-4.975-5s2.265-5 5.026-5c7.521 0 22.177 5.354 26.975 25.023 6.758.692 13.105 3.662 18.563 8.723 10.199 9.458 16.827 25.903 17.938 44.314 4.417 4.132 7.277 10.445 7.956 17.725.787 8.438-1.461 16.891-6.09 23.369 2.651 4.103 6.23 10.992 5.209 17.08a5.003 5.003 0 0 1-4.925 4.174zm-156.747-118.22a5 5 0 0 1-4.812-6.37c1.696-5.956 5.946-11.415 12.632-16.224a5 5 0 0 1 5.84 8.118c-4.812 3.461-7.79 7.109-8.854 10.844a5.003 5.003 0 0 1-4.807 3.632zm89.137 111.509a5 5 0 0 1-4.995-4.848c-.238-7.806 2.938-13.047 5.49-17.258 3.313-5.466 5.707-9.416 2.045-18.998a4.999 4.999 0 0 1 2.886-6.455 5 5 0 0 1 6.456 2.886c5.407 14.151.837 21.691-2.834 27.75-2.344 3.867-4.195 6.922-4.047 11.771a5 5 0 0 1-4.845 5.15l-.155.002z" class="D"/><g clip-path="url(#A)"><ellipse cx="665.855" cy="209.762" fill="#fff" rx="22.372" ry="19.666" transform="matrix(.249941 -.968261 .968261 .249941 296.323 802.054)"/><ellipse cx="663.274" cy="206.961" rx="16.46" ry="11.855" transform="matrix(.249941 -.968261 .968261 .249941 297.099 797.454)" class="D"/></g><g class="L"><path d="M917.783 422.639c31.27 18.743 96.805 227.838 110.346 256.731 24.391 52.042-106.599 88.373-139.778 43.166s-45.052-121.953-70.245-160.946 60.875-162.208 99.677-138.951z"/><path d="M1028.13 679.37c11.77 25.256 19.583 52.701 22.2 85.331 3.12 38.903 7.373 92.272 13.11 125.398 6.39 36.898 6.595 74.604-52.47 89.282-60.009 14.913-91.421-6.052-107.476-25.23-23.066-27.553-23.446-105.967-13.641-170.959 5.176-34.307-1.502-60.656-1.502-60.656-10.007-44.308 116.983-92.083 139.779-43.166z"/></g><g class="B"><path d="M998.787 1029.703c-4.773 18.804-14.43 38.63-30.746 46.027-17.426 7.9-26.38 9.922-38.424 15.074-17.981 7.691-100.981-61.629-81.601-70.096s41.216-17.449 50.281-25.705c11.569-10.536 103.726 21.955 100.491 34.7z"/><path d="M848.016 1020.707c-14.395 5.818-44.551 40.629-49.258 47.252s1.931 52.631 2.27 60.219c.795 17.788 28.932 17.038 29.376-2.786.271-12.063-2.506-40.27-2.506-40.27l35.249-39.69-15.131-24.724z"/><path d="M859.317 1039.173s-33.341 32.985-36.527 38.816-5.449 49.444-5.917 56.178c-1.101 15.86 26.512 19.59 29.425 2.165s2.498-41.761 2.498-41.761l31.366-36.097-20.846-19.302z"/><path d="M877.674 1056.17s-28.171 27.34-31.707 33.66-4.879 48.599-5.519 55.661c-1.536 16.945 27.619 21.347 29.446 3.652 1.329-12.866 3.15-44.48 3.15-44.48l27.325-31.343-22.695-17.149z"/><path d="M900.369 1073.319s-17.081 34.881-18.572 39.695 1.156 33.56 3.828 44.668c4.242 17.635 34.032 10.168 30.034-8.344-1.558-7.214-4.503-30.43-4.503-30.43l18.462-28.105-29.248-17.484z"/></g><path d="M818.204 1145.569a4.993 4.993 0 0 1-4.13-2.176c-2.071-3.026-3.832-9.374-1.184-33.51 1.474-13.433 3.862-27.601 5.012-32.946 2.361-10.974 29.843-34.617 38.21-41.603a5 5 0 0 1 6.409 7.676c-15.882 13.263-33.719 30.809-34.843 36.03-3.449 16.029-8.072 53.28-5.313 58.764a5 5 0 0 1-4.162 7.765zm4.175-7.738h.01zm-.054-.086l.011.017-.011-.017zm18.123 12.746h-.008a5 5 0 0 1-4.992-5.009c.008-4.557.239-44.892 5.953-57.69 5.764-12.909 30.327-33.22 33.109-35.493a5 5 0 0 1 6.328 7.742c-7.051 5.765-26.24 22.72-30.307 31.828-4.11 9.206-5.063 41.835-5.084 53.631a5 5 0 0 1-5 4.991z" class="E"/><path d="m903.494 954.151-5.197 40.851c21.012 36.086 80.311 57.107 100.491 34.7l12.182-50.322c-35.144 5.097-71.535 4.686-107.476-25.23z" class="L"/><g fill="#005141"><path d="M837.034 605.177a5 5 0 0 1-4.61-3.061c-6.926-16.447-12.832-28.497-18.586-37.921a5 5 0 1 1 8.535-5.211c6.103 9.996 12.044 22.101 19.267 39.251a5 5 0 0 1-4.605 6.942zm51.312 122.359a5 5 0 0 1-4.985-4.683c-1.29-20.293-9.773-40.563-9.858-40.765a5 5 0 0 1 9.208-3.899c.376.888 9.229 21.996 10.629 44.029a5 5 0 0 1-4.994 5.317zm161.982 42.166a5.003 5.003 0 0 1-4.768-3.5c-6.672-21.203-19.191-44.289-19.316-44.52a5 5 0 0 1 1.999-6.782 4.997 4.997 0 0 1 6.782 1.999c.532.977 13.113 24.18 20.074 46.301a5.001 5.001 0 0 1-4.771 6.503zM937.726 979.457a5 5 0 0 1-4.125-2.176c-7.316-10.687-13.101-25.226-13.344-25.839a4.999 4.999 0 1 1 9.3-3.678c.049.123 4.357 10.943 9.931 20.179 1.65-1.448 3.967-4.186 6.447-9.307a5.001 5.001 0 0 1 9 4.36c-7.313 15.102-15.354 16.354-16.891 16.452-.106.007-.212.01-.318.01zm53.933 7.015a4.999 4.999 0 0 1-2.407-9.386c6.013-3.294 11.261-12.063 12.207-20.396.312-2.743 2.788-4.726 5.533-4.403a5 5 0 0 1 4.404 5.532c-1.322 11.64-8.452 23.168-17.339 28.036a4.973 4.973 0 0 1-2.398.616zm-75.888 30.209a5 5 0 0 1-4.97-5.603l5.47-45.073a5 5 0 0 1 9.927 1.205l-5.47 45.073a5.002 5.002 0 0 1-4.957 4.398z"/><path d="M939.805 1033.346a5 5 0 0 1-4.958-5.696l7.188-51.241a4.994 4.994 0 0 1 5.646-4.257 5 5 0 0 1 4.257 5.646l-7.188 51.241a5.002 5.002 0 0 1-4.945 4.307zm40.272 6.664a5 5 0 0 1-4.931-5.858l8.937-51.335a4.996 4.996 0 0 1 5.783-4.068 5 5 0 0 1 4.068 5.783l-8.937 51.335a5.002 5.002 0 0 1-4.92 4.144z"/><path d="M981.461 987.1c-31.494 0-58.722-9.756-81.232-29.162a5 5 0 1 1 6.53-7.574c27.074 23.339 61.841 31.444 103.339 24.095a5 5 0 0 1 1.744 9.847c-10.521 1.863-20.657 2.795-30.38 2.795z"/></g><path d="M583.306 476.331a5 5 0 0 1-4.259-7.611l18.618-30.414a5 5 0 0 1 8.529 5.221l-18.618 30.414a4.995 4.995 0 0 1-4.269 2.39z" fill="#cc2bc5"/></svg></g><g transform="matrix(1.159816 .846459 -.850389 1.1652 580.77238 428.727745)"><svg width="147.996" height="136.047"><use href="#D" class="I"/><g class="J"><use href="#E"/><use href="#F"/><use href="#G"/></g></svg></g><g transform="matrix(1.241588 0 0 1.249568 285 1277.5)"><svg width="147.996" height="136.047"><use href="#D" class="I"/><g class="J"><use href="#E"/><use href="#F"/><use href="#G"/></g></svg></g><g transform="matrix(2.069545 -.200831 .200373 2.064823 129.81388 1671.645816)"><svg width="86.569" height="93.395"><use href="#H" class="H"/></svg></g><g transform="matrix(-2.286023 -.559998 -.557283 2.274939 2121.848072 1067.380259)"><svg width="86.569" height="93.395"><use href="#H" class="H"/></svg></g><g transform="matrix(2.351241 .36536 -.366287 2.357207 1975.244096 1728.738763)"><svg width="46.229" height="66.024"><use href="#I" class="H"/></svg></g><g transform="matrix(-2.000271 -1.288697 -1.291966 2.005347 491.385666 1896.087079)"><svg width="46.229" height="66.024"><use href="#I" class="H"/></svg></g><defs ><path id="C" d="M234.27 124.137c-3.258-7.478-11.458-22.213-20.29-32.181-5.157-5.822-25.483 3.108-25.551 15.695-.064 11.742 20.626 31.18 22.862 34.812z"/><path id="D" d="M102.598 1.089 13.512 31.671C3.064 35.258-2.497 46.634 1.089 57.082l18.898 55.051c3.586 10.447 14.963 16.009 25.41 12.423l23.93-8.215 29.807 19.706 11.419-33.859 23.93-8.215c10.447-3.586 16.009-14.963 12.423-25.41l-18.898-55.051c-3.586-10.447-14.963-16.009-25.41-12.423Z"/><path id="E" d="M62.226 90.461a5.001 5.001 0 0 1-4.729-3.378L46.916 56.26a5.002 5.002 0 0 1 9.459-3.247l10.581 30.823a5.001 5.001 0 0 1-4.729 6.624Z"/><path id="F" d="M41.525 80.34a5.002 5.002 0 0 1-1.623-9.731l30.822-10.581a5.003 5.003 0 0 1 6.353 3.106 5.002 5.002 0 0 1-3.106 6.353L43.149 80.068a4.975 4.975 0 0 1-1.623.271Z"/><path id="G" d="M115.517 81.657a5.002 5.002 0 0 1-4.729-3.378L98.975 43.871l-3.077 12.076a4.995 4.995 0 0 1-6.079 3.61 4.998 4.998 0 0 1-3.61-6.079l7.213-28.308a4.999 4.999 0 0 1 4.642-3.762 5.02 5.02 0 0 1 4.933 3.373l17.251 50.251a5.002 5.002 0 0 1-4.729 6.624z"/><path id="H" d="M40.896 23.439C44.685-4.003 71-7.095 79.674 12.83c7.964 18.294-4.764 37.761-4.023 56.41.503 12.663 10.917 24.154 10.917 24.154C14.98 92.499-19.614 28.1 11.414 11.311c15.055-8.147 29.483 12.128 29.483 12.128z"/><path id="I" d="M21.098 9.09C19.565-.457 6.51-5.16 1.058 8.609s10.24 53.651 45.171 57.415c0 0-10.983-9.426-8.645-24.715 1.605-10.5 8.155-30.049-2.401-37.141C27.277-1.143 21.098 9.09 21.098 9.09z"/></defs></svg>