<svg xmlns="http://www.w3.org/2000/svg" width="3000" height="2857" xmlns:v="https://vecta.io/nano"><style><![CDATA[.B{fill:#e09273}.C{fill:#a85f36}.D{fill:#111}.E{fill:#8f969e}.F{fill:#ffd215}.G{fill:#2471ed}.H{fill:#4f2000}.I{fill:#5ac4ff}.J{fill:#2199ce}]]></style><g transform="matrix(1.42716 0 0 1.42985 255.714286 1357.142857)"><svg width="890.88" height="982.121"><g class="E"><circle cx="141.086" cy="900.947" r="23.514"/><circle cx="232.061" cy="958.606" r="23.514"/></g><path d="m158.916 913.91-34.698-25.754c-3.378-2.507-3.658-7.647-.612-11.239l8.562-10.098c2.843-3.353 7.542-4.104 10.647-1.702l34.142 26.411c3.286 2.542 3.517 7.612.508 11.161l-8.005 9.441c-2.807 3.309-7.431 4.09-10.544 1.78zm90.367 58.377-34.698-25.754c-3.378-2.507-3.658-7.647-.612-11.239l8.562-10.098c2.843-3.353 7.542-4.104 10.647-1.703l34.142 26.411c3.286 2.542 3.517 7.612.508 11.161l-8.005 9.441c-2.807 3.31-7.431 4.091-10.544 1.781z" class="D"/><circle cx="24.356" cy="718.668" r="23.514" class="E"/><path d="m840.923 78.717 20.252 17.172-256.437 302.434-20.252-17.171zM779.678 26.79l20.252 17.17-256.437 302.436-20.252-17.172z" class="G"/><path d="M871.025 120.664L754.149 21.566a10.32 10.32 0 0 1-1.197-14.544l2.862-3.375a10.32 10.32 0 0 1 14.544-1.197l116.876 99.099a10.32 10.32 0 0 1 1.197 14.544l-2.862 3.375a10.32 10.32 0 0 1-14.544 1.196z" class="E"/><g class="G"><path d="m390.404 210.931 130.862 168.477 179.379 88.962-138.476-164.792c-14.841-19.558-15.599-22.048-38.298-31.404z"/><path d="M101.148 847.605 3.514 680.211a26.841 26.841 0 0 1 2.68-30.426l357.113-429.95c9.289-11.184 25.795-12.939 37.228-3.958l139.985 109.96c11.967 9.4 13.734 26.859 3.892 38.466L137.996 843.627c-12.056 14.219-27.627 20.18-36.848 3.978z"/><path d="M266.615 959.384 107.993 855.191l444.43-519.287 138.532 117.461c12.974 11.001 14.574 30.436 3.573 43.41l-387.38 456.873c-10.102 11.914-27.522 14.379-40.533 5.736z"/></g><g fill="#004ebf"><path d="M514.662 383.72a5 5 0 0 1-3.748-8.307c2.006-2.275-1.257-9.859-4.514-14.385l-117.921-142.1c-1.626-1.477-8.399-6.739-15.69.189a5 5 0 0 1-6.889-7.249c11.894-11.303 24.64-4.912 29.719.047.125.122.243.25.354.385L514.2 354.768c.067.081.132.164.194.249 1.289 1.769 12.354 17.56 4.02 27.01a4.99 4.99 0 0 1-3.752 1.693z"/><path d="M688.659 508.7a5 5 0 0 1-3.259-8.794c7.194-6.176 10.88-12.167 10.955-17.806.068-5.131-2.928-8.66-3.92-9.686l-155.701-87.792a5.05 5.05 0 0 1-.615-.409c-.431-.33-10.98-8.277-18.086-1.797a4.999 4.999 0 1 1-6.737-7.389c10.493-9.568 24.444-3.616 30.654 1.056l155.952 87.934a4.98 4.98 0 0 1 .827.584c.313.272 7.665 6.795 7.629 17.407-.03 8.711-4.889 17.286-14.443 25.487a4.993 4.993 0 0 1-3.256 1.205z"/><path d="M112.375 860.192a5 5 0 0 1-3.94-8.074l59.35-76.147a5 5 0 0 1 7.176-.741l13.532 11.469c2.719 2.394 6.116 3.538 9.634 3.283a12.945 12.945 0 0 0 8.999-4.563l295.122-347.261c4.576-5.385 3.985-13.566-1.318-18.237l-13.137-11.57a5 5 0 0 1-.459-7.043l25.41-29.06a5 5 0 0 1 7.528 6.582l-22.131 25.309 9.398 8.277c9.369 8.251 10.414 22.704 2.329 32.217L214.746 791.896a22.87 22.87 0 0 1-32.79 2.37l-9.486-8.039-56.148 72.038a4.992 4.992 0 0 1-3.947 1.927zm430.208-551.745a5 5 0 0 1-3.811-8.234l8.879-10.471a5 5 0 1 1 7.627 6.467l-8.879 10.471a4.99 4.99 0 0 1-3.816 1.767zm20.716 19.628a5 5 0 0 1-3.811-8.234l9.684-11.421a5 5 0 1 1 7.627 6.467l-9.684 11.421a4.985 4.985 0 0 1-3.816 1.767zm38.264 37.976a5 5 0 0 1-3.811-8.234l9.684-11.421a5 5 0 1 1 7.627 6.467l-9.684 11.421a4.988 4.988 0 0 1-3.816 1.767zm19.991 18.011a5 5 0 0 1-3.811-8.234l9.684-11.421a5 5 0 1 1 7.627 6.467l-9.684 11.421a4.988 4.988 0 0 1-3.816 1.767z"/><path d="M574.175 375.07a4.991 4.991 0 0 1-4.036-2.044L558.8 357.564a4.996 4.996 0 0 1-.938-3.5l1.022-9.344a28.936 28.936 0 0 0-20.908-31.061l-12.714-3.614a4.995 4.995 0 0 1-2.702-1.905l-10.299-14.429a5 5 0 1 1 8.139-5.809l9.281 13.003 11.029 3.135a38.91 38.91 0 0 1 28.115 41.767l-.811 7.412 10.19 13.896a5 5 0 0 1-4.029 7.955z"/><path d="M571.656 346.411c1.079-20.06-22.316-46.721-37.598-47.715-1.319-.086-12.367 1.105-9.878 10.751.378 1.464 12.376 6.086 12.376 6.086a33.952 33.952 0 0 1 18.418 26.465s1.931 12.441 3.25 13.806c3.287 3.403 12.676 4.667 13.432-9.393z"/><path d="M563.648 358.536c-2.295 0-4.481-1.036-5.784-2.385-1.36-1.408-3.058-11.974-3.384-14.077-1.28-11.249-8.063-20.997-18.15-26.095-3.634-1.397-12.235-4.861-12.634-6.408-.785-3.043-.356-5.586 1.277-7.557 2.826-3.413 8.236-3.875 9.117-3.817 7.453.485 17.143 6.956 25.288 16.89 8.499 10.364 13.275 22.084 12.776 31.351-.427 7.941-3.5 10.721-6.002 11.654a7.124 7.124 0 0 1-2.504.444zm-29.734-59.345c-.994 0-5.727.508-8.171 3.46-1.417 1.711-1.78 3.955-1.079 6.67.391.83 6.447 3.578 12.071 5.745 10.434 5.271 17.42 15.31 18.735 26.875.734 4.729 2.232 12.604 3.113 13.516 1.512 1.565 4.555 2.692 7.22 1.698 2.222-.829 4.955-3.371 5.353-10.771 1.059-19.692-22.11-46.213-37.131-47.189a1.555 1.555 0 0 0-.111-.004z"/></g></svg></g><g transform="matrix(1.429088 0 0 1.428816 1267.142857 95.714286)"><svg width="943.659" height="1865.681"><clipPath id="A"><path d="M656.51 156.708c2.146 17.168 6.851 27.604 11.441 36.142 6.619 12.233-40.26 22.173-48.1-13.27-5.842-31.14 33.285-41.108 36.659-22.872z"/></clipPath><clipPath id="B"><ellipse cx="645.459" cy="177.464" rx="16.3" ry="17.8" transform="matrix(.9411 -.338 .338 .9411 -21.995 228.6098)"/></clipPath><clipPath id="C"><path d="M584.173 172.665c-9.477 2.246-15.022 12.443-12.385 22.778s12.454 16.89 21.929 14.645 15.021-12.444 12.385-22.778c-2.467-9.678-11.239-16.044-20.126-14.967a16.2 16.2 0 0 0-1.803.322"/></clipPath><path d="M513.526 257.85c-6.246 1.892-16.161 12.506-17.523 28.042-10.581-12.177-6.154-29.213 5.483-40.003 15.918-14.762 12.04 11.961 12.04 11.961" class="H"/><g class="B"><path d="m503.796 340.292 20.864-106.671c11.673-53.472 102.996-26.387 94.303 17.913l-20.865 106.671"/><path d="M605.032 86.088c28.776 11.995 45.553 27.133 51.284 70.835 5.481 41.788 26.157 43.73 23.27 74.381-3.759 39.902-38.933 54.2-75.821 53.865s-86.516-5.352-105.773-51.882-25.07-101.095 11.914-126.405 69.816-31.344 95.126-20.794"/></g><path d="M584.169 243.561c1.881-1 10.206 4.645 19.788 6.479s20.424-.142 20.811 2.108c.772 4.502-12.998 13.714-25.932 10.152-13.237-3.647-18.43-16.742-14.667-18.739" fill="#fff"/><path d="M628.501 151.998c-5.351 3.769-12.335-5.117-4.173-11.374s24.395-4.811 31.522.775 2.834 10.424-2.372 8.35-20.261-1.074-24.977 2.249m-31.523 6.777c7.266-.323 7.093-12.13-2.388-12.665-10.67-.602-31.134 9.326-35.711 19.096-4.006 8.554 2.002 11.247 5.687 6.604 6.306-7.946 26.409-12.767 32.412-13.035" class="D"/><path d="M605.008 290.128c-14.967 0-33.665-1.578-41.281-3.238a5 5 0 0 1 2.129-9.771c9.42 2.053 38.476 4.035 51.606 2.443a5 5 0 0 1 1.203 9.927c-3.681.447-8.442.639-13.657.639z" class="C"/><g clip-path="url(#A)"><ellipse cx="645.459" cy="177.464" fill="#fff" rx="16.3" ry="17.8" transform="matrix(.9411 -.338 .338 .9411 -21.995 228.6098)"/><g clip-path="url(#B)"><ellipse cx="647.672" cy="175.523" rx="9.2" ry="14.1" transform="matrix(.9936 -.1126 .1126 .9936 -15.6423 74.0269)" class="D"/></g></g><path d="M606.102 187.31c-2.636-10.334-12.454-16.891-21.93-14.646s-15.021 12.444-12.385 22.778 12.453 16.891 21.93 14.646 15.021-12.444 12.385-22.778" fill="#fff"/><path clip-path="url(#C)" d="M601.912 187.614c.965 7.966-2.406 14.926-7.528 15.547s-10.06-5.332-11.025-13.298 2.406-14.926 7.529-15.547 10.058 5.334 11.024 13.298" class="D"/><path d="M623.459 218.136a5 5 0 0 1-4.45-7.273c4.73-9.275 12.885-12.188 18.493-10.273 3.887 1.327 7.914 5.584 6.475 13.213a5 5 0 1 1-9.827-1.855c.2-1.06.107-1.682.027-1.92-.801-.146-3.895.739-6.26 5.377a4.997 4.997 0 0 1-4.458 2.731z" class="C"/><g class="H"><path d="M594.972 95.787c-4.405-19.624-44.666-31.56-82.312-23.15-59.862 13.374-68.883 60.073-69.684 114.138s22.045 63.99 68.502 59.184c1.707-20.913 23.91-39.233 30.729-60.606 13.279-41.614-1.28-73.195 52.765-89.566"/><path d="M555.911 71.38c14.405-4.745 69.863-10.468 89.59 17.494 15.081 21.377 5.781 44.215 5.781 44.215s-8.388-23.029-26.745-32.827c-12.931-6.902-29.565-4.475-29.565-4.475-3.986-12.567-16.666-20.232-39.061-24.407"/></g><path d="M443.422 177.417a5 5 0 0 1-5-5c0-24.72 5.584-47.309 16.15-65.327 9.481-16.168 22.479-27.81 36.6-32.781a5 5 0 0 1 3.32 9.433c-22.189 7.811-46.07 38.892-46.07 88.676a5 5 0 0 1-5 4.999z" class="D"/><path d="M527.892 219.862c-7.423-10.719-20.961-28.638-37.245-18.679s-8.38 50.064 17.486 56.434 26.672-27.773 19.759-37.755" class="B"/><g class="C"><path d="M522.004 243.148a5.002 5.002 0 0 1-4.682-3.245c-5.916-15.772-18.441-19.96-22.203-18.891a5 5 0 0 1-2.735-9.619c10.653-3.029 27.36 6.492 34.301 24.998a4.999 4.999 0 0 1-4.681 6.757z"/><path d="M505.049 239.049a4.998 4.998 0 0 1-4.281-7.573c.167-.278 4.148-6.869 8.742-11.208a5 5 0 1 1 6.866 7.27c-3.582 3.383-7.003 9.032-7.037 9.089a5.002 5.002 0 0 1-4.29 2.422z"/></g><path d="M554.832 106.201c-13.823 34.118-2.209 46.311-12.771 75.182-8.21 22.44-17.083 26.259-17.083 59.692 0 34.892 26.6 51.847 26.6 51.847-8.167-9.893-13.741-35.697-11.851-51.847 2.456-20.996 20.534-42.43 31.321-57.571 24.265-34.062 12.665-65.154 29.938-93.674" class="H"/><path d="M594.976 100.789a5.001 5.001 0 0 1-4.528-2.873c-6.978-14.832-24.05-18.898-35.347-21.589l-.348-.083a5 5 0 0 1 2.318-9.728l.348.083c12.362 2.944 33.051 7.872 42.079 27.06a5 5 0 0 1-4.522 7.13zm-67.778 121.558a5 5 0 0 1-4.836-6.285c3.706-13.954 6.728-19.214 9.393-23.854 1.921-3.344 3.58-6.232 5.543-12.352 4.494-14.014 4.633-24.228 4.768-34.107.163-11.916.332-24.238 8.211-41.613a5 5 0 1 1 9.108 4.131c-7.017 15.472-7.157 25.735-7.32 37.62-.138 10.118-.295 21.587-5.245 37.023-2.286 7.13-4.375 10.765-6.395 14.28-2.473 4.305-5.031 8.758-8.399 21.439a5 5 0 0 1-4.828 3.718z" class="D"/><path d="M493.751 329.227l160.903-6.253c28.389-1.859 43.37 164.551 43.37 164.551l-255.068 2.553s20.685-73.021 16.09-109.277-22.979-44.936-22.979-44.936 21.446-5.106 57.684-6.638z" class="B"/><path d="M252.915 882.183s-2.21-15.424-17.87-28.701-17.362 22.128-17.362 22.128l33.362 13.277z" class="F"/><g class="B"><path d="M451.821 333.048s42.45 25.286-8.865 157.031l-44.634 91.404c-12.255 26.808-116.383 234.563-161.574 290.478s-110.347 6.096-85.071-39.096l124.56-280.87c39.458-89.918 69.738-174.559 93.599-192.635 20.728-15.703 47.495-26.312 81.985-26.312z"/><path d="M153.034 839.078l62.063 39.439c2.404 1.528 8.753-4.142 7.908-1.422l-20.094 61.839a47.731 47.731 0 0 1-9.42 16.613l-8.318 9.425c-15.796 16.64-40.264 39.955-41.564 41.362-1.415 1.532-15.968 9.957-15.968-6.894 0-11.667 16.891-34.717 27.283-47.795 3.357-4.225.218-10.429-5.174-10.23-9.693.358-23.074 2.517-34.173 10.433-2.793 1.992-3.909 6.058-1.961 8.882l11.719 12.241c.806 1.168 3.099 7.307 3.009 8.723-.382 6.001-3.191 12.948-15.626 3.447-.157-.12-24.28-13.709-24.28-13.709a5.85 5.85 0 0 0-.306-.261c-.881-.703-8.38 1.936-14.618-3.306-3.708-3.116-3.622-17.018-9.519-17.021-1.97-.001-8.159-1.363-11.077-4.086-2.69-2.51-3.079-8.971-5.548-11.446-1.436-1.44-5.74-2.141-7.048-3.532-1.399-1.488-3.127-5.837-2.723-7.839 1.634-8.096 11.131-27.741 24.426-36.332 14.456-9.341 70.368-40.765 84.546-48.714a6.301 6.301 0 0 1 6.463.183z"/></g><path d="M92.071 977.973a5 5 0 0 1-4.421-2.657c-5.571-10.495-6.691-20.362-3.329-29.326 5.695-15.185 22.278-21.675 22.981-21.944a5 5 0 0 1 3.583 9.336c-.207.081-13.163 5.257-17.221 16.173-2.287 6.151-1.338 13.241 2.818 21.072a5 5 0 0 1-4.411 7.346zM65.853 960.78a5 5 0 0 1-4.999-4.94c-.281-23.486 9.266-35.489 17.325-41.422 8.86-6.523 17.883-7.247 18.262-7.275a5.001 5.001 0 0 1 .751 9.972c-1.155.099-26.769 2.736-26.339 38.606a5.002 5.002 0 0 1-4.94 5.06l-.06-.001zm-15.315-20.468a5 5 0 0 1-5-5.167c1.136-34.137 25.811-40.17 26.861-40.41a5 5 0 0 1 2.265 9.741c-.829.207-18.262 4.879-19.131 31.003a5.001 5.001 0 0 1-4.995 4.833z" class="C"/><path d="m645.463 324.958 32.973 142.42s70.834-20.759 133.562-45.725c51.736-20.591 87.527-38.98 96.41-45.106 22.213-15.319 50.723-46.041 25.192-113.446S830.45 102.163 830.45 102.163l-81.362 25.872s57.191 116.555 69.447 153.096c0 .001-85.723 25.209-173.072 43.827z" class="B"/><path d="M817.03 293.371a5 5 0 0 1-4.957-4.398c-1.485-12.228-5.585-22.465-9.204-31.497l-.555-1.388a5 5 0 0 1 9.286-3.71l.552 1.38c3.846 9.601 8.205 20.484 9.847 34.01a5 5 0 0 1-4.969 5.603z" class="C"/><path d="M828.747 118.844l-71.244 22.128s-46.913-1.456-60.856-34.771c-4.528-10.819-9.775-18.977-14.796-25.063-5.643-6.839-11.001-11.06-14.734-13.495-4.458-2.908-6.933-8.187-5.964-13.42.914-4.934 4.444-9.166 14.912-6.357 6.841 1.835 13.518 5.697 19.408 10.065 12.137 9.001 20.933 20.151 20.933 20.151l-22.551-40.071a21.794 21.794 0 0 0-13.406-10.376l-7.59-2.012c-6.258-1.659-11.006-7.062-11.333-13.528-.247-4.899 2.156-9.773 11.852-11.105 6.14-.843 12.392.199 18.035 2.762 7.108 3.228 18.007 8.713 22.95 13.986 0 0 9.702-14.298 23.489 0 0 0 6.638-16.34 23.489-6.638 0 0 20.425-28.939 44.936 6.638s24.17 84.426 24.17 84.426" class="B"/><g class="C"><path d="M737.006 70.733c-6.476 0-13.771-3.675-17.764-14.402a4.93 4.93 0 0 1-.154-.488l-9.564-36.848a5 5 0 0 1 9.679-2.512L728.7 53.07c2.281 5.942 6.032 8.628 10.324 7.375 3.054-.892 5.328-3.555 4.866-5.698a5.001 5.001 0 0 1 9.776-2.106c1.584 7.356-3.615 15-11.838 17.403a17.287 17.287 0 0 1-4.822.689z"/><path d="M764.091 69.146c-6.823 0-14.394-3.672-19.665-12.99a4.986 4.986 0 0 1-.521-1.342l-9.017-39.246a5.001 5.001 0 0 1 9.746-2.24l8.846 38.504c4.893 8.123 11.178 7.961 14.177 6.539.334-.158 3.241-1.607 2.434-3.684a5 5 0 1 1 9.321-3.621c2.433 6.263-.709 13.136-7.472 16.341-2.344 1.113-5.033 1.739-7.849 1.739z"/><path d="M784.338 64.05c-13.216 0-19.694-19.997-21.879-26.74-4.035-12.454-5.977-24.926-6.058-25.451a5 5 0 0 1 9.883-1.521c4.094 26.548 13.03 44.33 18.471 43.686 2.199-.26 3.026-1.157 3.544-2 2.917-4.743.153-16.42-1.642-21.331a5.002 5.002 0 0 1 2.974-6.413 5 5 0 0 1 6.413 2.966c.736 2.001 7.013 19.847.782 30.004-2.344 3.821-6.112 6.14-10.896 6.706-.54.063-1.072.094-1.592.094z"/></g><g fill="#e3e5e5"><path d="m442.488 576.289 474.745-24.293-18.554 127.122c-3.309 22.668-9.514 44.782-18.785 65.523C844.286 824.298 776.12 877.03 698.33 881.686c-51.161 3.063-100.861-15.038-141.693-49.348-37.565-31.564-64.42-74.972-77.714-123.382z"/><use href="#E"/></g><path d="M684.435 33.572c-2.83 0-5.13-.773-6.6-1.675l5.229-8.524s-.06-.045-.182-.104c.145.071 3.608 1.671 9.161-3.555a5 5 0 1 1 6.854 7.282c-5.318 5.005-10.429 6.576-14.462 6.576z" class="C"/><g fill="#ea2688"><path d="M428.051 145.057l-6.464-25.076A75.17 75.17 0 0 1 455.809 36.7l43.509-26.007c35.323-21.114 81.058-9.897 102.604 25.164z"/><path d="M449.945 227.001s-16.942-31.558 14.207-60.923c22.807-21.5 90.68-82.495 127.66-95.574 6.88-2.434 17.191-1.957 25.326.47 12.709 3.792 27.695 9.743 34.868 30.672 0 0 27.976-20.589 34.444-38.631s9.532-35.404-13.277-45.957-83.745 13.277-83.745 13.277-131.404 67.403-164.766 107.914c0 0-50.723 48-47.319 68.426s13.957 24.511 26.894 25.532 26.644 2.284 45.708-5.206z"/></g><path d="M420.857 140.271a5 5 0 0 1-3.482-8.589c3.54-3.433 87.714-84.407 175.959-112.426a5 5 0 0 1 3.027 9.531c-85.967 27.296-171.173 109.249-172.024 110.074a4.983 4.983 0 0 1-3.48 1.41z" fill="#b7006d"/><path d="M695.931 105.361c-4.528-10.819-9.774-18.977-14.796-25.063-5.643-6.839-11.001-11.06-14.734-13.495-4.458-2.908-6.933-8.187-5.964-13.42.914-4.934 4.444-9.166 14.912-6.357 6.841 1.835 13.518 5.697 19.408 10.065 12.137 9.001 20.933 20.151 20.933 20.151" class="B"/><path d="M761.805 99.94a4.985 4.985 0 0 1-3.585-1.514c-5.988-6.158-12.108-10.273-18.71-12.58-7.296-2.55-15.02-2.833-23.612-.866a5 5 0 0 1-5.281-2.108L694.67 59.478a5 5 0 1 1 8.099-5.864c3.824 5.281 10.937 15.874 14.317 20.933 18.128-3.106 34.364 2.571 48.304 16.907a5 5 0 0 1-3.585 8.486z" class="C"/><path d="M346.495 1776.875a24.563 24.563 0 0 0-1.408-2.812 27.482 27.482 0 0 0-1.436-4.065c-5.829-13.303-11.917-16.006-34.468-38.89l-56.185-57.145c-5.491-6.588-8.385-10.597-9.819-13.023l90.575-166.858-150.848-97.982S74.94 1558.876 48.492 1612.972c-1.073 2.193-12.591 34.334-.527 50.991 34.53 47.678 176.333 141.01 281.67 134.511 0 0 25.717-.092 16.86-21.599z" class="B"/><g class="F"><path d="M16.874 1713.175c3.253-6.035 19.872-10.778 26.547-9.215 25.359 5.936 27.917 9.549 63.877 26.89 43.019 20.745 206.419 44.721 244.825 50.151 5.618.794 10.233 4.842 11.716 10.318 3.324 12.282 4.957 35.992-16.425 65.691-14.385 19.982-85.029 1.481-161.548-15.827-92.048-20.82-178.245-34.086-183.536-50.889-7.479-23.757 4.576-58.628 14.544-77.119z"/><path d="M126.284 1753.245s89.544-90.375 121.053-90.231 54.387 34.113 54.387 34.113-37.185 109.942-50.617 114.955-124.823-58.837-124.823-58.837z"/></g><path d="M286.851 1777.024a4.99 4.99 0 0 1-1.01-.103l-150.797-30.922a5 5 0 0 1 2.009-9.796l150.797 30.922a5 5 0 0 1-.999 9.899z" fill="#ce9800"/><path d="M496.504 1529.037l-.698 194.914c-.028 2.442-2.472 29.808 15.57 39.68 51.643 28.257 219.773 51.741 312.139.687 0 0 23.191-11.113 5.965-26.742-10.756-9.759-50.674-21.28-80.608-32.95-46.616-18.173-60.358-25.537-63.879-28.522-2.361-2.001.44-127.117.44-127.117z" class="B"/><g class="F"><path d="M491.692 1772.873c1.791-6.618 16.889-15.027 23.745-15.029 26.044-.006 29.359 2.928 68.327 11.608 46.617 10.384 211.178-3.552 249.81-7.028 5.651-.508 11.068 2.379 13.761 7.374 6.039 11.2 13.037 33.912-1.004 67.706-9.447 22.737-82.449 20.841-160.898 21.447-94.37.729-181.321 7.479-190.305-7.674-12.704-21.424-8.923-58.126-3.436-78.404z"/><path d="M609.455 1790.076s64.013-104.265 93.546-111.044 58.407 20.008 58.407 20.008-10.695 111.098-22.172 118.738-129.781-27.702-129.781-27.702z"/></g><path d="M614.092 1777.873a5 5 0 0 1-.137-9.998l153.875-4.297a4.997 4.997 0 0 1 5.138 4.859 5 5 0 0 1-4.858 5.138l-153.875 4.297-.143.001z" fill="#ce9800"/><g class="I"><path d="m481.704 424.937 118.699 64.34 40.441-63.58 27.707-.718s31.6 44.588 36.962 74.46-60.633 142.264-60.633 142.264l-14.166 7.368c-74.036 38.508-163.976 28.648-227.911-24.985l-2.955-6.139a231.647 231.647 0 0 1 6.264-65.225l.706-2.915s42.708-72.785 47.304-102.657 27.582-22.213 27.582-22.213z"/><path d="M757.258 1528.717s-34.736 62.809-134.559 45.957c0 0-102.887 52.085-186.377-6.128 0 0-39.064-35.233-65.106-35.233 0 0-3.064 18.383-24.511 16.851-20.146-1.438-169.444-19.509-222.104-116.425-6.227-11.46-3.832-33.284 0-45.751 14.253-46.366 45.495-154.07 116.401-293.557 64.419-126.726 93.809-280.687 119.489-377.422 14.65-55.184 34.397-90.929 42.894-94.419l242.874 16.185 65.796 309.505a2575.307 2575.307 0 0 1 30.376 285.512z"/></g><path d="M543.125 663.333c-9.371 0-18.773-.428-28.195-1.287-41.948-3.821-81.984-15.955-118.995-36.064a5 5 0 0 1 4.773-8.787c35.809 19.456 74.543 31.195 115.128 34.892s80.803-.85 119.538-13.516l14.159-4.63a5 5 0 0 1 3.108 9.505l-14.159 4.63c-31.042 10.152-63.008 15.257-95.357 15.257zm-173.281 879.224a5 5 0 0 1-4.948-5.762l92.849-602.244a5 5 0 0 1 9.884 1.523l-92.849 602.244a5.001 5.001 0 0 1-4.936 4.239zm252.851 37.117a5 5 0 0 1-4.993-4.815l-16.334-441.191a5 5 0 0 1 9.994-.37l16.334 441.191a5 5 0 0 1-5.001 5.185z" class="J"/><path d="M436.066 333.048s22.468 77.371 51.064 95.243l-88.809 171.063s-28.362 7.729-35.276-4.749c-1.658-2.992-7.013-7.556-10.333-8.378-13.667-3.384-19.343 1.401-19.413 1.402-15.53.321-22.42-6.36-26.129-17.165-2.429-7.078-11.668-12.084-14.889-12.957-7.444-2.018-14.513.971-22.683 4.035-7.376 2.766-30.566-5.846-15.469-27.689 3.129-4.527 27.416-27.229 44.575-60.116 11.379-21.807 20.732-46.883 26.886-65.176 15.494-46.061 59.096-77.284 107.666-75.641l2.81.128z" class="I"/><path d="M394.192 602.823a5 5 0 0 1-3.715-8.345c5.267-5.851 11.237-12.483 15.725-29.938 2.34-9.097 24.181-76.22 25.109-79.073a5 5 0 1 1 9.509 3.095l-24.933 78.469c-4.716 18.339-10.932 26.31-17.977 34.138a4.99 4.99 0 0 1-3.718 1.654z" class="J"/><path d="M640.845 425.697s22.491-31.744 13.81-102.723c0 0 16.223-13.634 25.201-8.031s38.594-7.674 38.594-7.674 15.578-16.341 39.959-11.744c0 0 18.824-11.978 30.169-10.35 6.296.902 1.854 4.338 1.448 10.815-.364 5.812 1.368 11.522 4.629 16.347 4.074 6.028 21.804 13.813 13.366 34.539-2.819 6.924-3.702 14.514-2.004 21.794 1.038 4.452 2.849 8.963 5.98 12.131 8.58 8.681 0 40.851 0 40.851s-.953 12.256 3.813 21.958c3.873 7.883-2.669 26.291-24.628 18.917-14.858-4.988-30.866-5.418-46.149-1.945-18.045 4.1-48.355 9.27-61.795 5.363z" class="I"/><path d="M698.029 475.164a4.997 4.997 0 0 1-4.307-2.453l-22.979-38.808a5 5 0 0 1 8.605-5.095l22.979 38.808a5 5 0 0 1-4.298 7.548z" class="J"/><use href="#E" fill="#e3e5e5"/><g fill="#ea2688"><path d="M769.511 558.319s-1.717 38.074 18.396 55.608c0 0 8.76 6.101 25.627 10.492 9.555 2.487 18.188 7.85 24.411 15.516l.825 1.047c7.605 9.951-.886-26.4-.886-26.4s-16.03-50.705-58.459-60.504zm-26.171 3.675s-38.342 10.965-47.626 43.409c-2.892 10.106-6.948 19.843-12.003 29.059s-10.155 12.556 8.033 3.66 49.3-22.435 59.667-42.267 5.663-30.677 5.663-30.677z"/><path d="M744.065 535.533c-7.046 2.317-9.594 9.091-8.765 16.462.411 3.652-.16 7.791 3.258 11.677 9.077 10.317 37.903-3.883 46.277-8.336a5.072 5.072 0 0 0 2.662-3.93c.529-4.74 1.114-14.608-2.325-19.796-3.302-4.984-29.572.13-41.107 3.923z"/></g><g fill="#b7006d"><path d="M756.765 572.321c-.881 0-1.755-.048-2.623-.143-10.862-1.192-16.312-9.538-16.539-9.893a5 5 0 0 1 8.402-5.423c.181.268 3.327 4.794 9.372 5.391 6.624.655 14.777-3.628 23.567-12.385a5 5 0 0 1 7.058 7.084c-10.249 10.209-20.07 15.369-29.237 15.369z"/><path d="M716.51 607.737a5 5 0 0 1-3.899-8.126l29.998-37.45a5 5 0 1 1 7.804 6.252l-29.998 37.45a4.99 4.99 0 0 1-3.905 1.874zm70.45-13.13a5.001 5.001 0 0 1-4.742-3.42l-10.314-30.93a5 5 0 0 1 8.047-5.335l33.609 29.583a5 5 0 1 1-6.608 7.507l-19.7-17.341 4.453 13.352a5 5 0 0 1-4.745 6.584z"/></g><path d="M253.083 889.875c-1.386 3.653-3.376 7.665-6.151 10.854-2.708 3.112-7.096 4.17-11 2.817-15.911-5.514-63.858-24.888-88.243-65.121-.819-1.351-6.158-13.785-1.659-20.006 5.356-7.404 17.412-5.742 21.849-.869 13.24 14.54 43.476 44.715 79.544 59.262 5.138 2.072 7.621 7.897 5.66 13.063z" class="F"/></svg></g><g transform="matrix(.835524 0 0 .854835 1427.142857 1482.857143)"><svg width="41.035" height="40.108"><path d="m21.251 0 19.784 16.775-19.784 23.333L0 24.113z" class="G"/></svg></g><g transform="matrix(1.506138 0 0 1.500242 1428.571429 1444.285714)"><svg width="70.189" height="62.847"><path d="M50.334 60.399L6.143 22.93 1.26 16.765c-2.625-3.81-.979-9.072 3.349-10.707l6.114-3.32L17.855 0l48.687 41.282a10.32 10.32 0 0 1 1.197 14.544l-2.862 3.375a10.32 10.32 0 0 1-14.543 1.198z" class="E"/></svg></g><defs ><path id="E" d="M679.855 314.944s9.443-21.943 33.445-11.489 81.194 171.815 67.917 261.688-43.915 0-43.915 0-.219-149.319-57.447-250.199z"/></defs></svg>