<svg xmlns="http://www.w3.org/2000/svg" width="3000" height="2428" xmlns:v="https://vecta.io/nano"><style><![CDATA[.B{fill:#ea2688}.C{fill:#e09273}.D{fill:#b7006d}.E{fill:#a85f36}.F{fill:#111}.G{fill:#fff}.H{fill:#004ebf}.I{fill:#5ac4ff}.J{fill:#e3e5e5}.K{fill:#caccd2}.L{fill:#2471ed}.M{fill:#007a63}.N{fill:#8d949c}]]></style><g transform="matrix(1.428129 0 0 1.427453 1318.571429 480)"><svg width="807.25" height="684.536"><g class="J"><rect height="674.536" rx="54.607" width="797.25" x="5" y="5"/><path d="M747.642 684.536H59.607C26.74 684.536 0 657.796 0 624.928V59.607C0 26.74 26.74 0 59.607 0h688.035c32.868 0 59.607 26.74 59.607 59.607v565.321c0 32.868-26.74 59.607-59.607 59.607zM59.607 10C32.253 10 10 32.254 10 59.607v565.321c0 27.354 22.254 49.607 49.607 49.607h688.035c27.354 0 49.607-22.254 49.607-49.607V59.607c0-27.353-22.254-49.607-49.607-49.607z"/></g><path d="M802.249 124.865H5a5 5 0 0 1 0-10h797.249a5 5 0 0 1 0 10z" class="K"/><circle cx="744.817" cy="62.432" r="22.281" class="B"/><circle cx="682.408" cy="62.432" fill="#ffd215" r="22.281"/><circle cx="619.999" cy="62.432" fill="#40b509" r="22.281"/><g class="K"><path d="M546.748 476.101H95.324a5 5 0 0 1-5-5V180.218a5 5 0 0 1 5-5h451.424a5 5 0 0 1 5 5V471.1a5 5 0 0 1-5 5zm-446.424-10h441.424V185.218H100.324V466.1z"/><path d="M546.743 476.101a4.97 4.97 0 0 1-2.703-.798L92.616 184.421a5 5 0 0 1 5.416-8.406l451.424 290.882a5 5 0 0 1-2.713 9.203z"/><path d="M95.329 476.101a4.999 4.999 0 0 1-2.713-9.203L544.04 176.016a5 5 0 1 1 5.416 8.406L98.032 475.304a4.976 4.976 0 0 1-2.704.798zm629.597 80.176H82.324a5 5 0 0 1 0-10h642.602a5 5 0 0 1 0 10zm-85.191 68.822H95.324a5 5 0 0 1 0-10h544.411a5 5 0 0 1 0 10z"/></g></svg></g><g transform="matrix(1.427987 0 0 1.425216 2170 367.142857)"><svg width="291.119" height="370.871"><path d="M267.456 352.207H23.664a5 5 0 0 1-5-5V23.664a5 5 0 0 1 5-5h243.792a5 5 0 0 1 5 5v323.544a5 5 0 0 1-5 5zm-238.792-10h233.792V28.664H28.664v313.544z" class="H"/><path d="M248.792 5h37.327v37.327h-37.327z" class="I"/><path d="M286.119 47.327h-37.327a5 5 0 0 1-5-5V5a5 5 0 0 1 5-5h37.327a5 5 0 0 1 5 5v37.327a5 5 0 0 1-5 5zm-32.327-10h27.327V10h-27.327z" class="H"/><path d="M5 5h37.327v37.327H5z" class="I"/><path d="M42.327 47.327H5a5 5 0 0 1-5-5V5a5 5 0 0 1 5-5h37.327a5 5 0 0 1 5 5v37.327a5 5 0 0 1-5 5zM10 37.327h27.327V10H10z" class="H"/><path d="M5.509 327.371h37.327v37.327H5.509z" class="I"/><path d="M42.836 369.698H5.509a5 5 0 0 1-5-5v-37.327a5 5 0 0 1 5-5h37.327a5 5 0 0 1 5 5v37.327a5 5 0 0 1-5 5zm-32.327-10h27.327v-27.327H10.509z" class="H"/><path d="M248.792 328.544h37.327v37.327h-37.327z" class="I"/><path d="M286.119 370.871h-37.327a5 5 0 0 1-5-5v-37.327a5 5 0 0 1 5-5h37.327a5 5 0 0 1 5 5v37.327a5 5 0 0 1-5 5zm-32.327-10h27.327v-27.327h-27.327z" class="H"/></svg></g><g transform="matrix(.991079 0 0 .999839 1790 132.857143)"><svg width="381.979" height="165.741"><rect fill="#40b509" height="165.741" rx="82.87" width="381.979"/><circle cx="299.108" cy="82.87" r="49.526" class="G"/></svg></g><g transform="matrix(1.428207 0 0 1.425839 154.285714 1744.285714)"><svg width="749.191" height="299.573"><g class="L"><circle cx="363.683" cy="20.57" r="15.568"/><path d="M363.717 41.133c-6.988 0-13.81-3.556-17.664-9.97-5.841-9.721-2.685-22.382 7.037-28.223s22.382-2.684 28.223 7.037a20.43 20.43 0 0 1 2.327 15.569 20.43 20.43 0 0 1-9.364 12.654 20.447 20.447 0 0 1-10.559 2.933zm-.051-31.128a10.5 10.5 0 0 0-5.425 1.507c-4.995 3.001-6.617 9.506-3.616 14.501s9.507 6.616 14.501 3.615a10.5 10.5 0 0 0 4.811-6.502 10.5 10.5 0 0 0-1.195-7.999 10.574 10.574 0 0 0-9.076-5.123z"/><circle cx="631.945" cy="100.493" r="15.568"/><path d="M631.979 121.056c-6.988 0-13.81-3.556-17.664-9.97a20.43 20.43 0 0 1-2.327-15.569 20.43 20.43 0 0 1 9.364-12.654c9.721-5.841 22.382-2.684 28.223 7.037a20.43 20.43 0 0 1 2.327 15.569 20.43 20.43 0 0 1-9.364 12.654 20.447 20.447 0 0 1-10.559 2.933zm-.051-31.128a10.5 10.5 0 0 0-10.236 8.009 10.5 10.5 0 0 0 1.195 7.999c3.001 4.995 9.506 6.616 14.501 3.615a10.5 10.5 0 0 0 3.616-14.501c-1.98-3.295-5.486-5.122-9.076-5.122z"/><path d="M739.272 126.643c-.931 0-1.873-.26-2.713-.804-.338-.217-30.565-19.228-89.076-19.599a5 5 0 0 1 .032-10h.014c.49.001 49.508.192 91.828 5.616a5 5 0 0 1-1.271 9.919l-9.917-1.166c8.744 3.592 13.353 6.527 13.836 6.841a5 5 0 0 1-2.732 9.192z"/><path d="M744.196 108.034a4.99 4.99 0 0 1-.785-.062c-.402-.063-40.822-6.282-95.483-1.749a5 5 0 0 1-1.758-9.799c2.038-.57 50.463-13.841 96.757-4.329a5 5 0 0 1 3.705 6.574 5.002 5.002 0 0 1-2.436 9.366z"/><path d="M716.953 143.359a4.988 4.988 0 0 1-3.653-1.585c-.279-.294-18.991-19.657-67.366-35.79a5 5 0 0 1 2.365-9.682c60.574 9.606 87.34 35.151 88.45 36.234a5 5 0 1 1-6.983 7.158c-.114-.11-5.819-5.5-17.746-12.126 5.641 4.266 8.308 7.078 8.595 7.386a5 5 0 0 1-3.661 8.404z"/></g><g fill="#55a2ff"><path d="M106.262 158.871s22.451-63.267 147.892-85.622c67.503-12.029 62.204-38.804 109.529-52.68 45.246 3.312 48.206 31.389 100.011 35.837s74.502-6.857 115.089 3.151c29.46 7.264 53.163 40.935 53.163 40.935s-4.236 17.072-39.475 34.749c-29.844 14.971-57.033 22.611-84.576 59.883-26.815 36.287-46.981 59.768-46.981 59.768-95.351 37.251-178.961-25.968-240.119-25.968-77.348 0-118.425-57.266-114.533-70.054z"/><path d="M397.67 271.728c-38.248 0-73.773-11.379-106.48-21.854-25.607-8.202-49.794-15.948-70.395-15.948-53.183 0-91.684-26.388-109.982-51.083-3.639-4.911-11.833-17.219-9.335-25.426a4.96 4.96 0 0 1 .071-.216c.247-.696 6.303-17.27 28.327-36.52 19.905-17.398 57.47-40.603 123.4-52.352 37.255-6.639 51.612-17.925 65.495-28.839 10.932-8.594 22.236-17.48 43.504-23.716a5.022 5.022 0 0 1 1.772-.189c23.218 1.699 36.193 9.763 48.741 17.562 12.733 7.913 25.899 16.096 51.333 18.28 22.394 1.923 39.545.835 54.679-.125 20.22-1.283 37.682-2.391 61.179 3.403 30.92 7.624 55.042 41.475 56.055 42.912a5.003 5.003 0 0 1 .764 4.082c-.49 1.976-5.837 19.831-42.086 38.014-5.176 2.596-10.295 4.985-15.246 7.296-23.389 10.915-45.481 21.224-67.551 51.09-26.616 36.018-47.005 59.818-47.208 60.054a4.998 4.998 0 0 1-1.974 1.4c-22.485 8.784-44.182 12.177-65.063 12.177zM111.027 160.404c-.327 1.594 1.302 7.927 8.427 17.291 17.003 22.349 52.555 46.23 101.341 46.23 22.163 0 47.072 7.978 73.444 16.425 48.663 15.586 103.779 33.237 163.688 10.337 4.012-4.739 22.533-26.851 45.946-58.534 23.58-31.909 46.791-42.741 71.364-54.208l14.992-7.173c25.313-12.698 33.606-24.881 36.009-29.559-5.675-7.329-25.559-31.108-48.652-36.802-22.004-5.426-38.756-4.363-58.152-3.132-15.483.982-33.031 2.095-56.168.109-27.821-2.389-42.662-11.612-55.755-19.75-11.874-7.38-23.1-14.356-43.291-16.012-18.85 5.673-28.773 13.473-39.267 21.723-14.85 11.674-30.205 23.745-69.921 30.823-118.344 21.089-142.729 78.974-144.004 82.232z"/></g><g class="L"><path d="M379.41 137.88a258.44 258.44 0 0 1-51.254-5.128 5 5 0 1 1 1.98-9.802c33.83 6.835 68.501 6.56 103.055-.817a5 5 0 1 1 2.088 9.78c-18.63 3.977-37.303 5.967-55.869 5.967z"/><circle cx="460.914" cy="254.893" r="15.568"/><path d="M460.957 275.466a20.82 20.82 0 0 1-3.428-.285 20.43 20.43 0 0 1-16.902-23.671 20.434 20.434 0 0 1 8.335-13.354 20.436 20.436 0 0 1 15.336-3.549 20.43 20.43 0 0 1 16.902 23.672 20.434 20.434 0 0 1-8.335 13.354 20.416 20.416 0 0 1-11.908 3.834zm-.066-31.143c-2.183 0-4.306.676-6.118 1.97a10.5 10.5 0 0 0-4.283 6.861 10.502 10.502 0 0 0 8.684 12.163c2.786.465 5.583-.183 7.88-1.823a10.5 10.5 0 0 0 4.283-6.861 10.502 10.502 0 0 0-8.684-12.163 10.716 10.716 0 0 0-1.762-.147zm-15.333 8.008h.01z"/><path d="M573.785 285.84a5.18 5.18 0 0 1-.539-.029c-.971-.104-24.617-2.785-98.333-23.543a5 5 0 0 1 2.427-9.696c.52.114 52.476 11.463 94.261 16.819a5 5 0 0 1 4.015 6.799 5.004 5.004 0 0 1 3.13 5.188 4.999 4.999 0 0 1-4.962 4.462z"/><path d="M572.95 264.249a4.99 4.99 0 0 1-.785-.062c-.401-.063-40.822-6.282-95.483-1.749a5 5 0 0 1-1.758-9.799c2.038-.57 50.463-13.841 96.757-4.329a5 5 0 0 1 3.705 6.574 5.002 5.002 0 0 1-2.436 9.366z"/><path d="M545.707 299.575c-.488 0-.983-.072-1.474-.223-2.082-.642-51.219-15.973-71.669-38.539a5 5 0 0 1 5.828-7.885c30.158 14.142 84.813 34.511 85.362 34.715a5 5 0 0 1-3.488 9.373l-9.712-3.668a5.003 5.003 0 0 1-4.847 6.227zm-14.34-124.9a5 5 0 0 1-3.483-8.588l30.798-29.373a5 5 0 1 1 6.842 7.293l-30.676 29.256a4.983 4.983 0 0 1-3.482 1.412zM458.968 55.686c-35.535 0-72.905-5.397-73.278-5.451a5 5 0 0 1 1.444-9.895c.366.053 37.043 5.346 71.833 5.346a5 5 0 0 1 0 10zm1.95 204.207a4.993 4.993 0 0 1-4.074-2.095c-.289-.404-29.591-40.785-69.849-49.731-24.621-5.471-44.305-3.947-63.34-2.472-26.769 2.073-52.053 4.032-86.103-13.564-75.402-38.966-106.438-32.908-126.974-28.9l-3.395.654a5 5 0 1 1-1.844-9.828 433.43 433.43 0 0 0 3.323-.641c21.897-4.274 54.988-10.732 133.48 29.831 31.523 16.29 54.331 14.523 80.74 12.478 19.766-1.531 40.205-3.114 66.281 2.681 44.054 9.79 74.542 51.895 75.819 53.682a5.001 5.001 0 0 1-4.065 7.906zm-232.597-20.571a5.001 5.001 0 0 1-.655-9.957l55.598-7.413a5 5 0 0 1 1.322 9.912l-55.598 7.413c-.224.03-.447.044-.667.044z"/><circle cx="92.918" cy="166.889" r="15.568"/><path d="M92.952 187.452c-6.988 0-13.81-3.556-17.664-9.97-5.841-9.721-2.684-22.382 7.037-28.223a20.43 20.43 0 0 1 15.569-2.327 20.43 20.43 0 0 1 14.981 24.933 20.43 20.43 0 0 1-9.364 12.654 20.447 20.447 0 0 1-10.559 2.933zm-.053-31.135c-1.894 0-3.759.513-5.424 1.514-4.995 3.001-6.616 9.506-3.615 14.501s9.506 6.616 14.501 3.615a10.5 10.5 0 0 0 4.811-6.502c.683-2.739.258-5.58-1.196-7.999a10.499 10.499 0 0 0-6.501-4.811 10.636 10.636 0 0 0-2.575-.318z"/><path d="M32.625 262.606a5 5 0 0 1-4.961-5.672c.136-1.002 2.192-15.147 11.954-35.073-6.438 8.804-12.304 18.642-16.465 29.196a5 5 0 1 1-9.303-3.667c17.437-44.232 61-75.272 62.846-76.571a5 5 0 0 1 6.428 7.61c-39.763 40.089-45.497 79.456-45.551 79.849a5.001 5.001 0 0 1-4.948 4.329z"/><path d="M11.172 245.975a4.996 4.996 0 0 1-4.559-7.04l.764-1.583a5 5 0 0 1-6.321-7.473C30.1 192.595 75.552 171.26 77.472 170.37a5 5 0 0 1 4.513 8.917c-49.251 27.109-66.086 63.381-66.25 63.744a5.009 5.009 0 0 1-4.563 2.944z"/><path d="M40.75 263.822a5 5 0 0 1-4.874-6.137c.487-2.089 9.833-41.533 26.151-68.643 3.977-7.701 8.841-14.297 14.752-18.281a5 5 0 0 1 6.068 7.925c-4.364 3.78-8.425 9.105-12.137 15.24-8.896 17.535-13.612 43.466-14.898 54.847a5 5 0 0 1-8.147 3.3l-2.051 7.885a5.003 5.003 0 0 1-4.865 3.864z"/></g></svg></g><g transform="matrix(1.432332 0 0 1.43083 342.857143 422.857143)"><svg width="1051.233" height="1306.934"><clipPath id="A"><ellipse cx="516.178" cy="254.029" rx="17.753" ry="16.297" transform="matrix(.208731 -.977973 .977973 .208731 160 705.812)"/></clipPath><clipPath id="B"><ellipse cx="461.163" cy="235.307" rx="19.324" ry="17.618" transform="matrix(.226821 -.973936 .973936 .226821 127.386 631.077)"/></clipPath><path d="m335.132 293.926 110.41 39.69-13.393 35.295-67.13 7.525-28.84-71.396-17.855-1.967 9.485-7.864a7.502 7.502 0 0 1 7.324-1.284z" class="B"/><g class="C"><path d="M412.477 609.625c-124.462-92.988-100.842-236.233-100.842-236.233L368.624 241.6c21.053-44.825 118.017 3.711 101.519 41.082l-36.204 82.164a14.998 14.998 0 0 0-1.08 8.449s84.543 139.625-20.383 236.33z"/><path d="M530.95 154.845c17.937 25.499 24.048 47.255 5.577 87.273-17.662 38.267-1.212 50.942-20.01 75.324-24.471 31.741-61.848 25.066-92.867 5.099s-65.752-52.005-64.304-102.341c1.291-44.859 36.562-82.994 79.935-95.412 43.084-12.336 75.893 7.63 91.669 30.058z"/></g><g fill="#773a11"><path d="M476.034 51.505c-2.308 30.222-23.25 38.076-53.373 41.44s-48.845-.254-63.23-26.933c-11.759-21.81 5.237-59.979 46.586-65.435 34.38-4.537 72.516 18.202 70.017 50.929z"/><path d="M386.929 88.489c-51.001 9.897-44.484-38.483-35.84-45.415-.489 3.551-2.492 28.204 24.709 30.061 26.953 1.841 16.79 14.256 11.132 15.354z"/></g><path d="M480.337 95.417c-8.979-44.694-115.707-40.797-110.029 12.409 5.392 50.532 119.009 32.285 110.029-12.409z" class="F"/><path d="M385.861 204.346c6.66 4.11 5.309 23.887 12.092 24.708s8.975-21.763 17.683-32.391c6.37-7.774 43.911-24.989 53.179-34.465 0 0 42.067 26.599 75.876 25.875 0 0 3.242 5.891 3.044 11.277 6.384-7.483 9.574-41.573-19.304-73.448-29.513-32.576-68.987-46.055-111.173-40.36-39.812 5.374-77.771 38.334-84.472 96.892-6.34 55.399 23.879 86.311 23.879 86.311l6.967-15.812 22.23-48.587z" fill="#773a11"/><path d="M394.329 226.821c-.559-13.026-2.447-35.405-21.532-35.672s-33.802 37.87-15.325 57.06 37.377-9.257 36.857-21.389z" class="C"/><path d="M429.28 276.894c2.124.159 6.153 9.375 13.279 16.039s17.349 10.778 16.474 12.888c-1.748 4.219-18.311 4.662-27.348-5.251-9.25-10.147-6.654-23.993-2.405-23.675z" class="G"/><path d="M515.63 223.11c-6.537.333-7.702-10.91 2.54-11.846s23.199 8.948 26.247 17.474-3.166 10.329-6.462 5.798-16.562-11.72-22.325-11.426zm-30.277-11.089c6.318 3.603 12.471-6.474 4.738-11.985-8.703-6.202-31.307-8.726-40.391-2.904-7.953 5.096-4.308 10.579 1.286 8.619 9.574-3.355 29.147 3.293 34.368 6.27z" fill="#4f2000"/><g class="E"><path d="M379.597 244.144a4.999 4.999 0 0 1-4.901-6.014c3.412-16.495-4.946-26.721-8.698-27.823a5 5 0 1 1 2.82-9.594c9.182 2.698 20.046 18.297 15.671 39.444a5.002 5.002 0 0 1-4.891 3.988z"/><path d="M367.447 231.636a5 5 0 0 1-2.256-9.465c.29-.146 7.174-3.597 13.375-4.815a5 5 0 1 1 1.927 9.813c-4.038.793-9.163 3.106-10.797 3.93a4.983 4.983 0 0 1-2.248.537z"/></g><ellipse cx="516.178" cy="254.029" rx="17.753" ry="16.297" transform="matrix(.226821 -.973936 .973936 .226821 151.689 699.133)" class="G"/><g clip-path="url(#A)"><ellipse cx="516.817" cy="260.315" rx="15.483" ry="9.958" transform="matrix(.326987 -.945029 .945029 .326987 101.82 663.603)" class="F"/></g><ellipse cx="461.163" cy="235.307" rx="19.324" ry="17.618" transform="matrix(.247574 -.968869 .968869 .247574 119.008 623.857)" class="G"/><g clip-path="url(#B)"><ellipse cx="461.925" cy="241.782" rx="17.393" ry="11.187" transform="matrix(.326987 -.945029 .945029 .326987 82.39 599.255)" class="F"/></g><path d="M492.077 285.233a5 5 0 0 1-3.659-8.405c.734-.789.987-1.365 1.047-1.609-.602-.553-3.689-1.452-8.163 1.208a5 5 0 1 1-5.11-8.596c8.948-5.32 17.399-3.434 21.122 1.18 2.579 3.196 3.714 8.945-1.574 14.629a4.99 4.99 0 0 1-3.662 1.594z" class="E"/><path d="M348.467 258.308c-4.92.543-24.142-13.969-21.904-30.257 2.23-16.229-10.955-30.824.487-55.83 7.818-17.086 21.011-32.848 46.22-49.368 34.84-22.831 71.641-26.231 95.503-26.546s24.161-8.774 36.365-11.118c24.262-4.659 37.424 18.185 31.638 28.044 16.468 17.023 5.017 31.198 5.017 31.198s-11.758-4.871-18.326-16.068c0 0-3.76 12.1-31.207 11.622-45.283-.788-85.774 21.007-104.863 40.137-39.843 39.928-38.93 78.186-38.93 78.186z" fill="#ffd215"/><g fill="#ce9800"><path d="M518.203 134.09c-9.021 0-15.51-5.374-18.867-11.207-4.882-8.481-4.199-18.485 1.658-24.328a5 5 0 0 1 7.062 7.08c-2.575 2.569-2.599 7.84-.054 12.26 1.413 2.455 5.623 7.918 14.177 5.638 4.396-1.172 8.054-5.53 9.785-11.657a5 5 0 1 1 9.623 2.718c-2.699 9.559-8.992 16.513-16.833 18.603-2.31.616-4.497.894-6.551.894zm-191.634 98.96a4.998 4.998 0 0 1-4.959-5.686c.152-1.094 3.892-27.054 19.184-49.92a5 5 0 0 1 8.313 5.559c-13.977 20.899-17.557 45.492-17.592 45.738a5.003 5.003 0 0 1-4.946 4.307z"/><path d="M452.121 121.279a5 5 0 0 1-2.087-9.546c1.088-.499 26.945-12.084 53.631-.734a5 5 0 1 1-3.914 9.202c-22.663-9.639-45.323.518-45.549.622a4.976 4.976 0 0 1-2.081.456z"/></g><path d="M559.626 790.638c-3.664 7.759-9.504 25.773-9.504 25.773s93.537 38.053 166.993 92.392c145.722 107.797 275.367 77.754 275.367 77.754s5.242-11.402 9.493-25.744c9.289-31.342.348-66.452-47.509-94.003-80.768-46.498-143.314-23.715-231.797-84.511-96.324-54.208-141.776-36.695-163.042 8.34z" class="J"/><path d="M944.961 892.582c-80.769-46.498-131.724-10.29-220.208-71.087-81.856-56.243-162.558-50.714-175.074-3.011-5.123 19.525-4.139 25.016-16.922 44.883-21.742 33.79-24.802 67.81 8.116 55.573 28.677-10.66 83.016-8.121 125.409 33.212 42.625 41.56-4.922 72.604 16.717 71.055 33.415-2.391 57.6-5.723 105.785-2.417 72.919 5.004 170.84 26.266 201.335-29.097 16.919-30.716 5.426-69.991-45.158-99.111z" fill="#ff5cf0"/><path d="M788.777 1025.791a5 5 0 0 1-.636-9.959c.343-.045 32.729-4.721 31.393-20.59-1.593-18.926-33.857-30.526-63.16-33.294-26.799-2.532-55.375-2.484-84.937.142a5 5 0 0 1-.885-9.961c30.167-2.68 59.359-2.726 86.762-.137 31.906 3.015 69.956 15.931 72.185 42.411 2.156 25.617-38.353 31.124-40.078 31.346a5.018 5.018 0 0 1-.644.041z" fill="#cc2bc5"/><g class="M"><path d="M897.387 744.364c-29.606-49.874-76.366-66.464-118.913-65.465-70.4 1.654-294.162 43.922-411.999 64.338-47.891 8.297-82.884 50.501-81.117 99.073 4.163 114.381 103.332 223.138 256.94 212.733 90.78-6.149 253.111-82 299.964-107.362 69.983-37.883 90.275-144.102 55.124-203.316z"/><path d="M522.047 1060.734c-30.065 0-58.777-4.583-85.609-13.685-30.731-10.424-58.266-26.48-81.839-47.721-45.028-40.572-72.086-97.737-74.237-156.837-1.844-50.652 34.81-95.44 85.26-104.181l74.133-13.09c118.49-21.085 280.768-49.961 338.602-51.32 30.58-.718 87.26 7.15 123.33 67.911 18.729 31.55 22.851 75.947 11.027 118.76-11.446 41.442-35.62 73.94-68.07 91.505-36.658 19.844-205.621 101.425-302.006 107.954-6.926.469-13.795.703-20.589.703zM781.94 683.859l-3.349.039c-57.07 1.34-218.912 30.139-337.085 51.168l-74.177 13.098c-45.544 7.891-78.636 48.287-76.973 93.964 2.053 56.411 27.909 111.001 70.938 149.772 42.466 38.264 99.158 58.813 161.257 58.815a287.09 287.09 0 0 0 19.411-.661c94.601-6.408 261.643-87.133 297.922-106.771 30.035-16.258 52.477-46.578 63.192-85.373 10.948-39.643 7.122-82.173-9.987-110.994-32.195-54.234-82.118-63.058-111.147-63.058z"/></g><g class="C"><path d="M815.657 567.966c6.548-9.606 80.609-121.44 109.529-149.004 0 0-25.476-19.266-38.904-64.647-14.138-47.782-51.718-52.056-51.718-52.056-13.533 34.047-14.738 47.02-17.782 77.158-.791 7.835-101.29 117.429-101.29 117.429l100.164 71.121z"/><path d="M836.378 389.721c-10.038-19.459 20.568-57.099 42.969-73.913 44.542-33.432 114.873 52.928 90.896 72.835-32.577 27.048-51.71 46.066-68.964 44.96-30.498-1.955-54.863-24.423-64.901-43.882z"/></g><path d="M902.304 438.57c-14.925 0-29.987-7.686-30.822-8.119a5 5 0 1 1 4.597-8.881c6.324 3.261 25.108 10.516 35.956 5.013a5 5 0 0 1 4.524 8.918c-4.388 2.226-9.314 3.068-14.254 3.068z" class="E"/><g class="C"><path d="M962.752 394.834a30.928 30.928 0 0 1 11.304-6.048l61.532-17.613c18.865-5.168 11.105-32.031-4.814-27.976l-79.178 20.168 3.168 38.197 7.988-6.727z"/><path d="m943.534 375.317 99.22-35.503c16.692-5.973 6.17-33.88-9.422-28.524l-105.596 36.274z"/></g><path d="M962.216 365.477a5 5 0 0 1-1.239-9.844l74.873-19.204a5 5 0 0 1 2.484 9.686l-74.873 19.204a5.002 5.002 0 0 1-1.246.158z" class="E"/><g class="C"><path d="M980.717 250.526a6267.712 6267.712 0 0 0-40.79 18.676 86.289 86.289 0 0 0-19.013 12.013l-41.567 34.593 45.998 7.033 25.014-21.465c.37-.337 0 0 43.435-23.349 17.68-9.504 8.137-37.111-13.077-27.501z"/><path d="m928.1 317.124 35.982-23.448c23.365-15.226 40.911 9.777 23.351 22.78l-39.91 29.553-19.422-28.885z"/><path d="m987.432 316.456 34.639-25.65c17.936-13.281-.252-35.847-17.001-24.616l-40.989 27.486s-12.276 9.602-3.38 21.973 24.308 2.601 26.731.807z"/></g><path d="M929.493 324.283a5 5 0 0 1-3.255-8.797l21.081-18.063c.175-.15.361-.288.555-.413l47.591-30.505a5 5 0 0 1 5.397 8.419l-47.3 30.318-20.818 17.837a4.98 4.98 0 0 1-3.251 1.203z" class="E"/><path d="M835.304 371.386c-7.93-11.455-7.565-50.707-.739-69.127 4.619-12.463 11.052-33.383 14.868-47.312 5.56-20.293 38.59-16.577 34.205 9.223l-7.953 46.787s2.286 2.006 5.609 7.971c6.472 11.618 9.974 28.054 7.022 41.548-7.032 32.141-40.503 28.98-53.013 10.91z" class="C"/><path d="M888.319 365.477a5 5 0 0 1-4.824-6.329c3.129-11.362-.857-32.598-11.58-44.907a5 5 0 1 1 7.54-6.568c11.978 13.749 18.115 38.032 13.681 54.131a5.003 5.003 0 0 1-4.818 3.674z" class="E"/><g class="B"><path d="M525.147 385.996c45.136 28.889 78.865 88.008 134.063 138.235 52.028 47.342 54.778 72.77 54.778 89.325 0 32.247-30.482 126.866-117.993 77.072-37.249-21.195-104.344-96.211-113.512-114.735-20.432-41.287 8.837-211.548 42.664-189.897z"/><path d="M661.586 530.803c12.406-9.36 23.084-17.281 29.539-26.697 21.292-31.057 32.794-46.595 60.015-63.953 23.85-15.208 112.38 60.999 104.349 92.082-9.648 37.339-45.484 52.316-65.789 96.959-9.743 21.422-31.228 52.698-51.279 67.146-41.629 29.994-109.956 32.931-155.713-8.357-3.725-3.361-38.775-68.41 78.878-157.179z"/></g><path d="M789.06 629.214a5 5 0 0 1-4.582-6.998c5.363-12.309 12.296-48.811 12.365-49.178a5 5 0 0 1 9.827 1.856c-.292 1.545-7.214 37.98-13.024 51.316a5.001 5.001 0 0 1-4.586 3.004zm-154.654-57.639a5.003 5.003 0 0 1-4.708-6.683c.38-1.064 9.532-26.26 27.906-42.788a5 5 0 0 1 6.687 7.434c-16.459 14.806-25.094 38.486-25.179 38.723a5.004 5.004 0 0 1-4.707 3.313z" class="D"/><path d="M812.959 403.983c-5.572-9.522-17.334-16.376-28.42-7.208s-34.604 36.206-33.398 43.378c4.796 28.53 61.785 84.546 106.213 89.58 11.387 1.29 37.908-49.797 38.325-58.601.342-7.211-7.134-9.481-13.078-10.823-22.734-5.133-52.557-27.13-69.643-56.325z" class="B"/><path d="M859.085 534.635c-.055 0-.109 0-.165-.003-20.247-.655-47.448-14.551-72.763-37.173-18.013-16.097-39.287-41.125-39.959-58.684a5 5 0 0 1 9.993-.383c.44 11.508 15.503 32.731 36.629 51.61 23.618 21.106 48.449 34.053 66.423 34.634a5 5 0 0 1-.158 9.998z" class="D"/><path d="m288.015 328.2-49.205 15.568c-61.639 19.502-134.953 55.318-158.648 197.104-8.859 53.011-15.919 97.983-40.661 155.499-7.559 17.573-4.03 20.585 22.089 38.423 48.137 32.875 173.179 45.797 293.272 5.157 29.651-10.034 87.969 20.687 125.555-3.16 36.098-22.903-29.438-51.418-9.953-67.938 31.969-27.104 46.99-84.189 39.958-150.508-4.287-40.431 14.725-132.348 14.725-132.348s-18.282-12.41-54.584-21.885l-8.34 50.039-46.428 139.825-52.086-121.055a15 15 0 0 1-1.202-6.684l2.345-46.495a14.994 14.994 0 0 0-1.073-6.374l-6.011-14.88-69.754-30.288z" class="B"/><path d="M505.512 611.608a5 5 0 0 1-4.811-6.373c9.762-34.2 5.669-77.928 4.75-86.347a4.999 4.999 0 1 1 9.94-1.085c.955 8.744 5.199 54.185-5.075 90.177a5.002 5.002 0 0 1-4.805 3.629z" class="D"/><path d="M618.989 679.101c-43.797-33.02-94.2-38.709-163.429-18.446l-322.603 94.424c-42.318 12.386-66.239-21.648-67.23-23.094a5 5 0 0 0-8.627.61c-.378.772-9.332 19.087-15.189 33.375-14.677 35.799-19.012 74.966-12.536 113.269 6.253 36.982 22.333 72.254 46.501 102.001 25.944 31.932 60.337 56.376 99.463 70.688 27.215 9.955 55.962 14.944 85.924 14.944 17.326 0 35.061-1.669 53.131-5.011 92.158-17.044 256.601-120.417 296.234-150.92 38.271-29.454 60.083-73.923 59.844-122.005-.222-44.636-19.468-85.696-51.484-109.834z" class="M"/><g fill="#005141"><path d="M690.634 808.599a5.001 5.001 0 0 1-4.894-4.002c-.13-.633-13.482-64-55.489-108.675a5 5 0 1 1 7.286-6.851c44.001 46.795 57.451 110.825 58.002 113.528a5 5 0 0 1-4.904 6zm-536.318 75.625c-.367 0-.729-.003-1.095-.008-22.971-.333-40.542-8.213-52.227-23.421-27.63-35.963-12.009-99.826-11.33-102.527a5 5 0 1 1 9.699 2.437c-.185.74-15.09 61.939 9.575 94.015 9.728 12.651 24.676 19.211 44.428 19.498 36.672.525 74.303-30.239 117.846-65.869 27.043-22.128 55.006-45.009 86.543-63.71a5 5 0 0 1 5.101 8.602c-30.889 18.316-58.556 40.954-85.311 62.848-44.65 36.536-83.272 68.134-123.229 68.137z"/><path d="M102.349 859.042a4.999 4.999 0 0 1-4.41-2.637c-7.646-14.251-9.056-28.925-4.19-43.614 13.146-39.692 67.688-65.667 70.004-66.753a4.999 4.999 0 1 1 4.249 9.052c-.529.249-52.99 25.262-64.767 60.865-3.961 11.974-2.778 23.993 3.516 35.723a5.001 5.001 0 0 1-4.401 7.365z"/></g><g class="F"><path d="M725.006 1160.497s-7.356-135.162-121.179-177.211c-87.29-32.247-156.485-33.603-189.844 17.759-17.931 65.884 35.95 115.913 71.419 134.025 169.853 86.734 239.603 25.427 239.603 25.427z"/><path d="M647.599 1186.493c-37.085 0-91.582-9.75-164.47-46.97-34.016-17.37-93.252-68.94-73.969-139.791.136-.5.349-.976.631-1.411 16.865-25.967 43.302-40.266 78.575-42.5 31.466-1.991 70.896 5.67 117.194 22.774 47.885 17.69 84.596 54.746 106.164 107.161 16.203 39.378 18.198 73.053 18.275 74.468a4.999 4.999 0 0 1-1.692 4.027c-.76.668-19.068 16.411-58.832 21.023-6.463.75-13.753 1.218-21.876 1.218zm-228.994-183.378c-16.963 64.265 37.68 111.473 69.071 127.502 86.027 43.929 145.185 48.628 179.661 44.836 30.085-3.309 47.053-13.491 52.464-17.283-.804-8.565-4.326-37.137-17.447-68.9-20.782-50.314-54.515-84.394-100.261-101.294-44.981-16.617-83.03-24.078-113.097-22.174-32.092 2.032-55.128 14.241-70.392 37.313z"/></g><path d="m689.344 1061.667-111.081 93.964c-32.777 27.726-78.846 33.449-117.411 14.585-71.916-35.178-82.039-133.569-18.794-182.654l114.939-89.204c30.554-23.713 71.662-28.734 107.025-13.071 70.953 31.426 84.567 126.261 25.321 176.379z" class="C"/><g class="M"><path d="M933.965 782.307c7.226 40.401 6.343 108.908-56.581 177.415-7.051 35.781-55.831 97.145-92.093 137.578-38.831 43.297-54.266 58.059-60.285 63.198 0 0 2.847-47.653-51.451-93.972-86.824-74.065-212.506-96.402-259.572-65.48 26.875-51.118 115.62-128.678 266.035-192.771 81.476-34.718 78.268-57.217 98.456-129.375 57.199-3.628 140.179 17.797 155.491 103.408z"/><path d="M725.005 1165.497a5.001 5.001 0 0 1-4.99-5.298c.023-.438 1.827-45.911-49.704-89.87-39.761-33.918-90.391-59.147-142.562-71.039-47.412-10.807-88.914-8.589-111.02 5.934a5 5 0 0 1-7.171-6.505c14.735-28.028 46.018-61.116 88.085-93.17 48.691-37.101 111.078-72.329 180.416-101.874 70.081-29.862 75.373-49.925 89.515-103.543l6.085-22.579a5.001 5.001 0 0 1 4.499-3.643c34.11-2.164 69.132 4.689 96.089 18.8 35.204 18.428 57.556 49.106 64.641 88.718 4.804 26.861 4.119 53.84-2.037 80.186-8.384 35.878-26.836 69.675-54.852 100.473-9.225 41.737-67.95 110.639-92.985 138.552-37.294 41.583-53.627 57.572-60.761 63.662a4.997 4.997 0 0 1-3.247 1.197zm-252.51-182.91c17.567 0 37.049 2.297 57.476 6.953 53.717 12.244 105.862 38.234 146.829 73.181 40.384 34.449 50.23 69.557 52.55 86.948 8.795-8.549 24.519-24.823 52.219-55.709 19.322-21.543 82.98-94.962 90.91-135.206a5.008 5.008 0 0 1 1.223-2.416c59.71-65.008 63.052-130.042 55.342-173.152-13.929-77.879-86.903-102.188-146.713-99.49l-5.088 18.984c-14.627 55.458-20.682 78.412-95.264 110.193-140.603 59.912-222.503 129.275-254.943 176.372 12.65-4.42 28.12-6.659 45.458-6.659z"/></g><g fill="#005141"><path d="M881.156 966.604a5 5 0 0 1-4.877-6.123c7.025-30.52 3.572-70.062 3.537-70.457a5 5 0 0 1 9.96-.9c.152 1.68 3.637 41.501-3.751 73.601a5.001 5.001 0 0 1-4.868 3.88zM711.317 798.279a5 5 0 0 1-2.431-9.373c16.654-9.241 9.729-34.618 9.656-34.874a5.004 5.004 0 0 1 3.446-6.171 4.996 4.996 0 0 1 6.171 3.43c.386 1.352 9.195 33.254-14.422 46.358a4.981 4.981 0 0 1-2.421.629z"/><path d="M413.979 1006.047a5 5 0 0 1-4.422-7.327c14.735-28.028 46.018-61.116 88.085-93.17 48.691-37.101 111.078-72.329 180.416-101.874 52.629-22.426 67.305-38.87 77.247-63.177a5 5 0 1 1 9.256 3.786c-12.37 30.244-33.209 47.552-82.583 68.59-155.441 66.235-239.132 144.017-263.57 190.498a5 5 0 0 1-4.43 2.674z"/></g><path d="M438.149 1006.487c1.63-11.006.231-17.997-11.098-15.365-10.022 2.328-22.622 16.074-29.364 20.676-15.954 10.89-29.058 11.763-69.328 29.903-41.18 18.55-71.101 51.402-71.101 51.402 136.228 72.037 283.367 146.237 462.695 184.515 0 0 9.068-15.221 26.574-42.002 21.247-32.505-7.039-91.928-50.96-110.578-21.072-8.948-25.733-27.337-20.011-51.707 7.349-31.295-10.756-45.195-46.792-35.826-31.806 8.269-108.545 28.988-157.573 18.2-49.328-10.854-34.5-39.38-33.043-49.218z" fill="#ff5cf0"/><path d="M746.527 1235.616c7.294-19.696-4.149-120.322-177.993-115.27-80.351 2.335-129.496-22.518-156.799-35.036-77.467-35.518-110.896-26.711-122.779-20.074-19.508 14.497-31.698 27.868-31.698 27.868 136.228 72.037 283.367 146.237 462.695 184.515l26.574-42.002z" class="J"/><path d="M250.664 1103.753c-35.627 74.334 102.371 102.576 193.868 146.307 163.541 78.163 248.303 63.923 275.421 27.559 29.206-39.166 18.993-90.002-50.363-113.859-88.129-30.315-134.578 4.373-232.996-38.515-96.117-43.734-163.551-68.183-185.929-21.491z" fill="#b7b7b7"/><path d="M682.864 1121.338a4.982 4.982 0 0 1-2.095-.463c-34.182-15.806-85.837-39.693-80.829-76.036a5 5 0 0 1 9.907 1.365c-3.689 26.769 35.087 47.082 75.12 65.594a5 5 0 0 1-2.102 9.54z" fill="#cc2bc5"/><g class="C"><path d="M387.527 815.027c50.392 47.465 157.466 86.583 198.169 102.158 29.455 11.271 52.163-85.075 52.163-85.075s-103.077-87.499-150.807-103.115c-52.139-17.059-135.909 51.76-99.525 86.032z"/><use href="#D"/><use href="#E"/><path d="M727.826 854.274c13.214.061 66.971 12.744 71.384 18.224s4.995 42.006 6.217 48.872c2.215 12.437-23.699 20.118-28.54 1.628-4.426-16.903-1.728-24.081-1.728-24.081l-54.228-13.405z"/><path d="M717.305 876.404s51.749 7.749 56.879 12.721 4.241 28.596 6.075 34.607c4.296 14.08-20.975 34.95-26.087 18.328-4.873-15.842.159-28.717.159-28.717l-42.241-8.02 5.214-28.919z"/><path d="M701.865 899.716c12.861-.629 49.762 3.259 53.793 10.639 3.928 7.192 5.859 40.215-21.797 40.325-16.183.064-33.06 6.573-37.075-12.797-2.579-12.441 35.722-10.827 35.722-10.827l-35.043-1.681 4.399-25.658z"/></g><path d="M724.806 934.66c-.091 0-.183-.002-.275-.007l-23.828-1.292a5 5 0 0 1 .541-9.985l23.828 1.292a5 5 0 0 1-.266 9.992zm84.589-6.976a5 5 0 0 1-4.999-5.001c.002-15.559-5.769-42.625-8.587-46.51-5.894-4.517-55.331-15.5-68.52-16.929a5 5 0 0 1 1.076-9.941c7.369.798 65.228 11.678 74.128 19.423 6.755 5.878 11.905 41.317 11.903 53.959a5 5 0 0 1-5 4.999zm-13.467-51.414h.01zm-12.403 60.027a5 5 0 0 1-4.993-4.804c-.53-13.484-5.712-35.362-8.179-39.133-3.354-2.46-19.674-5.895-48.521-10.212a629.983 629.983 0 0 1-5.313-.808 5 5 0 0 1 1.572-9.876l5.221.793c37.304 5.582 51.136 9.063 54.819 13.795 4.837 6.217 9.9 32.473 10.394 45.046a5 5 0 0 1-5 5.197zm-26.222 10.243a5 5 0 0 1-4.994-5.328c.708-10.783.514-24.361-.993-28.308-5.166-4.014-39.126-8.166-49.462-8.188a5.001 5.001 0 0 1 .01-10h.011c4.204.009 17.299 1.104 29.074 2.869 22.808 3.417 27.516 7.107 29.205 10.586 3.647 7.509 2.417 29.388 2.133 33.698a5.001 5.001 0 0 1-4.984 4.672z" class="E"/><path d="M524.577 752.846a4.976 4.976 0 0 1-2.652-.765c-8.293-5.202-31.287-16.984-36.135-18.248a5.001 5.001 0 0 1 2.523-9.677c7.102 1.852 31.815 14.993 38.925 19.453a5 5 0 0 1-2.661 9.237z" class="C"/><path d="M303.595 677.495c-24.811 30.505-7.351 96.19 4.127 104.572 43.132 50.548 105.51 92.121 153.82 93.296 0 0 28.325 30.568 69.3 31.409 20.156.414 71.882-78.05 73.864-95.044 2.283-19.576-18.978-67.376-77.185-68.444 0 0-45.194-39.744-81.039-68.012-9.707-7.655-16.516-14.844-23.193-19.637-30.737-22.062-91.782-12.459-119.695 21.86z" class="B"/><path d="M478.907 750.361a5.002 5.002 0 0 1-1.143-9.868c19.402-4.575 48.909-2.294 50.156-2.195a5 5 0 0 1-.793 9.969c-.29-.023-29.201-2.254-47.067 1.959a5.017 5.017 0 0 1-1.152.135zm-17.36 130.002a4.997 4.997 0 0 1-4.137-2.185c-1.363-2-13.383-19.801-15.758-28.707a5 5 0 0 1 9.662-2.577c1.645 6.167 10.924 20.609 14.361 25.654a5 5 0 0 1-4.128 7.815z" class="D"/><use href="#F" class="B"/><path d="m526.824 909.558-.122-.001a5 5 0 0 1-4.879-5.119c.571-23.788 8.889-53.227 22.821-80.768 13.505-26.697 29.901-46.642 43.858-53.352a5 5 0 1 1 4.333 9.013c-24.541 11.798-59.859 77.16-61.015 125.347a5 5 0 0 1-4.996 4.88z" class="D"/><path d="M130.898 485.402c-10.867 57.948 57.756 141.732 73.176 169.853 26.636 48.576 59.49 46.147 71.855 74.276 5.272 11.993 29.263 77.384 85.314 82.906 26.284 2.589 64.507-8.699 84.684-39.869 23.409-36.164 9.481-75.219 5.004-83.133-6.518-11.522-15.055-21.04-24.106-30.09-13.725-13.722-113.401-158.233-123.23-179.782-17.958-39.369-48.712-55.5-79.391-56.595-43.407-1.548-86.663 27.007-93.306 62.432z" class="B"/><path d="M435.731 671.157a4.964 4.964 0 0 1-3.15-1.124c-.154-.125-1.752-1.452-10.44-9.308-13.216-11.951-96.791-136.689-106.277-150.873a5 5 0 1 1 8.313-5.559c25.587 38.258 94.27 139.609 104.672 149.015l10.072 8.992a5.009 5.009 0 0 1 .676 7.031 4.994 4.994 0 0 1-3.865 1.827zm-159.799 63.376a5.001 5.001 0 0 1-4.58-2.989c-4.929-11.214-13.61-17.073-24.599-24.49-14.13-9.537-31.716-21.406-47.063-49.394-3.067-5.593-8.543-13.813-14.883-23.33-25.369-38.081-67.83-101.816-58.823-149.849a5 5 0 0 1 9.829 1.843c-8.257 44.033 32.791 105.647 57.316 142.461 6.469 9.71 12.055 18.096 15.33 24.067 14.181 25.863 29.964 36.515 43.888 45.913 11.348 7.659 22.067 14.894 28.16 28.755a5 5 0 0 1-4.574 7.013z" class="D"/><path d="M28.65 874.645S.862 846.514.028 808.985c-.715-32.194 12.38-44.29 39.474-112.615 22.836-57.586 166.796 7.256 151.58 40.034-5.733 12.351-38.363 51.707-99.173 36.831-45.013-11.011-66.063 3.124-63.258 101.409z" class="B"/><path d="M21.707 803.138a4.968 4.968 0 0 1-1.994-.418 4.994 4.994 0 0 1-2.59-6.564c.553-1.276 13.908-31.244 46.011-31.244a5 5 0 0 1 0 10c-25.454 0-36.388 24.202-36.841 25.232a5.012 5.012 0 0 1-4.586 2.994zm151.925-58.107c-8.989 0-20.822-2.08-35.145-9.118a5 5 0 0 1 4.411-8.975c13.675 6.719 24.449 8.336 32.091 8.129-24.05-13.865-29.419-38.957-29.671-40.202a5 5 0 0 1 9.799-1.995c.266 1.272 6.635 30.116 37.317 38.721a4.999 4.999 0 0 1 1.218 9.104c-.487.292-7.486 4.337-20.019 4.337z" class="D"/><path d="m288.015 328.2 26.081 89.81 36.635-29.909 13.049-14.734-27.601-68.327-12.997-5.995z" class="B"/><path d="M314.096 423.01a5 5 0 0 1-4.801-3.606l-26.082-89.811a5 5 0 1 1 9.603-2.789l23.973 82.551 30.779-25.129a5 5 0 1 1 6.324 7.746l-36.634 29.909a5.004 5.004 0 0 1-3.163 1.127z" class="D"/><path d="m445.542 333.616-12.148 32.013a14.993 14.993 0 0 0-.905 6.774l4.777 49.1a30.023 30.023 0 0 1-.284 7.937l-21.187 124.535 46.428-139.825 30.394 29.282-22.054-79.32z" class="B"/><path d="M410.77 574.414a5 5 0 0 1-4.747-6.574l51.455-155.262a4.998 4.998 0 0 1 8.215-2.027l17.2 16.57-17.146-61.669a5.001 5.001 0 0 1 9.634-2.679l22.054 79.32a4.999 4.999 0 0 1-8.286 4.94l-24.676-23.773-48.957 147.726a5.002 5.002 0 0 1-4.745 3.428z" class="D"/><path d="M445.544 338.617c-.476 0-.959-.068-1.438-.212-28.785-8.631-55.878-32.148-58.873-34.801a5 5 0 0 1 6.631-7.485c10.254 9.085 33.401 26.197 55.114 32.707a5 5 0 0 1-1.434 9.79z" class="E"/></svg></g><g transform="matrix(-.991079 0 0 .999839 1852.857143 354.285714)"><svg width="381.979" height="165.741"><rect fill="#b6b7b5" height="165.741" rx="82.87" width="381.979"/><circle cx="299.108" cy="82.87" r="49.526" class="G"/></svg></g><g transform="matrix(1.42759 0 0 1.42557 1330 1594.285714)"><svg width="534.367" height="427.899"><path d="m147.207 368.842 190.016-139.121a40 40 0 0 1 30.665-7.593l164.588 23.724 1.749 10.505c.514 3.09-.347 6.438-2.986 8.937L371.037 416.947a40 40 0 0 1-36.181 9.998L156.61 387.312c-4.444-.988-7.098-4.528-7.733-8.37z" class="N"/><path d="m151.067 359.47 184.484-139.861a40 40 0 0 1 30.665-7.593l158.101 26.037c8.159 1.344 11.254 11.445 5.25 17.129L369.365 406.835a40 40 0 0 1-36.181 9.998L154.938 377.2c-8.316-1.849-10.659-12.584-3.871-17.73z" class="K"/><path d="M378.326 343.288 287.323 69.004l-70.309 39.107 125.972 227.317z" fill="#7c7c7c"/><g class="J"><ellipse cx="420.836" cy="282.398" rx="10.667" ry="23.714" transform="matrix(.612452 -.790508 .790508 .612452 -60.145 442.113)"/><path d="m439.29 297.257-60.822 57.545-.142-11.514 45.077-55.522z"/><path d="M438.506 286.328 310.826 55.932l-70.129 39.007 137.629 248.349z"/></g><g fill="#374047"><ellipse cx="360.656" cy="339.358" rx="10.667" ry="23.714" transform="matrix(.612452 -.790508 .790508 .612452 -128.494 416.615)"/><path d="M199.843 77.084 0 178.441l5.516 15.648a4.6 4.6 0 0 0 5.433 2.939l275.87-67.532a55.22 55.22 0 0 0 12.877-4.924L487.292 21.464a4.601 4.601 0 0 0 2.171-5.588L483.866 0z"/></g></svg></g><g transform="matrix(1.427686 0 0 1.428243 1812.857143 424.285714)"><svg width="108.067" height="139.032"><g class="F"><path d="M5 7.941V131.09c0 2.518 2.962 3.868 4.862 2.215l39.173-34.071 51.473-6.736c2.497-.327 3.451-3.439 1.565-5.109L9.882 5.744C7.988 4.066 5 5.411 5 7.942z"/><path d="M7.961 139.041a7.993 7.993 0 0 1-3.315-.728A7.85 7.85 0 0 1 0 131.091V7.941C0 4.777 1.793 2.004 4.679.705s6.15-.802 8.518 1.296l92.192 81.647a7.85 7.85 0 0 1 2.326 8.266c-.922 3.011-3.435 5.135-6.557 5.543l-49.979 6.54-38.036 33.081c-1.486 1.293-3.317 1.962-5.182 1.962zM10 12.527v114.032l35.754-31.097a5.007 5.007 0 0 1 2.632-1.185l46.981-6.148z"/></g></svg></g><g transform="matrix(1.427914 0 0 1.427387 1275.714286 1170)"><svg width="632.291" height="487.404"><path d="M217.352 356.912.175 467.06l5.995 17.005a5 5 0 0 0 5.904 3.194l299.798-73.389a60.018 60.018 0 0 0 13.994-5.351l204.798-109.411a5 5 0 0 0 2.36-6.072l-6.082-17.253-309.59 81.13z" class="N"/><path d="m524.104 274.247-299.811 70.519a59.975 59.975 0 0 0-15.011 5.742L1.275 464.057c-2.493 1.361-1.018 5.161 1.74 4.485l302.039-74.043a59.946 59.946 0 0 0 13.974-5.347l206.774-110.405c2.505-1.338 1.066-5.151-1.698-4.501z" fill="#b7b7b7"/><path d="m313.867 333.428-158.441 84.597c-2.517 1.344-1.051 5.175 1.72 4.496l146.002-35.792a51.997 51.997 0 0 0 12.111-4.634l152.673-81.517c2.505-1.337 1.066-5.151-1.698-4.501l-141.717 33.334a44.007 44.007 0 0 0-10.65 4.017z" class="F"/><path d="m410.499 95.482-93.742 292.584c-3.563 11.12 8.203 20.934 18.503 15.434l194.609-103.968a39.999 39.999 0 0 0 19.278-23.161l82.509-259.404c3.295-10.359-6.822-19.946-16.989-16.099L434.436 70.276a39.998 39.998 0 0 0-23.937 25.207z" class="N"/></svg></g><g transform="matrix(1.424788 0 0 1.432829 2261.428571 981.428571)"><svg width="407.078" height="104.688"><g class="L"><rect height="94.688" rx="7.437" width="397.078" x="5" y="5"/><path d="M394.641 104.688H12.437C5.579 104.688 0 99.109 0 92.251V12.437C0 5.579 5.579 0 12.437 0h382.204c6.858 0 12.437 5.579 12.437 12.437v79.814c0 6.858-5.579 12.437-12.437 12.437zM12.437 10A2.44 2.44 0 0 0 10 12.437v79.814a2.44 2.44 0 0 0 2.437 2.437h382.204a2.44 2.44 0 0 0 2.437-2.437V12.437A2.44 2.44 0 0 0 394.641 10z"/></g><g class="G"><path d="M360.822 77.698h-40.708a5 5 0 0 1-5-5V31.99a5 5 0 0 1 5-5h40.708a5 5 0 0 1 5 5v40.708a5 5 0 0 1-5 5zm-35.708-10h30.708V36.99h-30.708zM40.661 28.578 55.376 76.11l9.651-23.167 23.167-9.65z"/><path d="M55.377 81.11a4.998 4.998 0 0 1-4.778-3.522L35.884 30.056a4.999 4.999 0 0 1 6.255-6.255l47.532 14.715a5 5 0 0 1 .444 9.392l-21.266 8.859-8.859 21.266a5 5 0 0 1-4.614 3.077zm-7.135-44.951 7.827 25.284 4.342-10.422a4.997 4.997 0 0 1 2.693-2.693l10.422-4.342zm200.212 43.855c-15.257 0-27.669-12.413-27.669-27.67s12.413-27.67 27.669-27.67 27.669 12.412 27.669 27.67-12.413 27.67-27.669 27.67zm0-45.339c-9.743 0-17.669 7.927-17.669 17.67s7.926 17.67 17.669 17.67 17.669-7.927 17.669-17.67-7.926-17.67-17.669-17.67zM136.087 77.698a5.001 5.001 0 0 1-3.536-8.535l40.708-40.708a5 5 0 1 1 7.071 7.071l-40.708 40.708a4.985 4.985 0 0 1-3.536 1.464z"/></g></svg></g><g transform="matrix(1.427784 0 0 1.426216 525.714286 1031.428571)"><svg width="747.412" height="528.872"><g class="C"><path d="M262.789 392.117c50.392 47.465 157.466 86.583 198.169 102.158 29.455 11.271 52.163-85.075 52.163-85.075s-103.077-87.499-150.807-103.115c-52.139-17.059-135.909 51.76-99.525 86.032Z"/><use href="#D" x="-124.738" y="-422.909"/><use href="#E" x="-124.738" y="-422.91"/><path d="M603.088 431.364c13.214.061 66.971 12.744 71.384 18.224s4.995 42.006 6.217 48.872c2.215 12.437-23.699 20.118-28.54 1.628-4.426-16.903-1.728-24.081-1.728-24.081l-54.228-13.405 6.895-31.238z"/><path d="M592.567 453.494s51.749 7.749 56.879 12.721 4.241 28.596 6.075 34.607c4.296 14.08-20.975 34.95-26.087 18.328-4.873-15.842.159-28.717.159-28.717l-42.241-8.02 5.214-28.919Z"/><path d="M577.127 476.806c12.861-.629 49.762 3.259 53.793 10.639 3.928 7.192 5.859 40.215-21.797 40.325-16.183.064-33.06 6.573-37.075-12.797-2.579-12.441 35.722-10.827 35.722-10.827l-35.043-1.681 4.399-25.658Z"/></g><path d="M600.068 511.75a5.01 5.01 0 0 1-.274-.007l-23.828-1.292a5 5 0 0 1-4.722-5.263 4.993 4.993 0 0 1 5.263-4.722l23.828 1.292a5 5 0 0 1-.266 9.992zm84.59-6.976a5 5 0 0 1-4.999-5.001c.002-15.56-5.77-42.625-8.587-46.51-5.895-4.517-55.331-15.5-68.521-16.929a5 5 0 1 1 1.076-9.941c7.369.798 65.229 11.678 74.129 19.423 6.754 5.877 11.904 41.316 11.902 53.959a5 5 0 0 1-5 4.999zm-13.467-51.414h.01-.01zm-12.404 60.028a4.999 4.999 0 0 1-4.992-4.804c-.529-13.483-5.712-35.361-8.179-39.133-3.355-2.46-19.675-5.895-48.522-10.212a689.602 689.602 0 0 1-5.313-.807 4.999 4.999 0 0 1-4.151-5.724 4.994 4.994 0 0 1 5.724-4.152l5.22.793c37.305 5.582 51.138 9.063 54.82 13.795 4.838 6.219 9.899 32.474 10.394 45.046a5 5 0 0 1-5 5.196zm-13.043-43.838zm-13.178 54.08a5 5 0 0 1-4.994-5.328c.707-10.783.514-24.361-.994-28.308-5.165-4.014-39.125-8.166-49.461-8.188a5 5 0 0 1 .011-10h.011c4.204.009 17.299 1.104 29.073 2.869 22.809 3.417 27.516 7.107 29.206 10.586 3.646 7.509 2.416 29.388 2.133 33.697a5 5 0 0 1-4.984 4.672zm-5.784-33.463z" class="E"/><path d="M399.839 329.936a4.972 4.972 0 0 1-2.651-.765c-8.295-5.202-31.289-16.984-36.136-18.248a5 5 0 0 1-3.576-6.1 4.996 4.996 0 0 1 6.1-3.577c7.101 1.851 31.814 14.993 38.925 19.452a5 5 0 0 1-2.661 9.237Z" class="C"/><path d="M178.858 254.585c-24.811 30.505-7.351 96.19 4.127 104.572 43.132 50.548 105.51 92.121 153.82 93.296 0 0 28.325 30.568 69.3 31.409 20.156.414 71.882-78.05 73.864-95.044 2.283-19.576-18.978-67.376-77.185-68.444 0 0-45.194-39.744-81.039-68.012-9.707-7.655-16.516-14.844-23.193-19.637-30.737-22.062-91.782-12.459-119.695 21.86Z" class="B"/><path d="M354.169 327.451a5 5 0 0 1-1.143-9.868c19.401-4.575 48.91-2.294 50.156-2.195a5 5 0 0 1-.794 9.969c-.29-.023-29.202-2.254-47.067 1.959a5.008 5.008 0 0 1-1.151.135Zm-17.36 130.002a4.995 4.995 0 0 1-4.136-2.185c-1.363-2-13.385-19.801-15.759-28.707a5 5 0 1 1 9.662-2.576c1.643 6.159 10.923 20.606 14.361 25.653a5 5 0 0 1-4.129 7.815Z" class="D"/><use href="#F" x="-124.737" y="-422.909" class="B"/><path d="m402.086 486.649-.122-.001a5 5 0 0 1-4.879-5.119c.571-23.788 8.89-53.227 22.822-80.768 13.505-26.697 29.9-46.642 43.858-53.352a5 5 0 0 1 4.332 9.013c-24.541 11.799-59.858 77.16-61.015 125.347a5 5 0 0 1-4.997 4.88Z" class="D"/><path d="M6.161 62.492C-4.706 120.44 63.917 204.224 79.337 232.345c26.636 48.576 59.49 46.147 71.855 74.276 5.272 11.993 29.263 77.384 85.314 82.906 26.284 2.589 64.507-8.699 84.684-39.869 23.409-36.164 9.481-75.219 5.004-83.133-6.518-11.522-15.055-21.04-24.106-30.09-13.725-13.722-113.401-158.233-123.23-179.782C160.9 17.285 130.145 1.154 99.467.06 56.059-1.488 12.804 27.067 6.161 62.492Z" class="B"/><path d="M310.994 248.247a4.961 4.961 0 0 1-3.149-1.124c-.154-.125-1.753-1.452-10.44-9.309-13.216-11.951-96.791-136.689-106.277-150.873a5 5 0 1 1 8.313-5.559c25.587 38.258 94.271 139.609 104.672 149.015l10.072 8.991c2.119 1.758 2.426 4.904.676 7.03a4.992 4.992 0 0 1-3.865 1.827zm-159.799 63.376a5 5 0 0 1-4.58-2.989c-4.93-11.214-13.61-17.073-24.6-24.49-14.131-9.537-31.716-21.406-47.063-49.394-3.067-5.593-8.543-13.813-14.884-23.33C34.7 173.339-7.76 109.604 1.246 61.571a5 5 0 1 1 9.828 1.843C2.817 107.447 43.865 169.061 68.39 205.875c6.469 9.71 12.056 18.096 15.329 24.067 14.182 25.863 29.965 36.515 43.89 45.913 11.348 7.659 22.066 14.894 28.159 28.755a5 5 0 0 1-4.574 7.013z" class="D"/></svg></g><g transform="matrix(1.430607 0 0 1.432383 1478.571429 781.428571)"><svg width="292.583" height="58.843"><g class="F"><path d="M250.438 53.721L17.309 32.067c-7.458-.693-12.943-7.3-12.25-14.758s7.3-12.943 14.758-12.25l233.15 21.655a28.601 28.601 0 0 1 11.529 3.637l23.087 13.174-25.106 8.731a28.589 28.589 0 0 1-12.039 1.464z"/><path d="M253.12 58.846a34.23 34.23 0 0 1-3.145-.146L16.847 37.046C6.656 36.099-.866 27.038.08 16.847S10.089-.867 20.28.081l233.15 21.655c4.8.446 9.357 1.883 13.544 4.273l23.087 13.174a5 5 0 0 1-.835 9.066L264.12 56.98a33.352 33.352 0 0 1-10.999 1.867zm-2.22-10.104a23.442 23.442 0 0 0 9.935-1.208l14.716-5.118-13.533-7.722a23.444 23.444 0 0 0-9.513-3.001L19.355 10.038a8.57 8.57 0 0 0-9.317 7.734c-.437 4.701 3.033 8.881 7.734 9.317l233.129 21.653z"/></g></svg></g><g transform="matrix(1.424644 0 0 1.424644 2335.714286 1250)"><svg width="304.838" height="304.838"><path d="M200.671 104.167c26.649 26.649 26.649 69.855 0 96.504s-69.855 26.649-96.504 0-26.649-69.855 0-96.504 69.855-26.649 96.504 0zM44.642 44.642c-59.523 59.523-59.523 156.029 0 215.553s156.029 59.523 215.553 0 59.523-156.029 0-215.553-156.029-59.523-215.553 0z" class="I"/><path d="M200.671 200.671c-26.649 26.649-69.855 26.649-96.504 0l-59.525 59.525c59.523 59.523 156.03 59.523 215.553 0s59.523-156.029 0-215.553l-59.524 59.524c26.649 26.649 26.649 69.855 0 96.504z" fill="#2199ce"/></svg></g><g transform="matrix(1.428748 0 0 1.431054 1667.142857 798.571429)"><svg width="104.987" height="82.856"><g class="C"><path d="m3.609 53.971 35.982-23.448c23.365-15.226 40.911 9.777 23.351 22.78l-39.91 29.553L3.609 53.971Z"/><path d="M62.941 53.303l34.639-25.65c17.936-13.281-.252-35.847-17.001-24.616L39.59 30.523s-12.276 9.602-3.38 21.973 24.308 2.601 26.731.807z"/></g><path d="M5.002 61.13a4.999 4.999 0 0 1-3.255-8.797L22.828 34.27a4.94 4.94 0 0 1 .887-.608l10.513-5.646a5 5 0 0 1 4.732 8.81l-10.036 5.39L8.253 59.927a4.978 4.978 0 0 1-3.251 1.203z" class="E"/></svg></g><g transform="matrix(1.425523 0 0 1.429171 1531.428571 768.571429)"><svg width="65.139" height="142.94"><path d="M5.904 129.453c-7.93-11.455-7.565-50.707-.739-69.127 4.619-12.463 11.052-33.383 14.868-47.312 5.56-20.294 38.591-16.578 34.205 9.223l-7.953 46.787s2.286 2.006 5.609 7.971c6.472 11.618 9.974 28.054 7.022 41.548-7.032 32.141-40.503 28.98-53.013 10.91Z" class="C"/><path d="M58.92 123.544a4.999 4.999 0 0 1-4.823-6.329c3.129-11.362-.857-32.599-11.58-44.907a5 5 0 1 1 7.539-6.568c11.979 13.748 18.116 38.032 13.682 54.131a5.001 5.001 0 0 1-4.817 3.674Z" class="E"/></svg></g><defs ><path id="D" d="M642.948 822.211c12.459 5.811 78.582 8.562 92.999 9.354s-2.637 83.947-23.253 89.928-56.395 15.52-77.042 8.622-30.848-11.8-50.323-27.094c-35.358-27.767 3.453-106.075 57.62-80.811z"/><path id="E" d="M735.947 831.566c12.657 1.242 64.822 11.48 73.358 20.622s48.036 36.467 55.654 41.446c17 11.111.461 34.544-14.545 25.95-18.399-10.538-59.629-35.806-59.629-35.806l-60.688-18.082 5.851-34.13z"/><path id="F" d="M638.278 828.691c7.879-8.244 11.638-21.968-.008-30.562s-40.682-25.849-47.601-23.304c-26.387 9.708-67.198 92.27-63.652 133.401 1.024 11.876 57.753 24.267 66.413 22.241 7.092-1.659 7.454-9.802 7.292-16.148-.621-24.272 13.397-60.351 37.556-85.629z"/></defs></svg>