<svg xmlns="http://www.w3.org/2000/svg" width="2727" height="3000" xmlns:v="https://vecta.io/nano"><style><![CDATA[.B{fill:#a85f36}.C{fill:#e3e5e5}.D{fill:#00ba96}.E{fill:#374047}.F{fill:#ea2688}.G{fill:#55a2ff}.H{fill:#773a11}.I{fill:#4f2000}.J{fill:#656c72}]]></style><g transform="matrix(1.362996 0 0 1.358764 1041.818182 140.454545)"><svg width="1000.47" height="685.449"><path d="M1000.47 111.939v515.22c0 32.19-26.11 58.29-58.3 58.29H58.29c-32.19 0-35.079-33.806-35.079-65.996V111.942L7.52 78.899l4.07-17.87c0-32.19 15.94 11.38 48.13 11.38l881.13 21.13c32.19 0 43.8-60.36 43.8-28.17z" class="C"/><path d="M119.46 78.899v606.55H58.29c-32.19 0-58.29-26.1-58.29-58.29v-515.22l7.52-33.04z" fill="#b7b7b7"/><path d="M1000.469 58.289v53.653H.002V58.289C.002 26.098 26.1 0 58.292 0H942.17c32.192 0 58.299 26.098 58.299 58.289z" class="E"/><circle cx="744.333" cy="55.971" r="25.76" class="D"/><circle cx="829.71" cy="55.971" fill="#ffd215" r="25.76"/><circle cx="915.087" cy="55.971" r="25.76" class="F"/><circle cx="59.722" cy="202.424" r="15.699" class="E"/><path d="M144.486 196.046h290.969v12.757H144.486z" class="G"/><path d="M484.031 196.046h153.09v12.757h-153.09z" class="F"/><path d="M678.632 196.046h253.383v12.757H678.632z" class="D"/><circle cx="59.722" cy="280.832" r="15.699" class="E"/><path d="M239.737 274.453h363.716v12.757H239.737zm421.918 0h270.361v12.757H661.655z" class="G"/><path d="M258.183 352.861h228.792v12.757H258.183zm293.294 0h232.036v12.757H551.477z" class="F"/><path d="M843.204 352.861h88.812v12.757h-88.812zm-589.661 78.408h105.808v12.757H253.543zm168.909 0h341.263v12.757H422.452z" class="G"/><path d="M819.71 431.269h112.305v12.757H819.71z" class="D"/><circle cx="59.722" cy="516.055" r="15.699" class="E"/><path d="M212.588 509.676h346.025v12.757H212.588z" class="G"/><path d="M624.336 509.676h307.68v12.757h-307.68z" class="F"/><path d="M144.486 588.084h228.323v12.757H144.486zm313.54 0h325.487v12.757H458.026z" class="D"/></svg></g><g transform="matrix(1.364398 0 0 1.363036 215.454545 297.272727)"><svg width="1238.308" height="1881.829"><path d="M620.629 438.401c29.656 41.824 138.166 220.058 148.652 235.077s-32.29 63.838-85.696 74.239c-21.088 4.107-120.46-110.639-120.46-110.639s-39.796-88.7-52.097-107.177 109.6-91.499 109.6-91.499z" class="B"/><path d="M1088.186 1571.637c3.17.915 12.246 5.766 12.608 14.628 35.375 9.521 119.107 54.997 123.705 116.425-39.245 49.121-105.411 62.977-128.391 62.872s-222.013-40.538-222.013-40.538-56.56-106.302-49.07-127.495 263.163-25.893 263.163-25.893z" class="D"/><path d="M1072.764 1626.463a5.002 5.002 0 0 1-2.945-.959c-7.249-5.284-44.334-27.042-44.708-27.262a5 5 0 1 1 5.058-8.626l41.307 24.956c13.349-17.234 38.252-26.956 59.058-22.431a5 5 0 0 1-2.126 9.772c-18.589-4.043-41.165 5.702-51.396 22.188a4.998 4.998 0 0 1-4.249 2.364z" fill="#007a63"/><path d="M1225.934 1693.614c2.995-.122 5.414 6.921 9.659 24.567 4.003 16.638 2.366 21.656 2.47 24.197s-30.913 32.182-64.37 42.356c-64.482 19.609-115.694 19.459-152.685 21.492s-204.545-47.518-204.545-47.518l7.542-32.683 4.947-10.123s113.847 29.291 190.82 34.502 132.458-1.303 159.334-15.366c43.839-22.939 43.957-41.307 46.827-41.424z" class="C"/><path d="M1007.407 1652.218c39.928 18.734 79.165 26.922 111.346 57.329 23.47 22.176 37.859 92.706 38.072 97.919s-78.971 48.133-96.195 48.314-108.591-12.274-121.73-14.348-226.714-56.533-226.714-56.533-10.965-72.395-6.092-120.373c3.248-31.981 301.314-12.308 301.314-12.308z" class="D"/><path d="M571.971 673.478l404.701 166.78c57.037 24.182 108.666 96.911 113.831 182.607 4.575 75.904 3.53 164.347-.264 269.303 4.755 66.744 17.451 162.344-13.252 210.43 14.632 23.672 30.769 51.945 20.729 76.198-16.641-18.821-87.581 15.132-146.977 89.977-39.708-111.329-106.16-598.011-106.16-598.011L385.993 736.948l185.979-63.47z" fill="#0a3ea5"/><g fill="#007a63"><path d="M1138.495 1747.38a5 5 0 0 1-4.716-3.342c-8.793-24.989-33.657-42.891-54.336-55.695-23.486-14.542-76.435-29.448-76.967-29.597a5 5 0 1 1 2.694-9.631c2.228.624 54.846 15.437 79.538 30.726 22.075 13.668 48.673 32.94 58.504 60.877a5 5 0 0 1-4.717 6.661z"/><path d="M994.174 1716.765a5 5 0 0 1-3.641-1.574c-5.377-5.716-29.585-19.682-38.458-24.581a5.001 5.001 0 0 1 4.833-8.755c2.884 1.592 24.905 13.827 36.086 22.327 17.316-25.986 45.358-39.137 57.179-39.206a5 5 0 1 1 .058 10c-8.062.047-36.174 12.196-51.72 39.278a5.004 5.004 0 0 1-4.336 2.511z"/></g><path d="M431.659 733.695s446.409 300.552 460.566 334.065 75.448 277.078 77.452 294.196-9.544 53.248-9.544 53.248 39.121 119.609 40.623 140.686-5.571 58.877-5.571 58.877 24.406 7.256 29.59 13.948 3.134 27.802 3.134 27.802-14.289-8.177-75.019 42.441-167.345 73.906-258.44-4.34c-5.059-82.022-13.472-123.006-29.636-151.669s-24.468-57.101-21.339-90.277-3.091-175.529-3.091-175.529-16.167-17.678-22.688-32.121 3.689-47.338 3.689-47.338-223.428-127.659-283.058-171.721-103.931-93.211-110.875-130.116 48.501-134.161 101.166-154.812 103.043-7.342 103.043-7.342z" fill="#0a3ea5"/><path d="M995.18 1619.768a5.001 5.001 0 0 1-4.297-7.55c20.268-34.206-18.686-152.498-35.406-195.191a5.003 5.003 0 0 1-.199-3.021c.081-.329 8.129-33.119 9.41-52.381 1.239-18.641-13.916-94.281-35.251-175.947l-8.959-35.765c-13.839-56.641-21.463-87.841-62.25-129.945-32.136-33.174-302.027-180.021-304.75-181.501a5 5 0 1 1 4.774-8.787c11.171 6.071 273.966 149.066 307.158 183.329 42.675 44.053 50.997 78.109 64.782 134.53l8.919 35.611c18.802 71.966 37.053 156.608 35.555 179.137-1.191 17.92-7.654 45.694-9.306 52.576 2.897 7.572 16.223 43.058 26.856 82.393 16.3 60.297 18.746 100.691 7.27 120.059a4.998 4.998 0 0 1-4.307 2.452z" fill="#002e77"/><path d="M204.174 753.019c1.117 26.875.846 45.862-.127 49.299-9.61 33.965-6.447 93.041 23.402 93.53 15.259-53.21 53.561-87.994 104.841-115.933-35.131-26.902-83.121-33.04-128.116-26.896z" fill="#ff5cf0"/><path d="m1009.132 798.946-274.156-20.632a8.732 8.732 0 0 0-4.168.072l-477.781 84.552c-14.972 2.498-12.755 53.889 5.891 59.644L492.19 975.7a140.13 140.13 0 0 0 66.933-1.158l445.813-117.88c24.563-5.71 24.077-57.618 4.197-57.716z" fill="#111"/><path d="M1006.186 771.131 734.977 724.28a8.732 8.732 0 0 0-4.168.072L252.311 835.253c-8.816 2.331-7.162 30.16 1.73 32.185l269.666 61.405a8.732 8.732 0 0 0 4.168-.072l477.061-126.143c8.816-2.331 10.142-29.473 1.251-31.497z" fill="#ce9800"/><path d="m1004.642 769.776-261.804-59.844a8.732 8.732 0 0 0-4.168.072L253.747 834.585c-8.816 2.331-8.598 14.918.293 16.943l269.666 61.405a8.732 8.732 0 0 0 4.168-.072l477.061-126.143c8.816-2.331 8.598-14.918-.293-16.943z" fill="#ffd215"/><path d="M554.177 335.296c16.696 6.746 35.5 35.744 62.258 66.267s72.431 98.929 80.533 109.859c-24.498 53.006-101.615 85.961-155.626 84.055S509.9 396.6 511.833 394.37s42.343-59.074 42.343-59.074z" class="C"/><path d="M98.564 369.809c-8.677 9.492 9.513 41.298 9.513 41.298l37.87-46.159-24.343-7.634s-18.309 7.32-23.04 12.495zm-1.633 253.097c-1.843 9.801-25.009 13.672-51.744 8.645S-1.726 614.504.117 604.703s31.743-28.241 58.477-23.214 40.179 31.616 38.336 41.417z" fill="#111"/><path d="M438.742 476.993c-52.567 14.723-138.488-34.856-144.899-36.755s-89.138-116.83-89.138-116.83c11.691-5.745 34.451-12.891 60.432-18.301 19.274-4.01 41.997-1.567 61.586-2.411 8.836-.379 15.685-5.811 23.641-5.165 12.806 1.033 25.651 10.325 37.142 11.892 15.763 2.155 29.481-3.255 41.55-.877 24.911 4.902 42.236 6.854 42.236 6.854s20.015 146.861-32.551 161.594z" class="C"/><path d="m303.661 178.348 120.855 13.75-14.756 129.687c-1.692 14.873-15.14 25.575-30.014 23.882l-66.959-7.618c-14.873-1.692-25.574-15.141-23.882-30.014l14.755-129.687z" class="B"/><path d="M472.235 236.611c-2.026 6.683-.639 44.506 26.944 38.879-25.187 17.225-50.926 1.013-48.538-13.787 1.916-11.872 21.594-25.092 21.594-25.092z" class="I"/><path d="M466.169 69.141c19.475 16.396 24.126 38.557 24.819 69.368.469 20.877-5.875 31.802-3.317 48.881s7.919 45.073-16.22 73.338c-25.594 29.969-40.065 38.895-78.736 25.486-67.575-23.431-74.297-59.043-83.96-69.862s-40.76-102.231 11.176-136.792 112.726-38.633 146.238-10.419z" class="B"/><path d="M601.296 666.264c-12.264-17.956-39.466-62.048-39.466-62.048s10.377-30.554 11.869-60.998-16.177-69.282-28.124-86.394c4.251-21.053 15.086-72.734 13.255-124.125 0 0-22.618-14.626-63.505-21.367-32.922-5.428-55.255-6.524-55.033-3.402s1.835 27.592-6.504 67.023c-8.992 42.518-29.884 71.958-36.539 74.001s-36.49-22.115-68.49-52.788-85.816-85.836-90.313-87.455-14.274-2.121-46.987 8.578-69.429 26.719-92.894 52.517c67.547-26.52 62.009 127.001 83.795 212.539 13.801 54.187 19.883 124.222 21.815 170.672 44.996-6.144 92.985-.006 128.116 26.896 31.794-17.322 68.574-32.016 107.956-46.833 102.9-38.715 156.078 2.303 140.041-31.323-.674-1.413 33.273-17.539 21.009-35.496z" fill="#ff5cf0"/><path d="M429.056 308.545c-.587 11.18-5.84 48.046-49.19 56.058-66 12.201-105.493-44.415-114.729-59.497 19.274-4.01 40.309-7.073 59.899-7.917l21.039.646 40.875 3.684a731.076 731.076 0 0 1 42.106 7.025z" class="B"/><path d="M422.09 30.436s-26.76-23.2-75.534-2.987c-47.008 19.481-88.428 69.068-90.296 116.276s16.033 76.598 45.096 79.823c14.163-37.623 13.315-41.617 22.464-67.376s39.564-68.725 55.959-80.877 54.909-29.542 54.909-29.542l-12.599-15.317z" class="I"/><path d="M309.956 152.453c-10.834-12.566-35.479-13.426-39.479 11.182s23.401 53.136 39.332 38.14 5.157-43.511.147-49.322z" class="B"/><g class="H"><path d="M312.266 194.872a5 5 0 0 1-4.466-7.241c.738-1.471.785-4.974-1.508-10.003-3.165-6.939-8.906-12.688-13.963-13.981a5 5 0 0 1 2.478-9.688c9.76 2.496 17.188 12.075 20.583 19.52 3.284 7.2 3.764 13.818 1.351 18.633a5 5 0 0 1-4.474 2.761z"/><path d="M294.233 181.391a5 5 0 0 1-2.282-9.452c9.316-4.768 17.962-8.534 21.393-2.353a5 5 0 0 1-6.613 6.896c-1.183.274-4.061 1.205-10.224 4.359a4.98 4.98 0 0 1-2.274.55z"/></g><g class="I"><path d="M440.075 62.631s40.323 13.342 49.946 57.64c6.03-28.152 3.321-51.497-13.664-69.64s-43.709-33.5-60.215-22.909c12.187 31.562 23.933 34.909 23.933 34.909z"/><path d="M442.497 63.566s-43.365 3.671-59.12 42.037c-17.55 42.738-30.531 49.941-45.259 73.088-16.354 25.705-20.951 74.983 4.934 107.922-50.261-12.718-54.761-66.596-46.41-100.783 6-24.565 24.17-42.521 25.287-56.2s13.526-56.895 46.848-76.6c35.134-20.777 57.362-17.13 65.577-11.961s8.142 22.496 8.142 22.496zm-74.401-31.113c-8.923-34.671-53.28-39.356-79.154-24.436-36.263 20.91-44.749 69.356-13.567 99.564 28.957 28.052 92.721-75.127 92.721-75.127z"/><path d="M272.757 92.859s-25.893 14.66-37.541-16.679c-9.077 37.784 22.364 55.444 35.195 38.814 9.693-12.563 2.346-22.136 2.346-22.136z"/></g><path d="M413.295 295.792a5.05 5.05 0 0 1-.732-.054c-28.888-4.239-47.97-12.744-63.805-28.439a5 5 0 0 1 7.04-7.102c14.388 14.261 31.254 21.692 58.217 25.648a5 5 0 0 1-.719 9.948zm27.393-77.01a5 5 0 0 1-4.925-5.892c.617-3.407-2.89-4.585-3.979-4.865-2.709-.697-7.802-.344-9.723 5.381a5 5 0 0 1-9.481-3.181c3.539-10.552 13.59-13.966 21.69-11.887 8.039 2.064 12.699 8.78 11.332 16.332a5 5 0 0 1-4.914 4.11z" class="H"/><path d="M442.492 68.567a5 5 0 0 1-4.896-4.015c-2.981-14.825-11.583-26.603-23.599-32.314a5 5 0 1 1 4.293-9.031c14.891 7.078 25.501 21.429 29.11 39.375a5.001 5.001 0 0 1-4.907 5.987zm-129.965 87.681a5 5 0 0 1-3.379-8.686c.477-.449 9.952-9.678 8.467-30.512-1.044-14.649 3.568-30.499 12.653-43.485 9.6-13.722 22.956-22.761 37.606-25.451a5 5 0 0 1 1.806 9.836c-24.32 4.466-43.989 31.751-42.091 58.39 1.858 26.075-11.163 38.124-11.718 38.624a4.983 4.983 0 0 1-3.345 1.285zm-52.361-30.115a4.95 4.95 0 0 1-1.006-.103 4.991 4.991 0 0 1-3.899-5.873c.206-1.022 5.388-25.43 36.616-60.907 28.818-32.739 68.21-43.143 69.873-43.569a5 5 0 0 1 2.491 9.685c-.378.098-38.137 10.135-64.858 40.492-29.232 33.21-34.274 56.062-34.322 56.289a5.014 5.014 0 0 1-4.895 3.986z" fill="#111"/><path d="m884.143 770.964-243.764-53.956-266.162 54.732-.044 10.45a7.965 7.965 0 0 0 6.243 7.81l278.685 65.31a34.857 34.857 0 0 0 16.106-.247l209.039-77.357c3.54-.898 3.462-5.953-.103-6.742z" class="J"/><path d="m933.682 769.297-287.753-65.283a23.932 23.932 0 0 0-11.059.169l-258.785 65.65c-2.626.666-2.569 4.417.077 5.003l298.271 65.361c.392.087.799.081 1.188-.018L933.76 774.3c2.626-.666 2.569-4.417-.077-5.003z" fill="#8f969e"/><path d="M535.174 648.379c21.053-1.759 47.669-5.563 57.482-5.477s47.126 27.849 54.633 34.104-4.172 27.979-14.598 24.799-48.915-25.505-48.915-25.505l-88.628.43z" class="B"/><path d="m703.496 727.31-192.925 58.032c-4.438 1.335-4.186 7.703.344 8.683l114.967 24.866a29.507 29.507 0 0 0 14.855-.619l206.634-63.086-134.961-28.257a18.08 18.08 0 0 0-8.913.383z" fill="#111"/><path d="M79.062 453.973c-19.748 53.19-54.955 186.726-66.899 250.344s15.591 119.716 70.791 123.629c43.183 3.061 112.145-10.343 189.306-29.964 77.827-19.791 136.4-45.715 145.768-46.382 8.362 7.25 26.929 14.558 79.789 7.653s61.058-12.981 61.058-12.981l-25.018-97.861s-120.775 11.744-152.892 12.463-151.076-2.01-174.439.439c8.464-26.424 14.903-55.118 14.903-55.118z" class="B"/><path d="M114.43 366.627c16.939 1.106 34.529 14.891 61.621 50.098s60.572 108.666 60.231 140.597c-.145 13.574-20.154 75.023-27.45 93.753 0 0-16.172-33.151-93.687-48.551S6.773 595.643.117 604.703c8.781-37.98 85.285-212.249 114.313-238.076z" class="C"/><g class="B"><path d="M509.033 667.895c-.39.028 80.991-8.517 85.786-7.289s56.813 34.108 64.674 39.824 2.308 30.332-17.43 23.108-52.654-28.746-52.654-28.746l-86.432 9.234 6.056-36.13z"/><path d="M511.258 699.12s73.604-13.09 77.981-12.225 49.148 29.143 56.979 34.385c11.123 7.446 2.002 28.103-16.258 19.577-15.226-7.108-43.809-17.497-43.809-17.497l-62.157 5.844-12.735-30.084z"/><path d="M510.743 757.026c13.335-2.756 56.654-2.277 56.654-2.277l26.789 18.098c11.987 8.561 26.18-6.965 18.291-14.977-7.254-7.366-27.692-29.985-31.316-31.296s-66.839-6.489-66.839-6.489l-3.578 36.94z"/></g><g class="H"><path d="M159.082 668.171a5 5 0 0 1-.832-9.93c20.691-3.516 47.442-1.986 48.57-1.919a5 5 0 0 1-.591 9.982c-.265-.015-26.754-1.527-46.304 1.796a5.043 5.043 0 0 1-.844.071zm406.133 62.158c-.173 0-.347-.009-.523-.027l-40.034-4.166a5 5 0 0 1 1.035-9.947l40.034 4.166a5 5 0 0 1-.511 9.974zm83.332-1.968a4.978 4.978 0 0 1-2.614-.741l-57.903-35.598-58.446 5.174a5 5 0 0 1-.881-9.961l60.095-5.32a4.995 4.995 0 0 1 3.06.721l59.313 36.465a5 5 0 0 1-2.623 9.26zm3.565-38.625l-8.368-5.475-.067.107c1.083-1.886-.469-3.21-.979-3.645-5.513-4.703-42.191-30.308-50.055-33.268-.44-.166-1.828-.559-5.199-.634a5 5 0 0 1-4.888-5.109c.061-2.76 2.347-4.932 5.109-4.888 3.66.081 6.441.497 8.5 1.272 9.654 3.634 47.455 30.269 53.023 35.019 7.004 5.975 4.975 13.484 2.924 16.62z"/><path d="M664.675 717.424a5 5 0 0 1-4.925-5.899c.423-2.341.592-5.246.419-6.625-7.326-4.625-60.223-35.815-67.595-39.824-4.761-1.532-33.479 1.487-57.52 5.187a5.001 5.001 0 0 1-1.522-9.884c.136-.021 13.735-2.108 27.971-3.726 30.163-3.43 33.759-1.49 35.69-.448 3.985 2.15 66.555 38.739 69.807 41.249 3.189 2.462 4.06 7.801 2.588 15.867a5.002 5.002 0 0 1-4.913 4.103zm-72.23-52.418.012.007-.012-.007z"/></g><path d="M703.227 1760.552c3.879-3.087 18.313 20.712 48.575 29.791 62.609 18.783 81.62 11.464 141.913 25.043 57.913 13.043 89.739 38.087 173.739 24 71.633-12.013 85.603-47.431 88.667-49.122s5.667 10.949 8.451 24.719c1.963 9.711 2.58 19.366.708 24.664s-30.663 37.784-96.304 41.51-118.227-8.486-169.186-25.595c-47.898-16.081-116.496-20.637-137.232-23.114-29.779-3.557-51.345-15.396-54.079-18.417s-8.16-51.166-5.252-53.48z" class="C"/><path d="M401.214 488.864c-3.028 0-10.661-2.411-41.356-26.187-20.38-15.786-42.834-34.917-58.599-49.929-32.882-31.31-97.615-95.885-98.265-96.533a5 5 0 0 1 7.063-7.079l98.097 96.37c32.439 30.888 83.392 70.201 92.902 73.215 5.945-3.199 31.675-32.827 45.729-79.919 12.274-41.127 11.637-88.821 11.629-89.298a5.001 5.001 0 0 1 9.999-.165c.033 2.01.666 49.729-12.046 92.323-6.471 21.684-16.582 43.417-28.469 61.196-3.856 5.768-17.102 24.683-25.618 25.914-.298.043-.635.092-1.066.092zm.385-10.002z" fill="#cc2bc5"/><path d="M927.861 1479.387a4.999 4.999 0 0 1-4.342-7.471c10.306-18.132 31.987-58.662 32.205-59.069a5 5 0 0 1 8.818 4.716l-32.33 59.295a4.996 4.996 0 0 1-4.351 2.53zm-255.43-164.219a4.98 4.98 0 0 1-3.588-1.518l-32.049-33.023a5 5 0 0 1 7.175-6.965l32.049 33.023a5 5 0 0 1-3.587 8.482zm392.059 215.29a5 5 0 0 1-4.508-7.157c.878-1.837 8.707-18.114 13.042-23.751a5.001 5.001 0 0 1 7.927 6.097c-3.131 4.07-9.685 17.237-11.946 21.967a5 5 0 0 1-4.515 2.844z" fill="#002e77"/><path d="M823.231 571.224 658.909 834.315c-6.743 10.918 3.209 24.5 15.651 21.359l248.912-64.036a43.958 43.958 0 0 0 26.692-19.602l143.559-230.673c6.256-10.177-1.998-23.081-13.86-21.668l-224.43 30.978a43.953 43.953 0 0 0-32.203 20.552z" class="J"/><path d="M422.185 266.045c-13.029 0-25.662-6.735-31.879-17.874a5 5 0 0 1 8.732-4.874c4.881 8.744 17.715 15.5 30.745 11.666a5.001 5.001 0 0 1 2.822 9.594 36.93 36.93 0 0 1-10.419 1.489z" class="H"/><ellipse cx="382.998" cy="183.498" fill="#fff" rx="25.767" ry="21.324" transform="matrix(.041736 -.999129 .999129 .041736 183.678 558.505)"/><ellipse cx="386.571" cy="189.091" fill="#231f20" rx="19.509" ry="12.436" transform="matrix(.041736 -.999129 .999129 .041736 181.515 567.435)"/><ellipse cx="463.311" cy="182.166" fill="#fff" rx="25.767" ry="21.324" transform="matrix(.041736 -.999129 .999129 .041736 261.971 637.472)"/><g fill="#231f20"><ellipse cx="464.885" cy="187.758" rx="19.509" ry="12.436" transform="matrix(.041736 -.999129 .999129 .041736 257.892 644.403)"/><path d="M355.179 144.778c4.358-5.209 13.904-12.71 32.437-15.058s27.403-.172 28.526 4.623c1.249 5.334 1.795 14.429-15.862 12.522-21.8-2.354-36.93 3.288-41.878 4.383s-6.716-2.296-3.223-6.47zm87.318-13.566c7.051-2.909 23.857-3.652 32.914 0s15.311 10.354 17.535 13.826c2.422 3.783 0 8.739-4.361 6.209-4.794-2.781-14.141-4.719-25.826-5.688-7.856-.651-18.834-.722-21-2.087-4.696-2.959-2.739-10.826.738-12.261z"/></g></svg></g><g transform="matrix(1.36571 0 0 1.349391 2140.909091 951.818182)"><svg width="271.587" height="159.668"><rect fill="#b7b7b7" height="159.668" rx="34.594" width="271.587"/><path d="M97.629 124.898a4.98 4.98 0 0 1-2.463-.652L24.541 84.183a5.001 5.001 0 0 1 0-8.698l70.625-40.063a5 5 0 1 1 4.934 8.698L37.141 79.835 100.1 115.55a5 5 0 0 1-2.472 9.35zm76.329 0a5 5 0 0 1-2.472-9.35l62.959-35.715-62.958-35.715a5 5 0 1 1 4.934-8.698l70.626 40.063a5.001 5.001 0 0 1 0 8.698l-70.625 40.064a4.978 4.978 0 0 1-2.463.652zm-58.277 17.637a5 5 0 0 1-4.68-6.757l43.266-115.4a5 5 0 1 1 9.363 3.511l-43.266 115.4a5.002 5.002 0 0 1-4.683 3.246z" class="J"/></svg></g></svg>