<svg xmlns="http://www.w3.org/2000/svg" width="3000" height="2250" xmlns:v="https://vecta.io/nano"><g transform="matrix(1.500338 0 0 1.502688 252 453)"><svg width="1635.631" height="1087.052"><path d="M150.109 236.162C17.018 442.063 92.836 809.314 351.893 949.484c222.494 120.386 690.848 87.556 929.343-10.18 215.847-88.455 343.044-220.661 307.105-488.624-23.907-178.252-154.63-322.927-393.461-243.655-236.188 78.396-237.351 124.588-473.342-96.217C559.842-40.483 258.921 67.824 150.109 236.163Z" fill="#5ac4ff"/><path d="M224.753 848.223c-2.976-.076 3.979 4.431 6 6.62 34.435 37.317 74.864 69.601 121.14 94.64 222.494 120.386 690.848 87.556 929.343-10.18 59.519-24.391 112.297-52.109 156.773-85.082 2.671-1.98 11.222-5.892 7.923-5.998-517.313-16.668-831.08 9.917-1221.179 0Z" fill="#ffd215"/><path d="M72.149 179.369C120.501 104.566 203.807 40.691 297.381 2.598 196.915-10.387 103.648 24.22 37.228 130.913-2.75 195.133-10.275 302.147 13.426 424.826c1.425-99.285 20.519-186.351 58.724-245.457zm1249.704 806.328c-80.633 33.044-185.412 59.057-298.786 75.327 137.411 30.49 268.623 44.719 392.229-17.486 171.973-86.546 226.306-205.883 219.826-385.602-40.061 161.643-141.091 257.202-313.269 327.762z" fill="#5ac4ff"/></svg></g><g transform="matrix(1.498312 0 0 1.49889 373.5 307.5)"><svg width="688.775" height="563.417"><g fill="#5917c1"><path d="M554.52 313.167l-24.658 120.577c-1.529 6.579-8.101 10.673-14.68 9.145s-10.673-8.101-9.145-14.68l30.173-146.928 18.311 31.887zM-.003 530.081L146.78 418.728l21.758 28.68L21.755 558.762zm152.091-110.725l249.115-386.49 30.259 19.503L182.347 438.86z"/><path d="M526.783 335.714 436.657 64.708l34.16-11.36 90.127 271.006z"/></g><rect fill="#111" height="306.535" rx="44.425" transform="matrix(.673684 .73902 -.73902 .673684 513.374 -271.315)" width="88.851" x="519.487" y="292.399"/><path d="M498.39 445.282s71.712-23.119 84.221 43.453c2.587.316 28.205-11.451 29.919-27.274 1.416-13.064-12.842-32.699-35.863-43.69-10.949-5.227-25.967-9.301-39.747-7.613 0 0-34.299 15.314-38.531 35.124z" fill="#40b509"/><g fill="#5917c1"><path d="M581.682 465.954l-53.967-162.278 23.21-7.719 53.967 162.278c2.13 6.405-1.34 13.334-7.746 15.464s-13.334-1.34-15.464-7.745z"/><circle cx="149.075" cy="444.358" r="37.277"/></g><circle cx="149.075" cy="444.358" fill="#330096" r="25.042"/><circle cx="437.826" cy="37.28" fill="#5917c1" r="37.277"/><circle cx="437.826" cy="37.28" fill="#330096" r="25.042"/></svg></g><g transform="matrix(1.603253 0 0 1.602978 361.5 1021.5)"><svg width="688.6" height="604.5"><g fill="#8d949c"><path d="m274.8 580.6-214-203.5c-4.3-4.1 1.2-8.6 12.3-10.1l278.3-36.7c10.2-1.3 23.4.5 29.6 4.2l300.6 177.7c11 5.8 8.6 13.5-3.9 15.7l-362 61.8c-14.7 2.4-33.1-1.7-40.9-9.1z"/><path d="m59.3 374.2-.8 13.9c-.1 1 .4 2 1.5 3l214 203.5c7.8 7.4 26.2 11.5 40.9 9l362-61.8c6.5-1.1 10.2-3.4 10.9-6.3l.7-16.3c0 4.1-2.7 7.1-10.9 8.5l-362 61.8c-14.7 2.5-33.1-1.6-40.9-9L60.7 377c-.9-.9-1.4-1.8-1.4-2.8z"/></g><path d="M448.2 462.3c-4.1 0-8.5-1.2-11.2-3.1l-75.7-53.7c-2.4-1.7-3.5-4.3-2.8-6.8.4-1.7 2-4.6 7.5-5.3l80.1-9.5c3.5-.4 8.9.2 12.2 2.3l82.1 50.6c4.2 2.6 4.1 6 3.8 7.3-.3 1.4-1.5 4.7-7 5.5l-86.3 12.5c-.9.1-1.8.2-2.7.2zm-73.9-59.8 68.5 48.5c1 .7 4.3 1.5 6.7 1.2l78.4-11.3-74.9-46.2c-.9-.5-3.7-1.1-5.8-.9z" fill="#656c72"/><path d="M283.4 562.8 93.9 385.2c-3.6-3.4-.9-6.8 6-7.7l159.5-21c6.6-.9 15.7 1 20.2 4.1L519 527.1c7.7 5.3 7 10.8-1.5 12.1l-206.8 31.5c-8.9 1.4-21.2-2.2-27.3-7.9z" fill="#111"/><path d="M269.5 593 46.8 381.2c-4.5-4.3-8.1-17.4-8.1-29.4L0 21.7C.1 8.1.5-2.3 8.9.4l246.3 96.7c9.2 3.6 15.9 21.8 14.9 40.4l15.7 441.3c-.9 15.7-8.3 21.9-16.3 14.2z" fill="#8d949c"/><path d="M305.6 595.6c-9.6 0-17.3-2.8-25.1-8.8a4.96 4.96 0 0 1 6.1-7.9c7.1 5.5 14 8.2 28.1 5.8l362-61.8c2.7-.5 5.3 1.4 5.8 4.1s-1.4 5.3-4.1 5.8l-362 61.8c-3.8.6-7.4 1-10.8 1z" fill="#656c72"/></svg></g><g transform="matrix(1.497845 0 0 1.497066 955.5 213)"><svg width="954.371" height="1138.226"><clipPath id="A"><ellipse cx="562.171" cy="216.343" rx="31.665" ry="28.563" transform="matrix(.06603 -.997818 .997818 .06603 309.178 763.001)"/></clipPath><clipPath id="B"><path d="M448.998 183.218c-.038 12.498.023 24.002-1.231 33.279-1.709 12.649-6.065 23.235-9.114 35.525-3.755 15.137 48.432 14.815 54.421-18.243 10.257-56.608-43.963-87.475-44.076-50.562z"/></clipPath><clipPath id="C"><ellipse cx="459.677" cy="215.016" rx="29.505" ry="26.615" transform="matrix(.06603 -.997818 .997818 .06603 214.776 659.491)"/></clipPath><path d="M800.578 120.353c26.221 15.678 22.938 46.047 21.027 60.143 19.934 1.911 33.204 29.448 13.381 61.956 48.608 27.019 24.443 117.828-45.845 105.653 4.515 43.68-43.969 70.973-104.9 44.205-57.654-25.328-59.321-97.439-27.368-179.864 33.144-85.496 118.272-107.301 143.706-92.094z" fill="#4f2000"/><path d="M413.622 431.421c-75.69 34.166-105.498 164.16-122.317 276.929-14.431 96.764-38.361 211.363-60.012 295.33-13.318 51.649 194.932 105.064 206.372 61.768 23.003-87.054 43.972-201.444 49.151-252.892 21.409-212.675-73.194-381.136-73.194-381.136z" fill="#ff5cf0"/><path d="M488.631 790.603c-51.533-33.646-138.548-66.685-198.435-74.902-7.029 46.047-16.104 95.79-25.991 144.143 72.295 11.42 152.136 62.558 198.375 97.881 11.912-58.19 21.055-113.56 24.237-145.168a624.309 624.309 0 0 0 1.815-21.954z" fill="#e3e5e5"/><path d="M492.225 413.859c-29.556 3.284-61.089 9.709-78.604 17.562s-26.484 132.408-37.431 164.153-30.494 91.226-28.461 129.171c3.284 61.301 30.744 110.937 43.787 157.632 9.442 33.804-9.852 120.413-18.609 152.159s213.872 80.005 397.04 46.803c110.064-19.951 152.76-69.839 152.76-69.839s-8.804-29.583-24.166-87.905c-4.749-18.03-26.559-110.107-27.721-133.579-2.976-60.094 2.755-127.961 9.053-153.939 8.757-36.124 31.878-196.115 8.548-209.251s-79.837-23.913-79.837-23.913L492.225 413.86z" fill="#ff5cf0"/><path d="M783.392 848.004c47.598-16.54 66.709-38.87 87.428-57.989-2.976-60.094 2.755-127.961 9.052-153.939 2.046-8.439 5.205-22.856 8.548-40.162-30.526 23.326-72.865 51.238-156.967 65.1-64.108 10.566-271.892 5.096-368.256-25.271-8.77 29.617-16.809 63.987-15.469 89.001 1.68 31.354 9.687 59.652 18.852 86.07 85.508 27.376 305.518 75.862 416.811 37.189z" fill="#e3e5e5"/><g fill="#a85f36"><rect height="241.906" rx="68.893" transform="matrix(.989806 -.142422 .142422 .989806 -43.012 92.657)" width="138.693" x="556.436" y="225.854"/><path d="m562.505 403.802-70.279 10.057s13.198 60.89 79.911 71.153c78.269 12.041 183.292-18.609 236.448-82.1l-104.727-13.098-141.353 13.987z"/></g><path d="M372.914 1042.037a7.5 7.5 0 0 1-7.331-9.116c.231-1.052 23.107-105.646 18.475-149.762-1.438-13.698-8.17-29.655-15.964-48.132-12.424-29.452-27.887-66.106-27.863-110.287.015-27.653 9.711-71.881 28.819-131.458a7.5 7.5 0 0 1 14.283 4.581c-18.371 57.278-28.089 101.154-28.103 126.884-.022 41.142 14.166 74.775 26.684 104.449 8.259 19.577 15.391 36.485 17.062 52.396 4.886 46.529-17.777 150.167-18.744 154.556a7.503 7.503 0 0 1-7.317 5.888z" fill="#cc2bc5"/><path d="M488.39 78.145c-51.263 30.21-35.666 101.673-40.623 138.353-3.815 28.228-20.809 46.177-7.048 95.738 10.323 37.18 60.149 60.329 89.647 60.617 65.23.635 135.336-41.176 149.363-92.183s20.606-134.232-20.017-177.798C614.785 54.69 545.318 44.597 488.39 78.145z" fill="#a85f36"/><path d="M703.049 224.214c-32.871 3.818-38.879-32.45-58.338-61.203-17.356-25.646-40.273-43.378-63.496-46.53-31.198-4.235-55.133-29.786-55.133-29.786s-31.466 27.529-64.731 30.688c-34.038 3.233-29.736-82.481 41.542-90.934 24.366-2.889 42.154-21.674 71.566-25.79 32.5-4.548 48.497 15.897 65.748 16.805s49.524 1.558 67.217 23.895c11.363 14.345 6.8 42.313 22.67 45.109 27.604 4.863 18.489 132.456-27.047 137.745z" fill="#4f2000"/><path d="M732.554 204.236a7.5 7.5 0 0 1-6.459-11.301c12.045-20.493 11.73-63.526 11.347-76.228a7.5 7.5 0 1 1 14.993-.453c.531 17.579.287 60.982-13.408 84.281a7.497 7.497 0 0 1-6.473 3.701z" fill="#111"/><path d="M674.531 211.09c15.3-28.025 57.127-35.155 64.451 0s-40.06 66.609-57.001 60.819c-21.762-7.438-17.358-42.671-7.45-60.819z" fill="#a85f36"/><path d="M534.226 164.695c-12.158 3.637-21.16-10.404-7.116-18.181 23.296-12.901 60.787 1.941 70.333 12.197s8.999 20.204-4.681 14.926-37.142-15.341-58.536-8.941zm-54.5 1.703c-6.776 2.581-27.914.285-39.316 7.71-5.361 3.491-10.912-2.722-4.205-11.257 9.035-11.496 31.755-18.818 43.521-16.465 10.645 2.129 8.941 16.606 0 20.012z" fill="#4f2000"/><path d="M482.424 277.791a7.504 7.504 0 0 1-7.287-5.752c-2.415-10.063.834-18.383 8.691-22.256 10.886-5.366 29.315-.383 37.924 10.252a7.5 7.5 0 0 1-1.111 10.548 7.499 7.499 0 0 1-10.548-1.111c-4.445-5.492-15.327-8.36-19.632-6.235-.492.242-1.797.886-.738 5.302a7.5 7.5 0 0 1-7.299 9.252z" fill="#773a11"/><path d="M579.406 299.027c8.89-7.677 11.802-.911 8.579 8.564-5.102 14.999-12.361 23.373-28.202 28.524-11.731 3.816-28.187 1.381-37.711-8.482-5.904-6.115-5.091-10.868 2.593-11.184 10.779-.444 20.065-1.438 28.098-4.187s19.758-7.29 26.643-13.235z" fill="#fff"/><g fill="#773a11"><path d="M682.402 252.835a7.5 7.5 0 0 1-7.452-8.428c2.129-17.097 23.675-36.936 34.531-41.182a7.5 7.5 0 1 1 5.463 13.969c-7.9 3.089-23.885 19.233-25.109 29.065a7.503 7.503 0 0 1-7.433 6.574z"/><path d="M706 244.303a7.473 7.473 0 0 1-5.137-2.037l-12.457-11.717a7.5 7.5 0 0 1-.324-10.602 7.499 7.499 0 0 1 10.602-.324l12.457 11.717a7.5 7.5 0 0 1-5.14 12.963z"/></g><path d="M694.086 310.409c-9.431 0-17.861-8.118-20.976-20.199-3.751-14.548 1.665-28.279 13.797-34.981a7.5 7.5 0 1 1 7.253 13.129c-9.326 5.152-7.072 15.986-6.525 18.106 1.485 5.759 4.757 8.944 6.451 8.944 1.336 0 3.037-.32 4.345-2.815 1.633-3.116 1.521-7.736-.252-10.298a7.501 7.501 0 0 1 12.336-8.534c4.932 7.129 5.426 17.737 1.202 25.796-3.615 6.896-10.041 10.852-17.63 10.852z" fill="#111"/><ellipse cx="562.171" cy="216.343" fill="#fff" rx="31.665" ry="28.563" transform="matrix(.06603 -.997818 .997818 .06603 309.178 763.001)"/><g clip-path="url(#A)"><ellipse cx="556.52" cy="224.492" fill="#111" rx="25.286" ry="18.799" transform="matrix(.06603 -.997818 .997818 .06603 295.769 764.974)"/></g><path d="M556.511 380.353a7.5 7.5 0 0 1-.749-14.962c12.641-1.285 44.585-6.325 68.149-25.346a7.5 7.5 0 1 1 9.422 11.672c-26.696 21.549-62.081 27.177-76.055 28.597a7.656 7.656 0 0 1-.768.039z" fill="#773a11"/><g clip-path="url(#B)"><ellipse cx="459.677" cy="215.016" fill="#fff" rx="29.505" ry="26.615" transform="matrix(.06603 -.997818 .997818 .06603 214.776 659.491)"/><g clip-path="url(#C)"><ellipse cx="455.648" cy="222.227" fill="#111" rx="23.441" ry="17.427" transform="matrix(.06603 -.997818 .997818 .06603 203.818 662.206)"/></g></g><path d="M888.421 426.826c26.932 16.571 41.051 33.684 45.634 46.362 37.246 103.048 11.639 208.14 12.881 290.565 1.407 93.369-14.454 181.131-115.962 247.746-56.556 37.115-229.451-159.168-190.039-204.975 11.948-13.886 29.148-19.439 45.178-16.017 11.587-29.739 28.388-99.739 27.914-174.304-.508-79.845 135.605-213.244 174.394-189.377z" fill="#ff5cf0"/><path d="M405.229 1130.947c-14.379.553-25.994-63.048-9.955-85.723s26.512 15.638 27.1 39.82c.766 31.524-17.145 45.903-17.145 45.903z" fill="#111"/><path d="m341.747 965.375 201.009-68.828c76.649-21.9 134.527 193.187 46.146 197.88l-255.758 17.989c-58.66 5.475-53.185-132.181 8.603-147.041z" fill="#a85f36"/><path d="M830.973 1011.499c-13.655 33.873-38.066 64.5-85.648 80.361s-107.001 24.319-126.46 20.09c-25.803 26.962-80.787 35.951-115.68 13.746-4.43-68.154-19.872-147.024-60.271-205.685 0-49.697 89.877-78.75 177.422-65.004-.854-19.073 11.01-38.056 20.597-48.483 35.45-38.555 231.395 102.385 190.039 204.975z" fill="#ff5cf0"/><path d="M706.913 744.823c-8.224 18.82-16.323 34.191-20.801 45.684-16.03-3.421-33.23 2.131-45.178 16.018-6.181 6.723-20.597 30.188-20.597 48.483 130.168-18.294 199.767 94.987 210.636 156.492 81.795-49.551 109.175-118.385 114.211-192.83-62.385-48.615-167.42-86.466-238.271-73.846z" fill="#e3e5e5"/><path d="m442.916 920.011-65.746 25.473c15.174 11.93 24.662 41.105 33.59 97.527 10.008 63.242 4.705 78.031-5.531 87.936 0 0 77.293-14.325 97.957-5.251 20.671-17.995 7.904-84.932 1.795-109.556-9.907-39.933-33.196-82.228-62.066-96.129z" fill="#ff5cf0"/><g fill="#a85f36"><path d="M341.747 965.375c-39.632-9.568-98.403-62.288-121.637-71.802s-32.949 131.459 4.203 165.833 78.462 55.146 108.831 53.01 8.603-147.041 8.603-147.041z"/><path d="M220.11 893.573c-33.043-17.542-79.751-34.54-102.204-32.696s-90.175 30.03-105.817 37.087C-12 908.832 2.208 949.709 34.44 939.48c37.482-11.896 85.547-25.335 85.547-25.335l86.404 30.754 13.718-51.327z"/><path d="M215.004 939.672c-17.063-7.049-90.34-11.984-110.138-4.584s-75.238 43.661-86.549 51.694c-25.621 18.195-3.86 59.392 28.781 41.027l70.613-40.929 98.649 4.011-1.356-51.218z"/><path d="M222.425 980.991c-17.474-5.916-95.021-6.5-104.438-3.613s-47.839 27.14-63.939 38.669c-26.327 18.852-.582 56.892 26.448 41.935s53.151-26.989 53.151-26.989l83.716-2.217 5.061-47.785z"/><path d="M223.426 1018.78c-10.689-4.039-61.775-3.85-70.167-2.637s-50.782 29.764-57.719 38.183c-22.295 27.062 10.407 51.595 33.472 33.582 21.849-17.064 40.143-25.408 40.143-25.408l62.522 3.482z"/></g><path d="M46.968 1030.454a7.5 7.5 0 0 1-4.161-13.745c2.393-1.593 58.761-39.083 71.654-45.95 2.81-1.496 10.275-5.473 51.59-2.981 21.186 1.278 44.127 3.831 57.466 5.794 4.098.604 6.931 4.414 6.328 8.512s-4.406 6.936-8.512 6.328c-12.599-1.854-35.555-4.417-56.184-5.661-36.055-2.173-42.966.89-43.635 1.247-12.252 6.526-69.817 44.813-70.397 45.2a7.466 7.466 0 0 1-4.148 1.257zm65.221 17.665a7.5 7.5 0 0 1-5.031-13.063c3.809-3.443 23.398-20.792 34.996-24.16 17.838-5.181 65.316-1.445 82.105.43a7.5 7.5 0 0 1 6.621 8.287c-.459 4.116-4.178 7.073-8.286 6.621-23.144-2.586-63.385-4.672-76.258-.933-6.104 1.772-20.704 13.279-29.12 20.883a7.476 7.476 0 0 1-5.026 1.935z" fill="#773a11"/><g fill="#cc2bc5"><path d="M503.179 1133.197a7.5 7.5 0 0 1-6.559-11.125c11.485-20.811 16.068-46.468 1.103-104.045-16.181-62.252-58.569-91.506-58.995-91.794a7.521 7.521 0 0 1-3.12-7.91c9.55-41.336 45.246-66.604 103.229-73.073 32.266-3.599 62.579-.49 75.845 1.313 9.748-36.519 27.763-51.984 41.554-58.522 10.736-5.09 20.571-5.668 26.274-5.419 19.243-30.086 21.899-108.303 23.2-146.631l.832-20.253a7.5 7.5 0 1 1 14.971.931c-.304 4.891-.539 11.814-.811 19.83-2.094 61.701-6.21 129.932-28.684 158.632a7.505 7.505 0 0 1-7.401 2.726c-1.664-.313-42.277-7.126-56.959 58.781a7.498 7.498 0 0 1-8.637 5.753c-1.459-.259-143.707-24.536-167.559 54.64 12.159 9.633 46.087 40.705 60.778 97.223 14.059 54.088 13.361 86.35-2.488 115.066a7.496 7.496 0 0 1-6.573 3.877z"/><path d="M642.708 865.01c-9.089 0-17.05-.911-24.219-2.734a7.5 7.5 0 0 1 3.697-14.537c12.13 3.085 27.477 3.039 48.294-.145 4.099-.631 7.921 2.185 8.547 6.28s-2.185 7.921-6.28 8.547c-11.281 1.726-21.195 2.589-30.04 2.589zm-23.841 254.44a7.5 7.5 0 0 1-5.17-12.935c13.049-12.412 22.705-40.188 22.801-40.468a7.5 7.5 0 0 1 9.529-4.655 7.499 7.499 0 0 1 4.659 9.525c-.439 1.279-10.93 31.513-26.651 46.467a7.475 7.475 0 0 1-5.168 2.065zm109.484-14.873a7.5 7.5 0 0 1-1.59-14.83c66.765-14.548 91.291-65.642 97.217-80.955a7.506 7.506 0 0 1 3.212-3.77c25.653-14.983 46.361-37.276 71.459-68.389a7.5 7.5 0 1 1 11.674 9.418c-20.919 25.933-43.793 52.69-73.327 70.59-5.696 13.898-16.373 33.313-35.722 51.205-19.729 18.244-43.725 30.543-71.32 36.557a7.543 7.543 0 0 1-1.604.174zm-351.18-151.591a7.5 7.5 0 0 1-2.712-14.495l65.746-25.473a7.5 7.5 0 0 1 5.419 13.986l-65.746 25.473a7.46 7.46 0 0 1-2.708.509z"/></g></svg></g><g transform="matrix(1.541253 0 0 1.521733 2134.5 1725)"><svg width="137.226" height="69.986"><path d="M137.226 0L56.721.066l-7.399 4.757c-5.845 3.493-7.796 16.138-13.64 25.455C24.925 47.427 12.774 57.645 2.429 65.379-17.312 80.138 88.308 59.726 137.226 0z" fill="#ffd215"/></svg></g><g transform="matrix(1.492356 0 0 1.497609 1881 219)"><svg width="172.881" height="315.503"><g fill="#ffd215"><path d="M0 3.906S6.35-.146 26.992.004s31.761 4.008 31.761 4.008 86.246 26.845 86.246 153.717l-57.908 3.859S87.09 21.793 0 3.906z"/><ellipse cx="109.48" cy="231.519" rx="79.194" ry="63.309" transform="matrix(.070435 -.997516 .997516 .070435 -129.176 324.417)"/></g><g fill="#ce9800"><ellipse cx="124.539" cy="234.947" rx="52.632" ry="35.488" transform="matrix(.070296 -.997526 .997526 .070296 -118.582 342.661)"/><path d="M109.622 315.506a7.512 7.512 0 0 1-2.28-.356c-14.774-4.71-27.699-15.376-38.414-31.702-16.86-25.689-14.005-52.144-11.873-62.712.806-7.311 5.99-39.667 35.517-58.765 21.298-13.773 37.149-11.149 44.766-9.89l1.74.273a7.501 7.501 0 0 1 6.435 8.432c-.553 4.105-4.326 6.98-8.433 6.435a78.637 78.637 0 0 1-2.189-.341c-6.205-1.026-17.749-2.935-34.172 7.687-24.333 15.738-28.245 42.813-28.782 48.08l-.117.762c-1.371 6.615-4.729 29.9 9.65 51.809 13.229 20.158 26.175 24.285 30.43 25.642a7.5 7.5 0 0 1-2.277 14.648z"/></g></svg></g></svg>