<?xml version="1.0"?>
<svg width="2050" height="1222.315" xmlns="http://www.w3.org/2000/svg" xmlns:svg="http://www.w3.org/2000/svg" xmlns:xlink="http://www.w3.org/1999/xlink">
 <clipPath id="a">
  <path d="m635.81,140.45c-3.26,19.63 -3.76,38.97 -10.68,55.59c-3.73,8.94 -8.64,18.43 -12.1,29.43c-4.77,15.16 53.09,41.11 76.15,-22.42c22.26,-61.33 -50.12,-82.22 -53.37,-62.6z" id="svg_1"/>
 </clipPath>
 <defs>
  <symbol height="1171.78" id="svg_73" viewBox="0 0 1082.947 1171.777" width="1082.95" xmlns="http://www.w3.org/2000/svg" xmlns:xlink="http://www.w3.org/1999/xlink">
   <clipPath id="svg_72">
    <path d="m657.28,167.97c2.51,20.79 4.44,40.35 7.89,53.37c3.61,13.63 8.55,23.73 12.58,33.52c5.3,12.87 -76.96,43.8 -91.36,-37.1c-6.19,-34.82 67.3,-79.4 70.88,-49.79l0.01,0z"/>
   </clipPath>
   <path d="m464.11,13.44c-46.37,-10.26 -97.46,0.51 -134.16,43.1c-22.16,25.7 -20.2,52.79 -40.39,75.78c-14.71,16.76 -52.99,25.43 -55.98,73.47c-1.75,28.25 14.95,45.96 -4.91,64.42c-13.93,12.95 -40.37,22.94 -35.81,66.64c3.87,37.01 -0.4,43.46 -14.61,56c-28.17,24.87 -15.04,80.69 42.84,119.57c76.79,51.61 252.95,3.45 283.52,-56.08c30.57,-59.54 19.23,-429.68 -40.5,-442.9z" fill="#ea2688"/>
   <path d="m581.86,483.85c-42.09,16.05 -76.07,110.05 -62.79,222.86c14.92,126.76 93.57,382.66 253.96,371.46c90.05,-6.29 37.39,-147.05 0.11,-222.89c-28.89,-58.77 -41.6,-108.78 -58.01,-219.25c-18.22,-122.63 -84.09,-170.93 -133.27,-152.18z" fill="#f4bbab"/>
   <path d="m634.61,471.17c61.34,24.76 75.43,110.81 96.66,120.01c0,0 1.15,20.91 -22.84,32.76c-25.29,12.49 -15.77,28.61 -31.44,45.02s-34.62,14.77 -48.85,37.2c-17.52,27.65 -108.85,16.6 -108.85,16.6c-61.75,-124.82 17.77,-290.97 115.32,-251.59z" fill="#f62"/>
   <path d="m773.03,1078.17c74.37,-4.02 173.42,-43.6 170.4,-158.98s-17.55,-225.29 -28.75,-282.64c-8.67,-44.35 -135.32,-28.11 -142.11,30.6c-6.79,58.72 -31.53,200.99 -33.16,247.31c-2.33,65.92 -8.1,165.96 33.62,163.71z" fill="#f4bbab"/>
   <path d="m549.9,445.61c41.55,11 59.64,14.71 84.71,25.56s-9.1,114.39 -5.61,149.02s53.65,141.99 48.36,182.75s-54.65,169.61 -56.03,229.92s-423.34,106.16 -461,37.64c0,0 11.47,-133.34 -4.68,-255.75s-90.21,-321.86 -28.48,-345.85s106.24,-34.72 167.43,-42.55c83.63,16.72 154.05,25.66 255.3,19.26z" fill="#f62"/>
   <path d="m559.35,364.81c8.64,25.25 18.8,38.59 36.46,66.69c21.95,34.94 25.27,64.17 -3.01,83.29c-10.91,7.37 -16.52,22.33 3.25,23.94c-13.72,10.02 -44.59,2.22 -29.16,-31.97c13.76,-30.47 5.43,-49.72 -16.99,-61.15c-22.06,-3.73 -32.74,4.02 -47.68,-28.75s44.02,-90.36 57.13,-52.05z" fill="#ea2688"/>
   <rect fill="#f4bbab" height="322.67" rx="86.37" transform="matrix(.97375398 .22760315 -.22760315 .97375398 97.835 -91.257)" width="172.74" x="358.24" y="217.25"/>
   <path d="m519.15,439.15l30.75,6.46c3.79,68.78 -17.83,212.03 -50.07,283.65c-81.4,-20.68 -201.89,-240.55 -205.23,-302.91l52.07,-2.87l172.48,15.67z" fill="#f4bbab"/>
   <path d="m215.78,1066.44c-3.35,0 -6.41,-2.28 -7.27,-5.68c-1,-4.02 1.44,-8.09 5.46,-9.1c105.23,-26.36 193.88,-129.75 278.98,-325.39c1.65,-3.8 6.07,-5.54 9.87,-3.89c3.8,1.65 5.54,6.07 3.89,9.87c-41.17,94.64 -82.42,166.66 -126.11,220.19c-50.35,61.7 -103.66,98.91 -162.99,113.77c-0.61,0.15 -1.22,0.23 -1.83,0.23z" fill="#c83400"/>
   <path d="m125.61,481.46c-48.89,19.1 -102.83,119.45 -87.19,254.26c17.57,151.47 59.05,385.15 186.74,428.27c104.99,35.46 187.08,-112.85 146.51,-174.76s-88.51,-190.43 -91.95,-323.83c-3.44,-133.4 -96.98,-206.26 -154.11,-183.94z" fill="#f4bbab"/>
   <path d="m127.17,468.9c-91.85,35.6 -92.76,144.98 -127.17,167.02c0,0 33.81,44.66 88.1,29.9c60.69,-16.5 72.69,-6.55 107.29,22.9c34.6,29.46 88.19,30.78 88.19,30.78c18.76,-152.79 -47.65,-292.74 -156.41,-250.6z" fill="#f62"/>
   <path d="m914.67,636.55c-12.31,-64.81 -44.49,-156.15 -61.36,-185.04c-16.87,-28.9 -126.72,51.4 -109.32,95.37c19.52,49.34 5.69,102.43 28.58,120.28c22.89,17.85 142.1,-30.61 142.1,-30.61z" fill="#f4bbab"/>
   <path d="m853.32,451.51c-14.91,-32.47 -34.23,-62.3 -47.7,-78.54c-13.48,-16.25 -41.53,-40.65 -56.13,-52.3c-24.24,-19.36 -54.33,4.15 -28.94,31.06c25.39,26.91 50.52,48.19 50.52,48.19l37.98,71.58l44.27,-19.99z" fill="#f4bbab"/>
   <path d="m819.55,466.76c-10.52,-23.04 -27.42,-56.82 -39.29,-70.39s-48.99,-38.34 -63,-50.47c-24.36,-21.1 -59.06,10.57 -25.46,37.29c33.47,26.61 51.17,38.24 51.17,38.24l37.1,68.89l39.48,-23.56z" fill="#f4bbab"/>
   <path d="m785.34,484.43c-8.5,-18.91 -29.5,-55.39 -36.71,-62.88c-7.22,-7.49 -52.71,-26.76 -67.18,-30.11c-26.3,-6.08 -41.83,32.49 -10.52,45.99c33.94,14.63 49.02,21.43 49.02,21.43l36.2,57.38l29.19,-31.81z" fill="#f4bbab"/>
   <path d="m763.79,507.91c-9.16,-12.47 -41.38,-36.5 -54.89,-38.27s-27.27,-2.34 -40.69,-3.12c-29.55,-1.73 -34.05,36.47 -7.06,41.02c24.4,4.12 42.4,7.22 42.4,7.22l40.44,32.12l19.8,-38.97z" fill="#f4bbab"/>
   <path d="m819.56,474.26c-2.81,0 -5.49,-1.58 -6.78,-4.27c-23.29,-48.88 -33.35,-64.06 -37.69,-68.19c-9.29,-8.85 -61.89,-49.56 -62.42,-49.97c-3.28,-2.53 -3.88,-7.24 -1.34,-10.52c2.53,-3.28 7.24,-3.88 10.52,-1.34c2.19,1.69 53.74,41.59 63.59,50.97c7.85,7.48 20.84,30.54 40.88,72.59c1.78,3.74 0.2,8.22 -3.54,10c-1.04,0.49 -2.14,0.73 -3.22,0.73z" fill="#e09273"/>
   <path d="m785.35,491.94c-2.79,0 -5.46,-1.56 -6.76,-4.24c-6.08,-12.55 -29.19,-54.22 -35.49,-61.08c-4.5,-4.91 -20,-11.79 -28.72,-14.98c-3.89,-1.43 -5.89,-5.73 -4.47,-9.62c1.43,-3.89 5.73,-5.89 9.62,-4.47c2.66,0.97 26.2,9.75 34.62,18.93c8.59,9.36 33.16,54.8 37.94,64.69c1.81,3.72 0.25,8.21 -3.48,10.02c-1.05,0.51 -2.17,0.75 -3.26,0.75z" fill="#e09273"/>
   <path d="m763.8,515.41c-2.09,0 -4.16,-0.86 -5.65,-2.56c-6.1,-6.96 -23.8,-23.59 -28.17,-25.65c-3.75,-1.77 -5.35,-6.24 -3.59,-9.98c1.77,-3.75 6.24,-5.36 9.99,-3.59c8.36,3.94 29.14,24.87 33.06,29.34c2.73,3.12 2.41,7.86 -0.7,10.58c-1.43,1.25 -3.19,1.86 -4.94,1.86z" fill="#e09273"/>
   <path d="m351.33,366.5c2.36,72.56 42.34,78.98 50.62,123.82c9.6,52.01 -23.54,101.96 -77.88,83.2c25.04,0.25 41.23,-16.24 30.87,-40.27c-11.45,-26.55 -56.76,-41.99 -79.34,-78.17c-21.19,-33.94 -21.08,-60.48 -5.84,-105.84s80.14,-26.46 81.57,17.26z" fill="#ea2688"/>
   <path d="m882.64,752.82c-40.46,0 -93.96,-13.38 -120.54,-45.42c-2.64,-3.18 -2.2,-7.91 0.98,-10.56c3.19,-2.64 7.92,-2.2 10.56,0.98c12.88,15.52 35.48,27.8 63.64,34.56c23.66,5.69 49.88,7.07 68.41,3.61c12.28,-2.29 15.85,-5.78 16.16,-6.62c-0.01,0 -0.03,-0.17 -0.17,-0.49c-1.65,-3.8 0.09,-8.22 3.89,-9.87c3.8,-1.65 8.21,0.09 9.86,3.89c3.52,8.07 0.5,16.04 -8.07,21.31c-9.01,5.55 -25.38,8.61 -44.72,8.61z" fill="#e3e5e5"/>
   <path d="m820.03,749.98c-1.81,0 -3.65,-0.23 -5.47,-0.68c-9.97,-2.46 -16.2,-10.73 -14.2,-18.82s11.37,-12.51 21.33,-10.05c9.96,2.46 16.2,10.73 14.2,18.83c-1.07,4.33 -4.35,7.8 -8.99,9.53c-2.12,0.79 -4.46,1.19 -6.87,1.19zm1.34,-13.11l0.01,0l-0.01,0z" fill="#e3e5e5"/>
   <path d="m835.34,753.76c-1.78,0 -3.62,-0.22 -5.48,-0.67c-9.97,-2.47 -16.21,-10.73 -14.21,-18.83c1.07,-4.33 4.35,-7.8 8.99,-9.53c3.71,-1.38 8.1,-1.56 12.35,-0.52c9.96,2.46 16.2,10.73 14.2,18.83c-1.63,6.58 -8.12,10.72 -15.85,10.72zm8.57,-12.52l0.01,0l-0.01,0z" fill="#e3e5e5"/>
   <path d="m595.52,12.66c37.23,20.58 89.32,64.06 94.31,107.94c5.2,45.84 -16.95,57.12 1.36,87.16c13.67,22.44 36.49,13.12 45.21,34.47c8.7,21.3 3.04,43.89 -21.61,47.78c13.5,-10.59 13.72,-27.54 0.1,-37.18c-19.07,-13.48 -40.12,8.36 -60.3,-25.55c-15.24,-25.62 -17.06,-64.23 -13.81,-122.64c3.24,-58.41 -45.26,-91.98 -45.26,-91.98z" fill="#ea2688"/>
   <path d="m636.8,87.11c20.6,32.62 20.01,102.67 28.37,134.22s23.85,44.2 18.63,77.82c-4.17,26.9 -29.77,86.27 -101.25,91.32c-71.48,5.04 -179.25,-47.57 -193.64,-128.47c-6.2,-34.82 -29.62,-102.19 16.51,-166.56c49.19,-68.62 184.21,-83.01 231.38,-8.33z" fill="#f4bbab"/>
   <path d="m392.47,242.63c6.68,-39.2 90.83,-163.78 144.36,-171.79c55.92,-8.37 82.1,2 106.41,29.23c0,0 10.7,-63.69 -47.72,-87.41c-57.94,-23.52 -113.09,-8.85 -131.41,0.78c-134.53,22.5 -163.89,154.5 -103.48,243.83c7.75,11.46 31.84,-14.64 31.84,-14.64z" fill="#ea2688"/>
   <path d="m392.47,232.39c-17.94,-34.33 -69.87,-20.17 -58.2,19.5c9.52,32.38 42.43,44.12 56.9,37.51s12.7,-35.22 1.3,-57.01z" fill="#f4bbab"/>
   <path d="m527.14,50.86c20.94,29.61 16.89,73.47 -24.17,100.04c-42.14,27.28 -51.24,53.01 -51.59,70.59c-0.74,36.49 19.04,49.38 16.86,83.58c-1.59,25.1 -32.03,49.12 -37.21,66.31c-3.1,10.31 0.56,29.6 23.98,24.54c-20.45,19.98 -58.93,5.94 -56.63,-27.59c2.34,-34.03 22.37,-42.21 19.23,-68.84c-3.48,-29.54 -25,-39.03 -29.34,-63.31c-5.08,-28.4 7.99,-85.7 33.38,-115.93c42.34,-50.43 105.49,-69.39 105.49,-69.39z" fill="#ea2688"/>
   <path d="m610.75,286.11c-0.39,0 -0.78,-0.03 -1.17,-0.09c-4.09,-0.64 -6.89,-4.48 -6.25,-8.58c0.79,-5.01 -0.18,-7.9 -1.41,-8.46c-1.63,-0.74 -5.86,0.34 -9.77,5.02c-2.65,3.19 -7.38,3.61 -10.56,0.95c-3.18,-2.65 -3.61,-7.38 -0.95,-10.56c7.8,-9.34 18.84,-12.99 27.47,-9.07c8.11,3.68 11.87,12.82 10.04,24.45c-0.58,3.7 -3.77,6.34 -7.4,6.34z" fill="#e09273"/>
   <path d="m576.02,327.7c15.65,8.09 28.36,-1.55 36.04,10.03c6.95,10.47 -14.22,31.85 -41.35,27.61c-37.19,-5.82 -45.84,-38.37 -29.1,-47.4c13.07,-7.05 22.08,3.39 34.41,9.76z" fill="#fff"/>
   <path d="m610.63,153.79c-13.18,5.61 -23.87,-19.44 -3.28,-26.14c15.77,-5.13 46.37,0.36 58.05,18.84c7.29,11.53 -1.81,15.66 -5.98,12.17c-13.97,-11.73 -30.47,-12.66 -48.79,-4.87z" fill="#b7006d"/>
   <path d="m545.1,160.25c19.45,1.5 15.64,-25.24 -1.49,-27.02c-24.34,-2.54 -61.41,21.65 -65.53,38.14c-4.13,16.49 7.05,16.65 12.11,9.79c9.05,-12.28 29.73,-22.84 54.91,-20.91z" fill="#b7006d"/>
   <path d="m381.8,275.87c-0.1,0 -0.2,0 -0.31,-0.01c-4.14,-0.16 -7.36,-3.65 -7.19,-7.79c0.53,-13.32 -11.83,-28.92 -20.61,-29.44c-4.13,-0.25 -7.29,-3.8 -7.04,-7.94c0.25,-4.13 3.8,-7.28 7.94,-7.03c19.27,1.15 35.45,26.13 34.7,45.01c-0.16,4.03 -3.49,7.2 -7.49,7.2z" fill="#e09273"/>
   <path d="m363.83,263.46c-1.82,0 -3.66,-0.67 -5.1,-2.01c-3.03,-2.82 -3.21,-7.57 -0.39,-10.6l10.3,-11.08c2.83,-3.03 7.57,-3.2 10.61,-0.38s3.2,7.57 0.38,10.6l-10.3,11.08c-1.48,1.58 -3.48,2.39 -5.49,2.39l-0.01,0z" fill="#e09273"/>
   <path d="m536.83,78.34c-3.13,0 -6.06,-1.98 -7.11,-5.11c-8.8,-26.16 -37.99,-49.15 -66.45,-52.34c-4.11,-0.46 -7.08,-4.17 -6.62,-8.28s4.18,-7.09 8.29,-6.62c34.35,3.84 68.31,30.69 79,62.46c1.32,3.92 -0.79,8.17 -4.72,9.5c-0.79,0.26 -1.6,0.39 -2.39,0.39z" fill="#b7006d"/>
   <path d="m388.26,243.68c-3.87,0 -7.16,-2.98 -7.47,-6.91c-2.9,-37.02 0.93,-88.22 35.64,-121.91c2.98,-2.88 7.72,-2.81 10.61,0.16s2.81,7.72 -0.16,10.61c-30.53,29.63 -33.78,76.15 -31.13,109.96c0.32,4.13 -2.77,7.74 -6.89,8.07c-0.2,0.01 -0.4,0.02 -0.6,0.02z" fill="#b7006d"/>
   <path d="m530.46,392.99c-0.52,0 -1.04,-0.05 -1.56,-0.17c-20.51,-4.35 -47.1,-14.73 -61.85,-24.13c-3.49,-2.22 -4.52,-6.86 -2.29,-10.35c2.22,-3.5 6.86,-4.52 10.35,-2.3c13.23,8.43 38.22,18.14 56.9,22.11c4.05,0.86 6.64,4.84 5.78,8.9c-0.75,3.52 -3.86,5.94 -7.33,5.94z" fill="#e09273"/>
   <ellipse cx="530.76" cy="229.74" fill="#fff" rx="33.29" ry="38.26" transform="matrix(.99189444 -.12706461 .12706461 .99189444 -24.889 69.302)"/>
   <ellipse cx="544.57" cy="229.26" fill="#111" rx="19.36" ry="26.19" transform="matrix(.99189444 -.12706461 .12706461 .99189444 -24.716 71.052)"/>
   <g clip-path="url(#svg_72)">
    <ellipse cx="637.27" cy="218.92" fill="#fff" rx="30.85" ry="35.46" transform="matrix(.99189444 -.12706461 .12706461 .99189444 -22.651 82.748)"/>
    <ellipse cx="646.93" cy="219" fill="#111" rx="18.91" ry="25.58" transform="matrix(.99189444 -.12706461 .12706461 .99189444 -22.584 83.975)"/>
   </g>
   <circle cx="375.67" cy="288.48" fill="#e3e5e5" r="15.94"/>
   <path d="m648.81,694.54c-2.88,0 -5.62,-1.67 -6.86,-4.47c-0.77,-1.75 -18.99,-43.23 -20.44,-69.47c-0.23,-4.13 2.94,-7.67 7.08,-7.9c4.11,-0.23 7.67,2.94 7.9,7.08c1.29,23.5 19,63.82 19.18,64.23c1.67,3.79 -0.04,8.21 -3.83,9.89c-0.99,0.43 -2.01,0.64 -3.03,0.64z" fill="#c83400"/>
   <g fill="#f4bbab">
    <path d="m225.15,1163.99c79.3,27.83 366.62,-24.22 503.15,-72.88c77.92,-27.78 -13.36,-163.21 -60.58,-152.25c-70.23,16.3 -258.79,-12.26 -315.59,13.08c-56.79,25.33 -183.26,192.29 -126.98,212.05z"/>
    <path d="m710.46,1097.05c55.76,-13.86 133.66,-40.32 169.53,-39.73s50.97,-122 2.05,-125.24s-67.19,-2 -79.79,-16.93s-103.87,4.18 -134.53,23.71s42.74,158.19 42.74,158.19z"/>
    <path d="m802.25,915.15c-7.38,-19.64 45.87,-40.41 61.7,-61.9c17.48,-23.71 3.98,-53.93 -29.07,-32.04c-38.31,25.38 -68.94,18.59 -89.85,35.93c-20.91,17.33 -41.81,46.66 -58.04,72.33c-25.78,40.75 115.26,-14.32 115.26,-14.32z"/>
    <path d="m879.99,1057.32c26.94,2.12 73.88,10.5 84.52,6.64c10.64,-3.86 35.55,-14.07 49.1,-21.66c26.5,-14.85 3.32,-52.88 -21.66,-39.17s-43.97,17.65 -43.97,17.65l-59.53,-0.67l-8.46,37.21z"/>
    <path d="m885.23,999.74c13.36,-2.59 78.32,-5.77 86.86,-9.57s41.88,-24.95 55.52,-38.15c21.38,-20.69 50.76,8.76 28.57,32.91s-58.44,48.57 -66.88,51.03s-103.56,4.33 -103.56,4.33l-0.51,-40.55z"/>
    <path d="m884.45,970.1c23.2,-2.85 89.6,-12.64 89.6,-12.64s61.08,-47.9 71.81,-60.06c15.98,-18.11 49.48,3.49 32.32,31.7c-17.15,28.22 -73.93,66.95 -84.57,70.81s-96.82,13.92 -107.99,14.66c-11.17,0.74 -1.17,-44.47 -1.17,-44.47z"/>
    <path d="m882.04,932.08c46.13,-1.21 72.76,-9.08 80.39,-13.39c8.78,-4.95 42.48,-34.24 54.05,-45.84c24.33,-24.39 58.99,-1.64 39.77,25.57c-22.14,31.33 -59.42,57.54 -73.95,66.43s-82.46,14.31 -96.41,16.5c-13.95,2.19 -3.85,-49.27 -3.85,-49.27z"/>
   </g>
   <path d="m667.72,946.36c-2.77,0 -5.44,-1.55 -6.74,-4.21c-1.82,-3.73 -0.27,-8.21 3.45,-10.03l17.36,-8.46c21.35,-33.52 41.01,-57.83 58.45,-72.29c11.09,-9.19 24.35,-12.37 38.39,-15.74c15.35,-3.68 32.75,-7.85 52.11,-20.67c24.66,-16.34 38.02,-5.58 41.53,-1.89c9.99,10.51 9.04,29.28 -2.28,44.64c-6.99,9.47 -19.67,18.27 -31.93,26.77c-12.27,8.5 -30.73,21.3 -28.85,27.84c2.3,2.68 17.54,8.62 51.58,10.68c29.61,1.79 60.39,-0.16 80.34,-5.08c4.02,-0.99 8.08,1.46 9.08,5.48c0.99,4.02 -1.46,8.09 -5.48,9.08c-22.16,5.47 -55.78,7.51 -87.73,5.31c-15.22,-1.05 -28.59,-2.99 -38.68,-5.61c-13.41,-3.48 -20.75,-8.06 -23.1,-14.42c-6.43,-17.37 14.27,-31.73 34.29,-45.61c11.26,-7.8 22.9,-15.87 28.4,-23.34c7.46,-10.12 7.62,-21.06 3.49,-25.4c-3.88,-4.08 -12.45,-2.52 -22.38,4.05c-21.56,14.29 -41.15,18.98 -56.89,22.76c-13.36,3.2 -23.92,5.73 -32.32,12.7c-16.53,13.7 -35.54,37.45 -56.49,70.56c-0.74,1.18 -1.8,2.13 -3.05,2.74l-19.27,9.39c-1.06,0.51 -2.18,0.76 -3.28,0.76l0,-0.01z" fill="#e09273"/>
   <path d="m885.88,988.85c-3.74,0 -6.98,-2.8 -7.43,-6.61c-0.5,-4.12 2.44,-7.85 6.55,-8.34c2.06,-0.25 4.72,-0.55 7.85,-0.91c50.91,-5.81 79.62,-10.66 85.33,-14.41c12.17,-8 68.02,-53.61 75.71,-72.11c1.59,-3.83 5.98,-5.64 9.8,-4.05c3.83,1.59 5.64,5.98 4.05,9.81c-9.67,23.27 -70.05,71.48 -81.32,78.88c-9.63,6.33 -43.69,11.29 -91.87,16.79c-3.09,0.35 -5.73,0.65 -7.77,0.89c-0.3,0.04 -0.6,0.06 -0.9,0.06z" fill="#e09273"/>
   <path d="m885.61,1022.08c-3.79,0 -7.04,-2.87 -7.45,-6.72c-0.43,-4.12 2.56,-7.81 6.68,-8.24c4.88,-0.52 11.36,-1.11 18.86,-1.8c25.17,-2.32 77.55,-7.13 86.27,-11.97c9.85,-5.46 48.41,-34.79 62.43,-45.63c3.28,-2.53 7.99,-1.92 10.52,1.35c2.54,3.28 1.93,7.99 -1.34,10.52c-2.1,1.62 -51.48,39.75 -64.33,46.88c-10.62,5.89 -48.03,9.73 -92.18,13.79c-7.45,0.68 -13.88,1.27 -18.67,1.77c-0.26,0.03 -0.53,0.05 -0.79,0.05z" fill="#e09273"/>
   <path d="m885.74,1047.79c-4.07,0 -7.4,-3.25 -7.49,-7.34c-0.1,-4.14 3.19,-7.57 7.33,-7.66c3.32,-0.08 9.13,-0.07 16.5,-0.07c20.81,0.02 76.09,0.05 83.84,-3.45c9.98,-5.12 30.91,-19.48 31.12,-19.62c3.41,-2.35 8.08,-1.48 10.43,1.93s1.47,8.09 -1.94,10.43c-0.89,0.61 -21.93,15.05 -32.81,20.63c-8.42,4.32 -38.36,5.14 -90.65,5.08c-7.27,0 -13.01,-0.01 -16.16,0.06c-0.06,0 -0.11,0.01 -0.17,0.01z" fill="#e09273"/>
   <path d="m675.87,1115.68c-20.71,-33.45 -34.76,-114.93 -25.41,-173.34l-47.22,1.85c-9.35,58.41 0.44,151.75 27.27,192.08l45.36,-20.59z" fill="#ea2688"/>
   <ellipse cx="646.07" cy="1113.34" fill="#ea2688" rx="48.79" ry="29.27" transform="matrix(.95033121 -.31124042 .31124042 .95033121 -314.419 256.375)"/>
   <path d="m610.17,1108.42c-1.98,0 -3.96,-0.78 -5.44,-2.33c-2.85,-3 -2.73,-7.75 0.27,-10.6c7.78,-7.39 18.02,-13.3 29.63,-17.1c10.71,-3.51 21.67,-4.89 31.69,-3.99c4.13,0.37 7.17,4.02 6.8,8.14c-0.37,4.13 -4.02,7.17 -8.14,6.8c-8.01,-0.72 -16.89,0.42 -25.68,3.3c-9.37,3.07 -17.88,7.94 -23.96,13.72c-1.45,1.38 -3.31,2.06 -5.17,2.06z" fill="#b7006d"/>
   <ellipse cx="647.22" cy="1116.83" fill="#111" rx="35.36" ry="21.22" transform="matrix(.95033121 -.31124042 .31124042 .95033121 -315.45 256.905)"/>
   <path d="m293.98,1009.47c-1.7,0 -3.42,-0.58 -4.83,-1.77c-3.17,-2.67 -3.57,-7.4 -0.9,-10.57c11.25,-13.34 38.58,-37.76 59.81,-51.49c3.48,-2.25 8.12,-1.25 10.37,2.23c2.25,3.47 1.26,8.12 -2.22,10.37c-21.16,13.67 -47.16,37.5 -56.49,48.56c-1.48,1.76 -3.6,2.67 -5.74,2.67z" fill="#e09273"/>
   <path d="m745.75,861.21c-0.34,0 -0.69,-0.02 -1.04,-0.07c-4.1,-0.57 -6.97,-4.36 -6.4,-8.46c0.04,-0.26 3.6,-25.97 6.64,-46.94c0.6,-4.1 4.4,-6.94 8.5,-6.35c4.1,0.6 6.94,4.4 6.35,8.5c-3.04,20.92 -6.6,46.59 -6.63,46.85c-0.52,3.75 -3.74,6.47 -7.42,6.47z" fill="#e09273"/>
  </symbol>
  <symbol height="1222.32" id="svg_76" viewBox="0 0 1304.11 1222.315" width="1304.11" xmlns="http://www.w3.org/2000/svg" xmlns:xlink="http://www.w3.org/1999/xlink">
   <clipPath id="svg_75">
    <path d="m635.81,140.45c-3.26,19.63 -3.76,38.97 -10.68,55.59c-3.73,8.94 -8.64,18.43 -12.1,29.43c-4.77,15.16 53.09,41.11 76.15,-22.42c22.26,-61.33 -50.12,-82.22 -53.37,-62.6z"/>
   </clipPath>
   <path d="m630.95,461.34c-63.92,27.64 -108.02,160.8 -103.96,262.35c0,0 -41.75,39.77 -19.29,72.97c22.46,33.2 49.47,294.78 112.17,270.25c89.5,-35.01 111.66,-202.36 112.63,-294.15s-53.21,-332.32 -101.55,-311.41l0,-0.01z" fill="#ea2688"/>
   <path d="m287.36,872.67c-16.64,-21.1 120.47,-131.16 149.15,-108.38s-118.24,147.58 -149.15,108.38z" fill="#111"/>
   <g fill="#f4bbab">
    <path d="m366.46,643.57s-20.9,-36.09 -41.44,-42.57c-26.39,-8.32 -111.54,-23.58 -134.27,-26.42c-22.74,-2.84 -74.6,118.64 -48.31,124.33s77.97,23.1 85.08,29.49s17.02,16.27 17.02,16.27c31.52,54.27 153.24,-58.28 121.93,-101.1l-0.01,0z"/>
    <path d="m348.29,616.77c-22.62,-23.78 -70.7,-72.33 -90.42,-82.38c-19.71,-10.04 -57.56,-17.39 -82.9,-20.19c-34.01,-3.76 -41.18,35.91 -6.47,44.06s52.33,16.27 52.33,16.27s4.02,58.88 63.16,69.04s64.3,-26.8 64.3,-26.8z"/>
    <path d="m190.75,574.58c-33.28,-4.94 -70.07,-20.18 -70.07,-20.18s-40.66,-29.92 -56.64,-43.87c-31.66,-27.64 -63.47,10.94 -33.25,38.22c21.21,19.13 49.18,36.98 60.99,44.79c13.13,8.68 78.3,20.77 78.3,20.77l20.67,-39.73z"/>
    <path d="m175.46,603.97c-14.56,-1.94 -74.72,-18.02 -82.49,-24.33s-33.13,-33.51 -42.75,-43.83c-25.17,-27 -56.5,8.16 -35.63,32.9s45.14,48.05 55.33,53.88s88.47,22.75 88.47,22.75l17.06,-41.37l0.01,0z"/>
    <path d="m163.8,632.23c-10.65,-2.97 -70.5,-16.12 -76.67,-21.64c-6.17,-5.52 -38.05,-37.07 -44.8,-44.28c-23.37,-25 -58.43,2.6 -34.08,30c16.26,18.3 42.2,45.96 50.31,50.96s91.55,24.02 91.55,24.02l13.69,-39.06z"/>
    <path d="m156.29,653.65c-11.33,-3.78 -60.42,-9.22 -67.57,-14.09s-29.31,-28.47 -36.65,-37.74c-19.8,-24.99 -55.83,4.22 -33.76,31.49s42.85,42.2 48.37,45.12c5.52,2.93 60.31,17.16 75.76,20.48l13.85,-45.26z"/>
   </g>
   <path d="m156.3,661.16c-0.41,0 -0.82,-0.04 -1.23,-0.1c-28.82,-4.73 -64.45,-11.21 -70.52,-15.26c-4.39,-2.94 -12.33,-11.39 -24.88,-24.94c-4.82,-5.21 -9.38,-10.13 -12.96,-13.79c-3.58,-3.66 -9.05,-7.86 -14.77,-7.14c-4.35,0.54 -8.63,3.94 -11.73,9.3c-2.07,3.59 -6.66,4.81 -10.25,2.74c-3.58,-2.08 -4.81,-6.67 -2.73,-10.25c5.47,-9.46 13.8,-15.54 22.85,-16.67c6.53,-0.82 16.58,0.51 27.35,11.53c3.73,3.81 8.35,8.8 13.25,14.09c7.87,8.5 18.6,20.09 22.04,22.54c5.04,2.35 36.74,8.45 64.78,13.04c4.09,0.67 6.86,4.53 6.19,8.62c-0.61,3.67 -3.79,6.29 -7.4,6.29l0.01,0z" fill="#e09273"/>
   <path d="m163.8,639.73c-0.56,0 -1.13,-0.06 -1.7,-0.2c-0.18,-0.04 -18.13,-4.21 -36.49,-8.96c-38.86,-10.03 -41.73,-12.73 -43.62,-14.52c-2.14,-2.02 -7.32,-7.21 -13.88,-13.79c-10.5,-10.53 -23.56,-23.64 -30.89,-30.46c-9.65,-8.99 -20.95,-7.5 -22.75,-6.07c-3.08,2.77 -7.81,2.51 -10.58,-0.57c-2.77,-3.08 -2.51,-7.83 0.56,-10.6c8.71,-7.83 28.94,-6.82 42.99,6.26c7.53,7.02 20.71,20.23 31.29,30.85c5.9,5.92 11.04,11.07 13.22,13.16c5.66,3.19 41.58,12.66 73.54,20.09c4.04,0.94 6.55,4.97 5.61,9.01c-0.81,3.46 -3.89,5.8 -7.3,5.8z" fill="#e09273"/>
   <path d="m175.46,611.47c-0.6,0 -1.21,-0.07 -1.82,-0.22c-0.19,-0.05 -19.51,-4.88 -39.28,-10.27c-41.57,-11.35 -44.5,-14.03 -46.44,-15.8c-3.83,-3.49 -15.75,-15.86 -27.27,-27.82c-6.13,-6.36 -11.92,-12.36 -15.78,-16.29c-11.97,-12.19 -18.54,-7.43 -21.34,-5.4c-3.36,2.43 -8.05,1.67 -10.48,-1.68c-2.42,-3.36 -1.67,-8.05 1.69,-10.47c7.4,-5.36 22.56,-11.57 40.83,7.04c3.91,3.98 9.73,10.01 15.88,16.39c10.56,10.96 22.5,23.34 26.3,26.9c5.78,3.33 44.73,14.16 79.52,22.84c4.02,1 6.47,5.07 5.46,9.09c-0.85,3.41 -3.9,5.69 -7.27,5.69z" fill="#e09273"/>
   <path d="m284,651.07c-0.47,0 -0.94,-0.04 -1.42,-0.13c-38.68,-7.41 -61.71,-30.97 -68.45,-70.02c-0.7,-4.08 2.04,-7.96 6.12,-8.67c4.08,-0.7 7.96,2.04 8.66,6.12c5.72,33.17 23.67,51.55 56.49,57.83c4.07,0.78 6.74,4.71 5.96,8.78c-0.69,3.59 -3.83,6.09 -7.36,6.09z" fill="#e09273"/>
   <path d="m366.46,643.57c1.05,2.1 170.27,231.23 170.27,231.23c65.23,83.8 -111.55,196.03 -157.13,102.47l-135.06,-232.6c64.64,-15.97 123.5,-59.06 121.92,-101.1z" fill="#f4bbab"/>
   <path d="m548.28,853.59c-2.82,-23.49 -26.79,-58.46 -53.11,-50.95s-172.03,105.85 -151.85,140.37c29.45,50.4 25.46,99.62 81.86,127.82s108.81,30.61 194.69,-3.92c71.76,-28.86 -71.59,-213.32 -71.59,-213.32z" fill="#ea2688"/>
   <path d="m495.17,802.64c-16.36,-20.52 -46.74,-64.67 -51.66,-54.17c-32.33,62.9 -100.19,131.76 -156.15,124.2c17.5,26.8 33.07,59.1 55.96,70.34c74.34,-25.17 129.87,-84.08 151.85,-140.37z" fill="#ea2688"/>
   <path d="m548.27,861.09c-3.93,0 -7.23,-3.06 -7.48,-7.03c-1.41,-22.71 -16.5,-34.64 -31.1,-46.18c-2.36,-1.87 -4.6,-3.63 -6.79,-5.46c-3.18,-2.65 -3.62,-7.38 -0.97,-10.56c2.65,-3.18 7.38,-3.62 10.57,-0.97c2.04,1.71 4.2,3.42 6.5,5.23c15.56,12.3 34.94,27.62 36.76,57.01c0.26,4.14 -2.89,7.69 -7.02,7.95c-0.16,0.01 -0.32,0.01 -0.47,0.01z" fill="#b7006d"/>
   <path d="m526.99,731.19c-1.63,0 -3.26,-0.53 -4.64,-1.61c-3.25,-2.56 -3.81,-7.28 -1.25,-10.53c16.13,-20.49 19.66,-66.33 19.69,-66.79c0.31,-4.13 3.9,-7.24 8.03,-6.93c4.13,0.3 7.23,3.89 6.93,8.02c-0.15,2.06 -3.89,50.88 -22.87,74.98c-1.47,1.88 -3.67,2.86 -5.89,2.86z" fill="#b7006d"/>
   <path d="m343.31,950.52c-3.5,0 -6.63,-2.46 -7.34,-6.02c-0.82,-4.07 1.81,-8.02 5.87,-8.84c65.69,-13.24 125.97,-79.32 146.28,-135.56c1.41,-3.9 5.71,-5.92 9.6,-4.51c3.9,1.41 5.91,5.71 4.51,9.6c-10.94,30.3 -32.54,62.74 -59.26,89.01c-21.23,20.88 -55.49,47.56 -98.17,56.17c-0.5,0.1 -1,0.15 -1.49,0.15z" fill="#b7006d"/>
   <path d="m880.8,40.05c20.14,-13.79 53.69,-30.63 76.76,-23.19c-23.07,-28.52 -78.18,-20.89 -76.76,23.19z" fill="#a85f36"/>
   <path d="m755.78,19.84c-17.67,-9.46 -85.49,-6.33 -127.87,73.61c-24.86,46.91 -26.9,87.77 -29.03,115.66c-3.75,48.79 -25.79,78.18 -83.43,95.7c9.29,16.13 26.08,32.33 48.25,46.84c14.52,-2.37 25.25,-10.2 33.26,-21.96c3.58,12.57 1.61,25.57 -3.46,38.81c57.22,27.99 135.97,44.48 214.31,31.1c94.95,-16.21 176.49,-59.16 180.1,-108.92c3.9,-53.83 -20.36,-70.08 -22.05,-107.37c-2.08,-45.74 -6.22,-110.77 -72.34,-154.85c-51.12,-34.08 -114.15,-33.91 -137.74,-8.62z" fill="#a85f36"/>
   <rect fill="#f4bbab" height="277.64" rx="77.12" transform="matrix(.98406553 -.17780615 .17780615 .98406553 -47.301 151.774)" width="154.24" x="746.02" y="200.97"/>
   <path d="m663,83.2c-35.87,35.47 -24.02,79.6 -37.87,112.84c-8.86,21.26 -24.45,45.6 -11.19,86.13c13.03,39.81 72.34,81.18 114.1,80.54c41.92,-0.65 119.68,-22.37 152.12,-81.66s29.35,-130.68 -5.41,-179.07c-51.26,-71.38 -146.42,-83.35 -211.74,-18.77l-0.01,-0.01z" fill="#f4bbab"/>
   <path d="m741.02,42.54c-14.26,47.32 86.3,166.76 137.09,173.35c48.47,6.29 67.4,-137.24 6.93,-173.35s-128.5,-51.53 -144.02,0z" fill="#a85f36"/>
   <ellipse cx="757.76" cy="195.24" fill="#fff" rx="35.5" ry="31.17" transform="matrix(.11563063 -.99329228 .99329228 .11563063 476.216 925.342)"/>
   <ellipse cx="751.34" cy="193.31" fill="#111" rx="27.75" ry="19.23" transform="matrix(.11563063 -.99329228 .99329228 .11563063 472.456 917.253)"/>
   <path d="m735.69,141.24c-16.64,5.23 -22.22,-21.86 -6.17,-28.14c21.82,-8.54 64.4,11.33 76.74,26.21c7.44,8.97 4.04,23.31 -4.4,16.42c-13.08,-10.7 -44.1,-21.43 -66.17,-14.49z" fill="#773a11"/>
   <path d="m674.84,140.12c15.6,4.36 20.62,-25.17 5.08,-28.25c-16.69,-3.31 -40.4,4.52 -51.16,18.09c-5.9,7.45 -8.3,14.33 -0.36,10.89s29.97,-5.32 46.44,-0.73z" fill="#773a11"/>
   <path d="m667.68,253.64c-3.16,0 -6.1,-2.01 -7.13,-5.18c-5.38,-16.51 0.82,-26.6 8.43,-30.53c10.49,-5.42 24.48,-0.77 33.27,11.05c2.47,3.33 1.78,8.02 -1.54,10.49c-3.33,2.47 -8.03,1.78 -10.5,-1.54c-5.16,-6.94 -11.61,-8.09 -14.34,-6.67c-2.68,1.38 -3.09,6.31 -1.06,12.55c1.29,3.94 -0.87,8.17 -4.81,9.45c-0.77,0.26 -1.55,0.38 -2.32,0.38z" fill="#e09273"/>
   <path d="m758.14,282.15c6.56,2.36 2.02,28.9 -20.46,36.94c-26.56,9.5 -50.84,-10.67 -48.32,-14.98c2.62,-4.48 13.58,-3.03 35.41,-9.98c21.93,-6.98 26.81,-14.34 33.37,-11.98z" fill="#fff"/>
   <path d="m748.9,370.21c-3.87,0 -7.15,-2.97 -7.46,-6.9c-0.33,-4.13 2.74,-7.74 6.87,-8.07c26.67,-2.14 78.01,-28.07 89,-37.18c3.19,-2.64 7.92,-2.2 10.56,0.99c2.65,3.19 2.2,7.92 -0.99,10.56c-12.69,10.52 -66.97,38.14 -97.37,40.58c-0.2,0.02 -0.4,0.02 -0.6,0.02l-0.01,0z" fill="#e09273"/>
   <path d="m878.11,215.89c18.56,-27.51 59.56,-10.68 56.18,21.44c-3.09,29.43 -31.54,53.13 -48.09,45.86c-18.9,-8.3 -22.94,-45.3 -8.09,-67.3z" fill="#f4bbab"/>
   <path d="m892.71,271.82c-3.35,0 -6.4,-2.26 -7.27,-5.64c-6.01,-23.47 7.32,-45.25 23.12,-51.97c3.81,-1.62 8.21,0.16 9.83,3.97c1.62,3.81 -0.15,8.22 -3.96,9.84c-8.8,3.74 -18.72,17.79 -14.45,34.43c1.02,4.02 -1.4,8.1 -5.41,9.13c-0.62,0.16 -1.25,0.24 -1.86,0.24z" fill="#e09273"/>
   <path d="m907.43,253.63c-1.13,0 -2.28,-0.25 -3.36,-0.79l-12.98,-6.51c-3.7,-1.85 -5.19,-6.36 -3.34,-10.06c1.86,-3.71 6.36,-5.2 10.07,-3.35l12.98,6.51c3.7,1.85 5.19,6.36 3.34,10.06c-1.32,2.63 -3.96,4.14 -6.71,4.14z" fill="#e09273"/>
   <g clip-path="url(#svg_75)">
    <ellipse cx="645.75" cy="186.57" fill="#fff" rx="33.95" ry="28.26" transform="matrix(.11563063 -.99329228 .99329228 .11563063 385.764 806.423)"/>
    <ellipse cx="641.79" cy="184.75" fill="#111" rx="25.44" ry="17.63" transform="matrix(.11563063 -.99329228 .99329228 .11563063 384.077 800.868)"/>
   </g>
   <path d="m741.02,50.04c-0.67,0 -1.35,-0.09 -2.03,-0.28c-3.99,-1.13 -6.31,-5.27 -5.19,-9.26c4.99,-17.7 17.15,-26.43 17.66,-26.79c3.39,-2.39 8.07,-1.57 10.45,1.81c2.39,3.39 1.58,8.07 -1.81,10.45c-0.03,0.03 -8.37,6.22 -11.86,18.6c-0.93,3.31 -3.94,5.47 -7.22,5.47z" fill="#773a11"/>
   <path d="m746.94,389.15c43.96,16.35 128.36,-9.2 163.28,-37.03l9.13,46.99l46.33,0.61s-112.58,306.03 -169.07,306.07c-73.96,0.04 -95.5,-269.28 -95.5,-269.28l50.78,-16.06l-4.95,-31.3z" fill="#111"/>
   <path d="m916.86,309.56c-1.11,23.79 -13.56,46.37 -47.76,56.17c55.09,29.09 113.76,-17.02 118.8,-75.05" fill="#a85f36"/>
   <path d="m630.95,461.34c27.81,-9.14 70.16,-24.82 70.16,-24.82c22.17,101.91 50.78,187.73 95.1,256.27c4.68,-28.08 17.82,-60.14 45.89,-91.79c52.68,-65.68 94.15,-132.74 123.58,-201.27c0,0 116.14,2.85 147.58,16.95c31.45,14.09 35.8,513.63 28.35,543.4c-8.67,34.7 -47.7,65.05 -47.7,65.05c-52.04,42.51 -402.65,88.08 -456.86,25.2c-12.43,-43.48 -51.86,-78.12 -53.81,-127.72c-1.57,-40.09 30.54,-277.36 25.57,-321.61c-4.97,-44.25 -7.84,-129.8 22.14,-139.66z" fill="#ea2688"/>
   <path d="m796.33,550.41l-0.15,0c-13.13,-0.04 -26.89,-7.88 -39.81,-22.67c-23.87,-27.31 -40.28,-72.38 -36.58,-100.47c0.55,-4.11 4.32,-6.99 8.42,-6.45c4.11,0.54 7,4.31 6.46,8.41c-3.11,23.56 12.31,64.98 32.99,88.64c9.86,11.28 20.01,17.51 28.57,17.54l0.1,0c19.35,0 49.83,-18.3 77.69,-46.67c29.05,-29.58 49.38,-64.09 53.04,-90.06c0.58,-4.1 4.39,-6.96 8.48,-6.38c4.1,0.58 6.96,4.37 6.38,8.47c-4.15,29.43 -25.54,66.25 -57.2,98.48c-31.48,32.05 -64.5,51.16 -88.39,51.16z" fill="#b7b7b7"/>
   <path d="m793.41,569.91c-0.36,0 -0.72,-0.02 -1.08,-0.07c-4.1,-0.59 -6.94,-4.4 -6.35,-8.5l2.8,-19.5c0.6,-4.1 4.41,-6.94 8.5,-6.36c4.1,0.59 6.94,4.4 6.35,8.5l-2.81,19.5c-0.54,3.74 -3.74,6.43 -7.41,6.43z" fill="#b7b7b7"/>
   <path d="m811.82,580.18c2,-11.19 -5.49,-21.03 -17.07,-21.57c-11.9,-0.55 -22.81,8.89 -24.03,20.65c-1.16,11.27 7.14,20.08 18.26,20.08c10.84,0 20.93,-8.41 22.84,-19.16z" fill="#2471ed"/>
   <path d="m836.99,1074.41c-2.86,0 -5.59,-1.64 -6.84,-4.41c-8.31,-18.34 -29.8,-97.05 -33.74,-166.3c-0.84,-14.77 0.08,-34.22 1.15,-56.74c2.28,-48.29 5.13,-108.39 -8.51,-151.93c-1.24,-3.95 0.96,-8.16 4.92,-9.4c3.95,-1.24 8.16,0.96 9.39,4.92c14.44,46.07 11.52,107.65 9.18,157.12c-1.04,22.1 -1.95,41.19 -1.15,55.18c3.83,67.41 24.46,143.38 32.42,160.97c1.71,3.77 0.04,8.21 -3.74,9.92c-1,0.45 -2.05,0.67 -3.09,0.67l0.01,0z" fill="#b7006d"/>
   <ellipse cx="780.45" cy="739.21" fill="#b7006d" rx="10.3" ry="19.03"/>
   <ellipse cx="780.45" cy="908.27" fill="#b7006d" rx="10.3" ry="19.03" transform="matrix(.99756527 -.06973906 .06973906 .99756527 -61.445 56.643)"/>
   <path d="m637.03,1057.83c-3.64,0 -6.83,-2.66 -7.4,-6.37c-1.39,-9.05 -10.86,-25.6 -20.88,-43.12c-16.74,-29.25 -35.71,-62.41 -32.96,-86.58c3.82,-33.55 25.1,-281.71 25.52,-320.84c0.04,-4.11 3.39,-7.42 7.5,-7.42l0.08,0c4.14,0.05 7.46,3.44 7.42,7.58c-0.43,39.41 -21.78,288.71 -25.62,322.38c-2.19,19.29 16.25,51.52 31.08,77.43c11.2,19.58 20.88,36.49 22.69,48.3c0.62,4.1 -2.19,7.93 -6.28,8.55c-0.39,0.06 -0.77,0.09 -1.15,0.09z" fill="#b7006d"/>
   <path d="m902.82,354.58c-1.51,0 -3.04,-0.46 -4.37,-1.41c-3.36,-2.42 -4.13,-7.1 -1.72,-10.47c5.65,-7.87 11.29,-16.97 12.66,-33.75c0.34,-4.13 3.96,-7.2 8.08,-6.86c4.13,0.33 7.21,3.96 6.87,8.08c-1.6,19.63 -8.36,31.44 -15.42,41.28c-1.47,2.04 -3.77,3.13 -6.1,3.13z" fill="#773a11"/>
   <path d="m1113.26,416.68c66.65,32.97 116.35,161.79 136.23,232.57c10.86,38.68 42.01,73.32 28.09,165.36c-8.82,58.31 19.18,86.79 25.36,133.48c5.67,42.87 -90.1,79.62 -158.18,55.59s-107.1,-90.64 -122.63,-123.83c-12.35,-26.4 -8.29,-41.85 5.78,-66.41c0,0 -4.01,-92.11 -18.69,-129.48c-14.68,-37.38 62.9,-287.63 104.04,-267.28z" fill="#ea2688"/>
   <path d="m930.55,1156.58c-30.36,4.06 -82.26,-173.38 -35.63,-187.05s79.9,181.12 35.63,187.05z" fill="#111"/>
   <path d="m763.96,999.47l258.02,-94.29c76.75,-25.33 133.31,202.47 55.56,211.98l-273.38,35.08c12.43,-56.57 -3.96,-121.25 -40.2,-152.76l0,-0.01z" fill="#f4bbab"/>
   <path d="m1302.93,948.09c4.39,41.76 -2.85,75.56 -38.27,92.46s-54.85,23.32 -71.62,49.9c-44.45,70.45 -107.94,35.94 -157.29,46.17c10.9,-61.98 -23.87,-140.35 -61.61,-215.17c4.03,-8.85 22.75,-45.38 47.99,-41.6s277.01,32.04 280.8,68.24z" fill="#ea2688"/>
   <path d="m876.09,952.17c-3.21,-21.78 76.31,-47.36 93.55,-37.16c62.83,37.16 88.49,184.47 66.12,221.61c-8.08,13.4 -92.39,19.31 -105.21,19.96c32.68,-34.61 16.23,-149.36 -54.46,-204.41z" fill="#ea2688"/>
   <path d="m1296.61,927.86c-1.87,0 -3.75,-0.7 -5.2,-2.1c-26.33,-25.34 -38.44,-76.92 -38.94,-79.1c-0.93,-4.04 1.59,-8.06 5.62,-8.99c4.03,-0.93 8.07,1.59 9,5.62c0.11,0.49 11.62,49.43 34.72,71.66c2.99,2.88 3.08,7.62 0.2,10.61c-1.47,1.53 -3.43,2.3 -5.4,2.3z" fill="#b7006d"/>
   <path d="m1035.75,1144.12c-1.04,0 -2.1,-0.22 -3.11,-0.68c-3.77,-1.73 -5.43,-6.18 -3.7,-9.94c7.7,-16.85 11.67,-53.35 3.18,-96.91c-9.24,-47.4 -30.71,-88.13 -60.45,-114.68c-3.09,-2.76 -3.36,-7.5 -0.6,-10.59c2.75,-3.09 7.5,-3.36 10.59,-0.6c32.17,28.72 55.32,72.4 65.18,123c8.03,41.18 6.36,82.8 -4.26,106.01c-1.26,2.76 -3.98,4.39 -6.83,4.39z" fill="#b7006d"/>
   <path d="m876.09,959.67c-0.77,0 -1.55,-0.11 -2.32,-0.36c-3.94,-1.28 -6.09,-5.51 -4.81,-9.45c13.67,-42.1 80.95,-42.41 102.13,-41.42c7.19,-19.55 27.65,-29.16 39.96,-33.3c-10.37,-25.64 5.16,-56.24 9.45,-63.88c1.04,-28.58 -10.13,-92.72 -18.54,-125.44c-1.03,-4.01 1.38,-8.1 5.39,-9.13c4.02,-1.03 8.1,1.39 9.13,5.4c9.04,35.16 20.61,102.29 18.91,131.77c-0.06,1.24 -0.44,2.44 -1.09,3.49c-0.21,0.35 -21.73,36.27 -6.07,58.13c1.49,2.08 1.82,4.77 0.87,7.14s-3.03,4.1 -5.54,4.59c-0.34,0.07 -35.03,7.17 -39.53,30.52c-0.73,3.79 -4.22,6.4 -8.06,6.05c-0.21,-0.02 -21.18,-1.89 -43.4,1.46c-19.11,2.87 -43.19,10.28 -49.35,29.25c-1.03,3.17 -3.97,5.18 -7.13,5.18zm151.82,-146.24l0.01,0l-0.01,0z" fill="#b7006d"/>
   <path d="m763.96,999.47l-17.18,4.06s-104.87,11.12 -133.21,15.5s39.72,132.5 58.51,139.41s72.57,6.45 95.23,-4.37l36.85,-1.83c49.95,-6.41 14.75,-172.85 -40.2,-152.77z" fill="#f4bbab"/>
   <path d="m613.57,1019.03c-35.06,4.73 -90.67,18.99 -98.54,23.89s-41.04,46.27 -56.53,62.26c-19.42,20.05 8.77,53.39 35.29,28.98s44.71,-48.08 44.71,-48.08l84.27,-19.31l-9.2,-47.74z" fill="#f4bbab"/>
   <path d="m620.11,1052.97c-8.14,2.63 -80.77,16.24 -86.13,22.16c-5.36,5.92 -55.28,55.66 -63.76,67.23c-15.42,21.07 19.05,47.47 35.97,27.04c12.14,-14.66 51.59,-53.85 51.59,-53.85l75.6,-19.96l-13.27,-42.62z" fill="#f4bbab"/>
   <path d="m631.49,1089.54c-10.16,1.69 -66.55,12.09 -75.9,18.96c-9.34,6.87 -39.86,40.36 -46.24,47.46c-18.38,20.5 15.13,50.59 33.49,33.59c18.36,-17 44.38,-41.12 44.38,-41.12l66.3,-19.19l-22.03,-39.7z" fill="#f4bbab"/>
   <path d="m648.42,1120.07c-13.05,3.11 -54.57,18.72 -59.89,25.64s-16.68,32.71 -22.44,44.3c-12.83,25.84 31.44,46.1 43.13,20.48c8.46,-18.52 15.89,-33 15.89,-33l46.97,-19.05l-23.66,-38.37z" fill="#f4bbab"/>
   <path d="m587.21,1155.93c-1.31,0 -2.63,-0.34 -3.84,-1.07c-3.56,-2.12 -4.71,-6.73 -2.59,-10.28c2.44,-4.08 8.67,-9.75 36.42,-20.94c14.61,-5.89 28.26,-10.49 28.83,-10.68c3.93,-1.32 8.18,0.79 9.5,4.72c1.32,3.92 -0.79,8.17 -4.71,9.5c-24.58,8.27 -53.38,20.34 -57.22,25.19c-1.42,2.29 -3.87,3.56 -6.39,3.56zm6.44,-3.65c0,0.01 -0.01,0.02 -0.02,0.03c0.01,-0.01 0.02,-0.02 0.02,-0.03z" fill="#e09273"/>
   <path d="m501.35,1181.25c-3.15,0 -6.08,-2 -7.12,-5.15c-2.06,-6.23 -0.47,-15.69 24.81,-42.55c13.62,-14.47 28.41,-27.9 31.62,-30.7c6.06,-5.29 27.59,-10.9 79.44,-20.68c4.06,-0.77 7.99,1.91 8.76,5.98c0.77,4.07 -1.91,7.99 -5.98,8.76c-54.1,10.21 -69.26,15.04 -72.42,17.3c-2.94,2.57 -15.94,14.37 -28.57,27.59c-20.56,21.52 -22.95,28.94 -23.23,30.27c0.86,3.73 -1.25,7.57 -4.96,8.8c-0.78,0.26 -1.57,0.38 -2.35,0.38z" fill="#e09273"/>
   <path d="m470.22,1149.86c-1.85,0 -3.7,-0.68 -5.15,-2.05c-3.01,-2.85 -3.14,-7.6 -0.29,-10.61c2.33,-2.46 57.11,-60.33 63.8,-67.28c2.16,-2.24 5.78,-5.99 49.35,-15.81c20.57,-4.64 40.58,-8.47 40.78,-8.51c4.07,-0.78 7.99,1.9 8.77,5.96c0.78,4.07 -1.89,8 -5.96,8.78c-35.09,6.7 -76.31,16.29 -82.37,20.24c-7.66,7.96 -62.92,66.34 -63.48,66.93c-1.48,1.56 -3.46,2.35 -5.45,2.35zm68.78,-69.18s0,0 0,0z" fill="#e09273"/>
   <path d="m1098.75,920.2c-2.57,0 -5.07,-1.32 -6.47,-3.68c-8.09,-13.7 -34.02,-24.36 -71.12,-29.24c-4.11,-0.54 -7,-4.3 -6.46,-8.41c0.54,-4.11 4.31,-7.01 8.41,-6.46c29.94,3.94 68.48,13.46 82.09,36.47c2.1,3.57 0.92,8.17 -2.64,10.28c-1.2,0.7 -2.52,1.04 -3.81,1.04z" fill="#b7006d"/>
   <path d="m915.05,376.96c19.23,4.62 41.79,15.66 50.63,16.96c4.43,0.65 49.14,-0.73 58.83,3.84c9.69,4.57 34.02,38.31 37.65,61.72l-85.04,3.25l6.29,23.59s-100.72,65.84 -141.31,114.68c41.87,-66.77 89.03,-160.24 72.95,-224.04z" fill="#ea2688"/>
   <path d="m842.09,608.5c-1.44,0 -2.9,-0.41 -4.19,-1.28c-3.43,-2.32 -4.34,-6.98 -2.02,-10.41c28.5,-42.26 117.09,-100.07 138.86,-113.9l-4.86,-18.25c-0.59,-2.2 -0.15,-4.55 1.21,-6.39c1.35,-1.83 3.47,-2.95 5.75,-3.04l77.18,-2.94c-3.93,-15.48 -23.01,-36.32 -35.04,-49.47c-2.8,-3.05 -2.59,-7.8 0.47,-10.59c3.05,-2.8 7.8,-2.59 10.59,0.46c21.84,23.86 41.3,46.97 39.6,67.41c-0.32,3.78 -3.4,6.73 -7.19,6.88l-75.66,2.88l3.87,14.52c0.85,3.19 -0.49,6.57 -3.29,8.31c-1.09,0.67 -108.95,67.87 -139.05,112.5c-1.45,2.15 -3.82,3.31 -6.23,3.31zm220.07,-149.02l0.01,0l-0.01,0z" fill="#b7006d"/>
   <path d="m751.89,420.45l-3.57,-22.58c-19.81,7.08 -43.57,19.42 -50.26,23.32c-7.87,4.59 -59.03,49.2 -59.03,49.2s-28.96,56.41 -30.22,68.87l61.7,-36.73l7.93,29.52s96.75,125.53 117.77,160.74c-74.27,-153.96 -77.86,-191.16 -44.32,-272.34z" fill="#ea2688"/>
   <path d="m796.22,700.29c-2.44,0 -4.83,-1.19 -6.27,-3.38c-42.18,-64.01 -80.53,-116.36 -117.26,-160.04c-0.7,-0.84 -1.21,-1.82 -1.5,-2.88l-5.35,-19.95l-53.2,31.67c-2.8,1.66 -6.36,1.33 -8.8,-0.83c-2.44,-2.16 -3.21,-5.65 -1.9,-8.63l30.22,-68.88c0.45,-1.02 1.12,-1.93 1.96,-2.66c0.16,-0.13 15.96,-13.8 25.82,-22.24c3.15,-2.69 7.88,-2.32 10.58,0.82c2.69,3.15 2.32,7.88 -0.82,10.58c-8.19,7.01 -20.52,17.65 -24.48,21.08l-20.14,45.9l41.6,-24.77c2.02,-1.2 4.48,-1.38 6.66,-0.5c2.17,0.88 3.81,2.73 4.42,5l7.49,27.92c36.77,43.87 75.13,96.28 117.22,160.16c2.28,3.46 1.32,8.11 -2.14,10.39c-1.27,0.84 -2.7,1.24 -4.11,1.24z" fill="#b7006d"/>
  </symbol>
  <symbol height="627.17" id="svg_78" viewBox="0 0 479.609 627.169" width="479.61" xmlns="http://www.w3.org/2000/svg">
   <path d="m442.16,576.48l-310.57,45.23c-22.71,3.31 -43.89,-11.62 -47.2,-33.37l-78.95,-518.98c-3.34,-21.96 12.77,-41.05 35.86,-42.63l315.77,-21.64c21.16,-1.45 40.73,14.31 43.83,35.17l73.29,493.31c3.08,20.67 -11.22,39.88 -32.03,42.91z" fill="#e3e5e5"/>
   <path d="m125.28,627.17c-22.64,0 -42.47,-15.92 -45.84,-38.07l-78.95,-518.99c-1.77,-11.68 1.25,-23.1 8.51,-32.15c7.67,-9.58 19.02,-15.33 31.95,-16.22l315.78,-21.64c23.62,-1.61 45.65,16.07 49.12,39.43l73.29,493.31c1.68,11.3 -1.15,22.57 -7.96,31.73c-6.84,9.21 -16.89,15.19 -28.3,16.86l-310.57,45.23c-2.36,0.34 -4.71,0.51 -7.03,0.51zm234.49,-617.17c-0.78,0 -1.57,0.03 -2.36,0.08l-315.77,21.63c-10.11,0.7 -18.94,5.13 -24.84,12.5c-5.49,6.85 -7.77,15.52 -6.42,24.4l78.95,518.98c2.89,19 21.53,32.09 41.54,29.17l310.57,-45.23l0.72,4.95l-0.72,-4.95c8.76,-1.28 16.47,-5.86 21.72,-12.92c5.21,-7.02 7.38,-15.65 6.09,-24.3l-73.29,-493.31c-2.61,-17.54 -18.57,-31 -36.19,-31z" fill="#e3e5e5"/>
   <path d="m368.38,526.98l-176.68,24.32c-27.89,3.84 -53.96,-14.87 -58.04,-41.83c-4.09,-26.97 15.42,-51.69 43.38,-55.18l177.17,-22.13c26.51,-3.31 51.02,15.13 54.89,41.15c3.88,26.01 -14.28,50.03 -40.72,53.67z" fill="#b7b7b7"/>
   <path d="m184.44,556.8c-27.48,0 -51.63,-19.56 -55.72,-46.58c-2.13,-14.04 1.44,-28.05 10.07,-39.44c9.03,-11.93 22.4,-19.55 37.64,-21.45l177.16,-22.13c29.08,-3.63 56.19,16.73 60.46,45.38c2.06,13.82 -1.41,27.58 -9.77,38.74c-8.49,11.33 -21,18.65 -35.21,20.61l-176.68,24.32c-2.67,0.37 -5.33,0.55 -7.95,0.55zm175.89,-120.02c-1.82,0 -3.65,0.11 -5.5,0.34l-177.17,22.13c-12.53,1.57 -23.51,7.8 -30.9,17.57c-6.98,9.22 -9.88,20.55 -8.16,31.9c3.67,24.22 27.19,41.1 52.42,37.63l176.68,-24.33l0.68,4.96l-0.68,-4.96c11.55,-1.59 21.7,-7.52 28.57,-16.7c6.75,-9.01 9.55,-20.11 7.89,-31.27c-3.21,-21.51 -22.28,-37.27 -43.83,-37.27z" fill="#b7b7b7"/>
   <path d="m222.21,147.45c-63.98,5.49 -108.96,60.65 -99.52,123.06c9.44,62.35 69.4,106.81 132.97,99.49c62.54,-7.2 105.18,-61.98 96.14,-122.5c-9.04,-60.6 -66.65,-105.45 -129.59,-100.05zm28.38,188.83c-44.2,4.89 -85.71,-26.12 -92.24,-69.35c-6.53,-43.26 24.54,-81.64 68.95,-85.65c43.9,-3.96 84.26,27.24 90.6,69.62c6.33,42.35 -23.6,80.54 -67.31,85.38z" fill="#fff"/>
   <path d="m263.04,127.4l-9.92,-11.03c-1.29,-1.44 -3.3,-2 -5.16,-1.45l-29,8.7l-31.16,-3.74c-2.06,-0.25 -4.06,0.81 -5.03,2.65l-6.53,12.51c-0.65,1.24 -0.74,2.71 -0.26,4.03s1.5,2.38 2.8,2.91l42.65,17.44c0.61,0.25 1.25,0.37 1.89,0.37s0,0 0,0c0.97,0 1.94,-0.28 2.77,-0.84l36.01,-24.05c1.2,-0.81 2,-2.1 2.18,-3.54c0.18,-1.43 -0.27,-2.88 -1.24,-3.96z" fill="#fff"/>
   <path d="m223.32,169.79c-1.96,0 -3.87,-0.37 -5.68,-1.11l-42.64,-17.44c-2.56,-1.05 -3.78,-3.97 -2.74,-6.53s3.97,-3.78 6.52,-2.73l42.64,17.44c1.53,0.62 3.31,0.44 4.67,-0.47l36,-24.05c2.3,-1.53 5.4,-0.92 6.94,1.38c1.53,2.3 0.92,5.4 -1.38,6.94l-36,24.05c-2.47,1.65 -5.36,2.52 -8.33,2.52z" fill="#e3e5e5"/>
   <path d="m231.9,87.81l-37,2.89l-22.61,26.39l50.44,33.77l38.67,-41.01l-29.5,-22.04z" fill="#55a2ff"/>
   <path d="m222.72,155.86c-0.96,0 -1.93,-0.27 -2.78,-0.84l-50.43,-33.77c-1.19,-0.8 -1.98,-2.06 -2.17,-3.48c-0.19,-1.41 0.23,-2.84 1.16,-3.93l22.6,-26.39c0.87,-1.01 2.09,-1.63 3.41,-1.73l37,-2.9c1.21,-0.09 2.41,0.26 3.39,0.98l29.49,22.04c1.14,0.85 1.86,2.15 1.99,3.57c0.12,1.42 -0.37,2.83 -1.34,3.86l-38.67,41.02c-0.98,1.04 -2.31,1.57 -3.64,1.57l-0.01,0zm-42.97,-39.79l42.24,28.28l31.92,-33.85l-23.49,-17.56l-33.07,2.58l-17.6,20.55z" fill="#55a2ff"/>
   <g fill="#2471ed">
    <path d="m172.29,122.09c-2.58,0 -4.77,-1.98 -4.98,-4.59c-0.22,-2.75 1.83,-5.17 4.58,-5.39l89.1,-7.25c2.75,-0.22 5.17,1.83 5.39,4.58s-1.83,5.17 -4.58,5.39l-89.1,7.25c-0.14,0.01 -0.28,0.01 -0.41,0.01z"/>
    <path d="m222.73,155.86c-1.33,0 -2.66,-0.52 -3.65,-1.57l-33.06,-35.17c-1.12,-1.19 -1.58,-2.85 -1.25,-4.45l5.24,-25c0.56,-2.7 3.21,-4.43 5.92,-3.86c2.7,0.56 4.43,3.21 3.87,5.92l-4.71,22.44l31.28,33.27c1.89,2.01 1.79,5.18 -0.22,7.07c-0.96,0.9 -2.19,1.35 -3.42,1.35z"/>
    <path d="m222.72,155.87c-0.8,0 -1.62,-0.2 -2.38,-0.61c-2.43,-1.32 -3.32,-4.36 -2,-6.79l20.28,-37.28l-11.14,-21.04c-1.29,-2.45 -0.36,-5.47 2.08,-6.76s5.47,-0.36 6.76,2.08l12.39,23.42c0.79,1.48 0.78,3.25 -0.02,4.72l-21.57,39.64c-0.91,1.67 -2.62,2.61 -4.39,2.61l-0.01,0.01z"/>
   </g>
   <path d="m224.64,163.59l15.67,-25.31l-17.89,-13.56c-2.14,-1.61 -5.16,-1.26 -6.87,0.79l-13.52,16.3l22.61,21.78z" fill="#fff"/>
   <path d="m224.64,168.59c-1.29,0 -2.53,-0.5 -3.47,-1.4l-20.94,-20.17c-1.98,-1.92 -2.04,-5.08 -0.13,-7.07c1.92,-1.99 5.08,-2.05 7.07,-0.13l16.48,15.87l11.08,-17.9c1.46,-2.35 4.54,-3.08 6.89,-1.62s3.07,4.53 1.62,6.88l-14.35,23.17c-0.79,1.28 -2.13,2.14 -3.63,2.33c-0.2,0.02 -0.41,0.04 -0.62,0.04z" fill="#e3e5e5"/>
  </symbol>
 </defs>
 <g class="layer">
  <title>Layer 1</title>
  <ellipse cx="859.05" cy="1065.36" fill="#fff" id="svg_26" rx="35.5" ry="31.17" transform="matrix(0.115631 -0.993292 0.993292 0.115631 476.216 925.342)"/>
  <path d="m1634.14,282.15c6.56,2.36 2.02,28.9 -20.46,36.94c-26.56,9.5 -50.84,-10.67 -48.32,-14.98c2.62,-4.48 13.58,-3.03 35.41,-9.98c21.93,-6.98 26.81,-14.34 33.37,-11.98z" fill="#fff" id="svg_31"/>
  <use id="svg_74" transform="matrix(1 0 0 1 0 0) matrix(0.859199 0 0 0.859199 15.4261 137.426)" xlink:href="#svg_73"/>
  <use id="svg_77" transform="matrix(1 0 0 1 0 0) matrix(0.833257 0 0 0.833257 950.389 130.725)" xlink:href="#svg_76"/>
  <use id="svg_79" transform="matrix(0.649647 0 0 0.649647 834 142)" xlink:href="#svg_78"/>
 </g>
</svg>