<svg xmlns="http://www.w3.org/2000/svg" width="2400" height="3000" xmlns:v="https://vecta.io/nano"><style><![CDATA[.B{fill:#e09273}.C{fill:#111}.D{fill:#5ac4ff}.E{fill:#a85f36}.F{fill:#e3e5e5}.G{fill:#b7b7b7}.H{fill:#2199ce}.I{fill:#b7006d}.J{fill:#0a3ea5}.K{fill:#ea2688}]]></style><g transform="matrix(1.201956 0 0 1.200511 505.2 304.8)"><svg width="1091.221" height="1994.151"><clipPath id="A"><ellipse cx="482.261" cy="148.549" rx="16.297" ry="17.753" transform="matrix(.973219 -.22988 .22988 .973219 -21.233 114.838)"/></clipPath><clipPath id="B"><ellipse cx="424.526" cy="155.172" rx="17.618" ry="19.324" transform="matrix(.977313 -.211802 .211802 .977313 -23.234 93.435)"/></clipPath><path d="M528.353 306.901c32.18 9.791 52.528 17.93 78.981 99.322s36.627 70.201 45.783 105.81 16.278 96.628-6.104 120.84c-18.479 19.989-70.201 35.841-108.862 9.388-33.844-23.156-44.766-47.587-43.748-88.283s-27.598-80.606-23.973-100.954 57.924-146.123 57.924-146.123z" class="D"/><path d="M820.441 917.179c-15.62-21.243-56.805-96.251-70.739-118.03s-116.272 27.155-92.256 62.564l70.046 101.054c19.803 29.403 123.683-3.79 92.949-45.588z" class="B"/><path d="M651.128 572.636c18.044 29.812 37.2 54.375 32.913 82.431 33.579 13.994 53.669 93.56 78.054 125.973 19.382 21.565 41.751 23.024 30.08 54.147-9.932 26.486-86.227 75.161-118.163 78.438-38.226 3.923-79.37-75.818-85.646-118.183-5.577-37.646-23.189-59.669-35.8-67.469-24.199-14.968-63.835-55.701-49.844-124.318 16.084-78.876 148.406-31.018 148.406-31.018z" class="D"/><g class="B"><path d="M781.837 1083.015s-12.028-17.216-17.928-26.953c-9.833-16.225-30.307-2.442-23.579 13.078 4.481 10.337 13.726 28.305 23.112 31.09s22.068-.153 26.558-3.773 2.582-34.782 2.011-44.301l-25.999.805.388 7.592"/><path d="M804.103 1077.634s-3.408-5.135-15.663-19.618-33.418-.682-23.579 13.078c5.252 7.346 20.024 29.1 29.41 31.886s20.416-2.228 24.906-5.849 5.478-37.713 4.907-47.232l-29.276.907.792 15.823"/><path d="M833.916 1077.634s-8.082-8.231-20.338-22.714-33.418-.682-23.579 13.078c5.252 7.346 24.699 32.196 34.085 34.981s20.416-2.228 24.906-5.849 3.065-42.043 2.494-51.562l-30.463 4.814.357 13.574"/><path d="M820.441 917.179c9.337 12.862 48.236 78.844 61.531 112.819s-105.234 48.282-115.574 30.556-45.174-60.138-38.906-97.787 92.949-45.588 92.949-45.588z"/></g><g class="E"><path d="M816.837 1103.761a4.98 4.98 0 0 1-3.085-1.068c-7.529-5.913-21.888-22.787-27.927-31.941-4.73-7.172-3.496-16.775 2.937-22.836 6.374-6.006 15.405-6.21 23.006-.52 7.155 5.358 13.289 13.149 13.546 13.479a5 5 0 0 1-7.874 6.165c-.053-.068-5.593-7.09-11.666-11.638-5.03-3.765-8.522-1.745-10.155-.207-2.476 2.332-3.767 6.534-1.447 10.052 5.473 8.296 19.208 24.44 25.756 29.584a5 5 0 0 1-3.092 8.932z"/><path d="M785.802 1103.761a4.99 4.99 0 0 1-3.999-1.994l-6.739-8.721c-5.341-6.847-11.395-14.606-14.397-19.229-6.397-9.852-3.028-18.808 3.147-23.314 7.684-5.605 20.444-5.511 28.498 4.349a5 5 0 0 1-7.745 6.326c-4.248-5.201-11.02-5.397-14.858-2.597-3.113 2.271-3.339 5.656-.655 9.79 2.766 4.259 8.679 11.837 13.895 18.523l6.844 8.86a4.998 4.998 0 0 1-3.991 8.006z"/></g><path d="M861.18 1068.196l-24.601-19.738c-16.356-13.327-29.959 8.843-20.789 19.738 8.606 10.225 31.877 28.424 39.846 30.156s23.908-2.079 27.374-10.741 2.423-45.043-1.039-57.614l-30.796 10.443 1.246 20.772" class="B"/><path d="M834.915 1089.589a4.975 4.975 0 0 1-2.89-.923c-6.569-4.663-12.435-10.115-17.611-14.926l-2.018-1.872c-7.148-6.607-5.882-18.643-.215-25.737 5.111-6.396 14.949-10.229 27.229-1.794l29.683 19.693a5 5 0 1 1-5.529 8.332l-29.75-19.738c-4.167-2.86-9.88-5.184-13.821-.252-2.936 3.677-3.345 9.81-.81 12.152l2.038 1.891c4.95 4.601 10.56 9.814 16.592 14.097a5.002 5.002 0 0 1 1.183 6.972 4.995 4.995 0 0 1-4.082 2.105z" class="E"/><path d="M842.199 966.417c4.529 17.663 16.274 41.65 16.727 50.255l2.271 37.665c.382 5.485-6.085 23.156-7.378 28.609-4.801 20.241-34.18 14.386-29.273-7.955 1.026-4.672 4.937-19.503 4.937-19.503-.948-10.067-5.012-28.836-5.012-28.836-22.878-7.272-34.053-23.248-38.927-43.286" class="B"/><path d="M839.141 1100.353c-1.554 0-3.104-.175-4.61-.519-9.729-2.223-17.96-11.838-14.869-25.916.903-4.11 3.892-15.54 4.756-18.83-.798-7.479-3.151-19.293-4.252-24.617-20.87-7.515-33.798-22.565-39.48-45.924a5 5 0 1 1 9.717-2.363c5.037 20.706 16.676 33.692 35.583 39.702a4.998 4.998 0 0 1 3.372 3.707c.168.777 4.138 19.179 5.104 29.425a5 5 0 0 1-.144 1.744l-4.888 19.301c-1.906 8.68 2.756 12.979 7.328 14.022 4.832 1.099 10.475-1.034 12.197-8.294.439-1.849 1.35-4.759 2.405-8.128 1.765-5.635 5.049-16.123 4.85-18.979l-2.276-37.75c-.198-3.765-3.728-12.957-7.142-21.847-3.39-8.829-7.232-18.836-9.436-27.429a5.001 5.001 0 0 1 3.602-6.086 5.003 5.003 0 0 1 6.085 3.602c2.06 8.033 5.792 17.753 9.084 26.328 4.196 10.929 7.511 19.561 7.792 24.906l2.266 37.58c.307 4.399-1.996 12.168-5.283 22.663l-2.218 7.448c-2.648 11.163-11.166 16.253-19.544 16.253z" class="E"/><path d="M792.175 835.186c12.206-1.749 41.626 48.748 39.191 61.567-5.281 27.81-74.915 77.205-113.566 73.456-18.586-1.803-50.365-38.264-43.788-56.585s39.925-17.217 65.937-36.685c30.695-22.973 36.714-39.531 52.226-41.754z" class="D"/><path d="M674.007 918.626a5 5 0 0 1-4.126-7.819c8.175-11.981 29.073-20.931 47.511-28.826 7.912-3.388 15.384-6.588 19.998-9.336 7.273-4.332 18.542-14.261 28.484-23.021 12.755-11.237 20.192-17.67 24.718-19.18a5 5 0 1 1 3.165 9.486c-2.823.941-13.486 10.337-21.272 17.196-10.771 9.49-21.908 19.303-29.978 24.11-5.184 3.088-12.596 6.262-21.179 9.937-16.331 6.993-36.655 15.697-43.187 25.271a4.998 4.998 0 0 1-4.135 2.183zm69.817-165.049a4.979 4.979 0 0 1-3.503-1.434c-12.339-12.121-29.622-24.73-29.794-24.855a5.001 5.001 0 0 1 5.881-8.088c.73.531 18.044 13.161 30.92 25.811a5 5 0 0 1-3.504 8.566z" class="H"/><path d="M362.61 44.013C359.553 21.54 342.74-3.207 314.784.342c-55.67 7.066-49.613 91.858-60.717 135.264s-18.16 78.042-61.071 119.113c-35.33 33.816-63.594 107.505-15.141 130.217 66.817 31.321 138.026-93.489 151.92-156.479S362.61 44.013 362.61 44.013z" fill="#773a11"/><g class="B"><path d="M395.706 351.708c-26.494.721-48.633-22.975-49.448-52.926l-2.675-98.32c-.155-49.523 94.863-43.447 95.945-2.61l2.675 98.32c.815 29.951-20.003 54.816-46.497 55.536z"/><path d="M453.165 52.585c27.124 15.37 41.957 32.417 42.389 76.491.413 42.144 20.705 46.56 14.15 76.641-8.533 39.16-45.171 49.123-81.751 44.351s-85.243-15.724-98.762-64.232-12.723-103.378 27.037-124.053 73.08-22.717 96.936-9.198z"/></g><path d="M365.384 26.042c-10.224-18.115-55.968-1.312-45.97 20.964 9.495 21.156 56.194-2.849 45.97-20.964z" class="C"/><path d="M343.218 159.416c7.778.864 15.021 19.317 21.503 17.157s-1.202-23.51 2.12-36.842c2.43-9.752 28.993-41.377 33.314-53.908 0 0 49.404 6.038 79.65-9.086 0 0 5.451 3.937 7.577 8.89 2.568-9.495-5.051-41.613-46.071-54.549-42.7-13.465-82.041-7.794-115.136 12.935-34.046 21.325-50.6 54.52-36.725 118.655 10.971 50.714 54.941 67.447 54.941 67.447l-.47-17.273-.702-53.426z" fill="#773a11"/><path d="M360.49 176.105c-6.079-11.533-17.363-30.952-34.727-23.025s-14.344 48.693 10.569 58.129 29.82-24.363 24.158-35.104z" class="B"/><path d="M413.507 206.403c1.988-.765 9.573 5.839 18.865 8.813s20.292 2.317 20.405 4.597c.225 4.561-14.554 12.05-26.964 6.958-12.703-5.212-16.282-18.837-12.306-20.368z" fill="#fff"/><path d="M333.474 298.696c-1.708-13.54-.149-39.508 10.109-45.253s34.458 15.149 72.573 12.187c23.004-1.788 30.645-8.878 38.479-7.138s10.082 29.228 9.56 37.68-20.04 24.504-45.594 26.208c-47.002 3.133-84.347-17.509-85.126-23.684z" class="D"/><path d="M468.533 120.839c-5.766 3.098-11.63-6.565-2.774-11.793s24.797-1.841 31.2 4.561 1.559 10.69-3.359 8.006-19.985-3.504-25.067-.773zm-32.109 2.935c7.252.552 8.501-11.188-.847-12.86-10.52-1.881-32.03 5.512-37.749 14.661-5.006 8.009.634 11.406 4.851 7.24 7.217-7.13 27.753-9.497 33.745-9.041z" fill="#4f2000"/><g class="E"><path d="M352.439 198.549a5.003 5.003 0 0 1-4.855-3.821c-3.975-16.368-15.909-22.048-19.768-21.424-2.73.419-5.288-1.433-5.718-4.161a5 5 0 0 1 4.16-5.718c9.455-1.486 25.948 7.959 31.044 28.943a4.999 4.999 0 0 1-4.863 6.181z"/><path d="M336.107 192.44a4.997 4.997 0 0 1-3.942-8.069c.199-.257 4.944-6.321 10.027-10.075a5 5 0 1 1 5.94 8.043c-3.963 2.928-8.037 8.124-8.078 8.176a4.993 4.993 0 0 1-3.947 1.925zm106.119 63.709c-14.354 0-44.299-5.734-54.226-9.191a4.999 4.999 0 1 1 3.289-9.443c9.105 3.171 37.711 8.635 50.937 8.635a5 5 0 1 1 0 10z"/></g><path d="M331.13 227.203a4.97 4.97 0 0 1-1.709-.303c-1.374-.5-33.77-12.821-44.855-63.157-12.144-55.146-1.429-95.769 31.848-120.736a5 5 0 0 1 6.001 7.998c-29.86 22.405-39.309 59.612-28.083 110.588 9.916 45.027 38.224 55.808 38.508 55.911a5 5 0 0 1-1.71 9.699z" fill="#4f2000"/><ellipse cx="482.261" cy="148.549" fill="#fff" rx="16.297" ry="17.753" transform="matrix(.973219 -.22988 .22988 .973219 -21.233 114.838)"/><g clip-path="url(#A)"><ellipse cx="484.731" cy="146.806" rx="9.152" ry="14.121" class="C"/></g><ellipse cx="424.526" cy="155.172" fill="#fff" rx="17.618" ry="19.324" transform="matrix(.977313 -.211802 .211802 .977313 -23.234 93.435)"/><g clip-path="url(#B)"><ellipse cx="428.507" cy="152.998" rx="9.344" ry="14.528" class="C"/></g><path d="M471.694 187.548a5 5 0 0 1-4.767-6.512c.326-1.028.309-1.657.258-1.902-.785-.249-3.957.267-6.861 4.585a5 5 0 0 1-6.939 1.357 4.999 4.999 0 0 1-1.358-6.939c5.811-8.639 14.255-10.551 19.595-7.973 3.699 1.785 7.185 6.495 4.838 13.896a5.003 5.003 0 0 1-4.765 3.489z" class="E"/><path d="M620.808 768.596c26.401 160.472 20.887 292.183-49.063 493.576-28.317 69.345-253.639 17.42-220.935-63.056 54.575-134.296 23.843-264.632 38.453-363.754 13.942-94.592 231.544-66.766 231.544-66.766z" class="F"/><path d="m406.267 1548.065-102.528 144.653c-30.297 42.744-88.392 54.961-133.339 28.04-51.062-30.584-64.4-98.656-28.655-146.249l105.312-140.218c47.699-61.536 194.372 61.059 159.21 113.774z" class="B"/><g class="F"><path d="M350.811 1199.116c-7.21 20.412-64.758 127.78-70.804 163.046-23.904 28.744-68.262 75.429-75.644 124.923-4.688 31.431 188.479 135.982 210.922 119.229 57.11-42.631 123.865-263.634 156.46-344.142s-201.803-117.216-220.935-63.056z"/><path d="M441.043 1603.852c-.334-11.764-57.196-32.159-126.05-75.546-57.152-36.014-90.647-80.184-98.928-77.85-17.306 4.878-36.814 50.47-31.233 60.141 18.087 31.338 172.536 150.366 219.907 138.413 14.453-3.647 36.759-29.101 36.303-45.158z"/></g><path d="M273.151 1430.729a4.999 4.999 0 0 1-5-4.996c-.001-1.319.053-32.688 6.969-64.631a5 5 0 0 1 9.774 2.117c-6.682 30.856-6.743 62.193-6.743 62.507a5.001 5.001 0 0 1-4.997 5.003z" class="G"/><path d="M343.616 1905.285c-.25-2.747-3.003-7.455-10.206-6.83-8.203.712-11.957 16.305-4.185 17.86s14.652-8.166 14.391-11.03z" class="I"/><path d="M239.927 1777.798c-.688-64.716 44.776-147.699 54.655-152.036 5.833-2.56 40.903 21.494 44.012 29.83-7.356 11.622-23.24 26.373-40.898 43.26l-57.77 78.946z" class="K"/><path d="m63.735 1781.258 50.531 4.446 12.936-14.957-46.364-6.864" class="C"/><path d="M59.708 1679.509c2.034-7.452 98.712-138.849 98.712-138.849 3.375 0 5.865.208 7.573 1.565l-4.828 7.484c12.096 33.127 45.789 67.67 51.982 68.228 9.354.842 24.06 1.114 32.349 3.266s75.02 47.506 75.02 47.506c-22.234 32.813-42.932 70.045-62.499 110.531 0 0 5.108 52.16 15.957 59.619s68.484 14.239 64.415 60.347-166.802 31.869-202.061 8.137-11.527-110.523-37.971-158.665l-38.649-69.169z" class="K"/><g class="I"><path d="M343.616 1905.285c1.151 11.947 1.491 23.173 0 32.771-16.437 16.47-181.944 22.792-221.981-16.539-37.192-36.537-16.614-129.768-40.797-157.635l-17.103 17.375s-46.62-83.959-35.089-97.7 38.125-30.798 38.125-30.798c14.731-10.935 31.298 63.79 45.624 99.593 26.043 65.087 9.959 117.609 29.162 136.829 23.955 23.976 135.909 48.269 202.059 16.104z"/><path d="M113.788 1746.889a4.998 4.998 0 0 1-2.969-9.025c16.012-11.794 25.442-35.152 25.874-64.086.398-26.709-6.964-54.663-19.213-72.952a5 5 0 0 1 8.309-5.565c13.32 19.889 21.33 50.031 20.903 78.666-.486 32.558-11.119 58.123-29.942 71.987a4.976 4.976 0 0 1-2.961.975zm106.023 32.614a5 5 0 0 1-4.977-4.586c-3.883-46.68 28.928-125.333 40.674-147.186a5 5 0 0 1 8.808 4.734c-11.385 21.184-43.215 97.169-39.517 141.623a4.998 4.998 0 0 1-4.988 5.414z"/></g><path d="M246.606 1779.504a5.002 5.002 0 0 1-1.186-9.858l11.202-2.744c-1.474-4.189-3.357-10.267-4.356-16.379a5.002 5.002 0 0 1 5.524-5.772c4.9.581 10.102.771 13.584.573-5.138-8.265-6.494-20.452-6.811-24.449a8.258 8.258 0 0 1-.078-1.68 5 5 0 0 1 4.991-4.729h.002a5.001 5.001 0 0 1 4.596 3.029c2.209-.042 6.362-1.031 11.045-2.579-5.032-7.743-4.56-20.005-4.452-21.91a5 5 0 0 1 8.145-3.599c2.897 2.354 8.962 1.637 14.474.124-3.465-3.651-6.452-8.355-9.385-12.975-1.991-3.135-3.872-6.096-5.685-8.34a5 5 0 0 1 7.778-6.285c2.171 2.688 4.2 5.882 6.348 9.265 3.871 6.096 8.689 13.682 13.068 14.855a4.998 4.998 0 0 1 .863 9.34c-1.799.859-14.636 6.757-25.354 5.235.618 5.174 2.204 10.35 5.255 10.644a5 5 0 0 1 1.5 9.568c-7.042 3.035-15.549 6.074-22.148 6.505.998 5.263 2.772 11.32 5.69 14.521 3.554 3.899 2.407 7.297 1.749 8.577-.868 1.688-3.016 5.861-19.451 4.871 1.855 7.11 4.364 13.066 4.396 13.144a5.004 5.004 0 0 1-3.413 6.81l-16.699 4.091c-.4.098-.8.145-1.194.145z" class="C"/><g class="G"><path d="M365.635 1562.816a5 5 0 0 1-2.974-9.022c19.809-14.621 52.691-59.555 53.021-60.007a5 5 0 1 1 8.079 5.892c-1.383 1.896-34.12 46.628-55.161 62.159a4.974 4.974 0 0 1-2.965.978z"/><path d="M429.564 1597.33a5.02 5.02 0 0 1-1.519-.236c-14.874-4.737-60.681-31.913-101.095-55.89l-14.503-8.595c-22.899-13.541-46.891-34.799-66.169-51.88-13.594-12.045-26.434-23.421-32.038-25.618a5 5 0 1 1 3.65-9.31c7.257 2.846 18.902 13.163 35.02 27.444 18.958 16.798 42.553 37.703 64.628 50.757l14.515 8.603c37.977 22.53 85.24 50.569 99.027 54.96a5 5 0 0 1-1.516 9.765z"/></g><path d="M178.833 829.926c-.229 0-.458-.008-.689-.023-5.51-.375-9.673-5.146-9.298-10.656l4.018-73.551c4.313-87.478 9.681-196.346 25.778-287.395 19.796-111.968 51.512-161.099 97.335-166.948 5.471-.702 9.764 3.168 10.464 8.647s-3.175 10.486-8.653 11.186c-18.163 2.319-33.459 9.734-47.245 38.084-12.838 26.401-23.673 64.256-32.205 112.513-15.878 89.81-21.211 197.98-25.497 284.897l-4.04 73.926c-.359 5.278-4.754 9.32-9.967 9.32z" class="J"/><g class="F"><path d="M240.776 727.947c1.052-51.344 152.495-62.233 232.858-61.397 59.659.621 112.262 10.871 136.355 49.589 0 0 8.43 32.002 10.82 52.456 9.275 79.394-110.29 132.906-132.866 136.25s-234.951-28.428-242.662-81.94c-6.109-42.394-4.906-75.387-4.505-94.958z"/><path d="M242.072 795.927c9.375 130.608 59.785 324.183 139.212 501.47 29.136 69.006 250.329 15.8 220.173-65.665-33.495-90.486-101.65-269.36-117.432-368.303-15.06-94.42-241.954-67.502-241.954-67.502z"/></g><path d="m718.692 1515.371 84.187 156.042c24.877 46.11 10.065 103.598-33.996 131.946-50.056 32.205-116.983 13.974-143.79-39.169l-78.978-156.57c-34.003-70.041 140.92-147.139 172.577-92.248z" class="B"/><g class="F"><path d="M601.458 1231.732l25.242 67.08c35.672 60.101 44.697 108.949 61.619 128.814 24.243 28.459 51.648 75.89 48.486 107.511s-181.734 124.585-208.663 116.891c-59.026-16.865-113.312-274.514-146.857-354.631s200.402-119.595 220.173-65.665z"/><path d="M743.073 1531.036c-10.166-5.93-45.308 35.284-104.441 68.329-58.97 32.954-134.933 44.869-137.324 53.133-4.998 17.271 21.277 59.355 40.444 63.32 35.433 7.33 217.136-81.016 227.033-120.026 3.666-14.449-11.837-56.662-25.712-64.756z"/></g><path d="M590.937 1208.394a5.002 5.002 0 0 1-4.645-3.146c-39.806-99.696-97.763-294.648-107.166-340.821a5 5 0 1 1 9.799-1.996c9.347 45.899 67.02 239.844 106.654 339.108a5 5 0 0 1-4.643 6.855z" class="G"/><path d="M1074.534 1829.317c-2.678-6.005-16.706-.196-16.098 8.109s8.103 9.52 14.179 7.292 4.445-9.736 1.918-15.401z" class="I"/><path d="m818.942 1982.972 27.48-42.613-7.559-28.625-28.583 43.307" class="C"/><g class="K"><path d="M786.075 1640.266c58.523 117.508 116.756 122.359 164.423 135.539 24.199 6.691 46.679-12.887 76.117-.564s47.92 77.23 47.92 77.23-30.204 54.511-98.582 77.359c-73.944 24.708-252.81 17.409-252.81 17.409l-115.949-199.704c-1.472-3.775 6.491-5.963 6.491-5.963l2.703 5.361c27.898-3.22 60.643-18.276 65.161-19.987 5.027-1.904 9.91-26.659 17.052-31.86s71.621-33.188 87.474-54.82z"/><path d="M844.598 1782.158c-26.23-18.269-99.07-93.092-107.543-129.68-2.059-8.891 33.596-32.14 42.494-29.124 9.262 3.14 26.348 49.186 37.938 69.977s27.112 88.827 27.112 88.827z"/></g><g class="I"><path d="M1074.534 1829.317c7.502 14.58 13.736 28.532 16.686 40.857 0 0-25.735 52.6-103.153 78.072-100.735 33.143-100.321 4.079-177.787 6.795l8.662 27.931c-9.056 7.782-72.286 14.599-87.446 9.303-8.398-2.934-35.236-62.303-30.066-75.745 0 0 54.108-8.731 98.231-.013 46.199 9.128 112.528 27.157 185.482-4.803 54.427-23.843 71.615-46.76 89.392-82.398z"/><path d="M798.471 1916.734a5.001 5.001 0 0 1-4.621-3.087c-16.875-40.726-71.801-89.038-126.976-69.87a5 5 0 0 1-3.282-9.445c60.91-21.17 121.146 31.2 139.496 75.487a5 5 0 0 1-4.617 6.915zm37.492-105.942a4.983 4.983 0 0 1-1.593-.262c-25.187-8.461-50.283-36.908-66.9-59.282-19.665-26.477-34.84-54.113-40.618-68.588a4.999 4.999 0 1 1 9.287-3.707c12.137 30.403 61.281 108.615 101.416 122.099a5.001 5.001 0 0 1-1.592 9.74z"/></g><path d="M856.475 1782.798a5 5 0 0 1-3.999-7.996c5.138-6.864 7.459-14.075 8.475-19.801-9.058 6.277-19.345 10.003-19.943 10.217a5 5 0 0 1-6.45-6.215c2.413-7.629.569-22.012-1.407-32.322-11.498 11.178-22.429 15.767-22.974 15.991a5 5 0 0 1-6.008-7.478c4.5-6.473 6.711-20.264 7.679-30.879-11.154 6.537-26.119 10.153-28.317 10.662a5 5 0 0 1-4.29-8.744c4.744-3.873 10.087-16.672 14.126-28.936-8.118 4.477-18.53 7.358-30.895 8.49-2.759.238-5.184-1.774-5.435-4.523a5 5 0 0 1 4.523-5.436c12.541-1.147 29.17-4.849 37.174-15.96a5.002 5.002 0 0 1 8.91 4.13c-.739 2.974-5.821 22.837-13.041 37.206 7.92-2.907 15.836-6.796 18.882-10.866a4.998 4.998 0 0 1 9.003 3.073c-.038 2.454-.42 18.674-3.996 32.656a78.84 78.84 0 0 0 13.609-12.991 5.002 5.002 0 0 1 8.704 1.92c.68 2.624 5.557 22.087 4.822 37.355 5.683-2.769 12.99-7.027 16.967-12.126a5.001 5.001 0 0 1 8.902 2.44c.104.816 2.408 20.203-11.013 38.131a4.99 4.99 0 0 1-4.006 2.004z" class="C"/><g class="G"><path d="M665.24 1521.106a4.999 4.999 0 0 1-4.972-5.58c4.994-42.749-22.987-163.258-38.362-215.298a5 5 0 0 1 3.378-6.212 4.996 4.996 0 0 1 6.211 3.378c15.571 52.703 43.864 175.125 38.705 219.292a5 5 0 0 1-4.96 4.42zm-86.194 106.982c-.476 0-.959-.068-1.438-.212-32.675-9.802-45.379-43.861-50.804-58.405a5 5 0 1 1 9.369-3.494c8.106 21.731 19.708 44.942 44.308 52.321a5 5 0 0 1-1.434 9.79zm-118.368-79.94a5.001 5.001 0 0 1-4.636-3.123c-11.167-27.564-37.152-111.284-56.126-172.413l-23.308-73.444c-2.673-7.057-6.166-13.989-10.212-22.018-7.257-14.401-16.288-32.323-23.632-58.192a5 5 0 0 1 9.621-2.731c7.083 24.951 15.509 41.671 22.942 56.423 3.998 7.935 7.775 15.43 10.633 22.977 2.944 7.773 12.018 37.008 23.507 74.021l55.844 171.621a5 5 0 0 1-4.632 6.879z"/><path d="M515.945 1650.191a5.001 5.001 0 0 1-1.439-9.79c.878-.264 88.198-26.64 121.682-45.399 27.652-15.491 77.046-44.34 97.169-63.488a5 5 0 0 1 6.894 7.244c-20.916 19.902-71.114 49.247-99.175 64.969-34.439 19.294-120.06 45.159-123.688 46.251a4.98 4.98 0 0 1-1.442.213zm-35.067-825.884a5.001 5.001 0 0 1-4.918-5.935c.092-.482 9.188-48.566 10.537-74.704.142-2.758 2.488-4.896 5.251-4.735a5 5 0 0 1 4.735 5.251c-1.384 26.821-10.319 74.058-10.699 76.056a5.002 5.002 0 0 1-4.907 4.067z"/></g><path d="M609.988 716.139c-17.265 6.511-77.216 16.224-119.88 18.104-39.771 1.753-205.389 6.49-249.333-6.296l3.252-32.98c61.8 9.949 198.994-.379 244.714-2.297 54.189-2.274 86.307-8.616 112.582-18.032l8.665 41.502z" fill="#656c72"/><path d="M471.986 744.556c-16.715 0-19.066-2.691-20.34-4.148-3.291-3.763-4.082-12.491-2.35-25.944.577-4.482 2.783-19.437 6.952-23.681 1.125-1.145 4.547-4.628 35.271-4.729 30.419-.055 33.885 3.392 35.192 4.706 6.203 6.234 3.757 30.416 3.649 31.442-1.23 11.784-3.596 14.813-5.749 16.223-5.057 3.313-34.175 5.36-35.412 5.445-6.993.483-12.642.686-17.214.686zm-12.922-11.038c2.42.791 11.059 1.687 30.173.326 14.305-1.021 26.036-2.748 29.501-3.729 2.384-5.383 3.008-27.024.907-32.076-2.827-.919-12.688-2.069-28.221-1.984-15.278.056-25.35 1.206-28.203 2.075-2.992 5.56-6.363 29.896-4.157 35.388zm.751-39.232h.01z" class="C"/><path d="M346.258 298.782s-63.871-1.185-86.548 5.211-34.725 151.466-15.638 202.545c17.964 48.073 25.912 79.609 11.172 115.472-13.998 34.057-47.194 98.213-24.951 118.602 20.634 18.914 84.246-44.474 111.575-38.659s62.996 2.433 90.265-6.306c29.809-9.554 90.298-5.146 90.298-5.146 33.972 27.476 70.467 17.62 80.352 30.994s11.048 43.611 18.026 47.1 27.911-31.981 12.793-73.848-53.313-96.214-48.08-121.217 25.298-60.508 14.831-94.815c-11.864-38.888-49.321-68.045-54.555-88.821s2.326-76.598-17.444-82.994-86.15-10.729-86.15-10.729l-95.945 2.61z" class="D"/><path d="M525.47 695.575c-1.122 0-2.217-.026-3.285-.079a5 5 0 0 1-4.748-5.24c.136-2.758 2.481-4.874 5.24-4.748 14.635.735 36.157-4.544 45.413-14.31a5 5 0 1 1 7.257 6.879c-11.045 11.653-33.169 17.498-49.877 17.498z" class="H"/><path d="M178.822 795.917s-65.254 117.446-85.039 171.404c-5.5 14.999-6.5 23.999 9.499 29.998 23.363 8.761 138.012 60.959 164.511 63.459l88.971-194.075-177.943-70.786zm88.971 264.861c15.518 0 35.955-10.588 48.545-13.563 17.433-50.334 44.568-125.687 56.846-187.209l-16.419 6.698-88.971 194.075z" class="J"/><path d="M267.79 1065.779a5 5 0 0 1-4.542-7.085l88.971-194.075a5 5 0 1 1 9.09 4.168l-88.971 194.075a5 5 0 0 1-4.548 2.917z" fill="#002e77"/><path d="M195.956 789.468c-25.879-1.679-60.119 58.781-76.237 94.06-18.466 40.42 161.451 104.792 179.412 72.415 15.299-27.58 47.766-87.026 74.053-95.937-51.919-30.227-109.46-54.523-177.229-70.538z" class="J"/><path d="M274.033 969.668c-10.233 0-21.547-1.677-31.693-3.771-28.075-5.798-60.992-17.796-85.906-31.313-34.83-18.897-49.435-37.866-41.125-53.413l9.076-17.314c20.311-39.131 39.496-76.093 71.055-79.362 2.744-.268 5.204 1.712 5.489 4.458a5 5 0 0 1-4.458 5.489c-26.197 2.714-44.176 37.352-63.21 74.022l-9.133 17.422c-5.059 9.464 9.147 24.756 37.075 39.908 24.112 13.082 55.977 24.696 83.159 30.309 32.457 6.702 47.429 2.804 50.388-2.571 10.826-19.661 43.773-79.494 75.955-97.867a4.999 4.999 0 1 1 4.958 8.683c-29.737 16.978-61.662 74.955-72.153 94.008-4.663 8.467-16.153 11.313-29.478 11.313z" fill="#002e77"/><path d="M473.066 692.054c4.303 13.126-4.842 37.159-34.314 48.271-24.398 9.199-24.657-17.252-10.775-24.915 11.882-6.559 45.089-23.356 45.089-23.356z" class="B"/><path d="M351.737 889.582c.756-2.516 3.103-10.203 7.479-18.502 19.174-36.359 67.028-138.045 69.564-215.222 1.572-47.822-17.442-133.461-47.313-213.102-34.498-91.976-70.239-139.714-88.12-143.023l-8.541.582c0-7.314 8.929-10.084 17.414-8.712 16.766 2.711 31.186 11.471 50.408 42.708 15.958 25.934 32.406 61.005 47.565 101.421 31.185 83.142 50.252 169.804 48.577 220.782-3.279 99.774-80.894 234.507-84.119 240.154-1.845 3.231-14.503-1.797-12.914-7.086z" class="J"/><path d="M620.811 773.595a5 5 0 0 1-3.286-8.771c16.763-14.602 20.67-38.323 11.3-68.599-4.621-14.931-13.159-30.689-21.417-45.929-13.604-25.109-27.672-51.073-26.885-76.92.209-6.879 3.052-14.627 6.343-23.599 6.589-17.961 14.789-40.313 8.591-70.043-1.889-9.063-11.061-21.395-21.682-35.672-11.541-15.515-24.621-33.1-32.594-52.247a5 5 0 1 1 9.232-3.844c7.5 18.011 20.19 35.07 31.386 50.122 11.326 15.228 21.108 28.378 23.448 39.6 6.781 32.529-2.336 57.382-8.993 75.528-2.992 8.155-5.576 15.198-5.736 20.459-.705 23.15 12.709 47.908 25.682 71.851 8.488 15.666 17.265 31.865 22.177 47.736 10.478 33.854 5.404 61.944-14.285 79.097a4.98 4.98 0 0 1-3.282 1.229zm-212.82-444.979c-29.254 0-60.781-9.955-77.963-26.297a5 5 0 0 1 6.892-7.246c20.383 19.387 65.492 28.914 96.532 20.387 9.948-2.732 22.521-8.531 25.93-20.643a5 5 0 1 1 9.625 2.709c-3.699 13.144-15.078 22.68-32.907 27.576-8.691 2.388-18.272 3.514-28.109 3.514z" class="H"/><path d="M338.206 674.509c-25.804-5.421-90.338-30.675-115.017-38.385s-68.646 91.541-27.48 103.2 100.231 29.077 128.51 34.347c43.79 8.162 38.083-94.099 13.988-99.162z" class="B"/><g class="D"><path d="M1.136 610.231C-9.15 686.276 53.43 706.266 66.451 711.963c30.555 35.535 64.129 49.025 111.547 39.709 0 0 33.06 31.654 73.245 23.601 19.767-3.962 35.086-93.516 33.341-110.536-2.011-19.606-27.649-75.407-70.777-56.299 0 0-22.729-13.743-66.296-3.018-35.963 8.852-140.446-39.027-146.375 4.811z"/><path d="M259.709 303.993c-57.187 14.344-103.577 62.894-138.679 109.939-22.117 29.642-36.858 35.689-55.576 61.732s-19.297 55.46-30.69 70.922c-7.771 10.546-28.958 24.081-33.628 63.644-4.599 38.964 96.125 46.232 139.195 28.461 41.151-16.98 78.267-41.591 82.858-59.187s-3.408-26.661-3.408-26.661 30.003-47.224 50.123-59.721c47.029-29.211 22.25-197.267-10.194-189.129z"/></g><g class="B"><path d="M338.206 674.509c22.366-9.187 57.117-46.498 70.953-57.212 12.477-9.661 29.006 92.645 19.832 104.612-8.168 10.655-32.792 44.545-53.97 51.225-17.281 5.451-41.012 2.036-50.802.536-21.281-3.259-4.69-91.49 13.988-99.162z"/><path d="M424.336 662.921c13.208-5.26 36.503-10.521 47.4-4.509s.711 48.335-4.627 56.506-29.35 8.867-26.51-2.568l5.791-22.674-19.743 5.558-2.311-32.314z"/><path d="M409.159 617.297c9.548-9.788 39.81-19.044 51.454-14.84 16.336 5.898 7.767 44.319 5.939 55.145-2.748 16.275-26.46 13.527-24.179-1.878l3.139-23.295-26.805 8.303zm15.177 74.757c16.127-5.81 44.338-14.71 48.73 0 5.081 17.015-25.144 23.545-44.075 29.855z"/><path d="M415.718 641.445c14.272-8.382 50.638-17.459 57.915-6.116 7.16 11.161 1.681 35.025-6.524 53.175-6.537 14.463-28.285 6.492-22.395-8.548 3.333-8.51 5.738-18.905 5.738-18.905l-26.117 3.953-8.618-23.56z"/></g><path d="M418.711 645.733a5 5 0 0 1-2.192-9.497c3.614-1.758 35.885-16.937 55.867-8.431a5 5 0 0 1 2.642 6.559 4.997 4.997 0 0 1-6.559 2.643c-12.943-5.512-36.779 2.969-47.575 8.222a4.975 4.975 0 0 1-2.184.505zm5.624 22.19a5.002 5.002 0 0 1-1.566-9.749l1.179-.391c13.743-4.563 42.341-14.056 55.415 1.979a5 5 0 0 1-7.75 6.32c-8.717-10.689-34.724-2.058-44.514 1.191l-1.195.396a4.992 4.992 0 0 1-1.568.253zm0 29.131a5 5 0 0 1-1.59-9.741l.597-.2c13.512-4.542 45.156-15.173 54.186 2.684a5 5 0 0 1-8.924 4.514c-3.4-6.727-17.558-5.957-42.077 2.281l-.602.202a4.988 4.988 0 0 1-1.591.261zm17.089 25.93a5 5 0 0 1-1.435-9.79 152.386 152.386 0 0 0 16.017-5.829 5 5 0 1 1 3.932 9.195 162.315 162.315 0 0 1-17.073 6.212 4.991 4.991 0 0 1-1.439.212z" class="E"/><path d="M338.206 674.509c5.63-9.917 5.928-24.143-7.463-29.637s-45.759-15.144-51.848-10.988c-23.222 15.852-42.658 105.875-29.186 144.899 3.89 11.268 62.74 12.675 70.645 8.598 6.474-3.339 5.57-7.596 3.865-13.71-6.524-23.387-3.275-68.755 13.988-99.162z" class="D"/><g class="H"><path d="M242.069 526.441a5 5 0 0 1-3.84-8.199c.429-.515 10.702-12.79 28.308-28.816a5 5 0 1 1 6.731 7.394c-17.054 15.525-27.255 27.702-27.356 27.823a4.99 4.99 0 0 1-3.844 1.798zm-22.284 31.403a5.002 5.002 0 0 1-4.436-2.685c-.064-.123-6.526-12.437-15.119-24.788a5 5 0 1 1 8.209-5.711 268 268 0 0 1 15.773 25.867 4.999 4.999 0 0 1-4.428 7.316zm-84.57 54.016c-8.174 0-14.608-1.479-15.011-1.573a5 5 0 0 1-3.725-6.01 4.997 4.997 0 0 1 6.01-3.725c.12.027 12.795 2.904 23.754.03 23.562-6.18 42.299-4.051 59.036-.833a5 5 0 0 1-1.888 9.82c-15.58-2.996-32.978-4.987-54.611.687-4.588 1.203-9.313 1.603-13.565 1.604zm42.787 144.812a4.99 4.99 0 0 1-3.877-1.839c-12.139-14.88-15.932-27.694-16.087-28.232a4.999 4.999 0 0 1 3.416-6.191 5.002 5.002 0 0 1 6.191 3.416c.03.101 3.47 11.498 14.229 24.686a5 5 0 0 1-3.872 8.161zm70.618 23.602a5.001 5.001 0 0 1-4.872-3.897c-5.25-23.209-4.364-53.788 2.428-83.896 6.585-29.186 17.619-52.527 29.518-62.439a5.005 5.005 0 0 1 2.705-1.134c1.59-.158 39.131-3.674 56.252 14.013 6.767 6.99 9.455 16.137 7.99 27.185a5 5 0 1 1-9.913-1.314c1.057-7.972-.661-14.155-5.253-18.905-12.056-12.471-39.684-11.574-46.534-11.143-20.432 19.056-37.878 89.28-27.441 135.427a5 5 0 0 1-4.882 6.104z"/><path d="M275.131 642.562a5.002 5.002 0 0 1-4.653-3.167c-2.785-7.063-7.447-13.006-16.089-20.513a5 5 0 1 1 6.558-7.549c9.954 8.646 15.411 15.713 18.834 24.394a5 5 0 0 1-4.65 6.835z"/></g><path d="M340.823 289.926c-.311 0-.603-.013-.877-.035-3.646-.3-10.351-2.77-14.293-15.948-2.465-8.239-3.32-18.89-2.408-29.988.834-10.151 3.11-19.859 6.408-27.336a5 5 0 0 1 9.15 4.037c-2.86 6.482-4.846 15.048-5.591 24.117-.812 9.888-.094 19.229 2.022 26.305 1.888 6.313 4.343 8.749 5.532 8.847 1.19.062 4.009-1.906 6.902-7.825 3.243-6.635 5.477-15.734 6.289-25.621 1.859-22.63-4.452-34.897-7.554-35.152a5 5 0 0 1-4.573-5.394 4.998 4.998 0 0 1 5.393-4.573c13.352 1.098 18.509 23.94 16.701 45.938-.912 11.099-3.494 21.467-7.271 29.194-5.586 11.429-12.009 13.436-15.828 13.436z" class="F"/></svg></g><g transform="matrix(1.197762 0 0 1.199304 1317.6 1564.8)"><svg width="479.895" height="481.279"><path d="M145.19 117.107a4.987 4.987 0 0 1-3.73-1.668c-1.354-1.515-7.102-5.833-13.188-10.406-30.274-22.744-59.699-46.411-58.115-63.875.343-3.776 2.281-9.044 9.57-12.687a5 5 0 0 1 4.47 8.945c-3.834 1.916-4.014 3.898-4.081 4.645-1.213 13.374 37.592 42.528 54.163 54.978 8.296 6.232 12.715 9.585 14.638 11.736a5.001 5.001 0 0 1-3.726 8.332Zm137.364-14.454a5.001 5.001 0 0 1-4.566-2.957c-10.994-24.54-26.357-48.048-42.152-64.494-12.685-13.209-31.754-28.212-50.563-24.678a5 5 0 1 1-1.846-9.828c38.769-7.283 80.921 44.095 103.687 94.912a5 5 0 0 1-4.56 7.045Z" fill="#c83400"/><g fill="#f62"><path d="m65.994 109.472 15.019 10.862-49.893 14.533 24.269 329.368 45.48-71.483-34.875-283.28z"/><path d="m479.895 386.422-379.026 6.33-34.875-283.28L384.94 92.063l94.955 294.359z"/><path d="m438.748 460.802-383.359 3.433L31.12 134.867l330.31-15.931 77.318 341.866z"/><path d="m479.895 386.422-41.147 74.38-77.318-341.866-9.257-10.89 32.767-15.983 94.955 294.359z"/></g><g fill="#c83400"><path d="M438.743 465.803a5.003 5.003 0 0 1-4.873-3.898l-76.392-337.772L31.36 139.862a4.994 4.994 0 0 1-5.235-4.753 4.999 4.999 0 0 1 4.753-5.235l330.31-15.932c2.411-.125 4.582 1.523 5.118 3.892L443.624 459.7a5 5 0 0 1-4.881 6.103Z"/><path d="M361.432 123.936a4.987 4.987 0 0 1-3.812-1.762l-9.256-10.89a4.999 4.999 0 0 1 1.618-7.733l32.767-15.982a4.999 4.999 0 0 1 6.686 2.302 5.002 5.002 0 0 1-2.302 6.687l-26.977 13.158 5.084 5.981a5 5 0 0 1-3.807 8.238zm-88.494 44.207a5.001 5.001 0 0 1-4.922-4.157c-7.089-41.392-36.01-149.638-84.055-153.392a5 5 0 0 1-4.595-5.374c.215-2.753 2.616-4.825 5.375-4.595 25.525 1.994 48.168 26.319 67.3 72.3 14.121 33.936 22.881 72.146 25.832 89.373a5 5 0 0 1-4.934 5.844zm-142.689 6.221a5.002 5.002 0 0 1-4.909-4.077c-4.57-24.303-19.514-51.091-32.699-74.725-14.421-25.85-25.812-46.268-21.62-59.125a5.001 5.001 0 0 1 9.508 3.1c-2.838 8.703 9.202 30.283 20.845 51.153 13.557 24.301 28.923 51.845 33.794 77.749a5 5 0 0 1-4.919 5.925z"/></g><path d="M241.654 151.659a5 5 0 0 1-4.989-4.741c-1.378-26.57-9.379-114.96-54.494-136.808a5.001 5.001 0 0 1-2.321-6.68 5.002 5.002 0 0 1 6.679-2.32c19.136 9.267 34.228 29.451 44.856 59.993 10.53 30.258 14.114 63.086 15.265 85.297a5 5 0 0 1-4.997 5.259Zm-134.662 6.496a5 5 0 0 1-4.719-3.35c-2.52-7.201-6.041-15.694-9.768-24.687-13.037-31.447-29.261-70.585-19.757-95.677a5 5 0 0 1 9.352 3.543c-8.099 21.382 7.283 58.489 19.643 88.305 3.783 9.126 7.356 17.746 9.969 25.213a5 5 0 0 1-4.719 6.652Z" fill="#ce9800"/><g fill="#ffd215"><path d="M391.78 417.601H59.359L28.963 157.384l296.823-14.783 65.994 275z"/><path d="m28.963 157.384 13.712 11.979L5 186.198l21.374 290.081 32.985-58.678-30.396-260.217z"/><path d="M358.796 476.279H26.374L5 186.198l290.91-14.031 62.886 304.112z"/><path d="m391.78 417.601-32.984 58.678-62.886-304.112-13.359-15.716 43.235-13.85 65.994 275z"/></g><g fill="#ce9800"><path d="M358.791 481.281a5.002 5.002 0 0 1-4.891-3.988l-62.02-299.925L5.241 191.192c-2.77.115-5.102-1.995-5.235-4.753a4.999 4.999 0 0 1 4.753-5.235l290.91-14.03a5 5 0 0 1 5.137 3.981l62.886 304.112a5 5 0 0 1-4.902 6.013Z"/><path d="M295.913 177.167a4.99 4.99 0 0 1-3.812-1.762l-13.359-15.717a4.998 4.998 0 0 1 2.284-8l43.234-13.85a5 5 0 0 1 3.051 9.523l-36.094 11.563 8.503 10.004a5 5 0 0 1-3.807 8.238zm-82.91 42.127a5 5 0 0 1-4.999-4.964l.248-35.005c.783-58.227 1.757-130.69-20.786-166.756a5 5 0 0 1 8.48-5.301c24.102 38.56 23.105 112.654 22.305 172.19l-.247 34.799a5 5 0 0 1-4.963 5.036h-.038zm-122.854 5.531a5.002 5.002 0 0 1-4.923-4.161c-2.371-13.917-5.371-28.544-8.547-44.029-11.797-57.517-23.996-116.991-4.156-144.991a5 5 0 0 1 8.159 5.782c-17.331 24.46-5.046 84.355 5.793 137.2l8.609 44.359a5 5 0 0 1-4.935 5.841z"/></g></svg></g><g transform="matrix(1.190615 0 0 1.209207 1443.6 1458)"><svg width="85.67" height="138.934"><path d="M61.655 5c4.529 17.663 16.274 41.65 16.727 50.255l2.271 37.665c.382 5.485-6.085 23.156-7.378 28.609-4.801 20.241-34.18 14.386-29.273-7.955 1.026-4.672 4.937-19.503 4.937-19.503-.948-10.067-5.012-28.836-5.012-28.836C21.05 57.963 9.874 41.987 5 21.949" class="B"/><path d="M58.597 138.936c-1.554 0-3.103-.175-4.61-.519-9.729-2.223-17.96-11.838-14.868-25.916.902-4.11 3.892-15.541 4.755-18.83-.797-7.479-3.15-19.293-4.252-24.617C18.751 61.54 5.824 46.489.141 23.131a5 5 0 1 1 9.717-2.363C14.895 41.473 26.534 54.46 45.442 60.47a4.998 4.998 0 0 1 3.372 3.707c.168.778 4.138 19.179 5.103 29.425a5 5 0 0 1-.144 1.744l-4.888 19.301c-1.906 8.68 2.756 12.979 7.328 14.022 4.829 1.101 10.475-1.035 12.196-8.294.439-1.849 1.35-4.759 2.405-8.128 1.765-5.635 5.049-16.123 4.85-18.979l-2.276-37.75c-.198-3.765-3.728-12.957-7.142-21.848-3.39-8.829-7.232-18.835-9.436-27.428a5 5 0 0 1 9.687-2.484c2.06 8.032 5.792 17.752 9.084 26.327 4.196 10.929 7.511 19.562 7.792 24.907l2.266 37.58c.307 4.399-1.996 12.168-5.283 22.663l-2.218 7.448c-2.648 11.163-11.166 16.253-19.544 16.253z" class="E"/></svg></g><g transform="matrix(1.134975 0 0 1.18588 1394.4 1573.2)"><svg width="25.375" height="43.512"><path d="M18.056 10.505C9.032-6.184-4.15-1.054 1.264 12.422c4.199 10.454 13.726 28.305 23.112 31.09 2.063-8.689 1.376-18.776-6.319-33.007Z" class="B"/></svg></g><g transform="matrix(1.198985 0 0 1.199234 958.8 1752)"><svg width="391.331" height="509.325"><g class="F"><path d="M223.459 24.809l25.242 67.08c35.672 60.101 44.697 108.949 61.619 128.814 24.243 28.459 51.648 75.89 48.486 107.511S177.072 452.799 150.143 445.105C91.117 428.24 36.83 170.591 3.285 90.474S203.688-29.121 223.459 24.809z"/><path d="M365.074 324.113c-10.166-5.93-45.308 35.284-104.441 68.329-58.97 32.954-134.933 44.869-137.324 53.133-4.998 17.271 21.277 59.355 40.444 63.32 35.433 7.33 217.136-81.016 227.033-120.026 3.666-14.449-11.837-56.662-25.712-64.756Z"/></g><g class="G"><path d="M287.241 314.184a5 5 0 0 1-4.972-5.58c4.994-42.749-22.987-163.258-38.362-215.298a4.999 4.999 0 1 1 9.589-2.833c15.571 52.703 43.864 175.125 38.705 219.292a5 5 0 0 1-4.96 4.42zm-86.194 106.981c-.476 0-.959-.068-1.438-.212-32.676-9.801-45.379-43.861-50.804-58.406a5 5 0 1 1 9.37-3.494c8.105 21.732 19.708 44.943 44.308 52.322a5 5 0 0 1-1.434 9.791z"/><path d="M137.946 443.268a5.002 5.002 0 0 1-1.438-9.79c.878-.264 88.197-26.64 121.682-45.399 27.652-15.492 77.047-44.34 97.169-63.488a5.001 5.001 0 0 1 6.894 7.244c-20.915 19.901-71.114 49.247-99.175 64.968-34.439 19.294-120.06 45.159-123.688 46.251a4.98 4.98 0 0 1-1.442.213zM87.311 334.346c-11.01-27.174-36.922-110.66-55.843-171.619L7.961 88.703C5.801 82.999 3.115 77.324.207 71.467v25.318c3.964 11.728 12.284 38.532 21.711 68.906l56.125 172.41a5.003 5.003 0 0 0 6.512 2.757 5.001 5.001 0 0 0 2.757-6.512z"/></g></svg></g></svg>