<svg xmlns="http://www.w3.org/2000/svg" height="1171.777" width="1082.947" xmlns:v="https://vecta.io/nano"><style><![CDATA[.B{fill:#f4bbab}.C{fill:#ea2688}.D{fill:#e09273}.E{fill:#b7006d}]]></style><clipPath id="A"><path d="m657.276 167.972c2.518 20.785 4.443 40.348 7.892 53.363 3.614 13.634 8.556 23.738 12.585 33.529 5.294 12.868-76.964 43.793-91.359-37.107-6.196-34.822 67.295-79.394 70.881-49.785z"/></clipPath><path d="M464.107 13.44c-46.366-10.264-97.456.511-134.16 43.097-22.156 25.707-20.196 52.793-40.384 75.788-14.708 16.752-52.997 25.429-55.982 73.465-1.755 28.249 14.953 45.958-4.907 64.417-13.938 12.955-40.372 22.948-35.81 66.638 3.865 37.017-.405 43.465-14.615 56.008-28.171 24.867-15.034 80.683 42.837 119.572 76.794 51.606 252.955 3.445 283.527-56.089S523.84 26.663 464.108 13.44z" class="C"/><path d="m581.858 483.852c-42.087 16.05-76.069 110.05-62.789 222.861 14.922 126.758 93.575 382.656 253.961 371.458 90.047-6.287 37.39-147.054.11-222.889-28.89-58.768-41.601-108.78-58.011-219.251-18.216-122.629-84.093-170.933-133.271-152.18z" class="B"/><path d="m634.607 471.171c61.343 24.763 75.431 110.813 96.663 120.006 0 0 1.152 20.91-22.838 32.761-25.294 12.495-15.771 28.612-31.447 45.02s-34.62 14.768-48.842 37.205c-17.525 27.649-108.85 16.598-108.85 16.598-61.75-124.818 17.767-290.968 115.313-251.59z" fill="#f62"/><path d="M773.03 1078.172c74.372-4.017 173.416-43.604 170.402-158.984s-17.553-225.283-28.756-282.638c-8.663-44.352-135.313-28.109-142.105 30.605s-31.533 200.99-33.165 247.304c-2.322 65.919-8.098 165.966 33.624 163.712z" class="B"/><path d="m549.897 445.605c41.553 11.003 59.641 14.713 84.71 25.567s-9.097 114.387-5.606 149.019 53.644 141.989 48.361 182.752-54.655 169.605-56.037 229.918-423.338 106.156-460.997 37.641c0 0 11.476-133.342-4.682-255.749s-90.21-321.859-28.472-345.851 106.237-34.72 167.426-42.554c83.626 16.723 154.053 25.664 255.297 19.258z" fill="#f62"/><path d="m559.348 364.807c8.639 25.248 18.803 38.591 36.461 66.695 21.95 34.936 25.271 64.168-3.006 83.285-10.91 7.376-16.522 22.331 3.249 23.943-13.727 10.019-44.595 2.215-29.163-31.969 13.758-30.475 5.432-49.72-16.992-61.156-22.06-3.726-32.736 4.022-47.679-28.748s44.023-90.357 57.13-52.05z" class="C"/><g class="B"><rect height="322.671" rx="86.368" transform="matrix(.973754 .227603 -.227603 .973754 97.835 -91.257)" width="172.736" x="358.239" y="217.248"/><path d="m519.147 439.147 30.751 6.458c3.791 68.79-17.832 212.031-50.069 283.657-81.395-20.682-201.887-240.555-205.228-302.914l52.068-2.869 172.479 15.669z"/></g><path d="M215.785 1066.437c-3.359 0-6.417-2.273-7.27-5.68-1.006-4.018 1.435-8.091 5.453-9.098 105.233-26.354 193.882-129.75 278.982-325.39a7.5 7.5 0 1 1 13.755 5.983c-41.164 94.634-82.413 166.659-126.104 220.193-50.352 61.695-103.666 98.908-162.989 113.765a7.53 7.53 0 0 1-1.828.227z" fill="#c83400"/><path d="M125.61 481.457c-48.89 19.1-102.833 119.45-87.195 254.26 17.571 151.476 59.05 385.148 186.74 428.272 104.998 35.46 187.082-112.851 146.518-174.761s-88.517-190.426-91.954-323.827-96.982-206.262-154.108-183.944z" class="B"/><path d="M127.174 468.901C35.316 504.498 34.409 613.875 0 635.923c0 0 33.807 44.655 88.101 29.896 60.689-16.497 72.687-6.548 107.288 22.905s88.189 30.781 88.189 30.781c18.758-152.794-47.652-292.748-156.404-250.604z" fill="#f62"/><g class="B"><path d="M914.675 636.55c-12.311-64.806-44.49-156.151-61.36-185.044s-126.722 51.409-109.327 95.369c19.525 49.34 5.69 102.43 28.582 120.281s142.105-30.605 142.105-30.605z"/><path d="M853.316 451.507c-14.907-32.467-34.223-62.299-47.701-78.542s-41.527-40.646-56.122-52.3c-24.241-19.356-54.332 4.153-28.942 31.065s50.523 48.188 50.523 48.188l37.975 71.584 44.268-19.995z"/><path d="m819.55 466.758c-10.515-23.036-27.421-56.822-39.288-70.39s-48.996-38.333-63.006-50.468c-24.358-21.096-59.06 10.571-25.455 37.292 33.468 26.611 51.166 38.235 51.166 38.235l37.107 68.889z"/><path d="M785.342 484.433c-8.498-18.917-29.501-55.397-36.717-62.887s-52.706-26.755-67.179-30.102c-26.298-6.081-41.826 32.484-10.518 45.985l49.019 21.426 36.206 57.381 29.189-31.804z"/><path d="M763.795 507.912c-9.16-12.467-41.38-36.497-54.898-38.272s-27.265-2.336-40.689-3.12c-29.545-1.727-34.051 36.474-7.059 41.023l42.406 7.216 40.434 32.116z"/></g><path d="M819.556 474.26c-2.802 0-5.49-1.578-6.776-4.275-23.293-48.874-33.353-64.055-37.689-68.185-9.295-8.851-61.893-49.558-62.423-49.968a7.5 7.5 0 0 1 9.178-11.864c2.19 1.694 53.743 41.593 63.589 50.969 7.854 7.479 20.846 30.546 40.887 72.595a7.5 7.5 0 0 1-3.544 9.997c-1.041.496-2.14.731-3.221.731zm-34.208 17.675c-2.786 0-5.46-1.559-6.756-4.234-6.079-12.555-29.193-54.217-35.493-61.084-4.499-4.904-20.002-11.791-28.718-14.98a7.5 7.5 0 0 1 5.15-14.088c2.657.971 26.202 9.75 34.622 18.928 8.591 9.364 33.154 54.802 37.941 64.689 1.805 3.728.246 8.213-3.482 10.019a7.47 7.47 0 0 1-3.263.751zm-21.55 23.477c-2.086 0-4.162-.866-5.645-2.559-6.101-6.966-23.802-23.594-28.175-25.656a7.5 7.5 0 1 1 6.397-13.567c8.364 3.943 29.145 24.868 33.063 29.341a7.5 7.5 0 0 1-.701 10.583c-1.423 1.246-3.185 1.858-4.938 1.858z" class="D"/><path d="m351.327 366.499c2.367 72.56 42.34 78.984 50.621 123.817 9.607 52.013-23.537 101.966-77.874 83.204 25.033.252 41.222-16.238 30.863-40.271-11.443-26.548-56.759-41.986-79.341-78.168-21.185-33.944-21.071-60.486-5.833-105.843s80.138-26.457 81.564 17.261z" class="C"/><g fill="#e3e5e5"><path d="M882.636 752.817c-40.458 0-93.952-13.379-120.534-45.414a7.5 7.5 0 0 1 11.543-9.579c12.877 15.519 35.476 27.791 63.634 34.556 23.664 5.686 49.878 7.07 68.412 3.61 12.274-2.291 15.851-5.779 16.162-6.621-.012-.004-.036-.173-.175-.491-1.651-3.798.089-8.217 3.887-9.869a7.5 7.5 0 0 1 9.869 3.887c3.513 8.077.493 16.047-8.077 21.318-9.012 5.542-25.38 8.603-44.72 8.603z"/><path d="M820.026 749.978c-1.806 0-3.65-.224-5.47-.673-9.962-2.461-16.2-10.73-14.2-18.825s11.373-12.507 21.333-10.046 16.2 10.73 14.2 18.825c-1.069 4.328-4.344 7.801-8.984 9.529-2.123.791-4.467 1.189-6.878 1.189zm1.346-13.104h.01z"/><path d="m835.342 753.765c-1.779 0-3.623-.22-5.487-.68-9.962-2.461-16.2-10.73-14.201-18.825 1.069-4.328 4.344-7.801 8.984-9.529 3.712-1.384 8.099-1.565 12.349-.517 9.962 2.461 16.2 10.73 14.201 18.825-1.626 6.58-8.122 10.726-15.845 10.726zm8.565-12.525h.01z"/></g><path d="M595.521 12.663c37.231 20.576 89.324 64.06 94.305 107.942 5.202 45.83-16.945 57.111 1.361 87.154 13.672 22.438 36.49 13.124 45.209 34.468 8.703 21.306 3.045 43.89-21.61 47.788 13.508-10.597 13.729-27.547.106-37.18-19.07-13.485-40.119 8.36-60.3-25.557-15.24-25.613-17.06-64.224-13.816-122.638s-45.255-91.978-45.255-91.978z" class="C"/><path d="M636.796 87.11c20.603 32.618 20.01 102.671 28.373 134.225s23.846 44.199 18.634 77.816c-4.171 26.903-29.777 86.272-101.257 91.316s-179.244-47.564-193.638-128.465c-6.196-34.822-29.619-102.192 16.513-166.557 49.187-68.627 184.205-83.014 231.375-8.335z" class="B"/><path d="M392.473 242.629C399.151 203.43 483.3 78.846 536.828 70.837c55.925-8.368 82.107 2.007 106.411 29.234 0 0 10.697-63.69-47.718-87.408-57.939-23.525-113.088-8.853-131.414.777C329.58 35.939 300.219 167.936 360.634 257.273c7.748 11.458 31.839-14.644 31.839-14.644z" class="C"/><path d="m392.473 232.39c-17.947-34.327-69.877-20.167-58.205 19.504 9.526 32.378 42.43 44.112 56.905 37.508s12.695-35.218 1.3-57.012z" class="B"/><path d="m527.137 50.863c20.939 29.605 16.891 73.467-24.164 100.04-42.146 27.279-51.239 53.005-51.593 70.584-.735 36.489 19.04 49.382 16.864 83.585-1.596 25.097-32.031 49.122-37.21 66.31-3.107 10.313.554 29.601 23.98 24.539-20.449 19.983-58.936 5.942-56.63-27.588 2.341-34.03 22.37-42.216 19.23-68.841-3.484-29.542-25.004-39.036-29.345-63.311-5.079-28.396 7.996-85.697 33.385-115.935 42.335-50.422 105.482-69.382 105.482-69.382z" class="C"/><path d="M610.751 286.109a7.53 7.53 0 0 1-1.172-.092 7.5 7.5 0 0 1-6.247-8.572c.788-5.02-.182-7.908-1.416-8.467-1.628-.739-5.858.347-9.766 5.027a7.5 7.5 0 0 1-11.512-9.616c7.802-9.34 18.843-12.986 27.473-9.071 8.112 3.678 11.865 12.82 10.039 24.453-.58 3.698-3.771 6.338-7.4 6.338z" class="D"/><path d="m576.018 327.703c15.648 8.087 28.362-1.549 36.045 10.03 6.947 10.47-14.228 31.845-41.352 27.603-37.191-5.816-45.841-38.369-29.098-47.398 13.067-7.047 22.075 3.392 34.406 9.764z" fill="#fff"/><path d="M610.627 153.793c-13.173 5.606-23.866-19.443-3.279-26.141 15.771-5.131 46.376.362 58.056 18.836 7.29 11.531-1.811 15.664-5.979 12.167-13.976-11.73-30.478-12.659-48.798-4.862zm-65.527 6.459c19.446 1.496 15.643-25.246-1.489-27.027-24.344-2.531-61.406 21.653-65.531 38.146s7.046 16.645 12.105 9.789c9.058-12.276 29.737-22.845 54.916-20.908z" class="E"/><g class="D"><path d="M381.799 275.867c-.102 0-.203-.002-.306-.006-4.139-.166-7.359-3.656-7.194-7.794.534-13.315-11.829-28.913-20.609-29.439a7.5 7.5 0 0 1-7.038-7.935c.248-4.134 3.799-7.285 7.936-7.038 19.27 1.154 35.456 26.133 34.7 45.012a7.5 7.5 0 0 1-7.489 7.2z"/><path d="M363.835 263.458c-1.829 0-3.662-.665-5.106-2.008a7.5 7.5 0 0 1-.385-10.6l10.301-11.076a7.5 7.5 0 1 1 10.985 10.215l-10.301 11.076a7.48 7.48 0 0 1-5.494 2.393z"/></g><path d="M536.827 78.34c-3.132 0-6.053-1.977-7.107-5.11-8.804-26.163-37.991-49.152-66.447-52.336-4.117-.461-7.08-4.171-6.62-8.288s4.176-7.083 8.288-6.62c34.346 3.844 68.307 30.695 78.996 62.459a7.5 7.5 0 0 1-4.716 9.5 7.49 7.49 0 0 1-2.393.394zM388.261 243.681c-3.876 0-7.161-2.984-7.469-6.915-2.9-37.018.928-88.216 35.64-121.904 2.973-2.883 7.72-2.813 10.605.159a7.5 7.5 0 0 1-.159 10.605c-30.53 29.63-33.781 76.155-31.132 109.967.324 4.129-2.762 7.739-6.891 8.063-.199.016-.397.023-.594.023z" class="E"/><path d="M530.462 392.989c-.517 0-1.041-.054-1.566-.165-20.505-4.357-47.092-14.73-61.843-24.13a7.5 7.5 0 1 1 8.06-12.65c13.227 8.428 38.22 18.139 56.9 22.108a7.5 7.5 0 0 1 5.778 8.895c-.75 3.526-3.863 5.943-7.329 5.943z" class="D"/><ellipse cx="530.761" cy="229.74" fill="#fff" rx="33.288" ry="38.263" transform="matrix(.991894 -.127065 .127065 .991894 -24.889 69.302)"/><ellipse cx="544.566" cy="229.259" fill="#111" rx="19.355" ry="26.186" transform="matrix(.991894 -.127065 .127065 .991894 -24.716 71.052)"/><g clip-path="url(#A)"><ellipse cx="637.271" cy="218.921" fill="#fff" rx="30.85" ry="35.461" transform="matrix(.991894 -.127065 .127065 .991894 -22.651 82.748)"/><ellipse cx="646.926" cy="219.005" fill="#111" rx="18.908" ry="25.581" transform="matrix(.991894 -.127065 .127065 .991894 -22.584 83.975)"/></g><circle cx="375.673" cy="288.479" fill="#e3e5e5" r="15.942"/><path d="M648.814 694.539a7.5 7.5 0 0 1-6.863-4.469c-.774-1.753-18.992-43.228-20.438-69.467a7.5 7.5 0 0 1 7.076-7.901c4.111-.229 7.673 2.939 7.901 7.076 1.295 23.502 19.001 63.824 19.18 64.229a7.5 7.5 0 0 1-3.829 9.891 7.47 7.47 0 0 1-3.028.642z" fill="#c83400"/><g class="B"><path d="M225.154 1163.988c79.294 27.836 366.614-24.217 503.148-72.881 77.92-27.773-13.36-163.202-60.583-152.245-70.229 16.296-258.787-12.26-315.586 13.075s-183.267 192.291-126.979 212.051z"/><path d="m710.46 1097.046c55.762-13.855 133.655-40.315 169.531-39.731s50.97-121.997 2.054-125.238-67.195-1.997-79.795-16.926-103.866 4.175-134.531 23.712 42.742 158.183 42.742 158.183z"/><path d="M802.25 915.15c-7.383-19.644 45.872-40.415 61.703-61.896 17.476-23.712 3.976-53.935-29.072-32.045-38.311 25.376-68.944 18.595-89.852 35.93s-41.806 46.665-58.044 72.333C661.21 970.217 802.25 915.15 802.25 915.15zm77.742 142.165c26.942 2.127 73.88 10.502 84.517 6.644s35.554-14.064 49.098-21.656c26.498-14.853 3.32-52.887-21.657-39.176s-43.972 17.654-43.972 17.654l-59.526-.675-8.459 37.209z"/><path d="m885.232 999.735c13.355-2.588 78.321-5.762 86.86-9.566s41.874-24.945 55.513-38.146c21.381-20.696 50.764 8.758 28.579 32.905s-58.444 48.576-66.881 51.035-103.559 4.323-103.559 4.323l-.511-40.55z"/><path d="M884.454 970.099c23.192-2.846 89.601-12.643 89.601-12.643s61.08-47.897 71.802-60.051c15.979-18.111 49.483 3.482 32.327 31.698s-73.938 66.949-84.575 70.807-96.821 13.923-107.988 14.664-1.167-44.476-1.167-44.476z"/><path d="M882.045 932.077c46.122-1.211 72.754-9.076 80.385-13.385 8.776-4.955 42.48-34.239 54.051-45.838 24.332-24.393 58.994-1.644 39.77 25.566-22.137 31.333-59.417 57.543-73.949 66.426s-82.458 14.309-96.409 16.502-3.849-49.271-3.849-49.271z"/></g><path d="M667.724 946.364c-2.778 0-5.448-1.55-6.748-4.216-1.814-3.724-.267-8.213 3.457-10.028l17.358-8.459c21.353-33.52 41.012-57.836 58.452-72.295 11.084-9.189 24.347-12.369 38.389-15.736 15.352-3.681 32.752-7.852 52.108-20.673 24.663-16.336 38.021-5.576 41.529-1.889 9.996 10.51 9.038 29.282-2.279 44.637-6.987 9.479-19.668 18.271-31.932 26.774s-30.726 21.302-28.851 27.838c2.306 2.686 17.546 8.627 51.581 10.684 29.612 1.79 60.396-.158 80.34-5.085 4.023-.989 8.087 1.461 9.08 5.483s-1.462 8.086-5.482 9.08c-22.16 5.473-55.773 7.507-87.727 5.31-15.218-1.047-28.593-2.985-38.678-5.605-13.41-3.483-20.752-8.068-23.106-14.428-6.429-17.369 14.274-31.722 34.296-45.603 11.257-7.804 22.896-15.874 28.403-23.346 7.455-10.114 7.613-21.06 3.485-25.4-3.875-4.073-12.448-2.52-22.377 4.057-21.566 14.284-41.154 18.98-56.895 22.754-13.36 3.203-23.914 5.733-32.313 12.697-16.535 13.708-35.542 37.451-56.492 70.569a7.49 7.49 0 0 1-3.053 2.732l-19.267 9.389c-1.058.516-2.178.76-3.28.76zm218.16 42.484c-3.745 0-6.982-2.8-7.438-6.611a7.5 7.5 0 0 1 6.557-8.336l7.848-.907c50.906-5.811 79.617-10.662 85.334-14.417 12.17-7.993 68.016-53.608 75.703-72.107a7.5 7.5 0 1 1 13.852 5.756c-9.672 23.277-70.046 71.484-81.32 78.889-9.63 6.324-43.689 11.283-91.868 16.783l-7.77.897c-.302.036-.603.054-.899.054zm-.272 33.227c-3.791 0-7.045-2.864-7.45-6.718a7.5 7.5 0 0 1 6.676-8.242l18.858-1.797c25.173-2.314 77.556-7.13 86.275-11.966 9.845-5.461 48.405-34.789 62.433-45.628 3.277-2.532 7.988-1.929 10.521 1.349a7.5 7.5 0 0 1-1.349 10.521c-2.096 1.62-51.479 39.75-64.329 46.876-10.615 5.888-48.025 9.727-92.177 13.786l-18.666 1.778a7.56 7.56 0 0 1-.792.042zm.128 25.711a7.5 7.5 0 0 1-7.495-7.334c-.091-4.141 3.191-7.572 7.333-7.664 3.323-.073 9.137-.069 16.499-.065 20.815.016 76.091.052 83.843-3.452 9.979-5.12 30.907-19.478 31.117-19.623a7.5 7.5 0 1 1 8.494 12.364c-.891.612-21.933 15.048-32.806 20.625-8.424 4.321-38.363 5.146-90.658 5.086-7.268-.004-13.006-.008-16.158.061l-.169.002z" class="D"/><g class="C"><path d="m675.874 1115.679c-20.71-33.449-34.762-114.932-25.412-173.341l-47.226 1.853c-9.349 58.409.448 151.754 27.276 192.077l45.361-20.588z"/><ellipse cx="646.073" cy="1113.336" rx="48.792" ry="29.275" transform="matrix(.950331 -.31124 .31124 .950331 -314.419 256.375)"/></g><path d="M610.171 1108.425c-1.984 0-3.963-.782-5.438-2.334a7.5 7.5 0 0 1 .271-10.603c7.774-7.387 18.018-13.3 29.623-17.101 10.715-3.509 21.677-4.889 31.695-3.986a7.5 7.5 0 0 1 6.798 8.142c-.372 4.125-4.016 7.164-8.142 6.798-8.008-.72-16.889.421-25.683 3.301-9.368 3.068-17.876 7.94-23.959 13.72-1.451 1.379-3.31 2.063-5.165 2.063z" class="E"/><ellipse cx="647.217" cy="1116.83" fill="#111" rx="35.362" ry="21.217" transform="matrix(.950331 -.31124 .31124 .950331 -315.45 256.905)"/><path d="M293.982 1009.47a7.47 7.47 0 0 1-4.831-1.767 7.5 7.5 0 0 1-.898-10.568c11.25-13.34 38.579-37.77 59.809-51.496 3.479-2.247 8.121-1.252 10.371 2.226a7.5 7.5 0 0 1-2.226 10.371c-21.155 13.677-47.157 37.506-56.486 48.569-1.483 1.759-3.603 2.665-5.737 2.665zm451.766-148.261a7.48 7.48 0 0 1-1.039-.072 7.5 7.5 0 0 1-6.4-8.458l6.642-46.939c.594-4.099 4.396-6.936 8.499-6.346s6.94 4.4 6.346 8.499l-6.628 46.845c-.521 3.754-3.735 6.472-7.42 6.472z" class="D"/></svg>