<svg xmlns="http://www.w3.org/2000/svg" width="2727" height="3000" xmlns:v="https://vecta.io/nano"><style><![CDATA[.B{fill:#a85f36}.C{fill:#e09273}.D{fill:#330096}.E{fill:#5917c1}.F{fill:#4f2000}]]></style><g transform="matrix(1.362639 0 0 1.361839 225 1568.181818)"><svg width="1712.252" height="811.069"><path d="M1712.252 811.069C1427.31 692.32 205.715 642.719 205.715 642.719L0 0l1580.223 198.678 132.028 612.391z" fill="#007a63"/></svg></g><g transform="matrix(1.363565 0 0 1.362614 531.818182 1442.727273)"><svg width="1345.07" height="1022.767"><path d="M1345.07 1022.767C1085.838 874.219 0 601.786 0 601.786L32.42 0l1245.657 374.25 66.992 648.517z" fill="#00ba96"/><g fill="#007a63"><path d="M1218.534 898.701a4.99 4.99 0 0 1-2.101-.463C1068.429 829.702 135.588 589.017 126.182 586.594a5.002 5.002 0 0 1-3.749-5.035c1.102-28.558-24.184-59.315-56.366-68.563a5 5 0 0 1-3.614-5.037l18.156-392.556a4.998 4.998 0 0 1 6.422-4.561c16.437 4.896 31.881 3.395 42.372-4.117 7.635-5.467 11.873-13.598 12.256-23.513a4.999 4.999 0 0 1 6.429-4.598L1174.63 385.707a5.002 5.002 0 0 1 3.547 4.342c2.336 25.931 27.806 54.048 56.777 62.676a5 5 0 0 1 3.55 4.311l38.399 396.82a5.001 5.001 0 0 1-6.758 5.154c-12.933-4.931-26.361-3.163-35.924 4.728-8.675 7.159-12.698 18.038-10.762 29.103a5.001 5.001 0 0 1-4.925 5.862zM132.438 577.881c64.179 16.586 915.7 237.217 1080.568 307.892.435-11.471 5.679-22.181 14.852-29.75 10.496-8.661 24.421-11.685 38.377-8.603l-37.368-386.152c-29.963-10.356-55.936-39.248-60.231-66.917L150.961 89.91c-1.875 10.214-7.327 18.924-15.736 24.945-11.642 8.336-27.75 10.842-44.91 7.146l-17.694 382.57c16.124 5.456 30.927 15.777 42.016 29.368 11.083 13.583 17.315 29.037 17.801 43.942zm729.689-40.885c5.94 117.326-75.416 190.154-182.422 159.437-107.62-30.893-195.765-153.367-196.303-270.302-.523-113.656 82.373-178.643 184.633-148.156 101.706 30.321 188.316 144.953 194.091 259.021z"/><path d="M727.488 708.471c-15.813 0-32.306-2.393-49.162-7.232-53.007-15.216-103.074-52.42-140.978-104.758-37.747-52.122-58.681-112.612-58.946-170.327-.267-58.129 20.582-105.867 58.707-134.421 35.726-26.757 82.73-33.345 132.355-18.55 50.311 14.999 98.463 50.475 135.588 99.893 37.188 49.502 59.23 107.626 62.068 163.666 3.072 60.689-17.192 112.98-55.597 143.464-23.566 18.706-52.441 28.264-84.037 28.264zM618.83 275.469c-28.286 0-54.257 8.189-75.726 24.268-35.527 26.608-54.954 71.487-54.701 126.371.534 116.063 86.97 235.174 192.682 265.519 47.344 13.59 91.46 6.752 124.223-19.253 35.841-28.449 54.73-77.707 51.826-135.125-5.604-110.673-91.073-224.833-190.526-254.482-16.37-4.88-32.417-7.297-47.777-7.297zM318.477 377.852c-.535 33.789-32.222 52.292-70.841 41.049-38.698-11.265-69.211-47.977-68.089-81.719 1.113-33.46 32.961-51.27 71.073-40.052 38.036 11.195 68.388 47.214 67.857 80.722z"/><path d="M269.627 427.182c-7.502 0-15.383-1.149-23.388-3.479-40.725-11.855-72.884-50.742-71.688-86.686.524-15.778 7.441-29.255 19.477-37.95 14.878-10.75 36.02-13.203 58.005-6.732 19.339 5.692 37.382 17.615 50.806 33.572 13.585 16.148 20.915 34.625 20.639 52.026l-5-.079 5 .079c-.254 16.042-7.044 29.786-19.119 38.698-9.453 6.978-21.501 10.552-34.731 10.552zm-41.234-128.405c-10.944 0-20.816 2.838-28.51 8.396-9.609 6.942-14.913 17.377-15.339 30.177-1.053 31.663 27.877 66.094 64.489 76.752 19.102 5.561 37.102 3.55 49.386-5.517 9.645-7.119 14.852-17.773 15.059-30.811.495-31.245-28.336-65.27-64.269-75.846-7.165-2.109-14.188-3.151-20.816-3.151zm926.811 324.012c2.908 34.043-24.59 53.15-61.507 42.404-36.99-10.768-68.967-47.286-71.338-81.291-2.352-33.728 25.36-52.155 61.815-41.425 36.383 10.709 68.146 46.547 71.03 80.313z"/><path d="M1113.409 673.16c-6.715 0-13.822-1.046-21.109-3.167-38.807-11.297-72.42-49.761-74.929-85.744-1.157-16.592 4.391-30.702 15.621-39.729 12.916-10.383 32.085-12.876 52.593-6.84 18.497 5.444 36.399 17.161 50.41 32.993 14.114 15.948 22.705 34.307 24.19 51.691 1.441 16.877-3.978 31.262-15.258 40.503-8.303 6.802-19.252 10.293-31.519 10.293zm-49.171-128.722c-9.836 0-18.497 2.664-24.98 7.875-8.603 6.916-12.833 18.01-11.911 31.24 2.242 32.147 32.633 66.617 67.748 76.839 17.385 5.062 33.238 3.143 43.495-5.26 8.653-7.089 12.784-18.424 11.632-31.917-2.709-31.723-32.972-65.791-67.459-75.942-6.447-1.897-12.693-2.834-18.524-2.834z"/></g></svg></g><g transform="matrix(1.366699 0 0 1.365953 170.454545 1542.272727)"><svg width="1559.497" height="874.514"><path d="M1165.402.724L52.859 135.078c-41.095 4.963-64.939 49.065-46.588 86.168l295.573 597.593c20.511 41.469 66.789 63.454 111.892 53.158l1099.073-250.914c39.704-9.064 59.035-54.207 38.196-89.197L1263.308 48.832A100 100 0 0 0 1165.403.724z" fill="#ffd215"/><path d="M1201.885 518.18l24.293 42.881 199.2-41.6-24.341-41.467zM863.62 586.312l-467.21 94.106 24.522 48.885 467.357-97.604-24.669-45.386zM388.932 382.927l-14.377-27.819 27.143-4.241c1.326-.208 2.442-.747 3.187-1.539l24.396-25.986 37.404 71.646-48.15-15.761c-1.396-.457-2.863-.588-4.19-.376l-25.412 4.075zm-12.585 2.019l-14.376-27.872-16.865 2.635-18.357 2.868 14.374 28.018 35.225-5.649zm41.137 4.231l-46.492 7.525 18.076 35.1 75.077-12.544c7.043-1.177 10.651-6.349 8.781-11.975l-55.441-18.106zm-117.277 7.979l28.164-4.517-14.372-28.07-26.373 4.121c-1.369.214-2.877.078-4.306-.386l-49.667-16.139 37.353 73.738 25.893-27.152c.78-.816 1.938-1.376 3.308-1.596zm46.07-48.446l48.221-7.462 28.376-30.085c-3.484-5.763-11.954-9.475-19.398-8.361l-75.057 11.233 17.857 34.675zm12.05 50.042l-50.831 8.228-30.011 31.617c3.55 6.013 12.379 9.781 20.189 8.476l78.727-13.154-18.075-35.167zm-73.748-40.494l49.034-7.588-17.855-34.74-78.689 11.777c-7.383 1.105-11.331 6.272-9.561 11.964l57.071 18.588zm250.424 3.057c-1.545.248-3.343.017-5.027-.751-3.373-1.539-5.013-4.646-3.663-6.937 2.689-4.57-.592-10.78-7.315-13.853-3.368-1.539-5.003-4.637-3.651-6.916s5.172-2.87 8.533-1.332c13.413 6.14 19.975 18.534 14.628 27.668-.671 1.146-1.961 1.873-3.505 2.121zm27.845 8.991c5.13-8.858 4.898-19.462-.631-29.872-5.521-10.395-15.68-19.38-28.625-25.32-3.35-1.537-7.151-.952-8.493 1.309s.289 5.345 3.644 6.883c9.73 4.46 17.363 11.211 21.505 19.023 4.146 7.82 4.306 15.782.437 22.426-1.336 2.293.307 5.398 3.67 6.932 1.681.767 3.472.996 5.01.746s2.818-.978 3.483-2.126zm24.275 11.083c15.667-27.349-4.017-64.236-43.883-82.577-3.334-1.535-7.121-.961-8.451 1.285s.294 5.316 3.636 6.851c33.299 15.301 49.703 46.102 36.571 68.904-1.323 2.295.323 5.399 3.677 6.928 1.675.765 3.461.991 4.99.739s2.804-.982 3.461-2.131zm24.208 11.052c20.644-36.431-5.599-85.418-58.508-109.82-3.321-1.533-7.09-.969-8.412 1.261s.299 5.287 3.629 6.82c46.402 21.375 69.366 64.324 51.196 96.217-1.31 2.297.34 5.399 3.684 6.924 1.671.763 3.449.987 4.971.733s2.789-.986 3.439-2.135zm-50.548 139.301l-218.644 40.486-26.854-53.533 218.571-38.734 26.926 51.782zm255.791-101.884l-201.356 35.684 26.939 51.132 201.357-37.285zm261.175-46.284l-186.098 32.98 26.929 48.936 186.043-34.449-26.874-47.466zm242.006-42.888l-172.51 30.572 26.843 46.919 172.411-31.925-26.744-45.565z" fill="#fff"/></svg></g><g transform="matrix(1.359933 0 0 1.359886 553.636364 159.545455)"><svg width="1395.791" height="1662.573"><clipPath id="A"><use href="#F"/></clipPath><clipPath id="B"><use href="#G"/></clipPath><clipPath id="C"><ellipse cx="797.649" cy="247.601" rx="17.81" ry="20.456" transform="matrix(.987789 -.155797 .155797 .987789 -28.835 127.289)"/></clipPath><clipPath id="D"><ellipse cx="869.033" cy="236.295" rx="17.81" ry="20.456" transform="matrix(.987789 -.155797 .155797 .987789 -26.202 138.272)"/></clipPath><path d="M1016.721 1418.509s7.296 1.291 8.854 28.522c1.25 21.861 1.332 38.553-8.108 56.618-12.735 24.368-52.53 41.231-92.386 42.29-26.595.707-75.336-10.228-112.566-51.96-7.508-8.415-25.908-31.58-34.604-38.885-7.677-6.45-16.185-11.556-24.351-16.124-65.606-36.695-100.764-92.986-107.847-128.669-4.028-20.292 5.98-42.941 16.146-53.192 3.779-3.811 13.362-15.825 48.799-24.048-2.48 1.769 306.064 185.449 306.064 185.449z" fill="#374047"/><use href="#F" fill="#f62"/><g clip-path="url(#A)"><path d="M802.724 1464.368a5 5 0 0 1-1.37-9.809c7.643-2.181 13.675-4.395 19.691-6.66 38.083-14.337 61.437-37.685 74.321-54.746 14.019-18.564 19.065-33.949 19.115-34.103a5.002 5.002 0 0 1 6.286-3.233 4.997 4.997 0 0 1 3.24 6.276c-.216.679-5.471 16.858-20.384 36.719-13.698 18.242-38.532 43.19-79.054 58.446-6.218 2.341-12.462 4.631-20.469 6.917a4.998 4.998 0 0 1-1.375.193z" fill="#c83400"/></g><path d="M427.996 1533.978c1.271 5.034 4.204 20.081 2.351 47.509-2.361 34.949-21.305 77.653-106.564 80.988-34.273 1.341-66.884-11.012-103.47-41.869-15.132-12.763-32.774-34.18-48.537-46.591-18.471-14.542-47.533-30.281-64.609-42.524-56.928-40.816-88.599-85.176-101.592-126.067-12.602-39.66-1.411-67.61 9.641-82.967 2.609-3.625 17.195-19.369 33.039-29.28 9.506-5.946 60.662-18.71 100.363 1.083 83.957 41.856 251.547 129.503 279.379 239.717z" fill="#374047"/><use href="#G" fill="#f62"/><g clip-path="url(#B)" fill="#c83400"><path d="M180.597 1573.492l-.579-9.983 37.067-2.116c46.684-2.541 80.906-20.569 101.394-35.245 22.294-15.969 33.657-31.563 33.769-31.719a5.003 5.003 0 0 1 6.977-1.139 4.997 4.997 0 0 1 1.146 6.971c-.488.68-12.218 16.853-35.717 33.763-21.622 15.559-57.741 34.67-107.025 37.353l-37.032 2.114zm-101.2-74.631a5.002 5.002 0 0 1-1.763-9.681l25.175-9.481.171-.061c55.538-18.642 58.095-29.318 58.044-31.268-.067-2.552-5.01-6.886-18.72-10.698-22.085-6.142-66.939-4.097-91.71-2.332-5.948.424-24.107 2.982-24.29 3.008a5 5 0 0 1-1.398-9.902c.76-.107 18.687-2.632 24.977-3.08 31.045-2.212 72.745-3.545 95.101 2.672 17.292 4.809 25.809 11.374 26.037 20.07.175 6.663-4.846 13.117-15.352 19.731-10.512 6.619-27.138 13.768-49.42 21.251l-25.091 9.45a4.978 4.978 0 0 1-1.761.322z"/><path d="M262.194 1563.047a5.003 5.003 0 0 1-4.678-3.233c-8.889-23.503-28.077-37.819-57.03-42.553-22.836-3.733-44.728-.17-51.237 1.517-6.637 1.721-14.391 4.309-21.586 10.458a4.999 4.999 0 0 1-6.496-7.602c8.74-7.47 17.832-10.529 25.573-12.536 7.076-1.835 30.815-5.719 55.36-1.707 32.273 5.276 54.67 22.18 64.77 48.884a4.999 4.999 0 0 1-4.676 6.77z"/></g><g class="E"><path d="M534.535 901.16c-.916 104.247 83.097 263.654 109.316 319.11 3.098 50.653 12.272 109.865 99.522 137.644 5.322 15.172 64.117 92.315 207.561 57.288 29.709-7.255 53.985-20.842 66.714-34.278 30.023-31.691 7.927-56.625 7.927-56.625 7.089-35.749-11.676-88.819-58.378-137.606 0 0-.834-62.131-50.456-96.741-59.629-73.807-80.479-82.981-135.938-233.097-21.574-58.395-245.721-17.944-246.268 44.306z"/><path d="M1093.712 678.276c-1.56-9.852-129.466 16.911-178.941 39.789-30.957 14.315-247.389 29.887-314.813 74.695-38.533 25.608-68.62 56.195-65.186 121.638 4.455 84.911 139.771 199.953 167.915 146.224 15.29-29.189 36.707-41.438 42.299-44.667 71.708-41.405 231.227-74.066 289.851-111.228 85.016-53.892 63.563-196.836 58.875-226.45z"/></g><path d="M702.682 1065.623a5 5 0 0 1-4.425-7.321c10.535-20.113 25.384-35.799 44.133-46.622l.095-.055c19.902-11.491 48.282-23.403 89.312-37.486a5.001 5.001 0 0 1 3.247 9.458c-40.406 13.868-68.228 25.526-87.558 36.687l-.096.055c-17.082 9.861-30.633 24.195-40.274 42.602a5 5 0 0 1-4.433 2.681zm40.693 297.292a5 5 0 0 1-4.584-2.999c-13.047-29.852-15.429-77.969-15.524-80.003a5.001 5.001 0 0 1 9.99-.468c.022.48 2.395 48.317 14.698 76.465a5 5 0 0 1-4.579 7.004zm282.2-33.617a4.987 4.987 0 0 1-3.624-1.554c-15.626-16.427-41.716-32.819-41.978-32.982a5 5 0 0 1 5.3-8.48c1.112.695 27.414 17.214 43.923 34.57a5 5 0 0 1-3.622 8.446z" class="D"/><g class="C"><path d="M1073.992 494.98c-13.966-129.402-99.324-170.069-99.324-170.069l-194.495 38.884s-27.352 26.585-9.916 97.488l64.231 259.427c14.837 59.854 69.197 101.407 130.847 100.029 77.182-1.724 136.356-69.128 128.072-145.884l-19.413-179.875zm-749.074-26.413a34.735 34.735 0 0 1-15.773-4.1c-13.659-7.322-28.099-17.464-36.14-24.024-10.571-8.623-79.453 55.098-28.727 77.584 19.169 8.498 40.781 35.318 63.573 35.214 20.304-.093 19.029-84.637 19.029-84.637l-1.963-.036z"/><path d="M307.851 553.24c-14.725 4.806-43.192 10.665-59.515 9.624-10.444-.666-39.742-7.683-48.931-9.021-14.8-2.156-12.718-26.171 3.819-23.834 16.811 2.375 23.66 4.526 34.439 5.653 4.852.507 23.852-9.028 10.463-15.713-5.982-2.987 17.072-18.013 32.893-11.037 19.04 8.395 35.054 41.646 26.831 44.33zm-26.66-106.421a76.236 76.236 0 0 1-15.431-13.805l-46.418-54.151c-7.656-8.22-23.293 3.581-15.141 14.237 7.28 9.515 47.42 57.396 47.42 57.396l34.659-.241-5.091-3.435z"/><path d="M261.237 451.528l-76.665-58.646c-11.24-7.133-23.938 8.479-11.599 18.436l73.694 59.474 14.569-19.264z"/><path d="M254.161 464.789s-87.653-55.62-93.986-57.498c-11.559-3.428-19.501 12.691-9.262 19.679s86.472 56.571 86.472 56.571l16.776-18.751z"/><path d="M248.147 484.61l-92.871-32.361c-16.137-4.788-23.334 15.359-8.403 22.343s97.405 43.434 97.405 43.434l3.87-33.416z"/></g><path d="M244.091 488.262c-.784 0-1.58-.185-2.323-.576l-24.04-12.64a5 5 0 0 1 4.653-8.851l24.04 12.64a5 5 0 0 1-2.331 9.426zm8.776-18.277a4.966 4.966 0 0 1-2.775-.845l-78.038-52.205a5 5 0 0 1 5.56-8.312l78.038 52.205a5 5 0 0 1-2.784 9.156zm3.58-17.331a4.985 4.985 0 0 1-3.523-1.452l-20.448-20.308a5 5 0 0 1 7.047-7.095l20.448 20.308a5 5 0 0 1-3.524 8.548z" class="B"/><g class="C"><path d="M317.087 468.423c-42.082-1.097-37.339 84.811-12.43 86.414l236.739 6.391a167.064 167.064 0 0 0 40.184-3.793l232.455-50.809c35.996-7.868 60.57-41.216 57.423-77.927-3.736-43.595-44.562-74.246-87.468-65.669l-3.818.763a583.058 583.058 0 0 0-91.506 26.218l-154.938 58.455-216.642 19.955zm793.982 134.686c16.043 24.647 104.568 189.449 117.823 210.912 8.282-20.682 47.846-49.395 68.432-39.393 0 0-54.004-187.778-79.208-227.72-30.488-48.316-142.971 1.012-107.048 56.201z"/><path d="M994.157 454.148c52.615 64.446 69.692 85.82 116.912 148.961 57.264 76.571 127.452-23.98 107.048-56.201-83.583-131.994-146.195-241.314-243.45-221.997-67.131 13.334 1.731 107.484 19.49 129.237z"/></g><path d="M1052.335 539.284a4.99 4.99 0 0 1-3.936-1.913l-61.988-76.899a5 5 0 1 1 7.746-6.324l62.108 77.048a5 5 0 0 1-3.929 8.087z" class="B"/><g class="C"><path d="M1228.893 814.021c5.616 13.817 22.19 89.825 33.946 104.464 9.936 12.371 68.316-36.902 66.631-59.51s-2.634-57.753-25.299-69.788l-6.846-14.56c-15.763-50.371-94.442 1.37-68.432 39.393z"/><path d="M1262.839 918.485c8.513 10.487 27.327 31.667 36.108 37.814 6.53 4.572 37.641 16.31 45.67 18.4 14.164 3.687 22.179-17.358 7.417-21.94s-38.102-16.486-38.102-16.486l-29.879-33.585-21.215 15.798z"/><path d="M1280.975 905.56c8.513 10.487 27.507 32.964 37.09 37.766 7.672 3.845 42.521-3.344 50.758-4.337 14.531-1.752 12.991-25.31-2.424-24.172s-39.425 3.791-39.425 3.791l-27.32-30.473z"/><path d="M1297.164 890.388c8.513 10.487 30.375 31.752 40.292 35.818 7.94 3.256 42.654-11.157 50.537-13.745 13.906-4.565 7.781-27.365-7.112-23.229s-36.405 11.654-36.405 11.654l-28.633-27.923z"/><path d="M1311.319 877.183c2.438 3.169 18.85 25.311 21.968 25.558s32.034 1.226 35.439-3.036 8.938-20.81 10.612-25.821c5.487-16.421-18.458-22.019-23.98-5.606-1.958 5.82-3.582 9.639-3.582 9.639l-10.89.155-11.417-19.097-18.151 18.207z"/></g><path d="M1332.448 949.157c-.049 0-.099 0-.148-.002-.378-.011-9.312-.277-14.764-.856-3.562-.379-9.309-3.156-24.928-20.886-8.226-9.338-15.284-18.402-15.58-18.784a5 5 0 1 1 7.895-6.137c12.665 16.289 29.213 34.535 33.777 35.875 5.085.531 13.804.791 13.892.793a5.001 5.001 0 0 1-.143 9.998zm-13.855-10.803h.005-.005zm20.692-7.008c-1.053 0-1.997-.074-2.807-.236-8.608-1.717-32.904-26.649-42.95-37.289a5 5 0 1 1 7.271-6.865c14.677 15.543 33.261 33.1 37.692 34.361 4.027.801 21.088-3.889 34.554-8.701a5 5 0 0 1 3.366 9.417c-6.508 2.326-26.917 9.314-37.127 9.314zm3.846-23.436c-4.712 0-8.604-.111-10.059-.173-2.268-.098-6.489-.28-25.836-27.669a5.001 5.001 0 0 1 8.168-5.77c6.915 9.788 15.904 21.157 18.994 23.484 10.421.391 26.332.028 30.475-1.431l3.857-7.192a5.001 5.001 0 0 1 8.848 4.66l-4.5 8.35c-1.815 3.206-5.735 5.048-21.218 5.598-2.974.106-5.99.143-8.728.143zm-8.331-9.858zm30.591-1.922z" class="B"/><path d="M836.296 120.578c14.752-57.117-11.207-110.326-70.452-119.432-70.712-10.868-84.068 59.156-128.671 56.808C619.036 56.999 612.5 47.19 612.5 47.19c-16.845 12.514-14.573 75.879 5.346 99.384 26.309 4.355 46.358-8.091 55.782-17.895-4.493 13.961-26.812 33.386-43.127 38.372 1.332 7.045 14.459 27.156 49.601 25.856 12.703-.47 45.306-9.153 54.831-49.104 8.642-36.244 28.891-33.77 38.036-32.651 14.371 1.758 19.938 16.762 19.938 16.762z" fill="#773a11"/><path d="M673.629 133.679a5 5 0 0 1-3.51-8.561c4.978-4.906 9.282-15.444 13.838-26.601 11.963-29.291 28.345-69.405 77.733-66.805 48.008 2.528 61.631 58.815 62.828 80.291a5 5 0 0 1-9.985.557c-1.059-18.984-12.711-68.721-53.37-70.862-42.291-2.227-56.518 32.609-67.949 60.6-5.171 12.661-9.637 23.596-16.077 29.942a4.983 4.983 0 0 1-3.509 1.439zm48.373 1.295a4.999 4.999 0 0 1-4.865-6.17c6.797-28.267 23.116-57.995 48.549-56.657 24.489 1.289 33.734 24.934 34.116 25.94a5 5 0 0 1-9.345 3.561c-.301-.776-7.404-18.573-25.297-19.515-19.334-1.018-32.712 25.765-38.301 49.008a5.001 5.001 0 0 1-4.857 3.832z" class="F"/><path d="M850.242 121.553c3.854-1.877 2.391-7.825-.254-10.205-12.665-11.392-55.59-8.744-72.151 9.947-3.775 4.261-1.194 10.098 1.706 12.075 21.154-12.717 46.332-12.602 70.699-11.817z" fill="#111"/><g class="C"><rect height="207.072" rx="45.356" transform="matrix(-.931621 .36343 -.36343 -.931621 1787.699 312.497)" width="90.712" x="819.096" y="220.89"/><path d="M817.171 139.768c63.563-10.067 91.666 40.512 95.947 67.545 3.551 22.417 4.158 48.598-.461 65.417-8.229 29.966-35.423 52.282-65.394 57.029s-62.73-8.073-79.817-34.03c-9.59-14.569-17.103-39.656-20.654-62.073-4.282-27.033 6.816-83.821 70.379-93.889z"/></g><path d="M834.764 335.741a88.244 88.244 0 0 1-17.861-1.845 5 5 0 0 1 2.021-9.793c9.247 1.909 18.518 2.15 27.556.719 14.375-2.277 28.431-9.012 39.58-18.966a5 5 0 0 1 6.66 7.46c-12.563 11.216-28.428 18.81-44.675 21.383a84.857 84.857 0 0 1-13.28 1.042z" class="B"/><path d="M813.911 119.189c105.887-15.509 102.854 97.26 102.854 97.26l-9.263 1.467c-2.181-31.409-25.614-46.66-34.634-51.248-19.107-9.717-45.696-11.655-54.28-17.955-6.217 8.645-30.906 18.704-46.075 33.85-7.161 7.15-24.734 28.896-17.103 59.442l-9.263 1.467s-38.122-108.775 67.765-124.284z" fill="#773a11"/><path d="M807.7 159.75a5 5 0 0 1-2.977-9.02c7.53-5.568 10.899-8.957 12.402-10.827-3.842-.215-11.272.713-17.98 2.37a5.001 5.001 0 0 1-2.397-9.709c.243-.06 6.011-1.475 12.204-2.222 7.219-.871 15.863-1.116 18.63 4.771 2.799 5.955-1.943 12.588-16.912 23.658a4.979 4.979 0 0 1-2.969.98zm-5.003 54.438c10.66.154 10.863-17.134.265-16.575s-28.203 8.669-33.845 18.639c-3.187 5.631.263 8.395 2.836 6.429 6.771-5.172 21.932-8.621 30.744-8.493z" class="F"/><path d="M827.635 274.295a5 5 0 0 1-4.838-6.275c2.049-7.772 10.273-12.134 16.712-11.722 5.899.379 10.052 4.365 10.838 10.403a5 5 0 0 1-9.916 1.292c-.198-1.519-.722-1.661-1.563-1.715-2.331-.151-5.745 1.801-6.402 4.292a5.002 5.002 0 0 1-4.831 3.727z" class="B"/><path d="M833.388 298.269c3.343 2.777-5.03 15.358-20.929 13.574-16.863-1.892-20.858-21.34-17.059-23.324s13.635 7.435 20.795 8.713c9.494 1.694 14.294-1.371 17.194 1.037z" fill="#fff"/><path d="M853.933 206.073c-10.091 3.441-15.626-12.939-5.374-15.682s29.501-.471 37.948 7.268c4.771 4.371 2.344 8.065-.71 6.991-8.038-2.827-23.523-1.421-31.864 1.423z" class="F"/><ellipse cx="797.649" cy="247.601" fill="#fff" rx="17.81" ry="20.456" transform="matrix(.987789 -.155797 .155797 .987789 -28.835 127.289)"/><g clip-path="url(#C)"><ellipse cx="804.217" cy="249.586" fill="#111" rx="11.591" ry="16.207" transform="matrix(.987789 -.155797 .155797 .987789 -29.064 128.337)"/></g><ellipse cx="869.033" cy="236.295" fill="#fff" rx="17.81" ry="20.456" transform="matrix(.987789 -.155797 .155797 .987789 -26.202 138.272)"/><g clip-path="url(#D)"><ellipse cx="876.178" cy="237.949" fill="#111" rx="11.591" ry="16.207" transform="matrix(.987789 -.155797 .155797 .987789 -26.372 139.406)"/></g><path d="M759.913 240.552c-8.191-19.348-30.477-12.372-26.115 8.828 4.32 20.994 16.935 30.228 26.031 27.609 8.535-2.458 6.485-21.318.084-36.436z" class="C"/><g class="B"><path d="M757.006 267.161a5.002 5.002 0 0 1-4.951-4.346c-1.344-10.169-8.384-15.988-10.966-16.125a5 5 0 1 1 .528-9.986c8.133.43 18.491 10.721 20.352 24.801a5 5 0 0 1-4.963 5.656z"/><path d="M747.773 260.923a5 5 0 0 1-3.325-8.736l5.416-4.818a5 5 0 0 1 6.647 7.471l-5.416 4.818a4.984 4.984 0 0 1-3.322 1.264z"/></g><path d="M902.77 217.926c1.811-20.932 25.162-21.184 27.564.326 2.379 21.302-6.765 33.981-16.225 34.301-8.877.3-12.755-18.27-11.339-34.627z" class="C"/><g class="B"><path d="M912.2 242.581a5.002 5.002 0 0 1-4.911-4.092c-2.581-13.965 4.09-26.954 11.692-29.876a5 5 0 1 1 3.588 9.334c-2.414.928-7.311 8.638-5.447 18.724a4.999 4.999 0 0 1-4.922 5.909z"/><path d="M919.065 233.794c-.67 0-1.351-.135-2.004-.421l-6.64-2.909a5 5 0 0 1 4.013-9.16l6.64 2.909a5 5 0 0 1-2.01 9.581z"/></g><path d="M796.262 370.591s17.534 23.703 68.882 12.727c57.99-12.395 90.037-47.681 90.037-47.681s-55.653 94.847-115.112 189.629c0 0-51.066-40.851-43.807-154.675z" fill="#cc2bc5"/><path d="M971.134 609.255c57.081-5.375 108.438.851 115.386 3.324l-5.218-48.978-36.82-47.31c-10.802-2.932-54.056-6.362-67.955-54.177-15.539-53.454-9.177-115.416-6.436-135.693a4.88 4.88 0 0 0-5.794-5.438l-10.155 2.03c-3.547.709-6.423 3.048-8.321 6.128-11.498 18.654-64.549 96.464-105.705 170.712-15.862-22.043-31.793-88.344-30.409-141.659.086-3.325-3.415-5.622-6.676-4.97l-12.585 2.516a7.43 7.43 0 0 0-5.902 6.234l-23.672 149.095c-8.771 59.933 47.729 106.155 47.729 106.155l7.115 28.935c31.062-14.924 76.539-29.477 155.418-36.904z" fill="#ff5cf0"/><g fill="#cc2bc5"><path d="M808.605 622.226a5 5 0 0 1-2.168-9.508c39.883-19.162 89.807-31.038 157.114-37.375 55.486-5.224 112.788 1.447 121.673 4.61a5 5 0 1 1-3.353 9.421c-6.417-2.284-61.529-9.334-117.382-4.075-66.092 6.223-114.938 17.8-153.721 36.433a4.987 4.987 0 0 1-2.162.494z"/><path d="M916.41 589.483c-49.392 0-65.75-21.849-66.505-22.898a5 5 0 0 1 8.093-5.874c.33.431 19.123 24.185 78.483 17.61 51.335-5.686 65.222-26.891 65.356-27.104 1.421-2.368 4.479-3.113 6.847-1.692s3.122 4.514 1.701 6.882c-.625 1.041-15.95 25.556-72.803 31.854-7.65.847-14.696 1.223-21.172 1.223z"/><path d="M879.087 591.407c-25.125 0-40.593-1.835-41.625-1.961a5 5 0 0 1 1.212-9.927c.404.049 41.002 4.842 97.828-1.201 68.106-7.244 84.558-20.51 84.717-20.643 2.044-1.856 5.17-1.673 7.027.371s1.668 5.238-.375 7.095c-1.725 1.567-18.915 15.527-90.31 23.12-22.576 2.401-42.483 3.145-58.474 3.145z"/></g><path d="M822.842 673.733s-6.458 29.824-5.901 42.179c.718 15.901 6.691 42.395 29.755 74.625 31.233 43.647 109.248 51.653 143.588 46.566 103.896-15.392 118.619-103.258 111.785-140.106-3.24-17.469-12.377-56.54-12.377-56.54-43.77-5.795-192.164 1.495-266.85 33.276z" class="D"/><path d="M510.038 754.822c-65.359 53.717-153.746 171.695-184.375 270.889 0 0-44.076 21.008-56.245 96.245-7.297 45.112-110.485 101.014-137.172 158.002-20.395 43.552-13.351 83.747 18.903 116.479 24.348 24.709 52.375 9.056 98.08 52.368 13.165 12.475 53.308 56.766 120.839 68.976 37.668 6.811 77.076-1.488 82.778-14.736 24.079-8.351 39.399-26.083 53.855-69.82 17.81-53.887 19.543-87.553 19.543-87.553s37.97-8.185 45.653-46.403c6.977-34.706 6.486-75.315 35.152-121.735s59.915-110.865 76.287-178.288c3.411-14.046 3.631-16.386 13.511-56.215s-138.162-228.193-186.811-188.21z" class="E"/><path d="M388.666 1408.482a4.972 4.972 0 0 1-2.315-.572c-21.128-11.065-42.52-29.479-46.714-40.21a5 5 0 0 1 9.314-3.64c2.948 7.544 21.954 24.473 42.04 34.991a5 5 0 0 1-2.324 9.43zm-135.604-200.14c-2.508 0-5.215-.141-8.141-.418a5 5 0 1 1 .943-9.955c11.417 1.082 18.354-.144 21.829-3.858 7.111-7.597 3.588-29.345-1.743-62.266a5799.08 5799.08 0 0 1-1.468-9.099 5 5 0 0 1 9.874-1.582l1.465 9.082c6.215 38.376 9.639 59.516-.827 70.698-4.7 5.022-11.622 7.397-21.932 7.398zm273.189 142.33a5 5 0 0 1-4.983-5.476c2.67-27.936 19.583-59.904 20.302-61.251a5 5 0 0 1 8.824 4.706c-.167.313-16.693 31.575-19.171 57.497a5.001 5.001 0 0 1-4.971 4.525z" class="D"/><path d="M1102.068 696.997c22.302 110.916-10.64 183.264-60.231 207.729-11.72 5.782-24.722 10.324-38.599 14.244-78.793 22.257-187.837 20.275-287.343 35.875-109.42 17.154-245.885-168.631-205.857-200.024 83.835-65.75 260.801-37.422 384.635-56.201 159.118-24.13 207.395-1.623 207.395-1.623z" class="E"/><g class="D"><path d="M999.067 709.283a4.977 4.977 0 0 1-1.781-.33c-22.546-8.601-52.295-16.56-101.995-10.371a5.001 5.001 0 0 1-1.236-9.924c51.88-6.46 83.099 1.911 106.796 10.951a5 5 0 0 1-1.784 9.673z"/><path d="M985.886 752.952a4.988 4.988 0 0 1-3.672-1.605c-27.24-29.46-61.794-50.166-88.031-52.75a5 5 0 0 1 .98-9.952c34.633 3.411 71.469 31.119 94.394 55.912a5 5 0 0 1-3.67 8.395zM615.914 1167.65a5 5 0 0 1-4.33-7.494c28.699-49.892 52.465-107.492 66.919-162.187l.027-.099c.042-.148 1.232-4.444 10.824-43.111a5 5 0 0 1 5.002-3.794c.073.002 7.782.202 21.23-1.13 40.576-6.337 82.768-9.781 123.571-13.11 59.908-4.889 116.494-9.507 162.72-22.565a5 5 0 1 1 2.718 9.624c-47.162 13.323-104.219 17.979-164.625 22.909-40.67 3.319-82.724 6.751-122.979 13.045a6.557 6.557 0 0 1-.277.036c-8.516.847-14.824 1.11-18.594 1.182l-9.956 39.595c-14.673 55.516-38.791 113.966-67.912 164.593a4.999 4.999 0 0 1-4.339 2.508z"/></g><g fill="#e3e5e5"><path d="M338.38 1471.214a5 5 0 0 1-2.01-9.581c.41-.181 41.989-18.848 91.186-71.203 30.508-32.466 29.824-60.303 29.325-80.629-.303-12.359-.543-22.121 6.618-28.447 15.653-13.828 16.608-29.112 17.619-45.294.67-10.729 1.363-21.824 6.691-32.075l18.94-35.683 34.781-66.037 18.551-36.443c26.073-51.402 50.7-99.954 66.556-121.831a4.997 4.997 0 0 1 4.75-2.016c23.165 3.278 28.454-9.797 35.149-26.352 3.62-8.951 7.363-18.208 14.599-24.164 17.624-14.506 77.56-12.931 146.96-11.106 54.104 1.422 110.05 2.893 139.088-4.538 58.851-15.062 121.725-72.401 105.239-184.428a5 5 0 0 1 9.894-1.456c7.594 51.604-.584 97.528-23.651 132.807-20.247 30.967-51.855 53.257-89.002 62.764-30.387 7.777-87.041 6.288-141.83 4.847-58.873-1.548-125.602-3.302-140.342 8.83-5.274 4.341-8.387 12.04-11.684 20.192-6.025 14.899-13.389 33.103-37.755 33.104a54.34 54.34 0 0 1-5-.239c-15.457 22.307-39.086 68.892-64.052 118.11l-18.57 36.482-34.867 66.199-18.88 35.571c-4.353 8.374-4.951 17.949-5.584 28.086-1.042 16.686-2.223 35.598-20.979 52.166-3.671 3.243-3.491 10.568-3.242 20.707.511 20.813 1.283 52.265-32.035 87.722-50.726 53.982-92.697 72.742-94.459 73.515a4.986 4.986 0 0 1-2.004.422z"/><path d="M337.816 1485.515a5 5 0 0 1-4.99-4.746l-1.387-27.268a5.001 5.001 0 0 1 9.988-.508l1.387 27.268a5.001 5.001 0 0 1-4.998 5.255z"/><path d="M376.087 1496.327c-15.115 0-33.074-9.228-42.203-27.92a4.999 4.999 0 0 1 3.734-7.136c3.976-.611 39.272-5.656 53.91 5.098 3.71 2.726 6.009 6.384 6.649 10.581 1.264 8.295-3.511 15.184-12.462 17.98-2.976.93-6.231 1.396-9.628 1.396zm-29.465-26.039c10.187 14.075 26.682 18.044 36.112 15.098 4.189-1.308 6.059-3.64 5.558-6.929-.778-5.104-9.397-8.309-23.648-8.795-6.612-.225-13.198.181-18.022.626z"/></g></svg></g><defs ><path id="F" d="M845.821 1247.002c-92.154-30.023-117.297-21.506-137.092-15.137-11.528 3.709-25.059 12.079-29.327 16.175-10.813 10.375-18.638 27.22-14.896 45.795 5.747 28.523 48.467 81.197 100.156 113.683 6.55 4.117 25.048 13.932 31.152 18.664 7.472 5.792 29.847 30.488 37.807 36.139 39.379 27.952 61.714 40.031 99.984 35.285 30.574-3.792 77.041-17.782 85.498-54.804 0 0 2.837-25.062-8.937-82.053-10.541-51.024-130.147-102.606-164.345-113.747z"/><path id="G" d="M243.134 1312.052c-50.991-21.528-97.019-37.509-131.212-37.508-17.477 0-33.573 3.115-44.818 7.453-14.942 5.763-31.582 18.846-36.49 25.205-12.232 15.846-18.976 40.979-10.537 67.83 12.33 39.231 53.097 92.85 111.316 127.496 7.403 4.406 33.046 23.252 59.27 42.895 7.609 5.699 32.065 25.517 39.938 31.059 41.408 29.146 68.163 36.513 107.795 35.079 31.359-1.135 70.225-15.171 86.761-51.941 0 0 8.71-26.409 9.127-91.737s-155.465-140.763-191.151-155.829z"/></defs></svg>