<svg xmlns="http://www.w3.org/2000/svg" width="3000" height="3000" xmlns:v="https://vecta.io/nano"><style><![CDATA[.B{fill:#111}.C{fill:#a85f36}.D{fill:#773a11}.E{fill:#5917c1}.F{fill:#ff5cf0}]]></style><g transform="matrix(1.495686 0 0 1.497117 408 267)"><svg width="683.967" height="1602.079"><rect fill="#e3e5e5" height="932.196" rx="13.423" width="612.575" x="34.053" y="9.801"/><path d="M651.67 952.549h-.013L34.04 951.55a7.5 7.5 0 0 1 .012-15h.013l617.617.999a7.5 7.5 0 0 1-.012 15z"/><path d="M342.991 1528.55a7.5 7.5 0 0 1-7.501-7.499l-.104-579.052a7.5 7.5 0 1 1 15-.002l.104 579.052a7.5 7.5 0 0 1-7.499 7.501zM7.504 1602.081a7.5 7.5 0 0 1-7.202-9.604L190.26 941.949a7.5 7.5 0 1 1 14.398 4.204L14.699 1596.681a7.504 7.504 0 0 1-7.196 5.4zm668.96 0a7.503 7.503 0 0 1-7.196-5.4L481.203 952.634a7.5 7.5 0 1 1 14.398-4.204l188.065 644.047a7.5 7.5 0 0 1-7.202 9.604z"/><path d="M203.345 918.774h277.277a5.89 5.89 0 0 1 5.888 5.888v19.389H197.457v-19.389a5.89 5.89 0 0 1 5.888-5.888zM423.918 25.277H262.061a5.891 5.891 0 0 1-5.888-5.888V0h173.633v19.389a5.89 5.89 0 0 1-5.888 5.888z"/><path d="M278.079 120.686c-6.97 0-12.308-6.298-16.078-13.24-4.113 8.118-10.044 11.19-14.109 12.348-8.948 2.549-19.471-.967-28.142-8.918a40.97 40.97 0 0 1-26.662 9.745 5.769 5.769 0 0 1 0-11.536c7.262 0 13.857-2.457 19.172-6.926-9.948-14.683-14.571-38.222 1.63-61.542a5.77 5.77 0 0 1 8.658-.939c13.581 12.591 17.757 33.671 10.39 52.457-1.453 3.705-3.278 7.114-5.421 10.188 5.68 5.205 12.262 7.791 17.217 6.377 5.875-1.673 9.533-9.035 10.301-20.729a5.766 5.766 0 0 1 11.346-1.04c3.066 12.081 9.323 22.083 11.782 22.211 4.872-.812 10.993-12.243 12.182-41.791a5.767 5.767 0 0 1 5.656-5.535c3.083-.033 5.621 2.276 5.858 5.32 2.358 30.355 10.181 39.963 12.764 40.028h.01c.974 0 4.767-3.3 6.141-13.968a5.765 5.765 0 0 1 4.372-4.871 5.77 5.77 0 0 1 6.108 2.35c7.613 11.123 14.512 17.175 21.088 18.502a5.767 5.767 0 1 1-2.282 11.308c-8.467-1.71-15.456-7.459-20.954-13.684-3.26 7.692-8.477 12.047-14.775 11.896-7.236-.182-13.178-6.199-17.418-17.188-3.681 11.389-9.316 17.757-16.864 19.012-.67.112-1.327.165-1.968.165zm-58.625-66.965c-8.671 17.137-3.576 31.553.517 38.952a39.652 39.652 0 0 0 2.227-4.748c3.955-10.085 4.233-23.684-2.744-34.204zM479.6 122.237c-9.966 0-19.372-6.043-27.061-17.388-1.876 7.199-4.782 14.388-11.813 15.659-12.251 2.21-20.05-7.059-25.164-16.366l-.062.284c-1.603 7.294-4.019 18.318-20.098 16.123a5.768 5.768 0 0 1-4.934-6.495 5.776 5.776 0 0 1 6.495-4.934c5.528.756 5.627.308 7.271-7.169 1.029-4.683 2.31-10.51 6.364-15.765a5.768 5.768 0 0 1 9.854 1.215l.708 1.633c4.684 10.838 9.873 21.295 17.325 20.158 1.609-1.366 3.213-8.425 3.991-11.852.887-3.903 1.724-7.59 3.076-10.397.978-2.034 3.057-3.285 5.311-3.264a5.767 5.767 0 0 1 5.177 3.474c4.71 10.875 14.791 28.237 29.389 22.335a5.768 5.768 0 0 1 4.324 10.694c-3.417 1.382-6.816 2.059-10.151 2.059l-.002-.003z" fill="#8f969e"/><path d="M486.51 146.556H197.458a5 5 0 0 1 0-10H486.51a5 5 0 0 1 0 10z" class="E"/><circle cx="352.181" cy="389.76" fill="#ffd215" r="198.383"/><path d="m177.181 296.105 174.917 93.655v198.383s-35.668 1.301-75.754-14.981c-58.872-23.913-131.735-95.827-121.594-203.785 2.123-22.596 9.604-49.999 22.431-73.272z" fill="#ef703a"/><path d="M352.181 389.76V191.718s-115.013-7.055-174.928 104.387z" fill="#ea2688"/><path d="M298.564 660.029H111.67a5 5 0 0 1-4.102-7.859l153.047-219.607a4.999 4.999 0 0 1 6.961-1.243 5 5 0 0 1 1.243 6.961L121.249 650.03h177.315a5 5 0 0 1 0 10z" class="E"/><path d="M96.862 729.476c-10.922 0-19.809-8.886-19.809-19.809s8.886-19.809 19.809-19.809 19.808 8.886 19.808 19.809-8.886 19.809-19.808 19.809zm0-29.617c-5.409 0-9.809 4.4-9.809 9.809s4.4 9.809 9.809 9.809 9.808-4.4 9.808-9.809-4.4-9.809-9.808-9.809zm0 126.573c-10.922 0-19.809-8.886-19.809-19.809s8.886-19.809 19.809-19.809 19.808 8.886 19.808 19.809-8.886 19.809-19.808 19.809zm0-29.617c-5.409 0-9.809 4.4-9.809 9.809s4.4 9.809 9.809 9.809 9.808-4.4 9.808-9.809-4.4-9.809-9.808-9.809z" fill="#ea2688"/><path d="M130.053 695.88h59.234v27.574h-59.234zm80.681-.738h59.234v27.574h-59.234zm-80.681 39.83h139.915v27.574H130.053zm0 96.976h59.234v27.574h-59.234zm80.681.739h59.234v27.574h-59.234zm-80.681-39.83h88.851v27.574h-88.851zm110.298 0h29.617v27.574h-29.617z" fill="#b7b7b7"/><path d="M377.351 722.716h49.021v137.545h-49.021zm73.532 64.058h49.021v73.487h-49.021zm74.584-33.702h49.021v107.189h-49.021z" class="E"/></svg></g><g transform="matrix(1.497844 0 0 1.498199 1260 66)"><svg width="836.202" height="1912.296"><path d="m124.049 404.337 19.912 14.005s-9.024 14.167-24.043 15.187 4.13-29.192 4.13-29.192z"/><path d="m788.9 1692.507-173.617 7.149-37.865-559.615 195.12 10.569zm-284.936-467.745-206.298-6.127-54.128 425.872 180.333 42.682z" class="C"/><path d="M742.942 610.975c13.922 106.658 45.957 468.744 60.101 816.25-.416 11.891-1.705 38.262-18.229 48.431 0 0-16.694 10.507-55.49 6.809-1.137-.108-13.666-1.109-16-14.979-9.158-54.425-14.638-214.128-14.638-214.128s-12.681 180.256-19.574 185.873c0 0-6.383 42.894-39.319 50.042s-350.298-7.148-381.958-67.404c-5.378-10.236 10.004-42.173 16.298-84.766 43.77-271.021 170.097-725.704 181.83-736.391 23.489-21.396 286.979 10.263 286.979 10.263z" class="E"/><path d="M72.23 1728.899c1.956-15.48 29.098-13.01 34.078-3.761s-37.125 27.878-34.078 3.761z" class="B"/><path d="M357.106 1627.962c25.104 0 65.515-12.858 78.986-33.37 9.338-14.219 29.538-10.809 20.818 18.981-6.186 21.133 17.563 59.542 10.409 95.675-3.864 19.514-123.771 9.573-153.409 29.539-53.26 35.878-181.85 29.647-232.058 5.768 0 0-3.327-39.258 21.767-62.099 22.422-20.409 88.54-27.093 101.665-38.376 8.561-7.36 19.962-33.27 30.89-45.39 8.151-9.041 26.667-12.197 31.325 11.122 23.879-6.123 51.035 18.15 89.609 18.15z" fill="#007a63"/><path d="M195.193 1675.7c-19.563 0-30.806-11.164-31.307-11.673a5 5 0 0 1 7.105-7.037c.467.461 10.464 10.099 27.993 8.54 22.413-1.995 47.35-21.673 72.118-56.909a5.001 5.001 0 0 1 8.181 5.751c-27.01 38.427-53.837 59-79.736 61.147a52.588 52.588 0 0 1-4.353.182z" fill="#005141"/><path d="M478.458 1704.497c9.646 13.272 14.038 50.784 12.386 86.291-22.168 11.561-95.718 10.718-121.385 5.78l-2.477-45.829c-33.03 0-44.178 21.057-61.931 45.003 0 0-105.696 20.644-165.563 12.386s-68.775-24.091-68.775-24.091c-1.362-19.957-.942-37.736 1.517-55.139 6.565 11.931 46.033 17.206 81.708 19.363 37.367 2.259 84.509 4.556 111.346-8.243 26.532-12.654 50.193-21.837 105.414-30.77 54.146-8.759 107.76-4.751 107.76-4.751z" class="B"/><path d="M697.017 1291.295a5 5 0 0 1-5-4.962l-5.328-703.096a5 5 0 0 1 4.962-5.038h.039a5 5 0 0 1 5 4.962l5.328 703.096a5 5 0 0 1-4.962 5.038z" fill="#330096"/><g class="C"><path d="M573.232 123.249c26.547-2.153 49.813 17.623 51.966 44.17l7.528 92.828c2.153 26.547-17.623 49.814-44.17 51.966s-49.813-17.623-51.966-44.17l-7.528-92.828c-2.153-26.547 17.623-49.814 44.17-51.966z"/><path d="m540.965 253.573-13.701 2.566c-.01.002-.015.001-.02.01-.336.623-22.086 41.293 12.168 49.617 34.505 8.385 84.571-9.624 107.846-50.71a.036.036 0 0 0-.026-.053l-9.481-1.254h-.005l-96.78-.177zM518.074 28.781c-27.697 3.816-53.782 27.001-51.123 82.734 1.194 25.025-8.12 32.581-7.244 52.485 1.064 24.156 19.014 40.512 38.56 50.857 8.19 4.335 17.368 6.434 26.634 6.304 26.915-.378 70.351-7.727 84.461-27.048 18.508-25.341 25.658-69.867 13.552-110.776-11.159-37.712-44.056-62.933-104.84-54.558h-.001z"/></g><path d="M500.171 63.236c-13.284-1.772-27.637 4.789-33.6 9.229s-6.782 11.996.749 9.959 22.984-3.407 30.516-1.526c10.779 2.692 13.911-16.118 2.335-17.663z" class="B"/><path d="M493.415 150.427a4.837 4.837 0 0 1-4.134-3.998c-1.394-8.328 3.516-13.051 8.999-14.037 7.666-1.378 17.505 3.887 19.543 13.652.531 2.544-.954 5.204-3.468 5.859a4.836 4.836 0 0 1-5.977-3.764c-.865-4.493-5.616-6.721-8.384-6.226-.708.127-1.586.285-1.188 2.811.345 2.19-.707 4.435-2.742 5.316a4.99 4.99 0 0 1-2.648.387z" class="D"/><path d="M545.413 168.199c3.8 2.746-2.299 19.689-17.048 23.02-15.965 3.606-25.897-5.696-24.778-11.072s11.515-1.523 20.8-3.664 17.737-10.66 21.025-8.284z" fill="#fff"/><path d="M530.798 224.478a4.839 4.839 0 0 1-4.196-4.597c-.112-2.54 1.89-4.666 4.407-5.024 10.49-1.493 32.382-8.425 43.311-14.511a4.837 4.837 0 0 1 6.764 2.238c1.065 2.345-.048 5.109-2.304 6.352-12.271 6.757-35.483 14.005-46.687 15.539a4.87 4.87 0 0 1-1.293.004h-.001z" class="D"/><ellipse cx="544.273" cy="116.25" fill="#fff" rx="17.742" ry="20.23"/><ellipse cx="544.917" cy="114.428" rx="10.956" ry="16.055" class="B"/><ellipse cx="484.968" cy="111.234" fill="#fff" rx="19.647" ry="16.419" transform="matrix(.153969 -.988076 .988076 .153969 300.39 573.293)"/><ellipse cx="486.796" cy="108.981" rx="15.219" ry="10.335" transform="matrix(.153969 -.988076 .988076 .153969 304.164 573.193)" class="B"/><g fill="#4f2000"><path d="M629.052 16.069c15.262-17.987 68.268-28.931 81.712 17.815 11.412 39.68-21.809 60.506-47.932 56.57-33.324-5.021-57.001-47.019-33.781-74.385z"/><path d="M530.372 29.409c4.405-19.624 44.666-31.56 82.311-23.15 59.863 13.374 73.997 60.239 69.684 114.138-4.105 51.299-31.68 54.846-67.115 48.725-1.707-20.913-18-31.498-24.82-52.872-13.278-41.614-6.016-70.47-60.06-86.841z"/><path d="M569.433 5.002c-14.406-4.745-69.864-10.468-89.59 17.494-15.081 21.377-6.981 44.215-6.981 44.215s9.587-23.029 27.944-32.827c12.931-6.902 29.566-4.475 29.566-4.475 3.985-12.567 16.666-20.232 39.061-24.407z"/></g><path d="M681.922 111.038a5 5 0 0 0 5-5c0-24.72-5.584-47.31-16.149-65.327-9.48-16.168-22.479-27.81-36.601-32.781a4.999 4.999 0 1 0-3.32 9.432c22.188 7.811 46.07 38.893 46.07 88.676a5 5 0 0 0 5 5z" class="B"/><path d="M620.208 138.83c9.629-14.64 38.555-15.602 35.489 7.605-2.735 20.691-24.556 33.057-35.478 27.463-12.356-6.329-5.283-27.051-.01-35.069h-.001z" class="C"/><g class="D"><path d="M624.042 163.959a4.993 4.993 0 0 1-1.134-.291c-2.449-.941-3.617-3.777-2.753-6.255 3.437-9.864 18.637-20.483 26.138-21.721a4.84 4.84 0 0 1 5.625 4.638c.081 2.458-1.839 4.442-4.246 4.943-4.429.921-16.38 9.259-18.408 15.404a4.84 4.84 0 0 1-5.223 3.281z"/><path d="M637.387 159.611a4.822 4.822 0 0 1-2.642-1.239l-5.797-5.346c-1.87-1.725-2.291-4.641-.739-6.657a4.84 4.84 0 0 1 7.123-.618l5.756 5.308c2.248 2.073 2.355 5.591-.02 7.518a4.837 4.837 0 0 1-3.68 1.034z"/></g><path d="m533.961 30.545 55.679 12.609c13.823 34.118 2.209 46.311 12.771 75.182 8.21 22.44 17.083 26.259 17.083 59.692 0 34.892-26.6 51.847-26.6 51.847 8.167-9.892 13.741-35.697 11.852-51.847-2.457-20.995-5.337-39.797-16.124-54.939-24.267-34.062.447-56.378-53.727-91.552" fill="#4f2000"/><path d="M619.012 149.299a5 5 0 0 0 4.835-6.285c-3.705-13.954-6.728-19.213-9.393-23.854-1.922-3.344-3.581-6.232-5.543-12.353-4.494-14.015-4.634-24.229-4.77-34.107-.163-11.917-.332-24.238-8.211-41.613a5 5 0 1 0-9.107 4.13c7.017 15.472 7.157 25.735 7.319 37.62.139 10.119.296 21.587 5.246 37.024 2.285 7.13 4.374 10.766 6.395 14.281 2.474 4.306 5.031 8.758 8.399 21.439a5.001 5.001 0 0 0 4.829 3.718zm-86.221-67.946c-9.946.542-16.569-17.425-.858-18.353s36.438 8.924 43.096 17.164-.217 10.429-5.575 7.009-27.726-6.308-36.662-5.82zm-2.422-46.943a4.999 4.999 0 0 0 4.527-2.873c6.978-14.832 24.051-18.898 35.349-21.589l.347-.083a5 5 0 1 0-2.318-9.727l-.345.082c-12.363 2.944-33.054 7.872-42.081 27.06a5 5 0 0 0 4.522 7.13z" class="B"/><g class="C"><path d="M173.531 333.011c33.926 24.45 97.156 77.976 130.307 103.449 33.782 25.958-36.671 133.868-65.807 104.085L105.068 405.964c-22.187-22.524 38.964-94.213 68.463-72.953z"/><path d="M173.531 333.011c-15.486-13.327-39.198-38.647-50.405-64.051s-75.038 52.209-65.221 71.169 26.705 57.551 47.163 65.835 68.463-72.953 68.463-72.953z"/><path d="M57.905 340.129c-6.336-9.226-21.986-27.089-21.986-27.089s-15.847-4.466-24.597-6.44c-13.895-3.136-9.998-24.223 7.684-20.636 11.355 2.303 23.215 3.529 29.054 7.576s23.821 24.716 23.821 24.716L57.905 340.13z"/><path d="M85.497 300.265c-6.403-8.138-23.101-31.347-30.085-36.162s-36.228-10.638-41.996-11.459c-17.563-2.501-18.581 20.286 1.101 24.964 17.557 4.173 31.592 9.943 31.592 9.943l24.234 31.984 15.154-19.269z"/><path d="M100.118 283.313c-4.075-6.949-22.259-34.193-30.544-39.117-9.523-5.658-40.215-18.126-47.596-21.109-18.412-7.439-31.692 13.328-9.805 24.454s39.545 17.896 39.545 17.896l30.939 37.189 17.461-19.315z"/><path d="M123.126 268.96c-4.994-12.968-33.531-40.962-40.91-45.171-8.536-4.869-32.759-15.279-48.434-21.038s-30.006 15.07-10.49 26.041 44.765 19.144 44.765 19.144l28.618 37.525 26.452-16.501z"/></g><path d="M99.876 289.303l-.169.135a4.998 4.998 0 0 1-7.007-.944l-27.692-36.311c-10.565-3.604-47.263-16.79-53.813-28.122a4.994 4.994 0 0 1 1.826-6.83 4.999 4.999 0 0 1 6.831 1.827c3.692 6.386 31.339 17.959 49.793 24.137a5.005 5.005 0 0 1 2.388 1.71l28.617 37.525a5 5 0 0 1-.774 6.874zm-14.022 17.169a5 5 0 0 1-7.042-.646l-30.185-36.282-28.598-12.552a5.002 5.002 0 0 1-2.57-6.588 4.998 4.998 0 0 1 6.588-2.568l29.678 13.026a5.007 5.007 0 0 1 1.834 1.38l30.939 37.189a5 5 0 0 1-.646 7.042zm-10.78 15.631a5 5 0 0 1-6.839-.424l-21.131-22.501a5.002 5.002 0 0 1 .222-7.068c2-1.864 5.176-1.79 7.068.222l21.131 22.501a5.002 5.002 0 0 1-.451 7.27z" class="D"/><path d="M136.949 302.23c-26.155-14.772-50.939-20.095-61.787-23.607-19.325-6.254-32.782 19.023-4.235 29.984l37.57 14.883c-6.535 18.869 6.854 35.043 18.071 45.317" class="C"/><path d="M129.761 372.656a4.999 4.999 0 0 1-6.57-.161c-16.895-15.475-23.838-30.938-20.694-46.036l-33.362-13.183c-17.386-6.675-21.888-18.942-18.637-28.136 3.079-8.713 13.723-15.311 26.203-11.272 2.008.65 4.585 1.385 7.57 2.236 12.532 3.575 33.507 9.557 55.138 21.773a5 5 0 0 1-4.917 8.707c-20.597-11.633-40.074-17.188-52.963-20.865l-7.904-2.338c-6.935-2.244-12.232.949-13.697 5.092-1.996 5.645 3.027 11.717 12.794 15.467l37.659 14.918a5 5 0 0 1 2.844 6.269c-4.366 12.605 1.105 25.687 16.723 39.994a4.998 4.998 0 0 1-.184 7.534z" class="D"/><path d="M524.049 245.358s-83.404-5.447-122.894 39.489c-27.888 31.735-83.319 140.516-83.319 140.516s-20.851-30.218-36.851-26.473c0 0-11.234-24.17-34.723-27.234l-19.064-8.851-64.851 97.021s95.711 134.824 156.647 133.462 135.608-91.61 135.608-91.61z" class="F"/><path d="M520.214 654.91s87.68-39.916 128.35-75.296c52.675-45.823 174.727 85.883 80.083 137.041-47.024 25.417-135.558 37.348-182.665 43.772S520.213 654.91 520.213 654.91zm-10.263 3.017c-14.149-6.183-45.217-28.091-70.438-24.544s-54.817 12.957-67.211 16.655c-17.396 5.191-13.777 28.822 7.011 25.079l47.59-8.648s23.251 36.664 54.382 30.753 28.666-39.295 28.666-39.295z" class="C"/><path d="m470.473 832.32-192.048 7.118c-6.782.389-14.165-5.035-16.514-12.136l-92.649-262.446c-3.701-10.281 4.926-23.64 15.185-25.343l209.106-23.966c7.801-.894 16.032 5.4 18.355 14.027l75.291 279.586c2.491 10.734-7.883 23.028-16.726 23.162z" fill="#8f969e"/><path d="M470.473 832.32 273.94 843.579c-6.782.389-14.165-5.035-16.514-12.136l-88.164-266.587c-2.712-8.199.899-15.538 8.093-16.363l209.106-23.966c7.801-.894 16.032 5.4 18.355 14.027l75.291 279.586c2 7.425-2.325 13.763-9.635 14.181z" fill="#656c72"/><path d="M204.352 573.366c-1.599-4.957-6.439-8.592-10.8-8.107-4.354.484-6.568 4.889-4.954 9.829 1.61 4.928 6.424 8.536 10.763 8.069s6.585-4.847 4.99-9.792z" class="B"/><g class="C"><path d="M520.214 654.91c-16.055 5.933-55.911 15.465-86.239 14.346s-6.92 108.582 16.734 109.51 81.834-13.452 95.274-18.34c31.836-11.576.579-113.957-25.769-105.517z"/><path d="M450.708 778.766c-14.404 1.222-43.836 3.15-55.349.413-9.33-2.218-28.658-10.808-39.232-16.502-13.37-7.199-4.882-29.064 11.298-23.557s35.445 11.339 35.445 11.339l43.59-1.962 4.247 30.269z"/><path d="M450.708 756.58c-8.733.546-52.653 6.004-62.478 3.82s-44.728-11.609-53.029-15.01c-16.648-6.823-6.277-31.931 12.773-26.2 15.201 4.574 44.076 11.735 44.076 11.735l53.199-5.731 5.458 31.385z"/><path d="M446.461 732.16c-7.168.782-48.276 3.873-59.116 2.653s-44.371-8.823-55.847-11.979c-16.315-4.486-7.887-31.97 11.019-28.616s47.709 7.664 47.709 7.664l49.196-2.6 7.039 32.879z"/><path d="M440.197 702.898c-7.324.751-42.677 2.781-51.411 2.235s-39.724-4.479-49.588-6.124c-16.371-2.729-15.01-29.477 5.186-29.477h39.431l50.16-.275z"/></g><path d="M443.224 673.46l.164-.003c10.215-.339 18.12-.775 23.495-1.294a4.86 4.86 0 0 0-.935-9.673c-5.172.501-12.871.922-22.883 1.256a4.859 4.859 0 0 0 .158 9.716zm-48.994 36.708c13.845 0 40.384-1.97 46.338-2.426a4.86 4.86 0 0 0-.742-9.69c-18.924 1.448-43.527 2.907-50.585 2.242l-4.965-.42c-35.324-2.883-45.748-5.48-48.171-7.181a4.859 4.859 0 0 0-8.017 5.472c2.931 4.797 12.303 7.877 55.397 11.395l4.847.409c1.466.138 3.49.197 5.898.197zm-57.852-17.073l.003.005zm60.591 47.093c17.566 0 46.073-2.8 49.978-3.193a4.86 4.86 0 1 0-.972-9.671c-12.856 1.292-48.303 4.291-57.827 2.695-11.976-2.006-55.136-11.826-55.571-11.926a4.86 4.86 0 0 0-2.158 9.476l56.123 12.034c2.468.414 6.12.582 10.427.582v.002zm.415 25.729c18.216 0 49.645-3.963 53.946-4.516a4.858 4.858 0 1 0-1.242-9.638c-19.467 2.506-53.162 5.785-60.69 3.923-11.031-2.73-38.316-10.261-38.59-10.337a4.86 4.86 0 0 0-2.587 9.368l38.843 10.402c2.289.567 5.921.798 10.321.798z" class="D"/><g class="F"><path d="M502.942 247.656s-133.787 163.149-60.255 262.723c0 0-4.832 17.429-1.302 49.024.764 6.836 1.777 35.648 17.642 43.912 3.644 1.898 17.041 4.929 25.702 3.404.476-.084 21.833 13.368 33.362 17.702 11.086 4.168 36.936 9.375 109.957 7.411s148.596-167.921 148.596-167.921l-152.17-207.83-61.532 32.851-60-41.277zm60 384.255s-29.149-1.811-46.283 11.949a14.2 14.2 0 0 0-3.76 17.469c7.851 15.487 23.745 52.157 25.277 97.731 0 0-3.064 23.489 61.787-6.128s-37.021-121.021-37.021-121.021z"/><path d="M641.07 247.656s70.507 10.536 105.951 44.337c11.809 11.261 26.512 29.057 34.605 41.255 35.764 53.903 63.852 192.091 51.699 280.536-11.342 82.545-130.362 125.532-153.17 127.915-10.167 1.062-25.755 1.608-32.591-.315-3.118-.877-18.157 10.603-23.09 12.059-9.349 2.761-39.83 2.213-39.83 2.213l-37.467-118.894 3.765-6.723c7.474-8.352 18.102-11.863 29.091-14.064 2.868-.574 4.997-1.717 6.433-3.371 22.688-26.139 40.162-17.733 61.692-22.249l1.506-.316 19.745-19.149s9.462-23.473 10.723-58.213c1.038-28.586-12.159-67.291-18.383-91.149-13.787-52.851-85.787-137.17-85.787-137.17l53.617-35.085 11.489-1.617z"/><path d="M562.942 273.443l-11.745-28.085s-21.957-16.085-24.766-16.851-16.851 18.894-16.085 21.191 48 60 48 60 69.39-24.34 93.39-56c0 0 3.121-3.489-2.496-12.681-4.487-7.343-14.188-17.781-17.909-21.683a2.966 2.966 0 0 0-3.423-.631l-58.583 27.932-6.383 26.809z"/></g><g fill="#cc2bc5"><path d="M531.565 296.997a5.004 5.004 0 0 1-2.887-.917c-1.35-.955-32.966-23.713-23.91-52.432a5.002 5.002 0 0 1 6.272-3.265 5.001 5.001 0 0 1 3.265 6.272c-4.97 15.759 7.707 30.248 15.165 37.104l15.154-37.956a5.002 5.002 0 0 1 6.498-2.79 5.002 5.002 0 0 1 2.79 6.498l-17.703 44.34a4.998 4.998 0 0 1-4.643 3.146zm63.975 0a5.002 5.002 0 0 1-4.308-2.459c-.759-1.286-18.636-31.621-23.237-43.256a5 5 0 0 1 9.3-3.677c3.395 8.585 15.297 29.383 20.305 38.007 10.283-4.724 37.622-18.307 47.927-33.525a5 5 0 1 1 8.28 5.607c-14.419 21.292-54.642 38.209-56.347 38.919a4.992 4.992 0 0 1-1.919.385zm-39.827 327.149a4.995 4.995 0 0 1-4.18-2.25c-9.683-14.702-16.311-30.406-19.699-46.674-4.226-20.292-3.351-26.454-1.607-38.73.584-4.114 1.246-8.776 1.882-15.017 2.38-23.343.172-37.715-2.166-52.931-1.47-9.567-2.99-19.46-3.486-32.009-.539-13.635 4.028-31.117 9.317-51.361 2.876-11.01 6.136-23.489 8.914-36.675 3.098-14.707 5.111-27.34 7.242-40.716l6.107-35.307a5 5 0 1 1 9.811 1.935c-2.465 12.5-4.284 23.91-6.042 34.945-2.057 12.907-4.184 26.253-7.333 41.203-2.827 13.421-6.119 26.023-9.024 37.142-5.087 19.472-9.48 36.289-9 48.438.474 11.984 1.95 21.593 3.377 30.885 2.438 15.865 4.74 30.85 2.23 55.464-.656 6.437-1.362 11.412-1.93 15.409-1.678 11.816-2.372 16.706 1.497 35.286 3.129 15.029 9.273 29.567 18.26 43.212a5 5 0 0 1-4.172 7.751zm117.245-50.383a5 5 0 0 1-4.9-4.032c-4.264-21.589.23-36.06 3.841-47.687 1.849-5.954 3.445-11.095 3.237-15.676-.54-11.867-13.988-66.673-19.124-86.789a5 5 0 0 1 9.69-2.475c.764 2.994 18.728 73.494 19.424 88.809.288 6.329-1.638 12.53-3.677 19.095-3.446 11.099-7.353 23.679-3.58 42.784a5 5 0 0 1-4.911 5.97z"/><path d="M588.482 762.926a5 5 0 0 1-4.986-5.443c6.204-69.872-34.007-121.087-34.414-121.596a5.009 5.009 0 0 1-.706-5.064c.255-.605 6.38-14.838 19.024-16.628 10.753-1.522 13.642-4.754 17.299-8.846 3.016-3.374 6.434-7.198 13.679-9.711 12.879-4.467 28.253-3.348 34.04-2.926l1.284.092c4.463-1.226 7.808-3.487 12.522-8.407.896-.935 1.774-1.905 2.658-2.88 6.35-7.002 14.249-15.718 29.597-12.906 24.927 4.564 39.441 14.333 40.047 14.747a5 5 0 1 1-5.64 8.258c-.124-.084-13.514-9.013-36.208-13.168-9.877-1.808-14.514 3.309-20.388 9.787l-2.846 3.081c-5.191 5.419-10.22 9.421-17.885 11.34-.968.242-1.698.189-3.868.031-5.227-.381-19.108-1.39-30.038 2.401-4.794 1.663-6.871 3.986-9.5 6.927-4.21 4.71-8.982 10.049-23.354 12.083-4.462.632-8.024 5.014-9.931 8.165 8.511 11.708 40.414 60.459 34.585 126.106a5 5 0 0 1-4.975 4.558zm51.992-13.844a5 5 0 0 1-3.574-8.497c.236-.242 14.416-14.907 17.44-27.305a5 5 0 1 1 9.715 2.369c-3.687 15.115-19.342 31.249-20.007 31.929a4.986 4.986 0 0 1-3.575 1.503z"/></g><path d="M119.919 433.529c-1.384.31-5.287-1.271-4.712.025 5.055 11.382 37.621 53.653 69.353 29.335 36.426-27.915 61.702-91.234 61.702-91.234s-12.229-26.297-38.612-31.527c-6.317-1.252-11.108.234-14.282 5.838-12.098 21.359-48.566 81.986-73.449 87.563z" class="F"/><path d="M442.693 515.38a4.999 4.999 0 0 1-4.974-5.565c1.161-10.203-4.228-18.958-8.954-24.507-11.915-13.99-18.005-31.42-17.149-49.078 2.195-45.274 31.021-89.851 32.248-91.726a5 5 0 0 1 8.371 5.471c-.286.437-28.569 44.222-30.63 86.74-.732 15.108 4.515 30.063 14.774 42.11 8.617 10.118 12.516 21.225 11.276 32.121a5 5 0 0 1-4.961 4.435zm-118.924-39.088a5 5 0 0 1-4.959-4.419l-5.872-50.128a5 5 0 0 1 9.931-1.164l5.872 50.128a5 5 0 0 1-4.972 5.582zm-56.491-48.231a5 5 0 0 1-4.345-7.466l13.702-24.17a5 5 0 1 1 8.699 4.931l-13.702 24.17a4.996 4.996 0 0 1-4.354 2.535zm-95.912 45.277a5 5 0 0 1-1.46-9.783c42.438-12.978 69.693-90.597 69.963-91.38a5.001 5.001 0 0 1 9.452 3.266c-1.172 3.391-29.239 83.227-76.49 97.677a5 5 0 0 1-1.464.22z" fill="#cc2bc5"/><path d="M509.07 1821.954c-4.655 42.446 36.704 46.62 87.83 52.085 29.714 3.177 79.622 4.879 111.319-14.298 29.759-18.004 42.012-56.535 49.83-66.229 13.352-16.557 38.713-24.055 48.979-43.048 2.147-3.973 2.972-26.7 1.176-35.234-2.028-9.638-6.941-22.775-7.814-33.447-.407-4.979 1.275-12.992 1.31-26.299.005-1.966 1.259-12.738-1.82-18.127-4.085-7.149-11.8-2.866-13.998.096-5.002 6.74-10.667 18.567-13.066 22.627-.827 1.399-11.489 17.362-42.128 28.085-18.662-4.786-16.89-12.361-47.528-9.552 0 0-6.344-24.66-18.344-30.022-29.781-13.306-44.959-4.501-54.383 17.617-7.52 17.648-23.01 51.107-27.83 55.66-9.191 8.681-28.23 12.766-56.426 42.211-4.068 4.248-12.659 19.682-13.76 25.879-2.275 12.809-2.138 20.981-3.346 31.995z" fill="#007a63"/><path d="M510.081 1810.078s-10.202 7.366-12.245 13.663 0 58.553 0 58.553 11.574 24.511 55.489 27.574 99.574 2.723 108.085 1.702 63.66-3.234 80.17-27.574c0 0 6.979-12.426 4.085-50.553l9.021-12.766 31.319 3.574 22.128-17.021s5.277-43.745 2.553-56.34-73.327 57.248-75.745 63.83c-1.012 2.754-1.904 9.157-4.766 13.787-4.334 7.011-11.269 12.475-14.809 14.979-1.799 1.273-22.869 15.189-56.418 19.404-38.718 4.865-88.468-1.422-98.135-3.064-18.043-3.064-45.124-11.745-50.553-33.702l-.18-16.046z"/><path d="M621.155 1779.975a5.03 5.03 0 0 1-1.009-.103l-37.225-7.674a15.279 15.279 0 0 1-11.157-9.372 15.267 15.267 0 0 1 1.721-14.455c7.764-11.018 13.414-20.523 16.792-28.251 9.784-22.38 13.914-45.47 13.955-45.7a5 5 0 0 1 9.85 1.729c-.173.988-4.361 24.46-14.641 47.977-3.647 8.343-9.629 18.438-17.78 30.006a5.228 5.228 0 0 0-.597 5.015 5.24 5.24 0 0 0 3.877 3.257l36.712 7.568c8.857-.099 14.815-2.875 18.203-8.479a937.128 937.128 0 0 1 4.495-7.324c12.269-19.858 29.072-47.056 33.875-76.364a4.997 4.997 0 0 1 5.743-4.125 5 5 0 0 1 4.125 5.743c-5.123 31.262-22.527 59.433-35.236 80.002l-4.444 7.242c-5.264 8.706-14.689 13.308-27.257 13.308z" fill="#005141"/></svg></g></svg>